<?xml version="1.0" standalone="no"?>
<!DOCTYPE svg PUBLIC "-//W3C//DTD SVG 20010904//EN"
 "http://www.w3.org/TR/2001/REC-SVG-20010904/DTD/svg10.dtd">
<svg version="1.0" xmlns="http://www.w3.org/2000/svg"
 width="512.000000pt" height="512.000000pt" viewBox="0 0 512.000000 512.000000"
 preserveAspectRatio="xMidYMid meet">

<g transform="translate(0.000000,512.000000) scale(0.100000,-0.100000)"
fill="#000000" stroke="none">
<path d="M2132 4738 c-256 -32 -555 -151 -784 -314 -112 -79 -327 -297 -410
-414 -133 -188 -240 -437 -290 -675 -20 -95 -23 -139 -23 -330 0 -238 8 -300
64 -492 76 -263 197 -476 400 -702 139 -156 189 -254 212 -417 13 -95 16 -70
-92 -702 -49 -287 -89 -539 -89 -560 0 -49 29 -95 73 -115 32 -15 108 -17 825
-17 l789 0 34 23 c69 46 69 46 69 490 0 218 2 397 5 397 2 0 40 -12 82 -28
l78 -27 375 0 375 0 50 27 c113 60 149 126 170 315 22 193 20 280 -6 370 l-22
75 44 38 44 38 6 121 c4 104 8 124 25 142 12 11 112 62 223 114 112 52 212
102 223 112 33 29 58 89 58 136 0 81 -28 114 -240 285 -199 161 -251 215 -270
280 -6 20 -15 105 -20 187 -16 252 -64 440 -170 662 -195 408 -534 720 -959
884 -98 38 -293 86 -401 99 -101 12 -346 11 -448 -2z m433 -99 c537 -65 1030
-413 1269 -894 109 -219 161 -418 176 -670 9 -156 23 -219 65 -284 36 -57 69
-88 257 -239 97 -78 183 -151 192 -164 24 -33 20 -75 -8 -101 -14 -12 -113
-62 -220 -111 -264 -120 -286 -144 -286 -325 l0 -83 -44 -39 c-24 -21 -46 -49
-50 -63 -3 -13 5 -60 19 -106 29 -97 31 -159 10 -344 -17 -148 -33 -187 -94
-231 l-43 -30 -316 -3 c-204 -2 -340 1 -382 8 -81 14 -140 38 -462 185 -267
122 -299 131 -313 85 -14 -45 2 -56 240 -165 l235 -108 0 -416 c0 -311 -3
-420 -12 -429 -9 -9 -197 -12 -784 -12 -685 0 -773 2 -784 16 -11 12 3 108 81
557 106 615 113 690 71 840 -41 144 -95 232 -244 395 -193 211 -335 502 -395
807 -27 140 -24 464 6 605 110 514 426 927 886 1158 163 81 351 139 525 161
97 13 303 12 405 0z"/>
<path d="M2304 4310 c-11 -4 -43 -31 -71 -60 -169 -172 -163 -444 14 -611 l53
-50 0 -200 c0 -181 -2 -200 -17 -205 -51 -16 -106 -48 -152 -88 -69 -62 -79
-66 -194 -82 -68 -9 -122 -24 -165 -44 l-64 -30 -66 49 c-90 67 -145 79 -223
47 -13 -6 -29 24 -83 157 -82 200 -114 237 -206 237 -82 0 -160 -74 -160 -151
0 -44 141 -543 171 -602 83 -167 170 -247 410 -373 90 -47 179 -100 197 -117
18 -17 48 -63 66 -102 37 -79 77 -119 134 -135 22 -6 186 -10 415 -10 411 0
420 1 480 58 16 15 42 56 58 92 17 36 42 78 57 93 15 15 100 66 189 113 89 46
189 105 223 130 77 58 151 148 196 239 38 77 174 556 174 613 0 141 -179 206
-277 100 -11 -12 -52 -98 -89 -190 l-67 -166 -24 16 c-56 36 -152 9 -234 -65
l-39 -36 -70 32 c-50 23 -99 36 -170 45 -105 14 -126 23 -194 86 -43 39 -102
73 -148 84 l-28 6 0 199 0 200 36 29 c56 47 110 126 134 198 31 93 26 224 -13
307 -66 145 -169 221 -253 187z m98 -138 c115 -123 116 -315 3 -441 -21 -22
-45 -41 -55 -41 -44 0 -124 133 -135 225 -8 57 13 156 42 203 19 32 84 102 94
102 3 0 26 -22 51 -48z m-1228 -864 c14 -22 165 -384 192 -461 29 -81 173
-257 211 -257 23 0 53 29 53 51 0 10 -27 49 -60 85 -80 88 -112 144 -108 186
3 28 7 34 31 36 35 4 48 -4 171 -112 99 -86 154 -118 367 -214 81 -36 140 -88
191 -166 58 -90 78 -167 78 -302 l0 -114 -149 0 c-191 0 -205 5 -242 85 -55
123 -85 149 -293 260 -204 108 -277 164 -340 260 -49 73 -73 139 -146 408 -58
216 -61 230 -46 253 22 32 70 33 90 2z m2448 5 c10 -9 18 -23 18 -32 0 -9 -32
-130 -70 -270 -77 -280 -104 -342 -189 -434 -70 -75 -103 -97 -291 -195 -181
-94 -226 -133 -277 -240 -47 -98 -57 -102 -253 -102 l-150 0 0 110 c0 87 5
124 23 183 44 137 127 235 247 289 227 103 285 137 375 218 97 88 135 113 167
108 62 -9 30 -101 -75 -216 -37 -39 -67 -79 -67 -87 0 -19 36 -55 55 -55 34 0
157 140 196 225 10 22 60 141 110 265 50 124 96 231 101 238 15 17 58 15 80
-5z"/>
<path d="M1744 4170 c-38 -15 -54 -50 -54 -115 0 -121 74 -205 190 -213 75 -5
114 10 134 53 44 92 -9 221 -109 266 -42 19 -125 24 -161 9z m132 -109 c33
-20 61 -79 50 -106 -3 -9 -18 -15 -37 -15 -46 0 -99 56 -99 104 0 33 3 36 28
36 15 0 41 -9 58 -19z"/>
<path d="M2810 4169 c-95 -38 -152 -145 -130 -245 13 -59 49 -84 118 -84 138
1 235 108 218 240 -9 68 -49 100 -124 99 -31 0 -68 -5 -82 -10z m105 -99 c3
-5 1 -28 -5 -50 -12 -46 -56 -80 -102 -80 -24 0 -28 4 -28 30 0 41 17 73 48
93 30 18 78 22 87 7z"/>
<path d="M1804 3720 c-12 -4 -31 -21 -44 -37 -20 -25 -22 -36 -18 -108 5 -93
29 -151 89 -219 95 -108 291 -151 362 -80 80 80 14 300 -117 391 -79 54 -207
79 -272 53z m186 -120 c48 -24 107 -93 121 -140 6 -19 9 -53 7 -75 l-3 -40
-49 3 c-60 3 -136 42 -171 88 -44 57 -71 165 -47 188 11 12 101 -3 142 -24z"/>
<path d="M2744 3721 c-62 -15 -124 -54 -173 -107 -63 -69 -91 -141 -91 -234 0
-62 3 -73 28 -101 24 -27 37 -33 85 -37 170 -14 334 116 366 291 17 92 -2 157
-51 183 -28 15 -111 17 -164 5z m116 -139 c0 -66 -42 -147 -97 -189 -43 -32
-140 -60 -169 -49 -23 9 -17 85 12 144 42 85 128 139 222 141 32 1 32 1 32
-47z"/>
</g>
</svg>
