<?xml version="1.0" standalone="no"?>
<!DOCTYPE svg PUBLIC "-//W3C//DTD SVG 1.1//EN" "http://www.w3.org/Graphics/SVG/1.1/DTD/svg11.dtd" >
<svg xmlns="http://www.w3.org/2000/svg" xmlns:xlink="http://www.w3.org/1999/xlink" version="1.1">
<metadata>
Created by FontForge 20201107 at Mon Nov  4 15:40:53 2024
 By 
Copyright (c) Andrew Lethbridge
</metadata>
<defs>
<font id="BRCandor-SemiBoldItalic" horiz-adv-x="0" >
  <font-face 
    font-family="BR Candor SemiBold"
    font-weight="600"
    font-style="italic"
    font-stretch="normal"
    units-per-em="2048"
    panose-1="0 0 0 0 0 0 0 0 0 0"
    ascent="1577"
    descent="-471"
    x-height="1049"
    cap-height="1434"
    bbox="-465 -543 2599 1982"
    underline-thickness="184"
    underline-position="-378"
    slope="-6"
    unicode-range="U+000D-2B51"
  />
<missing-glyph horiz-adv-x="1523" 
d="M117 0l149 1434h1180l-150 -1434h-1179zM508 1018l119 -80q84 127 207 127q49 0 77.5 -22t28.5 -64q0 -68 -72 -119l-71 -53q-71 -55 -96 -94t-31 -107l-6 -63h155l6 57q4 41 17 61.5t51 49.5l65 49q73 56 109.5 110.5t36.5 124.5q0 95 -73.5 154t-186.5 59
q-107 0 -196 -52t-140 -138zM612 309q0 -42 27 -68t70 -26q50 0 81 33.5t31 85.5q0 43 -25.5 68.5t-68.5 25.5q-51 0 -83 -34t-32 -85z" />
    <glyph glyph-name=".notdef" horiz-adv-x="1523" 
d="M117 0l149 1434h1180l-150 -1434h-1179zM508 1018l119 -80q84 127 207 127q49 0 77.5 -22t28.5 -64q0 -68 -72 -119l-71 -53q-71 -55 -96 -94t-31 -107l-6 -63h155l6 57q4 41 17 61.5t51 49.5l65 49q73 56 109.5 110.5t36.5 124.5q0 95 -73.5 154t-186.5 59
q-107 0 -196 -52t-140 -138zM612 309q0 -42 27 -68t70 -26q50 0 81 33.5t31 85.5q0 43 -25.5 68.5t-68.5 25.5q-51 0 -83 -34t-32 -85z" />
    <glyph glyph-name=".null" 
 />
    <glyph glyph-name="nonmarkingreturn" horiz-adv-x="682" 
 />
    <glyph glyph-name="CR" unicode="&#xd;" horiz-adv-x="501" 
 />
    <glyph glyph-name="space" unicode=" " horiz-adv-x="501" 
 />
    <glyph glyph-name="exclam" unicode="!" horiz-adv-x="561" 
d="M170 477l74 957h264l-127 -957h-211zM72 133q0 79 53 132.5t133 53.5q64 0 108 -43.5t44 -105.5q0 -81 -52.5 -133.5t-132.5 -52.5q-67 0 -110 42t-43 107z" />
    <glyph glyph-name="quotedbl" unicode="&#x22;" horiz-adv-x="817" 
d="M164 889l20 569h258l-98 -569h-180zM551 889l20 569h258l-98 -569h-180z" />
    <glyph glyph-name="numbersign" unicode="#" horiz-adv-x="1466" 
d="M770 31l72 362h-303l-72 -362h-213l72 362h-207v189h243l54 270h-211v188h248l71 363h213l-71 -363h303l71 363h213l-71 -363h207v-188h-244l-53 -270h211v-189h-248l-72 -362h-213zM575 582h304l53 270h-303z" />
    <glyph glyph-name="dollar" unicode="$" horiz-adv-x="1159" 
d="M463 -86l14 133q-252 22 -422 170l148 184q147 -116 297 -137l39 375l-93 25q-143 35 -217.5 114t-74.5 193q0 182 134.5 296.5t340.5 125.5l12 127h117l-15 -131q111 -12 210.5 -58.5t172.5 -122.5l-163 -164q-100 103 -242 125l-35 -346l105 -26q139 -34 213.5 -112.5
t74.5 -197.5q0 -200 -133.5 -316.5t-351.5 -127.5l-14 -129h-117zM389 999q0 -52 42 -86.5t140 -60.5l35 322q-98 -9 -157.5 -56t-59.5 -119zM616 260q103 9 165.5 62t62.5 131q0 58 -43 95t-137 60l-11 2z" />
    <glyph glyph-name="percent" unicode="%" horiz-adv-x="1832" 
d="M287 0l1065 1434h235l-1065 -1434h-235zM125 1051q0 168 120 287.5t290 119.5q150 0 248 -95.5t98 -242.5q0 -167 -119.5 -287t-290.5 -120q-148 0 -247 96t-99 242zM324 1061q0 -74 43 -120t116 -46q90 0 144.5 61.5t54.5 153.5q0 76 -42.5 121t-115.5 45
q-91 0 -145.5 -62t-54.5 -153zM993 311q0 169 119.5 289.5t290.5 120.5q148 0 246 -95.5t98 -242.5q0 -167 -119 -287.5t-289 -120.5q-150 0 -248 95t-98 241zM1190 324q0 -74 43.5 -120t116.5 -46q90 0 145 61.5t55 151.5q0 77 -43 122.5t-116 45.5q-91 0 -146 -62
t-55 -153z" />
    <glyph glyph-name="ampersand" unicode="&#x26;" horiz-adv-x="1357" 
d="M1024 0l-94 123q-186 -148 -426 -148q-202 0 -324.5 103.5t-122.5 261.5q0 97 45.5 180.5t116.5 143t176 116.5l8 4q-139 182 -139 314q0 156 124 258t304 102q157 0 261 -86.5t104 -216.5q0 -122 -81.5 -222t-217.5 -175l-43 -23l227 -295q65 91 137 232l193 -94
q-93 -185 -197 -310l207 -268h-258zM309 362q0 -81 58 -128.5t165 -47.5q143 0 259 93l-271 352l-10 -6q-201 -106 -201 -263zM498 1098q0 -79 80 -185l24 -30l62 32q167 93 167 211q0 61 -43 97.5t-110 36.5q-75 0 -127.5 -45.5t-52.5 -116.5z" />
    <glyph glyph-name="quotesingle" unicode="'" horiz-adv-x="430" 
d="M164 889l20 569h258l-98 -569h-180z" />
    <glyph glyph-name="parenleft" unicode="(" horiz-adv-x="692" 
d="M375 -254q-121 160 -183.5 359.5t-62.5 408.5q0 281 117 554.5t317 475.5l174 -121q-158 -173 -256 -421t-98 -478q0 -184 51.5 -359t138.5 -298z" />
    <glyph glyph-name="parenright" unicode=")" horiz-adv-x="692" 
d="M342 1544q121 -160 183.5 -359.5t62.5 -408.5q0 -281 -117 -554.5t-317 -475.5l-174 121q158 173 256 421t98 478q0 183 -51.5 358.5t-139.5 298.5z" />
    <glyph glyph-name="asterisk" unicode="*" horiz-adv-x="1021" 
d="M242 750l190 243l-295 84l60 180l290 -108l-12 309h187l-13 -309l291 106l59 -178l-297 -84l191 -243l-154 -109l-172 258l-172 -258z" />
    <glyph glyph-name="plus" unicode="+" horiz-adv-x="1331" 
d="M510 170l39 367h-340l22 225h342l39 366h234l-39 -366h342l-23 -225h-342l-39 -367h-235z" />
    <glyph glyph-name="comma" unicode="," horiz-adv-x="514" 
d="M18 -264q151 133 187 260h-17q-67 0 -107 40.5t-40 104.5q0 74 52 124t130 50q71 0 118.5 -52t47.5 -142q0 -127 -82.5 -256t-206.5 -221z" />
    <glyph glyph-name="hyphen" unicode="-" horiz-adv-x="790" 
d="M74 522l22 217h643l-24 -217h-641z" />
    <glyph glyph-name="period" unicode="." horiz-adv-x="495" 
d="M193 -16q-66 0 -109 42t-43 107q0 79 53.5 132.5t132.5 53.5q63 0 106.5 -43.5t43.5 -105.5q0 -82 -51 -134t-133 -52z" />
    <glyph glyph-name="slash" unicode="/" horiz-adv-x="1048" 
d="M39 -188l758 1708h245l-757 -1708h-246z" />
    <glyph glyph-name="zero" unicode="0" horiz-adv-x="1396" 
d="M647 -25q-247 0 -386.5 159t-139.5 448q0 143 26.5 272.5t81.5 240t133.5 191.5t187.5 126.5t238 45.5q247 0 387 -159.5t140 -448.5q0 -180 -43 -337t-124.5 -277.5t-210.5 -190.5t-290 -70zM379 588q0 -191 74.5 -285t212.5 -94q84 0 151.5 36.5t111.5 97t73.5 143.5
t42 172.5t12.5 187.5q0 191 -73.5 285t-211.5 94q-104 0 -182.5 -54.5t-123 -147t-66 -202t-21.5 -233.5z" />
    <glyph glyph-name="one" unicode="1" horiz-adv-x="880" 
d="M383 0l121 1153l-375 -178l27 256l419 203h213l-149 -1434h-256z" />
    <glyph glyph-name="two" unicode="2" horiz-adv-x="1185" 
d="M27 0l22 203l555 471q89 76 142 130t90.5 121.5t37.5 131.5q0 78 -52.5 123t-143.5 45q-206 0 -373 -242l-190 135q105 166 255 253t324 87q192 0 314 -104.5t122 -270.5q0 -142 -75.5 -261t-220.5 -244l-406 -345h639l-25 -233h-1015z" />
    <glyph glyph-name="three" unicode="3" horiz-adv-x="1157" 
d="M508 -25q-151 0 -279 53t-215 152l162 178q150 -153 338 -153q130 0 211.5 64.5t81.5 162.5q0 89 -74.5 136.5t-224.5 47.5h-129l24 228h158q134 0 212.5 58.5t78.5 154.5q0 78 -56.5 125t-162.5 47q-191 0 -350 -172l-158 160q211 241 530 241q205 0 330 -103t125 -268
q0 -131 -72 -225t-196 -131q106 -35 161.5 -114t55.5 -191q0 -203 -155 -327t-396 -124z" />
    <glyph glyph-name="four" unicode="4" horiz-adv-x="1269" 
d="M752 0l30 291h-737l23 211l776 932h299l-99 -930h189l-23 -213h-188l-31 -291h-239zM328 504h477l67 653z" />
    <glyph glyph-name="five" unicode="5" horiz-adv-x="1191" 
d="M524 -25q-300 0 -489 195l158 184q147 -147 346 -147q149 0 236 76t87 202q0 97 -63 153t-176 56q-153 0 -281 -88l-176 103l102 725h865l-25 -234h-635l-47 -340q116 55 256 55q193 0 315.5 -109.5t122.5 -303.5q0 -239 -165.5 -383t-430.5 -144z" />
    <glyph glyph-name="six" unicode="6" horiz-adv-x="1249" 
d="M584 -25q-222 0 -363 124.5t-141 332.5q0 290 280 617l334 385h303l-413 -469q72 16 137 16q198 0 328.5 -123.5t130.5 -316.5q0 -160 -78.5 -290t-215 -203t-302.5 -73zM336 457q0 -120 70.5 -188t195.5 -68q144 0 234 90t90 227q0 110 -70.5 177t-193.5 67
q-143 0 -277 -94q-49 -111 -49 -211z" />
    <glyph glyph-name="seven" unicode="7" horiz-adv-x="1095" 
d="M119 0l704 1200h-702l24 234h994l-21 -205l-710 -1229h-289z" />
    <glyph glyph-name="eight" unicode="8" horiz-adv-x="1261" 
d="M582 -25q-241 0 -375.5 108t-134.5 279q0 132 73 234t197 158q-147 93 -147 272q0 191 150.5 311.5t377.5 120.5q210 0 333.5 -102.5t123.5 -259.5q0 -110 -57 -200.5t-156 -145.5q95 -47 144.5 -128t49.5 -184q0 -141 -75 -247t-206 -161t-298 -55zM332 393
q0 -91 68.5 -145.5t195.5 -54.5q138 0 224.5 68.5t86.5 178.5q0 92 -68.5 146.5t-195.5 54.5q-138 0 -224.5 -67.5t-86.5 -180.5zM449 1018q0 -78 57 -126t158 -48q116 0 188 62t72 161q0 80 -57.5 128t-159.5 48q-115 0 -186.5 -61.5t-71.5 -163.5z" />
    <glyph glyph-name="nine" unicode="9" horiz-adv-x="1247" 
d="M707 1458q222 0 362.5 -124.5t140.5 -332.5q0 -289 -280 -616l-334 -385h-303l414 469q-72 -16 -138 -16q-198 0 -328 123t-130 317q0 160 78.5 290t215 202.5t302.5 72.5zM365 915q0 -110 70.5 -176.5t193.5 -66.5q142 0 276 94q49 111 49 211q0 120 -70.5 188
t-195.5 68q-144 0 -233.5 -90.5t-89.5 -227.5z" />
    <glyph glyph-name="colon" unicode=":" horiz-adv-x="495" 
d="M193 -18q-66 0 -109 42t-43 107q0 79 53.5 132.5t132.5 53.5q63 0 106.5 -43.5t43.5 -105.5q0 -82 -51 -134t-133 -52zM111 805q0 79 53.5 132.5t132.5 53.5q63 0 106 -43.5t43 -105.5q0 -82 -51.5 -134.5t-132.5 -52.5q-66 0 -108.5 42.5t-42.5 107.5z" />
    <glyph glyph-name="semicolon" unicode=";" horiz-adv-x="514" 
d="M266 655q-66 0 -108.5 42.5t-42.5 107.5q0 79 53.5 132.5t132.5 53.5q63 0 106.5 -43.5t43.5 -105.5q0 -82 -51.5 -134.5t-133.5 -52.5zM18 -266q151 133 187 260h-17q-67 0 -107 40.5t-40 104.5q0 74 52 124t130 50q71 0 118.5 -52t47.5 -142q0 -127 -82.5 -256
t-206.5 -221z" />
    <glyph glyph-name="less" unicode="&#x3c;" horiz-adv-x="1331" 
d="M1090 184l-883 353l24 225l955 352l-25 -240l-629 -225l582 -225z" />
    <glyph glyph-name="equal" unicode="=" horiz-adv-x="1331" 
d="M229 752l25 223h917l-22 -223h-920zM184 324l25 223h917l-22 -223h-920z" />
    <glyph glyph-name="greater" unicode="&#x3e;" horiz-adv-x="1331" 
d="M170 184l27 240l628 225l-583 225l26 240l881 -352l-23 -225z" />
    <glyph glyph-name="question" unicode="?" horiz-adv-x="983" 
d="M332 563q11 105 48 166t150 148l103 79q55 43 79.5 76.5t24.5 81.5q0 56 -37.5 88.5t-107.5 32.5q-180 0 -281 -225l-215 84q60 170 195.5 267t314.5 97q165 0 273 -88t108 -229q0 -103 -56.5 -187t-160.5 -166l-98 -75q-56 -42 -72 -69.5t-22 -88.5l-11 -78h-245z
M242 133q0 79 53 132.5t133 53.5q64 0 108 -43.5t44 -105.5q0 -82 -52.5 -134t-134.5 -52q-66 0 -108.5 42t-42.5 107z" />
    <glyph glyph-name="at" unicode="@" horiz-adv-x="1957" 
d="M924 -391q-247 0 -438 97t-295.5 272.5t-104.5 402.5q0 207 78 393t211.5 320.5t319 213t392.5 78.5q165 0 311.5 -52.5t254 -145.5t170.5 -228.5t63 -293.5q0 -162 -53 -298.5t-158 -222.5t-243 -86q-80 0 -144 30.5t-100 88.5q-122 -102 -279 -102q-152 0 -255 104.5
t-103 263.5q0 123 57.5 230t158 171t218.5 64q129 0 213 -75l6 57h213l-53 -518q-15 -133 92 -133q66 0 117 57t76.5 146t25.5 192q0 256 -165.5 403.5t-430.5 147.5q-165 0 -309.5 -60.5t-246 -165t-160 -249t-58.5 -308.5q0 -272 169 -434t462 -162q110 0 214 24.5
t181 66.5l84 -174q-209 -115 -491 -115zM768 463q0 -87 51.5 -139t136.5 -52q113 0 191 84q0 2 1 8t1 9l27 256q-61 84 -172 84q-102 0 -169 -73.5t-67 -176.5z" />
    <glyph glyph-name="A" unicode="A" horiz-adv-x="1460" 
d="M-33 0l711 1434h295l409 -1434h-270l-92 332h-614l-162 -332h-277zM514 555h444l-161 584z" />
    <glyph glyph-name="B" unicode="B" horiz-adv-x="1421" 
d="M117 0l149 1434h576q204 0 324 -93.5t120 -250.5q0 -113 -46.5 -195.5t-135.5 -126.5q107 -44 161 -121.5t54 -181.5q0 -151 -75.5 -257.5t-204.5 -157t-300 -50.5h-622zM395 223h363q133 0 214 64.5t81 173.5q0 86 -64 136t-186 50h-363zM463 864h325q108 0 172 52.5
t64 144.5q0 149 -201 149h-323z" />
    <glyph glyph-name="C" unicode="C" horiz-adv-x="1542" 
d="M776 -25q-143 0 -266.5 48.5t-211 134.5t-137.5 208.5t-50 264.5q0 172 63.5 325t172 263t260.5 174.5t323 64.5q196 0 357 -95.5t245 -266.5l-238 -129q-53 120 -154 183.5t-233 63.5q-150 0 -271.5 -75.5t-189 -204.5t-67.5 -285q0 -193 119 -311.5t305 -118.5
q133 0 248 65t192 183l213 -131q-117 -172 -292.5 -266.5t-387.5 -94.5z" />
    <glyph glyph-name="D" unicode="D" horiz-adv-x="1466" 
d="M117 0l149 1434h465q193 0 343.5 -76t236.5 -220t86 -335q0 -177 -60 -326.5t-166.5 -254t-258.5 -163.5t-332 -59h-463zM401 242h193q250 0 393 148.5t143 400.5q0 195 -114.5 298t-323.5 103h-192z" />
    <glyph glyph-name="E" unicode="E" horiz-adv-x="1298" 
d="M117 0l149 1434h1008l-25 -240h-747l-35 -332h651l-26 -237h-652l-41 -385h750l-27 -240h-1005z" />
    <glyph glyph-name="F" unicode="F" horiz-adv-x="1286" 
d="M117 0l149 1434h1008l-25 -240h-747l-41 -377h686l-25 -239h-686l-61 -578h-258z" />
    <glyph glyph-name="G" unicode="G" horiz-adv-x="1589" 
d="M795 -25q-204 0 -360.5 82.5t-241 230t-84.5 337.5q0 173 63 327.5t171 265.5t259 175.5t320 64.5q179 0 327 -72t238 -206l-232 -144q-55 86 -147 132t-203 46q-152 0 -274 -75.5t-189 -205t-67 -286.5q0 -198 121.5 -313t330.5 -115q205 0 367 96l31 293h-336l24 226
h580l-72 -662q-266 -197 -626 -197z" />
    <glyph glyph-name="H" unicode="H" horiz-adv-x="1558" 
d="M117 0l149 1434h260l-61 -574h698l60 574h260l-152 -1434h-258l64 618h-699l-63 -618h-258z" />
    <glyph glyph-name="I" unicode="I" horiz-adv-x="602" 
d="M117 0l149 1434h260l-151 -1434h-258z" />
    <glyph glyph-name="J" unicode="J" horiz-adv-x="1187" 
d="M467 -25q-243 0 -453 146l136 213q177 -113 323 -113q122 0 204 74t95 215l96 924h260l-100 -945q-26 -253 -169 -383.5t-392 -130.5z" />
    <glyph glyph-name="K" unicode="K" horiz-adv-x="1478" 
d="M117 0l149 1434h260l-73 -691l731 691h336l-682 -650l563 -784h-320l-436 602l-229 -217l-41 -385h-258z" />
    <glyph glyph-name="L" unicode="L" horiz-adv-x="1189" 
d="M117 0l149 1434h260l-125 -1192h686l-24 -242h-946z" />
    <glyph glyph-name="M" unicode="M" horiz-adv-x="1976" 
d="M117 0l149 1434h316l387 -1061l606 1061h326l-152 -1434h-256l109 1018l-562 -977h-206l-355 977l-108 -1018h-254z" />
    <glyph glyph-name="N" unicode="N" horiz-adv-x="1581" 
d="M117 0l149 1434h256l619 -1020l106 1020h258l-151 -1434h-256l-615 1018l-108 -1018h-258z" />
    <glyph glyph-name="O" unicode="O" horiz-adv-x="1665" 
d="M780 -25q-191 0 -343.5 83t-239 233t-86.5 340q0 170 63.5 323t171.5 263.5t259 175.5t319 65q191 0 344 -83.5t240 -234.5t87 -341q0 -169 -63.5 -321.5t-172 -262.5t-260 -175t-319.5 -65zM377 649q0 -192 118.5 -311t303.5 -119q113 0 212 44.5t168.5 120t109.5 179.5
t40 219q0 195 -117.5 313.5t-306.5 118.5q-150 0 -271.5 -75.5t-189 -204.5t-67.5 -285z" />
    <glyph glyph-name="P" unicode="P" horiz-adv-x="1345" 
d="M117 0l149 1434h574q214 0 341.5 -109t127.5 -297q0 -241 -153.5 -375.5t-412.5 -134.5h-313l-55 -518h-258zM455 760h295q138 0 215 61.5t77 186.5q0 184 -247 184h-293z" />
    <glyph glyph-name="Q" unicode="Q" horiz-adv-x="1665" 
d="M1305 -293l-275 307q-125 -39 -250 -39q-191 0 -343.5 83t-239 233t-86.5 340q0 170 63.5 323t171.5 263.5t259 175.5t319 65q191 0 344 -83.5t240 -234.5t87 -341q0 -199 -85.5 -371.5t-235.5 -288.5l231 -258zM377 649q0 -192 118.5 -311t303.5 -119q113 0 212 44.5
t168.5 120t109.5 179.5t40 219q0 195 -117.5 313.5t-306.5 118.5q-150 0 -271.5 -75.5t-189 -204.5t-67.5 -285z" />
    <glyph glyph-name="R" unicode="R" horiz-adv-x="1415" 
d="M117 0l149 1434h590q212 0 339.5 -109t127.5 -293q0 -194 -107 -321t-292 -166l356 -545h-301l-336 530h-213l-55 -530h-258zM457 770h313q136 0 211.5 61.5t75.5 182.5q0 178 -244 178h-311z" />
    <glyph glyph-name="S" unicode="S" horiz-adv-x="1236" 
d="M586 -25q-158 0 -301.5 49.5t-245.5 141.5l151 203q196 -158 414 -158q129 0 212 58t83 157q0 60 -46 102t-148 68l-246 61q-154 37 -236 124.5t-82 213.5q0 140 74 246.5t200.5 161.5t284.5 55q149 0 280 -51.5t226 -149.5l-170 -180q-145 148 -352 148
q-123 0 -202 -53.5t-79 -145.5q0 -56 46 -94.5t155 -65.5l246 -61q154 -37 233.5 -124t79.5 -218q0 -151 -74 -262.5t-203.5 -168.5t-299.5 -57z" />
    <glyph glyph-name="T" unicode="T" horiz-adv-x="1259" 
d="M444 0l125 1192h-452l24 242h1168l-25 -242h-457l-122 -1192h-261z" />
    <glyph glyph-name="U" unicode="U" horiz-adv-x="1509" 
d="M702 -25q-281 0 -426 156t-116 442l90 861h260l-88 -834q-20 -191 58 -286t243 -95q164 0 262.5 95.5t118.5 285.5l88 834h258l-90 -861q-29 -286 -203 -442t-455 -156z" />
    <glyph glyph-name="V" unicode="V" horiz-adv-x="1427" 
d="M512 0l-395 1434h270l297 -1131l537 1131h280l-696 -1434h-293z" />
    <glyph glyph-name="W" unicode="W" horiz-adv-x="2177" 
d="M426 0l-285 1434h267l202 -1037l455 1037h233l238 -1037l420 1037h270l-586 -1434h-258l-237 1061l-461 -1061h-258z" />
    <glyph glyph-name="X" unicode="X" horiz-adv-x="1380" 
d="M-12 0l559 752l-381 682h283l276 -504l383 504h297l-524 -691l401 -743h-285l-297 551l-411 -551h-301z" />
    <glyph glyph-name="Y" unicode="Y" horiz-adv-x="1333" 
d="M481 0l60 563l-437 871h285l303 -615l432 615h295l-618 -871l-60 -563h-260z" />
    <glyph glyph-name="Z" unicode="Z" horiz-adv-x="1257" 
d="M45 0l21 199l811 993h-695l25 242h1032l-20 -199l-811 -993h720l-26 -242h-1057z" />
    <glyph glyph-name="bracketleft" unicode="[" horiz-adv-x="749" 
d="M80 -233l184 1753h524l-24 -222h-277l-139 -1310h279l-23 -221h-524z" />
    <glyph glyph-name="backslash" unicode="\" horiz-adv-x="950" 
d="M598 -188l-461 1708h246l461 -1708h-246z" />
    <glyph glyph-name="bracketright" unicode="]" horiz-adv-x="751" 
d="M696 1520l-184 -1753h-524l24 221h277l139 1310h-278l22 222h524z" />
    <glyph glyph-name="asciicircum" unicode="^" horiz-adv-x="1116" 
d="M102 870l433 564h237l313 -564h-268l-180 349l-252 -349h-283z" />
    <glyph glyph-name="underscore" unicode="_" horiz-adv-x="892" 
d="M-59 -303l20 203h840l-23 -203h-837z" />
    <glyph glyph-name="grave" unicode="`" horiz-adv-x="1228" 
d="M643 1200l-182 301h278l117 -301h-213z" />
    <glyph glyph-name="a" unicode="a" horiz-adv-x="1300" 
d="M547 -25q-200 0 -333.5 137t-133.5 349q0 163 75 303.5t207.5 224.5t290.5 84q182 0 301 -110l9 86h245l-110 -1049h-246l8 80q-133 -105 -313 -105zM332 481q0 -127 76 -203.5t198 -76.5q77 0 151.5 32t129.5 93l41 395q-43 61 -110 93t-144 32q-150 0 -246 -103.5
t-96 -261.5z" />
    <glyph glyph-name="b" unicode="b" horiz-adv-x="1302" 
d="M643 -25q-184 0 -297 107l-8 -82h-246l160 1511h246l-58 -544q133 106 316 106q197 0 331 -138.5t134 -348.5q0 -165 -75 -305t-208 -223t-295 -83zM373 324q43 -60 109 -91.5t143 -31.5q150 0 247 105.5t97 260.5q0 128 -76 203.5t-199 75.5q-163 0 -280 -123z" />
    <glyph glyph-name="c" unicode="c" horiz-adv-x="1153" 
d="M582 -25q-222 0 -363 134t-141 346q0 171 79.5 312.5t219.5 223.5t309 82q141 0 255.5 -58t184.5 -167l-198 -152q-95 150 -256 150q-147 0 -243.5 -104t-96.5 -259q0 -128 76 -205t196 -77q83 0 161.5 41t141.5 116l174 -137q-88 -118 -217.5 -182t-281.5 -64z" />
    <glyph glyph-name="d" unicode="d" horiz-adv-x="1300" 
d="M852 0l8 80q-133 -105 -313 -105q-200 0 -333.5 137t-133.5 349q0 165 75 305.5t207.5 223.5t292.5 83q186 0 297 -108l58 546h245l-157 -1511h-246zM332 481q0 -127 76 -203.5t198 -76.5q77 0 150.5 31.5t130.5 93.5l41 397q-43 60 -110 91.5t-144 31.5
q-151 0 -246.5 -104t-95.5 -261z" />
    <glyph glyph-name="e" unicode="e" horiz-adv-x="1251" 
d="M592 -25q-235 0 -374.5 130t-139.5 344q0 131 46.5 246.5t127.5 198.5t195 131t245 48q213 0 346 -122.5t133 -329.5q0 -65 -20 -158h-829q1 -133 75.5 -205t208.5 -72q188 0 326 150l168 -131q-195 -230 -508 -230zM354 647h576q-7 108 -73 163.5t-179 55.5
q-118 0 -202 -59t-122 -160z" />
    <glyph glyph-name="f" unicode="f" horiz-adv-x="866" 
d="M301 1102q23 213 137.5 323.5t309.5 110.5q109 0 210 -39l-57 -211q-67 25 -131 25q-199 0 -225 -213l-6 -49h352l-23 -215h-350l-88 -834h-246l88 834h-215l23 215h215z" />
    <glyph glyph-name="g" unicode="g" horiz-adv-x="1300" 
d="M518 -471q-150 0 -279 51t-212 144l157 180q164 -150 342 -150q139 0 226.5 73.5t101.5 199.5l8 88q-133 -105 -313 -105q-201 0 -334 134.5t-133 342.5q0 157 75 291.5t206 214.5t286 80q181 0 303 -110l9 86h245l-106 -1022q-26 -235 -178 -366.5t-404 -131.5zM332 504
q0 -122 76.5 -197.5t197.5 -75.5q76 0 150 31.5t133 91.5l39 371q-45 60 -113 91.5t-145 31.5q-146 0 -242 -100.5t-96 -243.5z" />
    <glyph glyph-name="h" unicode="h" horiz-adv-x="1257" 
d="M881 575q13 133 -38.5 202t-156.5 69q-155 0 -272 -123l-76 -723h-246l160 1511h246l-58 -550q146 112 330 112t284 -118t79 -326l-68 -629h-246z" />
    <glyph glyph-name="i" unicode="i" horiz-adv-x="540" 
d="M92 0l111 1049h246l-111 -1049h-246zM199 1331q0 69 51 119.5t121 50.5q61 0 103 -41.5t42 -103.5q0 -68 -51 -118t-121 -50q-62 0 -103.5 41t-41.5 102z" />
    <glyph glyph-name="j" unicode="j" horiz-adv-x="540" 
d="M-68 -471q-109 0 -194 35l57 219q65 -21 119 -21q76 0 120 45.5t54 145.5l115 1096h246l-117 -1123q-22 -204 -119.5 -300.5t-280.5 -96.5zM199 1331q0 69 51 119.5t121 50.5q61 0 103 -41.5t42 -103.5q0 -68 -51 -118t-121 -50q-62 0 -103.5 41t-41.5 102z" />
    <glyph glyph-name="k" unicode="k" horiz-adv-x="1232" 
d="M92 0l160 1511h246l-97 -919l525 457h319l-512 -453l430 -596h-295l-313 436l-188 -166l-29 -270h-246z" />
    <glyph glyph-name="l" unicode="l" horiz-adv-x="540" 
d="M92 0l160 1511h246l-160 -1511h-246z" />
    <glyph glyph-name="m" unicode="m" horiz-adv-x="1906" 
d="M1530 586q13 128 -32 194t-136 66q-139 0 -264 -131q0 -22 -4 -76l-68 -639h-246l62 586q13 128 -32 194t-136 66q-138 0 -260 -125l-76 -721h-246l111 1049h246l-11 -91q145 115 318 115q103 0 180.5 -43.5t118.5 -124.5q180 168 389 168q171 0 265 -115.5t73 -318.5
l-68 -639h-246z" />
    <glyph glyph-name="n" unicode="n" horiz-adv-x="1257" 
d="M881 575q13 133 -38 202t-157 69q-152 0 -272 -123l-76 -723h-246l111 1049h246l-11 -88q146 112 330 112q185 0 285.5 -118t79.5 -326l-68 -629h-246z" />
    <glyph glyph-name="o" unicode="o" horiz-adv-x="1280" 
d="M590 -25q-222 0 -366 138.5t-144 351.5q0 125 47 237.5t127.5 193.5t194 129t241.5 48q222 0 366 -138t144 -351q0 -167 -79 -306.5t-219.5 -221t-311.5 -81.5zM332 483q0 -126 75.5 -204t198.5 -78q147 0 244.5 106t97.5 258q0 126 -75.5 203.5t-198.5 77.5
q-147 0 -244.5 -106t-97.5 -257z" />
    <glyph glyph-name="p" unicode="p" horiz-adv-x="1302" 
d="M45 -446l158 1495h246l-9 -82q133 106 316 106q197 0 331 -138.5t134 -348.5q0 -165 -75 -305t-208 -223t-295 -83q-184 0 -297 107l-55 -528h-246zM373 324q43 -60 109 -91.5t143 -31.5q150 0 247 105.5t97 260.5q0 128 -76 203.5t-199 75.5q-163 0 -280 -123z" />
    <glyph glyph-name="q" unicode="q" horiz-adv-x="1300" 
d="M547 -25q-200 0 -333.5 137t-133.5 349q0 165 75 305.5t207.5 223.5t292.5 83q182 0 299 -108l9 84h245l-157 -1495h-246l55 526q-133 -105 -313 -105zM332 481q0 -127 76 -203.5t198 -76.5q77 0 151.5 32t129.5 93l41 397q-43 60 -109.5 91.5t-144.5 31.5
q-151 0 -246.5 -104t-95.5 -261z" />
    <glyph glyph-name="r" unicode="r" horiz-adv-x="829" 
d="M92 0l111 1049h246l-13 -113q57 66 134.5 101.5t162.5 35.5q55 0 107 -14l-29 -228q-68 11 -98 11q-88 0 -166.5 -41t-136.5 -119l-72 -682h-246z" />
    <glyph glyph-name="s" unicode="s" horiz-adv-x="1048" 
d="M494 -25q-132 0 -252 41.5t-203 112.5l135 184q151 -127 338 -127q89 0 141 34t52 89q0 75 -136 109l-174 41q-141 33 -205.5 98t-64.5 164q0 160 124.5 256t317.5 96q126 0 238.5 -40.5t189.5 -112.5l-141 -175q-138 117 -303 117q-81 0 -130.5 -30.5t-49.5 -83.5
q0 -35 30 -59t105 -42l176 -41q140 -33 205 -98.5t65 -167.5q0 -170 -127 -267.5t-331 -97.5z" />
    <glyph glyph-name="t" unicode="t" horiz-adv-x="907" 
d="M567 -20q-185 0 -274 100.5t-68 306.5l47 447h-215l23 215h215l27 249h245l-26 -249h333l-22 -215h-334l-43 -418q-12 -111 22 -161t124 -50q72 0 161 28l31 -208q-107 -45 -246 -45z" />
    <glyph glyph-name="u" unicode="u" horiz-adv-x="1251" 
d="M479 -25q-186 0 -281 114.5t-73 320.5l68 639h245l-61 -586q-13 -130 35 -196t153 -66q152 0 273 127l75 721h246l-110 -1049h-246l8 86q-145 -111 -332 -111z" />
    <glyph glyph-name="v" unicode="v" horiz-adv-x="1167" 
d="M397 0l-323 1049h266l213 -748l373 748h276l-543 -1049h-262z" />
    <glyph glyph-name="w" unicode="w" horiz-adv-x="1806" 
d="M330 0l-242 1049h258l156 -717l338 717h233l184 -721l310 721h262l-465 -1049h-252l-186 737l-342 -737h-254z" />
    <glyph glyph-name="x" unicode="x" horiz-adv-x="1130" 
d="M-29 0l447 541l-318 508h265l210 -342l283 342h285l-426 -510l332 -539h-269l-221 362l-299 -362h-289z" />
    <glyph glyph-name="y" unicode="y" horiz-adv-x="1185" 
d="M176 -446l246 475l-348 1020h270l234 -719l370 719h275l-774 -1495h-273z" />
    <glyph glyph-name="z" unicode="z" horiz-adv-x="1042" 
d="M27 0l18 174l598 657h-522l24 218h863l-17 -175l-600 -657h537l-23 -217h-878z" />
    <glyph glyph-name="braceleft" unicode="{" horiz-adv-x="784" 
d="M451 -233q-146 0 -221 73.5t-62 210.5l39 359q6 65 -22 93.5t-97 28.5h-20l22 222h21q69 0 103 29t42 94l37 358q28 285 342 285h186l-22 -222h-135q-63 0 -94.5 -27t-37.5 -89l-32 -301q-18 -186 -183 -234l-2 -8q155 -47 134 -233l-29 -302q-7 -62 18.5 -89t87.5 -27
h136l-25 -221h-186z" />
    <glyph glyph-name="bar" unicode="|" horiz-adv-x="649" 
d="M135 -205l187 1772h225l-187 -1772h-225z" />
    <glyph glyph-name="braceright" unicode="}" horiz-adv-x="786" 
d="M360 1520q146 0 221 -74t62 -211l-39 -358q-6 -65 22 -94t97 -29h20l-22 -222h-21q-69 0 -103.5 -29t-41.5 -93l-37 -359q-28 -284 -342 -284h-186l22 221h135q63 0 94.5 27t37.5 89l32 302q17 185 183 233l2 8q-155 47 -134 234l29 301q7 62 -18.5 89t-87.5 27h-135
l24 222h186z" />
    <glyph glyph-name="asciitilde" unicode="~" horiz-adv-x="1331" 
d="M877 492q-75 0 -209 46t-209 46q-64 0 -122 -20.5t-134 -67.5l24 225q125 84 258 84q72 0 209 -46t205 -46t136 24.5t118 63.5l-23 -226q-127 -83 -253 -83z" />
    <glyph glyph-name="uni00A0" unicode="&#xa0;" horiz-adv-x="501" 
 />
    <glyph glyph-name="exclamdown" unicode="&#xa1;" horiz-adv-x="559" 
d="M180 580h211l-74 -957h-264zM152 887q0 79 53 132.5t133 53.5q63 0 106 -42.5t43 -104.5q0 -83 -51 -136t-133 -53q-66 0 -108.5 42.5t-42.5 107.5z" />
    <glyph glyph-name="cent" unicode="&#xa2;" horiz-adv-x="1105" 
d="M500 0l20 195q-184 23 -295.5 148t-111.5 310q0 229 147 394t371 188l20 199h119l-20 -197q113 -11 206 -65t156 -146l-190 -143q-74 122 -195 141l-63 -616q130 21 235 145l168 -129q-76 -102 -187 -162t-239 -69l-20 -193h-121zM348 672q0 -104 53 -174.5t142 -89.5
l65 612q-115 -26 -187.5 -123t-72.5 -225z" />
    <glyph glyph-name="sterling" unicode="&#xa3;" horiz-adv-x="1142" 
d="M39 166q153 91 223 180t70 207q0 21 -4 57h-236l19 170h161q-2 4 -10.5 23.5t-10.5 24.5t-10 23.5t-10 25.5t-8 24t-8.5 27l-6.5 26t-5 28t-2.5 27.5t-1.5 30.5q0 180 140.5 299t346.5 119q134 0 244.5 -57t177.5 -162l-188 -152q-99 146 -244 146q-99 0 -162 -54
t-63 -141q0 -29 8 -63.5t17.5 -59t27.5 -69t26 -66.5h379l-18 -170h-322q2 -10 2 -32q0 -174 -125 -302h17q52 0 100 -18t91 -36.5t81 -18.5q45 0 83.5 27t84.5 94l168 -111q-127 -238 -340 -238q-51 0 -98 14t-78 31.5t-78 31.5t-98 14q-101 0 -236 -91z" />
    <glyph glyph-name="currency" unicode="&#xa4;" horiz-adv-x="1126" 
d="M549 311q-131 0 -223 64l-164 -148l-107 119l162 148q-45 82 -45 182q0 150 86 270l-125 141l133 119l127 -141q102 57 228 57q130 0 221 -63l164 147l106 -119l-160 -147q45 -82 45 -182q0 -151 -88 -273l125 -139l-133 -119l-127 142q-103 -58 -225 -58zM389 688
q0 -78 47.5 -125t126.5 -47q96 0 155.5 65.5t59.5 163.5q0 78 -47.5 125.5t-126.5 47.5q-96 0 -155.5 -67.5t-59.5 -162.5z" />
    <glyph glyph-name="yen" unicode="&#xa5;" horiz-adv-x="1179" 
d="M408 0l26 260h-352l16 156h355l16 164h-354l18 155h291l-295 699h260l229 -584l353 584h270l-440 -699h293l-19 -155h-352l-16 -164h352l-17 -156h-354l-26 -260h-254z" />
    <glyph glyph-name="brokenbar" unicode="&#xa6;" horiz-adv-x="649" 
d="M244 829l78 738h225l-78 -738h-225zM135 -205l78 721h223l-76 -721h-225z" />
    <glyph glyph-name="section" unicode="&#xa7;" horiz-adv-x="1101" 
d="M483 -272q-116 0 -230.5 40t-203.5 113l137 182q73 -59 159.5 -90.5t164.5 -31.5q88 0 140 39.5t52 105.5q0 44 -39.5 73t-138.5 52l-116 25q-141 31 -216 102t-75 178q0 108 59 192.5t156 120.5q-156 83 -156 244q0 174 131 279.5t328 105.5q115 0 219 -39.5t182 -111.5
l-143 -177q-132 115 -275 115q-86 0 -141 -39.5t-55 -105.5q0 -44 39.5 -73t136.5 -52l117 -25q142 -31 216.5 -101t74.5 -177t-57 -191.5t-154 -126.5q153 -80 153 -241q0 -116 -63 -204.5t-168 -134.5t-234 -46zM365 565q0 -52 33.5 -82.5t115.5 -48.5l90 -20
q75 31 116.5 85t41.5 122q0 52 -35.5 82t-118.5 49l-90 20q-72 -26 -112.5 -82t-40.5 -125z" />
    <glyph glyph-name="dieresis" unicode="&#xa8;" horiz-adv-x="1228" 
d="M477 1208q-57 0 -95 38t-38 95q0 67 47 113.5t115 46.5q57 0 93 -37t36 -94q0 -70 -45.5 -116t-112.5 -46zM768 1341q0 67 46 113.5t114 46.5q57 0 93 -37t36 -94q0 -70 -45 -116t-113 -46q-57 0 -94 38t-37 95z" />
    <glyph glyph-name="copyright" unicode="&#xa9;" horiz-adv-x="1683" 
d="M788 -25q-192 0 -347.5 87.5t-242.5 240.5t-87 340q0 108 30 212.5t83 194t129.5 165.5t166.5 129.5t196.5 83.5t217.5 30q144 0 270.5 -51.5t216.5 -140.5t141.5 -212.5t51.5 -262.5q0 -162 -66.5 -312.5t-177.5 -261t-264 -176.5t-318 -66zM270 651
q0 -227 148.5 -377.5t380.5 -150.5q177 0 328 91.5t238 243t87 324.5q0 148 -66 268.5t-187.5 190.5t-274.5 70q-134 0 -256 -54t-208.5 -144t-138 -211.5t-51.5 -250.5zM485 672q0 182 124.5 307t305.5 125q97 0 178.5 -42t131.5 -120l-162 -129q-61 96 -160 96
q-85 0 -145 -63.5t-60 -155.5q0 -76 44.5 -121t117.5 -45q109 0 193 101l145 -117q-61 -84 -155.5 -130t-202.5 -46q-157 0 -256 93.5t-99 246.5z" />
    <glyph glyph-name="ordfeminine" unicode="&#xaa;" horiz-adv-x="1003" 
d="M483 631q-151 0 -249.5 102.5t-98.5 265.5q0 120 55 225.5t153 169.5t216 64q134 0 219 -76l6 58h211l-82 -791h-213l7 53q-100 -71 -224 -71zM352 1018q0 -88 50 -139.5t133 -51.5q113 0 194 84l27 269q-62 82 -174 82q-101 0 -165.5 -70.5t-64.5 -173.5z" />
    <glyph glyph-name="guillemotleft" unicode="&#xab;" horiz-adv-x="1234" 
d="M348 137l-266 445l360 446h271l-359 -446l267 -445h-273zM569 582l361 446h270l-358 -446l266 -445h-272z" />
    <glyph glyph-name="logicalnot" unicode="&#xac;" horiz-adv-x="1331" 
d="M872 330l21 207h-684l22 225h918l-45 -432h-232z" />
    <glyph glyph-name="registered" unicode="&#xae;" horiz-adv-x="1040" 
d="M537 614q-166 0 -278 110t-112 271q0 91 37.5 176.5t100.5 148.5t149.5 100.5t179.5 37.5q164 0 274.5 -109.5t110.5 -269.5q0 -122 -62 -229.5t-169 -171.5t-231 -64zM252 999q0 -125 80.5 -208.5t206.5 -83.5q146 0 252 109t106 257q0 124 -81.5 208.5t-207.5 84.5
q-144 0 -250 -109.5t-106 -257.5zM385 825l47 437h176q79 0 120.5 -35t41.5 -99q0 -122 -115 -147l97 -156h-125l-84 150h-35l-16 -150h-107zM518 1067h84q55 0 55 53q0 39 -47 39h-82z" />
    <glyph glyph-name="macron" unicode="&#xaf;" horiz-adv-x="1228" 
d="M406 1243l20 184h567l-20 -184h-567z" />
    <glyph glyph-name="degree" unicode="&#xb0;" horiz-adv-x="780" 
d="M426 823q-131 0 -214 81t-83 208q0 143 103 244.5t251 101.5q130 0 214.5 -82.5t84.5 -208.5q0 -143 -103.5 -243.5t-252.5 -100.5zM313 1122q0 -56 34.5 -90.5t92.5 -34.5q70 0 113 47.5t43 114.5q0 56 -33.5 90.5t-91.5 34.5q-69 0 -113.5 -47.5t-44.5 -114.5z" />
    <glyph glyph-name="plusminus" unicode="&#xb1;" horiz-adv-x="1331" 
d="M532 365l33 325h-342l25 223h340l35 330h237l-35 -330h340l-22 -223h-340l-35 -325h-236zM152 0l22 223h920l-25 -223h-917z" />
    <glyph glyph-name="uni00B2" unicode="&#xb2;" horiz-adv-x="671" 
d="M74 737l14 140l291 247q63 52 98 92.5t35 75.5q0 30 -22 49t-58 19q-96 0 -172 -117l-143 90q53 91 138.5 143t186.5 52q110 0 183 -61.5t73 -151.5q0 -126 -153 -254l-185 -156h304l-19 -168h-571z" />
    <glyph glyph-name="uni00B3" unicode="&#xb3;" horiz-adv-x="655" 
d="M346 723q-173 0 -287 108l115 134q74 -74 176 -74q54 0 87.5 23t33.5 63q0 70 -117 70h-82l17 161h78q129 0 129 84q0 31 -23.5 49.5t-66.5 18.5q-92 0 -175 -80l-118 117q122 131 307 131q117 0 189.5 -56t72.5 -153q0 -67 -36.5 -117t-98.5 -72q53 -23 80.5 -66.5
t27.5 -100.5q0 -110 -87.5 -175t-221.5 -65z" />
    <glyph glyph-name="acute" unicode="&#xb4;" horiz-adv-x="1228" 
d="M498 1200l180 301h293l-246 -301h-227z" />
    <glyph glyph-name="uni00B5" unicode="&#xb5;" horiz-adv-x="1251" 
d="M657 -25q-190 0 -309 113l-57 -534h-246l158 1495h246l-76 -723q92 -125 245 -125q104 0 167 66.5t75 195.5l64 586h245l-67 -639q-22 -206 -139.5 -320.5t-305.5 -114.5z" />
    <glyph glyph-name="paragraph" unicode="&#xb6;" horiz-adv-x="1392" 
d="M436 -262l113 1065h-27q-156 0 -245 76.5t-89 201.5q0 164 120.5 258.5t307.5 94.5h236l-178 -1696h-238zM860 -262l178 1696h238l-178 -1696h-238z" />
    <glyph glyph-name="periodcentered" unicode="&#xb7;" horiz-adv-x="495" 
d="M244 481q-66 0 -109 42.5t-43 107.5q0 79 53.5 132.5t133.5 53.5q63 0 106 -43.5t43 -105.5q0 -82 -51.5 -134.5t-132.5 -52.5z" />
    <glyph glyph-name="cedilla" unicode="&#xb8;" horiz-adv-x="1228" 
d="M250 -336l266 412h189l-197 -412h-258z" />
    <glyph glyph-name="uni00B9" unicode="&#xb9;" horiz-adv-x="514" 
d="M254 737l61 582l-184 -86l19 176l215 102h151l-80 -774h-182z" />
    <glyph glyph-name="ordmasculine" unicode="&#xba;" horiz-adv-x="1009" 
d="M524 631q-170 0 -278.5 105t-108.5 268q0 189 133.5 321.5t325.5 132.5q168 0 276.5 -104.5t108.5 -268.5q0 -191 -132.5 -322.5t-324.5 -131.5zM352 1016q0 -84 51.5 -136.5t133.5 -52.5q99 0 164 72.5t65 173.5q0 86 -51 137.5t-133 51.5q-99 0 -164.5 -72.5
t-65.5 -173.5z" />
    <glyph glyph-name="guillemotright" unicode="&#xbb;" horiz-adv-x="1236" 
d="M899 1028l266 -444l-360 -447h-270l358 447l-266 444h272zM47 137l359 447l-267 444h273l266 -444l-361 -447h-270z" />
    <glyph glyph-name="onequarter" unicode="&#xbc;" horiz-adv-x="1572" 
d="M111 0l1155 1434h209l-1156 -1434h-208zM133 1155l19 176l215 103h151l-80 -775h-182l61 582zM827 147l19 150l393 477h213l-51 -475h92l-16 -152h-91l-16 -147h-170l17 147h-390zM1024 299h207l31 289z" />
    <glyph glyph-name="onehalf" unicode="&#xbd;" horiz-adv-x="1662" 
d="M954 0l15 139l291 248q63 52 98 92.5t35 75.5q0 30 -22 49t-58 19q-95 0 -172 -117l-144 90q53 91 139 143t187 52q110 0 183 -61.5t73 -151.5q0 -71 -40.5 -132t-113.5 -122l-184 -156h303l-18 -168h-572zM111 0l1155 1434h209l-1156 -1434h-208zM133 1155l19 176
l215 103h151l-80 -775h-182l61 582z" />
    <glyph glyph-name="threequarters" unicode="&#xbe;" horiz-adv-x="1681" 
d="M358 653q-171 0 -286 109l114 133q74 -74 176 -74q54 0 87.5 23t33.5 63q0 70 -116 70h-82l16 162h78q129 0 129 84q0 31 -23 49t-67 18q-91 0 -174 -80l-119 117q122 131 307 131q117 0 189.5 -56t72.5 -153q0 -67 -36.5 -116.5t-98.5 -71.5q53 -23 81 -67t28 -101
q0 -110 -88 -175t-222 -65zM219 0l1155 1434h209l-1155 -1434h-209zM936 147l18 150l394 477h213l-52 -475h93l-17 -152h-90l-16 -147h-170l16 147h-389zM1133 299h206l31 289z" />
    <glyph glyph-name="questiondown" unicode="&#xbf;" horiz-adv-x="1003" 
d="M672 494q-11 -105 -48.5 -166t-150.5 -148l-102 -80q-56 -43 -80.5 -76.5t-24.5 -80.5q0 -56 38 -88.5t108 -32.5q179 0 280 225l215 -84q-60 -170 -195.5 -267t-314.5 -97q-165 0 -273 88t-108 229q0 103 56.5 186.5t160.5 165.5l99 76q56 42 72 69.5t22 88.5l10 78h246
zM424 887q0 82 52 134t134 52q66 0 109 -42t43 -107q0 -80 -54 -133.5t-133 -53.5q-64 0 -107.5 44t-43.5 106z" />
    <glyph glyph-name="Agrave" unicode="&#xc0;" horiz-adv-x="1460" 
d="M-33 0l711 1434h295l409 -1434h-270l-92 332h-614l-162 -332h-277zM514 555h444l-161 584zM571 1890h291l125 -319h-221z" />
    <glyph glyph-name="Aacute" unicode="&#xc1;" horiz-adv-x="1460" 
d="M-33 0l711 1434h295l409 -1434h-270l-92 332h-614l-162 -332h-277zM514 555h444l-161 584zM680 1571l190 319h310l-260 -319h-240z" />
    <glyph glyph-name="Acircumflex" unicode="&#xc2;" horiz-adv-x="1460" 
d="M-33 0l711 1434h295l409 -1434h-270l-92 332h-614l-162 -332h-277zM471 1571l281 319h243l213 -319h-223l-121 170l-155 -170h-238zM514 555h444l-161 584z" />
    <glyph glyph-name="Atilde" unicode="&#xc3;" horiz-adv-x="1460" 
d="M-33 0l711 1434h295l409 -1434h-270l-92 332h-614l-162 -332h-277zM481 1655q21 109 87 168t155 59q34 0 68 -11t51 -21.5t47 -30.5q60 -43 96 -43q54 0 82 86l168 -52q-21 -109 -88 -168t-156 -59q-34 0 -67.5 11.5t-51.5 22.5t-47 32q-2 1 -14 9t-14.5 9.5l-12.5 7.5
t-14 7.5l-12 4.5t-15 4t-14 1q-54 0 -82 -86zM514 555h444l-161 584z" />
    <glyph glyph-name="Adieresis" unicode="&#xc4;" horiz-adv-x="1460" 
d="M-33 0l711 1434h295l409 -1434h-270l-92 332h-614l-162 -332h-277zM475 1718q0 71 49.5 121.5t122.5 50.5q60 0 98.5 -39.5t38.5 -101.5q0 -72 -48.5 -121t-119.5 -49q-60 0 -100.5 40t-40.5 99zM514 555h444l-161 584zM928 1718q0 71 49.5 121.5t122.5 50.5q59 0 98 -40
t39 -101q0 -72 -48.5 -121t-119.5 -49q-60 0 -100.5 40t-40.5 99z" />
    <glyph glyph-name="Aring" unicode="&#xc5;" horiz-adv-x="1460" 
d="M-33 0l711 1434h295l409 -1434h-270l-92 332h-614l-162 -332h-277zM514 555h444l-161 584zM621 1745q0 99 73 168t180 69q94 0 159 -58.5t65 -143.5q0 -100 -74.5 -169t-181.5 -69q-94 0 -157.5 58.5t-63.5 144.5zM774 1751q0 -34 20.5 -54t55.5 -20q41 0 68.5 27.5
t27.5 67.5q0 34 -21.5 54.5t-56.5 20.5q-41 0 -67.5 -27.5t-26.5 -68.5z" />
    <glyph glyph-name="AE" unicode="&#xc6;" horiz-adv-x="2265" 
d="M-49 0l1139 1434h1151l-25 -240h-748l-34 -332h651l-27 -237h-651l-41 -385h750l-27 -240h-1006l37 356h-561l-283 -356h-325zM735 580h410l61 596z" />
    <glyph glyph-name="Ccedilla" unicode="&#xc7;" horiz-adv-x="1542" 
d="M436 -375l232 359q-249 34 -403 211t-154 436q0 172 63.5 325t172 263t260.5 174.5t323 64.5q196 0 357 -95.5t245 -266.5l-238 -129q-53 120 -154 183.5t-233 63.5q-150 0 -271.5 -75.5t-189 -204.5t-67.5 -285q0 -193 119 -311.5t305 -118.5q133 0 248 65t192 183
l213 -131q-100 -149 -246 -240t-323 -114l-170 -357h-281z" />
    <glyph glyph-name="Egrave" unicode="&#xc8;" horiz-adv-x="1298" 
d="M117 0l149 1434h1008l-25 -240h-747l-35 -332h651l-26 -237h-652l-41 -385h750l-27 -240h-1005zM516 1890h291l125 -319h-221z" />
    <glyph glyph-name="Eacute" unicode="&#xc9;" horiz-adv-x="1298" 
d="M117 0l149 1434h1008l-25 -240h-747l-35 -332h651l-26 -237h-652l-41 -385h750l-27 -240h-1005zM625 1571l190 319h309l-260 -319h-239z" />
    <glyph glyph-name="Ecircumflex" unicode="&#xca;" horiz-adv-x="1298" 
d="M117 0l149 1434h1008l-25 -240h-747l-35 -332h651l-26 -237h-652l-41 -385h750l-27 -240h-1005zM416 1571l280 319h244l213 -319h-223l-121 170l-156 -170h-237z" />
    <glyph glyph-name="Edieresis" unicode="&#xcb;" horiz-adv-x="1298" 
d="M117 0l149 1434h1008l-25 -240h-747l-35 -332h651l-26 -237h-652l-41 -385h750l-27 -240h-1005zM420 1718q0 71 49.5 121.5t122.5 50.5q60 0 98.5 -39.5t38.5 -101.5q0 -72 -48.5 -121t-119.5 -49q-60 0 -100.5 40t-40.5 99zM872 1718q0 71 49.5 121.5t122.5 50.5
q59 0 98.5 -40t39.5 -101q0 -72 -48.5 -121t-119.5 -49q-60 0 -101 40t-41 99z" />
    <glyph glyph-name="Igrave" unicode="&#xcc;" horiz-adv-x="602" 
d="M117 0l149 1434h260l-151 -1434h-258zM141 1890h291l125 -319h-221z" />
    <glyph glyph-name="Iacute" unicode="&#xcd;" horiz-adv-x="602" 
d="M117 0l149 1434h260l-151 -1434h-258zM250 1571l190 319h310l-261 -319h-239z" />
    <glyph glyph-name="Icircumflex" unicode="&#xce;" horiz-adv-x="602" 
d="M117 0l149 1434h260l-151 -1434h-258zM41 1571l281 319h243l213 -319h-223l-121 170l-155 -170h-238z" />
    <glyph glyph-name="Idieresis" unicode="&#xcf;" horiz-adv-x="602" 
d="M117 0l149 1434h260l-151 -1434h-258zM45 1718q0 71 49.5 121.5t122.5 50.5q60 0 98.5 -39.5t38.5 -101.5q0 -72 -48.5 -121t-119.5 -49q-60 0 -100.5 40t-40.5 99zM498 1718q0 71 49.5 121.5t122.5 50.5q59 0 98 -40t39 -101q0 -72 -48.5 -121t-119.5 -49
q-60 0 -100.5 40t-40.5 99z" />
    <glyph glyph-name="Eth" unicode="&#xd0;" horiz-adv-x="1497" 
d="M147 0l66 635h-145l20 201h148l61 598h465q193 0 343.5 -76t236 -220t85.5 -335q0 -177 -60 -326.5t-166.5 -254t-258.5 -163.5t-332 -59h-463zM432 242h193q250 0 393 148.5t143 400.5q0 195 -114.5 298t-323.5 103h-193l-36 -356h340l-21 -201h-340z" />
    <glyph glyph-name="Ntilde" unicode="&#xd1;" horiz-adv-x="1581" 
d="M117 0l149 1434h256l619 -1020l106 1020h258l-151 -1434h-256l-615 1018l-108 -1018h-258zM541 1655q21 109 86.5 168t154.5 59q34 0 68 -11t51 -21.5t47 -30.5q60 -43 96 -43q54 0 82 86l168 -52q-21 -109 -87.5 -168t-155.5 -59q-34 0 -67.5 11.5t-51.5 22.5t-47 32
l-10.5 7t-10 6.5t-9 6t-9.5 6l-9 4.5t-10 4.5t-9.5 3.5t-9.5 3t-9.5 1.5t-10.5 0.5q-53 0 -81 -86z" />
    <glyph glyph-name="Ograve" unicode="&#xd2;" horiz-adv-x="1665" 
d="M780 -25q-191 0 -343.5 83t-239 233t-86.5 340q0 170 63.5 323t171.5 263.5t259 175.5t319 65q191 0 344 -83.5t240 -234.5t87 -341q0 -169 -63.5 -321.5t-172 -262.5t-260 -175t-319.5 -65zM377 649q0 -192 118.5 -311t303.5 -119q113 0 212 44.5t168.5 120t109.5 179.5
t40 219q0 195 -117.5 313.5t-306.5 118.5q-150 0 -271.5 -75.5t-189 -204.5t-67.5 -285zM674 1890h291l125 -319h-222z" />
    <glyph glyph-name="Oacute" unicode="&#xd3;" horiz-adv-x="1665" 
d="M780 -25q-191 0 -343.5 83t-239 233t-86.5 340q0 170 63.5 323t171.5 263.5t259 175.5t319 65q191 0 344 -83.5t240 -234.5t87 -341q0 -169 -63.5 -321.5t-172 -262.5t-260 -175t-319.5 -65zM377 649q0 -192 118.5 -311t303.5 -119q113 0 212 44.5t168.5 120t109.5 179.5
t40 219q0 195 -117.5 313.5t-306.5 118.5q-150 0 -271.5 -75.5t-189 -204.5t-67.5 -285zM782 1571l191 319h309l-260 -319h-240z" />
    <glyph glyph-name="Ocircumflex" unicode="&#xd4;" horiz-adv-x="1665" 
d="M780 -25q-191 0 -343.5 83t-239 233t-86.5 340q0 170 63.5 323t171.5 263.5t259 175.5t319 65q191 0 344 -83.5t240 -234.5t87 -341q0 -169 -63.5 -321.5t-172 -262.5t-260 -175t-319.5 -65zM377 649q0 -192 118.5 -311t303.5 -119q113 0 212 44.5t168.5 120t109.5 179.5
t40 219q0 195 -117.5 313.5t-306.5 118.5q-150 0 -271.5 -75.5t-189 -204.5t-67.5 -285zM573 1571l281 319h244l213 -319h-224l-120 170l-156 -170h-238z" />
    <glyph glyph-name="Otilde" unicode="&#xd5;" horiz-adv-x="1665" 
d="M780 -25q-191 0 -343.5 83t-239 233t-86.5 340q0 170 63.5 323t171.5 263.5t259 175.5t319 65q191 0 344 -83.5t240 -234.5t87 -341q0 -169 -63.5 -321.5t-172 -262.5t-260 -175t-319.5 -65zM377 649q0 -192 118.5 -311t303.5 -119q113 0 212 44.5t168.5 120t109.5 179.5
t40 219q0 195 -117.5 313.5t-306.5 118.5q-150 0 -271.5 -75.5t-189 -204.5t-67.5 -285zM584 1655q21 109 86.5 168t154.5 59q34 0 68 -11t51 -21.5t47 -30.5q60 -43 96 -43q54 0 82 86l168 -52q-21 -109 -87.5 -168t-155.5 -59q-34 0 -67.5 11.5t-51.5 22.5t-47 32l-10.5 7
t-10 6.5t-9 6t-9.5 6l-9 4.5t-10 4.5t-9.5 3.5t-9.5 3t-9.5 1.5t-10.5 0.5q-53 0 -81 -86z" />
    <glyph glyph-name="Odieresis" unicode="&#xd6;" horiz-adv-x="1665" 
d="M780 -25q-191 0 -343.5 83t-239 233t-86.5 340q0 170 63.5 323t171.5 263.5t259 175.5t319 65q191 0 344 -83.5t240 -234.5t87 -341q0 -169 -63.5 -321.5t-172 -262.5t-260 -175t-319.5 -65zM377 649q0 -192 118.5 -311t303.5 -119q113 0 212 44.5t168.5 120t109.5 179.5
t40 219q0 195 -117.5 313.5t-306.5 118.5q-150 0 -271.5 -75.5t-189 -204.5t-67.5 -285zM578 1718q0 71 49.5 121.5t122.5 50.5q60 0 98.5 -39.5t38.5 -101.5q0 -72 -48.5 -121t-119.5 -49q-60 0 -100.5 40t-40.5 99zM1030 1718q0 71 49.5 121.5t122.5 50.5q59 0 98 -40
t39 -101q0 -72 -48.5 -121t-119.5 -49q-60 0 -100.5 40t-40.5 99z" />
    <glyph glyph-name="multiply" unicode="&#xd7;" horiz-adv-x="1331" 
d="M340 205l-135 151l323 295l-262 291l168 152l260 -293l324 293l137 -152l-326 -293l263 -293l-168 -151l-260 293z" />
    <glyph glyph-name="Oslash" unicode="&#xd8;" horiz-adv-x="1665" 
d="M780 -25q-197 0 -358 93l-150 -177l-147 125l147 172q-161 182 -161 443q0 170 63.5 323t171.5 263.5t259 175.5t319 65q199 0 358 -92l150 176l149 -125l-147 -174q161 -178 161 -444q0 -169 -63.5 -321.5t-172 -262.5t-260 -175t-319.5 -65zM369 649q0 -154 75 -264
l678 791q-96 49 -215 49q-153 0 -277 -77t-192.5 -209t-68.5 -290zM586 260q94 -51 213 -51q152 0 276 77.5t193 208.5t69 287q0 160 -75 267z" />
    <glyph glyph-name="Ugrave" unicode="&#xd9;" horiz-adv-x="1509" 
d="M702 -25q-281 0 -426 156t-116 442l90 861h260l-88 -834q-20 -191 58 -286t243 -95q164 0 262.5 95.5t118.5 285.5l88 834h258l-90 -861q-29 -286 -203 -442t-455 -156zM596 1890h291l125 -319h-221z" />
    <glyph glyph-name="Uacute" unicode="&#xda;" horiz-adv-x="1509" 
d="M702 -25q-281 0 -426 156t-116 442l90 861h260l-88 -834q-20 -191 58 -286t243 -95q164 0 262.5 95.5t118.5 285.5l88 834h258l-90 -861q-29 -286 -203 -442t-455 -156zM705 1571l190 319h309l-260 -319h-239z" />
    <glyph glyph-name="Ucircumflex" unicode="&#xdb;" horiz-adv-x="1509" 
d="M702 -25q-281 0 -426 156t-116 442l90 861h260l-88 -834q-20 -191 58 -286t243 -95q164 0 262.5 95.5t118.5 285.5l88 834h258l-90 -861q-29 -286 -203 -442t-455 -156zM496 1571l280 319h244l213 -319h-223l-121 170l-156 -170h-237z" />
    <glyph glyph-name="Udieresis" unicode="&#xdc;" horiz-adv-x="1509" 
d="M702 -25q-281 0 -426 156t-116 442l90 861h260l-88 -834q-20 -191 58 -286t243 -95q164 0 262.5 95.5t118.5 285.5l88 834h258l-90 -861q-29 -286 -203 -442t-455 -156zM500 1718q0 71 49.5 121.5t122.5 50.5q60 0 98.5 -39.5t38.5 -101.5q0 -72 -48.5 -121t-119.5 -49
q-60 0 -100.5 40t-40.5 99zM952 1718q0 71 49.5 121.5t122.5 50.5q59 0 98.5 -40t39.5 -101q0 -72 -48.5 -121t-119.5 -49q-60 0 -101 40t-41 99z" />
    <glyph glyph-name="Yacute" unicode="&#xdd;" horiz-adv-x="1333" 
d="M481 0l60 563l-437 871h285l303 -615l432 615h295l-618 -871l-60 -563h-260zM616 1571l191 319h309l-260 -319h-240z" />
    <glyph glyph-name="Thorn" unicode="&#xde;" horiz-adv-x="1353" 
d="M117 0l149 1434h260l-26 -260h313q216 0 342.5 -109.5t126.5 -296.5q0 -240 -153 -374t-412 -134h-316l-26 -260h-258zM428 500h293q141 0 217 62.5t76 187.5q0 184 -246 184h-295z" />
    <glyph glyph-name="germandbls" unicode="&#xdf;" horiz-adv-x="1288" 
d="M694 -25q-85 0 -172 17l41 219q55 -10 103 -10q134 0 213 64.5t79 178.5q0 90 -63 138.5t-186 48.5h-95l25 233h25q131 0 207.5 70t76.5 188q0 90 -57.5 140.5t-159.5 50.5q-120 0 -196 -74t-89 -215l-108 -1024h-246l109 1036q26 233 172.5 366.5t369.5 133.5
q199 0 326 -109t127 -278q0 -130 -67.5 -233.5t-180.5 -149.5q124 -29 191 -116t67 -216q0 -213 -141 -336t-371 -123z" />
    <glyph glyph-name="agrave" unicode="&#xe0;" horiz-adv-x="1300" 
d="M547 -25q-200 0 -333.5 137t-133.5 349q0 163 75 303.5t207.5 224.5t290.5 84q182 0 301 -110l9 86h245l-110 -1049h-246l8 80q-133 -105 -313 -105zM332 481q0 -127 76 -203.5t198 -76.5q77 0 151.5 32t129.5 93l41 395q-43 61 -110 93t-144 32q-150 0 -246 -103.5
t-96 -261.5zM477 1501h279l116 -301h-213z" />
    <glyph glyph-name="aacute" unicode="&#xe1;" horiz-adv-x="1300" 
d="M547 -25q-200 0 -333.5 137t-133.5 349q0 163 75 303.5t207.5 224.5t290.5 84q182 0 301 -110l9 86h245l-110 -1049h-246l8 80q-133 -105 -313 -105zM332 481q0 -127 76 -203.5t198 -76.5q77 0 151.5 32t129.5 93l41 395q-43 61 -110 93t-144 32q-150 0 -246 -103.5
t-96 -261.5zM590 1200l180 301h293l-246 -301h-227z" />
    <glyph glyph-name="acircumflex" unicode="&#xe2;" horiz-adv-x="1300" 
d="M547 -25q-200 0 -333.5 137t-133.5 349q0 163 75 303.5t207.5 224.5t290.5 84q182 0 301 -110l9 86h245l-110 -1049h-246l8 80q-133 -105 -313 -105zM332 481q0 -127 76 -203.5t198 -76.5q77 0 151.5 32t129.5 93l41 395q-43 61 -110 93t-144 32q-150 0 -246 -103.5
t-96 -261.5zM381 1200l272 301h232l207 -301h-218l-112 162l-150 -162h-231z" />
    <glyph glyph-name="atilde" unicode="&#xe3;" horiz-adv-x="1300" 
d="M547 -25q-200 0 -333.5 137t-133.5 349q0 163 75 303.5t207.5 224.5t290.5 84q182 0 301 -110l9 86h245l-110 -1049h-246l8 80q-133 -105 -313 -105zM332 481q0 -127 76 -203.5t198 -76.5q77 0 151.5 32t129.5 93l41 395q-43 61 -110 93t-144 32q-150 0 -246 -103.5
t-96 -261.5zM401 1280q21 100 83 156.5t143 56.5q74 0 157 -59q55 -41 90 -41q46 0 74 82l158 -48q-23 -101 -83.5 -158t-141.5 -57q-32 0 -63.5 10.5t-49.5 21.5t-45 30q-60 39 -90 39q-47 0 -74 -80z" />
    <glyph glyph-name="adieresis" unicode="&#xe4;" horiz-adv-x="1300" 
d="M547 -25q-200 0 -333.5 137t-133.5 349q0 163 75 303.5t207.5 224.5t290.5 84q182 0 301 -110l9 86h245l-110 -1049h-246l8 80q-133 -105 -313 -105zM332 481q0 -127 76 -203.5t198 -76.5q77 0 151.5 32t129.5 93l41 395q-43 61 -110 93t-144 32q-150 0 -246 -103.5
t-96 -261.5zM395 1341q0 67 46.5 113.5t115.5 46.5q57 0 93 -37t36 -94q0 -70 -45.5 -116t-112.5 -46q-57 0 -95 38t-38 95zM819 1341q0 67 46 113.5t114 46.5q57 0 93 -37t36 -94q0 -70 -45 -116t-113 -46q-57 0 -94 38t-37 95z" />
    <glyph glyph-name="aring" unicode="&#xe5;" horiz-adv-x="1300" 
d="M547 -25q-200 0 -333.5 137t-133.5 349q0 163 75 303.5t207.5 224.5t290.5 84q182 0 301 -110l9 86h245l-110 -1049h-246l8 80q-133 -105 -313 -105zM332 481q0 -127 76 -203.5t198 -76.5q77 0 151.5 32t129.5 93l41 395q-43 61 -110 93t-144 32q-150 0 -246 -103.5
t-96 -261.5zM522 1378q0 98 73 167t179 69q91 0 155 -58.5t64 -142.5q0 -98 -74 -166.5t-180 -68.5q-92 0 -154.5 57.5t-62.5 142.5zM674 1386q0 -34 20 -53.5t54 -19.5q41 0 67.5 26t26.5 66q0 34 -20.5 55t-55.5 21q-41 0 -66.5 -26.5t-25.5 -68.5z" />
    <glyph glyph-name="ae" unicode="&#xe6;" horiz-adv-x="2007" 
d="M446 -25q-184 0 -288.5 84.5t-104.5 223.5q0 159 128.5 253.5t342.5 94.5h328l2 24q11 100 -45.5 153.5t-175.5 53.5q-182 0 -363 -145l-123 168q207 188 496 188q137 0 235.5 -41.5t147.5 -120.5q173 162 422 162q213 0 346 -122.5t133 -329.5q0 -65 -20 -158h-830
q1 -133 76 -205t209 -72q188 0 326 150l167 -131q-195 -230 -507 -230q-135 0 -242 45.5t-174 129.5q-199 -175 -486 -175zM303 303q0 -59 50 -93t139 -34q205 0 356 148q-14 55 -14 125v2h-318q-100 0 -156.5 -41.5t-56.5 -106.5zM1110 647h576q-7 108 -73 163.5t-179 55.5
q-118 0 -202 -59t-122 -160z" />
    <glyph glyph-name="ccedilla" unicode="&#xe7;" horiz-adv-x="1153" 
d="M264 -336l207 322q-178 32 -285.5 159t-107.5 310q0 171 79.5 312.5t219.5 223.5t309 82q141 0 255.5 -58t184.5 -167l-198 -152q-95 150 -256 150q-147 0 -243.5 -104t-96.5 -259q0 -128 76 -205t196 -77q83 0 161.5 41t141.5 116l174 -137q-73 -98 -178.5 -160
t-228.5 -79l-152 -318h-258z" />
    <glyph glyph-name="egrave" unicode="&#xe8;" horiz-adv-x="1251" 
d="M592 -25q-235 0 -374.5 130t-139.5 344q0 131 46.5 246.5t127.5 198.5t195 131t245 48q213 0 346 -122.5t133 -329.5q0 -65 -20 -158h-829q1 -133 75.5 -205t208.5 -72q188 0 326 150l168 -131q-195 -230 -508 -230zM354 647h576q-7 108 -73 163.5t-179 55.5
q-118 0 -202 -59t-122 -160zM451 1501h278l117 -301h-213z" />
    <glyph glyph-name="eacute" unicode="&#xe9;" horiz-adv-x="1251" 
d="M592 -25q-235 0 -374.5 130t-139.5 344q0 131 46.5 246.5t127.5 198.5t195 131t245 48q213 0 346 -122.5t133 -329.5q0 -65 -20 -158h-829q1 -133 75.5 -205t208.5 -72q188 0 326 150l168 -131q-195 -230 -508 -230zM354 647h576q-7 108 -73 163.5t-179 55.5
q-118 0 -202 -59t-122 -160zM563 1200l180 301h293l-245 -301h-228z" />
    <glyph glyph-name="ecircumflex" unicode="&#xea;" horiz-adv-x="1251" 
d="M592 -25q-235 0 -374.5 130t-139.5 344q0 131 46.5 246.5t127.5 198.5t195 131t245 48q213 0 346 -122.5t133 -329.5q0 -65 -20 -158h-829q1 -133 75.5 -205t208.5 -72q188 0 326 150l168 -131q-195 -230 -508 -230zM354 647h576q-7 108 -73 163.5t-179 55.5
q-118 0 -202 -59t-122 -160zM354 1200l273 301h231l207 -301h-217l-113 162l-149 -162h-232z" />
    <glyph glyph-name="edieresis" unicode="&#xeb;" horiz-adv-x="1251" 
d="M592 -25q-235 0 -374.5 130t-139.5 344q0 131 46.5 246.5t127.5 198.5t195 131t245 48q213 0 346 -122.5t133 -329.5q0 -65 -20 -158h-829q1 -133 75.5 -205t208.5 -72q188 0 326 150l168 -131q-195 -230 -508 -230zM354 647h576q-7 108 -73 163.5t-179 55.5
q-118 0 -202 -59t-122 -160zM369 1341q0 67 46.5 113.5t114.5 46.5q57 0 93 -37t36 -94q0 -70 -45 -116t-112 -46q-57 0 -95 38t-38 95zM793 1341q0 67 45.5 113.5t113.5 46.5q57 0 93 -37t36 -94q0 -70 -44.5 -116t-112.5 -46q-57 0 -94 38t-37 95z" />
    <glyph glyph-name="igrave" unicode="&#xec;" horiz-adv-x="540" 
d="M92 0l111 1049h246l-111 -1049h-246zM121 1501h280l76 -301h-215z" />
    <glyph glyph-name="iacute" unicode="&#xed;" horiz-adv-x="540" 
d="M92 0l111 1049h246l-111 -1049h-246zM195 1200l141 301h289l-205 -301h-225z" />
    <glyph glyph-name="icircumflex" unicode="&#xee;" horiz-adv-x="540" 
d="M92 0l111 1049h246l-111 -1049h-246zM20 1200l252 301h203l187 -301h-205l-95 150l-124 -150h-218z" />
    <glyph glyph-name="idieresis" unicode="&#xef;" horiz-adv-x="540" 
d="M92 0l111 1049h246l-111 -1049h-246zM33 1337q0 69 43.5 116.5t111.5 47.5q54 0 89.5 -35t35.5 -92q0 -72 -43.5 -119t-109.5 -47q-55 0 -91 35.5t-36 93.5zM401 1337q0 68 44.5 116t111.5 48q55 0 90 -34.5t35 -92.5q0 -72 -44 -119t-110 -47q-55 0 -91 35.5t-36 93.5z
" />
    <glyph glyph-name="eth" unicode="&#xf0;" horiz-adv-x="1273" 
d="M578 -25q-218 0 -359 129.5t-141 335.5q0 153 75 280.5t207 201t291 73.5q162 0 293 -84q-43 172 -168 285l-227 -152l-66 113l183 121q-103 62 -242 108l104 183q191 -52 336 -160l205 135l66 -110l-170 -113q241 -241 241 -602q0 -165 -52 -317.5t-153 -254.5
q-169 -172 -423 -172zM330 459q0 -118 76.5 -189t195.5 -71q161 0 254 119.5t107 326.5q-118 139 -295 139q-147 0 -242.5 -93t-95.5 -232z" />
    <glyph glyph-name="ntilde" unicode="&#xf1;" horiz-adv-x="1257" 
d="M881 575q13 133 -38 202t-157 69q-152 0 -272 -123l-76 -723h-246l111 1049h246l-11 -88q146 112 330 112q185 0 285.5 -118t79.5 -326l-68 -629h-246zM362 1280q21 100 83 156.5t143 56.5q74 0 157 -59q55 -41 91 -41q45 0 73 82l158 -48q-23 -101 -83.5 -158
t-141.5 -57q-32 0 -63.5 10.5t-49.5 21.5t-45 30q-60 39 -90 39q-47 0 -74 -80z" />
    <glyph glyph-name="ograve" unicode="&#xf2;" horiz-adv-x="1280" 
d="M590 -25q-222 0 -366 138.5t-144 351.5q0 125 47 237.5t127.5 193.5t194 129t241.5 48q222 0 366 -138t144 -351q0 -167 -79 -306.5t-219.5 -221t-311.5 -81.5zM332 483q0 -126 75.5 -204t198.5 -78q147 0 244.5 106t97.5 258q0 126 -75.5 203.5t-198.5 77.5
q-147 0 -244.5 -106t-97.5 -257zM451 1501h278l117 -301h-213z" />
    <glyph glyph-name="oacute" unicode="&#xf3;" horiz-adv-x="1280" 
d="M590 -25q-222 0 -366 138.5t-144 351.5q0 125 47 237.5t127.5 193.5t194 129t241.5 48q222 0 366 -138t144 -351q0 -167 -79 -306.5t-219.5 -221t-311.5 -81.5zM332 483q0 -126 75.5 -204t198.5 -78q147 0 244.5 106t97.5 258q0 126 -75.5 203.5t-198.5 77.5
q-147 0 -244.5 -106t-97.5 -257zM565 1200l180 301h293l-245 -301h-228z" />
    <glyph glyph-name="ocircumflex" unicode="&#xf4;" horiz-adv-x="1280" 
d="M590 -25q-222 0 -366 138.5t-144 351.5q0 125 47 237.5t127.5 193.5t194 129t241.5 48q222 0 366 -138t144 -351q0 -167 -79 -306.5t-219.5 -221t-311.5 -81.5zM332 483q0 -126 75.5 -204t198.5 -78q147 0 244.5 106t97.5 258q0 126 -75.5 203.5t-198.5 77.5
q-147 0 -244.5 -106t-97.5 -257zM356 1200l273 301h231l207 -301h-217l-113 162l-149 -162h-232z" />
    <glyph glyph-name="otilde" unicode="&#xf5;" horiz-adv-x="1280" 
d="M590 -25q-222 0 -366 138.5t-144 351.5q0 125 47 237.5t127.5 193.5t194 129t241.5 48q222 0 366 -138t144 -351q0 -167 -79 -306.5t-219.5 -221t-311.5 -81.5zM332 483q0 -126 75.5 -204t198.5 -78q147 0 244.5 106t97.5 258q0 126 -75.5 203.5t-198.5 77.5
q-147 0 -244.5 -106t-97.5 -257zM375 1280q21 100 82.5 156.5t142.5 56.5q75 0 158 -59q55 -41 90 -41q46 0 74 82l157 -48q-23 -101 -83.5 -158t-141.5 -57q-32 0 -63.5 10.5t-49.5 21.5t-45 30q-60 39 -90 39q-47 0 -74 -80z" />
    <glyph glyph-name="odieresis" unicode="&#xf6;" horiz-adv-x="1280" 
d="M590 -25q-222 0 -366 138.5t-144 351.5q0 125 47 237.5t127.5 193.5t194 129t241.5 48q222 0 366 -138t144 -351q0 -167 -79 -306.5t-219.5 -221t-311.5 -81.5zM332 483q0 -126 75.5 -204t198.5 -78q147 0 244.5 106t97.5 258q0 126 -75.5 203.5t-198.5 77.5
q-147 0 -244.5 -106t-97.5 -257zM371 1341q0 67 46.5 113.5t114.5 46.5q57 0 93.5 -37t36.5 -94q0 -70 -45.5 -116t-112.5 -46q-57 0 -95 38t-38 95zM795 1341q0 67 45.5 113.5t113.5 46.5q57 0 93 -37t36 -94q0 -70 -44.5 -116t-112.5 -46q-57 0 -94 38t-37 95z" />
    <glyph glyph-name="divide" unicode="&#xf7;" horiz-adv-x="1331" 
d="M207 537l22 225h920l-23 -225h-919zM479 250q0 70 50 117t124 47q64 0 104 -36t40 -93q0 -72 -49.5 -119t-124.5 -47q-66 0 -105 36t-39 95zM561 1016q0 70 49 117t123 47q65 0 104.5 -35.5t39.5 -93.5q0 -73 -50 -119.5t-122 -46.5q-67 0 -105.5 36t-38.5 95z" />
    <glyph glyph-name="oslash" unicode="&#xf8;" horiz-adv-x="1280" 
d="M590 -25q-143 0 -262 64l-111 -131l-123 102l109 127q-123 132 -123 328q0 125 47 237.5t127.5 193.5t194 129t241.5 48q145 0 262 -63l109 127l123 -101l-107 -123q123 -136 123 -329q0 -167 -79 -306.5t-219.5 -221t-311.5 -81.5zM317 481q0 -99 48 -172l448 522
q-60 31 -137 31q-155 0 -257 -111t-102 -270zM467 217q60 -31 137 -31q155 0 257 111t102 270q0 99 -48 172z" />
    <glyph glyph-name="ugrave" unicode="&#xf9;" horiz-adv-x="1251" 
d="M479 -25q-186 0 -281 114.5t-73 320.5l68 639h245l-61 -586q-13 -130 35 -196t153 -66q152 0 273 127l75 721h246l-110 -1049h-246l8 86q-145 -111 -332 -111zM430 1501h279l116 -301h-213z" />
    <glyph glyph-name="uacute" unicode="&#xfa;" horiz-adv-x="1251" 
d="M479 -25q-186 0 -281 114.5t-73 320.5l68 639h245l-61 -586q-13 -130 35 -196t153 -66q152 0 273 127l75 721h246l-110 -1049h-246l8 86q-145 -111 -332 -111zM545 1200l180 301h293l-246 -301h-227z" />
    <glyph glyph-name="ucircumflex" unicode="&#xfb;" horiz-adv-x="1251" 
d="M479 -25q-186 0 -281 114.5t-73 320.5l68 639h245l-61 -586q-13 -130 35 -196t153 -66q152 0 273 127l75 721h246l-110 -1049h-246l8 86q-145 -111 -332 -111zM336 1200l272 301h232l207 -301h-218l-112 162l-150 -162h-231z" />
    <glyph glyph-name="udieresis" unicode="&#xfc;" horiz-adv-x="1251" 
d="M479 -25q-186 0 -281 114.5t-73 320.5l68 639h245l-61 -586q-13 -130 35 -196t153 -66q152 0 273 127l75 721h246l-110 -1049h-246l8 86q-145 -111 -332 -111zM350 1341q0 67 47 113.5t115 46.5q57 0 93 -37t36 -94q0 -70 -45.5 -116t-112.5 -46q-57 0 -95 38t-38 95z
M774 1341q0 67 46 113.5t114 46.5q57 0 93 -37t36 -94q0 -70 -45 -116t-113 -46q-57 0 -94 38t-37 95z" />
    <glyph glyph-name="yacute" unicode="&#xfd;" horiz-adv-x="1185" 
d="M176 -446l246 475l-348 1020h270l234 -719l370 719h275l-774 -1495h-273zM522 1200l180 301h293l-245 -301h-228z" />
    <glyph glyph-name="thorn" unicode="&#xfe;" horiz-adv-x="1302" 
d="M45 -446l207 1957h246l-58 -544q133 106 316 106q197 0 331 -138.5t134 -348.5q0 -165 -75 -305t-208 -223t-295 -83q-184 0 -297 107l-55 -528h-246zM373 324q43 -60 109 -91.5t143 -31.5q150 0 247 105.5t97 260.5q0 128 -76 203.5t-199 75.5q-76 0 -149.5 -31
t-130.5 -92z" />
    <glyph glyph-name="ydieresis" unicode="&#xff;" horiz-adv-x="1185" 
d="M176 -446l246 475l-348 1020h270l234 -719l370 719h275l-774 -1495h-273zM328 1341q0 67 46.5 113.5t114.5 46.5q57 0 93 -37t36 -94q0 -70 -45 -116t-112 -46q-57 0 -95 38t-38 95zM752 1341q0 67 45.5 113.5t113.5 46.5q57 0 93 -37t36 -94q0 -70 -44.5 -116
t-112.5 -46q-57 0 -94 38t-37 95z" />
    <glyph glyph-name="Amacron" unicode="&#x100;" horiz-adv-x="1460" 
d="M-33 0l711 1434h295l409 -1434h-270l-92 332h-614l-162 -332h-277zM514 555h444l-161 584zM545 1618l20 197h600l-18 -197h-602z" />
    <glyph glyph-name="amacron" unicode="&#x101;" horiz-adv-x="1300" 
d="M547 -25q-200 0 -333.5 137t-133.5 349q0 163 75 303.5t207.5 224.5t290.5 84q182 0 301 -110l9 86h245l-110 -1049h-246l8 80q-133 -105 -313 -105zM332 481q0 -127 76 -203.5t198 -76.5q77 0 151.5 32t129.5 93l41 395q-43 61 -110 93t-144 32q-150 0 -246 -103.5
t-96 -261.5zM457 1243l20 184h567l-20 -184h-567z" />
    <glyph glyph-name="Abreve" unicode="&#x102;" horiz-adv-x="1460" 
d="M-33 0l711 1434h295l409 -1434h-270l-92 332h-614l-162 -332h-277zM514 555h444l-161 584zM555 1884h199q-15 -155 102 -155q115 0 133 155h199q-15 -156 -104.5 -235.5t-241.5 -79.5q-150 0 -226 81t-61 234z" />
    <glyph glyph-name="abreve" unicode="&#x103;" horiz-adv-x="1300" 
d="M547 -25q-200 0 -333.5 137t-133.5 349q0 163 75 303.5t207.5 224.5t290.5 84q182 0 301 -110l9 86h245l-110 -1049h-246l8 80q-133 -105 -313 -105zM332 481q0 -127 76 -203.5t198 -76.5q77 0 151.5 32t129.5 93l41 395q-43 61 -110 93t-144 32q-150 0 -246 -103.5
t-96 -261.5zM469 1495h186q-15 -145 97 -145q110 0 127 145h188q-17 -147 -103.5 -222t-226.5 -75q-141 0 -212 76.5t-56 220.5z" />
    <glyph glyph-name="Aogonek" unicode="&#x104;" horiz-adv-x="1460" 
d="M-33 0l711 1434h295l409 -1434q-86 -58 -132 -108t-46 -105q0 -61 84 -61q34 0 68 10l-21 -197q-53 -12 -114 -12q-112 0 -177 53.5t-65 143.5q0 88 53 159t144 117h-64l-92 332h-614l-162 -332h-277zM514 555h444l-161 584z" />
    <glyph glyph-name="aogonek" unicode="&#x105;" horiz-adv-x="1300" 
d="M547 -25q-200 0 -333.5 137t-133.5 349q0 163 75 303.5t207.5 224.5t290.5 84q182 0 301 -110l9 86h245l-110 -1049q-80 -54 -125 -102t-45 -97q0 -59 80 -59q32 0 65 8l-20 -184q-50 -12 -107 -12q-105 0 -167 50.5t-62 135.5q0 82 49.5 148.5t134.5 111.5h-49l8 80
q-133 -105 -313 -105zM332 481q0 -127 76 -203.5t198 -76.5q77 0 151.5 32t129.5 93l41 395q-43 61 -110 93t-144 32q-150 0 -246 -103.5t-96 -261.5z" />
    <glyph glyph-name="Cacute" unicode="&#x106;" horiz-adv-x="1542" 
d="M776 -25q-143 0 -266.5 48.5t-211 134.5t-137.5 208.5t-50 264.5q0 172 63.5 325t172 263t260.5 174.5t323 64.5q196 0 357 -95.5t245 -266.5l-238 -129q-53 120 -154 183.5t-233 63.5q-150 0 -271.5 -75.5t-189 -204.5t-67.5 -285q0 -193 119 -311.5t305 -118.5
q133 0 248 65t192 183l213 -131q-117 -172 -292.5 -266.5t-387.5 -94.5zM780 1571l191 319h309l-260 -319h-240z" />
    <glyph glyph-name="cacute" unicode="&#x107;" horiz-adv-x="1153" 
d="M582 -25q-222 0 -363 134t-141 346q0 171 79.5 312.5t219.5 223.5t309 82q141 0 255.5 -58t184.5 -167l-198 -152q-95 150 -256 150q-147 0 -243.5 -104t-96.5 -259q0 -128 76 -205t196 -77q83 0 161.5 41t141.5 116l174 -137q-88 -118 -217.5 -182t-281.5 -64zM555 1200
l180 301h293l-246 -301h-227z" />
    <glyph glyph-name="Ccircumflex" unicode="&#x108;" horiz-adv-x="1542" 
d="M776 -25q-143 0 -266.5 48.5t-211 134.5t-137.5 208.5t-50 264.5q0 172 63.5 325t172 263t260.5 174.5t323 64.5q196 0 357 -95.5t245 -266.5l-238 -129q-53 120 -154 183.5t-233 63.5q-150 0 -271.5 -75.5t-189 -204.5t-67.5 -285q0 -193 119 -311.5t305 -118.5
q133 0 248 65t192 183l213 -131q-117 -172 -292.5 -266.5t-387.5 -94.5zM571 1571l281 319h244l213 -319h-224l-120 170l-156 -170h-238z" />
    <glyph glyph-name="ccircumflex" unicode="&#x109;" horiz-adv-x="1153" 
d="M582 -25q-222 0 -363 134t-141 346q0 171 79.5 312.5t219.5 223.5t309 82q141 0 255.5 -58t184.5 -167l-198 -152q-95 150 -256 150q-147 0 -243.5 -104t-96.5 -259q0 -128 76 -205t196 -77q83 0 161.5 41t141.5 116l174 -137q-88 -118 -217.5 -182t-281.5 -64zM346 1200
l272 301h232l207 -301h-217l-113 162l-149 -162h-232z" />
    <glyph glyph-name="Cdotaccent" unicode="&#x10a;" horiz-adv-x="1542" 
d="M776 -25q-143 0 -266.5 48.5t-211 134.5t-137.5 208.5t-50 264.5q0 172 63.5 325t172 263t260.5 174.5t323 64.5q196 0 357 -95.5t245 -266.5l-238 -129q-53 120 -154 183.5t-233 63.5q-150 0 -271.5 -75.5t-189 -204.5t-67.5 -285q0 -193 119 -311.5t305 -118.5
q133 0 248 65t192 183l213 -131q-117 -172 -292.5 -266.5t-387.5 -94.5zM797 1718q0 74 50.5 124t125.5 50q63 0 104 -40t41 -101q0 -76 -51 -125t-125 -49q-62 0 -103.5 40t-41.5 101z" />
    <glyph glyph-name="cdotaccent" unicode="&#x10b;" horiz-adv-x="1153" 
d="M582 -25q-222 0 -363 134t-141 346q0 171 79.5 312.5t219.5 223.5t309 82q141 0 255.5 -58t184.5 -167l-198 -152q-95 150 -256 150q-147 0 -243.5 -104t-96.5 -259q0 -128 76 -205t196 -77q83 0 161.5 41t141.5 116l174 -137q-88 -118 -217.5 -182t-281.5 -64zM563 1339
q0 69 49 117.5t121 48.5q60 0 99.5 -38t39.5 -95q0 -73 -49.5 -120.5t-120.5 -47.5q-59 0 -99 38.5t-40 96.5z" />
    <glyph glyph-name="Ccaron" unicode="&#x10c;" horiz-adv-x="1542" 
d="M776 -25q-143 0 -266.5 48.5t-211 134.5t-137.5 208.5t-50 264.5q0 172 63.5 325t172 263t260.5 174.5t323 64.5q196 0 357 -95.5t245 -266.5l-238 -129q-53 120 -154 183.5t-233 63.5q-150 0 -271.5 -75.5t-189 -204.5t-67.5 -285q0 -193 119 -311.5t305 -118.5
q133 0 248 65t192 183l213 -131q-117 -172 -292.5 -266.5t-387.5 -94.5zM606 1890h221l121 -172l158 172h235l-278 -319h-246z" />
    <glyph glyph-name="ccaron" unicode="&#x10d;" horiz-adv-x="1153" 
d="M582 -25q-222 0 -363 134t-141 346q0 171 79.5 312.5t219.5 223.5t309 82q141 0 255.5 -58t184.5 -167l-198 -152q-95 150 -256 150q-147 0 -243.5 -104t-96.5 -259q0 -128 76 -205t196 -77q83 0 161.5 41t141.5 116l174 -137q-88 -118 -217.5 -182t-281.5 -64zM379 1501
h217l113 -162l149 162h232l-273 -301h-231z" />
    <glyph glyph-name="Dcaron" unicode="&#x10e;" horiz-adv-x="1466" 
d="M117 0l149 1434h465q193 0 343.5 -76t236.5 -220t86 -335q0 -177 -60 -326.5t-166.5 -254t-258.5 -163.5t-332 -59h-463zM401 242h193q250 0 393 148.5t143 400.5q0 195 -114.5 298t-323.5 103h-192zM428 1882h221l121 -172l158 172h235l-278 -319h-246z" />
    <glyph glyph-name="dcaron" unicode="&#x10f;" horiz-adv-x="1581" 
d="M852 0l8 80q-133 -105 -313 -105q-200 0 -333.5 137t-133.5 349q0 165 75 305.5t207.5 223.5t292.5 83q186 0 297 -108l58 546h245l-157 -1511h-246zM332 481q0 -127 76 -203.5t198 -76.5q77 0 150.5 31.5t130.5 93.5l41 397q-43 60 -110 91.5t-144 31.5
q-151 0 -246.5 -104t-95.5 -261zM1395 1036q123 100 157 193q-8 -2 -26 -2q-58 0 -93.5 36.5t-35.5 92.5q0 68 46.5 111.5t112.5 43.5q65 0 107.5 -48.5t42.5 -125.5q0 -106 -69 -204t-179 -177z" />
    <glyph glyph-name="Dcroat" unicode="&#x110;" horiz-adv-x="1497" 
d="M147 0l66 635h-145l20 201h148l61 598h465q193 0 343.5 -76t236 -220t85.5 -335q0 -177 -60 -326.5t-166.5 -254t-258.5 -163.5t-332 -59h-463zM432 242h193q250 0 393 148.5t143 400.5q0 195 -114.5 298t-323.5 103h-193l-36 -356h340l-21 -201h-340z" />
    <glyph glyph-name="dcroat" unicode="&#x111;" horiz-adv-x="1300" 
d="M852 0l8 80q-133 -105 -313 -105q-204 0 -336.5 135.5t-132.5 344.5q0 122 45 232.5t121.5 189.5t183 125.5t225.5 46.5q181 0 297 -107l25 244h-313l18 166h313l17 159h245l-16 -159h174l-16 -166h-176l-123 -1186h-246zM330 475q0 -125 76.5 -199.5t199.5 -74.5
q77 0 150.5 31.5t130.5 93.5l39 374q-43 60 -110.5 91.5t-143.5 31.5q-148 0 -245 -101t-97 -247z" />
    <glyph glyph-name="Emacron" unicode="&#x112;" horiz-adv-x="1298" 
d="M117 0l149 1434h1008l-25 -240h-747l-35 -332h651l-26 -237h-652l-41 -385h750l-27 -240h-1005zM489 1618l21 197h600l-18 -197h-603z" />
    <glyph glyph-name="emacron" unicode="&#x113;" horiz-adv-x="1251" 
d="M592 -25q-235 0 -374.5 130t-139.5 344q0 131 46.5 246.5t127.5 198.5t195 131t245 48q213 0 346 -122.5t133 -329.5q0 -65 -20 -158h-829q1 -133 75.5 -205t208.5 -72q188 0 326 150l168 -131q-195 -230 -508 -230zM354 647h576q-7 108 -73 163.5t-179 55.5
q-118 0 -202 -59t-122 -160zM430 1243l21 184h567l-21 -184h-567z" />
    <glyph glyph-name="Ebreve" unicode="&#x114;" horiz-adv-x="1298" 
d="M117 0l149 1434h1008l-25 -240h-747l-35 -332h651l-26 -237h-652l-41 -385h750l-27 -240h-1005zM500 1884h198q-15 -155 103 -155q115 0 133 155h199q-15 -156 -105 -235.5t-242 -79.5q-150 0 -225.5 81t-60.5 234z" />
    <glyph glyph-name="ebreve" unicode="&#x115;" horiz-adv-x="1251" 
d="M592 -25q-235 0 -374.5 130t-139.5 344q0 131 46.5 246.5t127.5 198.5t195 131t245 48q213 0 346 -122.5t133 -329.5q0 -65 -20 -158h-829q1 -133 75.5 -205t208.5 -72q188 0 326 150l168 -131q-195 -230 -508 -230zM354 647h576q-7 108 -73 163.5t-179 55.5
q-118 0 -202 -59t-122 -160zM442 1495h187q-15 -145 96 -145q110 0 127 145h188q-17 -148 -103 -222.5t-226 -74.5q-141 0 -212.5 76.5t-56.5 220.5z" />
    <glyph glyph-name="Edotaccent" unicode="&#x116;" horiz-adv-x="1298" 
d="M117 0l149 1434h1008l-25 -240h-747l-35 -332h651l-26 -237h-652l-41 -385h750l-27 -240h-1005zM641 1718q0 74 50.5 124t125.5 50q63 0 104.5 -40t41.5 -101q0 -76 -51 -125t-126 -49q-62 0 -103.5 40t-41.5 101z" />
    <glyph glyph-name="edotaccent" unicode="&#x117;" horiz-adv-x="1251" 
d="M592 -25q-235 0 -374.5 130t-139.5 344q0 131 46.5 246.5t127.5 198.5t195 131t245 48q213 0 346 -122.5t133 -329.5q0 -65 -20 -158h-829q1 -133 75.5 -205t208.5 -72q188 0 326 150l168 -131q-195 -230 -508 -230zM354 647h576q-7 108 -73 163.5t-179 55.5
q-118 0 -202 -59t-122 -160zM571 1339q0 69 49 117.5t121 48.5q60 0 100 -38t40 -95q0 -73 -49.5 -120.5t-120.5 -47.5q-59 0 -99.5 38.5t-40.5 96.5z" />
    <glyph glyph-name="Eogonek" unicode="&#x118;" horiz-adv-x="1298" 
d="M117 0l149 1434h1008l-25 -240h-747l-35 -332h651l-26 -237h-652l-41 -385h750l-27 -240q-86 -58 -132 -108t-46 -105q0 -61 84 -61q34 0 68 10l-21 -197q-53 -12 -114 -12q-112 0 -177 53.5t-65 143.5q0 88 52.5 159t143.5 117h-798z" />
    <glyph glyph-name="eogonek" unicode="&#x119;" horiz-adv-x="1251" 
d="M649 -440q-105 0 -167 50.5t-62 135.5q0 138 135 229q-220 10 -348.5 139.5t-128.5 334.5q0 131 46.5 246.5t127.5 198.5t195 131t245 48q213 0 346 -122.5t133 -329.5q0 -65 -20 -158h-829q1 -133 75.5 -205t208.5 -72q188 0 326 150l168 -131q-126 -148 -301 -199
q-79 -55 -123.5 -102.5t-44.5 -96.5q0 -59 80 -59q32 0 65 8l-20 -184q-50 -12 -107 -12zM354 647h576q-7 108 -73 163.5t-179 55.5q-118 0 -202 -59t-122 -160z" />
    <glyph glyph-name="Ecaron" unicode="&#x11a;" horiz-adv-x="1298" 
d="M117 0l149 1434h1008l-25 -240h-747l-35 -332h651l-26 -237h-652l-41 -385h750l-27 -240h-1005zM451 1890h221l121 -172l157 172h236l-279 -319h-245z" />
    <glyph glyph-name="ecaron" unicode="&#x11b;" horiz-adv-x="1251" 
d="M592 -25q-235 0 -374.5 130t-139.5 344q0 131 46.5 246.5t127.5 198.5t195 131t245 48q213 0 346 -122.5t133 -329.5q0 -65 -20 -158h-829q1 -133 75.5 -205t208.5 -72q188 0 326 150l168 -131q-195 -230 -508 -230zM354 647h576q-7 108 -73 163.5t-179 55.5
q-118 0 -202 -59t-122 -160zM387 1501h217l113 -162l149 162h232l-273 -301h-231z" />
    <glyph glyph-name="Gcircumflex" unicode="&#x11c;" horiz-adv-x="1589" 
d="M795 -25q-204 0 -360.5 82.5t-241 230t-84.5 337.5q0 173 63 327.5t171 265.5t259 175.5t320 64.5q179 0 327 -72t238 -206l-232 -144q-55 86 -147 132t-203 46q-152 0 -274 -75.5t-189 -205t-67 -286.5q0 -198 121.5 -313t330.5 -115q205 0 367 96l31 293h-336l24 226
h580l-72 -662q-266 -197 -626 -197zM565 1571l281 319h244l213 -319h-224l-121 170l-155 -170h-238z" />
    <glyph glyph-name="gcircumflex" unicode="&#x11d;" horiz-adv-x="1300" 
d="M518 -471q-150 0 -279 51t-212 144l157 180q164 -150 342 -150q139 0 226.5 73.5t101.5 199.5l8 88q-133 -105 -313 -105q-201 0 -334 134.5t-133 342.5q0 157 75 291.5t206 214.5t286 80q181 0 303 -110l9 86h245l-106 -1022q-26 -235 -178 -366.5t-404 -131.5zM332 504
q0 -122 76.5 -197.5t197.5 -75.5q76 0 150 31.5t133 91.5l39 371q-45 60 -113 91.5t-145 31.5q-146 0 -242 -100.5t-96 -243.5zM350 1200l273 301h231l207 -301h-217l-113 162l-149 -162h-232z" />
    <glyph glyph-name="Gbreve" unicode="&#x11e;" horiz-adv-x="1589" 
d="M795 -25q-204 0 -360.5 82.5t-241 230t-84.5 337.5q0 173 63 327.5t171 265.5t259 175.5t320 64.5q179 0 327 -72t238 -206l-232 -144q-55 86 -147 132t-203 46q-152 0 -274 -75.5t-189 -205t-67 -286.5q0 -198 121.5 -313t330.5 -115q205 0 367 96l31 293h-336l24 226
h580l-72 -662q-266 -197 -626 -197zM649 1884h199q-15 -155 102 -155q115 0 133 155h199q-15 -156 -104.5 -235.5t-241.5 -79.5q-150 0 -226 81t-61 234z" />
    <glyph glyph-name="gbreve" unicode="&#x11f;" horiz-adv-x="1300" 
d="M518 -471q-150 0 -279 51t-212 144l157 180q164 -150 342 -150q139 0 226.5 73.5t101.5 199.5l8 88q-133 -105 -313 -105q-201 0 -334 134.5t-133 342.5q0 157 75 291.5t206 214.5t286 80q181 0 303 -110l9 86h245l-106 -1022q-26 -235 -178 -366.5t-404 -131.5zM332 504
q0 -122 76.5 -197.5t197.5 -75.5q76 0 150 31.5t133 91.5l39 371q-45 60 -113 91.5t-145 31.5q-146 0 -242 -100.5t-96 -243.5zM438 1495h187q-15 -145 96 -145q110 0 127 145h188q-17 -148 -103 -222.5t-226 -74.5q-141 0 -212.5 76.5t-56.5 220.5z" />
    <glyph glyph-name="Gdotaccent" unicode="&#x120;" horiz-adv-x="1589" 
d="M795 -25q-204 0 -360.5 82.5t-241 230t-84.5 337.5q0 173 63 327.5t171 265.5t259 175.5t320 64.5q179 0 327 -72t238 -206l-232 -144q-55 86 -147 132t-203 46q-152 0 -274 -75.5t-189 -205t-67 -286.5q0 -198 121.5 -313t330.5 -115q205 0 367 96l31 293h-336l24 226
h580l-72 -662q-266 -197 -626 -197zM791 1718q0 74 50.5 124t125.5 50q63 0 104 -40t41 -101q0 -76 -51 -125t-125 -49q-62 0 -103.5 40t-41.5 101z" />
    <glyph glyph-name="gdotaccent" unicode="&#x121;" horiz-adv-x="1300" 
d="M518 -471q-150 0 -279 51t-212 144l157 180q164 -150 342 -150q139 0 226.5 73.5t101.5 199.5l8 88q-133 -105 -313 -105q-201 0 -334 134.5t-133 342.5q0 157 75 291.5t206 214.5t286 80q181 0 303 -110l9 86h245l-106 -1022q-26 -235 -178 -366.5t-404 -131.5zM332 504
q0 -122 76.5 -197.5t197.5 -75.5q76 0 150 31.5t133 91.5l39 371q-45 60 -113 91.5t-145 31.5q-146 0 -242 -100.5t-96 -243.5zM567 1339q0 69 49 117.5t121 48.5q60 0 100 -38t40 -95q0 -73 -49.5 -120.5t-120.5 -47.5q-59 0 -99.5 38.5t-40.5 96.5z" />
    <glyph glyph-name="uni0122" unicode="&#x122;" horiz-adv-x="1589" 
d="M795 -25q-204 0 -360.5 82.5t-241 230t-84.5 337.5q0 173 63 327.5t171 265.5t259 175.5t320 64.5q179 0 327 -72t238 -206l-232 -144q-55 86 -147 132t-203 46q-152 0 -274 -75.5t-189 -205t-67 -286.5q0 -198 121.5 -313t330.5 -115q205 0 367 96l31 293h-336l24 226
h580l-72 -662q-266 -197 -626 -197zM584 -283q0 61 46 100.5t109 39.5q67 0 110.5 -44.5t43.5 -117.5q0 -57 -28 -123.5t-70 -114.5h-142q63 76 80 144q-6 -2 -22 -2q-59 0 -93 33t-34 85z" />
    <glyph glyph-name="uni0123" unicode="&#x123;" horiz-adv-x="1300" 
d="M518 -471q-150 0 -279 51t-212 144l157 180q164 -150 342 -150q139 0 226.5 73.5t101.5 199.5l8 88q-133 -105 -313 -105q-201 0 -334 134.5t-133 342.5q0 157 75 291.5t206 214.5t286 80q181 0 303 -110l9 86h245l-106 -1022q-26 -235 -178 -366.5t-404 -131.5zM332 504
q0 -122 76.5 -197.5t197.5 -75.5q76 0 150 31.5t133 91.5l39 371q-45 60 -113 91.5t-145 31.5q-146 0 -242 -100.5t-96 -243.5zM565 1354q0 57 28 122.5t71 114.5h141q-64 -76 -80 -143q6 2 23 2q59 0 92.5 -33.5t33.5 -85.5q0 -61 -45.5 -100t-109.5 -39q-67 0 -110.5 44.5
t-43.5 117.5z" />
    <glyph glyph-name="Hcircumflex" unicode="&#x124;" horiz-adv-x="1558" 
d="M117 0l149 1434h260l-61 -574h698l60 574h260l-152 -1434h-258l64 618h-699l-63 -618h-258zM520 1571l281 319h243l213 -319h-223l-121 170l-155 -170h-238z" />
    <glyph glyph-name="hcircumflex" unicode="&#x125;" horiz-adv-x="1257" 
d="M881 575q13 133 -38.5 202t-156.5 69q-155 0 -272 -123l-76 -723h-246l160 1511h246l-58 -550q146 112 330 112t284 -118t79 -326l-68 -629h-246zM20 1649l281 319h244l213 -319h-223l-121 170l-156 -170h-238z" />
    <glyph glyph-name="Hbar" unicode="&#x126;" horiz-adv-x="1605" 
d="M139 0l109 1042h-123l20 185h121l23 207h260l-23 -207h697l22 207h260l-22 -207h125l-19 -185h-125l-110 -1042h-258l63 618h-698l-64 -618h-258zM487 860h699l18 182h-698z" />
    <glyph glyph-name="hbar" unicode="&#x127;" horiz-adv-x="1257" 
d="M877 551q15 134 -37.5 203t-157.5 69q-148 0 -270 -125l-74 -698h-246l125 1186h-174l18 166h175l16 159h246l-17 -159h316l-19 -166h-315l-27 -248q145 111 332 111q184 0 283.5 -117.5t76.5 -327.5l-63 -604h-246z" />
    <glyph glyph-name="Itilde" unicode="&#x128;" horiz-adv-x="602" 
d="M117 0l149 1434h260l-151 -1434h-258zM51 1655q21 109 87 168t155 59q34 0 68 -11t51 -21.5t47 -30.5q60 -43 96 -43q54 0 82 86l168 -52q-21 -109 -88 -168t-156 -59q-34 0 -67.5 11.5t-51.5 22.5t-47 32q-2 1 -14 9t-14.5 9.5l-12.5 7.5t-14 7.5l-12 4.5t-15 4t-14 1
q-54 0 -82 -86z" />
    <glyph glyph-name="itilde" unicode="&#x129;" horiz-adv-x="540" 
d="M92 0l111 1049h246l-111 -1049h-246zM25 1270q20 101 76.5 158t131.5 57q66 0 150 -60q49 -39 82 -39q54 0 76 82l149 -45q-20 -100 -77 -157.5t-132 -57.5q-71 0 -151 62q-50 37 -82 37q-52 0 -74 -82z" />
    <glyph glyph-name="Imacron" unicode="&#x12a;" horiz-adv-x="602" 
d="M117 0l149 1434h260l-151 -1434h-258zM115 1618l20 197h600l-18 -197h-602z" />
    <glyph glyph-name="imacron" unicode="&#x12b;" horiz-adv-x="540" 
d="M92 0l111 1049h246l-111 -1049h-246zM82 1245l20 185h527l-21 -185h-526z" />
    <glyph glyph-name="Ibreve" unicode="&#x12c;" horiz-adv-x="602" 
d="M117 0l149 1434h260l-151 -1434h-258zM125 1884h199q-15 -155 102 -155q115 0 133 155h199q-15 -156 -104.5 -235.5t-241.5 -79.5q-150 0 -226 81t-61 234z" />
    <glyph glyph-name="ibreve" unicode="&#x12d;" horiz-adv-x="540" 
d="M92 0l111 1049h246l-111 -1049h-246zM94 1495h174q-7 -73 16.5 -109t71.5 -36q49 0 81.5 36.5t39.5 108.5h172q-30 -297 -303 -297q-134 0 -199 76.5t-53 220.5z" />
    <glyph glyph-name="Iogonek" unicode="&#x12e;" horiz-adv-x="602" 
d="M117 0l149 1434h260l-151 -1434q-74 -60 -111 -106t-37 -97q0 -59 66 -59q22 0 55 10l-20 -184q-50 -13 -99 -13q-98 0 -154.5 49.5t-56.5 131.5t50 152.5t131 115.5h-82z" />
    <glyph glyph-name="iogonek" unicode="&#x12f;" horiz-adv-x="540" 
d="M92 0l111 1049h246l-111 -1049q-74 -60 -111 -106t-37 -97q0 -59 66 -59q22 0 55 10l-20 -184q-50 -13 -98 -13q-98 0 -154.5 49.5t-56.5 131.5t49.5 153t130.5 115h-70zM203 1339q0 69 49 117.5t121 48.5q60 0 99.5 -38t39.5 -95q0 -73 -49.5 -120.5t-120.5 -47.5
q-59 0 -99 38.5t-40 96.5z" />
    <glyph glyph-name="Idotaccent" unicode="&#x130;" horiz-adv-x="602" 
d="M117 0l149 1434h260l-151 -1434h-258zM266 1718q0 74 50.5 124t125.5 50q63 0 104.5 -40t41.5 -101q0 -76 -51 -125t-125 -49q-62 0 -104 40t-42 101z" />
    <glyph glyph-name="dotlessi" unicode="&#x131;" horiz-adv-x="540" 
d="M92 0l111 1049h246l-111 -1049h-246z" />
    <glyph glyph-name="Jcircumflex" unicode="&#x134;" horiz-adv-x="1187" 
d="M467 -25q-243 0 -453 146l136 213q177 -113 323 -113q122 0 204 74t95 215l96 924h260l-100 -945q-26 -253 -169 -383.5t-392 -130.5zM645 1571l281 319h243l213 -319h-223l-121 170l-155 -170h-238z" />
    <glyph glyph-name="jcircumflex" unicode="&#x135;" horiz-adv-x="540" 
d="M-68 -471q-109 0 -194 35l57 219q65 -21 119 -21q76 0 120 45.5t54 145.5l115 1096h246l-117 -1123q-22 -204 -119.5 -300.5t-280.5 -96.5zM20 1200l252 301h203l187 -301h-205l-95 150l-124 -150h-218z" />
    <glyph glyph-name="uni0136" unicode="&#x136;" horiz-adv-x="1478" 
d="M117 0l149 1434h260l-73 -691l731 691h336l-682 -650l563 -784h-320l-436 602l-229 -217l-41 -385h-258zM506 -283q0 61 46 100.5t110 39.5q67 0 110 -44.5t43 -117.5q0 -57 -28 -123.5t-70 -114.5h-142q63 76 80 144q-6 -2 -22 -2q-59 0 -93 33t-34 85z" />
    <glyph glyph-name="uni0137" unicode="&#x137;" horiz-adv-x="1232" 
d="M92 0l160 1511h246l-97 -919l525 457h319l-512 -453l430 -596h-295l-313 436l-188 -166l-29 -270h-246zM379 -283q0 61 46 100.5t110 39.5q67 0 110 -44.5t43 -117.5q0 -57 -28 -123.5t-70 -114.5h-141q62 74 79 144q-6 -2 -22 -2q-59 0 -93 33t-34 85z" />
    <glyph glyph-name="Lacute" unicode="&#x139;" horiz-adv-x="1189" 
d="M117 0l149 1434h260l-125 -1192h686l-24 -242h-946zM250 1571l190 319h310l-261 -319h-239z" />
    <glyph glyph-name="lacute" unicode="&#x13a;" horiz-adv-x="540" 
d="M92 0l160 1511h246l-160 -1511h-246zM229 1649l191 319h309l-260 -319h-240z" />
    <glyph glyph-name="uni013B" unicode="&#x13b;" horiz-adv-x="1189" 
d="M117 0l149 1434h260l-125 -1192h686l-24 -242h-946zM406 -283q0 61 46 100.5t109 39.5q67 0 110.5 -44.5t43.5 -117.5q0 -57 -28 -123t-71 -115h-141q63 76 80 144q-6 -2 -23 -2q-59 0 -92.5 33t-33.5 85z" />
    <glyph glyph-name="uni013C" unicode="&#x13c;" horiz-adv-x="540" 
d="M92 0l160 1511h246l-160 -1511h-246zM33 -283q0 61 46 100.5t109 39.5q67 0 110.5 -44.5t43.5 -117.5q0 -57 -28 -123.5t-70 -114.5h-142q63 76 80 144q-6 -2 -22 -2q-59 0 -93 33t-34 85z" />
    <glyph glyph-name="Lcaron" unicode="&#x13d;" horiz-adv-x="1189" 
d="M117 0l149 1434h260l-125 -1192h686l-24 -242h-946zM717 983q123 100 157 193q-8 -2 -26 -2q-58 0 -93.5 36.5t-35.5 92.5q0 68 47 111.5t113 43.5q65 0 107 -48.5t42 -125.5q0 -106 -69 -204t-179 -177z" />
    <glyph glyph-name="lcaron" unicode="&#x13e;" horiz-adv-x="827" 
d="M92 0l160 1511h246l-160 -1511h-246zM641 1036q125 101 158 193q-8 -2 -27 -2q-58 0 -93.5 36.5t-35.5 92.5q0 68 47 111.5t113 43.5q65 0 107 -48.5t42 -125.5q0 -106 -68.5 -204.5t-178.5 -176.5z" />
    <glyph glyph-name="Ldot" unicode="&#x13f;" horiz-adv-x="1210" 
d="M117 0l149 1434h260l-125 -1192h686l-24 -242h-946zM647 709q0 77 50.5 127.5t127.5 50.5q60 0 101 -42t41 -102q0 -77 -49.5 -127.5t-126.5 -50.5q-63 0 -103.5 41t-40.5 103z" />
    <glyph glyph-name="ldot" unicode="&#x140;" horiz-adv-x="907" 
d="M92 0l160 1511h246l-160 -1511h-246zM557 545q0 79 53.5 132.5t132.5 53.5q63 0 106.5 -43.5t43.5 -105.5q0 -82 -51.5 -134.5t-132.5 -52.5q-66 0 -109 42.5t-43 107.5z" />
    <glyph glyph-name="Lslash" unicode="&#x141;" horiz-adv-x="1241" 
d="M168 0l49 469l-227 -154l26 250l228 154l73 715h261l-56 -527l389 262l-26 -249l-389 -263l-43 -415h686l-25 -242h-946z" />
    <glyph glyph-name="lslash" unicode="&#x142;" horiz-adv-x="704" 
d="M174 0l55 530l-219 -147l23 231l221 150l80 747h246l-60 -571l219 147l-24 -229l-219 -147l-76 -711h-246z" />
    <glyph glyph-name="Nacute" unicode="&#x143;" horiz-adv-x="1581" 
d="M117 0l149 1434h256l619 -1020l106 1020h258l-151 -1434h-256l-615 1018l-108 -1018h-258zM741 1571l191 319h309l-260 -319h-240z" />
    <glyph glyph-name="nacute" unicode="&#x144;" horiz-adv-x="1257" 
d="M881 575q13 133 -38 202t-157 69q-152 0 -272 -123l-76 -723h-246l111 1049h246l-11 -88q146 112 330 112q185 0 285.5 -118t79.5 -326l-68 -629h-246zM551 1200l180 301h293l-246 -301h-227z" />
    <glyph glyph-name="uni0145" unicode="&#x145;" horiz-adv-x="1581" 
d="M117 0l149 1434h256l619 -1020l106 1020h258l-151 -1434h-256l-615 1018l-108 -1018h-258zM553 -283q0 61 46 100.5t110 39.5q67 0 110 -44.5t43 -117.5q0 -57 -28 -123.5t-70 -114.5h-141q62 74 79 144q-6 -2 -22 -2q-59 0 -93 33t-34 85z" />
    <glyph glyph-name="uni0146" unicode="&#x146;" horiz-adv-x="1257" 
d="M881 575q13 133 -38 202t-157 69q-152 0 -272 -123l-76 -723h-246l111 1049h246l-11 -88q146 112 330 112q185 0 285.5 -118t79.5 -326l-68 -629h-246zM395 -283q0 61 46 100.5t110 39.5q67 0 110.5 -44.5t43.5 -117.5q0 -57 -28 -123t-71 -115h-141q63 76 80 144
q-6 -2 -23 -2q-59 0 -93 33t-34 85z" />
    <glyph glyph-name="Ncaron" unicode="&#x147;" horiz-adv-x="1581" 
d="M117 0l149 1434h256l619 -1020l106 1020h258l-151 -1434h-256l-615 1018l-108 -1018h-258zM567 1890h221l121 -172l158 172h236l-279 -319h-246z" />
    <glyph glyph-name="ncaron" unicode="&#x148;" horiz-adv-x="1257" 
d="M881 575q13 133 -38 202t-157 69q-152 0 -272 -123l-76 -723h-246l111 1049h246l-11 -88q146 112 330 112q185 0 285.5 -118t79.5 -326l-68 -629h-246zM375 1501h217l113 -162l149 162h231l-272 -301h-231z" />
    <glyph glyph-name="Eng" unicode="&#x14a;" horiz-adv-x="1579" 
d="M956 -387q-111 0 -194 35l59 225q72 -20 119 -20q67 0 109 39t51 114v2l-617 1014l-108 -1022h-258l149 1434h256l617 -1016l106 1016h258l-147 -1411q-23 -211 -123 -310.5t-277 -99.5z" />
    <glyph glyph-name="eng" unicode="&#x14b;" horiz-adv-x="1257" 
d="M670 -369q-110 0 -195 35l57 219q68 -22 119 -22q154 0 174 192l56 520q13 133 -38.5 202t-156.5 69q-152 0 -272 -123l-76 -723h-246l111 1049h246l-11 -88q149 112 332 112q185 0 284.5 -117.5t78.5 -326.5l-64 -600q-23 -205 -120.5 -301.5t-278.5 -96.5z" />
    <glyph glyph-name="Omacron" unicode="&#x14c;" horiz-adv-x="1665" 
d="M780 -25q-191 0 -343.5 83t-239 233t-86.5 340q0 170 63.5 323t171.5 263.5t259 175.5t319 65q191 0 344 -83.5t240 -234.5t87 -341q0 -169 -63.5 -321.5t-172 -262.5t-260 -175t-319.5 -65zM377 649q0 -192 118.5 -311t303.5 -119q113 0 212 44.5t168.5 120t109.5 179.5
t40 219q0 195 -117.5 313.5t-306.5 118.5q-150 0 -271.5 -75.5t-189 -204.5t-67.5 -285zM647 1618l21 197h600l-19 -197h-602z" />
    <glyph glyph-name="omacron" unicode="&#x14d;" horiz-adv-x="1280" 
d="M590 -25q-222 0 -366 138.5t-144 351.5q0 125 47 237.5t127.5 193.5t194 129t241.5 48q222 0 366 -138t144 -351q0 -167 -79 -306.5t-219.5 -221t-311.5 -81.5zM332 483q0 -126 75.5 -204t198.5 -78q147 0 244.5 106t97.5 258q0 126 -75.5 203.5t-198.5 77.5
q-147 0 -244.5 -106t-97.5 -257zM432 1243l21 184h567l-21 -184h-567z" />
    <glyph glyph-name="Obreve" unicode="&#x14e;" horiz-adv-x="1665" 
d="M780 -25q-191 0 -343.5 83t-239 233t-86.5 340q0 170 63.5 323t171.5 263.5t259 175.5t319 65q191 0 344 -83.5t240 -234.5t87 -341q0 -169 -63.5 -321.5t-172 -262.5t-260 -175t-319.5 -65zM377 649q0 -192 118.5 -311t303.5 -119q113 0 212 44.5t168.5 120t109.5 179.5
t40 219q0 195 -117.5 313.5t-306.5 118.5q-150 0 -271.5 -75.5t-189 -204.5t-67.5 -285zM657 1884h199q-15 -155 102 -155q116 0 134 155h198q-15 -156 -104.5 -235.5t-241.5 -79.5q-150 0 -226 81t-61 234z" />
    <glyph glyph-name="obreve" unicode="&#x14f;" horiz-adv-x="1280" 
d="M590 -25q-222 0 -366 138.5t-144 351.5q0 125 47 237.5t127.5 193.5t194 129t241.5 48q222 0 366 -138t144 -351q0 -167 -79 -306.5t-219.5 -221t-311.5 -81.5zM332 483q0 -126 75.5 -204t198.5 -78q147 0 244.5 106t97.5 258q0 126 -75.5 203.5t-198.5 77.5
q-147 0 -244.5 -106t-97.5 -257zM444 1495h187q-15 -145 96 -145q110 0 127 145h188q-17 -148 -103 -222.5t-226 -74.5q-141 0 -212.5 76.5t-56.5 220.5z" />
    <glyph glyph-name="Ohungarumlaut" unicode="&#x150;" horiz-adv-x="1665" 
d="M780 -25q-191 0 -343.5 83t-239 233t-86.5 340q0 170 63.5 323t171.5 263.5t259 175.5t319 65q191 0 344 -83.5t240 -234.5t87 -341q0 -169 -63.5 -321.5t-172 -262.5t-260 -175t-319.5 -65zM377 649q0 -192 118.5 -311t303.5 -119q113 0 212 44.5t168.5 120t109.5 179.5
t40 219q0 195 -117.5 313.5t-306.5 118.5q-150 0 -271.5 -75.5t-189 -204.5t-67.5 -285zM594 1571l170 319h256l-223 -319h-203zM977 1571l174 319h252l-221 -319h-205z" />
    <glyph glyph-name="ohungarumlaut" unicode="&#x151;" horiz-adv-x="1280" 
d="M590 -25q-222 0 -366 138.5t-144 351.5q0 125 47 237.5t127.5 193.5t194 129t241.5 48q222 0 366 -138t144 -351q0 -167 -79 -306.5t-219.5 -221t-311.5 -81.5zM332 483q0 -126 75.5 -204t198.5 -78q147 0 244.5 106t97.5 258q0 126 -75.5 203.5t-198.5 77.5
q-147 0 -244.5 -106t-97.5 -257zM385 1200l164 301h239l-210 -301h-193zM748 1200l163 301h238l-209 -301h-192z" />
    <glyph glyph-name="OE" unicode="&#x152;" horiz-adv-x="2154" 
d="M776 0q-300 0 -482.5 168.5t-182.5 454.5q0 179 59 330t165.5 257t258.5 165t332 59h1204l-25 -240h-749l-35 -332h651l-24 -237h-652l-41 -385h748l-25 -240h-1202zM377 643q0 -194 115 -297.5t321 -103.5h184l101 950h-185q-251 0 -393.5 -148t-142.5 -401z" />
    <glyph glyph-name="oe" unicode="&#x153;" horiz-adv-x="2115" 
d="M606 201q147 0 244.5 106t97.5 258q0 126 -75.5 203.5t-198.5 77.5q-147 0 -244.5 -105.5t-97.5 -255.5q0 -127 75.5 -205.5t198.5 -78.5zM80 473q0 165 80 302.5t220 217.5t308 80q132 0 239 -51.5t175 -144.5q84 94 201 145t253 51q211 0 344.5 -124t133.5 -326
q0 -82 -19 -160h-831q1 -132 78.5 -204.5t212.5 -72.5q186 0 327 150l166 -131q-94 -112 -224 -171t-284 -59q-143 0 -253.5 50.5t-176.5 140.5q-82 -90 -194 -140.5t-244 -50.5q-226 0 -369 138.5t-143 359.5zM1214 647h580q-7 108 -73.5 163.5t-180.5 55.5
q-118 0 -202.5 -59t-123.5 -160z" />
    <glyph glyph-name="Racute" unicode="&#x154;" horiz-adv-x="1415" 
d="M117 0l149 1434h590q212 0 339.5 -109t127.5 -293q0 -194 -107 -321t-292 -166l356 -545h-301l-336 530h-213l-55 -530h-258zM457 770h313q136 0 211.5 61.5t75.5 182.5q0 178 -244 178h-311zM641 1571l190 319h310l-260 -319h-240z" />
    <glyph glyph-name="racute" unicode="&#x155;" horiz-adv-x="829" 
d="M92 0l111 1049h246l-13 -113q57 66 134.5 101.5t162.5 35.5q55 0 107 -14l-29 -228q-68 11 -98 11q-88 0 -166.5 -41t-136.5 -119l-72 -682h-246zM385 1200l180 301h293l-246 -301h-227z" />
    <glyph glyph-name="uni0156" unicode="&#x156;" horiz-adv-x="1415" 
d="M117 0l149 1434h590q212 0 339.5 -109t127.5 -293q0 -194 -107 -321t-292 -166l356 -545h-301l-336 530h-213l-55 -530h-258zM457 770h313q136 0 211.5 61.5t75.5 182.5q0 178 -244 178h-311zM467 -283q0 61 46 100.5t110 39.5q67 0 110 -44.5t43 -117.5
q0 -57 -28 -123.5t-70 -114.5h-141q62 74 79 144q-6 -2 -22 -2q-59 0 -93 33t-34 85z" />
    <glyph glyph-name="uni0157" unicode="&#x157;" horiz-adv-x="829" 
d="M92 0l111 1049h246l-13 -113q57 66 134.5 101.5t162.5 35.5q55 0 107 -14l-29 -228q-68 11 -98 11q-88 0 -166.5 -41t-136.5 -119l-72 -682h-246zM33 -283q0 61 46 100.5t109 39.5q67 0 110.5 -44.5t43.5 -117.5q0 -57 -28 -123.5t-70 -114.5h-142q63 76 80 144
q-6 -2 -22 -2q-59 0 -93 33t-34 85z" />
    <glyph glyph-name="Rcaron" unicode="&#x158;" horiz-adv-x="1415" 
d="M117 0l149 1434h590q212 0 339.5 -109t127.5 -293q0 -194 -107 -321t-292 -166l356 -545h-301l-336 530h-213l-55 -530h-258zM457 770h313q136 0 211.5 61.5t75.5 182.5q0 178 -244 178h-311zM467 1890h221l121 -172l158 172h235l-278 -319h-246z" />
    <glyph glyph-name="rcaron" unicode="&#x159;" horiz-adv-x="829" 
d="M92 0l111 1049h246l-13 -113q57 66 134.5 101.5t162.5 35.5q55 0 107 -14l-29 -228q-68 11 -98 11q-88 0 -166.5 -41t-136.5 -119l-72 -682h-246zM244 1501h205l94 -149l125 149h217l-252 -301h-203z" />
    <glyph glyph-name="Sacute" unicode="&#x15a;" horiz-adv-x="1236" 
d="M586 -25q-158 0 -301.5 49.5t-245.5 141.5l151 203q196 -158 414 -158q129 0 212 58t83 157q0 60 -46 102t-148 68l-246 61q-154 37 -236 124.5t-82 213.5q0 140 74 246.5t200.5 161.5t284.5 55q149 0 280 -51.5t226 -149.5l-170 -180q-145 148 -352 148
q-123 0 -202 -53.5t-79 -145.5q0 -56 46 -94.5t155 -65.5l246 -61q154 -37 233.5 -124t79.5 -218q0 -151 -74 -262.5t-203.5 -168.5t-299.5 -57zM573 1571l191 319h309l-260 -319h-240z" />
    <glyph glyph-name="sacute" unicode="&#x15b;" horiz-adv-x="1048" 
d="M494 -25q-132 0 -252 41.5t-203 112.5l135 184q151 -127 338 -127q89 0 141 34t52 89q0 75 -136 109l-174 41q-141 33 -205.5 98t-64.5 164q0 160 124.5 256t317.5 96q126 0 238.5 -40.5t189.5 -112.5l-141 -175q-138 117 -303 117q-81 0 -130.5 -30.5t-49.5 -83.5
q0 -35 30 -59t105 -42l176 -41q140 -33 205 -98.5t65 -167.5q0 -170 -127 -267.5t-331 -97.5zM449 1198l180 301h293l-246 -301h-227z" />
    <glyph glyph-name="Scircumflex" unicode="&#x15c;" horiz-adv-x="1236" 
d="M586 -25q-158 0 -301.5 49.5t-245.5 141.5l151 203q196 -158 414 -158q129 0 212 58t83 157q0 60 -46 102t-148 68l-246 61q-154 37 -236 124.5t-82 213.5q0 140 74 246.5t200.5 161.5t284.5 55q149 0 280 -51.5t226 -149.5l-170 -180q-145 148 -352 148
q-123 0 -202 -53.5t-79 -145.5q0 -56 46 -94.5t155 -65.5l246 -61q154 -37 233.5 -124t79.5 -218q0 -151 -74 -262.5t-203.5 -168.5t-299.5 -57zM365 1571l280 319h244l213 -319h-223l-121 170l-156 -170h-237z" />
    <glyph glyph-name="scircumflex" unicode="&#x15d;" horiz-adv-x="1048" 
d="M494 -25q-132 0 -252 41.5t-203 112.5l135 184q151 -127 338 -127q89 0 141 34t52 89q0 75 -136 109l-174 41q-141 33 -205.5 98t-64.5 164q0 160 124.5 256t317.5 96q126 0 238.5 -40.5t189.5 -112.5l-141 -175q-138 117 -303 117q-81 0 -130.5 -30.5t-49.5 -83.5
q0 -35 30 -59t105 -42l176 -41q140 -33 205 -98.5t65 -167.5q0 -170 -127 -267.5t-331 -97.5zM240 1198l272 301h231l207 -301h-217l-112 162l-150 -162h-231z" />
    <glyph glyph-name="Scedilla" unicode="&#x15e;" horiz-adv-x="1236" 
d="M238 -375l231 357q-125 15 -236 62.5t-194 121.5l151 203q196 -158 414 -158q129 0 212 58t83 157q0 60 -46 102t-148 68l-246 61q-154 37 -236 124.5t-82 213.5q0 140 74 246.5t200.5 161.5t284.5 55q149 0 280 -51.5t226 -149.5l-170 -180q-145 148 -352 148
q-123 0 -202 -53.5t-79 -145.5q0 -56 46 -94.5t155 -65.5l246 -61q154 -37 233.5 -124t79.5 -218q0 -203 -129 -329.5t-346 -151.5l-170 -357h-280z" />
    <glyph glyph-name="scedilla" unicode="&#x15f;" horiz-adv-x="1048" 
d="M176 -336l207 320q-208 28 -344 145l135 184q151 -127 338 -127q89 0 141 34t52 89q0 75 -136 109l-174 41q-141 33 -205.5 98t-64.5 164q0 160 124.5 256t317.5 96q126 0 238.5 -40.5t189.5 -112.5l-141 -175q-138 117 -303 117q-81 0 -130.5 -30.5t-49.5 -83.5
q0 -35 30 -59t105 -42l176 -41q140 -33 205 -98.5t65 -167.5q0 -150 -99.5 -243.5t-266.5 -114.5l-152 -318h-258z" />
    <glyph glyph-name="Scaron" unicode="&#x160;" horiz-adv-x="1236" 
d="M586 -25q-158 0 -301.5 49.5t-245.5 141.5l151 203q196 -158 414 -158q129 0 212 58t83 157q0 60 -46 102t-148 68l-246 61q-154 37 -236 124.5t-82 213.5q0 140 74 246.5t200.5 161.5t284.5 55q149 0 280 -51.5t226 -149.5l-170 -180q-145 148 -352 148
q-123 0 -202 -53.5t-79 -145.5q0 -56 46 -94.5t155 -65.5l246 -61q154 -37 233.5 -124t79.5 -218q0 -151 -74 -262.5t-203.5 -168.5t-299.5 -57zM399 1890h222l120 -172l158 172h236l-279 -319h-246z" />
    <glyph glyph-name="scaron" unicode="&#x161;" horiz-adv-x="1048" 
d="M494 -25q-132 0 -252 41.5t-203 112.5l135 184q151 -127 338 -127q89 0 141 34t52 89q0 75 -136 109l-174 41q-141 33 -205.5 98t-64.5 164q0 160 124.5 256t317.5 96q126 0 238.5 -40.5t189.5 -112.5l-141 -175q-138 117 -303 117q-81 0 -130.5 -30.5t-49.5 -83.5
q0 -35 30 -59t105 -42l176 -41q140 -33 205 -98.5t65 -167.5q0 -170 -127 -267.5t-331 -97.5zM272 1499h217l113 -162l150 162h231l-272 -301h-232z" />
    <glyph glyph-name="uni0162" unicode="&#x162;" horiz-adv-x="1259" 
d="M444 0l125 1192h-452l24 242h1168l-25 -242h-457l-122 -1192h-261zM391 -283q0 61 46 100.5t110 39.5q67 0 110 -44.5t43 -117.5q0 -57 -28 -123.5t-70 -114.5h-141q63 76 80 144q-6 -2 -23 -2q-59 0 -93 33t-34 85z" />
    <glyph glyph-name="uni0163" unicode="&#x163;" horiz-adv-x="907" 
d="M567 -20q-185 0 -274 100.5t-68 306.5l47 447h-215l23 215h215l27 249h245l-26 -249h333l-22 -215h-334l-43 -418q-12 -111 22 -161t124 -50q72 0 161 28l31 -208q-107 -45 -246 -45zM281 -283q0 61 46 100.5t109 39.5q67 0 110.5 -44.5t43.5 -117.5q0 -57 -28 -123.5
t-70 -114.5h-142q63 76 80 144q-6 -2 -22 -2q-59 0 -93 33t-34 85z" />
    <glyph glyph-name="Tcaron" unicode="&#x164;" horiz-adv-x="1259" 
d="M444 0l125 1192h-452l24 242h1168l-25 -242h-457l-122 -1192h-261zM406 1890h221l121 -172l157 172h236l-279 -319h-246z" />
    <glyph glyph-name="tcaron" unicode="&#x165;" horiz-adv-x="907" 
d="M567 -20q-185 0 -274 100.5t-68 306.5l47 447h-215l23 215h215l27 249h245l-26 -249h333l-22 -215h-334l-43 -418q-12 -111 22 -161t124 -50q72 0 161 28l31 -208q-107 -45 -246 -45zM680 1503q0 57 41.5 92t99.5 35q61 0 100.5 -40.5t39.5 -106.5q0 -51 -26 -111
t-65 -104h-127q55 67 72 131q-6 -2 -20 -2q-53 0 -84 30t-31 76z" />
    <glyph glyph-name="Tbar" unicode="&#x166;" horiz-adv-x="1259" 
d="M444 0l66 612h-244l21 201h243l39 379h-452l24 242h1168l-25 -242h-457l-39 -379h244l-20 -201h-244l-63 -612h-261z" />
    <glyph glyph-name="tbar" unicode="&#x167;" horiz-adv-x="931" 
d="M41 469l16 158h205l23 207h-215l22 215h215l27 249h246l-27 -249h334l-23 -215h-334l-20 -207h301l-16 -158h-301l-7 -53q-12 -111 22 -161t124 -50q73 0 162 28l30 -208q-107 -45 -245 -45q-185 0 -274 100.5t-68 306.5l8 82h-205z" />
    <glyph glyph-name="Utilde" unicode="&#x168;" horiz-adv-x="1509" 
d="M702 -25q-281 0 -426 156t-116 442l90 861h260l-88 -834q-20 -191 58 -286t243 -95q164 0 262.5 95.5t118.5 285.5l88 834h258l-90 -861q-29 -286 -203 -442t-455 -156zM506 1655q21 109 87 168t155 59q34 0 68 -11.5t50 -21t47 -30.5q60 -43 97 -43q54 0 82 86l168 -52
q-21 -109 -88 -168t-156 -59q-34 0 -67.5 11.5t-51.5 22.5t-47 32q-2 1 -14 9t-14.5 9.5l-12.5 7.5t-14 7.5l-12 4.5t-15 4t-14 1q-54 0 -82 -86z" />
    <glyph glyph-name="utilde" unicode="&#x169;" horiz-adv-x="1251" 
d="M479 -25q-186 0 -281 114.5t-73 320.5l68 639h245l-61 -586q-13 -130 35 -196t153 -66q152 0 273 127l75 721h246l-110 -1049h-246l8 86q-145 -111 -332 -111zM354 1280q21 100 83 156.5t143 56.5q74 0 157 -59q55 -41 90 -41q46 0 74 82l158 -48q-23 -101 -83.5 -158
t-141.5 -57q-32 0 -63.5 10.5t-49.5 21.5t-45 30q-60 39 -90 39q-47 0 -74 -80z" />
    <glyph glyph-name="Umacron" unicode="&#x16a;" horiz-adv-x="1509" 
d="M702 -25q-281 0 -426 156t-116 442l90 861h260l-88 -834q-20 -191 58 -286t243 -95q164 0 262.5 95.5t118.5 285.5l88 834h258l-90 -861q-29 -286 -203 -442t-455 -156zM569 1618l21 197h600l-19 -197h-602z" />
    <glyph glyph-name="umacron" unicode="&#x16b;" horiz-adv-x="1251" 
d="M479 -25q-186 0 -281 114.5t-73 320.5l68 639h245l-61 -586q-13 -130 35 -196t153 -66q152 0 273 127l75 721h246l-110 -1049h-246l8 86q-145 -111 -332 -111zM412 1243l20 184h567l-20 -184h-567z" />
    <glyph glyph-name="Ubreve" unicode="&#x16c;" horiz-adv-x="1509" 
d="M702 -25q-281 0 -426 156t-116 442l90 861h260l-88 -834q-20 -191 58 -286t243 -95q164 0 262.5 95.5t118.5 285.5l88 834h258l-90 -861q-29 -286 -203 -442t-455 -156zM580 1884h198q-15 -155 103 -155q115 0 133 155h198q-15 -156 -104.5 -235.5t-241.5 -79.5
q-150 0 -225.5 81t-60.5 234z" />
    <glyph glyph-name="ubreve" unicode="&#x16d;" horiz-adv-x="1251" 
d="M479 -25q-186 0 -281 114.5t-73 320.5l68 639h245l-61 -586q-13 -130 35 -196t153 -66q152 0 273 127l75 721h246l-110 -1049h-246l8 86q-145 -111 -332 -111zM424 1495h186q-14 -145 97 -145q110 0 127 145h188q-17 -147 -103.5 -222t-226.5 -75q-141 0 -212 76.5
t-56 220.5z" />
    <glyph glyph-name="Uring" unicode="&#x16e;" horiz-adv-x="1509" 
d="M702 -25q-281 0 -426 156t-116 442l90 861h260l-88 -834q-20 -191 58 -286t243 -95q164 0 262.5 95.5t118.5 285.5l88 834h258l-90 -861q-29 -286 -203 -442t-455 -156zM606 1704q0 99 73.5 168.5t180.5 69.5q94 0 158.5 -59t64.5 -144q0 -100 -74.5 -169t-181.5 -69
q-94 0 -157.5 58.5t-63.5 144.5zM760 1710q0 -34 20.5 -54t55.5 -20q41 0 68.5 27.5t27.5 67.5q0 34 -21.5 54.5t-56.5 20.5q-41 0 -67.5 -27.5t-26.5 -68.5z" />
    <glyph glyph-name="uring" unicode="&#x16f;" horiz-adv-x="1251" 
d="M479 -25q-186 0 -281 114.5t-73 320.5l68 639h245l-61 -586q-13 -130 35 -196t153 -66q152 0 273 127l75 721h246l-110 -1049h-246l8 86q-145 -111 -332 -111zM477 1378q0 98 73 167t179 69q91 0 155 -58.5t64 -142.5q0 -98 -74 -166.5t-180 -68.5q-92 0 -154.5 57.5
t-62.5 142.5zM629 1386q0 -34 19.5 -53.5t53.5 -19.5q41 0 68 26t27 66q0 34 -20.5 55t-55.5 21q-41 0 -66.5 -26.5t-25.5 -68.5z" />
    <glyph glyph-name="Uhungarumlaut" unicode="&#x170;" horiz-adv-x="1509" 
d="M702 -25q-281 0 -426 156t-116 442l90 861h260l-88 -834q-20 -191 58 -286t243 -95q164 0 262.5 95.5t118.5 285.5l88 834h258l-90 -861q-29 -286 -203 -442t-455 -156zM516 1571l170 319h256l-223 -319h-203zM899 1571l174 319h252l-221 -319h-205z" />
    <glyph glyph-name="uhungarumlaut" unicode="&#x171;" horiz-adv-x="1251" 
d="M479 -25q-186 0 -281 114.5t-73 320.5l68 639h245l-61 -586q-13 -130 35 -196t153 -66q152 0 273 127l75 721h246l-110 -1049h-246l8 86q-145 -111 -332 -111zM365 1200l163 301h240l-211 -301h-192zM727 1200l164 301h237l-208 -301h-193z" />
    <glyph glyph-name="Uogonek" unicode="&#x172;" horiz-adv-x="1509" 
d="M756 -469q-112 0 -177 53.5t-65 143.5q0 74 40 137.5t110 109.5q-263 12 -397 167.5t-107 430.5l90 861h260l-88 -834q-20 -191 58 -286t243 -95q164 0 262.5 95.5t118.5 285.5l88 834h258l-90 -861q-23 -226 -139.5 -372.5t-307.5 -198.5q-85 -58 -129.5 -107
t-44.5 -104q0 -61 84 -61q34 0 68 10l-21 -197q-52 -12 -114 -12z" />
    <glyph glyph-name="uogonek" unicode="&#x173;" horiz-adv-x="1251" 
d="M479 -25q-186 0 -281 114.5t-73 320.5l68 639h245l-61 -586q-13 -130 35 -196t153 -66q152 0 273 127l75 721h246l-110 -1049q-80 -54 -125 -102t-45 -97q0 -59 79 -59q33 0 66 8l-20 -184q-50 -12 -107 -12q-105 0 -167 50.5t-62 135.5q0 82 49.5 148.5t134.5 111.5h-49
l8 86q-145 -111 -332 -111z" />
    <glyph glyph-name="Wcircumflex" unicode="&#x174;" horiz-adv-x="2177" 
d="M426 0l-285 1434h267l202 -1037l455 1037h233l238 -1037l420 1037h270l-586 -1434h-258l-237 1061l-461 -1061h-258zM829 1571l281 319h244l213 -319h-224l-120 170l-156 -170h-238z" />
    <glyph glyph-name="wcircumflex" unicode="&#x175;" horiz-adv-x="1806" 
d="M330 0l-242 1049h258l156 -717l338 717h233l184 -721l310 721h262l-465 -1049h-252l-186 737l-342 -737h-254zM618 1200l273 301h231l207 -301h-217l-113 162l-149 -162h-232z" />
    <glyph glyph-name="Ycircumflex" unicode="&#x176;" horiz-adv-x="1333" 
d="M481 0l60 563l-437 871h285l303 -615l432 615h295l-618 -871l-60 -563h-260zM408 1571l280 319h244l213 -319h-223l-121 170l-156 -170h-237z" />
    <glyph glyph-name="ycircumflex" unicode="&#x177;" horiz-adv-x="1185" 
d="M176 -446l246 475l-348 1020h270l234 -719l370 719h275l-774 -1495h-273zM313 1200l273 301h231l207 -301h-217l-113 162l-149 -162h-232z" />
    <glyph glyph-name="Ydieresis" unicode="&#x178;" horiz-adv-x="1333" 
d="M481 0l60 563l-437 871h285l303 -615l432 615h295l-618 -871l-60 -563h-260zM412 1718q0 71 49.5 121.5t122.5 50.5q60 0 98.5 -39.5t38.5 -101.5q0 -72 -48.5 -121t-119.5 -49q-60 0 -100.5 40t-40.5 99zM864 1718q0 71 49.5 121.5t122.5 50.5q59 0 98.5 -40t39.5 -101
q0 -72 -48.5 -121t-119.5 -49q-60 0 -101 40t-41 99z" />
    <glyph glyph-name="Zacute" unicode="&#x179;" horiz-adv-x="1257" 
d="M45 0l21 199l811 993h-695l25 242h1032l-20 -199l-811 -993h720l-26 -242h-1057zM580 1571l190 319h309l-260 -319h-239z" />
    <glyph glyph-name="zacute" unicode="&#x17a;" horiz-adv-x="1042" 
d="M27 0l18 174l598 657h-522l24 218h863l-17 -175l-600 -657h537l-23 -217h-878zM446 1200l181 301h293l-246 -301h-228z" />
    <glyph glyph-name="Zdotaccent" unicode="&#x17b;" horiz-adv-x="1257" 
d="M45 0l21 199l811 993h-695l25 242h1032l-20 -199l-811 -993h720l-26 -242h-1057zM596 1718q0 74 50.5 124t125.5 50q63 0 104.5 -40t41.5 -101q0 -76 -51 -125t-126 -49q-62 0 -103.5 40t-41.5 101z" />
    <glyph glyph-name="zdotaccent" unicode="&#x17c;" horiz-adv-x="1042" 
d="M27 0l18 174l598 657h-522l24 218h863l-17 -175l-600 -657h537l-23 -217h-878zM455 1339q0 69 49 117.5t121 48.5q60 0 99.5 -38t39.5 -95q0 -73 -49.5 -120.5t-120.5 -47.5q-59 0 -99 38.5t-40 96.5z" />
    <glyph glyph-name="Zcaron" unicode="&#x17d;" horiz-adv-x="1257" 
d="M45 0l21 199l811 993h-695l25 242h1032l-20 -199l-811 -993h720l-26 -242h-1057zM406 1890h221l121 -172l157 172h236l-279 -319h-246z" />
    <glyph glyph-name="zcaron" unicode="&#x17e;" horiz-adv-x="1042" 
d="M27 0l18 174l598 657h-522l24 218h863l-17 -175l-600 -657h537l-23 -217h-878zM270 1501h217l113 -162l150 162h231l-272 -301h-232z" />
    <glyph glyph-name="florin" unicode="&#x192;" horiz-adv-x="980" 
d="M123 -25q-69 0 -121 17l23 213q37 -6 69 -6q75 0 118.5 35.5t70.5 127.5l102 349h-213l16 170h248l78 266q90 311 385 311q69 0 121 -16l-25 -213q-35 6 -69 6q-74 0 -117 -35.5t-70 -128.5l-55 -190h250l-16 -170h-285l-125 -424q-47 -163 -139 -237.5t-246 -74.5z" />
    <glyph glyph-name="uni01CD" unicode="&#x1cd;" horiz-adv-x="1460" 
d="M-33 0l711 1434h295l409 -1434h-270l-92 332h-614l-162 -332h-277zM506 1890h221l121 -172l158 172h235l-278 -319h-246zM514 555h444l-161 584z" />
    <glyph glyph-name="uni01CE" unicode="&#x1ce;" horiz-adv-x="1300" 
d="M547 -25q-200 0 -333.5 137t-133.5 349q0 163 75 303.5t207.5 224.5t290.5 84q182 0 301 -110l9 86h245l-110 -1049h-246l8 80q-133 -105 -313 -105zM332 481q0 -127 76 -203.5t198 -76.5q77 0 151.5 32t129.5 93l41 395q-43 61 -110 93t-144 32q-150 0 -246 -103.5
t-96 -261.5zM414 1501h217l112 -162l150 162h231l-272 -301h-231z" />
    <glyph glyph-name="uni01E2" unicode="&#x1e2;" horiz-adv-x="2265" 
d="M-49 0l1139 1434h1151l-25 -240h-748l-34 -332h651l-27 -237h-651l-41 -385h750l-27 -240h-1006l37 356h-561l-283 -356h-325zM735 580h410l61 596zM1321 1618l20 197h601l-19 -197h-602z" />
    <glyph glyph-name="uni01E3" unicode="&#x1e3;" horiz-adv-x="2007" 
d="M446 -25q-184 0 -288.5 84.5t-104.5 223.5q0 159 128.5 253.5t342.5 94.5h328l2 24q11 100 -45.5 153.5t-175.5 53.5q-182 0 -363 -145l-123 168q207 188 496 188q137 0 235.5 -41.5t147.5 -120.5q173 162 422 162q213 0 346 -122.5t133 -329.5q0 -65 -20 -158h-830
q1 -133 76 -205t209 -72q188 0 326 150l167 -131q-195 -230 -507 -230q-135 0 -242 45.5t-174 129.5q-199 -175 -486 -175zM303 303q0 -59 50 -93t139 -34q205 0 356 148q-14 55 -14 125v2h-318q-100 0 -156.5 -41.5t-56.5 -106.5zM791 1243l20 184h567l-20 -184h-567z
M1110 647h576q-7 108 -73 163.5t-179 55.5q-118 0 -202 -59t-122 -160z" />
    <glyph glyph-name="Gcaron" unicode="&#x1e6;" horiz-adv-x="1589" 
d="M795 -25q-204 0 -360.5 82.5t-241 230t-84.5 337.5q0 173 63 327.5t171 265.5t259 175.5t320 64.5q179 0 327 -72t238 -206l-232 -144q-55 86 -147 132t-203 46q-152 0 -274 -75.5t-189 -205t-67 -286.5q0 -198 121.5 -313t330.5 -115q205 0 367 96l31 293h-336l24 226
h580l-72 -662q-266 -197 -626 -197zM600 1890h221l121 -172l158 172h235l-278 -319h-246z" />
    <glyph glyph-name="gcaron" unicode="&#x1e7;" horiz-adv-x="1300" 
d="M518 -471q-150 0 -279 51t-212 144l157 180q164 -150 342 -150q139 0 226.5 73.5t101.5 199.5l8 88q-133 -105 -313 -105q-201 0 -334 134.5t-133 342.5q0 157 75 291.5t206 214.5t286 80q181 0 303 -110l9 86h245l-106 -1022q-26 -235 -178 -366.5t-404 -131.5zM332 504
q0 -122 76.5 -197.5t197.5 -75.5q76 0 150 31.5t133 91.5l39 371q-45 60 -113 91.5t-145 31.5q-146 0 -242 -100.5t-96 -243.5zM383 1501h217l113 -162l149 162h232l-273 -301h-231z" />
    <glyph glyph-name="uni01E8" unicode="&#x1e8;" horiz-adv-x="1478" 
d="M117 0l149 1434h260l-73 -691l731 691h336l-682 -650l563 -784h-320l-436 602l-229 -217l-41 -385h-258zM520 1890h221l121 -172l158 172h235l-278 -319h-246z" />
    <glyph glyph-name="uni01E9" unicode="&#x1e9;" horiz-adv-x="1232" 
d="M92 0l160 1511h246l-97 -919l525 457h319l-512 -453l430 -596h-295l-313 436l-188 -166l-29 -270h-246zM68 1964h217l112 -162l150 162h231l-272 -301h-232z" />
    <glyph glyph-name="AEacute" unicode="&#x1fc;" horiz-adv-x="2265" 
d="M-49 0l1139 1434h1151l-25 -240h-748l-34 -332h651l-27 -237h-651l-41 -385h750l-27 -240h-1006l37 356h-561l-283 -356h-325zM735 580h410l61 596zM1456 1571l191 319h309l-260 -319h-240z" />
    <glyph glyph-name="aeacute" unicode="&#x1fd;" horiz-adv-x="2007" 
d="M446 -25q-184 0 -288.5 84.5t-104.5 223.5q0 159 128.5 253.5t342.5 94.5h328l2 24q11 100 -45.5 153.5t-175.5 53.5q-182 0 -363 -145l-123 168q207 188 496 188q137 0 235.5 -41.5t147.5 -120.5q173 162 422 162q213 0 346 -122.5t133 -329.5q0 -65 -20 -158h-830
q1 -133 76 -205t209 -72q188 0 326 150l167 -131q-195 -230 -507 -230q-135 0 -242 45.5t-174 129.5q-199 -175 -486 -175zM303 303q0 -59 50 -93t139 -34q205 0 356 148q-14 55 -14 125v2h-318q-100 0 -156.5 -41.5t-56.5 -106.5zM924 1200l180 301h293l-246 -301h-227z
M1110 647h576q-7 108 -73 163.5t-179 55.5q-118 0 -202 -59t-122 -160z" />
    <glyph glyph-name="Oslashacute" unicode="&#x1fe;" horiz-adv-x="1665" 
d="M780 -25q-197 0 -358 93l-150 -177l-147 125l147 172q-161 182 -161 443q0 170 63.5 323t171.5 263.5t259 175.5t319 65q199 0 358 -92l150 176l149 -125l-147 -174q161 -178 161 -444q0 -169 -63.5 -321.5t-172 -262.5t-260 -175t-319.5 -65zM369 649q0 -154 75 -264
l678 791q-96 49 -215 49q-153 0 -277 -77t-192.5 -209t-68.5 -290zM586 260q94 -51 213 -51q152 0 276 77.5t193 208.5t69 287q0 160 -75 267zM782 1571l191 319h309l-260 -319h-240z" />
    <glyph glyph-name="oslashacute" unicode="&#x1ff;" horiz-adv-x="1280" 
d="M590 -25q-143 0 -262 64l-111 -131l-123 102l109 127q-123 132 -123 328q0 125 47 237.5t127.5 193.5t194 129t241.5 48q145 0 262 -63l109 127l123 -101l-107 -123q123 -136 123 -329q0 -167 -79 -306.5t-219.5 -221t-311.5 -81.5zM317 481q0 -99 48 -172l448 522
q-60 31 -137 31q-155 0 -257 -111t-102 -270zM467 217q60 -31 137 -31q155 0 257 111t102 270q0 99 -48 172zM565 1200l180 301h293l-245 -301h-228z" />
    <glyph glyph-name="uni0218" unicode="&#x218;" horiz-adv-x="1236" 
d="M586 -25q-158 0 -301.5 49.5t-245.5 141.5l151 203q196 -158 414 -158q129 0 212 58t83 157q0 60 -46 102t-148 68l-246 61q-154 37 -236 124.5t-82 213.5q0 140 74 246.5t200.5 161.5t284.5 55q149 0 280 -51.5t226 -149.5l-170 -180q-145 148 -352 148
q-123 0 -202 -53.5t-79 -145.5q0 -56 46 -94.5t155 -65.5l246 -61q154 -37 233.5 -124t79.5 -218q0 -151 -74 -262.5t-203.5 -168.5t-299.5 -57zM399 -283q0 61 46 100.5t110 39.5q67 0 110.5 -44.5t43.5 -117.5q0 -57 -28 -123t-71 -115h-141q63 76 80 144q-6 -2 -23 -2
q-59 0 -93 33t-34 85z" />
    <glyph glyph-name="uni0219" unicode="&#x219;" horiz-adv-x="1048" 
d="M494 -25q-132 0 -252 41.5t-203 112.5l135 184q151 -127 338 -127q89 0 141 34t52 89q0 75 -136 109l-174 41q-141 33 -205.5 98t-64.5 164q0 160 124.5 256t317.5 96q126 0 238.5 -40.5t189.5 -112.5l-141 -175q-138 117 -303 117q-81 0 -130.5 -30.5t-49.5 -83.5
q0 -35 30 -59t105 -42l176 -41q140 -33 205 -98.5t65 -167.5q0 -170 -127 -267.5t-331 -97.5zM301 -283q0 61 46 100.5t110 39.5q67 0 110 -44.5t43 -117.5q0 -57 -28 -123.5t-70 -114.5h-141q63 76 80 144q-6 -2 -23 -2q-59 0 -93 33t-34 85z" />
    <glyph glyph-name="uni021A" unicode="&#x21a;" horiz-adv-x="1259" 
d="M444 0l125 1192h-452l24 242h1168l-25 -242h-457l-122 -1192h-261zM391 -283q0 61 46 100.5t110 39.5q67 0 110 -44.5t43 -117.5q0 -57 -28 -123.5t-70 -114.5h-141q63 76 80 144q-6 -2 -23 -2q-59 0 -93 33t-34 85z" />
    <glyph glyph-name="uni021B" unicode="&#x21b;" horiz-adv-x="907" 
d="M567 -20q-185 0 -274 100.5t-68 306.5l47 447h-215l23 215h215l27 249h245l-26 -249h333l-22 -215h-334l-43 -418q-12 -111 22 -161t124 -50q72 0 161 28l31 -208q-107 -45 -246 -45zM281 -283q0 61 46 100.5t109 39.5q67 0 110.5 -44.5t43.5 -117.5q0 -57 -28 -123.5
t-70 -114.5h-142q63 76 80 144q-6 -2 -22 -2q-59 0 -93 33t-34 85z" />
    <glyph glyph-name="uni0237" unicode="&#x237;" horiz-adv-x="540" 
d="M-68 -471q-109 0 -194 35l57 219q65 -21 119 -21q76 0 120 45.5t54 145.5l115 1096h246l-117 -1123q-22 -204 -119.5 -300.5t-280.5 -96.5z" />
    <glyph glyph-name="circumflex" unicode="&#x2c6;" horiz-adv-x="1228" 
d="M330 1200l272 301h232l206 -301h-217l-112 162l-150 -162h-231z" />
    <glyph glyph-name="caron" unicode="&#x2c7;" horiz-adv-x="1228" 
d="M569 1200l-207 301h218l112 -162l150 162h231l-272 -301h-232z" />
    <glyph glyph-name="breve" unicode="&#x2d8;" horiz-adv-x="1228" 
d="M686 1198q-141 0 -212 76.5t-56 220.5h186q-14 -145 96 -145t127 145h189q-17 -147 -103.5 -222t-226.5 -75z" />
    <glyph glyph-name="dotaccent" unicode="&#x2d9;" horiz-adv-x="1228" 
d="M686 1204q-59 0 -99 38.5t-40 96.5q0 69 49 117.5t121 48.5q60 0 99.5 -38t39.5 -95q0 -73 -49.5 -120.5t-120.5 -47.5z" />
    <glyph glyph-name="ring" unicode="&#x2da;" horiz-adv-x="1228" 
d="M688 1178q-92 0 -154.5 57.5t-62.5 142.5q0 98 73 167t179 69q91 0 155 -58.5t64 -142.5q0 -98 -74 -166.5t-180 -68.5zM623 1386q0 -34 19.5 -53.5t53.5 -19.5q41 0 68 26t27 66q0 34 -20.5 55t-55.5 21q-41 0 -66.5 -26.5t-25.5 -68.5z" />
    <glyph glyph-name="ogonek" unicode="&#x2db;" horiz-adv-x="1228" 
d="M584 -446q-106 0 -168 50.5t-62 135.5q0 108 84.5 189t216.5 116l80 -45q-80 -54 -125 -102t-45 -97q0 -59 80 -59q33 0 66 8l-21 -184q-50 -12 -106 -12z" />
    <glyph glyph-name="tilde" unicode="&#x2dc;" horiz-adv-x="1228" 
d="M350 1280q21 100 82.5 156.5t142.5 56.5q75 0 158 -59q55 -41 90 -41q46 0 74 82l158 -48q-23 -101 -84 -158t-142 -57q-32 0 -63 10.5t-49 21.5t-45 30q-60 39 -90 39q-47 0 -74 -80z" />
    <glyph glyph-name="hungarumlaut" unicode="&#x2dd;" horiz-adv-x="1228" 
d="M737 1200l164 301h238l-209 -301h-193zM375 1200l164 301h239l-211 -301h-192z" />
    <glyph glyph-name="gravecomb" unicode="&#x300;" 
d="M643 1200l-182 301h278l117 -301h-213z" />
    <glyph glyph-name="acutecomb" unicode="&#x301;" 
d="M498 1200l180 301h293l-246 -301h-227z" />
    <glyph glyph-name="uni0302" unicode="&#x302;" 
d="M330 1200l272 301h232l206 -301h-217l-112 162l-150 -162h-231z" />
    <glyph glyph-name="tildecomb" unicode="&#x303;" 
d="M350 1280q21 100 82.5 156.5t142.5 56.5q75 0 158 -59q55 -41 90 -41q46 0 74 82l158 -48q-23 -101 -84 -158t-142 -57q-32 0 -63 10.5t-49 21.5t-45 30q-60 39 -90 39q-47 0 -74 -80z" />
    <glyph glyph-name="uni0304" unicode="&#x304;" 
d="M406 1243l20 184h567l-20 -184h-567z" />
    <glyph glyph-name="uni0306" unicode="&#x306;" 
d="M686 1198q-141 0 -212 76.5t-56 220.5h186q-14 -145 96 -145t127 145h189q-17 -147 -103.5 -222t-226.5 -75z" />
    <glyph glyph-name="uni0307" unicode="&#x307;" 
d="M686 1204q-59 0 -99 38.5t-40 96.5q0 69 49 117.5t121 48.5q60 0 99.5 -38t39.5 -95q0 -73 -49.5 -120.5t-120.5 -47.5z" />
    <glyph glyph-name="uni0308" unicode="&#x308;" 
d="M477 1208q-57 0 -95 38t-38 95q0 67 47 113.5t115 46.5q57 0 93 -37t36 -94q0 -70 -45.5 -116t-112.5 -46zM768 1341q0 67 46 113.5t114 46.5q57 0 93 -37t36 -94q0 -70 -45 -116t-113 -46q-57 0 -94 38t-37 95z" />
    <glyph glyph-name="uni030A" unicode="&#x30a;" 
d="M688 1178q-92 0 -154.5 57.5t-62.5 142.5q0 98 73 167t179 69q91 0 155 -58.5t64 -142.5q0 -98 -74 -166.5t-180 -68.5zM623 1386q0 -34 19.5 -53.5t53.5 -19.5q41 0 68 26t27 66q0 34 -20.5 55t-55.5 21q-41 0 -66.5 -26.5t-25.5 -68.5z" />
    <glyph glyph-name="uni030B" unicode="&#x30b;" 
d="M737 1200l164 301h238l-209 -301h-193zM375 1200l164 301h239l-211 -301h-192z" />
    <glyph glyph-name="uni030C" unicode="&#x30c;" 
d="M569 1200l-207 301h218l112 -162l150 162h231l-272 -301h-232z" />
    <glyph glyph-name="uni0315" unicode="&#x315;" 
d="M539 983q123 100 157 193q-8 -2 -26 -2q-58 0 -93.5 36.5t-35.5 92.5q0 68 46.5 111.5t112.5 43.5q65 0 107.5 -48.5t42.5 -125.5q0 -106 -69 -204t-179 -177z" />
    <glyph glyph-name="uni0326" unicode="&#x326;" 
d="M446 -543q63 76 80 144q-6 -2 -22 -2q-59 0 -93 33t-34 85q0 61 46 100.5t109 39.5q67 0 110.5 -44.5t43.5 -117.5q0 -57 -28 -123.5t-70 -114.5h-142z" />
    <glyph glyph-name="uni0327" unicode="&#x327;" 
d="M250 -336l266 412h189l-197 -412h-258z" />
    <glyph glyph-name="uni0328" unicode="&#x328;" 
d="M584 -446q-106 0 -168 50.5t-62 135.5q0 108 84.5 189t216.5 116l80 -45q-80 -54 -125 -102t-45 -97q0 -59 80 -59q33 0 66 8l-21 -184q-50 -12 -106 -12z" />
    <glyph glyph-name="uni03BC" unicode="&#x3bc;" horiz-adv-x="1251" 
d="M657 -25q-190 0 -309 113l-57 -534h-246l158 1495h246l-76 -723q92 -125 245 -125q104 0 167 66.5t75 195.5l64 586h245l-67 -639q-22 -206 -139.5 -320.5t-305.5 -114.5z" />
    <glyph glyph-name="pi" unicode="&#x3c0;" horiz-adv-x="1261" 
d="M92 0l111 1049h915l-76 -717q-6 -61 17.5 -88t81.5 -27h47l-25 -217h-106q-152 0 -215.5 71t-48.5 222l55 532h-424l-86 -825h-246z" />
    <glyph glyph-name="uni1E20" unicode="&#x1e20;" horiz-adv-x="1589" 
d="M795 -25q-204 0 -360.5 82.5t-241 230t-84.5 337.5q0 173 63 327.5t171 265.5t259 175.5t320 64.5q179 0 327 -72t238 -206l-232 -144q-55 86 -147 132t-203 46q-152 0 -274 -75.5t-189 -205t-67 -286.5q0 -198 121.5 -313t330.5 -115q205 0 367 96l31 293h-336l24 226
h580l-72 -662q-266 -197 -626 -197zM639 1618l20 197h601l-19 -197h-602z" />
    <glyph glyph-name="uni1E21" unicode="&#x1e21;" horiz-adv-x="1300" 
d="M518 -471q-150 0 -279 51t-212 144l157 180q164 -150 342 -150q139 0 226.5 73.5t101.5 199.5l8 88q-133 -105 -313 -105q-201 0 -334 134.5t-133 342.5q0 157 75 291.5t206 214.5t286 80q181 0 303 -110l9 86h245l-106 -1022q-26 -235 -178 -366.5t-404 -131.5zM332 504
q0 -122 76.5 -197.5t197.5 -75.5q76 0 150 31.5t133 91.5l39 371q-45 60 -113 91.5t-145 31.5q-146 0 -242 -100.5t-96 -243.5zM426 1243l20 184h568l-21 -184h-567z" />
    <glyph glyph-name="uni1E30" unicode="&#x1e30;" horiz-adv-x="1478" 
d="M117 0l149 1434h260l-73 -691l731 691h336l-682 -650l563 -784h-320l-436 602l-229 -217l-41 -385h-258zM694 1571l191 319h309l-260 -319h-240z" />
    <glyph glyph-name="uni1E31" unicode="&#x1e31;" horiz-adv-x="1232" 
d="M92 0l160 1511h246l-97 -919l525 457h319l-512 -453l430 -596h-295l-313 436l-188 -166l-29 -270h-246zM244 1663l180 301h293l-246 -301h-227z" />
    <glyph glyph-name="uni1E3E" unicode="&#x1e3e;" horiz-adv-x="1976" 
d="M117 0l149 1434h316l387 -1061l606 1061h326l-152 -1434h-256l109 1018l-562 -977h-206l-355 977l-108 -1018h-254zM938 1571l190 319h310l-260 -319h-240z" />
    <glyph glyph-name="uni1E3F" unicode="&#x1e3f;" horiz-adv-x="1906" 
d="M1530 586q13 128 -32 194t-136 66q-139 0 -264 -131q0 -22 -4 -76l-68 -639h-246l62 586q13 128 -32 194t-136 66q-138 0 -260 -125l-76 -721h-246l111 1049h246l-11 -91q145 115 318 115q103 0 180.5 -43.5t118.5 -124.5q180 168 389 168q171 0 265 -115.5t73 -318.5
l-68 -639h-246zM879 1200l180 301h293l-246 -301h-227z" />
    <glyph glyph-name="uni1E40" unicode="&#x1e40;" horiz-adv-x="1976" 
d="M117 0l149 1434h316l387 -1061l606 1061h326l-152 -1434h-256l109 1018l-562 -977h-206l-355 977l-108 -1018h-254zM954 1718q0 74 50.5 124t125.5 50q63 0 104.5 -40t41.5 -101q0 -76 -51 -125t-125 -49q-62 0 -104 40t-42 101z" />
    <glyph glyph-name="uni1E41" unicode="&#x1e41;" horiz-adv-x="1906" 
d="M1530 586q13 128 -32 194t-136 66q-139 0 -264 -131q0 -22 -4 -76l-68 -639h-246l62 586q13 128 -32 194t-136 66q-138 0 -260 -125l-76 -721h-246l111 1049h246l-11 -91q145 115 318 115q103 0 180.5 -43.5t118.5 -124.5q180 168 389 168q171 0 265 -115.5t73 -318.5
l-68 -639h-246zM887 1339q0 69 49 117.5t121 48.5q60 0 99.5 -38t39.5 -95q0 -73 -49.5 -120.5t-120.5 -47.5q-59 0 -99 38.5t-40 96.5z" />
    <glyph glyph-name="uni1E44" unicode="&#x1e44;" horiz-adv-x="1581" 
d="M117 0l149 1434h256l619 -1020l106 1020h258l-151 -1434h-256l-615 1018l-108 -1018h-258zM758 1718q0 74 50.5 124t125.5 50q63 0 104 -40t41 -101q0 -76 -51 -125t-125 -49q-62 0 -103.5 40t-41.5 101z" />
    <glyph glyph-name="uni1E45" unicode="&#x1e45;" horiz-adv-x="1257" 
d="M881 575q13 133 -38 202t-157 69q-152 0 -272 -123l-76 -723h-246l111 1049h246l-11 -88q146 112 330 112q185 0 285.5 -118t79.5 -326l-68 -629h-246zM559 1339q0 69 49 117.5t121 48.5q60 0 99.5 -38t39.5 -95q0 -73 -49.5 -120.5t-120.5 -47.5q-59 0 -99 38.5
t-40 96.5z" />
    <glyph glyph-name="Wgrave" unicode="&#x1e80;" horiz-adv-x="2177" 
d="M426 0l-285 1434h267l202 -1037l455 1037h233l238 -1037l420 1037h270l-586 -1434h-258l-237 1061l-461 -1061h-258zM930 1890h291l125 -319h-222z" />
    <glyph glyph-name="wgrave" unicode="&#x1e81;" horiz-adv-x="1806" 
d="M330 0l-242 1049h258l156 -717l338 717h233l184 -721l310 721h262l-465 -1049h-252l-186 737l-342 -737h-254zM715 1501h278l117 -301h-213z" />
    <glyph glyph-name="Wacute" unicode="&#x1e82;" horiz-adv-x="2177" 
d="M426 0l-285 1434h267l202 -1037l455 1037h233l238 -1037l420 1037h270l-586 -1434h-258l-237 1061l-461 -1061h-258zM1038 1571l191 319h309l-260 -319h-240z" />
    <glyph glyph-name="wacute" unicode="&#x1e83;" horiz-adv-x="1806" 
d="M330 0l-242 1049h258l156 -717l338 717h233l184 -721l310 721h262l-465 -1049h-252l-186 737l-342 -737h-254zM827 1200l181 301h292l-245 -301h-228z" />
    <glyph glyph-name="Wdieresis" unicode="&#x1e84;" horiz-adv-x="2177" 
d="M426 0l-285 1434h267l202 -1037l455 1037h233l238 -1037l420 1037h270l-586 -1434h-258l-237 1061l-461 -1061h-258zM834 1718q0 71 49.5 121.5t122.5 50.5q60 0 98.5 -39.5t38.5 -101.5q0 -72 -48.5 -121t-119.5 -49q-60 0 -100.5 40t-40.5 99zM1286 1718
q0 71 49.5 121.5t122.5 50.5q59 0 98 -40t39 -101q0 -72 -48.5 -121t-119.5 -49q-60 0 -100.5 40t-40.5 99z" />
    <glyph glyph-name="wdieresis" unicode="&#x1e85;" horiz-adv-x="1806" 
d="M330 0l-242 1049h258l156 -717l338 717h233l184 -721l310 721h262l-465 -1049h-252l-186 737l-342 -737h-254zM633 1341q0 67 46.5 113.5t115.5 46.5q57 0 93 -37t36 -94q0 -70 -45.5 -116t-112.5 -46q-57 0 -95 38t-38 95zM1057 1341q0 67 46 113.5t114 46.5
q57 0 93 -37t36 -94q0 -70 -45 -116t-113 -46q-57 0 -94 38t-37 95z" />
    <glyph glyph-name="uni1E90" unicode="&#x1e90;" horiz-adv-x="1257" 
d="M45 0l21 199l811 993h-695l25 242h1032l-20 -199l-811 -993h720l-26 -242h-1057zM371 1571l280 319h244l213 -319h-223l-121 170l-156 -170h-237z" />
    <glyph glyph-name="uni1E91" unicode="&#x1e91;" horiz-adv-x="1042" 
d="M27 0l18 174l598 657h-522l24 218h863l-17 -175l-600 -657h537l-23 -217h-878zM238 1200l272 301h231l207 -301h-217l-113 162l-149 -162h-231z" />
    <glyph glyph-name="uni1E9E" unicode="&#x1e9e;" horiz-adv-x="1556" 
d="M913 -25q-136 0 -268 35l60 234q99 -27 200 -27q134 0 208.5 53t74.5 156q0 79 -74 118.5t-233 39.5h-86l22 209l305 354q-91 70 -250 70q-191 0 -298.5 -98.5t-131.5 -309.5l-84 -809h-258l88 842q32 303 208 459.5t476 156.5q184 0 333 -67.5t251 -194.5l-348 -414
q168 -26 257 -114t89 -230q0 -222 -144 -342.5t-397 -120.5z" />
    <glyph glyph-name="Ygrave" unicode="&#x1ef2;" horiz-adv-x="1333" 
d="M481 0l60 563l-437 871h285l303 -615l432 615h295l-618 -871l-60 -563h-260zM508 1890h291l125 -319h-222z" />
    <glyph glyph-name="ygrave" unicode="&#x1ef3;" horiz-adv-x="1185" 
d="M176 -446l246 475l-348 1020h270l234 -719l370 719h275l-774 -1495h-273zM410 1501h278l117 -301h-213z" />
    <glyph glyph-name="uni2000" unicode="&#x2000;" horiz-adv-x="1171" 
 />
    <glyph glyph-name="uni2001" unicode="&#x2001;" horiz-adv-x="1785" 
 />
    <glyph glyph-name="uni2002" unicode="&#x2002;" horiz-adv-x="1171" 
 />
    <glyph glyph-name="uni2003" unicode="&#x2003;" horiz-adv-x="1785" 
 />
    <glyph glyph-name="uni2009" unicode="&#x2009;" horiz-adv-x="307" 
 />
    <glyph glyph-name="uni200A" unicode="&#x200a;" horiz-adv-x="172" 
 />
    <glyph glyph-name="uni200B" unicode="&#x200b;" 
 />
    <glyph glyph-name="endash" unicode="&#x2013;" horiz-adv-x="1171" 
d="M74 522l22 217h1024l-22 -217h-1024z" />
    <glyph glyph-name="emdash" unicode="&#x2014;" horiz-adv-x="1785" 
d="M74 522l22 217h1639l-23 -217h-1638z" />
    <glyph glyph-name="quoteleft" unicode="&#x2018;" horiz-adv-x="473" 
d="M291 903q-68 0 -110 48t-42 126q0 107 70.5 208.5t177.5 172.5l64 -82q-116 -99 -150 -186h18q57 0 93.5 -38t36.5 -93q0 -69 -46 -112.5t-112 -43.5z" />
    <glyph glyph-name="quoteright" unicode="&#x2019;" horiz-adv-x="475" 
d="M319 1458q68 0 110 -48t42 -126q0 -107 -70.5 -208.5t-177.5 -172.5l-63 82q114 97 149 186h-18q-57 0 -93 38.5t-36 93.5q0 69 45.5 112t111.5 43z" />
    <glyph glyph-name="quotesinglbase" unicode="&#x201a;" horiz-adv-x="473" 
d="M197 287q68 0 109.5 -48t41.5 -126q0 -107 -70.5 -208.5t-177.5 -172.5l-63 82q114 97 149 186h-18q-57 0 -93 38t-36 93q0 69 46 112.5t112 43.5z" />
    <glyph glyph-name="quotedblleft" unicode="&#x201c;" horiz-adv-x="868" 
d="M291 903q-68 0 -110 48t-42 126q0 107 70.5 208.5t177.5 172.5l64 -82q-116 -99 -150 -186h18q57 0 93.5 -38t36.5 -93q0 -69 -46 -112.5t-112 -43.5zM535 1077q0 107 70 208.5t177 172.5l64 -82q-116 -99 -150 -186h19q57 0 93 -38t36 -93q0 -69 -46 -112.5t-112 -43.5
q-68 0 -109.5 48t-41.5 126z" />
    <glyph glyph-name="quotedblright" unicode="&#x201d;" horiz-adv-x="870" 
d="M717 1458q68 0 109.5 -48t41.5 -126q0 -107 -70 -208.5t-177 -172.5l-64 82q116 99 150 186h-19q-57 0 -93 38.5t-36 93.5q0 69 46 112t112 43zM160 985q114 97 149 186h-18q-57 0 -93 38.5t-36 93.5q0 69 45.5 112t111.5 43q68 0 110 -48t42 -126q0 -107 -70.5 -208.5
t-177.5 -172.5z" />
    <glyph glyph-name="quotedblbase" unicode="&#x201e;" horiz-adv-x="868" 
d="M592 287q68 0 109.5 -48t41.5 -126q0 -107 -70 -208.5t-177 -172.5l-64 82q116 99 150 186h-19q-57 0 -93 38t-36 93q0 69 46 112.5t112 43.5zM37 -186q114 97 149 186h-18q-57 0 -93 38t-36 93q0 69 46 112.5t112 43.5q68 0 109.5 -48t41.5 -126q0 -107 -70.5 -208.5
t-177.5 -172.5z" />
    <glyph glyph-name="dagger" unicode="&#x2020;" horiz-adv-x="1060" 
d="M332 -262l114 1093h-329l22 226h330l49 463h234l-50 -463h330l-22 -226h-332l-115 -1093h-231z" />
    <glyph glyph-name="daggerdbl" unicode="&#x2021;" horiz-adv-x="1101" 
d="M352 -262l49 479h-288l24 225h289l41 389h-330l23 226h329l50 463h233l-49 -463h330l-23 -226h-332l-41 -389h291l-24 -225h-289l-51 -479h-232z" />
    <glyph glyph-name="bullet" unicode="&#x2022;" horiz-adv-x="1054" 
d="M547 385q-139 0 -232.5 94.5t-93.5 231.5q0 138 93.5 231.5t232.5 93.5t232 -93.5t93 -231.5q0 -137 -93 -231.5t-232 -94.5z" />
    <glyph glyph-name="ellipsis" unicode="&#x2026;" horiz-adv-x="1517" 
d="M193 -16q-66 0 -109 42t-43 107q0 79 53.5 132.5t132.5 53.5q63 0 106.5 -43.5t43.5 -105.5q0 -82 -51 -134t-133 -52zM553 133q0 79 53.5 132.5t132.5 53.5q63 0 106.5 -43.5t43.5 -105.5q0 -82 -51 -134t-133 -52q-66 0 -109 42t-43 107zM1063 133q0 79 53.5 132.5
t132.5 53.5q63 0 106.5 -43.5t43.5 -105.5q0 -82 -51.5 -134t-133.5 -52q-66 0 -108.5 42t-42.5 107z" />
    <glyph glyph-name="perthousand" unicode="&#x2030;" horiz-adv-x="2684" 
d="M2191 -25q-150 0 -249 95t-99 241q0 169 120 289.5t290 120.5q150 0 248 -95.5t98 -242.5q0 -167 -119.5 -287.5t-288.5 -120.5zM125 1051q0 168 120 287.5t290 119.5q150 0 248 -95.5t98 -242.5q0 -167 -119.5 -287t-290.5 -120q-148 0 -247 96t-99 242zM287 0
l1065 1434h235l-1065 -1434h-235zM324 1061q0 -74 43 -120t116 -46q90 0 144.5 61.5t54.5 153.5q0 76 -42.5 121t-115.5 45q-91 0 -145.5 -62t-54.5 -153zM993 311q0 169 119.5 289.5t290.5 120.5q148 0 246 -95.5t98 -242.5q0 -167 -119 -287.5t-289 -120.5q-150 0 -248 95
t-98 241zM1190 324q0 -74 43.5 -120t116.5 -46q90 0 145 61.5t55 151.5q0 77 -43 122.5t-116 45.5q-91 0 -146 -62t-55 -153zM2042 324q0 -74 43.5 -120t116.5 -46q90 0 144 61t54 152q0 77 -42 122.5t-115 45.5q-91 0 -146 -62t-55 -153z" />
    <glyph glyph-name="guilsinglleft" unicode="&#x2039;" horiz-adv-x="747" 
d="M348 137l-266 445l360 446h271l-359 -446l267 -445h-273z" />
    <glyph glyph-name="guilsinglright" unicode="&#x203a;" horiz-adv-x="749" 
d="M412 1028l266 -444l-361 -447h-270l359 447l-267 444h273z" />
    <glyph glyph-name="fraction" unicode="&#x2044;" horiz-adv-x="393" 
d="M-465 0l1155 1434h209l-1155 -1434h-209z" />
    <glyph glyph-name="uni2070" unicode="&#x2070;" horiz-adv-x="798" 
d="M426 721q-138 0 -217.5 88t-79.5 246q0 131 41 236.5t127 171t205 65.5q135 0 214 -87.5t79 -244.5q0 -133 -40 -238.5t-125 -171t-204 -65.5zM317 1051q0 -85 30.5 -123.5t90.5 -38.5q168 0 168 311q0 85 -30 122.5t-89 37.5q-48 0 -82.5 -26t-53 -71.5t-26.5 -97.5
t-8 -114z" />
    <glyph glyph-name="uni2074" unicode="&#x2074;" horiz-adv-x="714" 
d="M449 737l16 148h-389l18 149l393 477h213l-51 -475h92l-16 -151h-90l-17 -148h-169zM272 1036h207l31 289z" />
    <glyph glyph-name="uni2075" unicode="&#x2075;" horiz-adv-x="686" 
d="M360 721q-170 0 -290 108l114 134q87 -76 181 -76q64 0 102.5 29.5t38.5 82.5q0 40 -27 63t-76 23q-64 0 -120 -41l-127 66l41 401h495l-16 -161h-326l-14 -140q58 23 119 23q106 0 171.5 -58t65.5 -157q0 -139 -91.5 -218t-240.5 -79z" />
    <glyph glyph-name="uni2076" unicode="&#x2076;" horiz-adv-x="700" 
d="M383 721q-125 0 -206 70.5t-81 185.5q0 162 160 344l168 190h213l-225 -251q27 6 55 6q107 0 178.5 -67.5t71.5 -172.5q0 -132 -97 -218.5t-237 -86.5zM279 983q0 -46 31 -74t83 -28q62 0 100.5 36.5t38.5 96.5q0 50 -29.5 77t-84.5 27q-65 0 -102 -37.5t-37 -97.5z" />
    <glyph glyph-name="uni2077" unicode="&#x2077;" horiz-adv-x="626" 
d="M106 737l357 602h-342l18 172h557l-16 -151l-361 -623h-213z" />
    <glyph glyph-name="uni2078" unicode="&#x2078;" horiz-adv-x="731" 
d="M395 721q-138 0 -217.5 60t-79.5 153q0 71 41.5 122.5t114.5 78.5q-94 51 -94 155q0 108 85 173t218 65q126 0 200 -60t74 -149q0 -123 -131 -184q117 -49 117 -170q0 -113 -93 -178.5t-235 -65.5zM291 954q0 -35 28 -56t84 -21q60 0 97 27t37 73q0 37 -29.5 59.5
t-85.5 22.5q-60 0 -95.5 -27t-35.5 -78zM336 1278q-2 -35 24.5 -55.5t77.5 -20.5q55 0 86 26t31 72q0 76 -100 76q-54 0 -86.5 -25t-32.5 -73z" />
    <glyph glyph-name="uni2079" unicode="&#x2079;" horiz-adv-x="700" 
d="M444 1528q125 0 206 -70.5t81 -185.5q0 -162 -160 -344l-168 -191h-213l226 252q-27 -6 -56 -6q-107 0 -178 67.5t-71 172.5q0 132 96.5 218.5t236.5 86.5zM295 1235q0 -50 30 -77.5t85 -27.5q65 0 102 38t37 98q0 46 -31.5 74t-83.5 28q-62 0 -100.5 -36.5t-38.5 -96.5z
" />
    <glyph glyph-name="Euro" unicode="&#x20ac;" horiz-adv-x="1292" 
d="M750 -25q-216 0 -351 136t-157 381h-170l16 149h152q3 87 14 152h-150l17 149h168q71 233 226 374.5t374 141.5q127 0 235.5 -56.5t173.5 -160.5l-186 -147q-89 149 -238 149q-115 0 -199 -81t-130 -220h434l-57 -149h-414q-11 -65 -14 -152h452l-55 -149h-393
q17 -147 86 -224.5t178 -77.5q151 0 272 148l170 -143q-85 -105 -203.5 -162.5t-250.5 -57.5z" />
    <glyph glyph-name="uni20BF" unicode="&#x20bf;" horiz-adv-x="1421" 
d="M334 -180l18 180h-235l149 1434h238l18 180h191l-19 -180h148h18l19 180h190l-22 -211q114 -38 176.5 -119.5t62.5 -193.5q0 -113 -46.5 -195.5t-135.5 -126.5q107 -44 161 -121.5t54 -181.5q0 -188 -112 -303t-306 -150l-20 -192h-191l19 180h-166l-19 -180h-190z
M395 223h363q133 0 214 64.5t81 173.5q0 86 -64 136t-186 50h-363zM463 864h325q108 0 172 52.5t64 144.5q0 149 -201 149h-323z" />
    <glyph glyph-name="uni2116" unicode="&#x2116;" horiz-adv-x="2560" 
d="M117 0l149 1434h256l619 -1020l106 1020h258l-151 -1434h-256l-615 1018l-108 -1018h-258zM1692 276l22 218h643l-24 -218h-641zM1692 1004q0 189 133 321.5t325 132.5q168 0 276.5 -104.5t108.5 -268.5q0 -191 -132 -322.5t-324 -131.5q-170 0 -278.5 105t-108.5 268z
M1907 1016q0 -85 51 -137t133 -52q99 0 164 72.5t65 173.5q0 86 -51 137.5t-133 51.5q-99 0 -164 -72.5t-65 -173.5z" />
    <glyph glyph-name="trademark" unicode="&#x2122;" horiz-adv-x="1595" 
d="M717 807l65 627h199l160 -396l239 396h213l-65 -627h-172l39 379l-211 -350h-119l-137 348l-39 -377h-172zM141 1260l19 174h524l-18 -174h-170l-47 -453h-187l47 453h-168z" />
    <glyph glyph-name="uni2126" unicode="&#x2126;" horiz-adv-x="1630" 
d="M70 0l24 219h287q-114 73 -175 194.5t-61 270.5q0 159 60 302.5t162 247t243 164t297 60.5q177 0 319.5 -77t225 -218.5t82.5 -320.5q0 -199 -90.5 -366t-251.5 -257h283l-25 -219h-590l25 238q188 86 293.5 235.5t105.5 343.5q0 188 -107.5 302t-285.5 114
q-143 0 -257.5 -74t-176.5 -198.5t-62 -274.5q0 -301 291 -448l-24 -238h-592z" />
    <glyph glyph-name="estimated" unicode="&#x212e;" horiz-adv-x="1697" 
d="M870 0q-145 0 -275 52t-228 147q-97 94 -152 228.5t-55 289.5t55 291.5t152 230.5q98 92 228.5 143.5t274.5 51.5t274.5 -51.5t227.5 -143.5q98 -93 153.5 -230t55.5 -292v-25h-1196v-309q0 -72 20.5 -119t71.5 -84q171 -127 393 -127q172 0 315.5 75t231.5 210l43 -33
q-97 -145 -252 -225t-338 -80zM385 741h981v299q0 71 -20 120.5t-68 86.5q-177 133 -408 133q-222 0 -393 -127q-51 -37 -71.5 -84t-20.5 -120v-308z" />
    <glyph glyph-name="arrowleft" unicode="&#x2190;" horiz-adv-x="1454" 
d="M774 1112l-280 -278h901v-234h-903l282 -281l-153 -155l-537 553l537 553z" />
    <glyph glyph-name="arrowup" unicode="&#x2191;" horiz-adv-x="1454" 
d="M365 688l-158 154l553 536l553 -536l-156 -154l-280 283v-903h-234v901z" />
    <glyph glyph-name="arrowright" unicode="&#x2192;" horiz-adv-x="1454" 
d="M719 1112l153 158l537 -553l-537 -553l-153 155l282 281h-903v234h901z" />
    <glyph glyph-name="arrowdown" unicode="&#x2193;" horiz-adv-x="1454" 
d="M338 745l278 -280v901h234v-903l280 282l156 -153l-553 -537l-553 537z" />
    <glyph glyph-name="uni2196" unicode="&#x2196;" horiz-adv-x="1454" 
d="M485 446l-219 -2l10 770l773 13l-2 -219l-400 2l639 -639l-164 -166l-639 639z" />
    <glyph glyph-name="uni2197" unicode="&#x2197;" horiz-adv-x="1454" 
d="M438 1008l-2 219l770 -10l13 -773l-220 2l2 400l-639 -639l-165 164l637 639z" />
    <glyph glyph-name="uni2198" unicode="&#x2198;" horiz-adv-x="1454" 
d="M1018 985l221 2l-12 -770l-770 -12l2 219l397 -2l-639 639l166 166l637 -637z" />
    <glyph glyph-name="uni2199" unicode="&#x2199;" horiz-adv-x="1454" 
d="M1059 426l2 -221l-770 12l-12 770l219 -2l-2 -397l639 639l165 -166l-636 -637z" />
    <glyph glyph-name="partialdiff" unicode="&#x2202;" horiz-adv-x="1292" 
d="M569 -25q-222 0 -356.5 124t-134.5 321q0 111 42.5 209t115.5 168t173.5 110.5t213.5 40.5q110 0 201 -41t141 -119h6q2 20 2 60q0 208 -79 298.5t-251 90.5q-144 0 -289 -70l-39 209q171 82 363 82q267 0 405 -156t138 -456q0 -144 -23 -274t-80 -252.5t-143 -198.5
q-169 -146 -406 -146zM332 432q0 -110 70.5 -174.5t191.5 -64.5q139 0 230 87.5t91 221.5q0 106 -71.5 169.5t-192.5 63.5q-141 0 -230 -83.5t-89 -219.5z" />
    <glyph glyph-name="uni2206" unicode="&#x2206;" horiz-adv-x="1419" 
d="M66 0l-66 125l725 1309h160l450 -1309l-90 -125h-1179zM330 229h714l-272 809z" />
    <glyph glyph-name="product" unicode="&#x220f;" horiz-adv-x="1368" 
d="M88 -262l188 1782h1024l-186 -1782h-250l164 1552h-526l-164 -1552h-250z" />
    <glyph glyph-name="summation" unicode="&#x2211;" horiz-adv-x="1101" 
d="M14 -262l23 227l549 680l-408 647l23 228h952l-25 -228h-677l419 -663l-536 -664h655l-22 -227h-953z" />
    <glyph glyph-name="minus" unicode="&#x2212;" horiz-adv-x="1331" 
d="M209 537l22 225h918l-23 -225h-917z" />
    <glyph glyph-name="radical" unicode="&#x221a;" horiz-adv-x="1318" 
d="M436 -262l-184 731h-211l25 229h374l146 -602l553 1424h252l-699 -1782h-256z" />
    <glyph glyph-name="infinity" unicode="&#x221e;" horiz-adv-x="1554" 
d="M1092 301q-78 0 -141 27.5t-101.5 67.5t-73.5 98q-70 -91 -153.5 -142t-198.5 -51q-153 0 -243.5 93t-90.5 241q0 186 114 310t292 124q115 0 189 -51t126 -141q69 90 153.5 141t198.5 51q154 0 244 -91.5t90 -240.5q0 -188 -113 -312t-292 -124zM297 655
q0 -73 39.5 -117t105.5 -44q71 0 125 49t117 145q-42 93 -86.5 142t-114.5 49q-83 0 -134.5 -65.5t-51.5 -158.5zM903 682q41 -92 86 -140t115 -48q84 0 136 65.5t52 157.5q0 73 -40.5 117.5t-106.5 44.5q-71 0 -125.5 -50t-116.5 -147z" />
    <glyph glyph-name="integral" unicode="&#x222b;" horiz-adv-x="823" 
d="M-35 -262l23 217h121q61 0 93 27.5t38 89.5l122 1165q13 144 94 213.5t234 69.5h191l-23 -217h-121q-62 0 -93.5 -27.5t-37.5 -89.5l-123 -1166q-15 -145 -95 -213.5t-232 -68.5h-191z" />
    <glyph glyph-name="approxequal" unicode="&#x2248;" horiz-adv-x="1331" 
d="M899 707q-75 0 -210 46t-210 46q-62 0 -120 -20t-134 -66l25 223q124 84 258 84q72 0 209 -47t205 -47q67 0 135.5 25.5t118.5 64.5l-23 -223q-128 -86 -254 -86zM180 285l25 223q125 86 258 86q72 0 209 -47t205 -47q70 0 138 25t115 63l-22 -223q-133 -86 -252 -86
q-75 0 -210 47t-210 47q-65 0 -123.5 -21t-132.5 -67z" />
    <glyph glyph-name="notequal" unicode="&#x2260;" horiz-adv-x="1331" 
d="M279 88l129 236h-224l25 223h319l113 205h-412l25 223h508l129 235h188l-129 -235h221l-22 -223h-322l-110 -205h409l-22 -223h-510l-129 -236h-186z" />
    <glyph glyph-name="lessequal" unicode="&#x2264;" horiz-adv-x="1331" 
d="M1104 322l-883 331l23 226l952 331l-22 -233l-660 -211l614 -209zM152 0l24 223h918l-25 -223h-917z" />
    <glyph glyph-name="greaterequal" unicode="&#x2265;" horiz-adv-x="1331" 
d="M186 322l23 235l659 209l-614 211l25 233l882 -331l-22 -226zM152 0l22 223h920l-25 -223h-917z" />
    <glyph glyph-name="filledbox" unicode="&#x25a0;" horiz-adv-x="1843" 
d="M225 0v1434h1434v-1434h-1434z" />
    <glyph glyph-name="triagup" unicode="&#x25b2;" horiz-adv-x="1843" 
d="M158 0l716 1434l717 -1434h-1433z" />
    <glyph glyph-name="triagdn" unicode="&#x25bc;" horiz-adv-x="1843" 
d="M1010 0l-717 1434h1433z" />
    <glyph glyph-name="uni25C6" unicode="&#x25c6;" horiz-adv-x="1843" 
d="M940 0l-715 715l715 719l719 -719z" />
    <glyph glyph-name="lmlenge" unicode="&#x25ca;" horiz-adv-x="1316" 
d="M506 0l-438 717l589 717h195l438 -717l-590 -717h-194zM358 715l279 -457l379 461l-279 457z" />
    <glyph glyph-name="uni25CF" unicode="&#x25cf;" horiz-adv-x="1843" 
d="M942 0q-145 0 -278 57t-229 153t-153 229t-57 278t57 278t153 229t229 153t278 57t278 -57t229 -153t153 -229t57 -278t-57 -278t-153 -229t-229 -153t-278 -57z" />
    <glyph glyph-name="uni2610" unicode="&#x2610;" horiz-adv-x="1843" 
d="M225 0v1434h1434v-1434h-1434zM387 152h1110v1130h-1110v-1130z" />
    <glyph glyph-name="uni2611" unicode="&#x2611;" horiz-adv-x="1843" 
d="M225 0v1434h1434v-1434h-1434zM387 152h1110v1130h-1110v-1130zM532 477l111 193l178 -105l348 602l185 -106l-459 -795z" />
    <glyph glyph-name="uni2612" unicode="&#x2612;" horiz-adv-x="1843" 
d="M225 0v1434h1434v-1434h-1434zM387 152h1110v1130h-1110v-1130zM506 430l287 287l-287 287l149 147l287 -285l287 285l147 -147l-284 -287l284 -287l-147 -149l-287 286l-287 -286z" />
    <glyph glyph-name="heart" unicode="&#x2665;" horiz-adv-x="1843" 
d="M287 838q0 97 32 176t84 127.5t115.5 74t130.5 25.5q109 0 193.5 -63.5t111.5 -180.5q27 117 112 180.5t194 63.5q67 0 130.5 -25.5t115.5 -74t84 -127.5t32 -176q0 -92 -30 -169t-77 -130t-118 -108.5t-139 -98.5t-153.5 -107t-150.5 -127q-65 63 -150.5 127t-153.5 107
t-138.5 98.5t-117.5 108.5t-77 130t-30 169z" />
    <glyph glyph-name="uni2B51" unicode="&#x2b51;" horiz-adv-x="1843" 
d="M485 -6l183 557l-469 340h581l178 553l179 -555h585l-473 -342l181 -553l-472 344z" />
    <glyph glyph-name="uni004A0301" horiz-adv-x="1187" 
d="M467 -25q-243 0 -453 146l136 213q177 -113 323 -113q122 0 204 74t95 215l96 924h260l-100 -945q-26 -253 -169 -383.5t-392 -130.5zM854 1571l190 319h310l-260 -319h-240z" />
    <glyph glyph-name="i.loclTRK" horiz-adv-x="540" 
d="M92 0l111 1049h246l-111 -1049h-246zM203 1339q0 69 49 117.5t121 48.5q60 0 99.5 -38t39.5 -95q0 -73 -49.5 -120.5t-120.5 -47.5q-59 0 -99 38.5t-40 96.5z" />
    <glyph glyph-name="uni006A0301" horiz-adv-x="540" 
d="M-68 -471q-109 0 -194 35l57 219q65 -21 119 -21q76 0 120 45.5t54 145.5l115 1096h246l-117 -1123q-22 -204 -119.5 -300.5t-280.5 -96.5zM193 1200l141 301h289l-205 -301h-225z" />
    <glyph glyph-name="a.ss01" horiz-adv-x="1193" 
d="M831 639q10 109 -43 163t-163 54q-179 0 -353 -143l-127 172q98 91 228 139.5t276 48.5q215 0 329 -111t91 -321l-68 -641h-237l8 76q-153 -101 -348 -101q-169 0 -270 83t-101 214q0 165 129 259t336 94h311zM301 295q0 -54 47.5 -86.5t138.5 -32.5q175 0 308 109
l16 157h-297q-99 0 -156 -38.5t-57 -108.5z" />
    <glyph glyph-name="aacute.ss01" horiz-adv-x="1193" 
d="M831 639q10 109 -43 163t-163 54q-179 0 -353 -143l-127 172q98 91 228 139.5t276 48.5q215 0 329 -111t91 -321l-68 -641h-237l8 76q-153 -101 -348 -101q-169 0 -270 83t-101 214q0 165 129 259t336 94h311zM301 295q0 -54 47.5 -86.5t138.5 -32.5q175 0 308 109
l16 157h-297q-99 0 -156 -38.5t-57 -108.5zM500 1200l180 301h293l-246 -301h-227z" />
    <glyph glyph-name="abreve.ss01" horiz-adv-x="1193" 
d="M831 639q10 109 -43 163t-163 54q-179 0 -353 -143l-127 172q98 91 228 139.5t276 48.5q215 0 329 -111t91 -321l-68 -641h-237l8 76q-153 -101 -348 -101q-169 0 -270 83t-101 214q0 165 129 259t336 94h311zM301 295q0 -54 47.5 -86.5t138.5 -32.5q175 0 308 109
l16 157h-297q-99 0 -156 -38.5t-57 -108.5zM379 1495h186q-15 -145 97 -145q109 0 126 145h189q-17 -147 -103.5 -222t-226.5 -75q-141 0 -212 76.5t-56 220.5z" />
    <glyph glyph-name="uni01CE.ss01" horiz-adv-x="1193" 
d="M831 639q10 109 -43 163t-163 54q-179 0 -353 -143l-127 172q98 91 228 139.5t276 48.5q215 0 329 -111t91 -321l-68 -641h-237l8 76q-153 -101 -348 -101q-169 0 -270 83t-101 214q0 165 129 259t336 94h311zM301 295q0 -54 47.5 -86.5t138.5 -32.5q175 0 308 109
l16 157h-297q-99 0 -156 -38.5t-57 -108.5zM324 1501h217l112 -162l150 162h231l-272 -301h-232z" />
    <glyph glyph-name="acircumflex.ss01" horiz-adv-x="1193" 
d="M831 639q10 109 -43 163t-163 54q-179 0 -353 -143l-127 172q98 91 228 139.5t276 48.5q215 0 329 -111t91 -321l-68 -641h-237l8 76q-153 -101 -348 -101q-169 0 -270 83t-101 214q0 165 129 259t336 94h311zM291 1200l272 301h232l206 -301h-217l-112 162l-150 -162
h-231zM301 295q0 -54 47.5 -86.5t138.5 -32.5q175 0 308 109l16 157h-297q-99 0 -156 -38.5t-57 -108.5z" />
    <glyph glyph-name="adieresis.ss01" horiz-adv-x="1193" 
d="M831 639q10 109 -43 163t-163 54q-179 0 -353 -143l-127 172q98 91 228 139.5t276 48.5q215 0 329 -111t91 -321l-68 -641h-237l8 76q-153 -101 -348 -101q-169 0 -270 83t-101 214q0 165 129 259t336 94h311zM301 295q0 -54 47.5 -86.5t138.5 -32.5q175 0 308 109
l16 157h-297q-99 0 -156 -38.5t-57 -108.5zM305 1341q0 67 46.5 113.5t115.5 46.5q57 0 93 -37t36 -94q0 -70 -45.5 -116t-112.5 -46q-57 0 -95 38t-38 95zM729 1341q0 67 46 113.5t114 46.5q57 0 93 -37t36 -94q0 -70 -45 -116t-113 -46q-57 0 -94 38t-37 95z" />
    <glyph glyph-name="agrave.ss01" horiz-adv-x="1193" 
d="M831 639q10 109 -43 163t-163 54q-179 0 -353 -143l-127 172q98 91 228 139.5t276 48.5q215 0 329 -111t91 -321l-68 -641h-237l8 76q-153 -101 -348 -101q-169 0 -270 83t-101 214q0 165 129 259t336 94h311zM301 295q0 -54 47.5 -86.5t138.5 -32.5q175 0 308 109
l16 157h-297q-99 0 -156 -38.5t-57 -108.5zM385 1501h279l116 -301h-213z" />
    <glyph glyph-name="amacron.ss01" horiz-adv-x="1193" 
d="M831 639q10 109 -43 163t-163 54q-179 0 -353 -143l-127 172q98 91 228 139.5t276 48.5q215 0 329 -111t91 -321l-68 -641h-237l8 76q-153 -101 -348 -101q-169 0 -270 83t-101 214q0 165 129 259t336 94h311zM301 295q0 -54 47.5 -86.5t138.5 -32.5q175 0 308 109
l16 157h-297q-99 0 -156 -38.5t-57 -108.5zM367 1243l20 184h567l-20 -184h-567z" />
    <glyph glyph-name="aogonek.ss01" horiz-adv-x="1193" 
d="M831 639q10 109 -43 163t-163 54q-179 0 -353 -143l-127 172q98 91 228 139.5t276 48.5q215 0 329 -111t91 -321l-68 -641q-80 -54 -125 -102t-45 -97q0 -59 80 -59q33 0 66 8l-21 -184q-50 -12 -106 -12q-105 0 -167 50.5t-62 135.5q0 82 49.5 148.5t134.5 111.5h-41
l8 76q-153 -101 -348 -101q-169 0 -270 83t-101 214q0 165 129 259t336 94h311zM301 295q0 -54 47.5 -86.5t138.5 -32.5q175 0 308 109l16 157h-297q-99 0 -156 -38.5t-57 -108.5z" />
    <glyph glyph-name="aring.ss01" horiz-adv-x="1193" 
d="M831 639q10 109 -43 163t-163 54q-179 0 -353 -143l-127 172q98 91 228 139.5t276 48.5q215 0 329 -111t91 -321l-68 -641h-237l8 76q-153 -101 -348 -101q-169 0 -270 83t-101 214q0 165 129 259t336 94h311zM301 295q0 -54 47.5 -86.5t138.5 -32.5q175 0 308 109
l16 157h-297q-99 0 -156 -38.5t-57 -108.5zM432 1378q0 98 73 167t179 69q91 0 155 -58.5t64 -142.5q0 -98 -74 -166.5t-180 -68.5q-92 0 -154.5 57.5t-62.5 142.5zM584 1386q0 -34 19.5 -53.5t53.5 -19.5q41 0 68 26t27 66q0 34 -20.5 55t-55.5 21q-41 0 -66.5 -26.5
t-25.5 -68.5z" />
    <glyph glyph-name="atilde.ss01" horiz-adv-x="1193" 
d="M831 639q10 109 -43 163t-163 54q-179 0 -353 -143l-127 172q98 91 228 139.5t276 48.5q215 0 329 -111t91 -321l-68 -641h-237l8 76q-153 -101 -348 -101q-169 0 -270 83t-101 214q0 165 129 259t336 94h311zM301 295q0 -54 47.5 -86.5t138.5 -32.5q175 0 308 109
l16 157h-297q-99 0 -156 -38.5t-57 -108.5zM309 1280q21 100 83 156.5t143 56.5q74 0 157 -59q55 -41 90 -41q46 0 74 82l158 -48q-23 -101 -84 -158t-142 -57q-32 0 -63 10.5t-49 21.5t-45 30q-60 39 -90 39q-47 0 -74 -80z" />
    <glyph glyph-name="y.ss02" horiz-adv-x="1251" 
d="M471 -471q-275 0 -459 164l156 184q85 -69 156.5 -96t156.5 -27q139 0 225.5 73.5t98.5 199.5l10 94q-148 -111 -332 -111q-186 0 -281 114.5t-73 319.5l64 605h245l-57 -553q-13 -129 34.5 -194.5t151.5 -65.5q155 0 273 124l73 689h246l-108 -1022
q-25 -235 -176 -366.5t-404 -131.5z" />
    <glyph glyph-name="yacute.ss02" horiz-adv-x="1251" 
d="M471 -471q-275 0 -459 164l156 184q85 -69 156.5 -96t156.5 -27q139 0 225.5 73.5t98.5 199.5l10 94q-148 -111 -332 -111q-186 0 -281 114.5t-73 319.5l64 605h245l-57 -553q-13 -129 34.5 -194.5t151.5 -65.5q155 0 273 124l73 689h246l-108 -1022
q-25 -235 -176 -366.5t-404 -131.5zM551 1200l180 301h293l-246 -301h-227z" />
    <glyph glyph-name="ycircumflex.ss02" horiz-adv-x="1251" 
d="M471 -471q-275 0 -459 164l156 184q85 -69 156.5 -96t156.5 -27q139 0 225.5 73.5t98.5 199.5l10 94q-148 -111 -332 -111q-186 0 -281 114.5t-73 319.5l64 605h245l-57 -553q-13 -129 34.5 -194.5t151.5 -65.5q155 0 273 124l73 689h246l-108 -1022
q-25 -235 -176 -366.5t-404 -131.5zM342 1200l272 301h232l207 -301h-217l-113 162l-150 -162h-231z" />
    <glyph glyph-name="ydieresis.ss02" horiz-adv-x="1251" 
d="M471 -471q-275 0 -459 164l156 184q85 -69 156.5 -96t156.5 -27q139 0 225.5 73.5t98.5 199.5l10 94q-148 -111 -332 -111q-186 0 -281 114.5t-73 319.5l64 605h245l-57 -553q-13 -129 34.5 -194.5t151.5 -65.5q155 0 273 124l73 689h246l-108 -1022
q-25 -235 -176 -366.5t-404 -131.5zM356 1341q0 67 47 113.5t115 46.5q57 0 93 -37t36 -94q0 -70 -45.5 -116t-112.5 -46q-57 0 -95 38t-38 95zM780 1341q0 67 46 113.5t114 46.5q57 0 93 -37t36 -94q0 -70 -45 -116t-113 -46q-57 0 -94 38t-37 95z" />
    <glyph glyph-name="ygrave.ss02" horiz-adv-x="1251" 
d="M471 -471q-275 0 -459 164l156 184q85 -69 156.5 -96t156.5 -27q139 0 225.5 73.5t98.5 199.5l10 94q-148 -111 -332 -111q-186 0 -281 114.5t-73 319.5l64 605h245l-57 -553q-13 -129 34.5 -194.5t151.5 -65.5q155 0 273 124l73 689h246l-108 -1022
q-25 -235 -176 -366.5t-404 -131.5zM436 1501h279l116 -301h-213z" />
    <glyph glyph-name="zero.zero" horiz-adv-x="1396" 
d="M647 -25q-247 0 -386.5 159t-139.5 448q0 143 26.5 272.5t81.5 240t133.5 191.5t187.5 126.5t238 45.5q247 0 387 -159.5t140 -448.5q0 -180 -43 -337t-124.5 -277.5t-210.5 -190.5t-290 -70zM379 588q0 -148 45 -240l477 850q-55 27 -129 27q-104 0 -182.5 -54.5
t-123 -147t-66 -202t-21.5 -233.5zM535 236q55 -27 131 -27q84 0 151.5 36.5t111.5 97t73.5 143.5t42 172.5t12.5 187.5q0 147 -45 239z" />
    <glyph glyph-name="zero.lf" horiz-adv-x="1396" 
d="M647 -25q-247 0 -386.5 159t-139.5 448q0 143 26.5 272.5t81.5 240t133.5 191.5t187.5 126.5t238 45.5q247 0 387 -159.5t140 -448.5q0 -180 -43 -337t-124.5 -277.5t-210.5 -190.5t-290 -70zM379 588q0 -191 74.5 -285t212.5 -94q84 0 151.5 36.5t111.5 97t73.5 143.5
t42 172.5t12.5 187.5q0 191 -73.5 285t-211.5 94q-104 0 -182.5 -54.5t-123 -147t-66 -202t-21.5 -233.5z" />
    <glyph glyph-name="one.lf" horiz-adv-x="880" 
d="M383 0l121 1153l-375 -178l27 256l419 203h213l-149 -1434h-256z" />
    <glyph glyph-name="two.lf" horiz-adv-x="1185" 
d="M27 0l22 203l555 471q89 76 142 130t90.5 121.5t37.5 131.5q0 78 -52.5 123t-143.5 45q-206 0 -373 -242l-190 135q105 166 255 253t324 87q192 0 314 -104.5t122 -270.5q0 -142 -75.5 -261t-220.5 -244l-406 -345h639l-25 -233h-1015z" />
    <glyph glyph-name="three.lf" horiz-adv-x="1157" 
d="M508 -25q-151 0 -279 53t-215 152l162 178q150 -153 338 -153q130 0 211.5 64.5t81.5 162.5q0 89 -74.5 136.5t-224.5 47.5h-129l24 228h158q134 0 212.5 58.5t78.5 154.5q0 78 -56.5 125t-162.5 47q-191 0 -350 -172l-158 160q211 241 530 241q205 0 330 -103t125 -268
q0 -131 -72 -225t-196 -131q106 -35 161.5 -114t55.5 -191q0 -203 -155 -327t-396 -124z" />
    <glyph glyph-name="four.lf" horiz-adv-x="1269" 
d="M752 0l30 291h-737l23 211l776 932h299l-99 -930h189l-23 -213h-188l-31 -291h-239zM328 504h477l67 653z" />
    <glyph glyph-name="five.lf" horiz-adv-x="1191" 
d="M524 -25q-300 0 -489 195l158 184q147 -147 346 -147q149 0 236 76t87 202q0 97 -63 153t-176 56q-153 0 -281 -88l-176 103l102 725h865l-25 -234h-635l-47 -340q116 55 256 55q193 0 315.5 -109.5t122.5 -303.5q0 -239 -165.5 -383t-430.5 -144z" />
    <glyph glyph-name="six.lf" horiz-adv-x="1249" 
d="M584 -25q-222 0 -363 124.5t-141 332.5q0 290 280 617l334 385h303l-413 -469q72 16 137 16q198 0 328.5 -123.5t130.5 -316.5q0 -160 -78.5 -290t-215 -203t-302.5 -73zM336 457q0 -120 70.5 -188t195.5 -68q144 0 234 90t90 227q0 110 -70.5 177t-193.5 67
q-143 0 -277 -94q-49 -111 -49 -211z" />
    <glyph glyph-name="seven.lf" horiz-adv-x="1095" 
d="M119 0l704 1200h-702l24 234h994l-21 -205l-710 -1229h-289z" />
    <glyph glyph-name="eight.lf" horiz-adv-x="1261" 
d="M582 -25q-241 0 -375.5 108t-134.5 279q0 132 73 234t197 158q-147 93 -147 272q0 191 150.5 311.5t377.5 120.5q210 0 333.5 -102.5t123.5 -259.5q0 -110 -57 -200.5t-156 -145.5q95 -47 144.5 -128t49.5 -184q0 -141 -75 -247t-206 -161t-298 -55zM332 393
q0 -91 68.5 -145.5t195.5 -54.5q138 0 224.5 68.5t86.5 178.5q0 92 -68.5 146.5t-195.5 54.5q-138 0 -224.5 -67.5t-86.5 -180.5zM449 1018q0 -78 57 -126t158 -48q116 0 188 62t72 161q0 80 -57.5 128t-159.5 48q-115 0 -186.5 -61.5t-71.5 -163.5z" />
    <glyph glyph-name="nine.lf" horiz-adv-x="1247" 
d="M707 1458q222 0 362.5 -124.5t140.5 -332.5q0 -289 -280 -616l-334 -385h-303l414 469q-72 -16 -138 -16q-198 0 -328 123t-130 317q0 160 78.5 290t215 202.5t302.5 72.5zM365 915q0 -110 70.5 -176.5t193.5 -66.5q142 0 276 94q49 111 49 211q0 120 -70.5 188
t-195.5 68q-144 0 -233.5 -90.5t-89.5 -227.5z" />
    <glyph glyph-name="zero.tf" horiz-adv-x="1331" 
d="M614 -25q-247 0 -386.5 159t-139.5 448q0 180 43.5 337t125 278t210.5 191t289 70q246 0 386 -159t140 -449q0 -180 -43 -337t-124.5 -277.5t-210.5 -190.5t-290 -70zM346 588q0 -191 74.5 -285t212.5 -94q84 0 151.5 36.5t111.5 97t73.5 143.5t42 172.5t12.5 187.5
q0 191 -73.5 285t-211.5 94q-104 0 -182.5 -54.5t-123 -147t-66 -202t-21.5 -233.5z" />
    <glyph glyph-name="one.tf" horiz-adv-x="1331" 
d="M170 0l25 233h378l97 918l-375 -178l29 258l417 203h213l-125 -1201h338l-24 -233h-973z" />
    <glyph glyph-name="two.tf" horiz-adv-x="1331" 
d="M102 0l23 203l555 471q89 76 142 130t90.5 121.5t37.5 131.5q0 78 -52.5 123t-143.5 45q-206 0 -373 -242l-191 135q105 165 255.5 252.5t324.5 87.5q192 0 314 -104.5t122 -270.5q0 -142 -76 -261t-221 -244l-405 -345h639l-25 -233h-1016z" />
    <glyph glyph-name="three.tf" horiz-adv-x="1331" 
d="M594 -25q-151 0 -279 53t-215 152l162 178q150 -153 338 -153q130 0 211.5 64.5t81.5 162.5q0 89 -74.5 136.5t-224.5 47.5h-129l24 228h158q134 0 212.5 58.5t78.5 154.5q0 78 -56.5 125t-162.5 47q-191 0 -350 -172l-158 160q211 241 530 241q205 0 330 -103t125 -268
q0 -131 -72 -225t-196 -131q106 -35 161.5 -114t55.5 -191q0 -203 -155 -327t-396 -124z" />
    <glyph glyph-name="four.tf" horiz-adv-x="1331" 
d="M797 0l30 291h-737l23 211l776 932h299l-98 -930h188l-23 -213h-188l-31 -291h-239zM373 504h477l68 653z" />
    <glyph glyph-name="five.tf" horiz-adv-x="1331" 
d="M600 -25q-300 0 -489 195l157 184q147 -147 346 -147q149 0 236.5 76t87.5 202q0 97 -63.5 153t-176.5 56q-152 0 -280 -88l-176 103l102 725h864l-24 -234h-635l-47 -340q116 55 256 55q193 0 315.5 -109.5t122.5 -303.5q0 -239 -165.5 -383t-430.5 -144z" />
    <glyph glyph-name="six.tf" horiz-adv-x="1331" 
d="M623 -25q-222 0 -363 124.5t-141 332.5q0 290 280 617l334 385h303l-413 -469q72 16 137 16q198 0 328.5 -123.5t130.5 -316.5q0 -160 -78.5 -290t-215 -203t-302.5 -73zM375 457q0 -120 70.5 -188t195.5 -68q144 0 234 90t90 227q0 110 -71 177t-194 67q-142 0 -276 -94
q-49 -111 -49 -211z" />
    <glyph glyph-name="seven.tf" horiz-adv-x="1331" 
d="M244 0l704 1200h-702l24 234h994l-21 -205l-711 -1229h-288z" />
    <glyph glyph-name="eight.tf" horiz-adv-x="1331" 
d="M618 -25q-241 0 -375 108t-134 279q0 132 73 234t197 158q-148 94 -148 272q0 191 151 311.5t378 120.5q210 0 333.5 -102.5t123.5 -259.5q0 -110 -57 -200.5t-156 -145.5q95 -47 144.5 -128t49.5 -184q0 -141 -75.5 -247t-206.5 -161t-298 -55zM369 393
q0 -91 68.5 -145.5t195.5 -54.5q138 0 224.5 68.5t86.5 178.5q0 92 -68.5 146.5t-195.5 54.5q-138 0 -224.5 -67.5t-86.5 -180.5zM485 1018q0 -78 57 -126t158 -48q117 0 189 62t72 161q0 80 -58 128t-160 48q-115 0 -186.5 -61.5t-71.5 -163.5z" />
    <glyph glyph-name="nine.tf" horiz-adv-x="1331" 
d="M748 1458q222 0 362.5 -124.5t140.5 -332.5q0 -289 -280 -616l-334 -385h-303l414 469q-72 -16 -138 -16q-198 0 -328 123t-130 317q0 160 78.5 290t215 202.5t302.5 72.5zM406 915q0 -110 70.5 -176.5t193.5 -66.5q142 0 276 94q49 111 49 211q0 120 -70.5 188
t-195.5 68q-144 0 -233.5 -90.5t-89.5 -227.5z" />
    <glyph glyph-name="zero.tf.zero" horiz-adv-x="1331" 
d="M614 -25q-247 0 -386.5 159t-139.5 448q0 180 43.5 337t125 278t210.5 191t289 70q246 0 386 -159t140 -449q0 -180 -43 -337t-124.5 -277.5t-210.5 -190.5t-290 -70zM346 588q0 -148 45 -240l477 850q-56 27 -129 27q-104 0 -182.5 -54.5t-123 -147t-66 -202
t-21.5 -233.5zM502 236q56 -27 131 -27q84 0 151.5 36.5t111.5 97t73.5 143.5t42 172.5t12.5 187.5q0 147 -45 239z" />
    <glyph glyph-name="colon.case" horiz-adv-x="495" 
d="M217 211q-66 0 -108.5 42t-42.5 107q0 80 53.5 133.5t132.5 53.5q63 0 106 -44t43 -106q0 -82 -51 -134t-133 -52zM135 1032q0 80 53.5 133.5t133.5 53.5q63 0 106 -44t43 -106q0 -82 -51 -134t-133 -52q-66 0 -109 42t-43 107z" />
    <glyph glyph-name="exclamdown.case" horiz-adv-x="559" 
d="M221 963h211l-74 -957h-264zM193 1270q0 80 53.5 133t132.5 53q63 0 106 -42.5t43 -104.5q0 -83 -51 -136t-133 -53q-66 0 -108.5 42.5t-42.5 107.5z" />
    <glyph glyph-name="questiondown.case" horiz-adv-x="1003" 
d="M713 879q-11 -105 -48.5 -166t-150.5 -148l-102 -80q-56 -43 -80.5 -76.5t-24.5 -80.5q0 -56 38 -88.5t108 -32.5q179 0 280 225l215 -84q-60 -170 -195.5 -267t-314.5 -97q-165 0 -273 88t-108 229q0 103 56.5 186.5t160.5 165.5l99 76q56 42 72 69.5t22 88.5l10 78h246
zM465 1272q0 82 52 134t134 52q66 0 109 -42t43 -107q0 -79 -53.5 -133t-133.5 -54q-64 0 -107.5 44t-43.5 106z" />
    <glyph glyph-name="hyphen.case" horiz-adv-x="792" 
d="M84 616l22 218h644l-25 -218h-641z" />
    <glyph glyph-name="endash.case" horiz-adv-x="1173" 
d="M84 614l22 217h1024l-22 -217h-1024z" />
    <glyph glyph-name="emdash.case" horiz-adv-x="1787" 
d="M84 614l22 217h1639l-23 -217h-1638z" />
    <glyph glyph-name="parenleft.case" horiz-adv-x="692" 
d="M383 -182q-121 160 -183.5 359.5t-62.5 408.5q0 281 117 554.5t317 475.5l174 -121q-158 -173 -256 -421t-98 -478q0 -183 51.5 -358.5t139.5 -298.5z" />
    <glyph glyph-name="parenright.case" horiz-adv-x="692" 
d="M350 1616q121 -160 183.5 -359.5t62.5 -408.5q0 -281 -117 -554.5t-317 -475.5l-174 121q158 173 256 421t98 478q0 184 -51.5 359t-138.5 298z" />
    <glyph glyph-name="braceleft.case" horiz-adv-x="786" 
d="M459 -160q-146 0 -221 74t-62 211l39 358q6 65 -22 94t-97 29h-20l22 221h21q69 0 103 29t42 94l37 359q28 284 342 284h186l-22 -221h-135q-62 0 -93.5 -27.5t-37.5 -89.5l-33 -301q-17 -185 -182 -233l-2 -8q154 -47 133 -234l-29 -301q-7 -62 19 -89.5t88 -27.5h135
l-25 -221h-186z" />
    <glyph glyph-name="braceright.case" horiz-adv-x="786" 
d="M369 1593q146 0 220.5 -73.5t61.5 -210.5l-39 -359q-6 -65 22 -94t97 -29h21l-23 -221h-20q-69 0 -104 -29.5t-42 -93.5l-37 -358q-28 -285 -342 -285h-186l22 221h136q62 0 93.5 27.5t37.5 89.5l32 301q18 186 183 234l2 8q-154 47 -133 233l28 301q7 62 -18.5 89.5
t-87.5 27.5h-135l24 221h187z" />
    <glyph glyph-name="bracketleft.case" horiz-adv-x="751" 
d="M88 -160l184 1753h525l-25 -221h-276l-140 -1311h279l-23 -221h-524z" />
    <glyph glyph-name="bracketright.case" horiz-adv-x="751" 
d="M705 1593l-185 -1753h-524l24 221h277l139 1311h-278l22 221h525z" />
    <glyph glyph-name="guillemotleft.case" horiz-adv-x="1275" 
d="M383 272l-266 445l360 446h271l-359 -446l266 -445h-272zM604 717l361 446h270l-358 -446l266 -445h-273z" />
    <glyph glyph-name="guillemotright.case" horiz-adv-x="1275" 
d="M934 1161l266 -444l-360 -447h-271l359 447l-266 444h272zM82 270l358 447l-266 444h272l267 -444l-361 -447h-270z" />
    <glyph glyph-name="guilsinglleft.case" horiz-adv-x="788" 
d="M383 272l-266 445l360 446h271l-359 -446l266 -445h-272z" />
    <glyph glyph-name="guilsinglright.case" horiz-adv-x="788" 
d="M446 1161l267 -444l-361 -447h-270l358 447l-266 444h272z" />
    <glyph glyph-name="florin.tf" horiz-adv-x="1331" 
d="M299 -25q-69 0 -121 17l23 213q37 -6 69 -6q75 0 118.5 35.5t70.5 127.5l102 349h-213l17 170h247l78 266q90 311 385 311q69 0 121 -16l-25 -213q-35 6 -69 6q-74 0 -117 -35.5t-70 -128.5l-55 -190h250l-16 -170h-285l-125 -424q-47 -163 -139 -237.5t-246 -74.5z" />
    <glyph glyph-name="at.case" horiz-adv-x="1980" 
d="M965 -174q-247 0 -438 97t-295.5 272.5t-104.5 402.5q0 207 78 393.5t211.5 320.5t319 213t392.5 79q220 0 402 -89.5t289.5 -255.5t107.5 -376q0 -162 -53 -298.5t-158 -222.5t-243 -86q-80 0 -144 30.5t-100 88.5q-122 -102 -279 -102q-152 0 -255 105t-103 264
q0 123 57.5 230t158 170.5t218.5 63.5q129 0 213 -75l6 57h213l-53 -518q-15 -133 92 -133q66 0 117 57t76.5 146t25.5 192q0 256 -165.5 403.5t-430.5 147.5q-221 0 -398.5 -103t-276.5 -281.5t-99 -397.5q0 -272 169 -434t462 -162q231 0 395 90l84 -174
q-209 -115 -491 -115zM809 680q0 -87 51.5 -139t136.5 -52q113 0 191 84q0 2 1 8t1 9l27 256q-61 84 -173 84q-102 0 -168.5 -73t-66.5 -177z" />
    <glyph glyph-name="uni20BF.tf" horiz-adv-x="1331" 
d="M289 -180l18 180h-235l149 1434h238l18 180h191l-19 -180h148h18l19 180h190l-23 -211q115 -38 177.5 -119.5t62.5 -193.5q0 -113 -46.5 -195.5t-135.5 -126.5q107 -44 161 -121.5t54 -181.5q0 -188 -112 -303t-306 -150l-20 -192h-191l19 180h-166l-19 -180h-190z
M350 223h363q133 0 214 64.5t81 173.5q0 86 -64 136t-186 50h-363zM418 864h325q108 0 172 52.5t64 144.5q0 149 -201 149h-323z" />
    <glyph glyph-name="cent.tf" horiz-adv-x="1331" 
d="M586 0l20 195q-184 23 -295.5 148t-111.5 310q0 229 147 394t371 188l20 199h119l-20 -197q113 -11 206 -65t156 -146l-190 -143q-74 122 -195 141l-63 -616q130 21 235 145l168 -129q-76 -102 -187 -162t-239 -69l-20 -193h-121zM434 672q0 -104 53 -174.5t142 -89.5
l65 612q-115 -26 -187.5 -123t-72.5 -225z" />
    <glyph glyph-name="currency.tf" horiz-adv-x="1331" 
d="M651 311q-131 0 -223 64l-164 -148l-106 119l161 148q-45 82 -45 182q0 150 86 270l-124 141l133 119l127 -141q102 57 227 57q130 0 221 -63l164 147l106 -119l-159 -147q45 -82 45 -182q0 -151 -88 -273l125 -139l-133 -119l-127 142q-103 -58 -226 -58zM492 688
q0 -78 47.5 -125t126.5 -47q96 0 155.5 65.5t59.5 163.5q0 78 -47.5 125.5t-126.5 47.5q-96 0 -155.5 -67.5t-59.5 -162.5z" />
    <glyph glyph-name="dollar.tf" horiz-adv-x="1331" 
d="M547 -86l14 133q-252 22 -422 170l148 184q147 -116 297 -137l39 375l-93 25q-143 35 -217.5 114t-74.5 193q0 182 134.5 296.5t340.5 125.5l12 127h117l-15 -131q111 -12 210.5 -58.5t172.5 -122.5l-163 -164q-100 103 -242 125l-35 -346l104 -26q139 -34 214 -112.5
t75 -197.5q0 -200 -133.5 -316.5t-351.5 -127.5l-14 -129h-117zM473 999q0 -52 42 -86.5t140 -60.5l35 322q-98 -9 -157.5 -56t-59.5 -119zM700 260q103 9 165.5 62t62.5 131q0 58 -43 95t-137 60l-11 2z" />
    <glyph glyph-name="Euro.tf" horiz-adv-x="1331" 
d="M768 -25q-216 0 -351 136t-157 381h-170l16 149h152q3 87 14 152h-149l16 149h168q71 233 226 374.5t374 141.5q127 0 236 -56.5t174 -160.5l-187 -147q-89 149 -237 149q-115 0 -199.5 -81t-130.5 -220h434l-57 -149h-414q-11 -65 -14 -152h453l-56 -149h-393
q17 -147 86 -224.5t178 -77.5q152 0 273 148l170 -143q-84 -105 -203.5 -162.5t-251.5 -57.5z" />
    <glyph glyph-name="sterling.tf" horiz-adv-x="1331" 
d="M145 166q153 91 223 180t70 207q0 21 -4 57h-235l18 170h162q-2 3 -13 29t-13.5 32t-12 29t-12 32.5t-9 30.5t-8.5 35.5t-4 33.5t-2 38q0 119 65 215t176.5 149.5t246.5 53.5q134 0 244 -57t177 -162l-188 -152q-99 146 -244 146q-99 0 -162 -54t-63 -141
q0 -29 8.5 -63.5t18 -59.5t27 -68.5t26.5 -66.5h379l-19 -170h-321q2 -10 2 -32q0 -174 -125 -302h16q52 0 100.5 -18t91.5 -36.5t81 -18.5q45 0 83.5 27t84.5 94l168 -111q-127 -238 -340 -238q-51 0 -98 14t-78.5 31.5t-78.5 31.5t-98 14q-100 0 -235 -91z" />
    <glyph glyph-name="yen.tf" horiz-adv-x="1331" 
d="M483 0l27 260h-352l16 156h354l17 164h-355l19 155h291l-295 699h260l229 -584l353 584h270l-440 -699h292l-18 -155h-352l-17 -164h353l-17 -156h-354l-27 -260h-254z" />
    <glyph glyph-name="uni0308.case" 
d="M461 1194q-60 0 -101 40t-41 99q0 71 50 121.5t123 50.5q60 0 98.5 -39.5t38.5 -101.5q0 -72 -48.5 -121t-119.5 -49zM772 1333q0 71 49.5 121.5t122.5 50.5q59 0 98 -40t39 -101q0 -72 -48.5 -121t-119.5 -49q-60 0 -100.5 40t-40.5 99z" />
    <glyph glyph-name="uni0307.case" 
d="M686 1192q-62 0 -103.5 40t-41.5 101q0 74 50.5 124t125.5 50q63 0 104 -40t41 -101q0 -76 -51 -125t-125 -49z" />
    <glyph glyph-name="gravecomb.case" 
d="M645 1186l-194 319h290l125 -319h-221z" />
    <glyph glyph-name="acutecomb.case" 
d="M483 1186l191 319h309l-260 -319h-240z" />
    <glyph glyph-name="uni030B.case" 
d="M735 1186l174 319h252l-221 -319h-205zM352 1186l170 319h256l-223 -319h-203z" />
    <glyph glyph-name="uni0302.case" 
d="M315 1186l281 319h244l213 -319h-224l-120 170l-156 -170h-238z" />
    <glyph glyph-name="uni030C.case" 
d="M561 1186l-211 319h221l121 -172l158 172h235l-278 -319h-246z" />
    <glyph glyph-name="uni0306.case" 
d="M686 1184q-150 0 -226 81t-61 234h199q-15 -156 102 -156q55 0 90 39t44 117h198q-15 -156 -104.5 -235.5t-241.5 -79.5z" />
    <glyph glyph-name="uni030A.case" 
d="M686 1157q-94 0 -157.5 58.5t-63.5 144.5q0 99 73.5 168t180.5 69q94 0 158.5 -58.5t64.5 -143.5q0 -100 -74.5 -169t-181.5 -69zM618 1366q0 -34 20.5 -54t55.5 -20q41 0 69 27t28 67q0 34 -21.5 55t-56.5 21q-41 0 -68 -27.5t-27 -68.5z" />
    <glyph glyph-name="tildecomb.case" 
d="M326 1270q21 109 86.5 168t154.5 59q34 0 68 -11t51 -21.5t47 -30.5q60 -43 96 -43q54 0 82 86l168 -52q-21 -109 -87.5 -168t-155.5 -59q-34 0 -67.5 11.5t-51.5 22.5t-47 32l-10.5 7t-10 6.5t-9 6t-9.5 6l-9 4.5t-10 4.5t-9.5 3.5t-9.5 3t-9.5 1.5t-10.5 0.5
q-53 0 -81 -86z" />
    <glyph glyph-name="uni0304.case" 
d="M389 1233l21 197h600l-19 -197h-602z" />
    <glyph glyph-name="uni0315.case" 
d="M539 983q123 100 157 193q-8 -2 -26 -2q-58 0 -93.5 36.5t-35.5 92.5q0 68 46.5 111.5t112.5 43.5q65 0 107.5 -48.5t42.5 -125.5q0 -106 -69 -204t-179 -177z" />
    <glyph glyph-name="uni0326.case" 
d="M446 -543q63 76 80 144q-6 -2 -22 -2q-59 0 -93 33t-34 85q0 61 46 100.5t109 39.5q67 0 110.5 -44.5t43.5 -117.5q0 -57 -28 -123.5t-70 -114.5h-142z" />
    <glyph glyph-name="uni0327.case" 
d="M215 -375l293 451h203l-215 -451h-281z" />
    <glyph glyph-name="uni0328.case" 
d="M573 -473q-112 0 -176.5 53.5t-64.5 143.5q0 115 89.5 200.5t229.5 122.5l84 -47q-86 -58 -132 -108t-46 -105q0 -61 84 -61q34 0 68 10l-21 -197q-52 -12 -115 -12z" />
    <glyph glyph-name="uni0308.narrow" 
d="M504 1208q-55 0 -91 35.5t-36 93.5q0 69 43.5 116.5t111.5 47.5q54 0 89.5 -35t35.5 -92q0 -72 -43.5 -119t-109.5 -47zM745 1337q0 68 44.5 116t111.5 48q55 0 90 -34.5t35 -92.5q0 -72 -44 -119t-110 -47q-55 0 -91 35.5t-36 93.5z" />
    <glyph glyph-name="gravecomb.narrow" 
d="M668 1200l-142 301h281l76 -301h-215z" />
    <glyph glyph-name="acutecomb.narrow" 
d="M487 1200l142 301h289l-205 -301h-226z" />
    <glyph glyph-name="uni0302.narrow" 
d="M365 1200l251 301h203l187 -301h-205l-94 150l-125 -150h-217z" />
    <glyph glyph-name="uni030C.narrow" 
d="M584 1200l-187 301h205l94 -149l125 149h217l-252 -301h-202z" />
    <glyph glyph-name="uni0306.narrow" 
d="M690 1198q-134 0 -199 76.5t-53 220.5h174q-7 -73 16.5 -109t71.5 -36q49 0 81.5 36.5t39.5 108.5h172q-30 -297 -303 -297z" />
    <glyph glyph-name="tildecomb.narrow" 
d="M369 1270q20 101 77 158t132 57q65 0 149 -60q49 -39 82 -39q54 0 76 82l149 -45q-20 -100 -77 -157.5t-132 -57.5q-71 0 -151 62q-50 37 -82 37q-52 0 -74 -82z" />
    <glyph glyph-name="uni0304.narrow" 
d="M426 1245l20 185h527l-21 -185h-526z" />
    <glyph glyph-name="uni0328.narrow" 
d="M580 -449q-98 0 -154.5 49.5t-56.5 131.5q0 107 80 191.5t200 117.5l76 -41q-73 -59 -110 -105.5t-37 -97.5q0 -59 65 -59q22 0 55 10l-20 -184q-50 -13 -98 -13z" />
    </font>
</defs>
</svg>
