<?xml version="1.0" standalone="no"?>
<!DOCTYPE svg PUBLIC "-//W3C//DTD SVG 1.1//EN" "http://www.w3.org/Graphics/SVG/1.1/DTD/svg11.dtd" >
<svg xmlns="http://www.w3.org/2000/svg" xmlns:xlink="http://www.w3.org/1999/xlink" version="1.1">
<metadata>
Created by FontForge 20201107 at Mon Nov  4 15:40:52 2024
 By 
Copyright (c) Andrew Lethbridge
</metadata>
<defs>
<font id="BRCandor-Bold" horiz-adv-x="0" >
  <font-face 
    font-family="BR Candor"
    font-weight="700"
    font-stretch="normal"
    units-per-em="2048"
    panose-1="0 0 0 0 0 0 0 0 0 0"
    ascent="1577"
    descent="-471"
    x-height="1053"
    cap-height="1434"
    bbox="-410 -557 2658 1987"
    underline-thickness="208"
    underline-position="-390"
    unicode-range="U+000D-2B51"
  />
<missing-glyph horiz-adv-x="1492" 
d="M158 0v1434h1179v-1434h-1179zM451 1018l118 -80q72 127 195 127q54 0 85.5 -25t31.5 -75q0 -55 -62 -105l-65 -53q-66 -54 -86.5 -93t-20.5 -108v-63h156v57q0 41 10.5 61t46.5 50l60 49q66 55 93 104.5t27 106.5q0 106 -76 171.5t-198 65.5q-107 0 -190.5 -52
t-124.5 -138zM621 322q0 -47 29 -77t75 -30t75 30t29 77t-29 76.5t-75 29.5t-75 -29.5t-29 -76.5z" />
    <glyph glyph-name=".notdef" horiz-adv-x="1492" 
d="M158 0v1434h1179v-1434h-1179zM451 1018l118 -80q72 127 195 127q54 0 85.5 -25t31.5 -75q0 -55 -62 -105l-65 -53q-66 -54 -86.5 -93t-20.5 -108v-63h156v57q0 41 10.5 61t46.5 50l60 49q66 55 93 104.5t27 106.5q0 106 -76 171.5t-198 65.5q-107 0 -190.5 -52
t-124.5 -138zM621 322q0 -47 29 -77t75 -30t75 30t29 77t-29 76.5t-75 29.5t-75 -29.5t-29 -76.5z" />
    <glyph glyph-name=".null" 
 />
    <glyph glyph-name="nonmarkingreturn" horiz-adv-x="682" 
 />
    <glyph glyph-name="CR" unicode="&#xd;" horiz-adv-x="489" 
 />
    <glyph glyph-name="space" unicode=" " horiz-adv-x="489" 
 />
    <glyph glyph-name="exclam" unicode="!" horiz-adv-x="583" 
d="M166 500l-27 934h305l-26 -934h-252zM100 174q0 85 54 139t139 54q83 0 136.5 -54t53.5 -139t-53.5 -138.5t-136.5 -53.5q-85 0 -139 53.5t-54 138.5z" />
    <glyph glyph-name="quotedbl" unicode="&#x22;" horiz-adv-x="868" 
d="M119 879l-43 579h301l-43 -579h-215zM492 1458h301l-43 -579h-215z" />
    <glyph glyph-name="numbersign" unicode="#" horiz-adv-x="1480" 
d="M741 31l70 350h-272l-70 -350h-244l70 350h-199v215h240l49 242h-203v215h244l70 350h243l-69 -350h272l70 350h243l-69 -350h198v-215h-239l-49 -242h202v-215h-243l-70 -350h-244zM580 596h272l49 242h-272z" />
    <glyph glyph-name="dollar" unicode="$" horiz-adv-x="1165" 
d="M530 -86v129q-267 19 -458 174l157 213q154 -110 301 -131v322l-100 24q-163 40 -246.5 127.5t-83.5 218.5q0 167 120 276.5t321 121.5v131h121v-134q242 -21 411 -180l-174 -188q-110 95 -237 117v-295l106 -27q162 -38 246 -123t84 -231q0 -179 -118.5 -291
t-328.5 -125v-129h-121zM371 1008q0 -49 38 -81.5t132 -56.5v269q-81 -7 -125.5 -44t-44.5 -87zM651 295q84 9 130 49.5t46 97.5q0 56 -42.5 91t-133.5 59v-297z" />
    <glyph glyph-name="percent" unicode="%" horiz-adv-x="1863" 
d="M344 0l905 1434h269l-904 -1434h-270zM61 1081q0 161 109.5 269t273.5 108t273.5 -108t109.5 -269q0 -163 -109.5 -271t-273.5 -108t-273.5 108t-109.5 271zM285 1081q0 -76 44 -124t115 -48t115.5 48t44.5 124q0 75 -44 122.5t-116 47.5t-115.5 -47.5t-43.5 -122.5z
M1036 352q0 163 109.5 271t273.5 108t273.5 -108t109.5 -271q0 -161 -109.5 -269t-273.5 -108t-273.5 108t-109.5 269zM1260 352q0 -75 43.5 -122.5t115.5 -47.5q71 0 115.5 47.5t44.5 122.5q0 76 -44.5 124t-115.5 48q-72 0 -115.5 -47.5t-43.5 -124.5z" />
    <glyph glyph-name="ampersand" unicode="&#x26;" horiz-adv-x="1376" 
d="M1061 0l-94 106q-167 -131 -402 -131q-229 0 -364 112t-135 286q0 242 286 409q-157 180 -157 330q0 148 113.5 247t297.5 99q177 0 287.5 -93t110.5 -241q0 -225 -265 -376l-20 -13l233 -264q61 98 109 215l227 -106q-76 -184 -164 -306l240 -274h-303zM356 395
q0 -80 57 -126t162 -46q117 0 211 64l-282 321q-148 -86 -148 -213zM463 1104q0 -78 92 -180l20 -25l31 19q142 81 142 180q0 59 -40.5 95t-103.5 36t-102 -35.5t-39 -89.5z" />
    <glyph glyph-name="quotesingle" unicode="'" horiz-adv-x="452" 
d="M119 879l-43 579h301l-43 -579h-215z" />
    <glyph glyph-name="parenleft" unicode="(" horiz-adv-x="708" 
d="M449 -254q-162 179 -250 418t-88 481t88 481t250 418l219 -135q-118 -146 -189 -353t-71 -411t71 -411t189 -353z" />
    <glyph glyph-name="parenright" unicode=")" horiz-adv-x="708" 
d="M41 -119q118 146 189 353t71 411t-71 411t-189 353l219 135q162 -179 250 -418t88 -481t-88 -481t-250 -418z" />
    <glyph glyph-name="asterisk" unicode="*" horiz-adv-x="1038" 
d="M174 735l191 240l-293 82l67 205l285 -109l-12 305h213l-13 -305l287 107l66 -205l-293 -80l188 -240l-174 -125l-168 256l-168 -254z" />
    <glyph glyph-name="plus" unicode="+" horiz-adv-x="1331" 
d="M526 166v352h-325v262h325v353h279v-353h325v-262h-325v-352h-279z" />
    <glyph glyph-name="comma" unicode="," horiz-adv-x="536" 
d="M113 -256q127 124 155 254h-10q-82 0 -134 50t-52 128q0 80 53.5 132t136.5 52q90 0 146 -65t55 -180q0 -126 -68 -252.5t-190 -222.5z" />
    <glyph glyph-name="hyphen" unicode="-" horiz-adv-x="786" 
d="M70 506v254h647v-254h-647z" />
    <glyph glyph-name="period" unicode="." horiz-adv-x="528" 
d="M264 -18q-84 0 -138 54t-54 138t54 138.5t138 54.5q83 0 137 -54t54 -139q0 -84 -53.5 -138t-137.5 -54z" />
    <glyph glyph-name="slash" unicode="/" horiz-adv-x="1079" 
d="M18 -188l758 1708h287l-758 -1708h-287z" />
    <glyph glyph-name="zero" unicode="0" horiz-adv-x="1390" 
d="M696 -25q-281 0 -440.5 194.5t-159.5 547.5t159.5 547t440.5 194q279 0 438.5 -194t159.5 -547t-159.5 -547.5t-438.5 -194.5zM401 717q0 -467 295 -467q293 0 293 467t-293 467q-295 0 -295 -467z" />
    <glyph glyph-name="one" unicode="1" horiz-adv-x="888" 
d="M420 0v1104l-342 -170v301l387 199h256v-1434h-301z" />
    <glyph glyph-name="two" unicode="2" horiz-adv-x="1183" 
d="M80 0v236l493 460q118 111 164.5 184.5t46.5 137.5q0 76 -50.5 121t-131.5 45q-90 0 -172.5 -57.5t-148.5 -172.5l-234 156q87 168 234 258t331 90q213 0 343 -118t130 -308q0 -111 -52.5 -215.5t-182.5 -226.5l-338 -316h594v-274h-1026z" />
    <glyph glyph-name="three" unicode="3" horiz-adv-x="1159" 
d="M557 -25q-159 0 -295 52t-231 151l172 211q154 -145 340 -145q114 0 177.5 50.5t63.5 129.5q0 81 -71.5 127.5t-212.5 46.5h-131v264h153q116 0 179 46t63 122q0 71 -55 116.5t-154 45.5q-172 0 -317 -164l-191 184q187 246 522 246q227 0 360.5 -110t133.5 -291
q0 -118 -58.5 -203t-170.5 -121q121 -38 185 -127.5t64 -214.5q0 -184 -141.5 -300t-384.5 -116z" />
    <glyph glyph-name="four" unicode="4" horiz-adv-x="1267" 
d="M780 0v281h-717v243l654 910h346v-908h174v-245h-174v-281h-283zM362 526h418v580z" />
    <glyph glyph-name="five" unicode="5" horiz-adv-x="1196" 
d="M575 -25q-308 0 -520 197l170 215q160 -139 344 -139q126 0 196.5 57.5t70.5 155.5q0 96 -64 153.5t-174 57.5q-134 0 -246 -84l-213 114l27 732h878v-275h-610l-10 -278q99 45 231 45q214 0 347 -123.5t133 -341.5q0 -226 -151.5 -356t-408.5 -130z" />
    <glyph glyph-name="six" unicode="6" horiz-adv-x="1253" 
d="M633 -25q-159 0 -283.5 63t-197 185t-72.5 283q0 266 217 551l287 377h354l-352 -453q44 8 98 8q217 0 362.5 -141t145.5 -359q0 -224 -157.5 -369t-401.5 -145zM375 510q0 -127 70.5 -199.5t191.5 -72.5q120 0 190 68.5t70 180.5q0 110 -70 179t-190 69q-125 0 -238 -73
q-24 -80 -24 -152z" />
    <glyph glyph-name="seven" unicode="7" horiz-adv-x="1103" 
d="M166 0l555 1159h-674v275h1010v-238l-559 -1196h-332z" />
    <glyph glyph-name="eight" unicode="8" horiz-adv-x="1265" 
d="M633 -25q-262 0 -409.5 119t-147.5 305q0 119 56.5 210t164.5 145q-170 105 -170 307q0 171 135 284t371 113q235 0 369.5 -113t134.5 -284q0 -202 -170 -307q108 -54 164.5 -145.5t56.5 -209.5q0 -186 -147 -305t-408 -119zM377 428q0 -90 67.5 -146.5t188.5 -56.5
t187.5 56t66.5 147q0 89 -66.5 145t-187.5 56t-188.5 -56t-67.5 -145zM426 1036q0 -79 56.5 -127.5t150.5 -48.5t149.5 48.5t55.5 127.5q0 78 -55.5 126t-149.5 48t-150.5 -48.5t-56.5 -125.5z" />
    <glyph glyph-name="nine" unicode="9" horiz-adv-x="1253" 
d="M621 1458q159 0 283.5 -63t197 -184.5t72.5 -282.5q0 -265 -218 -551l-286 -377h-355l353 453q-50 -9 -99 -9q-217 0 -362.5 141t-145.5 359q0 224 158 369t402 145zM356 946q0 -110 70 -179t190 -69q124 0 238 74q25 83 25 152q0 127 -71 199.5t-192 72.5
q-120 0 -190 -69t-70 -181z" />
    <glyph glyph-name="colon" unicode=":" horiz-adv-x="528" 
d="M264 -20q-84 0 -138 54t-54 138t54 138.5t138 54.5q83 0 137 -54t54 -139q0 -84 -53.5 -138t-137.5 -54zM72 815q0 85 54 139t138 54q83 0 137 -54t54 -139t-53.5 -138.5t-137.5 -53.5t-138 54t-54 138z" />
    <glyph glyph-name="semicolon" unicode=";" horiz-adv-x="538" 
d="M266 623q-84 0 -138 54t-54 138q0 85 54 139t138 54q83 0 137 -54t54 -139t-53.5 -138.5t-137.5 -53.5zM74 174q0 80 53.5 132t136.5 52q90 0 146 -65t55 -180q0 -126 -68 -252.5t-190 -222.5l-92 104q127 124 155 254h-10q-82 0 -134 50t-52 128z" />
    <glyph glyph-name="less" unicode="&#x3c;" horiz-adv-x="1331" 
d="M1130 170l-929 350v258l929 350v-280l-548 -199l548 -198v-281z" />
    <glyph glyph-name="equal" unicode="=" horiz-adv-x="1331" 
d="M201 737v262h929v-262h-929zM201 299v262h929v-262h-929z" />
    <glyph glyph-name="greater" unicode="&#x3e;" horiz-adv-x="1331" 
d="M201 170v281l549 198l-549 199v280l929 -350v-258z" />
    <glyph glyph-name="question" unicode="?" horiz-adv-x="991" 
d="M315 580q0 103 30.5 159.5t139.5 145.5l93 78q73 62 73 120q0 52 -34 82.5t-97 30.5q-162 0 -231 -205l-250 101q40 169 168.5 267.5t312.5 98.5q186 0 302 -98t116 -260q0 -86 -40 -158.5t-138 -153.5l-86 -71q-47 -41 -59.5 -67t-12.5 -85v-65h-287v80zM266 174
q0 85 54 139t139 54q83 0 136.5 -54t53.5 -139t-53.5 -138.5t-136.5 -53.5q-85 0 -139 53.5t-54 138.5z" />
    <glyph glyph-name="at" unicode="@" horiz-adv-x="1982" 
d="M1026 -401q-272 0 -485 112t-332 314.5t-119 461.5q0 197 73 368t197.5 290t296 186.5t363.5 67.5q181 0 343.5 -60.5t282 -166t189.5 -258t70 -328.5q0 -239 -115.5 -385t-304.5 -146q-83 0 -152.5 31t-113.5 88q-111 -100 -269 -100q-164 0 -278.5 119.5t-114.5 300.5
q0 180 114.5 299.5t278.5 119.5q119 0 203 -63v45h246v-510q0 -59 27 -91t73 -32q71 0 117.5 77t46.5 220q0 113 -32 210t-89.5 169.5t-137 124.5t-177 78t-205.5 26q-199 0 -354.5 -85.5t-241.5 -239.5t-86 -350q0 -298 190 -480t500 -182q228 0 377 86l102 -203
q-194 -114 -483 -114zM807 494q0 -87 51 -140t133 -53q98 0 162 70v14v229q-65 74 -162 74q-82 0 -133 -53.5t-51 -140.5z" />
    <glyph glyph-name="A" unicode="A" horiz-adv-x="1476" 
d="M16 0l545 1434h354l545 -1434h-321l-113 303h-575l-113 -303h-322zM545 563h387l-193 524z" />
    <glyph glyph-name="B" unicode="B" horiz-adv-x="1419" 
d="M158 0v1434h575q243 0 374.5 -102t131.5 -288q0 -187 -143 -276q239 -86 239 -342q0 -200 -141.5 -313t-400.5 -113h-635zM457 256h327q117 0 177.5 49.5t60.5 136.5q0 86 -60.5 136.5t-177.5 50.5h-327v-373zM457 877h286q94 0 143.5 40t49.5 111q0 73 -49 111.5
t-144 38.5h-286v-301z" />
    <glyph glyph-name="C" unicode="C" horiz-adv-x="1531" 
d="M827 -25q-210 0 -379 94t-265.5 263.5t-96.5 382.5t97.5 383.5t267 265t378.5 94.5q206 0 377.5 -97t268.5 -274l-267 -155q-55 114 -155.5 175.5t-225.5 61.5q-185 0 -306.5 -126t-121.5 -326t121.5 -326.5t306.5 -126.5q126 0 227.5 62.5t155.5 175.5l267 -154
q-96 -178 -268.5 -275.5t-381.5 -97.5z" />
    <glyph glyph-name="D" unicode="D" horiz-adv-x="1456" 
d="M158 0v1434h475q217 0 383 -84.5t260 -248t94 -384.5q0 -219 -94 -382.5t-260.5 -249t-382.5 -85.5h-475zM459 287h166q205 0 319.5 111t114.5 319t-114.5 319t-319.5 111h-166v-860z" />
    <glyph glyph-name="E" unicode="E" horiz-adv-x="1290" 
d="M158 0v1434h1022v-281h-721v-272h620v-279h-620v-321h721v-281h-1022z" />
    <glyph glyph-name="F" unicode="F" horiz-adv-x="1275" 
d="M158 0v1434h1022v-281h-721v-324h659v-280h-659v-549h-301z" />
    <glyph glyph-name="G" unicode="G" horiz-adv-x="1576" 
d="M846 -25q-220 0 -393.5 94.5t-270 262.5t-96.5 381q0 214 98 385t267.5 265.5t377.5 94.5q180 0 334 -73.5t258 -210.5l-258 -166q-122 161 -336 161q-187 0 -308.5 -125.5t-121.5 -328.5q0 -205 124.5 -328t334.5 -123q176 0 320 80v246h-308v262h590v-668
q-121 -99 -280.5 -154t-331.5 -55z" />
    <glyph glyph-name="H" unicode="H" horiz-adv-x="1554" 
d="M158 0v1434h301v-553h637v553h301v-1434h-301v594h-637v-594h-301z" />
    <glyph glyph-name="I" unicode="I" horiz-adv-x="616" 
d="M158 0v1434h301v-1434h-301z" />
    <glyph glyph-name="J" unicode="J" horiz-adv-x="1196" 
d="M522 -25q-258 0 -473 144l146 258q185 -111 321 -111q112 0 174 66t62 194v908h303v-932q0 -258 -139.5 -392.5t-393.5 -134.5z" />
    <glyph glyph-name="K" unicode="K" horiz-adv-x="1490" 
d="M158 0v1434h301v-652l616 652h377l-604 -646l629 -788h-381l-457 567l-180 -192v-375h-301z" />
    <glyph glyph-name="L" unicode="L" horiz-adv-x="1187" 
d="M158 0v1434h301v-1147h661v-287h-962z" />
    <glyph glyph-name="M" unicode="M" horiz-adv-x="1978" 
d="M158 0v1434h383l448 -1000l449 1000h385v-1434h-299v958l-412 -917h-246l-411 917v-958h-297z" />
    <glyph glyph-name="N" unicode="N" horiz-adv-x="1576" 
d="M158 0v1434h307l651 -928v928h303v-1434h-307l-653 932v-932h-301z" />
    <glyph glyph-name="O" unicode="O" horiz-adv-x="1650" 
d="M825 -25q-155 0 -291.5 55.5t-235 153t-155.5 236t-57 297.5q0 212 97 382t266 264.5t376 94.5t376 -94.5t266.5 -264.5t97.5 -382t-97.5 -382.5t-266.5 -265t-376 -94.5zM397 717q0 -200 121.5 -326.5t306.5 -126.5t306.5 126.5t121.5 326.5t-121.5 326t-306.5 126
t-306.5 -126t-121.5 -326z" />
    <glyph glyph-name="P" unicode="P" horiz-adv-x="1343" 
d="M158 0v1434h583q246 0 386.5 -126t140.5 -345q0 -220 -140.5 -347t-386.5 -127h-282v-489h-301zM459 774h262q118 0 176.5 49t58.5 140q0 90 -58.5 138t-176.5 48h-262v-375z" />
    <glyph glyph-name="Q" unicode="Q" horiz-adv-x="1650" 
d="M1350 -303l-308 307q-113 -29 -217 -29q-155 0 -291.5 55.5t-235 153t-155.5 236t-57 297.5q0 212 97 382t266 264.5t376 94.5t376 -94.5t266.5 -264.5t97.5 -382q0 -166 -61 -307.5t-171 -241.5l250 -250zM397 717q0 -200 121.5 -326.5t306.5 -126.5t306.5 126.5
t121.5 326.5t-121.5 326t-306.5 126t-306.5 -126t-121.5 -326z" />
    <glyph glyph-name="R" unicode="R" horiz-adv-x="1413" 
d="M158 0v1434h614q233 0 371.5 -126.5t138.5 -338.5q0 -167 -88 -283.5t-244 -159.5l398 -526h-365l-365 504h-159v-504h-301zM459 786h289q109 0 166 48t57 135t-57 133.5t-166 46.5h-289v-363z" />
    <glyph glyph-name="S" unicode="S" horiz-adv-x="1243" 
d="M631 -25q-162 0 -312.5 50t-263.5 143l174 238q215 -154 414 -154q114 0 176 45.5t62 118.5q0 58 -47 97.5t-160 66.5l-223 53q-365 87 -365 385q0 194 147 317t392 123q153 0 290.5 -51.5t243.5 -151.5l-196 -211q-158 140 -347 140q-110 0 -168.5 -41.5t-58.5 -108.5
q0 -53 45 -88t164 -63l223 -54q186 -44 275.5 -140t89.5 -253q0 -210 -148 -335.5t-407 -125.5z" />
    <glyph glyph-name="T" unicode="T" horiz-adv-x="1259" 
d="M477 0v1147h-434v287h1171v-287h-434v-1147h-303z" />
    <glyph glyph-name="U" unicode="U" horiz-adv-x="1499" 
d="M750 -25q-286 0 -446.5 157.5t-160.5 449.5v852h301v-822q0 -175 79 -261.5t227 -86.5t226.5 86.5t78.5 261.5v822h303v-852q0 -292 -161 -449.5t-447 -157.5z" />
    <glyph glyph-name="V" unicode="V" horiz-adv-x="1443" 
d="M547 0l-531 1434h322l385 -1076l383 1076h321l-530 -1434h-350z" />
    <glyph glyph-name="W" unicode="W" horiz-adv-x="2168" 
d="M463 0l-424 1434h319l275 -953l317 953h271l317 -949l274 949h318l-422 -1434h-301l-322 991l-321 -991h-301z" />
    <glyph glyph-name="X" unicode="X" horiz-adv-x="1394" 
d="M35 0l465 750l-439 684h340l297 -469l295 469h340l-438 -684l465 -750h-344l-318 516l-319 -516h-344z" />
    <glyph glyph-name="Y" unicode="Y" horiz-adv-x="1341" 
d="M518 0v563l-512 871h340l326 -564l323 564h340l-512 -871v-563h-305z" />
    <glyph glyph-name="Z" unicode="Z" horiz-adv-x="1265" 
d="M96 0v238l668 909h-655v287h1046v-238l-668 -909h682v-287h-1073z" />
    <glyph glyph-name="bracketleft" unicode="[" horiz-adv-x="761" 
d="M145 -233v1753h553v-260h-266v-1233h266v-260h-553z" />
    <glyph glyph-name="backslash" unicode="\" horiz-adv-x="960" 
d="M657 -188l-639 1708h287l639 -1708h-287z" />
    <glyph glyph-name="bracketright" unicode="]" horiz-adv-x="761" 
d="M616 -233h-553v260h267v1233h-267v260h553v-1753z" />
    <glyph glyph-name="asciicircum" unicode="^" horiz-adv-x="1144" 
d="M55 860l377 574h279l376 -574h-319l-197 324l-196 -324h-320z" />
    <glyph glyph-name="underscore" unicode="_" horiz-adv-x="911" 
d="M25 -324v232h864v-232h-864z" />
    <glyph glyph-name="grave" unicode="`" horiz-adv-x="1228" 
d="M547 1198l-221 311h325l156 -311h-260z" />
    <glyph glyph-name="a" unicode="a" horiz-adv-x="1306" 
d="M598 -25q-142 0 -261 70.5t-189 197.5t-70 283q0 238 151 394.5t369 156.5q163 0 283 -94v70h286v-1053h-286v70q-121 -95 -283 -95zM369 526q0 -129 77 -207.5t197 -78.5q146 0 238 108v359q-93 106 -238 106q-120 0 -197 -79t-77 -208z" />
    <glyph glyph-name="b" unicode="b" horiz-adv-x="1306" 
d="M709 -25q-162 0 -283 95v-70h-287v1511h287v-528q120 94 283 94q218 0 369 -156.5t151 -394.5q0 -156 -70 -283t-189 -197.5t-261 -70.5zM426 348q92 -108 238 -108q120 0 197 78.5t77 207.5t-77 208t-197 79q-145 0 -238 -106v-359z" />
    <glyph glyph-name="c" unicode="c" horiz-adv-x="1157" 
d="M635 -25q-157 0 -284 68.5t-200 194t-73 284.5q0 161 75 288.5t203 197t285 69.5q146 0 267.5 -59t201.5 -168l-221 -176q-107 139 -250 139q-116 0 -192 -80t-76 -207q0 -129 77.5 -207.5t194.5 -78.5q159 0 266 147l211 -160q-76 -120 -203.5 -186t-281.5 -66z" />
    <glyph glyph-name="d" unicode="d" horiz-adv-x="1306" 
d="M598 -25q-142 0 -261 70.5t-189 197.5t-70 283q0 238 151 394.5t369 156.5q163 0 283 -94v528h286v-1511h-286v70q-121 -95 -283 -95zM369 526q0 -129 77 -207.5t197 -78.5q146 0 238 108v359q-93 106 -238 106q-120 0 -197 -79t-77 -208z" />
    <glyph glyph-name="e" unicode="e" horiz-adv-x="1253" 
d="M649 -25q-259 0 -415 151t-156 392q0 245 159 402t410 157q234 0 380.5 -141.5t146.5 -380.5q0 -41 -7 -102h-805q19 -115 94 -174.5t197 -59.5q171 0 287 133l201 -151q-179 -226 -492 -226zM375 655h512q-20 92 -83 138.5t-161 46.5q-101 0 -170 -47t-98 -138z" />
    <glyph glyph-name="f" unicode="f" horiz-adv-x="878" 
d="M227 1094q0 215 110.5 328.5t309.5 113.5q121 0 232 -43l-45 -244q-74 23 -134 23q-186 0 -186 -185v-34h332v-252h-332v-801h-287v801h-202v252h202v41z" />
    <glyph glyph-name="g" unicode="g" horiz-adv-x="1304" 
d="M614 -471q-155 0 -290 51.5t-232 143.5l170 210q178 -141 346 -141q128 0 200.5 65.5t72.5 178.5v80q-123 -97 -289 -97q-141 0 -258.5 68t-186.5 189t-69 270q0 111 40.5 210t109.5 169t164 110.5t200 40.5q167 0 289 -96v72h286v-1016q0 -237 -148.5 -372.5
t-404.5 -135.5zM369 547q0 -118 76 -193t192 -75q146 0 244 110v316q-98 110 -244 110q-116 0 -192 -75.5t-76 -192.5z" />
    <glyph glyph-name="h" unicode="h" horiz-adv-x="1265" 
d="M852 571q0 119 -52.5 180.5t-146.5 61.5q-130 0 -229 -111v-702h-287v1511h287v-538q128 104 307 104q185 0 296.5 -117t111.5 -327v-633h-287v571z" />
    <glyph glyph-name="i" unicode="i" horiz-adv-x="563" 
d="M137 0v1053h287v-1053h-287zM104 1354q0 71 52.5 122.5t126.5 51.5q72 0 124 -51.5t52 -122.5q0 -73 -52 -124.5t-124 -51.5q-75 0 -127 51t-52 125z" />
    <glyph glyph-name="j" unicode="j" horiz-adv-x="563" 
d="M51 -471q-118 0 -211 37l39 256q79 -21 119 -21q69 0 104 43t35 136v1073h287v-1104q0 -216 -93 -318t-280 -102zM104 1354q0 71 52.5 122.5t126.5 51.5q72 0 124 -51.5t52 -122.5q0 -73 -52 -124.5t-124 -51.5q-75 0 -127 51t-52 125z" />
    <glyph glyph-name="k" unicode="k" horiz-adv-x="1255" 
d="M137 0v1511h287v-880l434 422h367l-457 -453l477 -600h-358l-318 403l-145 -145v-258h-287z" />
    <glyph glyph-name="l" unicode="l" horiz-adv-x="563" 
d="M137 0v1511h287v-1511h-287z" />
    <glyph glyph-name="m" unicode="m" horiz-adv-x="1902" 
d="M1487 582q0 115 -45.5 173t-124.5 58q-119 0 -219 -115q2 -18 2 -55v-643h-287v582q0 115 -46.5 173t-125.5 58q-116 0 -217 -113v-700h-287v1053h287v-80q132 104 297 104q205 0 309 -159q159 159 367 159q171 0 274 -115t103 -319v-643h-287v582z" />
    <glyph glyph-name="n" unicode="n" horiz-adv-x="1265" 
d="M852 571q0 119 -52.5 180.5t-146.5 61.5q-130 0 -229 -111v-702h-287v1053h287v-80q128 104 307 104q185 0 296.5 -117t111.5 -327v-633h-287v571z" />
    <glyph glyph-name="o" unicode="o" horiz-adv-x="1280" 
d="M639 -25q-243 0 -402 156.5t-159 394.5q0 239 159 395t402 156q244 0 402.5 -156t158.5 -395q0 -238 -158.5 -394.5t-402.5 -156.5zM369 526q0 -126 76.5 -206t193.5 -80q118 0 194 79.5t76 206.5q0 128 -76 207.5t-194 79.5q-117 0 -193.5 -79.5t-76.5 -207.5z" />
    <glyph glyph-name="p" unicode="p" horiz-adv-x="1306" 
d="M709 -25q-165 0 -285 97v-518h-287v1499h287v-72q119 96 285 96q142 0 260 -70t188 -197t70 -284q0 -156 -70 -283t-188.5 -197.5t-259.5 -70.5zM424 350q94 -110 238 -110q121 0 197.5 78.5t76.5 207.5t-76.5 208t-197.5 79q-144 0 -238 -108v-355z" />
    <glyph glyph-name="q" unicode="q" horiz-adv-x="1306" 
d="M598 -25q-141 0 -259.5 70.5t-188.5 197.5t-70 283q0 157 70 284t188 197t260 70q166 0 285 -96v72h286v-1499h-286v518q-120 -97 -285 -97zM371 526q0 -129 76.5 -207.5t197.5 -78.5q144 0 238 110v355q-95 108 -238 108q-121 0 -197.5 -79t-76.5 -208z" />
    <glyph glyph-name="r" unicode="r" horiz-adv-x="845" 
d="M137 0v1053h287v-105q52 62 125.5 95.5t152.5 33.5q54 0 109 -14l-12 -264q-74 8 -94 8q-178 0 -281 -145v-662h-287z" />
    <glyph glyph-name="s" unicode="s" horiz-adv-x="1056" 
d="M541 -25q-135 0 -259.5 39t-213.5 107l137 217q174 -121 342 -121q73 0 113 24.5t40 65.5q0 31 -28.5 53t-96.5 39l-180 43q-157 36 -228 107.5t-71 185.5q0 155 117 248.5t319 93.5q128 0 243 -38.5t198 -106.5l-142 -205q-159 111 -309 111q-68 0 -104.5 -23.5
t-36.5 -60.5q0 -30 27 -49.5t96 -36.5l180 -43q159 -38 231 -111t72 -190q0 -160 -117.5 -254.5t-328.5 -94.5z" />
    <glyph glyph-name="t" unicode="t" horiz-adv-x="913" 
d="M618 -20q-196 0 -293.5 102.5t-97.5 316.5v402h-202v252h202v245h287v-245h313v-252h-313v-367q0 -99 40 -144.5t126 -45.5q69 0 151 26l35 -245q-112 -45 -248 -45z" />
    <glyph glyph-name="u" unicode="u" horiz-adv-x="1255" 
d="M524 -25q-182 0 -289.5 115t-107.5 322v641h287v-580q0 -116 49 -174.5t141 -58.5q131 0 227 110v703h287v-1053h-287v78q-130 -103 -307 -103z" />
    <glyph glyph-name="v" unicode="v" horiz-adv-x="1185" 
d="M434 0l-420 1053h318l262 -703l260 703h317l-417 -1053h-320z" />
    <glyph glyph-name="w" unicode="w" horiz-adv-x="1818" 
d="M373 0l-344 1053h303l207 -666l233 666h275l231 -662l207 662h305l-344 -1053h-297l-240 686l-239 -686h-297z" />
    <glyph glyph-name="x" unicode="x" horiz-adv-x="1155" 
d="M23 0l383 541l-369 512h319l222 -312l221 312h319l-368 -512l383 -541h-326l-229 328l-230 -328h-325z" />
    <glyph glyph-name="y" unicode="y" horiz-adv-x="1204" 
d="M283 -446l186 466l-455 1033h328l274 -664l263 664h311l-598 -1499h-309z" />
    <glyph glyph-name="z" unicode="z" horiz-adv-x="1050" 
d="M80 0v209l489 592h-483v252h879v-207l-488 -592h494v-254h-891z" />
    <glyph glyph-name="braceleft" unicode="{" horiz-adv-x="800" 
d="M537 -233q-156 0 -242 79.5t-86 219.5v323q0 65 -31 94t-100 29h-17v262h17q69 0 100 29t31 94v324q0 140 86 219.5t242 79.5h198v-258h-123q-63 0 -90.5 -27t-27.5 -90v-248q0 -203 -172 -250v-8q172 -47 172 -250v-248q0 -63 27.5 -89.5t90.5 -26.5h123v-258h-198z" />
    <glyph glyph-name="bar" unicode="|" horiz-adv-x="653" 
d="M199 -205v1772h256v-1772h-256z" />
    <glyph glyph-name="braceright" unicode="}" horiz-adv-x="800" 
d="M264 -233h-198v258h122q63 0 91 26.5t28 89.5v248q0 203 172 250v8q-172 47 -172 250v248q0 63 -28 90t-91 27h-122v258h198q156 0 242 -79.5t86 -219.5v-324q0 -65 31 -94t100 -29h16v-262h-16q-69 0 -100 -29t-31 -94v-323q0 -140 -86 -219.5t-242 -79.5z" />
    <glyph glyph-name="asciitilde" unicode="~" horiz-adv-x="1331" 
d="M881 469q-75 0 -215 48t-215 48q-67 0 -124 -20.5t-126 -67.5v262q122 88 254 88q72 0 214 -49t210 -49q143 0 251 90v-262q-124 -88 -249 -88z" />
    <glyph glyph-name="uni00A0" unicode="&#xa0;" horiz-adv-x="489" 
 />
    <glyph glyph-name="exclamdown" unicode="&#xa1;" horiz-adv-x="583" 
d="M166 559h252l26 -934h-305zM100 885q0 85 54 138.5t139 53.5q83 0 136.5 -53.5t53.5 -138.5t-53.5 -139t-136.5 -54q-85 0 -139 54t-54 139z" />
    <glyph glyph-name="cent" unicode="&#xa2;" horiz-adv-x="1097" 
d="M553 0v193q-206 20 -336.5 162.5t-130.5 355.5q0 214 131.5 358t335.5 168v197h121v-195q117 -11 218.5 -65.5t168.5 -145.5l-199 -168q-82 109 -188 131v-553q127 22 207 137l192 -149q-64 -102 -168 -163t-231 -73v-190h-121zM354 715q0 -105 55 -178t144 -95v547
q-89 -22 -144 -96.5t-55 -177.5z" />
    <glyph glyph-name="sterling" unicode="&#xa3;" horiz-adv-x="1146" 
d="M63 195q140 84 196 159t56 168q0 39 -10 84h-231v187h151q-30 53 -46.5 87t-31 87t-14.5 104q0 165 128 276t335 111q143 0 258 -56t190 -163l-208 -178q-106 135 -234 135q-76 0 -122 -39.5t-46 -101.5q0 -28 10 -63.5t19.5 -58t34 -72.5t32.5 -68h361v-187h-303
q4 -40 4 -61q0 -137 -88 -238q57 -2 132.5 -34.5t117.5 -32.5q44 0 78.5 26t72.5 94l207 -127q-106 -258 -332 -258q-64 0 -123 22t-114 44t-109 22q-96 0 -227 -88z" />
    <glyph glyph-name="currency" unicode="&#xa4;" horiz-adv-x="1128" 
d="M565 307q-122 0 -223 53l-139 -139l-133 133l137 138q-64 98 -64 225t64 225l-137 137l133 133l139 -139q101 53 223 53q123 0 221 -53l142 139l133 -133l-137 -135q63 -101 63 -227q0 -127 -63 -228l137 -135l-133 -133l-142 139q-98 -53 -221 -53zM395 717
q0 -78 47 -126t123 -48t122 48t46 126t-46 126t-122 48t-123 -48t-47 -126z" />
    <glyph glyph-name="yen" unicode="&#xa5;" horiz-adv-x="1187" 
d="M446 0v252h-346v174h346v152h-346v174h285l-354 682h307l256 -529l256 529h307l-354 -682h287v-174h-349v-152h349v-174h-349v-252h-295z" />
    <glyph glyph-name="brokenbar" unicode="&#xa6;" horiz-adv-x="653" 
d="M199 825v742h256v-742h-256zM199 -205v725h256v-725h-256z" />
    <glyph glyph-name="section" unicode="&#xa7;" horiz-adv-x="1093" 
d="M553 -274q-249 0 -459 145l137 217q171 -119 336 -119q73 0 113.5 29t40.5 80q0 42 -37 69t-131 48l-123 24q-321 68 -321 318q0 98 47.5 171.5t134.5 106.5q-185 89 -185 281q0 159 121 260.5t322 101.5q237 0 422 -143l-146 -209q-150 108 -282 108q-75 0 -116.5 -30
t-41.5 -80q0 -41 37.5 -67.5t132.5 -47.5l123 -24q321 -68 321 -320q0 -95 -46.5 -168t-131.5 -110q178 -91 178 -279q0 -160 -120.5 -261t-325.5 -101zM383 584q0 -56 31.5 -88t111.5 -50l74 -16q125 53 125 168q0 58 -34 90t-113 47l-78 17q-57 -23 -87 -67t-30 -101z" />
    <glyph glyph-name="dieresis" unicode="&#xa8;" horiz-adv-x="1228" 
d="M827 1200q-66 0 -111.5 45.5t-45.5 116.5q0 70 46 116t111 46q68 0 115 -46t47 -116q0 -71 -46.5 -116.5t-115.5 -45.5zM240 1362q0 70 46 116t113 46t113.5 -46t46.5 -116q0 -71 -46.5 -116.5t-113.5 -45.5t-113 45.5t-46 116.5z" />
    <glyph glyph-name="copyright" unicode="&#xa9;" horiz-adv-x="1667" 
d="M834 -25q-154 0 -292.5 58t-238.5 157t-158.5 236.5t-58.5 290.5t58.5 290t158.5 236t238.5 157t292.5 58t292.5 -58t238 -157t158 -236t58.5 -290q0 -204 -99 -374.5t-270.5 -269t-377.5 -98.5zM252 717q0 -121 44.5 -229.5t121 -187t185 -125t231.5 -46.5
q163 0 296 78.5t208 213.5t75 296t-75 296t-208 213.5t-296 78.5q-123 0 -231.5 -46.5t-185 -125t-121 -187t-44.5 -229.5zM457 715q0 171 114 281t285 110q102 0 188.5 -42t143.5 -120l-178 -149q-71 88 -156 88q-67 0 -110.5 -46.5t-43.5 -119.5q0 -75 45 -119.5
t113 -44.5q100 0 166 90l174 -133q-52 -85 -144 -132.5t-202 -47.5q-171 0 -283 107.5t-112 277.5z" />
    <glyph glyph-name="ordfeminine" unicode="&#xaa;" horiz-adv-x="1009" 
d="M467 629q-161 0 -274 118t-113 295q0 179 113 297.5t274 118.5q116 0 201 -63v45h241v-793h-241v45q-84 -63 -201 -63zM324 1042q0 -86 51 -138t133 -52q96 0 160 70v239q-64 72 -160 72q-82 0 -133 -52.5t-51 -138.5z" />
    <glyph glyph-name="guillemotleft" unicode="&#xab;" horiz-adv-x="1288" 
d="M383 129l-317 451l317 452h311l-313 -452l313 -451h-311zM582 580l317 452h311l-313 -452l313 -451h-311z" />
    <glyph glyph-name="logicalnot" unicode="&#xac;" horiz-adv-x="1331" 
d="M858 313v205h-657v262h929v-467h-272z" />
    <glyph glyph-name="registered" unicode="&#xae;" horiz-adv-x="1034" 
d="M518 602q-180 0 -306 125t-126 303t126 303t306 125q118 0 217 -57.5t156 -156t57 -214.5q0 -179 -125 -303.5t-305 -124.5zM197 1030q0 -136 93 -233t228 -97t227.5 97t92.5 233q0 135 -92.5 231.5t-227.5 96.5t-228 -96.5t-93 -231.5zM348 819v436h199
q75 0 117.5 -38.5t42.5 -108.5q0 -113 -103 -135l113 -154h-127l-98 148h-33v-148h-111zM459 1061h82q49 0 49 47q0 43 -49 43h-82v-90z" />
    <glyph glyph-name="macron" unicode="&#xaf;" horiz-adv-x="1228" 
d="M322 1233v213h585v-213h-585z" />
    <glyph glyph-name="degree" unicode="&#xb0;" horiz-adv-x="788" 
d="M393 801q-147 0 -242.5 93.5t-95.5 233.5q0 142 95.5 236t242.5 94q148 0 244 -94t96 -236q0 -140 -96 -233.5t-244 -93.5zM264 1128q0 -59 35.5 -95t93.5 -36q60 0 95.5 36t35.5 95t-36 96.5t-95 37.5q-58 0 -93.5 -37.5t-35.5 -96.5z" />
    <glyph glyph-name="plusminus" unicode="&#xb1;" horiz-adv-x="1331" 
d="M526 389v303h-325v262h325v303h279v-303h325v-262h-325v-303h-279zM201 0v262h929v-262h-929z" />
    <glyph glyph-name="uni00B2" unicode="&#xb2;" horiz-adv-x="671" 
d="M45 737v158l252 235q70 65 93.5 95t23.5 55q0 28 -20 43.5t-54 15.5q-83 0 -150 -104l-159 106q47 87 127.5 137t183.5 50q125 0 200.5 -67.5t75.5 -170.5q0 -61 -30 -114t-96 -113l-148 -139h281v-187h-580z" />
    <glyph glyph-name="uni00B3" unicode="&#xb3;" horiz-adv-x="657" 
d="M324 723q-181 0 -299 106l116 150q79 -68 170 -68q97 0 97 64q0 63 -107 63h-86v179h76q108 0 108 63q0 61 -84 61q-78 0 -151 -73l-133 131q108 129 291 129q130 0 205 -60.5t75 -162.5q0 -132 -119 -175q63 -23 96 -70t33 -110q0 -101 -76.5 -164t-211.5 -63z" />
    <glyph glyph-name="acute" unicode="&#xb4;" horiz-adv-x="1228" 
d="M406 1198l155 311h326l-221 -311h-260z" />
    <glyph glyph-name="uni00B5" unicode="&#xb5;" horiz-adv-x="1255" 
d="M731 -25q-181 0 -307 105v-526h-287v1499h287v-703q96 -110 229 -110q91 0 140 59t49 174v580h286v-641q0 -207 -107.5 -322t-289.5 -115z" />
    <glyph glyph-name="paragraph" unicode="&#xb6;" horiz-adv-x="1415" 
d="M504 -262v1055h-23q-166 0 -265 88.5t-99 232.5t104.5 232t292.5 88h264v-1696h-274zM944 -262v1696h275v-1696h-275z" />
    <glyph glyph-name="periodcentered" unicode="&#xb7;" horiz-adv-x="528" 
d="M264 457q-84 0 -138 54t-54 138q0 85 54 139t138 54q83 0 137 -54t54 -139t-53.5 -138.5t-137.5 -53.5z" />
    <glyph glyph-name="cedilla" unicode="&#xb8;" horiz-adv-x="1228" 
d="M322 -336l229 418h219l-158 -418h-290z" />
    <glyph glyph-name="uni00B9" unicode="&#xb9;" horiz-adv-x="516" 
d="M221 737v559l-166 -82v197l199 100h170v-774h-203z" />
    <glyph glyph-name="ordmasculine" unicode="&#xba;" horiz-adv-x="1007" 
d="M504 629q-184 0 -304 117t-120 296q0 180 120.5 298t303.5 118q184 0 304 -118t120 -298q0 -179 -120 -296t-304 -117zM324 1042q0 -85 51 -137.5t129 -52.5t128 52.5t50 137.5q0 86 -50 138.5t-128 52.5t-129 -52.5t-51 -138.5z" />
    <glyph glyph-name="guillemotright" unicode="&#xbb;" horiz-adv-x="1288" 
d="M905 129h-311l313 451l-313 452h311l318 -452zM78 129l313 451l-313 452h311l318 -452l-318 -451h-311z" />
    <glyph glyph-name="onequarter" unicode="&#xbc;" horiz-adv-x="1576" 
d="M154 0l1003 1434h232l-1004 -1434h-231zM66 1137v196l198 101h170v-775h-203v560zM864 141v166l332 467h238v-465h88v-168h-88v-141h-189v141h-381zM1063 309h182v258z" />
    <glyph glyph-name="onehalf" unicode="&#xbd;" horiz-adv-x="1662" 
d="M1004 0v158l251 235q70 65 93.5 95t23.5 55q0 28 -20 43.5t-54 15.5q-82 0 -149 -104l-160 106q47 87 127.5 137t183.5 50q125 0 201 -67.5t76 -170.5q0 -60 -30.5 -113.5t-96.5 -113.5l-147 -140h280v-186h-579zM66 1137v196l198 101h170v-775h-203v560zM154 0
l1003 1434h232l-1004 -1434h-231z" />
    <glyph glyph-name="threequarters" unicode="&#xbe;" horiz-adv-x="1687" 
d="M344 653q-179 0 -299 107l117 149q78 -67 170 -67q96 0 96 63q0 64 -106 64h-86v178h75q109 0 109 63q0 29 -21 45.5t-63 16.5q-78 0 -152 -74l-133 131q108 129 291 129q130 0 205.5 -60.5t75.5 -162.5q0 -131 -119 -174q63 -23 96 -70t33 -110q0 -101 -77 -164.5
t-212 -63.5zM266 0l1004 1434h231l-1003 -1434h-232zM977 141v166l332 467h237v-465h88v-168h-88v-141h-188v141h-381zM1176 309h182v258z" />
    <glyph glyph-name="questiondown" unicode="&#xbf;" horiz-adv-x="1011" 
d="M696 479q0 -103 -30.5 -159.5t-139.5 -145.5l-92 -78q-74 -63 -74 -121q0 -52 34.5 -82t97.5 -30q162 0 231 205l250 -101q-40 -169 -168.5 -267.5t-312.5 -98.5q-186 0 -302 98t-116 260q0 86 40 158t138 153l86 72q47 41 59.5 67.5t12.5 84.5v65h286v-80zM362 885
q0 85 54 138.5t137 53.5q85 0 138.5 -53.5t53.5 -138.5t-53.5 -139t-138.5 -54q-83 0 -137 54t-54 139z" />
    <glyph glyph-name="Agrave" unicode="&#xc0;" horiz-adv-x="1476" 
d="M16 0l545 1434h354l545 -1434h-321l-113 303h-575l-113 -303h-322zM399 1896h342l164 -329h-270zM545 563h387l-193 524z" />
    <glyph glyph-name="Aacute" unicode="&#xc1;" horiz-adv-x="1476" 
d="M16 0l545 1434h354l545 -1434h-321l-113 303h-575l-113 -303h-322zM545 563h387l-193 524zM557 1567l164 329h346l-236 -329h-274z" />
    <glyph glyph-name="Acircumflex" unicode="&#xc2;" horiz-adv-x="1476" 
d="M16 0l545 1434h354l545 -1434h-321l-113 303h-575l-113 -303h-322zM352 1567l242 329h291l241 -329h-258l-129 157l-129 -157h-258zM545 563h387l-193 524z" />
    <glyph glyph-name="Atilde" unicode="&#xc3;" horiz-adv-x="1476" 
d="M16 0l545 1434h354l545 -1434h-321l-113 303h-575l-113 -303h-322zM358 1649q15 116 77.5 178.5t150.5 62.5q33 0 66 -10t51 -19t51 -28q4 -2 14.5 -7.5t14.5 -7.5t13 -6t14 -6t12.5 -4t14 -3t13.5 -1q25 0 40.5 17.5t24.5 58.5l201 -55q-15 -115 -77 -178.5t-150 -63.5
q-71 0 -166 57q-65 37 -96 37q-26 0 -41.5 -18t-24.5 -60zM545 563h387l-193 524z" />
    <glyph glyph-name="Adieresis" unicode="&#xc4;" horiz-adv-x="1476" 
d="M16 0l545 1434h354l545 -1434h-321l-113 303h-575l-113 -303h-322zM340 1739q0 75 49 123.5t119 48.5q72 0 121 -48.5t49 -123.5q0 -74 -49 -122t-121 -48q-70 0 -119 48t-49 122zM545 563h387l-193 524zM801 1739q0 75 49 123.5t119 48.5q72 0 121 -48.5t49 -123.5
q0 -74 -49 -122t-121 -48q-70 0 -119 48t-49 122z" />
    <glyph glyph-name="Aring" unicode="&#xc5;" horiz-adv-x="1476" 
d="M16 0l545 1434h354l545 -1434h-321l-113 303h-575l-113 -303h-322zM494 1761q0 97 69.5 161.5t175.5 64.5t176 -64.5t70 -161.5t-70 -162t-176 -65q-105 0 -175 65t-70 162zM545 563h387l-193 524zM657 1761q0 -36 22 -59t60 -23t60 23t22 59t-22 58t-60 22t-60 -22
t-22 -58z" />
    <glyph glyph-name="AE" unicode="&#xc6;" horiz-adv-x="2269" 
d="M2 0l959 1434h1198v-281h-721v-272h620v-279h-620v-321h721v-281h-1022v334h-539l-221 -334h-375zM770 592h367v549z" />
    <glyph glyph-name="Ccedilla" unicode="&#xc7;" horiz-adv-x="1531" 
d="M502 -375l198 361q-271 42 -442.5 242t-171.5 487q0 213 97.5 383.5t267 265t378.5 94.5q206 0 377.5 -97t268.5 -274l-267 -155q-55 114 -155.5 175.5t-225.5 61.5q-185 0 -306.5 -126t-121.5 -326t121.5 -326.5t306.5 -126.5q126 0 227.5 62.5t155.5 175.5l267 -154
q-80 -150 -216.5 -242.5t-306.5 -119.5l-135 -361h-317z" />
    <glyph glyph-name="Egrave" unicode="&#xc8;" horiz-adv-x="1290" 
d="M158 0v1434h1022v-281h-721v-272h620v-279h-620v-321h721v-281h-1022zM330 1896h342l164 -329h-271z" />
    <glyph glyph-name="Eacute" unicode="&#xc9;" horiz-adv-x="1290" 
d="M158 0v1434h1022v-281h-721v-272h620v-279h-620v-321h721v-281h-1022zM485 1567l164 329h346l-235 -329h-275z" />
    <glyph glyph-name="Ecircumflex" unicode="&#xca;" horiz-adv-x="1290" 
d="M158 0v1434h1022v-281h-721v-272h620v-279h-620v-321h721v-281h-1022zM281 1567l241 329h291l242 -329h-258l-129 157l-129 -157h-258z" />
    <glyph glyph-name="Edieresis" unicode="&#xcb;" horiz-adv-x="1290" 
d="M158 0v1434h1022v-281h-721v-272h620v-279h-620v-321h721v-281h-1022zM268 1739q0 75 49 123.5t119 48.5q72 0 121 -48.5t49 -123.5q0 -74 -49 -122t-121 -48q-70 0 -119 48t-49 122zM729 1739q0 75 49 123.5t119 48.5q72 0 121 -48.5t49 -123.5q0 -74 -49 -122t-121 -48
q-70 0 -119 48t-49 122z" />
    <glyph glyph-name="Igrave" unicode="&#xcc;" horiz-adv-x="616" 
d="M158 0v1434h301v-1434h-301zM-31 1896h342l164 -329h-270z" />
    <glyph glyph-name="Iacute" unicode="&#xcd;" horiz-adv-x="616" 
d="M158 0v1434h301v-1434h-301zM127 1567l164 329h346l-236 -329h-274z" />
    <glyph glyph-name="Icircumflex" unicode="&#xce;" horiz-adv-x="616" 
d="M158 0v1434h301v-1434h-301zM-78 1567l242 329h291l241 -329h-258l-129 157l-129 -157h-258z" />
    <glyph glyph-name="Idieresis" unicode="&#xcf;" horiz-adv-x="616" 
d="M158 0v1434h301v-1434h-301zM-90 1739q0 75 49 123.5t119 48.5q72 0 121 -48.5t49 -123.5q0 -74 -49 -122t-121 -48q-70 0 -119 48t-49 122zM371 1739q0 75 49 123.5t119 48.5q72 0 121 -48.5t49 -123.5q0 -74 -49 -122t-121 -48q-70 0 -119 48t-49 122z" />
    <glyph glyph-name="Eth" unicode="&#xd0;" horiz-adv-x="1488" 
d="M190 0v616h-186v230h186v588h476q217 0 383 -84.5t260 -248t94 -384.5q0 -219 -94 -382.5t-260.5 -249t-382.5 -85.5h-476zM492 287h165q205 0 320 111t115 319t-115 319t-320 111h-165v-301h270v-230h-270v-329z" />
    <glyph glyph-name="Ntilde" unicode="&#xd1;" horiz-adv-x="1576" 
d="M158 0v1434h307l651 -928v928h303v-1434h-307l-653 932v-932h-301zM408 1649q15 116 77 178.5t150 62.5q33 0 66 -10t51 -19t51 -28q4 -2 14.5 -7.5t14.5 -7.5t13 -6t14 -6t12.5 -4t14 -3t13.5 -1q25 0 41 18t25 58l200 -55q-15 -115 -77 -178.5t-150 -63.5
q-71 0 -166 57q-65 37 -96 37q-26 0 -41.5 -18t-24.5 -60z" />
    <glyph glyph-name="Ograve" unicode="&#xd2;" horiz-adv-x="1650" 
d="M825 -25q-155 0 -291.5 55.5t-235 153t-155.5 236t-57 297.5q0 212 97 382t266 264.5t376 94.5t376 -94.5t266.5 -264.5t97.5 -382t-97.5 -382.5t-266.5 -265t-376 -94.5zM397 717q0 -200 121.5 -326.5t306.5 -126.5t306.5 126.5t121.5 326.5t-121.5 326t-306.5 126
t-306.5 -126t-121.5 -326zM487 1896h342l164 -329h-270z" />
    <glyph glyph-name="Oacute" unicode="&#xd3;" horiz-adv-x="1650" 
d="M825 -25q-155 0 -291.5 55.5t-235 153t-155.5 236t-57 297.5q0 212 97 382t266 264.5t376 94.5t376 -94.5t266.5 -264.5t97.5 -382t-97.5 -382.5t-266.5 -265t-376 -94.5zM397 717q0 -200 121.5 -326.5t306.5 -126.5t306.5 126.5t121.5 326.5t-121.5 326t-306.5 126
t-306.5 -126t-121.5 -326zM643 1567l164 329h346l-235 -329h-275z" />
    <glyph glyph-name="Ocircumflex" unicode="&#xd4;" horiz-adv-x="1650" 
d="M825 -25q-155 0 -291.5 55.5t-235 153t-155.5 236t-57 297.5q0 212 97 382t266 264.5t376 94.5t376 -94.5t266.5 -264.5t97.5 -382t-97.5 -382.5t-266.5 -265t-376 -94.5zM397 717q0 -200 121.5 -326.5t306.5 -126.5t306.5 126.5t121.5 326.5t-121.5 326t-306.5 126
t-306.5 -126t-121.5 -326zM438 1567l242 329h291l241 -329h-258l-129 157l-129 -157h-258z" />
    <glyph glyph-name="Otilde" unicode="&#xd5;" horiz-adv-x="1650" 
d="M825 -25q-155 0 -291.5 55.5t-235 153t-155.5 236t-57 297.5q0 212 97 382t266 264.5t376 94.5t376 -94.5t266.5 -264.5t97.5 -382t-97.5 -382.5t-266.5 -265t-376 -94.5zM397 717q0 -200 121.5 -326.5t306.5 -126.5t306.5 126.5t121.5 326.5t-121.5 326t-306.5 126
t-306.5 -126t-121.5 -326zM446 1649q15 116 77.5 178.5t150.5 62.5q33 0 66 -10t51 -19t51 -28q4 -2 14.5 -7.5t14.5 -7.5t13 -6t14 -6t12.5 -4t14 -3t13.5 -1q25 0 41 18t25 58l200 -55q-15 -115 -77 -178.5t-150 -63.5q-71 0 -166 57q-65 37 -96 37q-26 0 -41.5 -18
t-24.5 -60z" />
    <glyph glyph-name="Odieresis" unicode="&#xd6;" horiz-adv-x="1650" 
d="M825 -25q-155 0 -291.5 55.5t-235 153t-155.5 236t-57 297.5q0 212 97 382t266 264.5t376 94.5t376 -94.5t266.5 -264.5t97.5 -382t-97.5 -382.5t-266.5 -265t-376 -94.5zM397 717q0 -200 121.5 -326.5t306.5 -126.5t306.5 126.5t121.5 326.5t-121.5 326t-306.5 126
t-306.5 -126t-121.5 -326zM426 1739q0 75 49 123.5t119 48.5q72 0 121 -48.5t49 -123.5q0 -74 -49 -122t-121 -48q-70 0 -119 48t-49 122zM887 1739q0 75 49 123.5t119 48.5q72 0 121 -48.5t49 -123.5q0 -74 -49 -122t-121 -48q-70 0 -119 48t-49 122z" />
    <glyph glyph-name="multiply" unicode="&#xd7;" horiz-adv-x="1331" 
d="M385 190l-178 179l280 280l-280 281l178 178l281 -281l280 281l178 -178l-280 -281l280 -280l-178 -179l-280 281z" />
    <glyph glyph-name="Oslash" unicode="&#xd8;" horiz-adv-x="1642" 
d="M821 -25q-191 0 -352 82l-129 -174l-184 142l127 172q-96 99 -148.5 232.5t-52.5 287.5q0 212 97 382t266 264.5t376 94.5q192 0 353 -82l129 174l184 -141l-127 -172q96 -99 148.5 -232.5t52.5 -287.5q0 -212 -97.5 -382.5t-266.5 -265t-376 -94.5zM379 717
q0 -170 86 -289l541 719q-86 39 -185 39q-191 0 -316.5 -131t-125.5 -338zM637 285q81 -37 184 -37q191 0 317 131t126 338q0 167 -86 289z" />
    <glyph glyph-name="Ugrave" unicode="&#xd9;" horiz-adv-x="1499" 
d="M750 -25q-286 0 -446.5 157.5t-160.5 449.5v852h301v-822q0 -175 79 -261.5t227 -86.5t226.5 86.5t78.5 261.5v822h303v-852q0 -292 -161 -449.5t-447 -157.5zM410 1896h342l163 -329h-270z" />
    <glyph glyph-name="Uacute" unicode="&#xda;" horiz-adv-x="1499" 
d="M750 -25q-286 0 -446.5 157.5t-160.5 449.5v852h301v-822q0 -175 79 -261.5t227 -86.5t226.5 86.5t78.5 261.5v822h303v-852q0 -292 -161 -449.5t-447 -157.5zM567 1567l164 329h346l-235 -329h-275z" />
    <glyph glyph-name="Ucircumflex" unicode="&#xdb;" horiz-adv-x="1499" 
d="M750 -25q-286 0 -446.5 157.5t-160.5 449.5v852h301v-822q0 -175 79 -261.5t227 -86.5t226.5 86.5t78.5 261.5v822h303v-852q0 -292 -161 -449.5t-447 -157.5zM362 1567l242 329h291l242 -329h-258l-129 157l-129 -157h-259z" />
    <glyph glyph-name="Udieresis" unicode="&#xdc;" horiz-adv-x="1499" 
d="M750 -25q-286 0 -446.5 157.5t-160.5 449.5v852h301v-822q0 -175 79 -261.5t227 -86.5t226.5 86.5t78.5 261.5v822h303v-852q0 -292 -161 -449.5t-447 -157.5zM350 1739q0 75 49 123.5t119 48.5q72 0 121 -48.5t49 -123.5q0 -74 -49 -122t-121 -48q-70 0 -119 48t-49 122
zM811 1739q0 75 49 123.5t119 48.5q72 0 121 -48.5t49 -123.5q0 -74 -49 -122t-121 -48q-70 0 -119 48t-49 122z" />
    <glyph glyph-name="Yacute" unicode="&#xdd;" horiz-adv-x="1341" 
d="M518 0v563l-512 871h340l326 -564l323 564h340l-512 -871v-563h-305zM489 1567l164 329h346l-235 -329h-275z" />
    <glyph glyph-name="Thorn" unicode="&#xde;" horiz-adv-x="1351" 
d="M158 0v1434h301v-246h282q246 0 386.5 -125.5t140.5 -345.5t-140.5 -345.5t-386.5 -125.5h-282v-246h-301zM459 528h262q118 0 176.5 49t58.5 140t-58.5 139.5t-176.5 48.5h-262v-377z" />
    <glyph glyph-name="germandbls" unicode="&#xdf;" horiz-adv-x="1298" 
d="M762 -25q-65 0 -182 17l28 258q58 -10 99 -10q114 0 175.5 51t61.5 139q0 89 -62 136.5t-182 47.5h-86v271h25q108 0 166.5 52t58.5 142q0 88 -57.5 140.5t-155.5 52.5q-105 0 -166 -66t-61 -192v-1014h-287v1026q0 235 140 372.5t372 137.5q223 0 362.5 -121.5
t139.5 -312.5q0 -111 -51.5 -200.5t-143.5 -133.5q130 -31 204.5 -129.5t74.5 -243.5q0 -190 -128 -305t-345 -115z" />
    <glyph glyph-name="agrave" unicode="&#xe0;" horiz-adv-x="1306" 
d="M598 -25q-142 0 -261 70.5t-189 197.5t-70 283q0 238 151 394.5t369 156.5q163 0 283 -94v70h286v-1053h-286v70q-121 -95 -283 -95zM348 1509h326l155 -311h-260zM369 526q0 -129 77 -207.5t197 -78.5q146 0 238 108v359q-93 106 -238 106q-120 0 -197 -79t-77 -208z
" />
    <glyph glyph-name="aacute" unicode="&#xe1;" horiz-adv-x="1306" 
d="M598 -25q-142 0 -261 70.5t-189 197.5t-70 283q0 238 151 394.5t369 156.5q163 0 283 -94v70h286v-1053h-286v70q-121 -95 -283 -95zM369 526q0 -129 77 -207.5t197 -78.5q146 0 238 108v359q-93 106 -238 106q-120 0 -197 -79t-77 -208zM506 1198l156 311h325l-221 -311
h-260z" />
    <glyph glyph-name="acircumflex" unicode="&#xe2;" horiz-adv-x="1306" 
d="M598 -25q-142 0 -261 70.5t-189 197.5t-70 283q0 238 151 394.5t369 156.5q163 0 283 -94v70h286v-1053h-286v70q-121 -95 -283 -95zM295 1198l240 311h278l240 -311h-258l-121 150l-121 -150h-258zM369 526q0 -129 77 -207.5t197 -78.5q146 0 238 108v359
q-93 106 -238 106q-120 0 -197 -79t-77 -208z" />
    <glyph glyph-name="atilde" unicode="&#xe3;" horiz-adv-x="1306" 
d="M598 -25q-142 0 -261 70.5t-189 197.5t-70 283q0 238 151 394.5t369 156.5q163 0 283 -94v70h286v-1053h-286v70q-121 -95 -283 -95zM322 1278q12 104 70.5 165.5t137.5 61.5q71 0 158 -53q64 -35 90 -35q47 0 60 74l190 -53q-13 -105 -72 -166.5t-139 -61.5
q-31 0 -62.5 9.5t-48.5 18.5t-47 26q-62 34 -90 34q-22 0 -36 -16.5t-23 -56.5zM369 526q0 -129 77 -207.5t197 -78.5q146 0 238 108v359q-93 106 -238 106q-120 0 -197 -79t-77 -208z" />
    <glyph glyph-name="adieresis" unicode="&#xe4;" horiz-adv-x="1306" 
d="M598 -25q-142 0 -261 70.5t-189 197.5t-70 283q0 238 151 394.5t369 156.5q163 0 283 -94v70h286v-1053h-286v70q-121 -95 -283 -95zM299 1362q0 70 46.5 116t113.5 46t113 -46t46 -116q0 -71 -46 -116.5t-113 -45.5t-113.5 45.5t-46.5 116.5zM369 526q0 -129 77 -207.5
t197 -78.5q146 0 238 108v359q-93 106 -238 106q-120 0 -197 -79t-77 -208zM729 1362q0 70 46.5 116t111.5 46q68 0 115 -46t47 -116q0 -71 -46.5 -116.5t-115.5 -45.5q-66 0 -112 45.5t-46 116.5z" />
    <glyph glyph-name="aring" unicode="&#xe5;" horiz-adv-x="1306" 
d="M598 -25q-142 0 -261 70.5t-189 197.5t-70 283q0 238 151 394.5t369 156.5q163 0 283 -94v70h286v-1053h-286v70q-121 -95 -283 -95zM369 526q0 -129 77 -207.5t197 -78.5q146 0 238 108v359q-93 106 -238 106q-120 0 -197 -79t-77 -208zM430 1397q0 97 70 161t174 64
t174 -64t70 -161q0 -96 -70 -161t-174 -65t-174 65t-70 161zM592 1397q0 -35 22.5 -57.5t59.5 -22.5t59.5 22.5t22.5 57.5t-22.5 57.5t-59.5 22.5t-59.5 -22.5t-22.5 -57.5z" />
    <glyph glyph-name="ae" unicode="&#xe6;" horiz-adv-x="1986" 
d="M504 -25q-205 0 -320.5 91.5t-115.5 242.5q0 152 117 242t329 90h299v16q0 179 -223 179q-168 0 -342 -134l-142 203q200 172 488 172q269 0 387 -145q154 145 397 145q234 0 380.5 -141.5t146.5 -380.5q0 -41 -7 -102h-804q19 -115 93.5 -174.5t196.5 -59.5
q171 0 287 133l201 -151q-179 -226 -492 -226q-266 0 -426 160q-181 -160 -450 -160zM354 324q0 -55 46.5 -87t134.5 -32q175 0 305 121q-19 58 -27 114h-285q-86 0 -130 -31.5t-44 -84.5zM1106 655h512q-20 92 -83 138.5t-161 46.5q-101 0 -170 -47t-98 -138z" />
    <glyph glyph-name="ccedilla" unicode="&#xe7;" horiz-adv-x="1157" 
d="M340 -336l176 322q-195 37 -316.5 182t-121.5 354q0 161 75 288.5t203 197t285 69.5q146 0 267.5 -59t201.5 -168l-221 -176q-107 139 -250 139q-116 0 -192 -80t-76 -207q0 -129 77.5 -207.5t194.5 -78.5q159 0 266 147l211 -160q-61 -96 -155.5 -157.5t-212.5 -83.5
l-121 -322h-291z" />
    <glyph glyph-name="egrave" unicode="&#xe8;" horiz-adv-x="1253" 
d="M649 -25q-259 0 -415 151t-156 392q0 245 159 402t410 157q234 0 380.5 -141.5t146.5 -380.5q0 -41 -7 -102h-805q19 -115 94 -174.5t197 -59.5q171 0 287 133l201 -151q-179 -226 -492 -226zM315 1509h326l156 -311h-260zM375 655h512q-20 92 -83 138.5t-161 46.5
q-101 0 -170 -47t-98 -138z" />
    <glyph glyph-name="eacute" unicode="&#xe9;" horiz-adv-x="1253" 
d="M649 -25q-259 0 -415 151t-156 392q0 245 159 402t410 157q234 0 380.5 -141.5t146.5 -380.5q0 -41 -7 -102h-805q19 -115 94 -174.5t197 -59.5q171 0 287 133l201 -151q-179 -226 -492 -226zM375 655h512q-20 92 -83 138.5t-161 46.5q-101 0 -170 -47t-98 -138z
M475 1198l156 311h325l-221 -311h-260z" />
    <glyph glyph-name="ecircumflex" unicode="&#xea;" horiz-adv-x="1253" 
d="M649 -25q-259 0 -415 151t-156 392q0 245 159 402t410 157q234 0 380.5 -141.5t146.5 -380.5q0 -41 -7 -102h-805q19 -115 94 -174.5t197 -59.5q171 0 287 133l201 -151q-179 -226 -492 -226zM264 1198l240 311h278l240 -311h-258l-121 150l-121 -150h-258zM375 655h512
q-20 92 -83 138.5t-161 46.5q-101 0 -170 -47t-98 -138z" />
    <glyph glyph-name="edieresis" unicode="&#xeb;" horiz-adv-x="1253" 
d="M649 -25q-259 0 -415 151t-156 392q0 245 159 402t410 157q234 0 380.5 -141.5t146.5 -380.5q0 -41 -7 -102h-805q19 -115 94 -174.5t197 -59.5q171 0 287 133l201 -151q-179 -226 -492 -226zM268 1362q0 70 46.5 116t113.5 46t113.5 -46t46.5 -116q0 -71 -46.5 -116.5
t-113.5 -45.5t-113.5 45.5t-46.5 116.5zM375 655h512q-20 92 -83 138.5t-161 46.5q-101 0 -170 -47t-98 -138zM698 1362q0 70 46 116t112 46q68 0 115 -46t47 -116q0 -71 -46.5 -116.5t-115.5 -45.5q-66 0 -112 45.5t-46 116.5z" />
    <glyph glyph-name="igrave" unicode="&#xec;" horiz-adv-x="563" 
d="M137 0v1053h287v-1053h-287zM-6 1509h325l115 -311h-260z" />
    <glyph glyph-name="iacute" unicode="&#xed;" horiz-adv-x="563" 
d="M137 0v1053h287v-1053h-287zM113 1198l114 311h326l-180 -311h-260z" />
    <glyph glyph-name="icircumflex" unicode="&#xee;" horiz-adv-x="563" 
d="M137 0v1053h287v-1053h-287zM-57 1198l219 311h237l219 -311h-239l-98 137l-99 -137h-239z" />
    <glyph glyph-name="idieresis" unicode="&#xef;" horiz-adv-x="563" 
d="M137 0v1053h287v-1053h-287zM-57 1362q0 73 42 117.5t107 44.5q66 0 109 -45t43 -117t-43 -117t-109 -45q-65 0 -107 44.5t-42 117.5zM317 1362q0 72 43 117t107 45q67 0 109 -44.5t42 -117.5t-42 -117.5t-109 -44.5q-64 0 -107 45t-43 117z" />
    <glyph glyph-name="eth" unicode="&#xf0;" horiz-adv-x="1267" 
d="M629 -25q-242 0 -396.5 141.5t-154.5 366.5q0 216 149 358t369 142q146 0 260 -63q-57 147 -172 245l-197 -139l-84 123l150 106q-90 51 -234 99l99 215q199 -53 352 -158l186 133l86 -123l-151 -108q143 -135 220 -314.5t77 -386.5q0 -290 -144 -460
q-154 -177 -415 -177zM369 485q0 -112 75.5 -180.5t186.5 -68.5q125 0 200.5 93.5t75.5 268.5v18q-118 121 -272 121q-118 0 -192 -71t-74 -181z" />
    <glyph glyph-name="ntilde" unicode="&#xf1;" horiz-adv-x="1265" 
d="M852 571q0 119 -52.5 180.5t-146.5 61.5q-130 0 -229 -111v-702h-287v1053h287v-80q128 104 307 104q185 0 296.5 -117t111.5 -327v-633h-287v571zM276 1278q12 104 71 165.5t138 61.5q71 0 158 -53q64 -35 90 -35q47 0 60 74l190 -53q-13 -105 -72 -166.5t-139 -61.5
q-31 0 -62.5 9.5t-48.5 18.5t-47 26q-62 34 -90 34q-22 0 -36 -16.5t-23 -56.5z" />
    <glyph glyph-name="ograve" unicode="&#xf2;" horiz-adv-x="1280" 
d="M639 -25q-243 0 -402 156.5t-159 394.5q0 239 159 395t402 156q244 0 402.5 -156t158.5 -395q0 -238 -158.5 -394.5t-402.5 -156.5zM313 1509h326l156 -311h-260zM369 526q0 -126 76.5 -206t193.5 -80q118 0 194 79.5t76 206.5q0 128 -76 207.5t-194 79.5
q-117 0 -193.5 -79.5t-76.5 -207.5z" />
    <glyph glyph-name="oacute" unicode="&#xf3;" horiz-adv-x="1280" 
d="M639 -25q-243 0 -402 156.5t-159 394.5q0 239 159 395t402 156q244 0 402.5 -156t158.5 -395q0 -238 -158.5 -394.5t-402.5 -156.5zM369 526q0 -126 76.5 -206t193.5 -80q118 0 194 79.5t76 206.5q0 128 -76 207.5t-194 79.5q-117 0 -193.5 -79.5t-76.5 -207.5zM471 1198
l156 311h325l-221 -311h-260z" />
    <glyph glyph-name="ocircumflex" unicode="&#xf4;" horiz-adv-x="1280" 
d="M639 -25q-243 0 -402 156.5t-159 394.5q0 239 159 395t402 156q244 0 402.5 -156t158.5 -395q0 -238 -158.5 -394.5t-402.5 -156.5zM260 1198l240 311h278l240 -311h-258l-121 150l-121 -150h-258zM369 526q0 -126 76.5 -206t193.5 -80q118 0 194 79.5t76 206.5
q0 128 -76 207.5t-194 79.5q-117 0 -193.5 -79.5t-76.5 -207.5z" />
    <glyph glyph-name="otilde" unicode="&#xf5;" horiz-adv-x="1280" 
d="M639 -25q-243 0 -402 156.5t-159 394.5q0 239 159 395t402 156q244 0 402.5 -156t158.5 -395q0 -238 -158.5 -394.5t-402.5 -156.5zM287 1278q12 104 71 165.5t138 61.5q70 0 157 -53q64 -35 90 -35q47 0 60 74l190 -53q-13 -105 -72 -166.5t-139 -61.5q-31 0 -62.5 9.5
t-47.5 18t-47 26.5q-62 34 -90 34q-23 0 -37 -16.5t-23 -56.5zM369 526q0 -126 76.5 -206t193.5 -80q118 0 194 79.5t76 206.5q0 128 -76 207.5t-194 79.5q-117 0 -193.5 -79.5t-76.5 -207.5z" />
    <glyph glyph-name="odieresis" unicode="&#xf6;" horiz-adv-x="1280" 
d="M639 -25q-243 0 -402 156.5t-159 394.5q0 239 159 395t402 156q244 0 402.5 -156t158.5 -395q0 -238 -158.5 -394.5t-402.5 -156.5zM264 1362q0 70 46.5 116t113.5 46t113.5 -46t46.5 -116q0 -71 -46.5 -116.5t-113.5 -45.5t-113.5 45.5t-46.5 116.5zM369 526
q0 -126 76.5 -206t193.5 -80q118 0 194 79.5t76 206.5q0 128 -76 207.5t-194 79.5q-117 0 -193.5 -79.5t-76.5 -207.5zM694 1362q0 70 46 116t112 46q68 0 115 -46t47 -116q0 -71 -46.5 -116.5t-115.5 -45.5q-66 0 -112 45.5t-46 116.5z" />
    <glyph glyph-name="divide" unicode="&#xf7;" horiz-adv-x="1331" 
d="M201 518v262h929v-262h-929zM487 252q0 73 49.5 118.5t129.5 45.5t129 -45.5t49 -118.5t-49 -118.5t-129 -45.5t-129.5 45.5t-49.5 118.5zM487 1047q0 73 49.5 118t129.5 45t129 -45t49 -118t-49 -118.5t-129 -45.5t-129.5 45.5t-49.5 118.5z" />
    <glyph glyph-name="oslash" unicode="&#xf8;" horiz-adv-x="1282" 
d="M641 -25q-134 0 -256 56l-98 -131l-150 114l94 125q-153 153 -153 387q0 239 159.5 395t403.5 156q139 0 258 -55l96 129l150 -113l-94 -123q153 -156 153 -389q0 -238 -159.5 -394.5t-403.5 -156.5zM350 526q0 -110 53 -184l355 469q-57 23 -117 23q-127 0 -209 -85.5
t-82 -222.5zM526 242q61 -21 115 -21q127 0 209 85t82 220q0 110 -53 187z" />
    <glyph glyph-name="ugrave" unicode="&#xf9;" horiz-adv-x="1255" 
d="M524 -25q-182 0 -289.5 115t-107.5 322v641h287v-580q0 -116 49 -174.5t141 -58.5q131 0 227 110v703h287v-1053h-287v78q-130 -103 -307 -103zM297 1509h326l155 -311h-260z" />
    <glyph glyph-name="uacute" unicode="&#xfa;" horiz-adv-x="1255" 
d="M524 -25q-182 0 -289.5 115t-107.5 322v641h287v-580q0 -116 49 -174.5t141 -58.5q131 0 227 110v703h287v-1053h-287v78q-130 -103 -307 -103zM455 1198l155 311h326l-221 -311h-260z" />
    <glyph glyph-name="ucircumflex" unicode="&#xfb;" horiz-adv-x="1255" 
d="M524 -25q-182 0 -289.5 115t-107.5 322v641h287v-580q0 -116 49 -174.5t141 -58.5q131 0 227 110v703h287v-1053h-287v78q-130 -103 -307 -103zM244 1198l239 311h279l239 -311h-258l-120 150l-121 -150h-258z" />
    <glyph glyph-name="udieresis" unicode="&#xfc;" horiz-adv-x="1255" 
d="M524 -25q-182 0 -289.5 115t-107.5 322v641h287v-580q0 -116 49 -174.5t141 -58.5q131 0 227 110v703h287v-1053h-287v78q-130 -103 -307 -103zM248 1362q0 70 46.5 116t113.5 46t113 -46t46 -116q0 -71 -46 -116.5t-113 -45.5t-113.5 45.5t-46.5 116.5zM678 1362
q0 70 46 116t112 46q68 0 114.5 -46t46.5 -116q0 -71 -46.5 -116.5t-114.5 -45.5q-66 0 -112 45.5t-46 116.5z" />
    <glyph glyph-name="yacute" unicode="&#xfd;" horiz-adv-x="1204" 
d="M283 -446l186 466l-455 1033h328l274 -664l263 664h311l-598 -1499h-309zM440 1198l156 311h326l-222 -311h-260z" />
    <glyph glyph-name="thorn" unicode="&#xfe;" horiz-adv-x="1306" 
d="M709 -25q-165 0 -285 97v-518h-287v1957h287v-530q119 96 285 96q142 0 260 -70t188 -197t70 -284q0 -156 -70 -283t-188.5 -197.5t-259.5 -70.5zM424 350q94 -110 238 -110q121 0 197.5 78.5t76.5 207.5t-76.5 208t-197.5 79q-144 0 -238 -108v-355z" />
    <glyph glyph-name="ydieresis" unicode="&#xff;" horiz-adv-x="1204" 
d="M283 -446l186 466l-455 1033h328l274 -664l263 664h311l-598 -1499h-309zM233 1362q0 70 46.5 116t113.5 46t113.5 -46t46.5 -116q0 -71 -46.5 -116.5t-113.5 -45.5t-113.5 45.5t-46.5 116.5zM664 1362q0 70 46 116t111 46q68 0 115 -46t47 -116q0 -71 -46.5 -116.5
t-115.5 -45.5q-66 0 -111.5 45.5t-45.5 116.5z" />
    <glyph glyph-name="Amacron" unicode="&#x100;" horiz-adv-x="1476" 
d="M16 0l545 1434h354l545 -1434h-321l-113 303h-575l-113 -303h-322zM428 1604v227h623v-227h-623zM545 563h387l-193 524z" />
    <glyph glyph-name="amacron" unicode="&#x101;" horiz-adv-x="1306" 
d="M598 -25q-142 0 -261 70.5t-189 197.5t-70 283q0 238 151 394.5t369 156.5q163 0 283 -94v70h286v-1053h-286v70q-121 -95 -283 -95zM369 526q0 -129 77 -207.5t197 -78.5q146 0 238 108v359q-93 106 -238 106q-120 0 -197 -79t-77 -208zM381 1233v213h586v-213h-586z
" />
    <glyph glyph-name="Abreve" unicode="&#x102;" horiz-adv-x="1476" 
d="M16 0l545 1434h354l545 -1434h-321l-113 303h-575l-113 -303h-322zM408 1872v20h225q0 -145 106 -145q107 0 107 145h225v-20q0 -142 -88 -224.5t-244 -82.5t-243.5 82.5t-87.5 224.5zM545 563h387l-193 524z" />
    <glyph glyph-name="abreve" unicode="&#x103;" horiz-adv-x="1306" 
d="M598 -25q-142 0 -261 70.5t-189 197.5t-70 283q0 238 151 394.5t369 156.5q163 0 283 -94v70h286v-1053h-286v70q-121 -95 -283 -95zM360 1485v20h213q0 -137 101 -137q100 0 100 137h213v-20q0 -134 -83 -211.5t-230 -77.5t-230.5 77.5t-83.5 211.5zM369 526
q0 -129 77 -207.5t197 -78.5q146 0 238 108v359q-93 106 -238 106q-120 0 -197 -79t-77 -208z" />
    <glyph glyph-name="Aogonek" unicode="&#x104;" horiz-adv-x="1476" 
d="M16 0l545 1434h354l545 -1434q-84 -57 -117.5 -100t-33.5 -82q0 -68 86 -68q34 0 65 10v-223q-56 -16 -123 -16q-126 0 -200 61.5t-74 165.5q0 76 40.5 141.5t117.5 110.5h-82l-113 303h-575l-113 -303h-322zM545 563h387l-193 524z" />
    <glyph glyph-name="aogonek" unicode="&#x105;" horiz-adv-x="1306" 
d="M598 -25q-142 0 -261 70.5t-189 197.5t-70 283q0 238 151 394.5t369 156.5q163 0 283 -94v70h286v-1053q-79 -54 -110 -94t-31 -78q0 -64 80 -64q29 0 61 11v-211q-49 -15 -114 -15q-120 0 -190 57.5t-70 155.5q0 150 147 238h-59v70q-121 -95 -283 -95zM369 526
q0 -129 77 -207.5t197 -78.5q146 0 238 108v359q-93 106 -238 106q-120 0 -197 -79t-77 -208z" />
    <glyph glyph-name="Cacute" unicode="&#x106;" horiz-adv-x="1531" 
d="M827 -25q-210 0 -379 94t-265.5 263.5t-96.5 382.5t97.5 383.5t267 265t378.5 94.5q206 0 377.5 -97t268.5 -274l-267 -155q-55 114 -155.5 175.5t-225.5 61.5q-185 0 -306.5 -126t-121.5 -326t121.5 -326.5t306.5 -126.5q126 0 227.5 62.5t155.5 175.5l267 -154
q-96 -178 -268.5 -275.5t-381.5 -97.5zM645 1567l164 329h346l-235 -329h-275z" />
    <glyph glyph-name="cacute" unicode="&#x107;" horiz-adv-x="1157" 
d="M635 -25q-157 0 -284 68.5t-200 194t-73 284.5q0 161 75 288.5t203 197t285 69.5q146 0 267.5 -59t201.5 -168l-221 -176q-107 139 -250 139q-116 0 -192 -80t-76 -207q0 -129 77.5 -207.5t194.5 -78.5q159 0 266 147l211 -160q-76 -120 -203.5 -186t-281.5 -66z
M461 1198l155 311h326l-221 -311h-260z" />
    <glyph glyph-name="Ccircumflex" unicode="&#x108;" horiz-adv-x="1531" 
d="M827 -25q-210 0 -379 94t-265.5 263.5t-96.5 382.5t97.5 383.5t267 265t378.5 94.5q206 0 377.5 -97t268.5 -274l-267 -155q-55 114 -155.5 175.5t-225.5 61.5q-185 0 -306.5 -126t-121.5 -326t121.5 -326.5t306.5 -126.5q126 0 227.5 62.5t155.5 175.5l267 -154
q-96 -178 -268.5 -275.5t-381.5 -97.5zM440 1567l242 329h291l241 -329h-258l-129 157l-129 -157h-258z" />
    <glyph glyph-name="ccircumflex" unicode="&#x109;" horiz-adv-x="1157" 
d="M635 -25q-157 0 -284 68.5t-200 194t-73 284.5q0 161 75 288.5t203 197t285 69.5q146 0 267.5 -59t201.5 -168l-221 -176q-107 139 -250 139q-116 0 -192 -80t-76 -207q0 -129 77.5 -207.5t194.5 -78.5q159 0 266 147l211 -160q-76 -120 -203.5 -186t-281.5 -66z
M250 1198l239 311h279l240 -311h-258l-121 150l-121 -150h-258z" />
    <glyph glyph-name="Cdotaccent" unicode="&#x10a;" horiz-adv-x="1531" 
d="M827 -25q-210 0 -379 94t-265.5 263.5t-96.5 382.5t97.5 383.5t267 265t378.5 94.5q206 0 377.5 -97t268.5 -274l-267 -155q-55 114 -155.5 175.5t-225.5 61.5q-185 0 -306.5 -126t-121.5 -326t121.5 -326.5t306.5 -126.5q126 0 227.5 62.5t155.5 175.5l267 -154
q-96 -178 -268.5 -275.5t-381.5 -97.5zM647 1739q0 75 52.5 125.5t127.5 50.5t128 -50.5t53 -125.5t-53 -125.5t-128 -50.5t-127.5 50.5t-52.5 125.5z" />
    <glyph glyph-name="cdotaccent" unicode="&#x10b;" horiz-adv-x="1157" 
d="M635 -25q-157 0 -284 68.5t-200 194t-73 284.5q0 161 75 288.5t203 197t285 69.5q146 0 267.5 -59t201.5 -168l-221 -176q-107 139 -250 139q-116 0 -192 -80t-76 -207q0 -129 77.5 -207.5t194.5 -78.5q159 0 266 147l211 -160q-76 -120 -203.5 -186t-281.5 -66z
M457 1362q0 73 49.5 120.5t122.5 47.5t122.5 -47.5t49.5 -120.5t-49.5 -121.5t-122.5 -48.5t-122.5 48.5t-49.5 121.5z" />
    <glyph glyph-name="Ccaron" unicode="&#x10c;" horiz-adv-x="1531" 
d="M827 -25q-210 0 -379 94t-265.5 263.5t-96.5 382.5t97.5 383.5t267 265t378.5 94.5q206 0 377.5 -97t268.5 -274l-267 -155q-55 114 -155.5 175.5t-225.5 61.5q-185 0 -306.5 -126t-121.5 -326t121.5 -326.5t306.5 -126.5q126 0 227.5 62.5t155.5 175.5l267 -154
q-96 -178 -268.5 -275.5t-381.5 -97.5zM440 1896h258l129 -157l129 157h258l-241 -329h-291z" />
    <glyph glyph-name="ccaron" unicode="&#x10d;" horiz-adv-x="1157" 
d="M635 -25q-157 0 -284 68.5t-200 194t-73 284.5q0 161 75 288.5t203 197t285 69.5q146 0 267.5 -59t201.5 -168l-221 -176q-107 139 -250 139q-116 0 -192 -80t-76 -207q0 -129 77.5 -207.5t194.5 -78.5q159 0 266 147l211 -160q-76 -120 -203.5 -186t-281.5 -66z
M250 1509h258l121 -149l121 149h258l-240 -311h-279z" />
    <glyph glyph-name="Dcaron" unicode="&#x10e;" horiz-adv-x="1456" 
d="M158 0v1434h475q217 0 383 -84.5t260 -248t94 -384.5q0 -219 -94 -382.5t-260.5 -249t-382.5 -85.5h-475zM258 1890h258l129 -157l129 157h258l-241 -329h-291zM459 287h166q205 0 319.5 111t114.5 319t-114.5 319t-319.5 111h-166v-860z" />
    <glyph glyph-name="dcaron" unicode="&#x10f;" horiz-adv-x="1613" 
d="M598 -25q-142 0 -261 70.5t-189 197.5t-70 283q0 238 151 394.5t369 156.5q163 0 283 -94v528h286v-1511h-286v70q-121 -95 -283 -95zM369 526q0 -129 77 -207.5t197 -78.5q146 0 238 108v359q-93 106 -238 106q-120 0 -197 -79t-77 -208zM1317 1348q0 70 46.5 116.5
t117.5 46.5q78 0 126.5 -61t47.5 -158q-3 -199 -225 -368l-78 86q114 102 141 186h-18q-69 0 -113.5 43t-44.5 109z" />
    <glyph glyph-name="Dcroat" unicode="&#x110;" horiz-adv-x="1488" 
d="M190 0v616h-186v230h186v588h476q217 0 383 -84.5t260 -248t94 -384.5q0 -219 -94 -382.5t-260.5 -249t-382.5 -85.5h-476zM492 287h165q205 0 320 111t115 319t-115 319t-320 111h-165v-301h270v-230h-270v-329z" />
    <glyph glyph-name="dcroat" unicode="&#x111;" horiz-adv-x="1306" 
d="M598 -25q-222 0 -371 153.5t-149 385.5t149 385.5t371 153.5q162 0 283 -95v222h-301v184h301v147h286v-147h166v-184h-166v-1180h-286v70q-121 -95 -283 -95zM369 514q0 -123 76.5 -198.5t197.5 -75.5q146 0 238 108v332q-93 106 -238 106q-121 0 -197.5 -75t-76.5 -197
z" />
    <glyph glyph-name="Emacron" unicode="&#x112;" horiz-adv-x="1290" 
d="M158 0v1434h1022v-281h-721v-272h620v-279h-620v-321h721v-281h-1022zM356 1604v227h623v-227h-623z" />
    <glyph glyph-name="emacron" unicode="&#x113;" horiz-adv-x="1253" 
d="M649 -25q-259 0 -415 151t-156 392q0 245 159 402t410 157q234 0 380.5 -141.5t146.5 -380.5q0 -41 -7 -102h-805q19 -115 94 -174.5t197 -59.5q171 0 287 133l201 -151q-179 -226 -492 -226zM350 1233v213h586v-213h-586zM375 655h512q-20 92 -83 138.5t-161 46.5
q-101 0 -170 -47t-98 -138z" />
    <glyph glyph-name="Ebreve" unicode="&#x114;" horiz-adv-x="1290" 
d="M158 0v1434h1022v-281h-721v-272h620v-279h-620v-321h721v-281h-1022zM336 1872v20h225q0 -145 107 -145q106 0 106 145h225v-20q0 -142 -87.5 -224.5t-243.5 -82.5t-244 82.5t-88 224.5z" />
    <glyph glyph-name="ebreve" unicode="&#x115;" horiz-adv-x="1253" 
d="M649 -25q-259 0 -415 151t-156 392q0 245 159 402t410 157q234 0 380.5 -141.5t146.5 -380.5q0 -41 -7 -102h-805q19 -115 94 -174.5t197 -59.5q171 0 287 133l201 -151q-179 -226 -492 -226zM330 1485v20h213q0 -137 100 -137t100 137h213v-20q0 -134 -83 -211.5
t-230 -77.5t-230 77.5t-83 211.5zM375 655h512q-20 92 -83 138.5t-161 46.5q-101 0 -170 -47t-98 -138z" />
    <glyph glyph-name="Edotaccent" unicode="&#x116;" horiz-adv-x="1290" 
d="M158 0v1434h1022v-281h-721v-272h620v-279h-620v-321h721v-281h-1022zM487 1739q0 75 53 125.5t128 50.5t127.5 -50.5t52.5 -125.5t-52.5 -125.5t-127.5 -50.5t-128 50.5t-53 125.5z" />
    <glyph glyph-name="edotaccent" unicode="&#x117;" horiz-adv-x="1253" 
d="M649 -25q-259 0 -415 151t-156 392q0 245 159 402t410 157q234 0 380.5 -141.5t146.5 -380.5q0 -41 -7 -102h-805q19 -115 94 -174.5t197 -59.5q171 0 287 133l201 -151q-179 -226 -492 -226zM375 655h512q-20 92 -83 138.5t-161 46.5q-101 0 -170 -47t-98 -138z
M471 1362q0 73 49.5 120.5t122.5 47.5t122.5 -47.5t49.5 -120.5t-49.5 -121.5t-122.5 -48.5t-122.5 48.5t-49.5 121.5z" />
    <glyph glyph-name="Eogonek" unicode="&#x118;" horiz-adv-x="1290" 
d="M158 0v1434h1022v-281h-721v-272h620v-279h-620v-321h721v-281h-2q-84 -57 -118 -100t-34 -82q0 -68 86 -68q35 0 66 10v-223q-56 -16 -123 -16q-126 0 -200.5 61.5t-74.5 165.5q0 76 40.5 141.5t117.5 110.5h-780z" />
    <glyph glyph-name="eogonek" unicode="&#x119;" horiz-adv-x="1253" 
d="M741 -444q-120 0 -190 57.5t-70 155.5q0 124 107 208q-234 19 -372 166.5t-138 374.5q0 245 159 402t410 157q234 0 380.5 -141.5t146.5 -380.5q0 -41 -7 -102h-805q19 -115 94 -174.5t197 -59.5q171 0 287 133l201 -151q-114 -144 -289 -197q-76 -53 -106.5 -93
t-30.5 -77q0 -63 80 -63q32 0 61 10v-211q-46 -14 -115 -14zM375 655h512q-20 92 -83 138.5t-161 46.5q-101 0 -170 -47t-98 -138z" />
    <glyph glyph-name="Ecaron" unicode="&#x11a;" horiz-adv-x="1290" 
d="M158 0v1434h1022v-281h-721v-272h620v-279h-620v-321h721v-281h-1022zM281 1896h258l129 -157l129 157h258l-242 -329h-291z" />
    <glyph glyph-name="ecaron" unicode="&#x11b;" horiz-adv-x="1253" 
d="M649 -25q-259 0 -415 151t-156 392q0 245 159 402t410 157q234 0 380.5 -141.5t146.5 -380.5q0 -41 -7 -102h-805q19 -115 94 -174.5t197 -59.5q171 0 287 133l201 -151q-179 -226 -492 -226zM264 1509h258l121 -149l121 149h258l-240 -311h-278zM375 655h512
q-20 92 -83 138.5t-161 46.5q-101 0 -170 -47t-98 -138z" />
    <glyph glyph-name="Gcircumflex" unicode="&#x11c;" horiz-adv-x="1576" 
d="M846 -25q-220 0 -393.5 94.5t-270 262.5t-96.5 381q0 214 98 385t267.5 265.5t377.5 94.5q180 0 334 -73.5t258 -210.5l-258 -166q-122 161 -336 161q-187 0 -308.5 -125.5t-121.5 -328.5q0 -205 124.5 -328t334.5 -123q176 0 320 80v246h-308v262h590v-668
q-121 -99 -280.5 -154t-331.5 -55zM436 1567l242 329h291l241 -329h-258l-129 157l-129 -157h-258z" />
    <glyph glyph-name="gcircumflex" unicode="&#x11d;" horiz-adv-x="1304" 
d="M614 -471q-155 0 -290 51.5t-232 143.5l170 210q178 -141 346 -141q128 0 200.5 65.5t72.5 178.5v80q-123 -97 -289 -97q-141 0 -258.5 68t-186.5 189t-69 270q0 111 40.5 210t109.5 169t164 110.5t200 40.5q167 0 289 -96v72h286v-1016q0 -237 -148.5 -372.5
t-404.5 -135.5zM258 1198l240 311h278l240 -311h-258l-121 150l-121 -150h-258zM369 547q0 -118 76 -193t192 -75q146 0 244 110v316q-98 110 -244 110q-116 0 -192 -75.5t-76 -192.5z" />
    <glyph glyph-name="Gbreve" unicode="&#x11e;" horiz-adv-x="1576" 
d="M846 -25q-220 0 -393.5 94.5t-270 262.5t-96.5 381q0 214 98 385t267.5 265.5t377.5 94.5q180 0 334 -73.5t258 -210.5l-258 -166q-122 161 -336 161q-187 0 -308.5 -125.5t-121.5 -328.5q0 -205 124.5 -328t334.5 -123q176 0 320 80v246h-308v262h590v-668
q-121 -99 -280.5 -154t-331.5 -55zM492 1872v20h225q0 -145 106 -145q107 0 107 145h225v-20q0 -142 -88 -224.5t-244 -82.5t-243.5 82.5t-87.5 224.5z" />
    <glyph glyph-name="gbreve" unicode="&#x11f;" horiz-adv-x="1304" 
d="M614 -471q-155 0 -290 51.5t-232 143.5l170 210q178 -141 346 -141q128 0 200.5 65.5t72.5 178.5v80q-123 -97 -289 -97q-141 0 -258.5 68t-186.5 189t-69 270q0 111 40.5 210t109.5 169t164 110.5t200 40.5q167 0 289 -96v72h286v-1016q0 -237 -148.5 -372.5
t-404.5 -135.5zM324 1485v20h213q0 -137 100 -137t100 137h213v-20q0 -134 -83 -211.5t-230 -77.5t-230 77.5t-83 211.5zM369 547q0 -118 76 -193t192 -75q146 0 244 110v316q-98 110 -244 110q-116 0 -192 -75.5t-76 -192.5z" />
    <glyph glyph-name="Gdotaccent" unicode="&#x120;" horiz-adv-x="1576" 
d="M846 -25q-220 0 -393.5 94.5t-270 262.5t-96.5 381q0 214 98 385t267.5 265.5t377.5 94.5q180 0 334 -73.5t258 -210.5l-258 -166q-122 161 -336 161q-187 0 -308.5 -125.5t-121.5 -328.5q0 -205 124.5 -328t334.5 -123q176 0 320 80v246h-308v262h590v-668
q-121 -99 -280.5 -154t-331.5 -55zM643 1739q0 75 52.5 125.5t127.5 50.5t128 -50.5t53 -125.5t-53 -125.5t-128 -50.5t-127.5 50.5t-52.5 125.5z" />
    <glyph glyph-name="gdotaccent" unicode="&#x121;" horiz-adv-x="1304" 
d="M614 -471q-155 0 -290 51.5t-232 143.5l170 210q178 -141 346 -141q128 0 200.5 65.5t72.5 178.5v80q-123 -97 -289 -97q-141 0 -258.5 68t-186.5 189t-69 270q0 111 40.5 210t109.5 169t164 110.5t200 40.5q167 0 289 -96v72h286v-1016q0 -237 -148.5 -372.5
t-404.5 -135.5zM369 547q0 -118 76 -193t192 -75q146 0 244 110v316q-98 110 -244 110q-116 0 -192 -75.5t-76 -192.5zM465 1362q0 73 49.5 120.5t122.5 47.5t122.5 -47.5t49.5 -120.5t-49.5 -121.5t-122.5 -48.5t-122.5 48.5t-49.5 121.5z" />
    <glyph glyph-name="uni0122" unicode="&#x122;" horiz-adv-x="1576" 
d="M846 -25q-220 0 -393.5 94.5t-270 262.5t-96.5 381q0 214 98 385t267.5 265.5t377.5 94.5q180 0 334 -73.5t258 -210.5l-258 -166q-122 161 -336 161q-187 0 -308.5 -125.5t-121.5 -328.5q0 -205 124.5 -328t334.5 -123q176 0 320 80v246h-308v262h590v-668
q-121 -99 -280.5 -154t-331.5 -55zM651 -276q0 58 45.5 101.5t116.5 43.5q81 0 130.5 -55.5t49.5 -143.5q0 -116 -86 -227h-155q54 74 71 145h-14q-72 0 -115 38.5t-43 97.5z" />
    <glyph glyph-name="uni0123" unicode="&#x123;" horiz-adv-x="1304" 
d="M614 -471q-155 0 -290 51.5t-232 143.5l170 210q178 -141 346 -141q128 0 200.5 65.5t72.5 178.5v80q-123 -97 -289 -97q-141 0 -258.5 68t-186.5 189t-69 270q0 111 40.5 210t109.5 169t164 110.5t200 40.5q167 0 289 -96v72h286v-1016q0 -237 -148.5 -372.5
t-404.5 -135.5zM369 547q0 -118 76 -193t192 -75q146 0 244 110v316q-98 110 -244 110q-116 0 -192 -75.5t-76 -192.5zM463 1382q0 117 86 228h156q-55 -75 -72 -146h14q72 0 115 -38.5t43 -96.5t-45.5 -101.5t-116.5 -43.5q-81 0 -130.5 55t-49.5 143z" />
    <glyph glyph-name="Hcircumflex" unicode="&#x124;" horiz-adv-x="1554" 
d="M158 0v1434h301v-553h637v553h301v-1434h-301v594h-637v-594h-301zM389 1567l242 329h291l241 -329h-258l-129 157l-129 -157h-258z" />
    <glyph glyph-name="hcircumflex" unicode="&#x125;" horiz-adv-x="1265" 
d="M852 571q0 119 -52.5 180.5t-146.5 61.5q-130 0 -229 -111v-702h-287v1511h287v-538q128 104 307 104q185 0 296.5 -117t111.5 -327v-633h-287v571zM-106 1645l241 329h291l242 -329h-258l-129 157l-129 -157h-258z" />
    <glyph glyph-name="Hbar" unicode="&#x126;" horiz-adv-x="1597" 
d="M178 0v1047h-121v206h121v181h301v-181h637v181h301v-181h123v-206h-123v-1047h-301v594h-637v-594h-301zM479 881h637v166h-637v-166z" />
    <glyph glyph-name="hbar" unicode="&#x127;" horiz-adv-x="1265" 
d="M852 545q0 120 -52 180.5t-147 60.5q-131 0 -229 -110v-676h-287v1180h-164v184h164v147h287v-147h303v-184h-303v-232q133 105 307 105q185 0 296.5 -118.5t111.5 -328.5v-606h-287v545z" />
    <glyph glyph-name="Itilde" unicode="&#x128;" horiz-adv-x="616" 
d="M158 0v1434h301v-1434h-301zM-72 1649q15 116 77.5 178.5t150.5 62.5q33 0 66 -10t51 -19t51 -28q4 -2 14.5 -7.5t14.5 -7.5t13 -6t14 -6t12.5 -4t14 -3t13.5 -1q25 0 40.5 17.5t24.5 58.5l201 -55q-15 -115 -77 -178.5t-150 -63.5q-71 0 -166 57q-65 37 -96 37
q-26 0 -41.5 -18t-24.5 -60z" />
    <glyph glyph-name="itilde" unicode="&#x129;" horiz-adv-x="563" 
d="M137 0v1053h287v-1053h-287zM-51 1268q12 106 64.5 166.5t127.5 60.5q61 0 156 -53q52 -31 80 -31q46 0 59 74l176 -49q-12 -107 -64.5 -168.5t-127.5 -61.5q-63 0 -156 54q-56 30 -80 30q-46 0 -59 -73z" />
    <glyph glyph-name="Imacron" unicode="&#x12a;" horiz-adv-x="616" 
d="M158 0v1434h301v-1434h-301zM-2 1604v227h623v-227h-623z" />
    <glyph glyph-name="imacron" unicode="&#x12b;" horiz-adv-x="563" 
d="M137 0v1053h287v-1053h-287zM8 1235v213h545v-213h-545z" />
    <glyph glyph-name="Ibreve" unicode="&#x12c;" horiz-adv-x="616" 
d="M158 0v1434h301v-1434h-301zM-23 1872v20h226q0 -145 106 -145q107 0 107 145h225v-20q0 -142 -88 -224.5t-244 -82.5t-244 82.5t-88 224.5z" />
    <glyph glyph-name="ibreve" unicode="&#x12d;" horiz-adv-x="563" 
d="M137 0v1053h287v-1053h-287zM-8 1485v20h196q0 -69 25 -103t68 -34q92 0 92 137h196v-20q0 -136 -74 -212.5t-214 -76.5t-214.5 76.5t-74.5 212.5z" />
    <glyph glyph-name="Iogonek" unicode="&#x12e;" horiz-adv-x="616" 
d="M158 0v1434h301v-1432l2 -2q-70 -57 -97.5 -97.5t-27.5 -78.5q0 -64 67 -64q28 0 58 9v-209q-60 -17 -111 -17q-113 0 -178.5 57.5t-65.5 155.5q0 73 38.5 137t109.5 107h-96z" />
    <glyph glyph-name="iogonek" unicode="&#x12f;" horiz-adv-x="563" 
d="M137 0v1053h287v-1053q-70 -57 -97.5 -97.5t-27.5 -78.5q0 -64 68 -64q27 0 57 9v-209q-60 -17 -111 -17q-112 0 -177.5 57.5t-65.5 155.5q0 74 38.5 137.5t108.5 106.5h-80zM109 1362q0 73 49.5 120.5t122.5 47.5t122.5 -47.5t49.5 -120.5t-49.5 -121.5t-122.5 -48.5
t-122.5 48.5t-49.5 121.5z" />
    <glyph glyph-name="Idotaccent" unicode="&#x130;" horiz-adv-x="616" 
d="M158 0v1434h301v-1434h-301zM129 1739q0 75 52.5 125.5t127.5 50.5t127.5 -50.5t52.5 -125.5t-52.5 -125.5t-127.5 -50.5t-127.5 50.5t-52.5 125.5z" />
    <glyph glyph-name="dotlessi" unicode="&#x131;" horiz-adv-x="563" 
d="M137 0v1053h287v-1053h-287z" />
    <glyph glyph-name="Jcircumflex" unicode="&#x134;" horiz-adv-x="1196" 
d="M522 -25q-258 0 -473 144l146 258q185 -111 321 -111q112 0 174 66t62 194v908h303v-932q0 -258 -139.5 -392.5t-393.5 -134.5zM516 1567l242 329h291l241 -329h-258l-129 157l-129 -157h-258z" />
    <glyph glyph-name="jcircumflex" unicode="&#x135;" horiz-adv-x="563" 
d="M51 -471q-118 0 -211 37l39 256q79 -21 119 -21q69 0 104 43t35 136v1073h287v-1104q0 -216 -93 -318t-280 -102zM-57 1198l219 311h237l219 -311h-239l-98 137l-99 -137h-239z" />
    <glyph glyph-name="uni0136" unicode="&#x136;" horiz-adv-x="1490" 
d="M158 0v1434h301v-652l616 652h377l-604 -646l629 -788h-381l-457 567l-180 -192v-375h-301zM584 -276q0 58 45 101.5t116 43.5q81 0 131 -55.5t50 -143.5q0 -116 -86 -227h-156q55 76 72 145h-15q-72 0 -114.5 38.5t-42.5 97.5z" />
    <glyph glyph-name="uni0137" unicode="&#x137;" horiz-adv-x="1255" 
d="M137 0v1511h287v-880l434 422h367l-457 -453l477 -600h-358l-318 403l-145 -145v-258h-287zM461 -276q0 58 45.5 101.5t116.5 43.5q81 0 130.5 -55.5t49.5 -143.5q0 -116 -86 -227h-156q55 76 72 145h-15q-72 0 -114.5 38.5t-42.5 97.5z" />
    <glyph glyph-name="Lacute" unicode="&#x139;" horiz-adv-x="1187" 
d="M158 0v1434h301v-1147h661v-287h-962zM127 1567l164 329h346l-236 -329h-274z" />
    <glyph glyph-name="lacute" unicode="&#x13a;" horiz-adv-x="563" 
d="M137 0v1511h287v-1511h-287zM98 1645l164 329h346l-235 -329h-275z" />
    <glyph glyph-name="uni013B" unicode="&#x13b;" horiz-adv-x="1187" 
d="M158 0v1434h301v-1147h661v-287h-962zM471 -276q0 58 45.5 101.5t116.5 43.5q81 0 130.5 -55.5t49.5 -143.5q0 -116 -86 -227h-156q55 76 72 145h-14q-72 0 -115 38.5t-43 97.5z" />
    <glyph glyph-name="uni013C" unicode="&#x13c;" horiz-adv-x="563" 
d="M137 0v1511h287v-1511h-287zM115 -276q0 58 45 101.5t116 43.5q81 0 131 -55.5t50 -143.5q0 -116 -86 -227h-156q55 76 72 145h-15q-72 0 -114.5 38.5t-42.5 97.5z" />
    <glyph glyph-name="Lcaron" unicode="&#x13d;" horiz-adv-x="1187" 
d="M158 0v1434h301v-1147h661v-287h-962zM637 1294q0 70 46.5 117t117.5 47q78 0 126.5 -61t47.5 -158q-1 -98 -59 -192.5t-166 -176.5l-78 86q114 102 141 187h-18q-69 0 -113.5 42.5t-44.5 108.5z" />
    <glyph glyph-name="lcaron" unicode="&#x13e;" horiz-adv-x="874" 
d="M137 0v1511h287v-1511h-287zM575 1348q0 70 46.5 116.5t117.5 46.5q78 0 126.5 -61t47.5 -158q-3 -199 -225 -368l-78 86q116 103 142 186h-19q-69 0 -113.5 43t-44.5 109z" />
    <glyph glyph-name="Ldot" unicode="&#x13f;" horiz-adv-x="1208" 
d="M158 0v1434h301v-1147h661v-287h-962zM627 733q0 77 51.5 127.5t128.5 50.5t126.5 -50t49.5 -128t-49.5 -128t-126.5 -50t-128.5 50.5t-51.5 127.5z" />
    <glyph glyph-name="ldot" unicode="&#x140;" horiz-adv-x="962" 
d="M137 0v1511h287v-1511h-287zM567 575q0 84 54.5 138.5t138.5 54.5q83 0 136.5 -54t53.5 -139t-53.5 -138.5t-136.5 -53.5q-84 0 -138.5 54t-54.5 138z" />
    <glyph glyph-name="Lslash" unicode="&#x141;" horiz-adv-x="1243" 
d="M213 0v442l-201 -145v291l201 145v701h301v-482l350 254v-293l-350 -254v-372h662v-287h-963z" />
    <glyph glyph-name="lslash" unicode="&#x142;" horiz-adv-x="718" 
d="M215 0v494l-192 -140v264l192 140v753h287v-546l196 143v-264l-196 -144v-700h-287z" />
    <glyph glyph-name="Nacute" unicode="&#x143;" horiz-adv-x="1576" 
d="M158 0v1434h307l651 -928v928h303v-1434h-307l-653 932v-932h-301zM606 1567l164 329h346l-235 -329h-275z" />
    <glyph glyph-name="nacute" unicode="&#x144;" horiz-adv-x="1265" 
d="M852 571q0 119 -52.5 180.5t-146.5 61.5q-130 0 -229 -111v-702h-287v1053h287v-80q128 104 307 104q185 0 296.5 -117t111.5 -327v-633h-287v571zM461 1198l155 311h326l-221 -311h-260z" />
    <glyph glyph-name="uni0145" unicode="&#x145;" horiz-adv-x="1576" 
d="M158 0v1434h307l651 -928v928h303v-1434h-307l-653 932v-932h-301zM621 -276q0 58 45 101.5t116 43.5q81 0 131 -55.5t50 -143.5q0 -116 -86 -227h-156q55 76 72 145h-15q-72 0 -114.5 38.5t-42.5 97.5z" />
    <glyph glyph-name="uni0146" unicode="&#x146;" horiz-adv-x="1265" 
d="M852 571q0 119 -52.5 180.5t-146.5 61.5q-130 0 -229 -111v-702h-287v1053h287v-80q128 104 307 104q185 0 296.5 -117t111.5 -327v-633h-287v571zM471 -276q0 58 45.5 101.5t116.5 43.5q81 0 130.5 -55.5t49.5 -143.5q0 -116 -86 -227h-156q55 76 72 145h-14
q-72 0 -115 38.5t-43 97.5z" />
    <glyph glyph-name="Ncaron" unicode="&#x147;" horiz-adv-x="1576" 
d="M158 0v1434h307l651 -928v928h303v-1434h-307l-653 932v-932h-301zM401 1896h258l129 -157l130 157h258l-242 -329h-291z" />
    <glyph glyph-name="ncaron" unicode="&#x148;" horiz-adv-x="1265" 
d="M852 571q0 119 -52.5 180.5t-146.5 61.5q-130 0 -229 -111v-702h-287v1053h287v-80q128 104 307 104q185 0 296.5 -117t111.5 -327v-633h-287v571zM250 1509h258l121 -149l121 149h258l-240 -311h-279z" />
    <glyph glyph-name="Eng" unicode="&#x14a;" horiz-adv-x="1572" 
d="M1042 -393q-115 0 -211 37l41 262q79 -21 119 -21q115 0 127 107l-659 942v-934h-301v1434h307l649 -926v926h303v-1399q0 -222 -93.5 -325t-281.5 -103z" />
    <glyph glyph-name="eng" unicode="&#x14b;" horiz-adv-x="1265" 
d="M764 -381q-116 0 -211 35l39 258q68 -21 119 -21q70 0 105.5 42t35.5 135v503q0 119 -52.5 180.5t-146.5 61.5q-130 0 -229 -111v-702h-287v1053h287v-80q128 104 307 104q185 0 296.5 -117t111.5 -327v-594q0 -216 -94 -318t-281 -102z" />
    <glyph glyph-name="Omacron" unicode="&#x14c;" horiz-adv-x="1650" 
d="M825 -25q-155 0 -291.5 55.5t-235 153t-155.5 236t-57 297.5q0 212 97 382t266 264.5t376 94.5t376 -94.5t266.5 -264.5t97.5 -382t-97.5 -382.5t-266.5 -265t-376 -94.5zM397 717q0 -200 121.5 -326.5t306.5 -126.5t306.5 126.5t121.5 326.5t-121.5 326t-306.5 126
t-306.5 -126t-121.5 -326zM514 1604v227h623v-227h-623z" />
    <glyph glyph-name="omacron" unicode="&#x14d;" horiz-adv-x="1280" 
d="M639 -25q-243 0 -402 156.5t-159 394.5q0 239 159 395t402 156q244 0 402.5 -156t158.5 -395q0 -238 -158.5 -394.5t-402.5 -156.5zM346 1233v213h586v-213h-586zM369 526q0 -126 76.5 -206t193.5 -80q118 0 194 79.5t76 206.5q0 128 -76 207.5t-194 79.5
q-117 0 -193.5 -79.5t-76.5 -207.5z" />
    <glyph glyph-name="Obreve" unicode="&#x14e;" horiz-adv-x="1650" 
d="M825 -25q-155 0 -291.5 55.5t-235 153t-155.5 236t-57 297.5q0 212 97 382t266 264.5t376 94.5t376 -94.5t266.5 -264.5t97.5 -382t-97.5 -382.5t-266.5 -265t-376 -94.5zM397 717q0 -200 121.5 -326.5t306.5 -126.5t306.5 126.5t121.5 326.5t-121.5 326t-306.5 126
t-306.5 -126t-121.5 -326zM494 1872v20h225q0 -145 106 -145q107 0 107 145h225v-20q0 -142 -88 -224.5t-244 -82.5t-243.5 82.5t-87.5 224.5z" />
    <glyph glyph-name="obreve" unicode="&#x14f;" horiz-adv-x="1280" 
d="M639 -25q-243 0 -402 156.5t-159 394.5q0 239 159 395t402 156q244 0 402.5 -156t158.5 -395q0 -238 -158.5 -394.5t-402.5 -156.5zM326 1485v20h213q0 -137 100 -137t100 137h213v-20q0 -134 -83 -211.5t-230 -77.5t-230 77.5t-83 211.5zM369 526q0 -126 76.5 -206
t193.5 -80q118 0 194 79.5t76 206.5q0 128 -76 207.5t-194 79.5q-117 0 -193.5 -79.5t-76.5 -207.5z" />
    <glyph glyph-name="Ohungarumlaut" unicode="&#x150;" horiz-adv-x="1650" 
d="M825 -25q-155 0 -291.5 55.5t-235 153t-155.5 236t-57 297.5q0 212 97 382t266 264.5t376 94.5t376 -94.5t266.5 -264.5t97.5 -382t-97.5 -382.5t-266.5 -265t-376 -94.5zM397 717q0 -200 121.5 -326.5t306.5 -126.5t306.5 126.5t121.5 326.5t-121.5 326t-306.5 126
t-306.5 -126t-121.5 -326zM444 1567l144 329h291l-195 -329h-240zM854 1567l145 329h289l-192 -329h-242z" />
    <glyph glyph-name="ohungarumlaut" unicode="&#x151;" horiz-adv-x="1280" 
d="M639 -25q-243 0 -402 156.5t-159 394.5q0 239 159 395t402 156q244 0 402.5 -156t158.5 -395q0 -238 -158.5 -394.5t-402.5 -156.5zM281 1198l137 311h272l-182 -311h-227zM369 526q0 -126 76.5 -206t193.5 -80q118 0 194 79.5t76 206.5q0 128 -76 207.5t-194 79.5
q-117 0 -193.5 -79.5t-76.5 -207.5zM668 1198l137 311h274l-184 -311h-227z" />
    <glyph glyph-name="OE" unicode="&#x152;" horiz-adv-x="2121" 
d="M823 0q-216 0 -382.5 85.5t-260.5 249t-94 382.5q0 221 94 384.5t260 248t383 84.5h1188v-281h-719v-272h621v-279h-621v-321h719v-281h-1188zM397 717q0 -208 114.5 -319t319.5 -111h158v860h-158q-205 0 -319.5 -111t-114.5 -319z" />
    <glyph glyph-name="oe" unicode="&#x153;" horiz-adv-x="2084" 
d="M639 240q118 0 194 79.5t76 206.5q0 128 -76 207.5t-194 79.5q-117 0 -193.5 -79.5t-76.5 -207.5q0 -126 76.5 -206t193.5 -80zM78 526q0 239 159 395t402 156q127 0 234 -45.5t180 -128.5q157 174 426 174q234 0 380 -141t146 -381q0 -55 -8 -102h-803
q19 -115 93.5 -174.5t195.5 -59.5q173 0 289 133l198 -151q-176 -226 -489 -226q-136 0 -247 44.5t-187 125.5q-73 -81 -178 -125.5t-230 -44.5q-243 0 -402 156.5t-159 394.5zM1206 655h512q-40 185 -243 185q-102 0 -171 -47.5t-98 -137.5z" />
    <glyph glyph-name="Racute" unicode="&#x154;" horiz-adv-x="1413" 
d="M158 0v1434h614q233 0 371.5 -126.5t138.5 -338.5q0 -167 -88 -283.5t-244 -159.5l398 -526h-365l-365 504h-159v-504h-301zM459 786h289q109 0 166 48t57 135t-57 133.5t-166 46.5h-289v-363zM504 1567l164 329h346l-236 -329h-274z" />
    <glyph glyph-name="racute" unicode="&#x155;" horiz-adv-x="845" 
d="M137 0v1053h287v-105q52 62 125.5 95.5t152.5 33.5q54 0 109 -14l-12 -264q-74 8 -94 8q-178 0 -281 -145v-662h-287zM297 1198l156 311h325l-221 -311h-260z" />
    <glyph glyph-name="uni0156" unicode="&#x156;" horiz-adv-x="1413" 
d="M158 0v1434h614q233 0 371.5 -126.5t138.5 -338.5q0 -167 -88 -283.5t-244 -159.5l398 -526h-365l-365 504h-159v-504h-301zM459 786h289q109 0 166 48t57 135t-57 133.5t-166 46.5h-289v-363zM537 -276q0 58 45 101.5t116 43.5q81 0 131 -55.5t50 -143.5
q0 -116 -86 -227h-156q55 76 72 145h-15q-72 0 -114.5 38.5t-42.5 97.5z" />
    <glyph glyph-name="uni0157" unicode="&#x157;" horiz-adv-x="845" 
d="M137 0v1053h287v-105q52 62 125.5 95.5t152.5 33.5q54 0 109 -14l-12 -264q-74 8 -94 8q-178 0 -281 -145v-662h-287zM115 -276q0 58 45 101.5t116 43.5q81 0 131 -55.5t50 -143.5q0 -116 -86 -227h-156q55 76 72 145h-15q-72 0 -114.5 38.5t-42.5 97.5z" />
    <glyph glyph-name="Rcaron" unicode="&#x158;" horiz-adv-x="1413" 
d="M158 0v1434h614q233 0 371.5 -126.5t138.5 -338.5q0 -167 -88 -283.5t-244 -159.5l398 -526h-365l-365 504h-159v-504h-301zM299 1896h258l129 -157l129 157h258l-242 -329h-290zM459 786h289q109 0 166 48t57 135t-57 133.5t-166 46.5h-289v-363z" />
    <glyph glyph-name="rcaron" unicode="&#x159;" horiz-adv-x="845" 
d="M137 0v1053h287v-105q52 62 125.5 95.5t152.5 33.5q54 0 109 -14l-12 -264q-74 8 -94 8q-178 0 -281 -145v-662h-287zM127 1509h240l98 -137l98 137h240l-219 -311h-238z" />
    <glyph glyph-name="Sacute" unicode="&#x15a;" horiz-adv-x="1243" 
d="M631 -25q-162 0 -312.5 50t-263.5 143l174 238q215 -154 414 -154q114 0 176 45.5t62 118.5q0 58 -47 97.5t-160 66.5l-223 53q-365 87 -365 385q0 194 147 317t392 123q153 0 290.5 -51.5t243.5 -151.5l-196 -211q-158 140 -347 140q-110 0 -168.5 -41.5t-58.5 -108.5
q0 -53 45 -88t164 -63l223 -54q186 -44 275.5 -140t89.5 -253q0 -210 -148 -335.5t-407 -125.5zM446 1567l164 329h346l-235 -329h-275z" />
    <glyph glyph-name="sacute" unicode="&#x15b;" horiz-adv-x="1056" 
d="M541 -25q-135 0 -259.5 39t-213.5 107l137 217q174 -121 342 -121q73 0 113 24.5t40 65.5q0 31 -28.5 53t-96.5 39l-180 43q-157 36 -228 107.5t-71 185.5q0 155 117 248.5t319 93.5q128 0 243 -38.5t198 -106.5l-142 -205q-159 111 -309 111q-68 0 -104.5 -23.5
t-36.5 -60.5q0 -30 27 -49.5t96 -36.5l180 -43q159 -38 231 -111t72 -190q0 -160 -117.5 -254.5t-328.5 -94.5zM360 1196l156 311h326l-221 -311h-261z" />
    <glyph glyph-name="Scircumflex" unicode="&#x15c;" horiz-adv-x="1243" 
d="M631 -25q-162 0 -312.5 50t-263.5 143l174 238q215 -154 414 -154q114 0 176 45.5t62 118.5q0 58 -47 97.5t-160 66.5l-223 53q-365 87 -365 385q0 194 147 317t392 123q153 0 290.5 -51.5t243.5 -151.5l-196 -211q-158 140 -347 140q-110 0 -168.5 -41.5t-58.5 -108.5
q0 -53 45 -88t164 -63l223 -54q186 -44 275.5 -140t89.5 -253q0 -210 -148 -335.5t-407 -125.5zM242 1567l241 329h291l242 -329h-258l-129 157l-129 -157h-258z" />
    <glyph glyph-name="scircumflex" unicode="&#x15d;" horiz-adv-x="1056" 
d="M541 -25q-135 0 -259.5 39t-213.5 107l137 217q174 -121 342 -121q73 0 113 24.5t40 65.5q0 31 -28.5 53t-96.5 39l-180 43q-157 36 -228 107.5t-71 185.5q0 155 117 248.5t319 93.5q128 0 243 -38.5t198 -106.5l-142 -205q-159 111 -309 111q-68 0 -104.5 -23.5
t-36.5 -60.5q0 -30 27 -49.5t96 -36.5l180 -43q159 -38 231 -111t72 -190q0 -160 -117.5 -254.5t-328.5 -94.5zM150 1196l239 311h279l239 -311h-258l-121 150l-120 -150h-258z" />
    <glyph glyph-name="Scedilla" unicode="&#x15e;" horiz-adv-x="1243" 
d="M313 -375l197 357q-269 32 -455 186l174 238q215 -154 414 -154q114 0 176 45.5t62 118.5q0 58 -47 97.5t-160 66.5l-223 53q-365 87 -365 385q0 194 147 317t392 123q153 0 290.5 -51.5t243.5 -151.5l-196 -211q-158 140 -347 140q-110 0 -168.5 -41.5t-58.5 -108.5
q0 -53 45 -88t164 -63l223 -54q186 -44 275.5 -140t89.5 -253q0 -180 -110 -299t-310 -151l-135 -361h-318z" />
    <glyph glyph-name="scedilla" unicode="&#x15f;" horiz-adv-x="1056" 
d="M250 -336l174 320q-213 25 -356 137l137 217q174 -121 342 -121q73 0 113 24.5t40 65.5q0 31 -28.5 53t-96.5 39l-180 43q-157 36 -228 107.5t-71 185.5q0 155 117 248.5t319 93.5q128 0 243 -38.5t198 -106.5l-142 -205q-159 111 -309 111q-68 0 -104.5 -23.5
t-36.5 -60.5q0 -30 27 -49.5t96 -36.5l180 -43q159 -38 231 -111t72 -190q0 -135 -85 -224t-240 -114l-121 -322h-291z" />
    <glyph glyph-name="Scaron" unicode="&#x160;" horiz-adv-x="1243" 
d="M631 -25q-162 0 -312.5 50t-263.5 143l174 238q215 -154 414 -154q114 0 176 45.5t62 118.5q0 58 -47 97.5t-160 66.5l-223 53q-365 87 -365 385q0 194 147 317t392 123q153 0 290.5 -51.5t243.5 -151.5l-196 -211q-158 140 -347 140q-110 0 -168.5 -41.5t-58.5 -108.5
q0 -53 45 -88t164 -63l223 -54q186 -44 275.5 -140t89.5 -253q0 -210 -148 -335.5t-407 -125.5zM242 1896h258l129 -157l129 157h258l-242 -329h-291z" />
    <glyph glyph-name="scaron" unicode="&#x161;" horiz-adv-x="1056" 
d="M541 -25q-135 0 -259.5 39t-213.5 107l137 217q174 -121 342 -121q73 0 113 24.5t40 65.5q0 31 -28.5 53t-96.5 39l-180 43q-157 36 -228 107.5t-71 185.5q0 155 117 248.5t319 93.5q128 0 243 -38.5t198 -106.5l-142 -205q-159 111 -309 111q-68 0 -104.5 -23.5
t-36.5 -60.5q0 -30 27 -49.5t96 -36.5l180 -43q159 -38 231 -111t72 -190q0 -160 -117.5 -254.5t-328.5 -94.5zM150 1507h258l120 -149l121 149h258l-239 -311h-279z" />
    <glyph glyph-name="uni0162" unicode="&#x162;" horiz-adv-x="1259" 
d="M477 0v1147h-434v287h1171v-287h-434v-1147h-303zM463 -276q0 58 45.5 101.5t116.5 43.5q81 0 130.5 -55.5t49.5 -143.5q0 -116 -86 -227h-156q55 76 72 145h-14q-72 0 -115 38.5t-43 97.5z" />
    <glyph glyph-name="uni0163" unicode="&#x163;" horiz-adv-x="913" 
d="M618 -20q-196 0 -293.5 102.5t-97.5 316.5v402h-202v252h202v245h287v-245h313v-252h-313v-367q0 -99 40 -144.5t126 -45.5q69 0 151 26l35 -245q-112 -45 -248 -45zM356 -276q0 58 45.5 101.5t116.5 43.5q81 0 130.5 -55.5t49.5 -143.5q0 -116 -86 -227h-155
q54 74 71 145h-14q-72 0 -115 38.5t-43 97.5z" />
    <glyph glyph-name="Tcaron" unicode="&#x164;" horiz-adv-x="1259" 
d="M477 0v1147h-434v287h1171v-287h-434v-1147h-303zM242 1896h258l129 -157l129 157h258l-242 -329h-291z" />
    <glyph glyph-name="tcaron" unicode="&#x165;" horiz-adv-x="913" 
d="M618 -20q-196 0 -293.5 102.5t-97.5 316.5v402h-202v252h202v245h287v-245h313v-252h-313v-367q0 -99 40 -144.5t126 -45.5q69 0 151 26l35 -245q-112 -45 -248 -45zM584 1520q0 52 40.5 91.5t104.5 39.5q73 0 118.5 -50.5t45.5 -130.5q0 -104 -78 -204h-141
q50 65 65 131h-14q-65 0 -103 34.5t-38 88.5z" />
    <glyph glyph-name="Tbar" unicode="&#x166;" horiz-adv-x="1259" 
d="M477 0v590h-227v229h227v328h-434v287h1171v-287h-434v-328h228v-229h-228v-590h-303z" />
    <glyph glyph-name="tbar" unicode="&#x167;" horiz-adv-x="937" 
d="M47 463v174h193v164h-203v252h203v245h286v-245h314v-252h-314v-164h283v-174h-283v-29q0 -99 40 -144.5t126 -45.5q70 0 152 26l35 -245q-112 -45 -248 -45q-196 0 -293.5 102.5t-97.5 316.5v64h-193z" />
    <glyph glyph-name="Utilde" unicode="&#x168;" horiz-adv-x="1499" 
d="M750 -25q-286 0 -446.5 157.5t-160.5 449.5v852h301v-822q0 -175 79 -261.5t227 -86.5t226.5 86.5t78.5 261.5v822h303v-852q0 -292 -161 -449.5t-447 -157.5zM371 1649q15 116 77 178.5t150 62.5q33 0 66 -10t51 -19t51 -28q4 -2 14.5 -7.5t14.5 -7.5t13 -6t14 -6
t12.5 -4t14 -3t13.5 -1q25 0 41 18t25 58l200 -55q-15 -115 -77 -178.5t-150 -63.5q-71 0 -166 57q-65 37 -96 37q-26 0 -41.5 -18t-24.5 -60z" />
    <glyph glyph-name="utilde" unicode="&#x169;" horiz-adv-x="1255" 
d="M524 -25q-182 0 -289.5 115t-107.5 322v641h287v-580q0 -116 49 -174.5t141 -58.5q131 0 227 110v703h287v-1053h-287v78q-130 -103 -307 -103zM270 1278q12 104 71 165.5t138 61.5q71 0 158 -53q64 -35 90 -35q46 0 59 74l191 -53q-13 -105 -72 -166.5t-139 -61.5
q-31 0 -62.5 9.5t-48.5 18.5t-47 26q-62 34 -90 34q-22 0 -36 -16.5t-23 -56.5z" />
    <glyph glyph-name="Umacron" unicode="&#x16a;" horiz-adv-x="1499" 
d="M750 -25q-286 0 -446.5 157.5t-160.5 449.5v852h301v-822q0 -175 79 -261.5t227 -86.5t226.5 86.5t78.5 261.5v822h303v-852q0 -292 -161 -449.5t-447 -157.5zM438 1604v227h623v-227h-623z" />
    <glyph glyph-name="umacron" unicode="&#x16b;" horiz-adv-x="1255" 
d="M524 -25q-182 0 -289.5 115t-107.5 322v641h287v-580q0 -116 49 -174.5t141 -58.5q131 0 227 110v703h287v-1053h-287v78q-130 -103 -307 -103zM330 1233v213h585v-213h-585z" />
    <glyph glyph-name="Ubreve" unicode="&#x16c;" horiz-adv-x="1499" 
d="M750 -25q-286 0 -446.5 157.5t-160.5 449.5v852h301v-822q0 -175 79 -261.5t227 -86.5t226.5 86.5t78.5 261.5v822h303v-852q0 -292 -161 -449.5t-447 -157.5zM418 1872v20h225q0 -145 107 -145q106 0 106 145h225v-20q0 -142 -87.5 -224.5t-243.5 -82.5t-244 82.5
t-88 224.5z" />
    <glyph glyph-name="ubreve" unicode="&#x16d;" horiz-adv-x="1255" 
d="M524 -25q-182 0 -289.5 115t-107.5 322v641h287v-580q0 -116 49 -174.5t141 -58.5q131 0 227 110v703h287v-1053h-287v78q-130 -103 -307 -103zM309 1485v20h213q0 -137 101 -137q100 0 100 137h213v-20q0 -134 -83 -211.5t-230 -77.5t-230.5 77.5t-83.5 211.5z" />
    <glyph glyph-name="Uring" unicode="&#x16e;" horiz-adv-x="1499" 
d="M750 -25q-286 0 -446.5 157.5t-160.5 449.5v852h301v-822q0 -175 79 -261.5t227 -86.5t226.5 86.5t78.5 261.5v822h303v-852q0 -292 -161 -449.5t-447 -157.5zM504 1720q0 97 70 161.5t176 64.5t175.5 -64.5t69.5 -161.5t-70 -162t-175 -65q-106 0 -176 65t-70 162z
M668 1720q0 -36 22 -59t60 -23q37 0 59 23t22 59t-21.5 58t-59.5 22t-60 -22t-22 -58z" />
    <glyph glyph-name="uring" unicode="&#x16f;" horiz-adv-x="1255" 
d="M524 -25q-182 0 -289.5 115t-107.5 322v641h287v-580q0 -116 49 -174.5t141 -58.5q131 0 227 110v703h287v-1053h-287v78q-130 -103 -307 -103zM379 1397q0 97 70 161t174 64t173.5 -64t69.5 -161q0 -96 -69.5 -161t-173.5 -65t-174 65t-70 161zM541 1397
q0 -35 22.5 -57.5t59.5 -22.5t59.5 22.5t22.5 57.5t-22.5 57.5t-59.5 22.5t-59.5 -22.5t-22.5 -57.5z" />
    <glyph glyph-name="Uhungarumlaut" unicode="&#x170;" horiz-adv-x="1499" 
d="M750 -25q-286 0 -446.5 157.5t-160.5 449.5v852h301v-822q0 -175 79 -261.5t227 -86.5t226.5 86.5t78.5 261.5v822h303v-852q0 -292 -161 -449.5t-447 -157.5zM369 1567l143 329h291l-195 -329h-239zM778 1567l146 329h288l-192 -329h-242z" />
    <glyph glyph-name="uhungarumlaut" unicode="&#x171;" horiz-adv-x="1255" 
d="M524 -25q-182 0 -289.5 115t-107.5 322v641h287v-580q0 -116 49 -174.5t141 -58.5q131 0 227 110v703h287v-1053h-287v78q-130 -103 -307 -103zM264 1198l137 311h273l-182 -311h-228zM651 1198l137 311h275l-184 -311h-228z" />
    <glyph glyph-name="Uogonek" unicode="&#x172;" horiz-adv-x="1499" 
d="M840 -477q-126 0 -200.5 61.5t-74.5 165.5q0 138 121 227q-257 17 -400 173.5t-143 431.5v852h301v-822q0 -175 79 -261.5t227 -86.5t226.5 86.5t78.5 261.5v822h303v-852q0 -232 -102.5 -380t-292.5 -200q-84 -57 -118 -100t-34 -82q0 -68 86 -68q35 0 66 10v-223
q-56 -16 -123 -16z" />
    <glyph glyph-name="uogonek" unicode="&#x173;" horiz-adv-x="1255" 
d="M524 -25q-182 0 -289.5 115t-107.5 322v641h287v-580q0 -116 49 -174.5t141 -58.5q131 0 227 110v703h287v-1053q-79 -54 -110 -94t-31 -78q0 -64 80 -64q29 0 61 11v-211q-50 -15 -114 -15q-120 0 -190.5 57.5t-70.5 155.5q0 149 148 238h-60v78q-130 -103 -307 -103z
" />
    <glyph glyph-name="Wcircumflex" unicode="&#x174;" horiz-adv-x="2168" 
d="M463 0l-424 1434h319l275 -953l317 953h271l317 -949l274 949h318l-422 -1434h-301l-322 991l-321 -991h-301zM698 1567l242 329h291l242 -329h-259l-129 157l-129 -157h-258z" />
    <glyph glyph-name="wcircumflex" unicode="&#x175;" horiz-adv-x="1818" 
d="M373 0l-344 1053h303l207 -666l233 666h275l231 -662l207 662h305l-344 -1053h-297l-240 686l-239 -686h-297zM530 1198l240 311h279l239 -311h-258l-121 150l-121 -150h-258z" />
    <glyph glyph-name="Ycircumflex" unicode="&#x176;" horiz-adv-x="1341" 
d="M518 0v563l-512 871h340l326 -564l323 564h340l-512 -871v-563h-305zM285 1567l241 329h291l242 -329h-258l-129 157l-129 -157h-258z" />
    <glyph glyph-name="ycircumflex" unicode="&#x177;" horiz-adv-x="1204" 
d="M283 -446l186 466l-455 1033h328l274 -664l263 664h311l-598 -1499h-309zM229 1198l240 311h279l239 -311h-258l-121 150l-121 -150h-258z" />
    <glyph glyph-name="Ydieresis" unicode="&#x178;" horiz-adv-x="1341" 
d="M518 0v563l-512 871h340l326 -564l323 564h340l-512 -871v-563h-305zM272 1739q0 75 49 123.5t119 48.5q72 0 121 -48.5t49 -123.5q0 -74 -49 -122t-121 -48q-70 0 -119 48t-49 122zM733 1739q0 75 49 123.5t119 48.5q72 0 121 -48.5t49 -123.5q0 -74 -49 -122t-121 -48
q-70 0 -119 48t-49 122z" />
    <glyph glyph-name="Zacute" unicode="&#x179;" horiz-adv-x="1265" 
d="M96 0v238l668 909h-655v287h1046v-238l-668 -909h682v-287h-1073zM451 1567l163 329h347l-236 -329h-274z" />
    <glyph glyph-name="zacute" unicode="&#x17a;" horiz-adv-x="1050" 
d="M80 0v209l489 592h-483v252h879v-207l-488 -592h494v-254h-891zM358 1198l156 311h326l-222 -311h-260z" />
    <glyph glyph-name="Zdotaccent" unicode="&#x17b;" horiz-adv-x="1265" 
d="M96 0v238l668 909h-655v287h1046v-238l-668 -909h682v-287h-1073zM453 1739q0 75 52.5 125.5t127.5 50.5t127.5 -50.5t52.5 -125.5t-52.5 -125.5t-127.5 -50.5t-127.5 50.5t-52.5 125.5z" />
    <glyph glyph-name="zdotaccent" unicode="&#x17c;" horiz-adv-x="1050" 
d="M80 0v209l489 592h-483v252h879v-207l-488 -592h494v-254h-891zM354 1362q0 73 49.5 120.5t122.5 47.5t122.5 -47.5t49.5 -120.5t-49.5 -121.5t-122.5 -48.5t-122.5 48.5t-49.5 121.5z" />
    <glyph glyph-name="Zcaron" unicode="&#x17d;" horiz-adv-x="1265" 
d="M96 0v238l668 909h-655v287h1046v-238l-668 -909h682v-287h-1073zM246 1896h258l129 -157l129 157h258l-242 -329h-291z" />
    <glyph glyph-name="zcaron" unicode="&#x17e;" horiz-adv-x="1050" 
d="M80 0v209l489 592h-483v252h879v-207l-488 -592h494v-254h-891zM147 1509h259l120 -149l121 149h258l-239 -311h-279z" />
    <glyph glyph-name="florin" unicode="&#x192;" horiz-adv-x="989" 
d="M195 -25q-69 0 -140 19v250q37 -6 72 -6q71 0 107 31t51 112l61 317h-205v185h240l49 258q59 317 365 317q71 0 139 -18v-250q-38 6 -72 6q-71 0 -106.5 -31t-50.5 -112l-33 -170h243v-185h-278l-78 -405q-59 -318 -364 -318z" />
    <glyph glyph-name="uni01CD" unicode="&#x1cd;" horiz-adv-x="1476" 
d="M16 0l545 1434h354l545 -1434h-321l-113 303h-575l-113 -303h-322zM352 1896h258l129 -157l129 157h258l-241 -329h-291zM545 563h387l-193 524z" />
    <glyph glyph-name="uni01CE" unicode="&#x1ce;" horiz-adv-x="1306" 
d="M598 -25q-142 0 -261 70.5t-189 197.5t-70 283q0 238 151 394.5t369 156.5q163 0 283 -94v70h286v-1053h-286v70q-121 -95 -283 -95zM295 1509h258l121 -149l121 149h258l-240 -311h-278zM369 526q0 -129 77 -207.5t197 -78.5q146 0 238 108v359q-93 106 -238 106
q-120 0 -197 -79t-77 -208z" />
    <glyph glyph-name="uni01E2" unicode="&#x1e2;" horiz-adv-x="2269" 
d="M2 0l959 1434h1198v-281h-721v-272h620v-279h-620v-321h721v-281h-1022v334h-539l-221 -334h-375zM770 592h367v549zM1198 1604v227h623v-227h-623z" />
    <glyph glyph-name="uni01E3" unicode="&#x1e3;" horiz-adv-x="1986" 
d="M504 -25q-205 0 -320.5 91.5t-115.5 242.5q0 152 117 242t329 90h299v16q0 179 -223 179q-168 0 -342 -134l-142 203q200 172 488 172q269 0 387 -145q154 145 397 145q234 0 380.5 -141.5t146.5 -380.5q0 -41 -7 -102h-804q19 -115 93.5 -174.5t196.5 -59.5
q171 0 287 133l201 -151q-179 -226 -492 -226q-266 0 -426 160q-181 -160 -450 -160zM354 324q0 -55 46.5 -87t134.5 -32q175 0 305 121q-19 58 -27 114h-285q-86 0 -130 -31.5t-44 -84.5zM692 1233v213h586v-213h-586zM1106 655h512q-20 92 -83 138.5t-161 46.5
q-101 0 -170 -47t-98 -138z" />
    <glyph glyph-name="Gcaron" unicode="&#x1e6;" horiz-adv-x="1576" 
d="M846 -25q-220 0 -393.5 94.5t-270 262.5t-96.5 381q0 214 98 385t267.5 265.5t377.5 94.5q180 0 334 -73.5t258 -210.5l-258 -166q-122 161 -336 161q-187 0 -308.5 -125.5t-121.5 -328.5q0 -205 124.5 -328t334.5 -123q176 0 320 80v246h-308v262h590v-668
q-121 -99 -280.5 -154t-331.5 -55zM436 1896h258l129 -157l129 157h258l-241 -329h-291z" />
    <glyph glyph-name="gcaron" unicode="&#x1e7;" horiz-adv-x="1304" 
d="M614 -471q-155 0 -290 51.5t-232 143.5l170 210q178 -141 346 -141q128 0 200.5 65.5t72.5 178.5v80q-123 -97 -289 -97q-141 0 -258.5 68t-186.5 189t-69 270q0 111 40.5 210t109.5 169t164 110.5t200 40.5q167 0 289 -96v72h286v-1016q0 -237 -148.5 -372.5
t-404.5 -135.5zM258 1509h258l121 -149l121 149h258l-240 -311h-278zM369 547q0 -118 76 -193t192 -75q146 0 244 110v316q-98 110 -244 110q-116 0 -192 -75.5t-76 -192.5z" />
    <glyph glyph-name="uni01E8" unicode="&#x1e8;" horiz-adv-x="1490" 
d="M158 0v1434h301v-652l616 652h377l-604 -646l629 -788h-381l-457 567l-180 -192v-375h-301zM365 1896h258l129 -157l129 157h258l-242 -329h-291z" />
    <glyph glyph-name="uni01E9" unicode="&#x1e9;" horiz-adv-x="1255" 
d="M137 0v1511h287v-880l434 422h367l-457 -453l477 -600h-358l-318 403l-145 -145v-258h-287zM-98 1968h258l121 -149l120 149h258l-239 -311h-279z" />
    <glyph glyph-name="AEacute" unicode="&#x1fc;" horiz-adv-x="2269" 
d="M2 0l959 1434h1198v-281h-721v-272h620v-279h-620v-321h721v-281h-1022v334h-539l-221 -334h-375zM770 592h367v549zM1327 1567l164 329h346l-235 -329h-275z" />
    <glyph glyph-name="aeacute" unicode="&#x1fd;" horiz-adv-x="1986" 
d="M504 -25q-205 0 -320.5 91.5t-115.5 242.5q0 152 117 242t329 90h299v16q0 179 -223 179q-168 0 -342 -134l-142 203q200 172 488 172q269 0 387 -145q154 145 397 145q234 0 380.5 -141.5t146.5 -380.5q0 -41 -7 -102h-804q19 -115 93.5 -174.5t196.5 -59.5
q171 0 287 133l201 -151q-179 -226 -492 -226q-266 0 -426 160q-181 -160 -450 -160zM354 324q0 -55 46.5 -87t134.5 -32q175 0 305 121q-19 58 -27 114h-285q-86 0 -130 -31.5t-44 -84.5zM817 1198l156 311h325l-221 -311h-260zM1106 655h512q-20 92 -83 138.5t-161 46.5
q-101 0 -170 -47t-98 -138z" />
    <glyph glyph-name="Oslashacute" unicode="&#x1fe;" horiz-adv-x="1642" 
d="M821 -25q-191 0 -352 82l-129 -174l-184 142l127 172q-96 99 -148.5 232.5t-52.5 287.5q0 212 97 382t266 264.5t376 94.5q192 0 353 -82l129 174l184 -141l-127 -172q96 -99 148.5 -232.5t52.5 -287.5q0 -212 -97.5 -382.5t-266.5 -265t-376 -94.5zM379 717
q0 -170 86 -289l541 719q-86 39 -185 39q-191 0 -316.5 -131t-125.5 -338zM637 285q81 -37 184 -37q191 0 317 131t126 338q0 167 -86 289zM639 1567l164 329h346l-236 -329h-274z" />
    <glyph glyph-name="oslashacute" unicode="&#x1ff;" horiz-adv-x="1282" 
d="M641 -25q-134 0 -256 56l-98 -131l-150 114l94 125q-153 153 -153 387q0 239 159.5 395t403.5 156q139 0 258 -55l96 129l150 -113l-94 -123q153 -156 153 -389q0 -238 -159.5 -394.5t-403.5 -156.5zM350 526q0 -110 53 -184l355 469q-57 23 -117 23q-127 0 -209 -85.5
t-82 -222.5zM473 1198l156 311h325l-221 -311h-260zM526 242q61 -21 115 -21q127 0 209 85t82 220q0 110 -53 187z" />
    <glyph glyph-name="uni0218" unicode="&#x218;" horiz-adv-x="1243" 
d="M631 -25q-162 0 -312.5 50t-263.5 143l174 238q215 -154 414 -154q114 0 176 45.5t62 118.5q0 58 -47 97.5t-160 66.5l-223 53q-365 87 -365 385q0 194 147 317t392 123q153 0 290.5 -51.5t243.5 -151.5l-196 -211q-158 140 -347 140q-110 0 -168.5 -41.5t-58.5 -108.5
q0 -53 45 -88t164 -63l223 -54q186 -44 275.5 -140t89.5 -253q0 -210 -148 -335.5t-407 -125.5zM473 -276q0 58 45.5 101.5t116.5 43.5q81 0 130.5 -55.5t49.5 -143.5q0 -116 -86 -227h-156q55 76 72 145h-14q-72 0 -115 38.5t-43 97.5z" />
    <glyph glyph-name="uni0219" unicode="&#x219;" horiz-adv-x="1056" 
d="M541 -25q-135 0 -259.5 39t-213.5 107l137 217q174 -121 342 -121q73 0 113 24.5t40 65.5q0 31 -28.5 53t-96.5 39l-180 43q-157 36 -228 107.5t-71 185.5q0 155 117 248.5t319 93.5q128 0 243 -38.5t198 -106.5l-142 -205q-159 111 -309 111q-68 0 -104.5 -23.5
t-36.5 -60.5q0 -30 27 -49.5t96 -36.5l180 -43q159 -38 231 -111t72 -190q0 -160 -117.5 -254.5t-328.5 -94.5zM373 -276q0 58 45.5 101.5t116.5 43.5q81 0 130.5 -55.5t49.5 -143.5q0 -116 -86 -227h-156q55 76 72 145h-15q-72 0 -114.5 38.5t-42.5 97.5z" />
    <glyph glyph-name="uni021A" unicode="&#x21a;" horiz-adv-x="1259" 
d="M477 0v1147h-434v287h1171v-287h-434v-1147h-303zM463 -276q0 58 45.5 101.5t116.5 43.5q81 0 130.5 -55.5t49.5 -143.5q0 -116 -86 -227h-156q55 76 72 145h-14q-72 0 -115 38.5t-43 97.5z" />
    <glyph glyph-name="uni021B" unicode="&#x21b;" horiz-adv-x="913" 
d="M618 -20q-196 0 -293.5 102.5t-97.5 316.5v402h-202v252h202v245h287v-245h313v-252h-313v-367q0 -99 40 -144.5t126 -45.5q69 0 151 26l35 -245q-112 -45 -248 -45zM356 -276q0 58 45.5 101.5t116.5 43.5q81 0 130.5 -55.5t49.5 -143.5q0 -116 -86 -227h-155
q54 74 71 145h-14q-72 0 -115 38.5t-43 97.5z" />
    <glyph glyph-name="uni0237" unicode="&#x237;" horiz-adv-x="563" 
d="M51 -471q-118 0 -211 37l39 256q79 -21 119 -21q69 0 104 43t35 136v1073h287v-1104q0 -216 -93 -318t-280 -102z" />
    <glyph glyph-name="circumflex" unicode="&#x2c6;" horiz-adv-x="1228" 
d="M236 1198l239 311h279l239 -311h-258l-121 150l-120 -150h-258z" />
    <glyph glyph-name="caron" unicode="&#x2c7;" horiz-adv-x="1228" 
d="M475 1198l-239 311h258l120 -149l121 149h258l-239 -311h-279z" />
    <glyph glyph-name="breve" unicode="&#x2d8;" horiz-adv-x="1228" 
d="M614 1196q-147 0 -230 77.5t-83 211.5v20h213q0 -137 100 -137q101 0 101 137h213v-20q0 -134 -83.5 -211.5t-230.5 -77.5z" />
    <glyph glyph-name="dotaccent" unicode="&#x2d9;" horiz-adv-x="1228" 
d="M614 1192q-73 0 -122.5 48.5t-49.5 121.5t49.5 120.5t122.5 47.5t122.5 -47.5t49.5 -120.5t-49.5 -121.5t-122.5 -48.5z" />
    <glyph glyph-name="ring" unicode="&#x2da;" horiz-adv-x="1228" 
d="M614 1171q-104 0 -173.5 65t-69.5 161q0 97 69.5 161t173.5 64t174 -64t70 -161q0 -96 -70 -161t-174 -65zM532 1397q0 -35 22.5 -57.5t59.5 -22.5t59.5 22.5t22.5 57.5t-22.5 57.5t-59.5 22.5t-59.5 -22.5t-22.5 -57.5z" />
    <glyph glyph-name="ogonek" unicode="&#x2db;" horiz-adv-x="1228" 
d="M686 -451q-120 0 -190 57.5t-70 155.5q0 99 72 177t207 114l96 -53q-79 -54 -110.5 -94t-31.5 -78q0 -64 80 -64q30 0 62 11v-211q-49 -15 -115 -15z" />
    <glyph glyph-name="tilde" unicode="&#x2dc;" horiz-adv-x="1228" 
d="M758 1210q-31 0 -62.5 9.5t-48.5 18.5t-47 26q-62 34 -90 34q-22 0 -36 -16.5t-23 -56.5l-189 53q12 104 71 165.5t138 61.5q71 0 158 -53q64 -35 90 -35q46 0 59 74l191 -53q-13 -105 -72 -166.5t-139 -61.5z" />
    <glyph glyph-name="hungarumlaut" unicode="&#x2dd;" horiz-adv-x="1228" 
d="M664 1198l137 311h274l-184 -311h-227zM276 1198l138 311h272l-182 -311h-228z" />
    <glyph glyph-name="gravecomb" unicode="&#x300;" 
d="M547 1198l-221 311h325l156 -311h-260z" />
    <glyph glyph-name="acutecomb" unicode="&#x301;" 
d="M406 1198l155 311h326l-221 -311h-260z" />
    <glyph glyph-name="uni0302" unicode="&#x302;" 
d="M236 1198l239 311h279l239 -311h-258l-121 150l-120 -150h-258z" />
    <glyph glyph-name="tildecomb" unicode="&#x303;" 
d="M758 1210q-31 0 -62.5 9.5t-48.5 18.5t-47 26q-62 34 -90 34q-22 0 -36 -16.5t-23 -56.5l-189 53q12 104 71 165.5t138 61.5q71 0 158 -53q64 -35 90 -35q46 0 59 74l191 -53q-13 -105 -72 -166.5t-139 -61.5z" />
    <glyph glyph-name="uni0304" unicode="&#x304;" 
d="M322 1233v213h585v-213h-585z" />
    <glyph glyph-name="uni0306" unicode="&#x306;" 
d="M614 1196q-147 0 -230 77.5t-83 211.5v20h213q0 -137 100 -137q101 0 101 137h213v-20q0 -134 -83.5 -211.5t-230.5 -77.5z" />
    <glyph glyph-name="uni0307" unicode="&#x307;" 
d="M614 1192q-73 0 -122.5 48.5t-49.5 121.5t49.5 120.5t122.5 47.5t122.5 -47.5t49.5 -120.5t-49.5 -121.5t-122.5 -48.5z" />
    <glyph glyph-name="uni0308" unicode="&#x308;" 
d="M827 1200q-66 0 -111.5 45.5t-45.5 116.5q0 70 46 116t111 46q68 0 115 -46t47 -116q0 -71 -46.5 -116.5t-115.5 -45.5zM240 1362q0 70 46 116t113 46t113.5 -46t46.5 -116q0 -71 -46.5 -116.5t-113.5 -45.5t-113 45.5t-46 116.5z" />
    <glyph glyph-name="uni030A" unicode="&#x30a;" 
d="M614 1171q-104 0 -173.5 65t-69.5 161q0 97 69.5 161t173.5 64t174 -64t70 -161q0 -96 -70 -161t-174 -65zM532 1397q0 -35 22.5 -57.5t59.5 -22.5t59.5 22.5t22.5 57.5t-22.5 57.5t-59.5 22.5t-59.5 -22.5t-22.5 -57.5z" />
    <glyph glyph-name="uni030B" unicode="&#x30b;" 
d="M664 1198l137 311h274l-184 -311h-227zM276 1198l138 311h272l-182 -311h-228z" />
    <glyph glyph-name="uni030C" unicode="&#x30c;" 
d="M475 1198l-239 311h258l120 -149l121 149h258l-239 -311h-279z" />
    <glyph glyph-name="uni0315" unicode="&#x315;" 
d="M481 956q115 103 142 187h-19q-69 0 -113.5 42.5t-44.5 108.5q0 70 47 117t117 47q78 0 126.5 -61t47.5 -158q-1 -98 -59 -192.5t-166 -176.5z" />
    <glyph glyph-name="uni0326" unicode="&#x326;" 
d="M549 -557q55 76 72 145h-15q-72 0 -114.5 38.5t-42.5 97.5q0 58 45 101.5t116 43.5q81 0 131 -55.5t50 -143.5q0 -116 -86 -227h-156z" />
    <glyph glyph-name="uni0327" unicode="&#x327;" 
d="M322 -336l229 418h219l-158 -418h-290z" />
    <glyph glyph-name="uni0328" unicode="&#x328;" 
d="M686 -451q-120 0 -190 57.5t-70 155.5q0 99 72 177t207 114l96 -53q-79 -54 -110.5 -94t-31.5 -78q0 -64 80 -64q30 0 62 11v-211q-49 -15 -115 -15z" />
    <glyph glyph-name="uni03BC" unicode="&#x3bc;" horiz-adv-x="1255" 
d="M731 -25q-181 0 -307 105v-526h-287v1499h287v-703q96 -110 229 -110q91 0 140 59t49 174v580h286v-641q0 -207 -107.5 -322t-289.5 -115z" />
    <glyph glyph-name="pi" unicode="&#x3c0;" horiz-adv-x="1284" 
d="M137 0v1053h950v-693q0 -58 24.5 -82t80.5 -24h45v-254h-127q-159 0 -234 74.5t-75 234.5v482h-377v-791h-287z" />
    <glyph glyph-name="uni1E20" unicode="&#x1e20;" horiz-adv-x="1576" 
d="M846 -25q-220 0 -393.5 94.5t-270 262.5t-96.5 381q0 214 98 385t267.5 265.5t377.5 94.5q180 0 334 -73.5t258 -210.5l-258 -166q-122 161 -336 161q-187 0 -308.5 -125.5t-121.5 -328.5q0 -205 124.5 -328t334.5 -123q176 0 320 80v246h-308v262h590v-668
q-121 -99 -280.5 -154t-331.5 -55zM512 1604v227h623v-227h-623z" />
    <glyph glyph-name="uni1E21" unicode="&#x1e21;" horiz-adv-x="1304" 
d="M614 -471q-155 0 -290 51.5t-232 143.5l170 210q178 -141 346 -141q128 0 200.5 65.5t72.5 178.5v80q-123 -97 -289 -97q-141 0 -258.5 68t-186.5 189t-69 270q0 111 40.5 210t109.5 169t164 110.5t200 40.5q167 0 289 -96v72h286v-1016q0 -237 -148.5 -372.5
t-404.5 -135.5zM344 1233v213h586v-213h-586zM369 547q0 -118 76 -193t192 -75q146 0 244 110v316q-98 110 -244 110q-116 0 -192 -75.5t-76 -192.5z" />
    <glyph glyph-name="uni1E30" unicode="&#x1e30;" horiz-adv-x="1490" 
d="M158 0v1434h301v-652l616 652h377l-604 -646l629 -788h-381l-457 567l-180 -192v-375h-301zM569 1567l164 329h346l-235 -329h-275z" />
    <glyph glyph-name="uni1E31" unicode="&#x1e31;" horiz-adv-x="1255" 
d="M137 0v1511h287v-880l434 422h367l-457 -453l477 -600h-358l-318 403l-145 -145v-258h-287zM113 1657l155 311h326l-221 -311h-260z" />
    <glyph glyph-name="uni1E3E" unicode="&#x1e3e;" horiz-adv-x="1978" 
d="M158 0v1434h383l448 -1000l449 1000h385v-1434h-299v958l-412 -917h-246l-411 917v-958h-297zM807 1567l164 329h346l-236 -329h-274z" />
    <glyph glyph-name="uni1E3F" unicode="&#x1e3f;" horiz-adv-x="1902" 
d="M1487 582q0 115 -45.5 173t-124.5 58q-119 0 -219 -115q2 -18 2 -55v-643h-287v582q0 115 -46.5 173t-125.5 58q-116 0 -217 -113v-700h-287v1053h287v-80q132 104 297 104q205 0 309 -159q159 159 367 159q171 0 274 -115t103 -319v-643h-287v582zM784 1198l156 311h326
l-222 -311h-260z" />
    <glyph glyph-name="uni1E40" unicode="&#x1e40;" horiz-adv-x="1978" 
d="M158 0v1434h383l448 -1000l449 1000h385v-1434h-299v958l-412 -917h-246l-411 917v-958h-297zM809 1739q0 75 52.5 125.5t127.5 50.5t127.5 -50.5t52.5 -125.5t-52.5 -125.5t-127.5 -50.5t-127.5 50.5t-52.5 125.5z" />
    <glyph glyph-name="uni1E41" unicode="&#x1e41;" horiz-adv-x="1902" 
d="M1487 582q0 115 -45.5 173t-124.5 58q-119 0 -219 -115q2 -18 2 -55v-643h-287v582q0 115 -46.5 173t-125.5 58q-116 0 -217 -113v-700h-287v1053h287v-80q132 104 297 104q205 0 309 -159q159 159 367 159q171 0 274 -115t103 -319v-643h-287v582zM780 1362
q0 73 49.5 120.5t122.5 47.5t122.5 -47.5t49.5 -120.5t-49.5 -121.5t-122.5 -48.5t-122.5 48.5t-49.5 121.5z" />
    <glyph glyph-name="uni1E44" unicode="&#x1e44;" horiz-adv-x="1576" 
d="M158 0v1434h307l651 -928v928h303v-1434h-307l-653 932v-932h-301zM608 1739q0 75 52.5 125.5t127.5 50.5t128 -50.5t53 -125.5t-53 -125.5t-128 -50.5t-127.5 50.5t-52.5 125.5z" />
    <glyph glyph-name="uni1E45" unicode="&#x1e45;" horiz-adv-x="1265" 
d="M852 571q0 119 -52.5 180.5t-146.5 61.5q-130 0 -229 -111v-702h-287v1053h287v-80q128 104 307 104q185 0 296.5 -117t111.5 -327v-633h-287v571zM457 1362q0 73 49.5 120.5t122.5 47.5t122.5 -47.5t49.5 -120.5t-49.5 -121.5t-122.5 -48.5t-122.5 48.5t-49.5 121.5z
" />
    <glyph glyph-name="Wgrave" unicode="&#x1e80;" horiz-adv-x="2168" 
d="M463 0l-424 1434h319l275 -953l317 953h271l317 -949l274 949h318l-422 -1434h-301l-322 991l-321 -991h-301zM745 1896h342l164 -329h-270z" />
    <glyph glyph-name="wgrave" unicode="&#x1e81;" horiz-adv-x="1818" 
d="M373 0l-344 1053h303l207 -666l233 666h275l231 -662l207 662h305l-344 -1053h-297l-240 686l-239 -686h-297zM584 1509h325l156 -311h-260z" />
    <glyph glyph-name="Wacute" unicode="&#x1e82;" horiz-adv-x="2168" 
d="M463 0l-424 1434h319l275 -953l317 953h271l317 -949l274 949h318l-422 -1434h-301l-322 991l-321 -991h-301zM903 1567l164 329h346l-235 -329h-275z" />
    <glyph glyph-name="wacute" unicode="&#x1e83;" horiz-adv-x="1818" 
d="M373 0l-344 1053h303l207 -666l233 666h275l231 -662l207 662h305l-344 -1053h-297l-240 686l-239 -686h-297zM741 1198l156 311h326l-222 -311h-260z" />
    <glyph glyph-name="Wdieresis" unicode="&#x1e84;" horiz-adv-x="2168" 
d="M463 0l-424 1434h319l275 -953l317 953h271l317 -949l274 949h318l-422 -1434h-301l-322 991l-321 -991h-301zM686 1739q0 75 49 123.5t119 48.5q72 0 121 -48.5t49 -123.5q0 -74 -49 -122t-121 -48q-70 0 -119 48t-49 122zM1147 1739q0 75 49 123.5t119 48.5
q72 0 121 -48.5t49 -123.5q0 -74 -49 -122t-121 -48q-70 0 -119 48t-49 122z" />
    <glyph glyph-name="wdieresis" unicode="&#x1e85;" horiz-adv-x="1818" 
d="M373 0l-344 1053h303l207 -666l233 666h275l231 -662l207 662h305l-344 -1053h-297l-240 686l-239 -686h-297zM535 1362q0 70 46 116t113 46t113.5 -46t46.5 -116q0 -71 -46.5 -116.5t-113.5 -45.5t-113 45.5t-46 116.5zM965 1362q0 70 46 116t111 46q68 0 115 -46
t47 -116q0 -71 -46.5 -116.5t-115.5 -45.5q-66 0 -111.5 45.5t-45.5 116.5z" />
    <glyph glyph-name="uni1E90" unicode="&#x1e90;" horiz-adv-x="1265" 
d="M96 0v238l668 909h-655v287h1046v-238l-668 -909h682v-287h-1073zM246 1567l241 329h291l242 -329h-258l-129 157l-129 -157h-258z" />
    <glyph glyph-name="uni1E91" unicode="&#x1e91;" horiz-adv-x="1050" 
d="M80 0v209l489 592h-483v252h879v-207l-488 -592h494v-254h-891zM147 1198l240 311h279l239 -311h-258l-121 150l-120 -150h-259z" />
    <glyph glyph-name="uni1E9E" unicode="&#x1e9e;" horiz-adv-x="1554" 
d="M971 -25q-142 0 -287 37l64 275q108 -27 200 -27q112 0 166.5 38.5t54.5 107.5q0 76 -72.5 112.5t-232.5 36.5h-84v240l240 325q-86 54 -219 54q-357 0 -357 -373v-801h-301v842q0 302 165.5 459t473.5 157q203 0 360 -69.5t257 -198.5l-285 -408q179 -31 273 -130.5
t94 -264.5q0 -194 -130 -303t-380 -109z" />
    <glyph glyph-name="Ygrave" unicode="&#x1ef2;" horiz-adv-x="1341" 
d="M518 0v563l-512 871h340l326 -564l323 564h340l-512 -871v-563h-305zM332 1896h342l164 -329h-271z" />
    <glyph glyph-name="ygrave" unicode="&#x1ef3;" horiz-adv-x="1204" 
d="M283 -446l186 466l-455 1033h328l274 -664l263 664h311l-598 -1499h-309zM283 1509h325l156 -311h-260z" />
    <glyph glyph-name="uni2000" unicode="&#x2000;" horiz-adv-x="1161" 
 />
    <glyph glyph-name="uni2001" unicode="&#x2001;" horiz-adv-x="1775" 
 />
    <glyph glyph-name="uni2002" unicode="&#x2002;" horiz-adv-x="1161" 
 />
    <glyph glyph-name="uni2003" unicode="&#x2003;" horiz-adv-x="1775" 
 />
    <glyph glyph-name="uni2009" unicode="&#x2009;" horiz-adv-x="307" 
 />
    <glyph glyph-name="uni200A" unicode="&#x200a;" horiz-adv-x="153" 
 />
    <glyph glyph-name="uni200B" unicode="&#x200b;" 
 />
    <glyph glyph-name="endash" unicode="&#x2013;" horiz-adv-x="1161" 
d="M70 506v254h1024v-254h-1024z" />
    <glyph glyph-name="emdash" unicode="&#x2014;" horiz-adv-x="1775" 
d="M70 506v254h1638v-254h-1638z" />
    <glyph glyph-name="quoteleft" unicode="&#x2018;" horiz-adv-x="485" 
d="M248 870q-78 0 -127.5 62t-48.5 158q6 200 227 368l78 -86q-106 -96 -135 -186h10q69 0 114.5 -43t45.5 -109q0 -70 -47.5 -117t-116.5 -47z" />
    <glyph glyph-name="quoteright" unicode="&#x2019;" horiz-adv-x="485" 
d="M238 1458q78 0 127.5 -61.5t48.5 -157.5q-3 -98 -61.5 -192.5t-166.5 -176.5l-77 86q106 95 135 187h-11q-69 0 -114 42.5t-45 108.5q0 70 47.5 117t116.5 47z" />
    <glyph glyph-name="quotesinglbase" unicode="&#x201a;" horiz-adv-x="485" 
d="M238 315q78 0 127.5 -61.5t48.5 -157.5q-6 -199 -228 -368l-77 86q106 96 135 186h-11q-69 0 -114 43t-45 109q0 70 47.5 116.5t116.5 46.5z" />
    <glyph glyph-name="quotedblleft" unicode="&#x201c;" horiz-adv-x="907" 
d="M248 870q-78 0 -127.5 62t-48.5 158q6 200 227 368l78 -86q-106 -96 -135 -186h10q69 0 114.5 -43t45.5 -109q0 -70 -47.5 -117t-116.5 -47zM496 1090q6 200 227 368l78 -86q-106 -96 -135 -186h10q69 0 114.5 -43t45.5 -109q0 -70 -47.5 -117t-116.5 -47
q-78 0 -127.5 62t-48.5 158z" />
    <glyph glyph-name="quotedblright" unicode="&#x201d;" horiz-adv-x="907" 
d="M659 1458q78 0 128 -61.5t49 -157.5q-3 -98 -61.5 -192.5t-166.5 -176.5l-78 86q107 97 136 187h-11q-69 0 -114 42.5t-45 108.5q0 70 47 117t116 47zM74 1294q0 70 47.5 117t116.5 47q78 0 127.5 -61.5t48.5 -157.5q-3 -98 -61.5 -192.5t-166.5 -176.5l-77 86
q106 95 135 187h-11q-69 0 -114 42.5t-45 108.5z" />
    <glyph glyph-name="quotedblbase" unicode="&#x201e;" horiz-adv-x="907" 
d="M659 315q78 0 128 -61.5t49 -157.5q-6 -199 -228 -368l-78 86q108 97 136 186h-11q-69 0 -114 43t-45 109q0 70 47 116.5t116 46.5zM74 152q0 70 47.5 116.5t116.5 46.5q78 0 127.5 -61.5t48.5 -157.5q-6 -199 -228 -368l-77 86q106 96 135 186h-11q-69 0 -114 43
t-45 109z" />
    <glyph glyph-name="dagger" unicode="&#x2020;" horiz-adv-x="1060" 
d="M395 -262v1065h-315v264h315v453h271v-453h315v-264h-315v-1065h-271z" />
    <glyph glyph-name="daggerdbl" unicode="&#x2021;" horiz-adv-x="1101" 
d="M416 -262v450h-275v265h275v350h-316v264h316v453h270v-453h315v-264h-315v-350h275v-265h-275v-450h-270z" />
    <glyph glyph-name="bullet" unicode="&#x2022;" horiz-adv-x="1050" 
d="M524 369q-144 0 -241 98.5t-97 241.5q0 142 97 240t241 98q145 0 242.5 -98t97.5 -240q0 -143 -97.5 -241.5t-242.5 -98.5z" />
    <glyph glyph-name="ellipsis" unicode="&#x2026;" horiz-adv-x="1599" 
d="M264 -18q-84 0 -138 54t-54 138t54 138.5t138 54.5q83 0 137 -54t54 -139q0 -84 -53.5 -138t-137.5 -54zM608 174q0 84 54.5 138.5t138.5 54.5q83 0 136.5 -54t53.5 -139t-53.5 -138.5t-136.5 -53.5q-84 0 -138.5 54t-54.5 138zM1143 174q0 84 54.5 138.5t137.5 54.5
t137 -54t54 -139q0 -84 -54 -138t-137 -54q-84 0 -138 54t-54 138z" />
    <glyph glyph-name="perthousand" unicode="&#x2030;" horiz-adv-x="2719" 
d="M2275 -25q-164 0 -273.5 108t-109.5 269q0 163 109.5 271t273.5 108t273.5 -108t109.5 -271q0 -161 -109.5 -269t-273.5 -108zM61 1081q0 161 109.5 269t273.5 108t273.5 -108t109.5 -269q0 -163 -109.5 -271t-273.5 -108t-273.5 108t-109.5 271zM285 1081q0 -76 44 -124
t115 -48t115.5 48t44.5 124q0 75 -44 122.5t-116 47.5t-115.5 -47.5t-43.5 -122.5zM344 0l905 1434h269l-904 -1434h-270zM1036 352q0 163 109.5 271t273.5 108t273.5 -108t109.5 -271q0 -161 -109.5 -269t-273.5 -108t-273.5 108t-109.5 269zM1260 352q0 -75 43.5 -122.5
t115.5 -47.5q71 0 115.5 47.5t44.5 122.5q0 76 -44.5 124t-115.5 48q-72 0 -115.5 -47.5t-43.5 -124.5zM2116 352q0 -75 43.5 -122.5t115.5 -47.5t116 47.5t44 122.5q0 77 -44 124.5t-116 47.5t-115.5 -47.5t-43.5 -124.5z" />
    <glyph glyph-name="guilsinglleft" unicode="&#x2039;" horiz-adv-x="772" 
d="M383 129l-317 451l317 452h311l-313 -452l313 -451h-311z" />
    <glyph glyph-name="guilsinglright" unicode="&#x203a;" horiz-adv-x="772" 
d="M389 129h-311l313 451l-313 452h311l318 -452z" />
    <glyph glyph-name="fraction" unicode="&#x2044;" horiz-adv-x="415" 
d="M-410 0l1004 1434h231l-1003 -1434h-232z" />
    <glyph glyph-name="uni2070" unicode="&#x2070;" horiz-adv-x="802" 
d="M401 721q-156 0 -244.5 106.5t-88.5 296.5t88.5 297t244.5 107t245 -107t89 -297t-89 -296.5t-245 -106.5zM276 1124q0 -118 29.5 -167.5t95.5 -49.5t95.5 49.5t29.5 167.5t-29.5 167.5t-95.5 49.5t-95.5 -49.5t-29.5 -167.5z" />
    <glyph glyph-name="uni2074" unicode="&#x2074;" horiz-adv-x="722" 
d="M420 737v142h-381v165l332 467h237v-464h88v-168h-88v-142h-188zM238 1047h182v258z" />
    <glyph glyph-name="uni2075" unicode="&#x2075;" horiz-adv-x="688" 
d="M336 721q-176 0 -301 104l115 150q94 -70 178 -70q56 0 86 23t30 63q0 36 -26.5 58t-71.5 22q-55 0 -102 -35l-152 72v403h500v-180h-311v-117q49 19 104 19q120 0 191 -65t71 -181q0 -124 -81.5 -195t-229.5 -71z" />
    <glyph glyph-name="uni2076" unicode="&#x2076;" horiz-adv-x="706" 
d="M358 721q-137 0 -225 79.5t-88 211.5q0 157 133 327l135 172h238l-199 -249q32 4 49 4q114 0 192.5 -76.5t78.5 -190.5q0 -119 -87 -198.5t-227 -79.5zM248 1001q0 -47 29.5 -75.5t80.5 -28.5q52 0 81.5 28t29.5 76t-29.5 75.5t-81.5 27.5q-51 0 -80.5 -28t-29.5 -75z
" />
    <glyph glyph-name="uni2077" unicode="&#x2077;" horiz-adv-x="630" 
d="M84 737l285 584h-334v190h561v-170l-283 -604h-229z" />
    <glyph glyph-name="uni2078" unicode="&#x2078;" horiz-adv-x="731" 
d="M367 721q-150 0 -233 64t-83 165q0 61 33 109.5t96 75.5q-104 55 -104 170q0 97 76 160t215 63q137 0 212.5 -63t75.5 -160q0 -115 -104 -170q63 -27 96 -75.5t33 -109.5q0 -101 -82 -165t-231 -64zM260 971q0 -35 26.5 -55.5t80.5 -20.5q52 0 78 20.5t26 55.5t-26 56.5
t-78 21.5q-53 0 -80 -21.5t-27 -56.5zM270 1284q0 -34 24.5 -54t72.5 -20q46 0 70 20.5t24 53.5q0 35 -24 55.5t-70 20.5q-48 0 -72.5 -20.5t-24.5 -55.5z" />
    <glyph glyph-name="uni2079" unicode="&#x2079;" horiz-adv-x="706" 
d="M348 1528q137 0 225.5 -79.5t88.5 -211.5q0 -157 -134 -328l-135 -172h-237l198 250q-32 -4 -49 -4q-114 0 -192 76t-78 190q0 119 86.5 199t226.5 80zM238 1247q0 -48 29 -75t81 -27q51 0 81 27.5t30 74.5t-30 76t-81 29q-52 0 -81 -28.5t-29 -76.5z" />
    <glyph glyph-name="Euro" unicode="&#x20ac;" horiz-adv-x="1277" 
d="M786 -25q-218 0 -365 133.5t-196 378.5h-159v162h141q-2 23 -2 68q0 44 2 67h-141v162h159q49 244 196.5 378t364.5 134q134 0 251 -56.5t192 -162.5l-207 -170q-103 137 -234 137q-96 0 -164 -65.5t-98 -194.5h394l-41 -162h-375q-2 -23 -2 -67q0 -45 2 -68h416
l-41 -162h-353q30 -129 98 -194.5t164 -65.5q132 0 236 138l205 -168q-74 -107 -190 -164.5t-253 -57.5z" />
    <glyph glyph-name="uni20BF" unicode="&#x20bf;" horiz-adv-x="1419" 
d="M393 -180v180h-235v1434h235v180h207v-180h133h21v180h207v-209q135 -40 206.5 -132.5t71.5 -228.5q0 -187 -143 -276q239 -86 239 -342q0 -165 -96.5 -271.5t-277.5 -140.5v-194h-207v180h-154v-180h-207zM457 256h327q117 0 177.5 49.5t60.5 136.5q0 86 -60.5 136.5
t-177.5 50.5h-327v-373zM457 877h286q94 0 143.5 40t49.5 111q0 73 -49 111.5t-144 38.5h-286v-301z" />
    <glyph glyph-name="uni2116" unicode="&#x2116;" horiz-adv-x="2551" 
d="M158 0v1434h307l651 -928v928h303v-1434h-307l-653 932v-932h-301zM1632 1042q0 180 120.5 298t303.5 118q184 0 304 -118t120 -298q0 -179 -120 -296t-304 -117t-304 117t-120 296zM1712 250v254h647v-254h-647zM1876 1042q0 -85 51 -137.5t129 -52.5t128 52.5t50 137.5
q0 86 -50 138.5t-128 52.5t-129 -52.5t-51 -138.5z" />
    <glyph glyph-name="trademark" unicode="&#x2122;" horiz-adv-x="1607" 
d="M684 807v627h238l180 -367l178 367h240v-627h-195v354l-156 -330h-135l-155 328v-352h-195zM59 1235v199h533v-199h-162v-428h-209v428h-162z" />
    <glyph glyph-name="uni2126" unicode="&#x2126;" horiz-adv-x="1615" 
d="M115 0v254h268q-128 69 -198 206.5t-70 309.5q0 196 92 354t250 246t350 88q193 0 351.5 -88t250.5 -246t92 -354q0 -172 -70 -309.5t-198 -206.5h268v-254h-602v283q148 77 228.5 198t80.5 279q0 191 -112 311.5t-289 120.5q-175 0 -287 -121t-112 -311
q0 -158 80.5 -279t228.5 -198v-283h-602z" />
    <glyph glyph-name="estimated" unicode="&#x212e;" horiz-adv-x="1675" 
d="M838 0q-145 0 -275.5 52t-228.5 147q-97 94 -152 228.5t-55 289.5t55 291.5t152 230.5q98 92 229 143.5t275 51.5t274 -51.5t227 -143.5q98 -93 153.5 -230t55.5 -292v-25h-1196v-309q0 -72 20.5 -119t71.5 -84q171 -127 394 -127q172 0 315 75t231 210l43 -33
q-97 -145 -251.5 -225t-337.5 -80zM352 741h981v299q0 71 -20 120.5t-68 86.5q-177 133 -407 133q-223 0 -394 -127q-51 -37 -71.5 -84t-20.5 -120v-308z" />
    <glyph glyph-name="arrowleft" unicode="&#x2190;" horiz-adv-x="1454" 
d="M793 1102l-250 -250h841v-270h-841l250 -250l-179 -180l-542 565l542 565z" />
    <glyph glyph-name="arrowup" unicode="&#x2191;" horiz-adv-x="1454" 
d="M342 657l-180 179l565 542l565 -542l-180 -179l-250 250v-841h-270v841z" />
    <glyph glyph-name="arrowright" unicode="&#x2192;" horiz-adv-x="1454" 
d="M662 1102l178 180l542 -565l-542 -565l-178 180l249 250h-841v270h841z" />
    <glyph glyph-name="arrowdown" unicode="&#x2193;" horiz-adv-x="1454" 
d="M342 776l250 -250v842h270v-842l250 250l180 -178l-565 -543l-565 543z" />
    <glyph glyph-name="uni2196" unicode="&#x2196;" horiz-adv-x="1454" 
d="M461 438h-254l16 783l783 16v-254h-355l596 -594l-192 -192l-594 596v-355z" />
    <glyph glyph-name="uni2197" unicode="&#x2197;" horiz-adv-x="1454" 
d="M449 983v254l782 -16l16 -783h-254v355l-594 -596l-192 192l596 594h-354z" />
    <glyph glyph-name="uni2198" unicode="&#x2198;" horiz-adv-x="1454" 
d="M993 995h254l-16 -782l-782 -16v254h354l-596 593l192 193l594 -596v354z" />
    <glyph glyph-name="uni2199" unicode="&#x2199;" horiz-adv-x="1454" 
d="M1006 451v-254l-783 16l-16 782h254v-354l594 596l192 -193l-596 -593h355z" />
    <glyph glyph-name="partialdiff" unicode="&#x2202;" horiz-adv-x="1284" 
d="M623 -25q-249 0 -398 137t-149 355q0 206 140.5 341.5t356.5 135.5q206 0 320 -131h8q-15 209 -94.5 296t-251.5 87q-137 0 -266 -59l-60 245q162 76 351 76q618 0 618 -774q0 -392 -184 -567q-155 -142 -391 -142zM373 467q0 -109 69 -175.5t183 -66.5q113 0 181 66.5
t68 175.5q0 105 -67.5 168t-181.5 63t-183 -63.5t-69 -167.5z" />
    <glyph glyph-name="uni2206" unicode="&#x2206;" horiz-adv-x="1435" 
d="M125 0l-86 139l579 1295h201l580 -1295l-88 -139h-1186zM408 270h622l-311 713z" />
    <glyph glyph-name="product" unicode="&#x220f;" horiz-adv-x="1355" 
d="M158 -262v1782h1040v-1782h-293v1513h-456v-1513h-291z" />
    <glyph glyph-name="summation" unicode="&#x2211;" horiz-adv-x="1099" 
d="M86 -262v268l451 623l-451 622v269h965v-269h-625l451 -622l-451 -623h625v-268h-965z" />
    <glyph glyph-name="minus" unicode="&#x2212;" horiz-adv-x="1331" 
d="M201 518v262h929v-262h-929z" />
    <glyph glyph-name="radical" unicode="&#x221a;" horiz-adv-x="1337" 
d="M502 -262l-254 713h-203v266h408l182 -527l377 1330h299l-512 -1782h-297z" />
    <glyph glyph-name="infinity" unicode="&#x221e;" horiz-adv-x="1548" 
d="M1100 291q-202 0 -326 174q-60 -82 -138 -128t-190 -46q-172 0 -276 110.5t-104 280.5t104 280.5t276 110.5q112 0 190 -46t138 -128q124 174 326 174q174 0 277.5 -110t103.5 -281t-103.5 -281t-277.5 -110zM297 682q0 -77 43.5 -125.5t108.5 -48.5q63 0 107 44t91 130
q-47 86 -91 130t-107 44q-65 0 -108.5 -48.5t-43.5 -125.5zM899 682q47 -85 92.5 -129.5t108.5 -44.5q65 0 107 48.5t42 125.5t-42 125.5t-107 48.5q-63 0 -108.5 -44.5t-92.5 -129.5z" />
    <glyph glyph-name="integral" unicode="&#x222b;" horiz-adv-x="833" 
d="M45 -262v254h107q64 0 91 26.5t27 90.5v1114q0 297 314 297h204v-254h-106q-64 0 -91.5 -26.5t-27.5 -90.5v-1114q0 -297 -313 -297h-205z" />
    <glyph glyph-name="approxequal" unicode="&#x2248;" horiz-adv-x="1331" 
d="M881 690q-75 0 -215 48t-215 48q-66 0 -122.5 -20.5t-127.5 -67.5v263q118 86 254 86q72 0 214 -48.5t210 -48.5q71 0 137 25.5t114 64.5v-262q-122 -88 -249 -88zM201 260v262q119 88 254 88q72 0 214 -49t210 -49q72 0 138 25.5t113 64.5v-262q-126 -88 -249 -88
q-75 0 -215 49t-215 49q-67 0 -124.5 -21.5t-125.5 -68.5z" />
    <glyph glyph-name="notequal" unicode="&#x2260;" horiz-adv-x="1331" 
d="M322 84l90 215h-211v262h321l74 176h-395v262h506l90 215h213l-90 -215h210v-262h-321l-74 -176h395v-262h-505l-90 -215h-213z" />
    <glyph glyph-name="lessequal" unicode="&#x2264;" horiz-adv-x="1331" 
d="M1130 348l-927 322v258l927 319v-272l-579 -176l579 -176v-275zM203 0v262h927v-262h-927z" />
    <glyph glyph-name="greaterequal" unicode="&#x2265;" horiz-adv-x="1331" 
d="M201 348v275l579 176l-579 176v272l929 -319v-258zM201 0v262h929v-262h-929z" />
    <glyph glyph-name="filledbox" unicode="&#x25a0;" horiz-adv-x="1843" 
d="M205 0v1434h1433v-1434h-1433z" />
    <glyph glyph-name="triagup" unicode="&#x25b2;" horiz-adv-x="1843" 
d="M205 0l717 1434l716 -1434h-1433z" />
    <glyph glyph-name="triagdn" unicode="&#x25bc;" horiz-adv-x="1843" 
d="M922 0l-717 1434h1433z" />
    <glyph glyph-name="uni25C6" unicode="&#x25c6;" horiz-adv-x="1843" 
d="M920 0l-715 715l715 719l718 -719z" />
    <glyph glyph-name="lmlenge" unicode="&#x25ca;" horiz-adv-x="1335" 
d="M553 0l-514 717l514 717h229l514 -717l-514 -717h-229zM369 715l297 -416l301 420l-299 416z" />
    <glyph glyph-name="uni25CF" unicode="&#x25cf;" horiz-adv-x="1843" 
d="M922 0q-145 0 -278 57t-229 153t-153 229t-57 278t57 278t153 229t229 153t278 57t278 -57t228.5 -153t152.5 -228.5t57 -278.5t-57 -278.5t-152.5 -228.5t-228.5 -153t-278 -57z" />
    <glyph glyph-name="uni2610" unicode="&#x2610;" horiz-adv-x="1843" 
d="M205 0v1434h1433v-1434h-1433zM371 156h1102v1122h-1102v-1122z" />
    <glyph glyph-name="uni2611" unicode="&#x2611;" horiz-adv-x="1843" 
d="M205 0v1434h1433v-1434h-1433zM371 156h1102v1122h-1102v-1122zM494 479l131 228l176 -103l334 576l217 -125l-465 -803z" />
    <glyph glyph-name="uni2612" unicode="&#x2612;" horiz-adv-x="1843" 
d="M205 0v1434h1433v-1434h-1433zM371 156h1102v1122h-1102v-1122zM471 442l274 275l-274 274l176 174l275 -272l274 272l174 -174l-272 -274l272 -275l-174 -176l-274 275l-275 -275z" />
    <glyph glyph-name="heart" unicode="&#x2665;" horiz-adv-x="1843" 
d="M254 838q0 97 32 176t84 127.5t115.5 74t130.5 25.5q109 0 194 -63.5t112 -180.5q27 117 111.5 180.5t193.5 63.5q67 0 130.5 -25.5t115.5 -74t84 -127.5t32 -176q0 -92 -30 -169t-77 -130t-117.5 -108.5t-138.5 -98.5t-153.5 -107t-150.5 -127q-65 63 -150.5 127
t-153.5 107t-139 98.5t-118 108.5t-77 130t-30 169z" />
    <glyph glyph-name="uni2B51" unicode="&#x2b51;" horiz-adv-x="1843" 
d="M446 -6l183 557l-469 340h581l179 553l178 -555h585l-473 -342l181 -553l-471 344z" />
    <glyph glyph-name="uni004A0301" horiz-adv-x="1196" 
d="M522 -25q-258 0 -473 144l146 258q185 -111 321 -111q112 0 174 66t62 194v908h303v-932q0 -258 -139.5 -392.5t-393.5 -134.5zM721 1567l164 329h346l-236 -329h-274z" />
    <glyph glyph-name="i.loclTRK" horiz-adv-x="563" 
d="M137 0v1053h287v-1053h-287zM109 1362q0 73 49.5 120.5t122.5 47.5t122.5 -47.5t49.5 -120.5t-49.5 -121.5t-122.5 -48.5t-122.5 48.5t-49.5 121.5z" />
    <glyph glyph-name="uni006A0301" horiz-adv-x="563" 
d="M51 -471q-118 0 -211 37l39 256q79 -21 119 -21q69 0 104 43t35 136v1073h287v-1104q0 -216 -93 -318t-280 -102zM111 1198l114 311h326l-180 -311h-260z" />
    <glyph glyph-name="a.ss01" horiz-adv-x="1196" 
d="M795 631q0 98 -54 147t-155 49q-169 0 -336 -131l-144 209q203 172 494 172q227 0 348 -112t121 -332v-633h-274v68q-140 -93 -322 -93q-187 0 -296 91t-109 239q0 151 116.5 237.5t325.5 86.5h285v2zM354 319q0 -53 43.5 -83.5t128.5 -30.5q150 0 269 92v131h-271
q-84 0 -127 -29t-43 -80z" />
    <glyph glyph-name="aacute.ss01" horiz-adv-x="1196" 
d="M795 631q0 98 -54 147t-155 49q-169 0 -336 -131l-144 209q203 172 494 172q227 0 348 -112t121 -332v-633h-274v68q-140 -93 -322 -93q-187 0 -296 91t-109 239q0 151 116.5 237.5t325.5 86.5h285v2zM354 319q0 -53 43.5 -83.5t128.5 -30.5q150 0 269 92v131h-271
q-84 0 -127 -29t-43 -80zM408 1198l155 311h326l-221 -311h-260z" />
    <glyph glyph-name="abreve.ss01" horiz-adv-x="1196" 
d="M795 631q0 98 -54 147t-155 49q-169 0 -336 -131l-144 209q203 172 494 172q227 0 348 -112t121 -332v-633h-274v68q-140 -93 -322 -93q-187 0 -296 91t-109 239q0 151 116.5 237.5t325.5 86.5h285v2zM262 1485v20h213q0 -137 100 -137q101 0 101 137h213v-20
q0 -134 -83.5 -211.5t-230.5 -77.5t-230 77.5t-83 211.5zM354 319q0 -53 43.5 -83.5t128.5 -30.5q150 0 269 92v131h-271q-84 0 -127 -29t-43 -80z" />
    <glyph glyph-name="uni01CE.ss01" horiz-adv-x="1196" 
d="M795 631q0 98 -54 147t-155 49q-169 0 -336 -131l-144 209q203 172 494 172q227 0 348 -112t121 -332v-633h-274v68q-140 -93 -322 -93q-187 0 -296 91t-109 239q0 151 116.5 237.5t325.5 86.5h285v2zM197 1509h258l120 -149l121 149h258l-239 -311h-279zM354 319
q0 -53 43.5 -83.5t128.5 -30.5q150 0 269 92v131h-271q-84 0 -127 -29t-43 -80z" />
    <glyph glyph-name="acircumflex.ss01" horiz-adv-x="1196" 
d="M795 631q0 98 -54 147t-155 49q-169 0 -336 -131l-144 209q203 172 494 172q227 0 348 -112t121 -332v-633h-274v68q-140 -93 -322 -93q-187 0 -296 91t-109 239q0 151 116.5 237.5t325.5 86.5h285v2zM197 1198l239 311h279l239 -311h-258l-121 150l-120 -150h-258z
M354 319q0 -53 43.5 -83.5t128.5 -30.5q150 0 269 92v131h-271q-84 0 -127 -29t-43 -80z" />
    <glyph glyph-name="adieresis.ss01" horiz-adv-x="1196" 
d="M795 631q0 98 -54 147t-155 49q-169 0 -336 -131l-144 209q203 172 494 172q227 0 348 -112t121 -332v-633h-274v68q-140 -93 -322 -93q-187 0 -296 91t-109 239q0 151 116.5 237.5t325.5 86.5h285v2zM201 1362q0 70 46 116t113 46t113.5 -46t46.5 -116
q0 -71 -46.5 -116.5t-113.5 -45.5t-113 45.5t-46 116.5zM354 319q0 -53 43.5 -83.5t128.5 -30.5q150 0 269 92v131h-271q-84 0 -127 -29t-43 -80zM631 1362q0 70 46 116t111 46q68 0 115 -46t47 -116q0 -71 -46.5 -116.5t-115.5 -45.5q-66 0 -111.5 45.5t-45.5 116.5z" />
    <glyph glyph-name="agrave.ss01" horiz-adv-x="1196" 
d="M795 631q0 98 -54 147t-155 49q-169 0 -336 -131l-144 209q203 172 494 172q227 0 348 -112t121 -332v-633h-274v68q-140 -93 -322 -93q-187 0 -296 91t-109 239q0 151 116.5 237.5t325.5 86.5h285v2zM250 1509h325l156 -311h-260zM354 319q0 -53 43.5 -83.5t128.5 -30.5
q150 0 269 92v131h-271q-84 0 -127 -29t-43 -80z" />
    <glyph glyph-name="amacron.ss01" horiz-adv-x="1196" 
d="M795 631q0 98 -54 147t-155 49q-169 0 -336 -131l-144 209q203 172 494 172q227 0 348 -112t121 -332v-633h-274v68q-140 -93 -322 -93q-187 0 -296 91t-109 239q0 151 116.5 237.5t325.5 86.5h285v2zM283 1233v213h585v-213h-585zM354 319q0 -53 43.5 -83.5t128.5 -30.5
q150 0 269 92v131h-271q-84 0 -127 -29t-43 -80z" />
    <glyph glyph-name="aogonek.ss01" horiz-adv-x="1196" 
d="M795 631q0 98 -54 147t-155 49q-169 0 -336 -131l-144 209q203 172 494 172q227 0 348 -112t121 -332v-633q-79 -54 -110 -94t-31 -78q0 -64 80 -64q29 0 61 11v-211q-49 -15 -115 -15q-120 0 -190 57.5t-70 155.5q0 149 148 238h-47v68q-140 -93 -322 -93
q-187 0 -296 91t-109 239q0 151 116.5 237.5t325.5 86.5h285v2zM354 319q0 -53 43.5 -83.5t128.5 -30.5q150 0 269 92v131h-271q-84 0 -127 -29t-43 -80z" />
    <glyph glyph-name="aring.ss01" horiz-adv-x="1196" 
d="M795 631q0 98 -54 147t-155 49q-169 0 -336 -131l-144 209q203 172 494 172q227 0 348 -112t121 -332v-633h-274v68q-140 -93 -322 -93q-187 0 -296 91t-109 239q0 151 116.5 237.5t325.5 86.5h285v2zM332 1397q0 97 69.5 161t173.5 64t174 -64t70 -161q0 -96 -70 -161
t-174 -65t-173.5 65t-69.5 161zM354 319q0 -53 43.5 -83.5t128.5 -30.5q150 0 269 92v131h-271q-84 0 -127 -29t-43 -80zM494 1397q0 -35 22 -57.5t59 -22.5t59.5 22.5t22.5 57.5t-22.5 57.5t-59.5 22.5t-59 -22.5t-22 -57.5z" />
    <glyph glyph-name="atilde.ss01" horiz-adv-x="1196" 
d="M795 631q0 98 -54 147t-155 49q-169 0 -336 -131l-144 209q203 172 494 172q227 0 348 -112t121 -332v-633h-274v68q-140 -93 -322 -93q-187 0 -296 91t-109 239q0 151 116.5 237.5t325.5 86.5h285v2zM223 1278q12 104 71 165.5t138 61.5q71 0 158 -53q64 -35 90 -35
q46 0 59 74l191 -53q-13 -105 -72 -166.5t-139 -61.5q-31 0 -62.5 9.5t-48.5 18.5t-47 26q-62 34 -90 34q-22 0 -36 -16.5t-23 -56.5zM354 319q0 -53 43.5 -83.5t128.5 -30.5q150 0 269 92v131h-271q-84 0 -127 -29t-43 -80z" />
    <glyph glyph-name="y.ss02" horiz-adv-x="1255" 
d="M567 -471q-271 0 -481 164l174 217q86 -66 156.5 -91.5t144.5 -25.5q127 0 198.5 65.5t71.5 178.5v86q-130 -103 -307 -103q-182 0 -289.5 115t-107.5 322v596h287v-535q0 -117 49 -175t141 -58q131 0 227 110v658h287v-1016q0 -237 -148 -372.5t-403 -135.5z" />
    <glyph glyph-name="yacute.ss02" horiz-adv-x="1255" 
d="M567 -471q-271 0 -481 164l174 217q86 -66 156.5 -91.5t144.5 -25.5q127 0 198.5 65.5t71.5 178.5v86q-130 -103 -307 -103q-182 0 -289.5 115t-107.5 322v596h287v-535q0 -117 49 -175t141 -58q131 0 227 110v658h287v-1016q0 -237 -148 -372.5t-403 -135.5zM461 1198
l155 311h326l-221 -311h-260z" />
    <glyph glyph-name="ycircumflex.ss02" horiz-adv-x="1255" 
d="M567 -471q-271 0 -481 164l174 217q86 -66 156.5 -91.5t144.5 -25.5q127 0 198.5 65.5t71.5 178.5v86q-130 -103 -307 -103q-182 0 -289.5 115t-107.5 322v596h287v-535q0 -117 49 -175t141 -58q131 0 227 110v658h287v-1016q0 -237 -148 -372.5t-403 -135.5zM250 1198
l239 311h279l240 -311h-258l-121 150l-121 -150h-258z" />
    <glyph glyph-name="ydieresis.ss02" horiz-adv-x="1255" 
d="M567 -471q-271 0 -481 164l174 217q86 -66 156.5 -91.5t144.5 -25.5q127 0 198.5 65.5t71.5 178.5v86q-130 -103 -307 -103q-182 0 -289.5 115t-107.5 322v596h287v-535q0 -117 49 -175t141 -58q131 0 227 110v658h287v-1016q0 -237 -148 -372.5t-403 -135.5zM254 1362
q0 70 46.5 116t113.5 46t113 -46t46 -116q0 -71 -46 -116.5t-113 -45.5t-113.5 45.5t-46.5 116.5zM684 1362q0 70 46 116t112 46q68 0 115 -46t47 -116q0 -71 -46.5 -116.5t-115.5 -45.5q-66 0 -112 45.5t-46 116.5z" />
    <glyph glyph-name="ygrave.ss02" horiz-adv-x="1255" 
d="M567 -471q-271 0 -481 164l174 217q86 -66 156.5 -91.5t144.5 -25.5q127 0 198.5 65.5t71.5 178.5v86q-130 -103 -307 -103q-182 0 -289.5 115t-107.5 322v596h287v-535q0 -117 49 -175t141 -58q131 0 227 110v658h287v-1016q0 -237 -148 -372.5t-403 -135.5zM303 1509
h326l155 -311h-260z" />
    <glyph glyph-name="zero.zero" horiz-adv-x="1390" 
d="M696 -25q-281 0 -440.5 194.5t-159.5 547.5t159.5 547t440.5 194q279 0 438.5 -194t159.5 -547t-159.5 -547.5t-438.5 -194.5zM401 717q0 -208 60 -322l350 766q-57 23 -115 23q-295 0 -295 -467zM582 272q55 -22 114 -22q293 0 293 467q0 204 -57 321z" />
    <glyph glyph-name="zero.lf" horiz-adv-x="1390" 
d="M696 -25q-281 0 -440.5 194.5t-159.5 547.5t159.5 547t440.5 194q279 0 438.5 -194t159.5 -547t-159.5 -547.5t-438.5 -194.5zM401 717q0 -467 295 -467q293 0 293 467t-293 467q-295 0 -295 -467z" />
    <glyph glyph-name="one.lf" horiz-adv-x="888" 
d="M420 0v1104l-342 -170v301l387 199h256v-1434h-301z" />
    <glyph glyph-name="two.lf" horiz-adv-x="1183" 
d="M80 0v236l493 460q118 111 164.5 184.5t46.5 137.5q0 76 -50.5 121t-131.5 45q-90 0 -172.5 -57.5t-148.5 -172.5l-234 156q87 168 234 258t331 90q213 0 343 -118t130 -308q0 -111 -52.5 -215.5t-182.5 -226.5l-338 -316h594v-274h-1026z" />
    <glyph glyph-name="three.lf" horiz-adv-x="1159" 
d="M557 -25q-159 0 -295 52t-231 151l172 211q154 -145 340 -145q114 0 177.5 50.5t63.5 129.5q0 81 -71.5 127.5t-212.5 46.5h-131v264h153q116 0 179 46t63 122q0 71 -55 116.5t-154 45.5q-172 0 -317 -164l-191 184q187 246 522 246q227 0 360.5 -110t133.5 -291
q0 -118 -58.5 -203t-170.5 -121q121 -38 185 -127.5t64 -214.5q0 -184 -141.5 -300t-384.5 -116z" />
    <glyph glyph-name="four.lf" horiz-adv-x="1267" 
d="M780 0v281h-717v243l654 910h346v-908h174v-245h-174v-281h-283zM362 526h418v580z" />
    <glyph glyph-name="five.lf" horiz-adv-x="1196" 
d="M575 -25q-308 0 -520 197l170 215q160 -139 344 -139q126 0 196.5 57.5t70.5 155.5q0 96 -64 153.5t-174 57.5q-134 0 -246 -84l-213 114l27 732h878v-275h-610l-10 -278q99 45 231 45q214 0 347 -123.5t133 -341.5q0 -226 -151.5 -356t-408.5 -130z" />
    <glyph glyph-name="six.lf" horiz-adv-x="1253" 
d="M633 -25q-159 0 -283.5 63t-197 185t-72.5 283q0 266 217 551l287 377h354l-352 -453q44 8 98 8q217 0 362.5 -141t145.5 -359q0 -224 -157.5 -369t-401.5 -145zM375 510q0 -127 70.5 -199.5t191.5 -72.5q120 0 190 68.5t70 180.5q0 110 -70 179t-190 69q-125 0 -238 -73
q-24 -80 -24 -152z" />
    <glyph glyph-name="seven.lf" horiz-adv-x="1103" 
d="M166 0l555 1159h-674v275h1010v-238l-559 -1196h-332z" />
    <glyph glyph-name="eight.lf" horiz-adv-x="1265" 
d="M633 -25q-262 0 -409.5 119t-147.5 305q0 119 56.5 210t164.5 145q-170 105 -170 307q0 171 135 284t371 113q235 0 369.5 -113t134.5 -284q0 -202 -170 -307q108 -54 164.5 -145.5t56.5 -209.5q0 -186 -147 -305t-408 -119zM377 428q0 -90 67.5 -146.5t188.5 -56.5
t187.5 56t66.5 147q0 89 -66.5 145t-187.5 56t-188.5 -56t-67.5 -145zM426 1036q0 -79 56.5 -127.5t150.5 -48.5t149.5 48.5t55.5 127.5q0 78 -55.5 126t-149.5 48t-150.5 -48.5t-56.5 -125.5z" />
    <glyph glyph-name="nine.lf" horiz-adv-x="1253" 
d="M621 1458q159 0 283.5 -63t197 -184.5t72.5 -282.5q0 -265 -218 -551l-286 -377h-355l353 453q-50 -9 -99 -9q-217 0 -362.5 141t-145.5 359q0 224 158 369t402 145zM356 946q0 -110 70 -179t190 -69q124 0 238 74q25 83 25 152q0 127 -71 199.5t-192 72.5
q-120 0 -190 -69t-70 -181z" />
    <glyph glyph-name="zero.tf" horiz-adv-x="1331" 
d="M666 -25q-281 0 -440.5 194.5t-159.5 547.5t159.5 547t440.5 194q279 0 438.5 -194t159.5 -547t-159.5 -547.5t-438.5 -194.5zM371 717q0 -467 295 -467q292 0 292 467t-292 467q-295 0 -295 -467z" />
    <glyph glyph-name="one.tf" horiz-adv-x="1331" 
d="M217 0v274h365v828l-342 -168v301l389 199h254v-1160h319v-274h-985z" />
    <glyph glyph-name="two.tf" horiz-adv-x="1331" 
d="M152 0v236l493 460q118 111 164.5 184.5t46.5 137.5q0 76 -50.5 121t-131.5 45q-90 0 -173 -58t-149 -172l-233 156q87 168 234 258t331 90q213 0 343 -118t130 -308q0 -111 -52.5 -215.5t-182.5 -226.5l-338 -316h594v-274h-1026z" />
    <glyph glyph-name="three.tf" horiz-adv-x="1331" 
d="M643 -25q-159 0 -295 52t-231 151l172 211q154 -145 340 -145q114 0 177.5 50.5t63.5 129.5q0 81 -71.5 127.5t-212.5 46.5h-131v264h153q116 0 179 46t63 122q0 71 -55 116.5t-154 45.5q-172 0 -317 -164l-191 184q188 246 522 246q227 0 360.5 -110t133.5 -291
q0 -118 -58.5 -203t-170.5 -121q121 -38 185 -127.5t64 -214.5q0 -184 -141.5 -300t-384.5 -116z" />
    <glyph glyph-name="four.tf" horiz-adv-x="1331" 
d="M825 0v281h-716v243l653 910h346v-908h174v-245h-174v-281h-283zM408 526h417v580z" />
    <glyph glyph-name="five.tf" horiz-adv-x="1331" 
d="M649 -25q-308 0 -520 197l170 215q160 -139 344 -139q126 0 196 57.5t70 155.5q0 96 -64 153.5t-173 57.5q-134 0 -246 -84l-213 114l27 732h878v-275h-610l-10 -278q99 45 231 45q214 0 346.5 -123.5t132.5 -341.5q0 -226 -151 -356t-408 -130z" />
    <glyph glyph-name="six.tf" horiz-adv-x="1331" 
d="M672 -25q-159 0 -283.5 63t-197 185t-72.5 283q0 266 217 551l287 377h354l-352 -453q44 8 98 8q217 0 362.5 -141t145.5 -359q0 -224 -157.5 -369t-401.5 -145zM414 510q0 -127 70.5 -199.5t191.5 -72.5q120 0 190 68.5t70 180.5q0 110 -70 179t-190 69q-125 0 -238 -73
q-24 -80 -24 -152z" />
    <glyph glyph-name="seven.tf" horiz-adv-x="1331" 
d="M289 0l555 1159h-674v275h1010v-238l-559 -1196h-332z" />
    <glyph glyph-name="eight.tf" horiz-adv-x="1331" 
d="M666 -25q-262 0 -409.5 119t-147.5 305q0 119 56.5 210t164.5 145q-170 105 -170 307q0 171 135 284t371 113q235 0 369 -113t134 -284q0 -202 -170 -307q108 -54 165 -145.5t57 -209.5q0 -186 -147 -305t-408 -119zM410 428q0 -90 67.5 -146.5t188.5 -56.5t187.5 56
t66.5 147q0 89 -66.5 145t-187.5 56t-188.5 -56t-67.5 -145zM459 1036q0 -79 56.5 -127.5t150.5 -48.5t149 48.5t55 127.5q0 78 -55 126t-149 48t-150.5 -48.5t-56.5 -125.5z" />
    <glyph glyph-name="nine.tf" horiz-adv-x="1331" 
d="M659 1458q159 0 283.5 -63t197 -184.5t72.5 -282.5q0 -266 -217 -551l-286 -377h-355l353 453q-49 -9 -99 -9q-217 0 -362.5 141t-145.5 359q0 224 157.5 369t401.5 145zM395 946q0 -110 70 -179t190 -69q124 0 238 74q25 83 25 152q0 127 -71 199.5t-192 72.5
q-120 0 -190 -69t-70 -181z" />
    <glyph glyph-name="zero.tf.zero" horiz-adv-x="1331" 
d="M666 -25q-281 0 -440.5 194.5t-159.5 547.5t159.5 547t440.5 194q279 0 438.5 -194t159.5 -547t-159.5 -547.5t-438.5 -194.5zM371 717q0 -210 59 -322l350 766q-58 23 -114 23q-295 0 -295 -467zM551 272q55 -22 115 -22q292 0 292 467q0 204 -57 321z" />
    <glyph glyph-name="colon.case" horiz-adv-x="528" 
d="M264 201q-84 0 -138 54t-54 138q0 85 54 139t138 54q83 0 137 -54t54 -139t-53.5 -138.5t-137.5 -53.5zM72 1036q0 84 54 138.5t138 54.5q83 0 137 -54t54 -139q0 -84 -53.5 -138t-137.5 -54t-138 54t-54 138z" />
    <glyph glyph-name="exclamdown.case" horiz-adv-x="583" 
d="M166 938h252l26 -934h-305zM100 1264q0 85 54 138.5t139 53.5q83 0 136.5 -53.5t53.5 -138.5t-53.5 -139t-136.5 -54q-85 0 -139 54t-54 139z" />
    <glyph glyph-name="questiondown.case" horiz-adv-x="1011" 
d="M696 860q0 -103 -30.5 -159.5t-139.5 -145.5l-92 -78q-74 -63 -74 -121q0 -52 34.5 -82t97.5 -30q162 0 231 205l250 -101q-40 -169 -168.5 -267.5t-312.5 -98.5q-186 0 -302 98t-116 260q0 86 40 158t138 153l86 72q47 41 59.5 67t12.5 84v66h286v-80zM362 1266
q0 84 54 138t137 54q85 0 138.5 -53.5t53.5 -138.5t-53.5 -139t-138.5 -54q-83 0 -137 54t-54 139z" />
    <glyph glyph-name="hyphen.case" horiz-adv-x="786" 
d="M70 602v254h647v-254h-647z" />
    <glyph glyph-name="endash.case" horiz-adv-x="1161" 
d="M70 602v254h1024v-254h-1024z" />
    <glyph glyph-name="emdash.case" horiz-adv-x="1775" 
d="M70 602v254h1638v-254h-1638z" />
    <glyph glyph-name="parenleft.case" horiz-adv-x="708" 
d="M449 -180q-162 179 -250 418t-88 481t88 481t250 418l219 -135q-118 -146 -189 -353t-71 -411t71 -411t189 -353z" />
    <glyph glyph-name="parenright.case" horiz-adv-x="708" 
d="M41 -47q118 146 189 353t71 411t-71 411t-189 353l219 135q162 -179 250 -418t88 -481t-88 -481t-250 -418z" />
    <glyph glyph-name="braceleft.case" horiz-adv-x="800" 
d="M537 -160q-156 0 -242 79.5t-86 219.5v324q0 65 -31 94t-100 29h-17v262h17q69 0 100 29t31 94v323q0 140 86 219.5t242 79.5h198v-258h-123q-63 0 -90.5 -26.5t-27.5 -89.5v-248q0 -203 -172 -250v-8q172 -47 172 -250v-248q0 -63 27.5 -90t90.5 -27h123v-258h-198z" />
    <glyph glyph-name="braceright.case" horiz-adv-x="800" 
d="M264 -160h-198v258h122q63 0 91 27t28 90v248q0 203 172 250v8q-172 47 -172 250v248q0 63 -28 89.5t-91 26.5h-122v258h198q156 0 242 -79.5t86 -219.5v-323q0 -65 31 -94t100 -29h16v-262h-16q-69 0 -100 -29t-31 -94v-324q0 -140 -86 -219.5t-242 -79.5z" />
    <glyph glyph-name="bracketleft.case" horiz-adv-x="761" 
d="M145 -160v1753h553v-260h-266v-1233h266v-260h-553z" />
    <glyph glyph-name="bracketright.case" horiz-adv-x="761" 
d="M616 -160h-553v260h267v1233h-267v260h553v-1753z" />
    <glyph glyph-name="guillemotleft.case" horiz-adv-x="1329" 
d="M403 266l-317 451l317 452h312l-314 -452l314 -451h-312zM602 717l318 452h311l-313 -452l313 -451h-311z" />
    <glyph glyph-name="guillemotright.case" horiz-adv-x="1329" 
d="M926 266h-312l314 451l-314 452h312l317 -452zM98 266l314 451l-314 452h312l317 -452l-317 -451h-312z" />
    <glyph glyph-name="guilsinglleft.case" horiz-adv-x="813" 
d="M403 266l-317 451l317 452h312l-314 -452l314 -451h-312z" />
    <glyph glyph-name="guilsinglright.case" horiz-adv-x="813" 
d="M410 266h-312l314 451l-314 452h312l317 -452z" />
    <glyph glyph-name="florin.tf" horiz-adv-x="1331" 
d="M367 -25q-69 0 -140 19v250q37 -6 72 -6q71 0 107 31t51 112l61 317h-205v185h240l49 258q59 317 365 317q71 0 139 -18v-250q-38 6 -72 6q-71 0 -106.5 -31t-50.5 -112l-33 -170h243v-185h-278l-78 -405q-59 -318 -364 -318z" />
    <glyph glyph-name="at.case" horiz-adv-x="1996" 
d="M1040 -184q-271 0 -484.5 112.5t-332.5 315t-119 461.5q0 197 73 368t197.5 289.5t296 186t363.5 67.5q181 0 343.5 -60.5t282 -166t189.5 -258t70 -328.5q0 -239 -115.5 -385t-304.5 -146q-83 0 -152.5 31t-113.5 88q-111 -100 -268 -100q-164 0 -279 120t-115 300
t115 299.5t279 119.5q118 0 202 -63v45h246v-510q0 -59 27 -91t73 -32q71 0 117.5 77t46.5 220q0 113 -32 210t-89.5 169.5t-137 124.5t-177 78t-205.5 26q-199 0 -354.5 -85.5t-241.5 -239.5t-86 -350q0 -298 190 -480t500 -182q228 0 377 86l103 -203q-194 -114 -484 -114
zM821 711q0 -87 51.5 -140t133.5 -53q97 0 161 70v14v229q-65 74 -161 74q-82 0 -133.5 -53.5t-51.5 -140.5z" />
    <glyph glyph-name="uni20BF.tf" horiz-adv-x="1331" 
d="M350 -180v180h-235v1434h235v180h207v-180h133h21v180h207v-209q135 -40 206.5 -132.5t71.5 -228.5q0 -187 -143 -276q239 -86 239 -342q0 -165 -96.5 -271.5t-277.5 -140.5v-194h-207v180h-154v-180h-207zM414 256h327q117 0 177.5 49.5t60.5 136.5q0 86 -60.5 136.5
t-177.5 50.5h-327v-373zM414 877h286q94 0 143.5 40t49.5 111q0 73 -49 111.5t-144 38.5h-286v-301z" />
    <glyph glyph-name="cent.tf" horiz-adv-x="1331" 
d="M641 0v193q-206 20 -336.5 162.5t-130.5 355.5q0 214 131.5 358t335.5 168v197h121v-195q117 -11 218.5 -65.5t168.5 -145.5l-199 -168q-82 109 -188 131v-553q127 22 207 137l192 -149q-64 -102 -168 -163t-231 -73v-190h-121zM442 715q0 -105 55 -178t144 -95v547
q-89 -22 -144 -96.5t-55 -177.5z" />
    <glyph glyph-name="currency.tf" horiz-adv-x="1331" 
d="M666 307q-123 0 -224 53l-139 -139l-133 133l137 138q-63 97 -63 225t63 225l-137 137l133 133l139 -139q101 53 224 53t221 -53l141 139l133 -133l-137 -135q63 -101 63 -227q0 -127 -63 -228l137 -135l-133 -133l-141 139q-98 -53 -221 -53zM496 717q0 -78 47 -126
t123 -48t122 48t46 126t-46 126t-122 48t-123 -48t-47 -126z" />
    <glyph glyph-name="dollar.tf" horiz-adv-x="1331" 
d="M610 -86v129q-267 19 -458 174l157 213q154 -110 301 -131v322l-100 24q-163 40 -246.5 127.5t-83.5 218.5q0 167 120 276.5t321 121.5v131h120v-134q243 -22 412 -180l-174 -188q-109 95 -238 117v-295l107 -27q162 -38 246 -123t84 -231q0 -179 -118.5 -291
t-328.5 -125v-129h-121zM451 1008q0 -49 38 -81.5t132 -56.5v269q-81 -7 -125.5 -44t-44.5 -87zM731 295q84 9 130 49.5t46 97.5q0 56 -42.5 91t-133.5 59v-297z" />
    <glyph glyph-name="Euro.tf" horiz-adv-x="1331" 
d="M815 -25q-218 0 -365 133.5t-196 378.5h-160v162h142q-3 34 -3 68q0 33 3 67h-142v162h160q49 244 196.5 378t364.5 134q134 0 250.5 -56.5t191.5 -162.5l-206 -170q-103 137 -234 137q-96 0 -164 -65.5t-98 -194.5h393l-41 -162h-375q-2 -23 -2 -67q0 -45 2 -68h416
l-41 -162h-352q30 -129 98 -194.5t164 -65.5q133 0 236 138l204 -168q-74 -108 -189.5 -165t-252.5 -57z" />
    <glyph glyph-name="sterling.tf" horiz-adv-x="1331" 
d="M174 195q140 84 196 159t56 168q0 39 -10 84h-232v187h152q-30 53 -46.5 87t-31 87t-14.5 104q0 165 128 276t335 111q143 0 258 -56t190 -163l-209 -178q-55 70 -111 102.5t-122 32.5q-76 0 -122 -39.5t-46 -101.5q0 -28 10 -63.5t19.5 -58t34 -72.5t32.5 -68h360v-187
h-303q4 -40 4 -61q0 -137 -88 -238q57 -2 132.5 -34.5t117.5 -32.5q45 0 79.5 26t72.5 94l207 -127q-106 -258 -332 -258q-64 0 -123 22t-114 44t-109 22q-97 0 -228 -88z" />
    <glyph glyph-name="yen.tf" horiz-adv-x="1331" 
d="M518 0v252h-346v174h346v152h-346v174h285l-355 682h308l256 -529l256 529h307l-355 -682h287v-174h-348v-152h348v-174h-348v-252h-295z" />
    <glyph glyph-name="uni0308.case" 
d="M844 1188q-70 0 -119 48t-49 122q0 75 49 123.5t119 48.5q72 0 121 -48.5t49 -123.5q0 -74 -49 -122t-121 -48zM215 1358q0 75 49 123.5t119 48.5q72 0 121 -48.5t49 -123.5q0 -74 -49 -122t-121 -48q-70 0 -119 48t-49 122z" />
    <glyph glyph-name="uni0307.case" 
d="M614 1182q-75 0 -127.5 50.5t-52.5 125.5t52.5 125.5t127.5 50.5t128 -50.5t53 -125.5t-53 -125.5t-128 -50.5z" />
    <glyph glyph-name="gravecomb.case" 
d="M549 1186l-236 330h342l164 -330h-270z" />
    <glyph glyph-name="acutecomb.case" 
d="M391 1186l164 330h346l-235 -330h-275z" />
    <glyph glyph-name="uni030B.case" 
d="M664 1186l145 330h289l-193 -330h-241zM254 1186l143 330h291l-194 -330h-240z" />
    <glyph glyph-name="uni0302.case" 
d="M227 1186l242 330h291l241 -330h-258l-129 157l-129 -157h-258z" />
    <glyph glyph-name="uni030C.case" 
d="M469 1186l-242 330h258l129 -158l129 158h258l-241 -330h-291z" />
    <glyph glyph-name="uni0306.case" 
d="M614 1184q-156 0 -243.5 82.5t-87.5 224.5v20h225q0 -145 106 -145q107 0 107 145h225v-20q0 -142 -88 -224.5t-244 -82.5z" />
    <glyph glyph-name="uni030A.case" 
d="M614 1153q-105 0 -175 65t-70 162t69.5 161.5t175.5 64.5t176 -64.5t70 -161.5t-70 -162t-176 -65zM532 1380q0 -36 22 -59t60 -23t60 23t22 59t-22 58t-60 22t-60 -22t-22 -58z" />
    <glyph glyph-name="tildecomb.case" 
d="M766 1196q-71 0 -166 57q-65 37 -96 37q-26 0 -41.5 -18t-24.5 -60l-202 56q15 116 77 178.5t150 62.5q33 0 66 -10t51 -19t51 -28q4 -2 14.5 -7.5t14.5 -7.5t13 -6t14 -6t12.5 -4t14 -3t13.5 -1q25 0 41 18t25 58l200 -55q-15 -115 -77 -178.5t-150 -63.5z" />
    <glyph glyph-name="uni0304.case" 
d="M303 1223v227h623v-227h-623z" />
    <glyph glyph-name="uni0315.case" 
d="M481 956q115 103 142 187h-19q-69 0 -113.5 42.5t-44.5 108.5q0 70 47 117t117 47q78 0 126.5 -61t47.5 -158q-1 -98 -59 -192.5t-166 -176.5z" />
    <glyph glyph-name="uni0326.case" 
d="M549 -557q55 76 72 145h-15q-72 0 -114.5 38.5t-42.5 97.5q0 58 45 101.5t116 43.5q81 0 131 -55.5t50 -143.5q0 -116 -86 -227h-156z" />
    <glyph glyph-name="uni0327.case" 
d="M293 -375l252 457h237l-172 -457h-317z" />
    <glyph glyph-name="uni0328.case" 
d="M678 -479q-126 0 -200.5 61.5t-74.5 165.5q0 106 76 188t219 119l103 -55q-84 -57 -118 -100t-34 -82q0 -68 86 -68q35 0 66 10v-223q-56 -16 -123 -16z" />
    <glyph glyph-name="uni0308.narrow" 
d="M801 1200q-64 0 -107 45t-43 117t43 117t107 45q67 0 109 -44.5t42 -117.5t-42 -117.5t-109 -44.5zM276 1362q0 73 42.5 117.5t107.5 44.5q66 0 109 -45t43 -117t-43 -117t-109 -45q-65 0 -107.5 44.5t-42.5 117.5z" />
    <glyph glyph-name="gravecomb.narrow" 
d="M573 1198l-180 311h326l115 -311h-261z" />
    <glyph glyph-name="acutecomb.narrow" 
d="M393 1198l115 311h326l-181 -311h-260z" />
    <glyph glyph-name="uni0302.narrow" 
d="M276 1198l220 311h237l219 -311h-239l-99 137l-98 -137h-240z" />
    <glyph glyph-name="uni030C.narrow" 
d="M496 1198l-220 311h240l98 -137l99 137h239l-219 -311h-237z" />
    <glyph glyph-name="uni0306.narrow" 
d="M614 1196q-140 0 -214 76.5t-74 212.5v20h196q0 -137 92 -137q43 0 68 34t25 103h196v-20q0 -136 -74.5 -212.5t-214.5 -76.5z" />
    <glyph glyph-name="tildecomb.narrow" 
d="M283 1268q12 106 64.5 166.5t127.5 60.5q61 0 156 -53q52 -31 80 -31q46 0 59 74l176 -49q-12 -107 -64.5 -168.5t-127.5 -61.5q-63 0 -156 54q-55 30 -80 30q-46 0 -59 -73z" />
    <glyph glyph-name="uni0304.narrow" 
d="M342 1235v213h545v-213h-545z" />
    <glyph glyph-name="uni0328.narrow" 
d="M682 -457q-113 0 -178.5 57.5t-65.5 155.5q0 101 70 180.5t194 112.5l91 -49q-70 -57 -97.5 -97.5t-27.5 -78.5q0 -64 67 -64q28 0 58 9v-209q-59 -17 -111 -17z" />
    </font>
</defs>
</svg>
