<?xml version="1.0" standalone="no"?>
<!DOCTYPE svg PUBLIC "-//W3C//DTD SVG 1.1//EN" "http://www.w3.org/Graphics/SVG/1.1/DTD/svg11.dtd" >
<svg xmlns="http://www.w3.org/2000/svg" xmlns:xlink="http://www.w3.org/1999/xlink" version="1.1">
<metadata>
Created by FontForge 20201107 at Mon Nov  4 15:40:51 2024
 By 
Copyright (c) Andrew Lethbridge
</metadata>
<defs>
<font id="BRCandor-RegularItalic" horiz-adv-x="0" >
  <font-face 
    font-family="BR Candor"
    font-weight="400"
    font-style="italic"
    font-stretch="normal"
    units-per-em="2048"
    panose-1="0 0 0 0 0 0 0 0 0 0"
    ascent="1577"
    descent="-471"
    x-height="1040"
    cap-height="1434"
    bbox="-465 -520 2537 1976"
    underline-thickness="143"
    underline-position="-357"
    slope="-6"
    unicode-range="U+000D-2B51"
  />
<missing-glyph horiz-adv-x="1570" 
d="M141 0l150 1434h1179l-149 -1434h-1180zM532 1018l119 -80q84 127 207 127q49 0 78 -22t29 -64q0 -68 -72 -119l-72 -53q-71 -55 -96 -94t-31 -107l-6 -63h156l6 57q4 41 17 61.5t51 49.5l65 49q72 56 108.5 110.5t36.5 124.5q0 95 -73.5 154t-186.5 59q-107 0 -196 -52
t-140 -138zM637 309q0 -43 26.5 -68.5t69.5 -25.5q50 0 81.5 33.5t31.5 85.5q0 43 -25.5 68.5t-68.5 25.5q-51 0 -83 -34t-32 -85z" />
    <glyph glyph-name=".notdef" horiz-adv-x="1570" 
d="M141 0l150 1434h1179l-149 -1434h-1180zM532 1018l119 -80q84 127 207 127q49 0 78 -22t29 -64q0 -68 -72 -119l-72 -53q-71 -55 -96 -94t-31 -107l-6 -63h156l6 57q4 41 17 61.5t51 49.5l65 49q72 56 108.5 110.5t36.5 124.5q0 95 -73.5 154t-186.5 59q-107 0 -196 -52
t-140 -138zM637 309q0 -43 26.5 -68.5t69.5 -25.5q50 0 81.5 33.5t31.5 85.5q0 43 -25.5 68.5t-68.5 25.5q-51 0 -83 -34t-32 -85z" />
    <glyph glyph-name=".null" 
 />
    <glyph glyph-name="nonmarkingreturn" horiz-adv-x="682" 
 />
    <glyph glyph-name="CR" unicode="&#xd;" horiz-adv-x="522" 
 />
    <glyph glyph-name="space" unicode=" " horiz-adv-x="522" 
 />
    <glyph glyph-name="exclam" unicode="!" horiz-adv-x="524" 
d="M180 442l80 992h197l-129 -992h-148zM90 100q0 64 41 104t102 40q49 0 82 -34t33 -81q0 -65 -40 -104t-101 -39q-52 0 -84.5 31.5t-32.5 82.5z" />
    <glyph glyph-name="quotedbl" unicode="&#x22;" horiz-adv-x="733" 
d="M176 905l25 553h188l-90 -553h-123zM516 905l25 553h188l-90 -553h-123z" />
    <glyph glyph-name="numbersign" unicode="#" horiz-adv-x="1441" 
d="M782 31l76 385h-352l-76 -385h-164l76 385h-219v143h248l61 315h-223v144h252l76 385h163l-75 -385h352l76 385h164l-76 -385h219v-144h-248l-61 -315h223v-143h-252l-76 -385h-164zM535 559h352l61 315h-352z" />
    <glyph glyph-name="dollar" unicode="$" horiz-adv-x="1150" 
d="M457 -86l14 133q-236 22 -405 168l110 139q142 -123 311 -147l50 459l-95 22q-135 33 -206.5 111.5t-71.5 187.5q0 115 61.5 205.5t164.5 141t231 57.5l12 129h115l-15 -131q108 -12 205 -57.5t166 -119.5l-123 -125q-106 121 -264 142l-43 -428l110 -29
q133 -34 203 -111.5t70 -191.5q0 -191 -131 -303t-340 -123l-15 -129h-114zM338 1008q0 -63 48.5 -105.5t152.5 -68.5l22 -7l41 404q-115 -11 -189.5 -71t-74.5 -152zM602 205q125 9 203 74t78 165q0 68 -47 112.5t-148 70.5l-41 10z" />
    <glyph glyph-name="percent" unicode="%" horiz-adv-x="1783" 
d="M281 0l1081 1434h182l-1081 -1434h-182zM139 1061q0 161 116.5 279t279.5 118q143 0 238 -94t95 -238q0 -159 -115 -278t-278 -119q-145 0 -240.5 94.5t-95.5 237.5zM293 1065q0 -87 50.5 -141t137.5 -54q104 0 169 73t65 177q0 90 -50 143.5t-137 53.5
q-107 0 -171 -73.5t-64 -178.5zM956 307q0 161 116.5 279.5t279.5 118.5q143 0 238.5 -94t95.5 -238q0 -159 -115.5 -278.5t-278.5 -119.5q-145 0 -240.5 94.5t-95.5 237.5zM1110 311q0 -87 50.5 -140.5t137.5 -53.5q104 0 169 73t65 177q0 90 -49.5 143t-136.5 53
q-107 0 -171.5 -73.5t-64.5 -178.5z" />
    <glyph glyph-name="ampersand" unicode="&#x26;" horiz-adv-x="1325" 
d="M1038 0l-108 143q-191 -168 -430 -168q-190 0 -308 101.5t-118 257.5q0 141 88 244.5t250 191.5l18 10q-77 104 -113 182t-36 148q0 150 118 249t289 99q149 0 248.5 -85.5t99.5 -213.5q0 -114 -77.5 -211.5t-206.5 -167.5l-80 -43l268 -350q76 105 152 256l147 -70
q-89 -179 -199 -315l199 -258h-201zM254 344q0 -97 69 -153t191 -56q174 0 315 127l-309 402l-18 -11q-120 -66 -184 -139.5t-64 -169.5zM455 1112q0 -95 94 -217l33 -41l106 57q178 98 178 232q0 75 -53.5 119.5t-134.5 44.5q-93 0 -158 -54.5t-65 -140.5z" />
    <glyph glyph-name="quotesingle" unicode="'" horiz-adv-x="393" 
d="M176 905l25 553h188l-90 -553h-123z" />
    <glyph glyph-name="parenleft" unicode="(" horiz-adv-x="663" 
d="M385 -254q-116 160 -177 356t-61 406q0 281 114.5 556t313.5 480l125 -98q-161 -172 -263.5 -429.5t-102.5 -492.5q0 -191 54.5 -373.5t141.5 -306.5z" />
    <glyph glyph-name="parenright" unicode=")" horiz-adv-x="663" 
d="M305 1544q116 -160 177 -356t61 -406q0 -281 -114.5 -556t-313.5 -480l-125 98q161 172 263.5 429.5t102.5 492.5q0 191 -54.5 373.5t-141.5 306.5z" />
    <glyph glyph-name="asterisk" unicode="*" horiz-adv-x="995" 
d="M262 772l193 252l-301 88l45 137l299 -106l-11 315h144l-10 -315l299 106l45 -137l-301 -88l192 -252l-119 -84l-178 262l-178 -262z" />
    <glyph glyph-name="plus" unicode="+" horiz-adv-x="1331" 
d="M545 178l41 391h-365l17 160h366l41 391h168l-41 -391h367l-17 -160h-368l-41 -391h-168z" />
    <glyph glyph-name="comma" unicode="," horiz-adv-x="473" 
d="M12 -279q162 147 178 275q-10 -2 -28 -2q-51 0 -82 33t-31 82q0 57 42.5 96t105.5 39q57 0 96 -46.5t39 -123.5q0 -112 -71 -227t-181 -199z" />
    <glyph glyph-name="hyphen" unicode="-" horiz-adv-x="798" 
d="M84 549l18 160h635l-18 -160h-635z" />
    <glyph glyph-name="period" unicode="." horiz-adv-x="442" 
d="M166 -14q-52 0 -84.5 31.5t-32.5 82.5q0 63 41.5 103.5t102.5 40.5q49 0 81.5 -34t32.5 -81q0 -65 -40 -104t-101 -39z" />
    <glyph glyph-name="slash" unicode="/" horiz-adv-x="999" 
d="M47 -188l758 1708h180l-758 -1708h-180z" />
    <glyph glyph-name="zero" unicode="0" horiz-adv-x="1400" 
d="M649 -25q-239 0 -375.5 160t-136.5 447q0 141 26.5 270t81 239.5t131.5 192t184 128t233 46.5q238 0 375 -159.5t137 -446.5q0 -141 -26.5 -270t-80.5 -239.5t-131 -192.5t-184.5 -128.5t-233.5 -46.5zM324 580q0 -217 86.5 -327t251.5 -110q97 0 175 39.5t129.5 107
t86.5 159.5t50 193.5t15 213.5q0 216 -86.5 325t-249.5 109q-97 0 -175 -39.5t-130 -106.5t-87 -159t-50.5 -193t-15.5 -212z" />
    <glyph glyph-name="one" unicode="1" horiz-adv-x="866" 
d="M412 0l131 1229l-400 -193l21 187l434 211h150l-152 -1434h-184z" />
    <glyph glyph-name="two" unicode="2" horiz-adv-x="1191" 
d="M33 0l16 152l576 489q76 65 124.5 112t94 103.5t67 113t21.5 115.5q0 97 -63 151t-177 54q-239 0 -418 -262l-137 105q218 325 563 325q183 0 299.5 -98.5t116.5 -257.5q0 -145 -82.5 -271.5t-236.5 -257.5l-478 -405h730l-19 -168h-997z" />
    <glyph glyph-name="three" unicode="3" horiz-adv-x="1155" 
d="M506 -25q-146 0 -268.5 53.5t-206.5 155.5l127 125q155 -166 360 -166q148 0 244 78t96 201q0 223 -350 223h-125l18 166h164q153 0 247.5 72.5t94.5 193.5q0 98 -67.5 155.5t-196.5 57.5q-210 0 -375 -188l-121 119q212 237 506 237q200 0 319.5 -101t119.5 -265
q0 -129 -73 -227t-196 -136q107 -33 162 -113.5t55 -195.5q0 -199 -152 -322t-382 -123z" />
    <glyph glyph-name="four" unicode="4" horiz-adv-x="1269" 
d="M795 0l32 307h-768l17 158l817 969h225l-102 -965h211l-17 -162h-211l-32 -307h-172zM279 469h565l82 766z" />
    <glyph glyph-name="five" unicode="5" horiz-adv-x="1185" 
d="M524 -25q-294 0 -471 195l125 131q143 -158 357 -158q171 0 274.5 93.5t103.5 248.5q0 116 -72.5 181t-203.5 65q-175 0 -320 -98l-137 86l101 715h837l-18 -168h-670l-59 -437q131 70 293 70q190 0 313 -107.5t123 -293.5q0 -155 -74.5 -274.5t-205.5 -184t-296 -64.5z
" />
    <glyph glyph-name="six" unicode="6" horiz-adv-x="1241" 
d="M578 -25q-214 0 -349 122t-135 325q0 290 281 614l344 398h223l-426 -482l-24 -28q107 43 219 43q194 0 321 -121t127 -311q0 -155 -76.5 -283.5t-210 -202.5t-294.5 -74zM281 434q0 -136 82 -214.5t229 -78.5q170 0 275.5 106t105.5 269q0 132 -82.5 209.5t-228.5 77.5
q-165 0 -324 -125q-57 -126 -57 -244z" />
    <glyph glyph-name="seven" unicode="7" horiz-adv-x="1081" 
d="M147 0l748 1266h-760l19 168h966l-16 -154l-752 -1280h-205z" />
    <glyph glyph-name="eight" unicode="8" horiz-adv-x="1251" 
d="M578 -25q-231 0 -360.5 106t-129.5 271q0 134 78.5 241t208.5 157q-160 91 -160 276q0 126 67.5 225.5t182 153t254.5 53.5q196 0 315 -99.5t119 -252.5q0 -117 -60.5 -213t-164.5 -148q101 -44 155 -125t54 -182q0 -140 -74 -246.5t-200.5 -161.5t-284.5 -55zM274 371
q0 -102 81.5 -166t232.5 -64q162 0 264 78.5t102 208.5q0 106 -80 170t-233 64q-163 0 -265 -78.5t-102 -212.5zM399 1024q0 -94 67 -149.5t191 -55.5q140 0 226 73t86 193q0 96 -67.5 152.5t-192.5 56.5q-140 0 -225 -73t-85 -197z" />
    <glyph glyph-name="nine" unicode="9" horiz-adv-x="1239" 
d="M705 1458q214 0 348.5 -121.5t134.5 -324.5q0 -291 -281 -615l-344 -397h-223l426 481l25 29q-107 -43 -220 -43q-194 0 -321 121t-127 311q0 155 76.5 283.5t210 202t295.5 73.5zM309 918q0 -132 83 -209.5t229 -77.5q164 0 323 125q57 126 57 243q0 136 -82 214.5
t-229 78.5q-170 0 -275.5 -105.5t-105.5 -268.5z" />
    <glyph glyph-name="colon" unicode=":" horiz-adv-x="442" 
d="M166 -14q-52 0 -84.5 31.5t-32.5 82.5q0 63 41.5 103.5t102.5 40.5q49 0 81.5 -34t32.5 -81q0 -65 -40 -104t-101 -39zM125 819q0 64 41 104t102 40q49 0 82 -34t33 -81q0 -65 -40 -104t-101 -39q-52 0 -84.5 31.5t-32.5 82.5z" />
    <glyph glyph-name="semicolon" unicode=";" horiz-adv-x="473" 
d="M248 705q-52 0 -84.5 31.5t-32.5 82.5q0 64 41 104t102 40q49 0 82 -34t33 -81q0 -65 -40 -104t-101 -39zM12 -279q162 147 178 275q-10 -2 -28 -2q-51 0 -82 33t-31 82q0 57 42.5 96t105.5 39q57 0 96 -46.5t39 -123.5q0 -112 -71 -227t-181 -199z" />
    <glyph glyph-name="less" unicode="&#x3c;" horiz-adv-x="1331" 
d="M1083 207l-864 356l19 172l938 357l-19 -177l-719 -266l664 -266z" />
    <glyph glyph-name="equal" unicode="=" horiz-adv-x="1331" 
d="M242 774l16 162h901l-16 -162h-901zM199 362l16 162h901l-16 -162h-901z" />
    <glyph glyph-name="greater" unicode="&#x3e;" horiz-adv-x="1331" 
d="M182 207l19 176l719 266l-664 266l18 177l865 -357l-19 -172z" />
    <glyph glyph-name="question" unicode="?" horiz-adv-x="968" 
d="M350 537q11 104 50 169.5t143 145.5l108 84q67 52 98 96.5t31 106.5q0 73 -49.5 116t-138.5 43q-104 0 -187.5 -66t-136.5 -196l-164 64q65 168 195 263t299 95q157 0 261 -86t104 -221q0 -182 -222 -352l-108 -84q-60 -46 -78.5 -78t-24.5 -100l-10 -95h-180zM266 100
q0 63 41.5 103.5t102.5 40.5q49 0 81.5 -34t32.5 -81q0 -65 -40 -104t-101 -39q-52 0 -84.5 31.5t-32.5 82.5z" />
    <glyph glyph-name="at" unicode="@" horiz-adv-x="1925" 
d="M915 -375q-241 0 -427.5 95.5t-289 268.5t-102.5 396q0 199 76.5 380t206 313t310.5 210t382 78q159 0 301 -52t246 -143.5t164.5 -225.5t60.5 -290q0 -155 -50 -288t-148 -217t-224 -84q-78 0 -138.5 32t-90.5 92q-124 -110 -285 -110q-152 0 -254 103t-102 259
q0 122 57.5 227.5t158 168.5t218.5 63q143 0 232 -92l8 74h164l-58 -531q-15 -151 105 -151q80 0 138 67.5t83.5 163.5t25.5 203q0 269 -171 424t-443 155q-170 0 -319.5 -63t-255.5 -172t-167 -259.5t-61 -320.5q0 -284 177.5 -454t480.5 -170q239 0 411 94l62 -127
q-204 -117 -482 -117zM717 455q0 -103 62.5 -165.5t160.5 -62.5q63 0 122 26t103 75q0 4 1 12t1 12l33 299q-35 52 -89.5 77.5t-115.5 25.5q-119 0 -198.5 -87.5t-79.5 -211.5z" />
    <glyph glyph-name="A" unicode="A" horiz-adv-x="1431" 
d="M-25 0l736 1434h202l433 -1434h-195l-111 379h-675l-191 -379h-199zM449 543h542l-200 680z" />
    <glyph glyph-name="B" unicode="B" horiz-adv-x="1423" 
d="M139 0l152 1434h569q184 0 296 -92t112 -242q0 -114 -52 -199.5t-147 -128.5q117 -41 176.5 -120.5t59.5 -188.5q0 -147 -73.5 -253t-199.5 -158t-291 -52h-602zM346 168h414q156 0 254 78t98 207q0 103 -77.5 165t-221.5 62h-414zM418 844h381q127 0 202.5 65.5
t75.5 173.5q0 89 -59.5 136t-175.5 47h-381z" />
    <glyph glyph-name="C" unicode="C" horiz-adv-x="1558" 
d="M786 -25q-190 0 -341.5 83t-236.5 233t-85 340q0 228 109 418t297.5 299.5t414.5 109.5q189 0 346.5 -91t241.5 -251l-168 -94q-61 128 -175 196t-263 68q-174 0 -314 -86t-217.5 -233.5t-77.5 -325.5q0 -224 138 -359t352 -135q150 0 278.5 70t214.5 195l150 -97
q-117 -161 -286 -250.5t-378 -89.5z" />
    <glyph glyph-name="D" unicode="D" horiz-adv-x="1480" 
d="M139 0l152 1434h446q190 0 340 -75.5t236 -219.5t86 -334q0 -174 -60 -324t-166.5 -255.5t-258 -165.5t-328.5 -60h-447zM346 172h238q287 0 454.5 169t167.5 458q0 225 -133.5 344t-374.5 119h-237z" />
    <glyph glyph-name="E" unicode="E" horiz-adv-x="1310" 
d="M139 0l152 1434h983l-19 -172h-794l-45 -426h702l-18 -172h-703l-51 -492h795l-19 -172h-983z" />
    <glyph glyph-name="F" unicode="F" horiz-adv-x="1300" 
d="M139 0l152 1434h983l-19 -172h-794l-49 -467h733l-19 -172h-733l-65 -623h-189z" />
    <glyph glyph-name="G" unicode="G" horiz-adv-x="1611" 
d="M803 -25q-307 0 -494.5 177t-187.5 464q0 175 63 331.5t171.5 268t259 177t319.5 65.5q172 0 319 -69.5t238 -198.5l-162 -109q-64 99 -170.5 152t-234.5 53q-176 0 -316 -86.5t-217.5 -235t-77.5 -329.5q0 -228 140 -358t374 -130q243 0 426 127l39 363h-383l19 170h563
l-68 -635q-276 -197 -620 -197z" />
    <glyph glyph-name="H" unicode="H" horiz-adv-x="1564" 
d="M139 0l152 1434h188l-65 -607h798l66 607h188l-151 -1434h-189l70 655h-799l-69 -655h-189z" />
    <glyph glyph-name="I" unicode="I" horiz-adv-x="577" 
d="M139 0l152 1434h188l-151 -1434h-189z" />
    <glyph glyph-name="J" unicode="J" horiz-adv-x="1173" 
d="M453 -25q-231 0 -428 146l102 149q176 -123 340 -123q138 0 229.5 86t108.5 248l100 953h189l-103 -965q-25 -242 -162 -368t-376 -126z" />
    <glyph glyph-name="K" unicode="K" horiz-adv-x="1456" 
d="M139 0l152 1434h188l-82 -783l842 783h240l-703 -656l592 -778h-235l-496 649l-266 -248l-43 -401h-189z" />
    <glyph glyph-name="L" unicode="L" horiz-adv-x="1189" 
d="M139 0l152 1434h188l-133 -1262h729l-18 -172h-918z" />
    <glyph glyph-name="M" unicode="M" horiz-adv-x="1972" 
d="M139 0l152 1434h215l450 -1153l695 1153h223l-152 -1434h-188l119 1110l-645 -1069h-146l-418 1067l-116 -1108h-189z" />
    <glyph glyph-name="N" unicode="N" horiz-adv-x="1589" 
d="M139 0l152 1434h190l701 -1145l121 1145h188l-152 -1434h-190l-700 1147l-121 -1147h-189z" />
    <glyph glyph-name="O" unicode="O" horiz-adv-x="1687" 
d="M788 -25q-188 0 -339.5 82.5t-238.5 233t-87 340.5q0 169 63.5 322t172 264t259 176t318.5 65q188 0 341 -82.5t241 -233t88 -341.5q0 -225 -109 -415t-297 -300.5t-412 -110.5zM315 641q0 -222 138.5 -358t351.5 -136q173 0 313 86.5t217.5 234t77.5 325.5
q0 225 -135.5 359t-353.5 134q-173 0 -313.5 -86.5t-218 -233.5t-77.5 -325z" />
    <glyph glyph-name="P" unicode="P" horiz-adv-x="1349" 
d="M139 0l152 1434h553q208 0 330 -101.5t122 -281.5q0 -232 -146.5 -359t-397.5 -127h-365l-59 -565h-189zM406 737h344q354 0 354 303q0 222 -299 222h-344z" />
    <glyph glyph-name="Q" unicode="Q" horiz-adv-x="1687" 
d="M1360 -285l-281 314q-139 -54 -291 -54q-188 0 -339.5 82.5t-238.5 233t-87 340.5q0 169 63.5 322t172 264t259 176t318.5 65q188 0 341 -82.5t241 -233t88 -341.5q0 -210 -96 -389.5t-261 -294.5l250 -281zM315 641q0 -222 138.5 -358t351.5 -136q173 0 313 86.5
t217.5 234t77.5 325.5q0 225 -135.5 359t-353.5 134q-173 0 -313.5 -86.5t-218 -233.5t-77.5 -325z" />
    <glyph glyph-name="R" unicode="R" horiz-adv-x="1419" 
d="M139 0l152 1434h565q206 0 329.5 -102t123.5 -279q0 -200 -113.5 -322t-312.5 -149l379 -582h-226l-366 573h-281l-61 -573h-189zM406 745h358q352 0 352 299q0 218 -299 218h-356z" />
    <glyph glyph-name="S" unicode="S" horiz-adv-x="1226" 
d="M578 -25q-152 0 -290 48.5t-237 138.5l113 147q194 -164 424 -164q154 0 255 74.5t101 196.5q0 146 -203 198l-290 72q-140 34 -219.5 121t-79.5 207q0 133 73 235t195 155.5t272 53.5q146 0 275 -51.5t215 -144.5l-131 -134q-136 160 -367 160q-148 0 -244 -69t-96 -185
q0 -69 51 -116t162 -74l289 -72q139 -34 216 -120.5t77 -211.5q0 -216 -156.5 -340.5t-404.5 -124.5z" />
    <glyph glyph-name="T" unicode="T" horiz-adv-x="1261" 
d="M481 0l133 1262h-487l18 172h1164l-19 -172h-487l-133 -1262h-189z" />
    <glyph glyph-name="U" unicode="U" horiz-adv-x="1527" 
d="M711 -25q-275 0 -417.5 154t-113.5 432l92 873h189l-90 -852q-23 -217 68.5 -326t283.5 -109t307.5 109.5t138.5 325.5l91 852h188l-92 -873q-29 -279 -200 -432.5t-445 -153.5z" />
    <glyph glyph-name="V" unicode="V" horiz-adv-x="1398" 
d="M543 0l-416 1434h195l342 -1213l598 1213h202l-719 -1434h-202z" />
    <glyph glyph-name="W" unicode="W" horiz-adv-x="2189" 
d="M457 0l-303 1434h188l246 -1164l512 1164h176l270 -1168l490 1168h192l-606 -1434h-190l-269 1176l-516 -1176h-190z" />
    <glyph glyph-name="X" unicode="X" horiz-adv-x="1355" 
d="M-2 0l586 752l-406 682h205l328 -562l442 562h217l-551 -693l428 -741h-207l-348 610l-473 -610h-221z" />
    <glyph glyph-name="Y" unicode="Y" horiz-adv-x="1318" 
d="M510 0l59 563l-460 871h208l361 -693l508 693h217l-645 -871l-60 -563h-188z" />
    <glyph glyph-name="Z" unicode="Z" horiz-adv-x="1245" 
d="M51 0l15 139l897 1123h-766l18 172h1004l-15 -140l-897 -1122h795l-19 -172h-1032z" />
    <glyph glyph-name="bracketleft" unicode="[" horiz-adv-x="731" 
d="M104 -233l185 1753h475l-16 -160h-295l-152 -1434h297l-18 -159h-476z" />
    <glyph glyph-name="backslash" unicode="\" horiz-adv-x="901" 
d="M606 -188l-461 1708h181l460 -1708h-180z" />
    <glyph glyph-name="bracketright" unicode="]" horiz-adv-x="733" 
d="M653 1520l-184 -1753h-475l16 159h295l152 1434h-297l18 160h475z" />
    <glyph glyph-name="asciicircum" unicode="^" horiz-adv-x="1071" 
d="M121 887l426 547h170l311 -547h-201l-209 385l-288 -385h-209z" />
    <glyph glyph-name="underscore" unicode="_" horiz-adv-x="860" 
d="M-51 -268l16 155h799l-16 -155h-799z" />
    <glyph glyph-name="grave" unicode="`" horiz-adv-x="1228" 
d="M672 1202l-172 287h217l106 -287h-151z" />
    <glyph glyph-name="a" unicode="a" horiz-adv-x="1292" 
d="M561 -25q-203 0 -338 135.5t-135 346.5q0 121 45.5 233t122.5 194.5t185 131.5t227 49q97 0 182.5 -32.5t142.5 -92.5l11 100h180l-111 -1040h-180l10 96q-65 -58 -155.5 -89.5t-186.5 -31.5zM274 471q0 -151 91.5 -241.5t232.5 -90.5q88 0 175.5 37.5t150.5 106.5
l49 471q-50 71 -129 109t-168 38q-175 0 -288.5 -124t-113.5 -306z" />
    <glyph glyph-name="b" unicode="b" horiz-adv-x="1294" 
d="M623 -25q-96 0 -183.5 32.5t-140.5 90.5l-10 -98h-180l159 1511h181l-60 -569q66 58 157 90.5t185 32.5q202 0 337.5 -138t135.5 -349q0 -121 -44.5 -232t-121 -192.5t-185 -130t-230.5 -48.5zM319 287q48 -72 125.5 -110t167.5 -38q173 0 289.5 125.5t116.5 306.5
q0 150 -90.5 240t-231.5 90q-89 0 -176.5 -37.5t-150.5 -107.5z" />
    <glyph glyph-name="c" unicode="c" horiz-adv-x="1148" 
d="M582 -25q-218 0 -356 133.5t-138 342.5q0 168 79 309t216.5 223t302.5 82q136 0 248.5 -57.5t177.5 -163.5l-147 -109q-106 166 -289 166q-171 0 -285.5 -123.5t-114.5 -304.5q0 -149 91 -241.5t229 -92.5q95 0 183.5 45.5t156.5 128.5l131 -100q-88 -115 -213 -176.5
t-272 -61.5z" />
    <glyph glyph-name="d" unicode="d" horiz-adv-x="1292" 
d="M893 0l10 96q-65 -58 -155.5 -89.5t-186.5 -31.5q-203 0 -338 135.5t-135 346.5q0 164 77 303.5t211 222t294 82.5q96 0 182 -32.5t141 -90.5l60 569h180l-160 -1511h-180zM274 471q0 -151 91.5 -241.5t232.5 -90.5q88 0 174.5 37.5t151.5 106.5l49 473
q-48 70 -126.5 107.5t-168.5 37.5q-174 0 -289 -123.5t-115 -306.5z" />
    <glyph glyph-name="e" unicode="e" horiz-adv-x="1249" 
d="M584 -25q-226 0 -361 127.5t-135 339.5q0 173 78 315.5t217 225t309 82.5q207 0 337 -122t130 -322q0 -72 -18 -142h-871v-22q0 -153 87 -237.5t239 -84.5q214 0 362 176l127 -98q-89 -114 -217 -176t-284 -62zM299 635h682q-6 133 -84 203.5t-213 70.5
q-142 0 -242 -74.5t-143 -199.5z" />
    <glyph glyph-name="f" unicode="f" horiz-adv-x="843" 
d="M324 1116q22 206 130.5 313t293.5 107q99 0 182 -35l-41 -155q-65 26 -135 26q-224 0 -252 -260l-8 -72h380l-16 -155h-381l-92 -885h-180l94 885h-236l17 155h235z" />
    <glyph glyph-name="g" unicode="g" horiz-adv-x="1292" 
d="M512 -471q-143 0 -267.5 51t-205.5 144l121 129q90 -85 177 -122.5t185 -37.5q160 0 259 85t114 234l10 101q-65 -58 -154.5 -89.5t-185.5 -31.5q-203 0 -339 136.5t-136 344.5q0 121 46.5 230.5t124.5 188.5t185 126t222 47q96 0 181.5 -33t143.5 -94l11 102h180
l-109 -1028q-25 -228 -172 -355.5t-391 -127.5zM274 483q0 -148 91.5 -237.5t232.5 -89.5q89 0 176.5 37.5t151.5 107.5l47 453q-48 71 -127 109t-168 38q-171 0 -287.5 -122t-116.5 -296z" />
    <glyph glyph-name="h" unicode="h" horiz-adv-x="1247" 
d="M920 582q17 156 -45 237.5t-187 81.5q-83 0 -167 -36.5t-152 -108.5l-80 -756h-180l159 1511h181l-62 -573q149 127 352 127q184 0 286 -118t79 -326l-66 -621h-180z" />
    <glyph glyph-name="i" unicode="i" horiz-adv-x="507" 
d="M109 0l110 1040h180l-110 -1040h-180zM213 1321q0 57 39.5 97t95.5 40q50 0 84.5 -34t34.5 -83q0 -56 -40 -96.5t-97 -40.5q-50 0 -83.5 33t-33.5 84z" />
    <glyph glyph-name="j" unicode="j" horiz-adv-x="507" 
d="M-90 -471q-98 0 -174 33l45 157q64 -22 123 -22q174 0 196 215l119 1128h180l-120 -1153q-20 -181 -111.5 -269.5t-257.5 -88.5zM213 1321q0 57 39.5 97t95.5 40q50 0 84.5 -34t34.5 -83q0 -56 -40 -96.5t-97 -40.5q-50 0 -83.5 33t-33.5 84z" />
    <glyph glyph-name="k" unicode="k" horiz-adv-x="1200" 
d="M109 0l159 1511h181l-105 -989l610 518h236l-526 -452l456 -588h-221l-369 473l-211 -182l-30 -291h-180z" />
    <glyph glyph-name="l" unicode="l" horiz-adv-x="507" 
d="M109 0l159 1511h181l-160 -1511h-180z" />
    <glyph glyph-name="m" unicode="m" horiz-adv-x="1914" 
d="M1589 594q15 150 -41 228.5t-164 78.5q-77 0 -161 -40.5t-156 -119.5q3 -56 -2 -108l-68 -633h-180l64 594q15 150 -41 228.5t-164 78.5q-74 0 -155 -37.5t-152 -111.5l-80 -752h-180l110 1040h180l-10 -104q150 129 338 129q106 0 186 -47t119 -135q88 89 193 135.5
t211 46.5q170 0 264.5 -115t73.5 -317l-68 -633h-180z" />
    <glyph glyph-name="n" unicode="n" horiz-adv-x="1247" 
d="M920 582q17 156 -44.5 237.5t-187.5 81.5q-83 0 -167 -36.5t-152 -108.5l-80 -756h-180l110 1040h180l-10 -102q146 127 348 127q186 0 288 -118t79 -326l-66 -621h-180z" />
    <glyph glyph-name="o" unicode="o" horiz-adv-x="1282" 
d="M590 -25q-218 0 -359 137t-141 349q0 164 78.5 302.5t217 220t306.5 81.5q217 0 358.5 -136.5t141.5 -348.5q0 -164 -78.5 -303t-217 -220.5t-306.5 -81.5zM276 473q0 -147 89.5 -240.5t234.5 -93.5q172 0 289 125t117 303q0 147 -89.5 240.5t-234.5 93.5
q-172 0 -289 -125t-117 -303z" />
    <glyph glyph-name="p" unicode="p" horiz-adv-x="1294" 
d="M61 -446l158 1486h180l-10 -98q67 59 157 91t185 32q202 0 337.5 -138t135.5 -349q0 -121 -44.5 -232t-121 -192.5t-185 -130t-230.5 -48.5q-96 0 -183.5 32.5t-140.5 90.5l-57 -544h-181zM319 285q49 -71 126 -108.5t167 -37.5q173 0 289.5 125.5t116.5 306.5
q0 150 -90.5 240t-231.5 90q-88 0 -175 -37t-152 -106z" />
    <glyph glyph-name="q" unicode="q" horiz-adv-x="1292" 
d="M561 -25q-203 0 -338 135.5t-135 346.5q0 164 77 303.5t211 222t294 82.5q96 0 182 -33t141 -92l11 100h180l-158 -1486h-180l57 542q-65 -58 -155.5 -89.5t-186.5 -31.5zM274 471q0 -151 91.5 -241.5t232.5 -90.5q89 0 176 38t150 108l49 469q-48 72 -126.5 109.5
t-168.5 37.5q-174 0 -289 -123.5t-115 -306.5z" />
    <glyph glyph-name="r" unicode="r" horiz-adv-x="804" 
d="M109 0l110 1040h180l-14 -127q57 71 140.5 111.5t174.5 40.5q55 0 107 -14l-23 -166q-52 12 -100 12q-98 0 -180 -47t-139 -137l-76 -713h-180z" />
    <glyph glyph-name="s" unicode="s" horiz-adv-x="1038" 
d="M494 -25q-133 0 -252 44.5t-191 121.5l119 135q66 -68 154.5 -103.5t183.5 -35.5q108 0 174 46t66 116q0 94 -164 133l-178 41q-141 33 -205 95.5t-64 156.5q0 152 119.5 246t300.5 94q127 0 237 -43.5t177 -122.5l-125 -125q-117 129 -303 129q-100 0 -164 -40.5
t-64 -112.5q0 -43 37.5 -72t132.5 -51l177 -41q266 -62 266 -256q0 -167 -120 -261t-314 -94z" />
    <glyph glyph-name="t" unicode="t" horiz-adv-x="899" 
d="M565 -20q-173 0 -257.5 96t-63.5 289l55 520h-236l17 155h235l27 258h180l-26 -258h366l-16 -155h-367l-53 -502q-14 -126 25 -183t139 -57q88 0 176 33l37 -149q-111 -47 -238 -47z" />
    <glyph glyph-name="u" unicode="u" horiz-adv-x="1243" 
d="M498 -25q-187 0 -283 114.5t-74 318.5l68 632h180l-63 -594q-15 -152 42.5 -229.5t182.5 -77.5q180 0 323 146l80 755h181l-111 -1040h-180l10 104q-150 -129 -356 -129z" />
    <glyph glyph-name="v" unicode="v" horiz-adv-x="1134" 
d="M426 0l-344 1040h194l256 -811l429 811h202l-565 -1040h-172z" />
    <glyph glyph-name="w" unicode="w" horiz-adv-x="1785" 
d="M352 0l-256 1040h189l190 -798l389 798h166l219 -798l361 798h190l-477 -1040h-180l-219 807l-392 -807h-180z" />
    <glyph glyph-name="x" unicode="x" horiz-adv-x="1093" 
d="M-23 0l461 539l-325 501h196l244 -381l326 381h213l-433 -503l347 -537h-201l-262 408l-348 -408h-218z" />
    <glyph glyph-name="y" unicode="y" horiz-adv-x="1157" 
d="M182 -446l258 471l-358 1015h194l277 -804l436 804h197l-805 -1486h-199z" />
    <glyph glyph-name="z" unicode="z" horiz-adv-x="1028" 
d="M31 0l12 119l680 762h-592l19 159h839l-12 -118l-680 -762h608l-18 -160h-856z" />
    <glyph glyph-name="braceleft" unicode="{" horiz-adv-x="759" 
d="M440 -233q-143 0 -208 63.5t-50 196.5l43 417q6 62 -21.5 90.5t-97.5 28.5h-24l16 160h25q70 0 103.5 28.5t41.5 90.5l43 418q14 136 87.5 198t226.5 62h168l-17 -160h-155q-121 0 -132 -117l-40 -387q-15 -161 -158 -209l-2 -8q132 -47 114 -209l-38 -387
q-14 -117 106 -117h156l-19 -159h-168z" />
    <glyph glyph-name="bar" unicode="|" horiz-adv-x="643" 
d="M160 -205l186 1772h172l-186 -1772h-172z" />
    <glyph glyph-name="braceright" unicode="}" horiz-adv-x="761" 
d="M346 1520q143 0 208 -63.5t50 -196.5l-43 -418q-6 -62 21.5 -90.5t97.5 -28.5h25l-17 -160h-24q-70 0 -104 -28.5t-42 -90.5l-43 -417q-14 -136 -87 -198t-226 -62h-168l16 159h156q120 0 131 117l41 387q15 161 158 209l2 8q-133 47 -115 209l39 387q14 117 -107 117
h-155l18 160h168z" />
    <glyph glyph-name="asciitilde" unicode="~" horiz-adv-x="1331" 
d="M881 526q-75 0 -209 43t-209 43q-113 0 -248 -84l18 160q121 82 250 82q72 0 208 -43t204 -43q63 0 130 23t118 61l-17 -160q-125 -82 -245 -82z" />
    <glyph glyph-name="uni00A0" unicode="&#xa0;" horiz-adv-x="522" 
 />
    <glyph glyph-name="exclamdown" unicode="&#xa1;" horiz-adv-x="522" 
d="M199 608h147l-80 -991h-196zM176 922q0 63 41 103t102 40q49 0 82 -34t33 -81q0 -65 -40 -104t-101 -39q-52 0 -84.5 32t-32.5 83z" />
    <glyph glyph-name="cent" unicode="&#xa2;" horiz-adv-x="1120" 
d="M504 0l20 199q-179 23 -287 147t-108 305q0 224 144 389t362 191l20 203h119l-20 -201q111 -9 204 -62.5t152 -144.5l-145 -106q-88 137 -230 155l-76 -721q154 21 273 162l133 -96q-76 -101 -186 -159t-236 -66l-20 -195h-119zM309 664q0 -121 64 -204t168 -104l75 713
q-135 -28 -221 -141t-86 -264z" />
    <glyph glyph-name="sterling" unicode="&#xa3;" horiz-adv-x="1138" 
d="M53 121q150 97 226.5 196.5t76.5 229.5q0 37 -6 71h-239l14 144h178q-5 11 -24 51t-26 57.5t-19 51t-16.5 63.5t-4.5 62q0 174 138 292.5t339 118.5q133 0 242.5 -56.5t173.5 -160.5l-143 -111q-107 164 -281 164q-127 0 -208 -69.5t-81 -175.5q0 -34 10 -73t21 -66.5
t32 -75.5t31 -72h408l-14 -144h-353q4 -40 4 -63q0 -95 -37.5 -182.5t-103.5 -153.5q30 6 62 6q57 0 111.5 -20t102 -40t89.5 -20q48 0 87.5 26.5t84.5 90.5l127 -82q-55 -98 -135.5 -151.5t-178.5 -53.5q-50 0 -97 15t-79 33.5t-84 33.5t-110 15q-108 0 -236 -97z" />
    <glyph glyph-name="currency" unicode="&#xa4;" horiz-adv-x="1122" 
d="M547 319q-131 0 -225 72l-170 -153l-89 98l173 156q-48 82 -48 184q0 151 91 272l-136 150l111 98l133 -149q103 67 231 67q132 0 226 -72l170 154l88 -98l-172 -156q47 -80 47 -184q0 -153 -90 -273l135 -149l-111 -98l-133 147q-106 -66 -231 -66zM348 684
q0 -96 56.5 -153.5t152.5 -57.5q117 0 188.5 80.5t71.5 198.5q0 95 -57 152t-152 57q-115 0 -187.5 -81.5t-72.5 -195.5z" />
    <glyph glyph-name="yen" unicode="&#xa5;" horiz-adv-x="1167" 
d="M436 0l29 272h-365l15 127h364l19 181h-365l14 127h304l-314 727h193l276 -670l416 670h201l-467 -727h305l-14 -127h-365l-18 -181h364l-14 -127h-365l-28 -272h-185z" />
    <glyph glyph-name="brokenbar" unicode="&#xa6;" horiz-adv-x="643" 
d="M268 834l78 733h172l-78 -733h-172zM160 -205l76 717h172l-76 -717h-172z" />
    <glyph glyph-name="section" unicode="&#xa7;" horiz-adv-x="1112" 
d="M492 -268q-116 0 -231 44.5t-189 121.5l118 131q68 -63 154.5 -98t167.5 -35q101 0 167 51t66 135q0 56 -47 91.5t-166 62.5l-108 24q-289 64 -289 275q0 108 59 195t156 122q-76 39 -115.5 100t-39.5 135q0 166 126 268.5t312 102.5q116 0 219 -44t174 -122l-125 -125
q-121 127 -278 127q-102 0 -171 -50t-69 -136q0 -56 46.5 -91.5t164.5 -62.5l108 -24q289 -64 289 -273q0 -108 -57.5 -194.5t-153.5 -126.5q154 -76 154 -238q0 -107 -61.5 -192t-162 -129.5t-218.5 -44.5zM324 565q0 -60 41.5 -94t142.5 -57l119 -29q85 35 131.5 98.5
t46.5 141.5q0 60 -41.5 94t-142.5 57l-113 27q-86 -26 -135 -92t-49 -146z" />
    <glyph glyph-name="dieresis" unicode="&#xa8;" horiz-adv-x="1228" 
d="M485 1223q-47 0 -79.5 31.5t-32.5 78.5q0 57 39 96t96 39q47 0 78.5 -30.5t31.5 -77.5q0 -61 -38.5 -99t-94.5 -38zM782 1333q0 57 39.5 96t96.5 39q47 0 78.5 -30.5t31.5 -77.5q0 -61 -38.5 -99t-94.5 -38q-48 0 -80.5 31.5t-32.5 78.5z" />
    <glyph glyph-name="copyright" unicode="&#xa9;" horiz-adv-x="1708" 
d="M801 -25q-144 0 -270.5 51.5t-215.5 140t-140.5 212t-51.5 262.5q0 218 111.5 406.5t302 299.5t411.5 111q143 0 269 -51.5t215.5 -140t141.5 -211.5t52 -262q0 -163 -66.5 -314.5t-177.5 -261.5t-263.5 -176t-317.5 -66zM274 649q0 -229 150.5 -381.5t386.5 -152.5
q135 0 259 55t212 146t140.5 213.5t52.5 254.5q0 229 -150.5 382t-386.5 153q-180 0 -334 -93t-242 -247t-88 -330zM506 666q0 120 57.5 220t155 157t211.5 57q92 0 171.5 -40.5t129.5 -117.5l-125 -98q-69 108 -186 108q-106 0 -179 -79t-73 -189q0 -93 54.5 -148
t143.5 -55q129 0 221 115l113 -90q-59 -82 -151.5 -127t-196.5 -45q-153 0 -249.5 91.5t-96.5 240.5z" />
    <glyph glyph-name="ordfeminine" unicode="&#xaa;" horiz-adv-x="997" 
d="M494 637q-151 0 -250 102t-99 265q0 120 55 224t153 167t216 63q151 0 240 -92l8 74h164l-82 -785h-164l8 70q-108 -88 -249 -88zM311 1016q0 -105 60.5 -166.5t158.5 -61.5q65 0 126 26.5t104 76.5l33 313q-35 52 -90 77.5t-117 25.5q-120 0 -197.5 -85t-77.5 -206z" />
    <glyph glyph-name="guillemotleft" unicode="&#xab;" horiz-adv-x="1146" 
d="M360 147l-262 439l355 438h204l-352 -438l260 -439h-205zM539 586l354 438h205l-353 -438l261 -439h-205z" />
    <glyph glyph-name="logicalnot" unicode="&#xac;" horiz-adv-x="1331" 
d="M930 354l24 215h-733l17 160h901l-41 -375h-168z" />
    <glyph glyph-name="registered" unicode="&#xae;" horiz-adv-x="1050" 
d="M543 635q-161 0 -269 106.5t-108 262.5q0 91 36.5 174.5t97.5 145t145.5 98t175.5 36.5q160 0 267 -106t107 -262q0 -121 -61 -226t-165.5 -167t-225.5 -62zM256 1010q0 -125 82 -209t209 -84q146 0 252 109t106 257q0 124 -81.5 208.5t-207.5 84.5q-148 0 -254 -108.5
t-106 -257.5zM395 836l47 436h176q74 0 115 -34.5t41 -94.5q0 -129 -115 -154l97 -153h-119l-84 149h-43l-16 -149h-99zM520 1077h92q26 0 41 15t15 41q0 38 -47 38h-91z" />
    <glyph glyph-name="macron" unicode="&#xaf;" horiz-adv-x="1228" 
d="M424 1260l14 139h537l-14 -139h-537z" />
    <glyph glyph-name="degree" unicode="&#xb0;" horiz-adv-x="770" 
d="M424 860q-121 0 -199 77t-78 196q0 134 97 229.5t233 95.5q122 0 201.5 -78t79.5 -196q0 -133 -98.5 -228.5t-235.5 -95.5zM295 1137q0 -61 38 -99.5t103 -38.5q78 0 126 54.5t48 128.5q0 61 -38 99t-103 38q-79 0 -126.5 -54t-47.5 -128z" />
    <glyph glyph-name="plusminus" unicode="&#xb1;" horiz-adv-x="1331" 
d="M561 324l39 366h-367l17 160h366l39 369h170l-39 -369h365l-16 -160h-365l-39 -366h-170zM160 0l18 160h901l-18 -160h-901z" />
    <glyph glyph-name="uni00B2" unicode="&#xb2;" horiz-adv-x="671" 
d="M82 737l12 111l314 268q135 111 135 187q0 39 -28 62.5t-75 23.5q-53 0 -103 -34.5t-87 -101.5l-121 70q48 93 133.5 148t186.5 55q103 0 174 -60.5t71 -146.5q0 -123 -153 -254l-222 -188h338l-14 -140h-561z" />
    <glyph glyph-name="uni00B3" unicode="&#xb3;" horiz-adv-x="651" 
d="M346 723q-173 0 -283 113l101 106q71 -82 182 -82q65 0 107.5 30t42.5 83q0 88 -140 88h-80l15 135h82q68 0 108.5 26.5t40.5 80.5q0 41 -27.5 63.5t-80.5 22.5t-104.5 -24.5t-90.5 -66.5l-98 95q54 63 132 98t167 35q113 0 184.5 -55t71.5 -148q0 -68 -37 -119.5
t-98 -73.5q106 -40 106 -169q0 -107 -85 -172.5t-216 -65.5z" />
    <glyph glyph-name="acute" unicode="&#xb4;" horiz-adv-x="1228" 
d="M532 1202l168 287h230l-234 -287h-164z" />
    <glyph glyph-name="uni00B5" unicode="&#xb5;" horiz-adv-x="1243" 
d="M631 -25q-98 0 -184 33.5t-146 95.5l-59 -550h-181l158 1486h180l-80 -753q112 -148 291 -148q126 0 201 78t90 229l64 594h180l-68 -632q-22 -205 -139.5 -319t-306.5 -114z" />
    <glyph glyph-name="paragraph" unicode="&#xb6;" horiz-adv-x="1353" 
d="M461 -262l114 1081h-32q-159 0 -248.5 75.5t-89.5 197.5q0 158 120.5 250t303.5 92h190l-178 -1696h-180zM856 -262l178 1696h180l-178 -1696h-180z" />
    <glyph glyph-name="periodcentered" unicode="&#xb7;" horiz-adv-x="440" 
d="M221 516q-52 0 -84.5 32t-32.5 83q0 63 41.5 103t102.5 40q49 0 81.5 -34t32.5 -81q0 -65 -40 -104t-101 -39z" />
    <glyph glyph-name="cedilla" unicode="&#xb8;" horiz-adv-x="1228" 
d="M279 -336l256 404h141l-193 -404h-204z" />
    <glyph glyph-name="uni00B9" unicode="&#xb9;" horiz-adv-x="509" 
d="M272 737l66 619l-199 -94l15 143l221 106h127l-82 -774h-148z" />
    <glyph glyph-name="ordmasculine" unicode="&#xba;" horiz-adv-x="1011" 
d="M524 637q-165 0 -272 102.5t-107 261.5q0 191 131.5 324t321.5 133q164 0 271.5 -103t107.5 -263q0 -190 -132 -322.5t-321 -132.5zM311 1014q0 -100 63 -163t161 -63q117 0 195.5 85t78.5 208q0 101 -61.5 163.5t-159.5 62.5q-117 0 -197 -86t-80 -207z" />
    <glyph glyph-name="guillemotright" unicode="&#xbb;" horiz-adv-x="1148" 
d="M801 1024l262 -438l-354 -439h-205l352 439l-260 438h205zM63 147l353 439l-260 438h204l263 -438l-355 -439h-205z" />
    <glyph glyph-name="onequarter" unicode="&#xbc;" horiz-adv-x="1566" 
d="M129 0l1155 1434h176l-1155 -1434h-176zM141 1184l15 143l221 107h127l-82 -775h-148l66 619zM834 158l14 125l418 491h170l-52 -491h97l-15 -125h-96l-16 -158h-142l17 158h-395zM995 283h246l35 329z" />
    <glyph glyph-name="onehalf" unicode="&#xbd;" horiz-adv-x="1665" 
d="M958 0l13 111l313 268q135 111 135 186q0 39 -27.5 62.5t-74.5 23.5q-53 0 -103.5 -34t-87.5 -101l-120 70q48 93 133 147.5t186 54.5q103 0 174.5 -60t71.5 -146q0 -123 -154 -254l-221 -189h338l-14 -139h-562zM129 0l1155 1434h176l-1155 -1434h-176zM141 1184l15 143
l221 107h127l-82 -775h-148l66 619z" />
    <glyph glyph-name="threequarters" unicode="&#xbe;" horiz-adv-x="1671" 
d="M358 655q-172 0 -282 113l100 106q70 -81 182 -81q65 0 107.5 29.5t42.5 82.5q0 88 -139 88h-80l14 135h82q68 0 109 26.5t41 80.5q0 40 -28 63t-81 23t-104.5 -24t-90.5 -66l-98 94q54 63 132 98t167 35q113 0 184.5 -55t71.5 -148q0 -68 -37 -119t-98 -73
q52 -20 79 -65t27 -105q0 -107 -85 -172.5t-216 -65.5zM233 0l1156 1434h176l-1155 -1434h-177zM938 158l14 125l418 491h170l-51 -491h96l-14 -125h-96l-17 -158h-141l16 158h-395zM1100 283h246l34 329z" />
    <glyph glyph-name="questiondown" unicode="&#xbf;" horiz-adv-x="989" 
d="M641 514q-11 -104 -50 -169.5t-142 -145.5l-109 -84q-67 -52 -98 -96.5t-31 -106.5q0 -73 49.5 -116.5t138.5 -43.5q104 0 187.5 66t136.5 196l164 -63q-65 -168 -195 -263.5t-299 -95.5q-157 0 -260.5 86.5t-103.5 221.5q0 182 221 352l108 84q60 46 78.5 78t24.5 100
l10 94h180zM467 922q0 65 40 104t101 39q52 0 84.5 -32t32.5 -83q0 -63 -41 -103t-102 -40q-49 0 -82 34t-33 81z" />
    <glyph glyph-name="Agrave" unicode="&#xc0;" horiz-adv-x="1431" 
d="M-25 0l736 1434h202l433 -1434h-195l-111 379h-675l-191 -379h-199zM449 543h542l-200 680zM602 1880h225l113 -303h-156z" />
    <glyph glyph-name="Aacute" unicode="&#xc1;" horiz-adv-x="1431" 
d="M-25 0l736 1434h202l433 -1434h-195l-111 379h-675l-191 -379h-199zM449 543h542l-200 680zM705 1577l178 303h241l-247 -303h-172z" />
    <glyph glyph-name="Acircumflex" unicode="&#xc2;" horiz-adv-x="1431" 
d="M-25 0l736 1434h202l433 -1434h-195l-111 379h-675l-191 -379h-199zM449 543h542l-200 680zM489 1577l287 303h168l221 -303h-176l-135 188l-176 -188h-189z" />
    <glyph glyph-name="Atilde" unicode="&#xc3;" horiz-adv-x="1431" 
d="M-25 0l736 1434h202l433 -1434h-195l-111 379h-675l-191 -379h-199zM449 543h542l-200 680zM483 1665q21 99 83.5 152t146.5 53q36 0 71 -13.5t53.5 -26t47.5 -36.5q23 -19 34.5 -27.5t30 -17t35.5 -8.5q63 0 92 100l127 -41q-21 -99 -84 -152t-147 -53q-36 0 -71 13.5
t-53.5 26t-47.5 36.5q-23 19 -35 27.5t-30.5 17t-35.5 8.5q-63 0 -92 -100z" />
    <glyph glyph-name="Adieresis" unicode="&#xc4;" horiz-adv-x="1431" 
d="M-25 0l736 1434h202l433 -1434h-195l-111 379h-675l-191 -379h-199zM449 543h542l-200 680zM496 1716q0 60 41.5 102t101.5 42q51 0 85 -33t34 -84q0 -64 -41.5 -105t-100.5 -41q-51 0 -85.5 34t-34.5 85zM930 1716q0 60 41.5 102t101.5 42q51 0 85 -33t34 -84
q0 -64 -41 -105t-100 -41q-51 0 -86 34t-35 85z" />
    <glyph glyph-name="Aring" unicode="&#xc5;" horiz-adv-x="1431" 
d="M-25 0l736 1434h202l433 -1434h-195l-111 379h-675l-191 -379h-199zM449 543h542l-200 680zM623 1749q0 93 69 160t168 67q88 0 149.5 -56t61.5 -138q0 -94 -70.5 -161t-171.5 -67q-87 0 -146.5 56.5t-59.5 138.5zM754 1753q0 -36 21.5 -58t60.5 -22q44 0 74 30.5
t30 74.5q0 36 -22 58t-62 22q-43 0 -72.5 -30.5t-29.5 -74.5z" />
    <glyph glyph-name="AE" unicode="&#xc6;" horiz-adv-x="2256" 
d="M-43 0l1184 1434h1079l-18 -172h-795l-45 -426h702l-18 -172h-703l-51 -492h795l-19 -172h-983l41 395h-610l-323 -395h-236zM649 559h496l74 694z" />
    <glyph glyph-name="Ccedilla" unicode="&#xc7;" horiz-adv-x="1558" 
d="M485 -375l226 355q-260 25 -424 204t-164 447q0 228 109 418t297.5 299.5t414.5 109.5q189 0 346.5 -91t241.5 -251l-168 -94q-61 128 -175 196t-263 68q-174 0 -314 -86t-217.5 -233.5t-77.5 -325.5q0 -224 138 -359t352 -135q150 0 278.5 70t214.5 195l150 -97
q-103 -143 -250 -230t-326 -105l-169 -355h-220z" />
    <glyph glyph-name="Egrave" unicode="&#xc8;" horiz-adv-x="1310" 
d="M139 0l152 1434h983l-19 -172h-794l-45 -426h702l-18 -172h-703l-51 -492h795l-19 -172h-983zM571 1880h226l112 -303h-155z" />
    <glyph glyph-name="Eacute" unicode="&#xc9;" horiz-adv-x="1310" 
d="M139 0l152 1434h983l-19 -172h-794l-45 -426h702l-18 -172h-703l-51 -492h795l-19 -172h-983zM674 1577l178 303h242l-248 -303h-172z" />
    <glyph glyph-name="Ecircumflex" unicode="&#xca;" horiz-adv-x="1310" 
d="M139 0l152 1434h983l-19 -172h-794l-45 -426h702l-18 -172h-703l-51 -492h795l-19 -172h-983zM459 1577l286 303h168l222 -303h-177l-135 188l-176 -188h-188z" />
    <glyph glyph-name="Edieresis" unicode="&#xcb;" horiz-adv-x="1310" 
d="M139 0l152 1434h983l-19 -172h-794l-45 -426h702l-18 -172h-703l-51 -492h795l-19 -172h-983zM465 1716q0 60 41.5 102t101.5 42q51 0 85 -33t34 -84q0 -64 -41 -105t-100 -41q-51 0 -86 34t-35 85zM899 1716q0 60 41.5 102t101.5 42q51 0 85 -33t34 -84q0 -64 -41 -105
t-100 -41q-51 0 -86 34t-35 85z" />
    <glyph glyph-name="Igrave" unicode="&#xcc;" horiz-adv-x="577" 
d="M139 0l152 1434h188l-151 -1434h-189zM174 1880h225l113 -303h-156z" />
    <glyph glyph-name="Iacute" unicode="&#xcd;" horiz-adv-x="577" 
d="M139 0l152 1434h188l-151 -1434h-189zM276 1577l179 303h241l-247 -303h-173z" />
    <glyph glyph-name="Icircumflex" unicode="&#xce;" horiz-adv-x="577" 
d="M139 0l152 1434h188l-151 -1434h-189zM61 1577l287 303h168l221 -303h-176l-135 188l-176 -188h-189z" />
    <glyph glyph-name="Idieresis" unicode="&#xcf;" horiz-adv-x="577" 
d="M139 0l152 1434h188l-151 -1434h-189zM68 1716q0 60 41.5 102t101.5 42q51 0 85 -33t34 -84q0 -64 -41.5 -105t-100.5 -41q-51 0 -85.5 34t-34.5 85zM502 1716q0 60 41.5 102t101.5 42q51 0 85 -33t34 -84q0 -64 -41 -105t-100 -41q-51 0 -86 34t-35 85z" />
    <glyph glyph-name="Eth" unicode="&#xd0;" horiz-adv-x="1511" 
d="M170 0l70 668h-164l16 151h164l66 615h446q190 0 340 -75.5t236 -219.5t86 -334q0 -233 -103 -416.5t-289 -286t-422 -102.5h-446zM377 172h237q287 0 455 169t168 458q0 225 -133.5 344t-374.5 119h-237l-48 -443h373l-16 -151h-373z" />
    <glyph glyph-name="Ntilde" unicode="&#xd1;" horiz-adv-x="1589" 
d="M139 0l152 1434h190l701 -1145l121 1145h188l-152 -1434h-190l-700 1147l-121 -1147h-189zM561 1665q21 99 83.5 152t146.5 53q36 0 71 -13.5t53.5 -26t47.5 -36.5q23 -19 34.5 -27.5t30 -17t35.5 -8.5q63 0 92 100l127 -41q-21 -99 -84 -152t-147 -53q-36 0 -71 13.5
t-53.5 26t-47.5 36.5q-23 19 -35 27.5t-30.5 17t-35.5 8.5q-63 0 -92 -100z" />
    <glyph glyph-name="Ograve" unicode="&#xd2;" horiz-adv-x="1687" 
d="M788 -25q-188 0 -339.5 82.5t-238.5 233t-87 340.5q0 169 63.5 322t172 264t259 176t318.5 65q188 0 341 -82.5t241 -233t88 -341.5q0 -225 -109 -415t-297 -300.5t-412 -110.5zM315 641q0 -222 138.5 -358t351.5 -136q173 0 313 86.5t217.5 234t77.5 325.5
q0 225 -135.5 359t-353.5 134q-173 0 -313.5 -86.5t-218 -233.5t-77.5 -325zM729 1880h225l113 -303h-156z" />
    <glyph glyph-name="Oacute" unicode="&#xd3;" horiz-adv-x="1687" 
d="M788 -25q-188 0 -339.5 82.5t-238.5 233t-87 340.5q0 169 63.5 322t172 264t259 176t318.5 65q188 0 341 -82.5t241 -233t88 -341.5q0 -225 -109 -415t-297 -300.5t-412 -110.5zM315 641q0 -222 138.5 -358t351.5 -136q173 0 313 86.5t217.5 234t77.5 325.5
q0 225 -135.5 359t-353.5 134q-173 0 -313.5 -86.5t-218 -233.5t-77.5 -325zM831 1577l179 303h241l-247 -303h-173z" />
    <glyph glyph-name="Ocircumflex" unicode="&#xd4;" horiz-adv-x="1687" 
d="M788 -25q-188 0 -339.5 82.5t-238.5 233t-87 340.5q0 169 63.5 322t172 264t259 176t318.5 65q188 0 341 -82.5t241 -233t88 -341.5q0 -225 -109 -415t-297 -300.5t-412 -110.5zM315 641q0 -222 138.5 -358t351.5 -136q173 0 313 86.5t217.5 234t77.5 325.5
q0 225 -135.5 359t-353.5 134q-173 0 -313.5 -86.5t-218 -233.5t-77.5 -325zM616 1577l287 303h168l221 -303h-176l-135 188l-176 -188h-189z" />
    <glyph glyph-name="Otilde" unicode="&#xd5;" horiz-adv-x="1687" 
d="M788 -25q-188 0 -339.5 82.5t-238.5 233t-87 340.5q0 169 63.5 322t172 264t259 176t318.5 65q188 0 341 -82.5t241 -233t88 -341.5q0 -225 -109 -415t-297 -300.5t-412 -110.5zM315 641q0 -222 138.5 -358t351.5 -136q173 0 313 86.5t217.5 234t77.5 325.5
q0 225 -135.5 359t-353.5 134q-173 0 -313.5 -86.5t-218 -233.5t-77.5 -325zM610 1665q21 99 83.5 152t146.5 53q36 0 71 -13.5t53.5 -26t47.5 -36.5q23 -19 34.5 -27.5t30 -17t35.5 -8.5q63 0 92 100l127 -41q-21 -99 -84 -152t-147 -53q-36 0 -71 13.5t-53.5 26
t-47.5 36.5q-23 19 -35 27.5t-30.5 17t-35.5 8.5q-63 0 -92 -100z" />
    <glyph glyph-name="Odieresis" unicode="&#xd6;" horiz-adv-x="1687" 
d="M788 -25q-188 0 -339.5 82.5t-238.5 233t-87 340.5q0 169 63.5 322t172 264t259 176t318.5 65q188 0 341 -82.5t241 -233t88 -341.5q0 -225 -109 -415t-297 -300.5t-412 -110.5zM315 641q0 -222 138.5 -358t351.5 -136q173 0 313 86.5t217.5 234t77.5 325.5
q0 225 -135.5 359t-353.5 134q-173 0 -313.5 -86.5t-218 -233.5t-77.5 -325zM623 1716q0 60 41.5 102t101.5 42q51 0 85 -33t34 -84q0 -64 -41.5 -105t-100.5 -41q-51 0 -85.5 34t-34.5 85zM1057 1716q0 60 41.5 102t101.5 42q51 0 85 -33t34 -84q0 -64 -41 -105t-100 -41
q-51 0 -86 34t-35 85z" />
    <glyph glyph-name="multiply" unicode="&#xd7;" horiz-adv-x="1331" 
d="M324 229l-97 109l344 313l-278 310l119 108l278 -311l344 311l99 -108l-347 -312l281 -311l-121 -109l-278 312z" />
    <glyph glyph-name="Oslash" unicode="&#xd8;" horiz-adv-x="1687" 
d="M788 -25q-210 0 -372 103l-148 -172l-116 96l147 172q-176 182 -176 457q0 169 63.5 322t172 264t259 176t318.5 65q215 0 377 -104l147 174l117 -96l-147 -172q176 -182 176 -459q0 -225 -109 -415t-297 -300.5t-412 -110.5zM315 641q0 -191 109 -326l770 902
q-117 69 -270 69q-173 0 -313.5 -86.5t-218 -233.5t-77.5 -325zM537 219q116 -72 268 -72q173 0 313 86.5t217.5 234t77.5 325.5q0 197 -106 325z" />
    <glyph glyph-name="Ugrave" unicode="&#xd9;" horiz-adv-x="1527" 
d="M711 -25q-275 0 -417.5 154t-113.5 432l92 873h189l-90 -852q-23 -217 68.5 -326t283.5 -109t307.5 109.5t138.5 325.5l91 852h188l-92 -873q-29 -279 -200 -432.5t-445 -153.5zM649 1880h225l113 -303h-156z" />
    <glyph glyph-name="Uacute" unicode="&#xda;" horiz-adv-x="1527" 
d="M711 -25q-275 0 -417.5 154t-113.5 432l92 873h189l-90 -852q-23 -217 68.5 -326t283.5 -109t307.5 109.5t138.5 325.5l91 852h188l-92 -873q-29 -279 -200 -432.5t-445 -153.5zM752 1577l178 303h241l-247 -303h-172z" />
    <glyph glyph-name="Ucircumflex" unicode="&#xdb;" horiz-adv-x="1527" 
d="M711 -25q-275 0 -417.5 154t-113.5 432l92 873h189l-90 -852q-23 -217 68.5 -326t283.5 -109t307.5 109.5t138.5 325.5l91 852h188l-92 -873q-29 -279 -200 -432.5t-445 -153.5zM537 1577l286 303h168l221 -303h-176l-135 188l-176 -188h-188z" />
    <glyph glyph-name="Udieresis" unicode="&#xdc;" horiz-adv-x="1527" 
d="M711 -25q-275 0 -417.5 154t-113.5 432l92 873h189l-90 -852q-23 -217 68.5 -326t283.5 -109t307.5 109.5t138.5 325.5l91 852h188l-92 -873q-29 -279 -200 -432.5t-445 -153.5zM543 1716q0 60 41.5 102t101.5 42q51 0 85 -33t34 -84q0 -64 -41 -105t-100 -41
q-51 0 -86 34t-35 85zM977 1716q0 60 41.5 102t101.5 42q51 0 85 -33t34 -84q0 -64 -41 -105t-100 -41q-51 0 -86 34t-35 85z" />
    <glyph glyph-name="Yacute" unicode="&#xdd;" horiz-adv-x="1318" 
d="M510 0l59 563l-460 871h208l361 -693l508 693h217l-645 -871l-60 -563h-188zM647 1577l178 303h242l-248 -303h-172z" />
    <glyph glyph-name="Thorn" unicode="&#xde;" horiz-adv-x="1355" 
d="M139 0l152 1434h188l-30 -283h364q208 0 330.5 -102t122.5 -281q0 -231 -147 -358t-396 -127h-365l-30 -283h-189zM375 455h346q352 0 352 305q0 110 -72.5 164.5t-224.5 54.5h-344z" />
    <glyph glyph-name="germandbls" unicode="&#xdf;" horiz-adv-x="1271" 
d="M662 -25q-72 0 -160 15l33 160q64 -11 114 -11q161 0 253.5 77.5t92.5 215.5q0 108 -74.5 166.5t-215.5 58.5h-107l18 177h25q160 0 253 85.5t93 231.5q0 106 -67 165.5t-187 59.5q-141 0 -229 -85.5t-105 -250.5l-110 -1040h-180l110 1053q24 226 167 354.5t355 128.5
q189 0 308.5 -105.5t119.5 -269.5q0 -138 -73.5 -245t-196.5 -150q133 -28 206 -114.5t73 -217.5q0 -216 -142 -337.5t-374 -121.5z" />
    <glyph glyph-name="agrave" unicode="&#xe0;" horiz-adv-x="1292" 
d="M561 -25q-203 0 -338 135.5t-135 346.5q0 121 45.5 233t122.5 194.5t185 131.5t227 49q97 0 182.5 -32.5t142.5 -92.5l11 100h180l-111 -1040h-180l10 96q-65 -58 -155.5 -89.5t-186.5 -31.5zM274 471q0 -151 91.5 -241.5t232.5 -90.5q88 0 175.5 37.5t150.5 106.5
l49 471q-50 71 -129 109t-168 38q-175 0 -288.5 -124t-113.5 -306zM508 1489h217l106 -287h-151z" />
    <glyph glyph-name="aacute" unicode="&#xe1;" horiz-adv-x="1292" 
d="M561 -25q-203 0 -338 135.5t-135 346.5q0 121 45.5 233t122.5 194.5t185 131.5t227 49q97 0 182.5 -32.5t142.5 -92.5l11 100h180l-111 -1040h-180l10 96q-65 -58 -155.5 -89.5t-186.5 -31.5zM274 471q0 -151 91.5 -241.5t232.5 -90.5q88 0 175.5 37.5t150.5 106.5
l49 471q-50 71 -129 109t-168 38q-175 0 -288.5 -124t-113.5 -306zM614 1202l168 287h230l-234 -287h-164z" />
    <glyph glyph-name="acircumflex" unicode="&#xe2;" horiz-adv-x="1292" 
d="M561 -25q-203 0 -338 135.5t-135 346.5q0 121 45.5 233t122.5 194.5t185 131.5t227 49q97 0 182.5 -32.5t142.5 -92.5l11 100h180l-111 -1040h-180l10 96q-65 -58 -155.5 -89.5t-186.5 -31.5zM274 471q0 -151 91.5 -241.5t232.5 -90.5q88 0 175.5 37.5t150.5 106.5
l49 471q-50 71 -129 109t-168 38q-175 0 -288.5 -124t-113.5 -306zM408 1202l270 287h160l209 -287h-166l-127 178l-168 -178h-178z" />
    <glyph glyph-name="atilde" unicode="&#xe3;" horiz-adv-x="1292" 
d="M561 -25q-203 0 -338 135.5t-135 346.5q0 121 45.5 233t122.5 194.5t185 131.5t227 49q97 0 182.5 -32.5t142.5 -92.5l11 100h180l-111 -1040h-180l10 96q-65 -58 -155.5 -89.5t-186.5 -31.5zM274 471q0 -151 91.5 -241.5t232.5 -90.5q88 0 175.5 37.5t150.5 106.5
l49 471q-50 71 -129 109t-168 38q-175 0 -288.5 -124t-113.5 -306zM403 1282q25 92 81.5 142.5t133.5 50.5q78 0 162 -72q60 -49 97 -49q52 0 84 94l118 -39q-26 -92 -82 -142t-133 -50t-164 71q-56 49 -94 49q-52 0 -84 -94z" />
    <glyph glyph-name="adieresis" unicode="&#xe4;" horiz-adv-x="1292" 
d="M561 -25q-203 0 -338 135.5t-135 346.5q0 121 45.5 233t122.5 194.5t185 131.5t227 49q97 0 182.5 -32.5t142.5 -92.5l11 100h180l-111 -1040h-180l10 96q-65 -58 -155.5 -89.5t-186.5 -31.5zM274 471q0 -151 91.5 -241.5t232.5 -90.5q88 0 175.5 37.5t150.5 106.5
l49 471q-50 71 -129 109t-168 38q-175 0 -288.5 -124t-113.5 -306zM414 1333q0 57 39 96t96 39q47 0 78.5 -30.5t31.5 -77.5q0 -61 -38.5 -99t-94.5 -38q-47 0 -79.5 31.5t-32.5 78.5zM823 1333q0 57 39 96t96 39q48 0 79.5 -30.5t31.5 -77.5q0 -61 -38.5 -99t-94.5 -38
q-48 0 -80.5 31.5t-32.5 78.5z" />
    <glyph glyph-name="aring" unicode="&#xe5;" horiz-adv-x="1292" 
d="M561 -25q-203 0 -338 135.5t-135 346.5q0 121 45.5 233t122.5 194.5t185 131.5t227 49q97 0 182.5 -32.5t142.5 -92.5l11 100h180l-111 -1040h-180l10 96q-65 -58 -155.5 -89.5t-186.5 -31.5zM274 471q0 -151 91.5 -241.5t232.5 -90.5q88 0 175.5 37.5t150.5 106.5
l49 471q-50 71 -129 109t-168 38q-175 0 -288.5 -124t-113.5 -306zM528 1378q0 92 68.5 158t165.5 66q85 0 145 -56t60 -135q0 -92 -69 -157.5t-167 -65.5q-86 0 -144.5 55t-58.5 135zM657 1382q0 -34 21.5 -55.5t58.5 -21.5q43 0 72 29t29 73q0 35 -21.5 56.5t-58.5 21.5
q-43 0 -72 -29.5t-29 -73.5z" />
    <glyph glyph-name="ae" unicode="&#xe6;" horiz-adv-x="2039" 
d="M446 -25q-177 0 -277.5 81.5t-100.5 217.5q0 155 127 248.5t323 93.5h375l4 35q14 122 -52 188t-202 66q-204 0 -364 -166l-121 113q184 213 493 213q147 0 247.5 -51t137.5 -144q83 92 198.5 143.5t248.5 51.5q207 0 337 -122t130 -322q0 -68 -19 -142h-870v-22
q0 -153 86.5 -237.5t238.5 -84.5q215 0 363 176l127 -98q-89 -114 -217.5 -176t-284.5 -62q-143 0 -251.5 53t-170.5 150q-96 -99 -226.5 -151t-279.5 -52zM254 289q0 -72 59.5 -115t163.5 -43q122 0 229 49t185 144q-12 56 -12 118v23h-369q-120 0 -188 -49.5t-68 -126.5z
M1090 635h682q-6 133 -84 203.5t-213 70.5q-142 0 -242 -74.5t-143 -199.5z" />
    <glyph glyph-name="ccedilla" unicode="&#xe7;" horiz-adv-x="1148" 
d="M287 -336l202 318q-182 29 -291.5 156.5t-109.5 312.5q0 168 79 309t216.5 223t302.5 82q136 0 248.5 -57.5t177.5 -163.5l-147 -109q-106 166 -289 166q-171 0 -285.5 -123.5t-114.5 -304.5q0 -149 91 -241.5t229 -92.5q95 0 183.5 45.5t156.5 128.5l131 -100
q-78 -102 -188 -163t-238 -73l-149 -313h-205z" />
    <glyph glyph-name="egrave" unicode="&#xe8;" horiz-adv-x="1249" 
d="M584 -25q-226 0 -361 127.5t-135 339.5q0 173 78 315.5t217 225t309 82.5q207 0 337 -122t130 -322q0 -72 -18 -142h-871v-22q0 -153 87 -237.5t239 -84.5q214 0 362 176l127 -98q-89 -114 -217 -176t-284 -62zM299 635h682q-6 133 -84 203.5t-213 70.5
q-142 0 -242 -74.5t-143 -199.5zM489 1489h218l106 -287h-151z" />
    <glyph glyph-name="eacute" unicode="&#xe9;" horiz-adv-x="1249" 
d="M584 -25q-226 0 -361 127.5t-135 339.5q0 173 78 315.5t217 225t309 82.5q207 0 337 -122t130 -322q0 -72 -18 -142h-871v-22q0 -153 87 -237.5t239 -84.5q214 0 362 176l127 -98q-89 -114 -217 -176t-284 -62zM299 635h682q-6 133 -84 203.5t-213 70.5
q-142 0 -242 -74.5t-143 -199.5zM596 1202l168 287h229l-233 -287h-164z" />
    <glyph glyph-name="ecircumflex" unicode="&#xea;" horiz-adv-x="1249" 
d="M584 -25q-226 0 -361 127.5t-135 339.5q0 173 78 315.5t217 225t309 82.5q207 0 337 -122t130 -322q0 -72 -18 -142h-871v-22q0 -153 87 -237.5t239 -84.5q214 0 362 176l127 -98q-89 -114 -217 -176t-284 -62zM299 635h682q-6 133 -84 203.5t-213 70.5
q-142 0 -242 -74.5t-143 -199.5zM389 1202l270 287h160l209 -287h-166l-127 178l-168 -178h-178z" />
    <glyph glyph-name="edieresis" unicode="&#xeb;" horiz-adv-x="1249" 
d="M584 -25q-226 0 -361 127.5t-135 339.5q0 173 78 315.5t217 225t309 82.5q207 0 337 -122t130 -322q0 -72 -18 -142h-871v-22q0 -153 87 -237.5t239 -84.5q214 0 362 176l127 -98q-89 -114 -217 -176t-284 -62zM299 635h682q-6 133 -84 203.5t-213 70.5
q-142 0 -242 -74.5t-143 -199.5zM395 1333q0 57 39 96t96 39q48 0 79.5 -30.5t31.5 -77.5q0 -61 -38.5 -99t-94.5 -38q-48 0 -80.5 31.5t-32.5 78.5zM805 1333q0 57 39 96t96 39q48 0 79.5 -30.5t31.5 -77.5q0 -61 -38.5 -99t-94.5 -38q-48 0 -80.5 31.5t-32.5 78.5z" />
    <glyph glyph-name="igrave" unicode="&#xec;" horiz-adv-x="507" 
d="M109 0l110 1040h180l-110 -1040h-180zM147 1489h218l65 -287h-151z" />
    <glyph glyph-name="iacute" unicode="&#xed;" horiz-adv-x="507" 
d="M109 0l110 1040h180l-110 -1040h-180zM213 1202l127 287h227l-192 -287h-162z" />
    <glyph glyph-name="icircumflex" unicode="&#xee;" horiz-adv-x="507" 
d="M109 0l110 1040h180l-110 -1040h-180zM35 1202l250 287h143l188 -287h-159l-109 172l-145 -172h-168z" />
    <glyph glyph-name="idieresis" unicode="&#xef;" horiz-adv-x="507" 
d="M109 0l110 1040h180l-110 -1040h-180zM39 1333q0 57 39 96t96 39q48 0 79.5 -30.5t31.5 -77.5q0 -61 -38.5 -99t-94.5 -38q-48 0 -80.5 31.5t-32.5 78.5zM395 1333q0 57 39 96t96 39q48 0 79.5 -30.5t31.5 -77.5q0 -61 -38.5 -99t-94.5 -38q-48 0 -80.5 31.5t-32.5 78.5z
" />
    <glyph glyph-name="eth" unicode="&#xf0;" horiz-adv-x="1288" 
d="M588 -25q-217 0 -358.5 132.5t-141.5 334.5q0 156 77 287.5t212.5 208t298.5 76.5q192 0 336 -111q-46 200 -203 336l-248 -164l-53 92l211 140q-108 72 -270 127l79 137q199 -60 340 -166l209 139l53 -92l-178 -119q125 -119 191.5 -276.5t66.5 -339.5
q0 -169 -54 -323.5t-159 -254.5q-81 -78 -186.5 -121t-222.5 -43zM274 459q0 -144 94 -233t238 -89q104 0 185.5 43.5t133 120t78.5 176.5t29 219q-69 81 -159.5 122.5t-188.5 41.5q-175 0 -292.5 -115.5t-117.5 -285.5z" />
    <glyph glyph-name="ntilde" unicode="&#xf1;" horiz-adv-x="1247" 
d="M920 582q17 156 -44.5 237.5t-187.5 81.5q-83 0 -167 -36.5t-152 -108.5l-80 -756h-180l110 1040h180l-10 -102q146 127 348 127q186 0 288 -118t79 -326l-66 -621h-180zM373 1282q25 92 81.5 142.5t133.5 50.5q78 0 162 -72q21 -17 33 -25.5t29.5 -16t33.5 -7.5
q52 0 84 94l119 -39q-26 -92 -82 -142t-133 -50t-164 71q-56 49 -95 49q-51 0 -83 -94z" />
    <glyph glyph-name="ograve" unicode="&#xf2;" horiz-adv-x="1282" 
d="M590 -25q-218 0 -359 137t-141 349q0 164 78.5 302.5t217 220t306.5 81.5q217 0 358.5 -136.5t141.5 -348.5q0 -164 -78.5 -303t-217 -220.5t-306.5 -81.5zM276 473q0 -147 89.5 -240.5t234.5 -93.5q172 0 289 125t117 303q0 147 -89.5 240.5t-234.5 93.5
q-172 0 -289 -125t-117 -303zM494 1489h217l106 -287h-151z" />
    <glyph glyph-name="oacute" unicode="&#xf3;" horiz-adv-x="1282" 
d="M590 -25q-218 0 -359 137t-141 349q0 164 78.5 302.5t217 220t306.5 81.5q217 0 358.5 -136.5t141.5 -348.5q0 -164 -78.5 -303t-217 -220.5t-306.5 -81.5zM276 473q0 -147 89.5 -240.5t234.5 -93.5q172 0 289 125t117 303q0 147 -89.5 240.5t-234.5 93.5
q-172 0 -289 -125t-117 -303zM600 1202l168 287h229l-233 -287h-164z" />
    <glyph glyph-name="ocircumflex" unicode="&#xf4;" horiz-adv-x="1282" 
d="M590 -25q-218 0 -359 137t-141 349q0 164 78.5 302.5t217 220t306.5 81.5q217 0 358.5 -136.5t141.5 -348.5q0 -164 -78.5 -303t-217 -220.5t-306.5 -81.5zM276 473q0 -147 89.5 -240.5t234.5 -93.5q172 0 289 125t117 303q0 147 -89.5 240.5t-234.5 93.5
q-172 0 -289 -125t-117 -303zM393 1202l271 287h159l209 -287h-166l-127 178l-168 -178h-178z" />
    <glyph glyph-name="otilde" unicode="&#xf5;" horiz-adv-x="1282" 
d="M590 -25q-218 0 -359 137t-141 349q0 164 78.5 302.5t217 220t306.5 81.5q217 0 358.5 -136.5t141.5 -348.5q0 -164 -78.5 -303t-217 -220.5t-306.5 -81.5zM276 473q0 -147 89.5 -240.5t234.5 -93.5q172 0 289 125t117 303q0 147 -89.5 240.5t-234.5 93.5
q-172 0 -289 -125t-117 -303zM389 1282q25 92 81.5 142.5t133.5 50.5q78 0 162 -72q21 -17 33 -25.5t29.5 -16t33.5 -7.5q52 0 84 94l119 -39q-26 -92 -82 -142t-133 -50t-164 71q-56 49 -94 49q-52 0 -84 -94z" />
    <glyph glyph-name="odieresis" unicode="&#xf6;" horiz-adv-x="1282" 
d="M590 -25q-218 0 -359 137t-141 349q0 164 78.5 302.5t217 220t306.5 81.5q217 0 358.5 -136.5t141.5 -348.5q0 -164 -78.5 -303t-217 -220.5t-306.5 -81.5zM276 473q0 -147 89.5 -240.5t234.5 -93.5q172 0 289 125t117 303q0 147 -89.5 240.5t-234.5 93.5
q-172 0 -289 -125t-117 -303zM399 1333q0 57 39.5 96t96.5 39q47 0 78.5 -30.5t31.5 -77.5q0 -61 -38.5 -99t-94.5 -38q-48 0 -80.5 31.5t-32.5 78.5zM809 1333q0 57 39 96t96 39q48 0 79.5 -30.5t31.5 -77.5q0 -61 -38.5 -99t-94.5 -38q-48 0 -80.5 31.5t-32.5 78.5z" />
    <glyph glyph-name="divide" unicode="&#xf7;" horiz-adv-x="1331" 
d="M219 569l17 160h903l-17 -160h-903zM516 276q0 56 40 95t97 39q49 0 80 -30.5t31 -76.5q0 -59 -38.5 -98t-96.5 -39q-52 0 -82.5 31t-30.5 79zM592 997q0 57 40 96.5t97 39.5q49 0 80 -30.5t31 -76.5q0 -61 -39.5 -99t-95.5 -38q-51 0 -82 30.5t-31 77.5z" />
    <glyph glyph-name="oslash" unicode="&#xf8;" horiz-adv-x="1282" 
d="M590 -25q-152 0 -273 70l-104 -123l-98 82l102 121q-127 137 -127 336q0 164 78.5 302.5t217 220t306.5 81.5q153 0 271 -70l104 121l98 -82l-100 -121q127 -133 127 -333q0 -164 -78.5 -303t-217 -220.5t-306.5 -81.5zM268 473q0 -126 68 -219l522 610q-76 45 -176 45
q-176 0 -295 -127.5t-119 -308.5zM424 176q76 -45 176 -45q176 0 295 127.5t119 308.5q0 126 -68 219z" />
    <glyph glyph-name="ugrave" unicode="&#xf9;" horiz-adv-x="1243" 
d="M498 -25q-187 0 -283 114.5t-74 318.5l68 632h180l-63 -594q-15 -152 42.5 -229.5t182.5 -77.5q180 0 323 146l80 755h181l-111 -1040h-180l10 104q-150 -129 -356 -129zM469 1489h217l107 -287h-152z" />
    <glyph glyph-name="uacute" unicode="&#xfa;" horiz-adv-x="1243" 
d="M498 -25q-187 0 -283 114.5t-74 318.5l68 632h180l-63 -594q-15 -152 42.5 -229.5t182.5 -77.5q180 0 323 146l80 755h181l-111 -1040h-180l10 104q-150 -129 -356 -129zM575 1202l168 287h230l-234 -287h-164z" />
    <glyph glyph-name="ucircumflex" unicode="&#xfb;" horiz-adv-x="1243" 
d="M498 -25q-187 0 -283 114.5t-74 318.5l68 632h180l-63 -594q-15 -152 42.5 -229.5t182.5 -77.5q180 0 323 146l80 755h181l-111 -1040h-180l10 104q-150 -129 -356 -129zM369 1202l270 287h160l209 -287h-166l-127 178l-168 -178h-178z" />
    <glyph glyph-name="udieresis" unicode="&#xfc;" horiz-adv-x="1243" 
d="M498 -25q-187 0 -283 114.5t-74 318.5l68 632h180l-63 -594q-15 -152 42.5 -229.5t182.5 -77.5q180 0 323 146l80 755h181l-111 -1040h-180l10 104q-150 -129 -356 -129zM375 1333q0 57 39 96t96 39q48 0 79.5 -30.5t31.5 -77.5q0 -61 -39 -99t-95 -38q-47 0 -79.5 31.5
t-32.5 78.5zM784 1333q0 57 39.5 96t96.5 39q47 0 78.5 -30.5t31.5 -77.5q0 -61 -38.5 -99t-94.5 -38q-48 0 -80.5 31.5t-32.5 78.5z" />
    <glyph glyph-name="yacute" unicode="&#xfd;" horiz-adv-x="1157" 
d="M182 -446l258 471l-358 1015h194l277 -804l436 804h197l-805 -1486h-199zM541 1202l168 287h229l-233 -287h-164z" />
    <glyph glyph-name="thorn" unicode="&#xfe;" horiz-adv-x="1294" 
d="M61 -446l207 1957h181l-60 -569q66 58 157 90.5t185 32.5q202 0 337.5 -138t135.5 -349q0 -121 -44.5 -232t-121 -192.5t-185 -130t-230.5 -48.5q-96 0 -183.5 32.5t-140.5 90.5l-57 -544h-181zM319 287q48 -72 125.5 -110t167.5 -38q173 0 289.5 125.5t116.5 306.5
q0 150 -90.5 240t-231.5 90q-89 0 -176.5 -37.5t-150.5 -107.5z" />
    <glyph glyph-name="ydieresis" unicode="&#xff;" horiz-adv-x="1157" 
d="M182 -446l258 471l-358 1015h194l277 -804l436 804h197l-805 -1486h-199zM340 1333q0 57 39 96t96 39q48 0 79.5 -30.5t31.5 -77.5q0 -61 -38.5 -99t-94.5 -38q-48 0 -80.5 31.5t-32.5 78.5zM750 1333q0 57 39 96t96 39q47 0 78.5 -30.5t31.5 -77.5q0 -61 -38.5 -99
t-94.5 -38q-47 0 -79.5 31.5t-32.5 78.5z" />
    <glyph glyph-name="Amacron" unicode="&#x100;" horiz-adv-x="1431" 
d="M-25 0l736 1434h202l433 -1434h-195l-111 379h-675l-191 -379h-199zM449 543h542l-200 680zM551 1645l14 147h570l-15 -147h-569z" />
    <glyph glyph-name="amacron" unicode="&#x101;" horiz-adv-x="1292" 
d="M561 -25q-203 0 -338 135.5t-135 346.5q0 121 45.5 233t122.5 194.5t185 131.5t227 49q97 0 182.5 -32.5t142.5 -92.5l11 100h180l-111 -1040h-180l10 96q-65 -58 -155.5 -89.5t-186.5 -31.5zM274 471q0 -151 91.5 -241.5t232.5 -90.5q88 0 175.5 37.5t150.5 106.5
l49 471q-50 71 -129 109t-168 38q-175 0 -288.5 -124t-113.5 -306zM465 1260l14 139h537l-15 -139h-536z" />
    <glyph glyph-name="Abreve" unicode="&#x102;" horiz-adv-x="1431" 
d="M-25 0l736 1434h202l433 -1434h-195l-111 379h-675l-191 -379h-199zM449 543h542l-200 680zM565 1872h156q-9 -84 23.5 -126t97.5 -42q63 0 103 42t50 126h156q-15 -145 -99 -220t-223 -75t-208 76.5t-56 218.5z" />
    <glyph glyph-name="abreve" unicode="&#x103;" horiz-adv-x="1292" 
d="M561 -25q-203 0 -338 135.5t-135 346.5q0 121 45.5 233t122.5 194.5t185 131.5t227 49q97 0 182.5 -32.5t142.5 -92.5l11 100h180l-111 -1040h-180l10 96q-65 -58 -155.5 -89.5t-186.5 -31.5zM274 471q0 -151 91.5 -241.5t232.5 -90.5q88 0 175.5 37.5t150.5 106.5
l49 471q-50 71 -129 109t-168 38q-175 0 -288.5 -124t-113.5 -306zM479 1481h148q-14 -158 112 -158q59 0 97.5 39.5t48.5 118.5h147q-15 -138 -95.5 -208.5t-209.5 -70.5q-131 0 -196 72.5t-52 206.5z" />
    <glyph glyph-name="Aogonek" unicode="&#x104;" horiz-adv-x="1431" 
d="M-25 0l736 1434h202l433 -1434q-93 -67 -143 -123.5t-50 -118.5q0 -71 92 -71q36 0 70 10l-17 -152q-48 -10 -98 -10q-103 0 -163 50t-60 134q0 88 58 161.5t155 119.5h-39l-111 379h-675l-191 -379h-199zM449 543h542l-200 680z" />
    <glyph glyph-name="aogonek" unicode="&#x105;" horiz-adv-x="1292" 
d="M561 -25q-203 0 -338 135.5t-135 346.5q0 121 45.5 233t122.5 194.5t185 131.5t227 49q97 0 182.5 -32.5t142.5 -92.5l11 100h180l-111 -1040q-86 -62 -134 -116t-48 -109q0 -70 88 -70q32 0 65 8l-16 -141q-45 -10 -90 -10q-97 0 -154 47.5t-57 126.5q0 83 54.5 152
t144.5 112h-33l10 96q-65 -58 -155.5 -89.5t-186.5 -31.5zM274 471q0 -151 91.5 -241.5t232.5 -90.5q88 0 175.5 37.5t150.5 106.5l49 471q-50 71 -129 109t-168 38q-175 0 -288.5 -124t-113.5 -306z" />
    <glyph glyph-name="Cacute" unicode="&#x106;" horiz-adv-x="1558" 
d="M786 -25q-190 0 -341.5 83t-236.5 233t-85 340q0 228 109 418t297.5 299.5t414.5 109.5q189 0 346.5 -91t241.5 -251l-168 -94q-61 128 -175 196t-263 68q-174 0 -314 -86t-217.5 -233.5t-77.5 -325.5q0 -224 138 -359t352 -135q150 0 278.5 70t214.5 195l150 -97
q-117 -161 -286 -250.5t-378 -89.5zM825 1577l179 303h241l-248 -303h-172z" />
    <glyph glyph-name="cacute" unicode="&#x107;" horiz-adv-x="1148" 
d="M582 -25q-218 0 -356 133.5t-138 342.5q0 168 79 309t216.5 223t302.5 82q136 0 248.5 -57.5t177.5 -163.5l-147 -109q-106 166 -289 166q-171 0 -285.5 -123.5t-114.5 -304.5q0 -149 91 -241.5t229 -92.5q95 0 183.5 45.5t156.5 128.5l131 -100q-88 -115 -213 -176.5
t-272 -61.5zM596 1202l168 287h229l-233 -287h-164z" />
    <glyph glyph-name="Ccircumflex" unicode="&#x108;" horiz-adv-x="1558" 
d="M786 -25q-190 0 -341.5 83t-236.5 233t-85 340q0 228 109 418t297.5 299.5t414.5 109.5q189 0 346.5 -91t241.5 -251l-168 -94q-61 128 -175 196t-263 68q-174 0 -314 -86t-217.5 -233.5t-77.5 -325.5q0 -224 138 -359t352 -135q150 0 278.5 70t214.5 195l150 -97
q-117 -161 -286 -250.5t-378 -89.5zM610 1577l287 303h168l221 -303h-176l-135 188l-176 -188h-189z" />
    <glyph glyph-name="ccircumflex" unicode="&#x109;" horiz-adv-x="1148" 
d="M582 -25q-218 0 -356 133.5t-138 342.5q0 168 79 309t216.5 223t302.5 82q136 0 248.5 -57.5t177.5 -163.5l-147 -109q-106 166 -289 166q-171 0 -285.5 -123.5t-114.5 -304.5q0 -149 91 -241.5t229 -92.5q95 0 183.5 45.5t156.5 128.5l131 -100q-88 -115 -213 -176.5
t-272 -61.5zM389 1202l270 287h160l209 -287h-166l-127 178l-168 -178h-178z" />
    <glyph glyph-name="Cdotaccent" unicode="&#x10a;" horiz-adv-x="1558" 
d="M786 -25q-190 0 -341.5 83t-236.5 233t-85 340q0 228 109 418t297.5 299.5t414.5 109.5q189 0 346.5 -91t241.5 -251l-168 -94q-61 128 -175 196t-263 68q-174 0 -314 -86t-217.5 -233.5t-77.5 -325.5q0 -224 138 -359t352 -135q150 0 278.5 70t214.5 195l150 -97
q-117 -161 -286 -250.5t-378 -89.5zM836 1716q0 60 40.5 101t100.5 41q52 0 84.5 -31.5t32.5 -83.5q0 -64 -40.5 -104t-99.5 -40q-51 0 -84.5 33t-33.5 84z" />
    <glyph glyph-name="cdotaccent" unicode="&#x10b;" horiz-adv-x="1148" 
d="M582 -25q-218 0 -356 133.5t-138 342.5q0 168 79 309t216.5 223t302.5 82q136 0 248.5 -57.5t177.5 -163.5l-147 -109q-106 166 -289 166q-171 0 -285.5 -123.5t-114.5 -304.5q0 -149 91 -241.5t229 -92.5q95 0 183.5 45.5t156.5 128.5l131 -100q-88 -115 -213 -176.5
t-272 -61.5zM600 1333q0 57 39 96t96 39q48 0 79.5 -30.5t31.5 -77.5q0 -61 -38.5 -99t-94.5 -38q-48 0 -80.5 31.5t-32.5 78.5z" />
    <glyph glyph-name="Ccaron" unicode="&#x10c;" horiz-adv-x="1558" 
d="M786 -25q-190 0 -341.5 83t-236.5 233t-85 340q0 228 109 418t297.5 299.5t414.5 109.5q189 0 346.5 -91t241.5 -251l-168 -94q-61 128 -175 196t-263 68q-174 0 -314 -86t-217.5 -233.5t-77.5 -325.5q0 -224 138 -359t352 -135q150 0 278.5 70t214.5 195l150 -97
q-117 -161 -286 -250.5t-378 -89.5zM643 1880h176l135 -188l176 188h189l-287 -303h-168z" />
    <glyph glyph-name="ccaron" unicode="&#x10d;" horiz-adv-x="1148" 
d="M582 -25q-218 0 -356 133.5t-138 342.5q0 168 79 309t216.5 223t302.5 82q136 0 248.5 -57.5t177.5 -163.5l-147 -109q-106 166 -289 166q-171 0 -285.5 -123.5t-114.5 -304.5q0 -149 91 -241.5t229 -92.5q95 0 183.5 45.5t156.5 128.5l131 -100q-88 -115 -213 -176.5
t-272 -61.5zM420 1489h166l127 -178l168 178h178l-271 -287h-159z" />
    <glyph glyph-name="Dcaron" unicode="&#x10e;" horiz-adv-x="1480" 
d="M139 0l152 1434h446q190 0 340 -75.5t236 -219.5t86 -334q0 -174 -60 -324t-166.5 -255.5t-258 -165.5t-328.5 -60h-447zM346 172h238q287 0 454.5 169t167.5 458q0 225 -133.5 344t-374.5 119h-237zM471 1866h176l135 -189l176 189h189l-287 -303h-168z" />
    <glyph glyph-name="dcaron" unicode="&#x10f;" horiz-adv-x="1531" 
d="M893 0l10 96q-65 -58 -155.5 -89.5t-186.5 -31.5q-203 0 -338 135.5t-135 346.5q0 164 77 303.5t211 222t294 82.5q96 0 182 -32.5t141 -90.5l60 569h180l-160 -1511h-180zM274 471q0 -151 91.5 -241.5t232.5 -90.5q88 0 174.5 37.5t151.5 106.5l49 473
q-48 70 -126.5 107.5t-168.5 37.5q-174 0 -289 -123.5t-115 -306.5zM1389 1079q72 58 105 105.5t36 95.5q-20 -4 -33 -4q-46 0 -75 31.5t-29 78.5q0 56 39.5 90.5t93.5 34.5q58 0 95.5 -43t37.5 -114q0 -97 -58.5 -185.5t-156.5 -156.5z" />
    <glyph glyph-name="Dcroat" unicode="&#x110;" horiz-adv-x="1511" 
d="M170 0l70 668h-164l16 151h164l66 615h446q190 0 340 -75.5t236 -219.5t86 -334q0 -233 -103 -416.5t-289 -286t-422 -102.5h-446zM377 172h237q287 0 455 169t168 458q0 225 -133.5 344t-374.5 119h-237l-48 -443h373l-16 -151h-373z" />
    <glyph glyph-name="dcroat" unicode="&#x111;" horiz-adv-x="1292" 
d="M893 0l10 96q-65 -58 -155.5 -89.5t-186.5 -31.5q-205 0 -339 135.5t-134 344.5q0 122 46.5 231.5t125 187.5t185.5 124t223 46q94 0 180 -32.5t141 -91.5l31 276h-336l14 135h336l19 180h180l-19 -180h189l-14 -135h-189l-127 -1196h-180zM272 463q0 -147 91.5 -235.5
t234.5 -88.5q88 0 174.5 37.5t151.5 106.5l47 452q-48 71 -126.5 108.5t-168.5 37.5q-172 0 -288 -121t-116 -297z" />
    <glyph glyph-name="Emacron" unicode="&#x112;" horiz-adv-x="1310" 
d="M139 0l152 1434h983l-19 -172h-794l-45 -426h702l-18 -172h-703l-51 -492h795l-19 -172h-983zM520 1645l15 147h569l-14 -147h-570z" />
    <glyph glyph-name="emacron" unicode="&#x113;" horiz-adv-x="1249" 
d="M584 -25q-226 0 -361 127.5t-135 339.5q0 173 78 315.5t217 225t309 82.5q207 0 337 -122t130 -322q0 -72 -18 -142h-871v-22q0 -153 87 -237.5t239 -84.5q214 0 362 176l127 -98q-89 -114 -217 -176t-284 -62zM299 635h682q-6 133 -84 203.5t-213 70.5
q-142 0 -242 -74.5t-143 -199.5zM446 1260l15 139h536l-14 -139h-537z" />
    <glyph glyph-name="Ebreve" unicode="&#x114;" horiz-adv-x="1310" 
d="M139 0l152 1434h983l-19 -172h-794l-45 -426h702l-18 -172h-703l-51 -492h795l-19 -172h-983zM535 1872h155q-9 -84 23.5 -126t97.5 -42q63 0 103.5 42t50.5 126h155q-15 -145 -98.5 -220t-222.5 -75t-208 76.5t-56 218.5z" />
    <glyph glyph-name="ebreve" unicode="&#x115;" horiz-adv-x="1249" 
d="M584 -25q-226 0 -361 127.5t-135 339.5q0 173 78 315.5t217 225t309 82.5q207 0 337 -122t130 -322q0 -72 -18 -142h-871v-22q0 -153 87 -237.5t239 -84.5q214 0 362 176l127 -98q-89 -114 -217 -176t-284 -62zM299 635h682q-6 133 -84 203.5t-213 70.5
q-142 0 -242 -74.5t-143 -199.5zM461 1481h147q-14 -158 113 -158q59 0 97 39.5t48 118.5h148q-15 -138 -95.5 -208.5t-209.5 -70.5q-131 0 -196 72.5t-52 206.5z" />
    <glyph glyph-name="Edotaccent" unicode="&#x116;" horiz-adv-x="1310" 
d="M139 0l152 1434h983l-19 -172h-794l-45 -426h702l-18 -172h-703l-51 -492h795l-19 -172h-983zM684 1716q0 60 40.5 101t100.5 41q52 0 84.5 -31.5t32.5 -83.5q0 -64 -40 -104t-99 -40q-51 0 -85 33t-34 84z" />
    <glyph glyph-name="edotaccent" unicode="&#x117;" horiz-adv-x="1249" 
d="M584 -25q-226 0 -361 127.5t-135 339.5q0 173 78 315.5t217 225t309 82.5q207 0 337 -122t130 -322q0 -72 -18 -142h-871v-22q0 -153 87 -237.5t239 -84.5q214 0 362 176l127 -98q-89 -114 -217 -176t-284 -62zM299 635h682q-6 133 -84 203.5t-213 70.5
q-142 0 -242 -74.5t-143 -199.5zM600 1333q0 57 39 96t96 39q48 0 79.5 -30.5t31.5 -77.5q0 -61 -38.5 -99t-94.5 -38q-48 0 -80.5 31.5t-32.5 78.5z" />
    <glyph glyph-name="Eogonek" unicode="&#x118;" horiz-adv-x="1310" 
d="M139 0l152 1434h983l-19 -172h-794l-45 -426h702l-18 -172h-703l-51 -492h795l-19 -172q-93 -66 -142.5 -123t-49.5 -119q0 -71 92 -71q36 0 70 10l-17 -152q-48 -10 -98 -10q-103 0 -163 50t-60 134q0 88 58 161.5t155 119.5h-828z" />
    <glyph glyph-name="eogonek" unicode="&#x119;" horiz-adv-x="1249" 
d="M584 -25q-226 0 -361 127.5t-135 339.5q0 173 78 315.5t217 225t309 82.5q207 0 337 -122t130 -322q0 -72 -18 -142h-871v-22q0 -153 87 -237.5t239 -84.5q214 0 362 176l127 -98q-120 -151 -290 -205q-86 -63 -134.5 -116.5t-48.5 -108.5q0 -70 88 -70q33 0 66 8
l-16 -141q-45 -10 -91 -10q-97 0 -153.5 47.5t-56.5 126.5q0 135 141 231h-6zM299 635h682q-6 133 -84 203.5t-213 70.5q-142 0 -242 -74.5t-143 -199.5z" />
    <glyph glyph-name="Ecaron" unicode="&#x11a;" horiz-adv-x="1310" 
d="M139 0l152 1434h983l-19 -172h-794l-45 -426h702l-18 -172h-703l-51 -492h795l-19 -172h-983zM492 1880h176l135 -188l176 188h188l-286 -303h-168z" />
    <glyph glyph-name="ecaron" unicode="&#x11b;" horiz-adv-x="1249" 
d="M584 -25q-226 0 -361 127.5t-135 339.5q0 173 78 315.5t217 225t309 82.5q207 0 337 -122t130 -322q0 -72 -18 -142h-871v-22q0 -153 87 -237.5t239 -84.5q214 0 362 176l127 -98q-89 -114 -217 -176t-284 -62zM299 635h682q-6 133 -84 203.5t-213 70.5
q-142 0 -242 -74.5t-143 -199.5zM420 1489h166l127 -178l168 178h178l-271 -287h-159z" />
    <glyph glyph-name="Gcircumflex" unicode="&#x11c;" horiz-adv-x="1611" 
d="M803 -25q-307 0 -494.5 177t-187.5 464q0 175 63 331.5t171.5 268t259 177t319.5 65.5q172 0 319 -69.5t238 -198.5l-162 -109q-64 99 -170.5 152t-234.5 53q-176 0 -316 -86.5t-217.5 -235t-77.5 -329.5q0 -228 140 -358t374 -130q243 0 426 127l39 363h-383l19 170h563
l-68 -635q-276 -197 -620 -197zM600 1577l287 303h168l221 -303h-176l-135 188l-177 -188h-188z" />
    <glyph glyph-name="gcircumflex" unicode="&#x11d;" horiz-adv-x="1292" 
d="M512 -471q-143 0 -267.5 51t-205.5 144l121 129q90 -85 177 -122.5t185 -37.5q160 0 259 85t114 234l10 101q-65 -58 -154.5 -89.5t-185.5 -31.5q-203 0 -339 136.5t-136 344.5q0 121 46.5 230.5t124.5 188.5t185 126t222 47q96 0 181.5 -33t143.5 -94l11 102h180
l-109 -1028q-25 -228 -172 -355.5t-391 -127.5zM274 483q0 -148 91.5 -237.5t232.5 -89.5q89 0 176.5 37.5t151.5 107.5l47 453q-48 71 -127 109t-168 38q-171 0 -287.5 -122t-116.5 -296zM385 1202l270 287h160l209 -287h-166l-127 178l-168 -178h-178z" />
    <glyph glyph-name="Gbreve" unicode="&#x11e;" horiz-adv-x="1611" 
d="M803 -25q-307 0 -494.5 177t-187.5 464q0 175 63 331.5t171.5 268t259 177t319.5 65.5q172 0 319 -69.5t238 -198.5l-162 -109q-64 99 -170.5 152t-234.5 53q-176 0 -316 -86.5t-217.5 -235t-77.5 -329.5q0 -228 140 -358t374 -130q243 0 426 127l39 363h-383l19 170h563
l-68 -635q-276 -197 -620 -197zM676 1872h155q-9 -84 23.5 -126t97.5 -42q63 0 103.5 42t50.5 126h156q-15 -145 -99 -220t-223 -75t-208 76.5t-56 218.5z" />
    <glyph glyph-name="gbreve" unicode="&#x11f;" horiz-adv-x="1292" 
d="M512 -471q-143 0 -267.5 51t-205.5 144l121 129q90 -85 177 -122.5t185 -37.5q160 0 259 85t114 234l10 101q-65 -58 -154.5 -89.5t-185.5 -31.5q-203 0 -339 136.5t-136 344.5q0 121 46.5 230.5t124.5 188.5t185 126t222 47q96 0 181.5 -33t143.5 -94l11 102h180
l-109 -1028q-25 -228 -172 -355.5t-391 -127.5zM274 483q0 -148 91.5 -237.5t232.5 -89.5q89 0 176.5 37.5t151.5 107.5l47 453q-48 71 -127 109t-168 38q-171 0 -287.5 -122t-116.5 -296zM457 1481h147q-14 -158 113 -158q59 0 97 39.5t48 118.5h148q-15 -138 -95.5 -208.5
t-209.5 -70.5q-131 0 -196 72.5t-52 206.5z" />
    <glyph glyph-name="Gdotaccent" unicode="&#x120;" horiz-adv-x="1611" 
d="M803 -25q-307 0 -494.5 177t-187.5 464q0 175 63 331.5t171.5 268t259 177t319.5 65.5q172 0 319 -69.5t238 -198.5l-162 -109q-64 99 -170.5 152t-234.5 53q-176 0 -316 -86.5t-217.5 -235t-77.5 -329.5q0 -228 140 -358t374 -130q243 0 426 127l39 363h-383l19 170h563
l-68 -635q-276 -197 -620 -197zM825 1716q0 60 41 101t101 41q51 0 83.5 -31.5t32.5 -83.5q0 -64 -40 -104t-99 -40q-51 0 -85 33t-34 84z" />
    <glyph glyph-name="gdotaccent" unicode="&#x121;" horiz-adv-x="1292" 
d="M512 -471q-143 0 -267.5 51t-205.5 144l121 129q90 -85 177 -122.5t185 -37.5q160 0 259 85t114 234l10 101q-65 -58 -154.5 -89.5t-185.5 -31.5q-203 0 -339 136.5t-136 344.5q0 121 46.5 230.5t124.5 188.5t185 126t222 47q96 0 181.5 -33t143.5 -94l11 102h180
l-109 -1028q-25 -228 -172 -355.5t-391 -127.5zM274 483q0 -148 91.5 -237.5t232.5 -89.5q89 0 176.5 37.5t151.5 107.5l47 453q-48 71 -127 109t-168 38q-171 0 -287.5 -122t-116.5 -296zM596 1333q0 57 39 96t96 39q48 0 79.5 -30.5t31.5 -77.5q0 -61 -38.5 -99t-94.5 -38
q-48 0 -80.5 31.5t-32.5 78.5z" />
    <glyph glyph-name="uni0122" unicode="&#x122;" horiz-adv-x="1611" 
d="M803 -25q-307 0 -494.5 177t-187.5 464q0 175 63 331.5t171.5 268t259 177t319.5 65.5q172 0 319 -69.5t238 -198.5l-162 -109q-64 99 -170.5 152t-234.5 53q-176 0 -316 -86.5t-217.5 -235t-77.5 -329.5q0 -228 140 -358t374 -130q243 0 426 127l39 363h-383l19 170h563
l-68 -635q-276 -197 -620 -197zM608 -283q0 54 40 87.5t93 33.5q57 0 95 -39.5t38 -105.5q0 -50 -22 -110.5t-55 -102.5h-115q57 72 63 137q-20 -4 -32 -4q-47 0 -76 29t-29 75z" />
    <glyph glyph-name="uni0123" unicode="&#x123;" horiz-adv-x="1292" 
d="M512 -471q-143 0 -267.5 51t-205.5 144l121 129q90 -85 177 -122.5t185 -37.5q160 0 259 85t114 234l10 101q-65 -58 -154.5 -89.5t-185.5 -31.5q-203 0 -339 136.5t-136 344.5q0 121 46.5 230.5t124.5 188.5t185 126t222 47q96 0 181.5 -33t143.5 -94l11 102h180
l-109 -1028q-25 -228 -172 -355.5t-391 -127.5zM274 483q0 -148 91.5 -237.5t232.5 -89.5q89 0 176.5 37.5t151.5 107.5l47 453q-48 71 -127 109t-168 38q-171 0 -287.5 -122t-116.5 -296zM586 1348q0 50 22.5 110.5t55.5 102.5h114q-57 -72 -63 -138q20 4 33 4
q47 0 75.5 -29t28.5 -75q0 -54 -40 -87.5t-93 -33.5q-57 0 -95 40t-38 106z" />
    <glyph glyph-name="Hcircumflex" unicode="&#x124;" horiz-adv-x="1564" 
d="M139 0l152 1434h188l-65 -607h798l66 607h188l-151 -1434h-189l70 655h-799l-69 -655h-189zM555 1577l287 303h168l221 -303h-176l-135 188l-177 -188h-188z" />
    <glyph glyph-name="hcircumflex" unicode="&#x125;" horiz-adv-x="1247" 
d="M920 582q17 156 -45 237.5t-187 81.5q-83 0 -167 -36.5t-152 -108.5l-80 -756h-180l159 1511h181l-62 -573q149 127 352 127q184 0 286 -118t79 -326l-66 -621h-180zM35 1655l287 303h167l222 -303h-176l-136 188l-176 -188h-188z" />
    <glyph glyph-name="Hbar" unicode="&#x126;" horiz-adv-x="1617" 
d="M166 0l110 1042h-129l15 144h129l26 248h189l-27 -248h799l27 248h188l-27 -248h129l-14 -144h-129l-111 -1042h-188l70 655h-799l-70 -655h-188zM440 827h799l25 215h-799z" />
    <glyph glyph-name="hbar" unicode="&#x127;" horiz-adv-x="1247" 
d="M918 561q17 155 -46 237.5t-188 82.5q-83 0 -166 -36.5t-151 -109.5l-78 -735h-180l127 1196h-189l14 135h189l18 180h181l-19 -180h336l-14 -135h-336l-31 -278q70 61 162.5 93.5t191.5 32.5q183 0 284.5 -118t78.5 -326l-64 -600h-180z" />
    <glyph glyph-name="Itilde" unicode="&#x128;" horiz-adv-x="577" 
d="M139 0l152 1434h188l-151 -1434h-189zM55 1665q21 99 83.5 152t146.5 53q36 0 71 -13.5t53.5 -26t47.5 -36.5q23 -19 34.5 -27.5t30 -17t35.5 -8.5q63 0 92 100l127 -41q-21 -99 -84 -152t-147 -53q-36 0 -71 13.5t-53.5 26t-47.5 36.5q-23 19 -35 27.5t-30.5 17
t-35.5 8.5q-63 0 -92 -100z" />
    <glyph glyph-name="itilde" unicode="&#x129;" horiz-adv-x="507" 
d="M109 0l110 1040h180l-110 -1040h-180zM18 1276q21 90 77.5 141t127.5 51q77 0 148 -71q53 -49 88 -49q60 0 88 94l115 -37q-21 -90 -76.5 -141.5t-126.5 -51.5q-78 0 -150 72q-49 49 -88 49q-60 0 -88 -94z" />
    <glyph glyph-name="Imacron" unicode="&#x12a;" horiz-adv-x="577" 
d="M139 0l152 1434h188l-151 -1434h-189zM123 1645l14 147h570l-15 -147h-569z" />
    <glyph glyph-name="imacron" unicode="&#x12b;" horiz-adv-x="507" 
d="M109 0l110 1040h180l-110 -1040h-180zM82 1262l14 139h500l-14 -139h-500z" />
    <glyph glyph-name="Ibreve" unicode="&#x12c;" horiz-adv-x="577" 
d="M139 0l152 1434h188l-151 -1434h-189zM137 1872h156q-9 -84 23.5 -126t97.5 -42q63 0 103 42t50 126h156q-15 -145 -99 -220t-223 -75t-208 76.5t-56 218.5z" />
    <glyph glyph-name="ibreve" unicode="&#x12d;" horiz-adv-x="507" 
d="M109 0l110 1040h180l-110 -1040h-180zM94 1481h137q-7 -79 21.5 -118.5t85.5 -39.5q58 0 95 39.5t44 118.5h137q-15 -139 -87.5 -209t-194.5 -70q-123 0 -185.5 72t-52.5 207z" />
    <glyph glyph-name="Iogonek" unicode="&#x12e;" horiz-adv-x="577" 
d="M139 0l152 1434h188l-151 -1434q-76 -69 -115 -121.5t-39 -105.5q0 -68 72 -68q22 0 53 8l-16 -141q-42 -10 -80 -10q-87 0 -139 47t-52 123q0 77 55 150t138 118h-66z" />
    <glyph glyph-name="iogonek" unicode="&#x12f;" horiz-adv-x="507" 
d="M109 0l110 1040h180l-110 -1040q-76 -69 -115 -121.5t-39 -105.5q0 -68 72 -68q22 0 53 8l-16 -141q-42 -10 -80 -10q-87 0 -139 47t-52 123q0 77 55 150t138 118h-57zM217 1333q0 57 39 96t96 39q48 0 79.5 -30.5t31.5 -77.5q0 -61 -38.5 -99t-94.5 -38
q-48 0 -80.5 31.5t-32.5 78.5z" />
    <glyph glyph-name="Idotaccent" unicode="&#x130;" horiz-adv-x="577" 
d="M139 0l152 1434h188l-151 -1434h-189zM287 1716q0 60 40.5 101t100.5 41q52 0 84.5 -31.5t32.5 -83.5q0 -64 -40 -104t-99 -40q-51 0 -85 33t-34 84z" />
    <glyph glyph-name="dotlessi" unicode="&#x131;" horiz-adv-x="507" 
d="M109 0l110 1040h180l-110 -1040h-180z" />
    <glyph glyph-name="Jcircumflex" unicode="&#x134;" horiz-adv-x="1173" 
d="M453 -25q-231 0 -428 146l102 149q176 -123 340 -123q138 0 229.5 86t108.5 248l100 953h189l-103 -965q-25 -242 -162 -368t-376 -126zM676 1577l287 303h167l222 -303h-176l-136 188l-176 -188h-188z" />
    <glyph glyph-name="jcircumflex" unicode="&#x135;" horiz-adv-x="507" 
d="M-90 -471q-98 0 -174 33l45 157q64 -22 123 -22q174 0 196 215l119 1128h180l-120 -1153q-20 -181 -111.5 -269.5t-257.5 -88.5zM33 1202l250 287h143l188 -287h-159l-109 172l-145 -172h-168z" />
    <glyph glyph-name="uni0136" unicode="&#x136;" horiz-adv-x="1456" 
d="M139 0l152 1434h188l-82 -783l842 783h240l-703 -656l592 -778h-235l-496 649l-266 -248l-43 -401h-189zM516 -283q0 54 40 87.5t93 33.5q57 0 95 -39.5t38 -105.5q0 -50 -22 -110.5t-55 -102.5h-115q57 72 63 137q-20 -4 -32 -4q-47 0 -76 29t-29 75z" />
    <glyph glyph-name="uni0137" unicode="&#x137;" horiz-adv-x="1200" 
d="M109 0l159 1511h181l-105 -989l610 518h236l-526 -452l456 -588h-221l-369 473l-211 -182l-30 -291h-180zM381 -283q0 54 40 87.5t93 33.5q57 0 95 -39.5t38 -105.5q0 -50 -22.5 -110.5t-55.5 -102.5h-114q57 72 63 137q-20 -4 -33 -4q-47 0 -75.5 29t-28.5 75z" />
    <glyph glyph-name="Lacute" unicode="&#x139;" horiz-adv-x="1189" 
d="M139 0l152 1434h188l-133 -1262h729l-18 -172h-918zM276 1577l179 303h241l-247 -303h-173z" />
    <glyph glyph-name="lacute" unicode="&#x13a;" horiz-adv-x="507" 
d="M109 0l159 1511h181l-160 -1511h-180zM250 1655l178 303h242l-248 -303h-172z" />
    <glyph glyph-name="uni013B" unicode="&#x13b;" horiz-adv-x="1189" 
d="M139 0l152 1434h188l-133 -1262h729l-18 -172h-918zM434 -283q0 54 40 87.5t93 33.5q57 0 95 -39.5t38 -105.5q0 -50 -22 -110.5t-55 -102.5h-115q57 72 63 137q-20 -4 -32 -4q-47 0 -76 29t-29 75z" />
    <glyph glyph-name="uni013C" unicode="&#x13c;" horiz-adv-x="507" 
d="M109 0l159 1511h181l-160 -1511h-180zM35 -283q0 54 40 87.5t93 33.5q57 0 95 -39.5t38 -105.5q0 -50 -22.5 -110.5t-55.5 -102.5h-114q57 72 63 137q-20 -4 -33 -4q-47 0 -75.5 29t-28.5 75z" />
    <glyph glyph-name="Lcaron" unicode="&#x13d;" horiz-adv-x="1189" 
d="M139 0l152 1434h188l-133 -1262h729l-18 -172h-918zM719 1026q72 58 105 105.5t36 95.5q-20 -4 -33 -4q-46 0 -75 31.5t-29 78.5q0 56 39.5 90.5t93.5 34.5q58 0 95.5 -43.5t37.5 -114.5q0 -97 -58.5 -185.5t-156.5 -156.5z" />
    <glyph glyph-name="lcaron" unicode="&#x13e;" horiz-adv-x="751" 
d="M109 0l159 1511h181l-160 -1511h-180zM608 1079q72 58 105.5 106t36.5 95q-20 -4 -33 -4q-46 0 -75.5 31.5t-29.5 78.5q0 56 39.5 90.5t93.5 34.5q58 0 96 -43t38 -114q0 -97 -58.5 -185.5t-156.5 -156.5z" />
    <glyph glyph-name="Ldot" unicode="&#x13f;" horiz-adv-x="1210" 
d="M139 0l152 1434h188l-133 -1262h729l-18 -172h-918zM641 700q0 64 41 104t102 40q49 0 82 -34t33 -81q0 -65 -40 -104t-101 -39q-52 0 -84.5 31.5t-32.5 82.5z" />
    <glyph glyph-name="ldot" unicode="&#x140;" horiz-adv-x="815" 
d="M109 0l159 1511h181l-160 -1511h-180zM530 528q0 63 41.5 103.5t102.5 40.5q49 0 81.5 -34t32.5 -81q0 -65 -40 -104t-101 -39q-52 0 -84.5 31.5t-32.5 82.5z" />
    <glyph glyph-name="Lslash" unicode="&#x141;" horiz-adv-x="1234" 
d="M184 0l54 514l-244 -166l20 182l244 164l78 740h188l-63 -603l411 279l-18 -182l-414 -279l-49 -477h729l-18 -172h-918z" />
    <glyph glyph-name="lslash" unicode="&#x142;" horiz-adv-x="679" 
d="M195 0l61 590l-238 -160l19 176l239 160l78 745h181l-66 -614l238 160l-19 -176l-237 -160l-76 -721h-180z" />
    <glyph glyph-name="Nacute" unicode="&#x143;" horiz-adv-x="1589" 
d="M139 0l152 1434h190l701 -1145l121 1145h188l-152 -1434h-190l-700 1147l-121 -1147h-189zM782 1577l179 303h241l-248 -303h-172z" />
    <glyph glyph-name="nacute" unicode="&#x144;" horiz-adv-x="1247" 
d="M920 582q17 156 -44.5 237.5t-187.5 81.5q-83 0 -167 -36.5t-152 -108.5l-80 -756h-180l110 1040h180l-10 -102q146 127 348 127q186 0 288 -118t79 -326l-66 -621h-180zM584 1202l168 287h229l-233 -287h-164z" />
    <glyph glyph-name="uni0145" unicode="&#x145;" horiz-adv-x="1589" 
d="M139 0l152 1434h190l701 -1145l121 1145h188l-152 -1434h-190l-700 1147l-121 -1147h-189zM575 -283q0 54 40.5 87.5t93.5 33.5q57 0 95 -39.5t38 -105.5q0 -50 -22.5 -110.5t-55.5 -102.5h-115q58 73 64 137q-20 -4 -33 -4q-47 0 -76 29t-29 75z" />
    <glyph glyph-name="uni0146" unicode="&#x146;" horiz-adv-x="1247" 
d="M920 582q17 156 -44.5 237.5t-187.5 81.5q-83 0 -167 -36.5t-152 -108.5l-80 -756h-180l110 1040h180l-10 -102q146 127 348 127q186 0 288 -118t79 -326l-66 -621h-180zM410 -283q0 54 40 87.5t93 33.5q57 0 95 -39.5t38 -105.5q0 -50 -22.5 -110.5t-55.5 -102.5h-115
q58 73 64 137q-20 -4 -33 -4q-47 0 -75.5 29t-28.5 75z" />
    <glyph glyph-name="Ncaron" unicode="&#x147;" horiz-adv-x="1589" 
d="M139 0l152 1434h190l701 -1145l121 1145h188l-152 -1434h-190l-700 1147l-121 -1147h-189zM600 1880h176l135 -188l176 188h189l-287 -303h-168z" />
    <glyph glyph-name="ncaron" unicode="&#x148;" horiz-adv-x="1247" 
d="M920 582q17 156 -44.5 237.5t-187.5 81.5q-83 0 -167 -36.5t-152 -108.5l-80 -756h-180l110 1040h180l-10 -102q146 127 348 127q186 0 288 -118t79 -326l-66 -621h-180zM408 1489h165l127 -178l168 178h179l-271 -287h-160z" />
    <glyph glyph-name="Eng" unicode="&#x14a;" horiz-adv-x="1589" 
d="M971 -377q-101 0 -174 33l47 166q71 -23 123 -23q77 0 125.5 47.5t58.5 139.5l2 24l-702 1143l-123 -1153h-189l152 1434h190l701 -1139l121 1139h188l-152 -1432q-39 -379 -368 -379z" />
    <glyph glyph-name="eng" unicode="&#x14b;" horiz-adv-x="1247" 
d="M672 -348q-98 0 -174 33l45 157q64 -22 123 -22q174 0 196 215l58 547q17 156 -45 237.5t-187 81.5q-83 0 -167 -36.5t-152 -108.5l-80 -756h-180l110 1040h180l-10 -102q70 61 162 94t190 33q185 0 285.5 -118t77.5 -326l-64 -611q-40 -358 -368 -358z" />
    <glyph glyph-name="Omacron" unicode="&#x14c;" horiz-adv-x="1687" 
d="M788 -25q-188 0 -339.5 82.5t-238.5 233t-87 340.5q0 169 63.5 322t172 264t259 176t318.5 65q188 0 341 -82.5t241 -233t88 -341.5q0 -225 -109 -415t-297 -300.5t-412 -110.5zM315 641q0 -222 138.5 -358t351.5 -136q173 0 313 86.5t217.5 234t77.5 325.5
q0 225 -135.5 359t-353.5 134q-173 0 -313.5 -86.5t-218 -233.5t-77.5 -325zM678 1645l14 147h570l-15 -147h-569z" />
    <glyph glyph-name="omacron" unicode="&#x14d;" horiz-adv-x="1282" 
d="M590 -25q-218 0 -359 137t-141 349q0 164 78.5 302.5t217 220t306.5 81.5q217 0 358.5 -136.5t141.5 -348.5q0 -164 -78.5 -303t-217 -220.5t-306.5 -81.5zM276 473q0 -147 89.5 -240.5t234.5 -93.5q172 0 289 125t117 303q0 147 -89.5 240.5t-234.5 93.5
q-172 0 -289 -125t-117 -303zM451 1260l14 139h536l-14 -139h-536z" />
    <glyph glyph-name="Obreve" unicode="&#x14e;" horiz-adv-x="1687" 
d="M788 -25q-188 0 -339.5 82.5t-238.5 233t-87 340.5q0 169 63.5 322t172 264t259 176t318.5 65q188 0 341 -82.5t241 -233t88 -341.5q0 -225 -109 -415t-297 -300.5t-412 -110.5zM315 641q0 -222 138.5 -358t351.5 -136q173 0 313 86.5t217.5 234t77.5 325.5
q0 225 -135.5 359t-353.5 134q-173 0 -313.5 -86.5t-218 -233.5t-77.5 -325zM692 1872h156q-9 -84 23.5 -126t97.5 -42q63 0 103 42t50 126h156q-15 -145 -99 -220t-223 -75t-208 76.5t-56 218.5z" />
    <glyph glyph-name="obreve" unicode="&#x14f;" horiz-adv-x="1282" 
d="M590 -25q-218 0 -359 137t-141 349q0 164 78.5 302.5t217 220t306.5 81.5q217 0 358.5 -136.5t141.5 -348.5q0 -164 -78.5 -303t-217 -220.5t-306.5 -81.5zM276 473q0 -147 89.5 -240.5t234.5 -93.5q172 0 289 125t117 303q0 147 -89.5 240.5t-234.5 93.5
q-172 0 -289 -125t-117 -303zM465 1481h147q-14 -158 113 -158q59 0 97 39.5t48 118.5h148q-15 -138 -95.5 -208.5t-209.5 -70.5q-131 0 -196 72.5t-52 206.5z" />
    <glyph glyph-name="Ohungarumlaut" unicode="&#x150;" horiz-adv-x="1687" 
d="M788 -25q-188 0 -339.5 82.5t-238.5 233t-87 340.5q0 169 63.5 322t172 264t259 176t318.5 65q188 0 341 -82.5t241 -233t88 -341.5q0 -225 -109 -415t-297 -300.5t-412 -110.5zM315 641q0 -222 138.5 -358t351.5 -136q173 0 313 86.5t217.5 234t77.5 325.5
q0 225 -135.5 359t-353.5 134q-173 0 -313.5 -86.5t-218 -233.5t-77.5 -325zM662 1577l159 303h197l-213 -303h-143zM1001 1577l162 303h195l-213 -303h-144z" />
    <glyph glyph-name="ohungarumlaut" unicode="&#x151;" horiz-adv-x="1282" 
d="M590 -25q-218 0 -359 137t-141 349q0 164 78.5 302.5t217 220t306.5 81.5q217 0 358.5 -136.5t141.5 -348.5q0 -164 -78.5 -303t-217 -220.5t-306.5 -81.5zM276 473q0 -147 89.5 -240.5t234.5 -93.5q172 0 289 125t117 303q0 147 -89.5 240.5t-234.5 93.5
q-172 0 -289 -125t-117 -303zM438 1202l152 287h184l-201 -287h-135zM760 1202l151 287h185l-201 -287h-135z" />
    <glyph glyph-name="OE" unicode="&#x152;" horiz-adv-x="2201" 
d="M784 0q-296 0 -478.5 168.5t-182.5 454.5q0 177 60 328t166.5 257t258 166t328.5 60h1229l-19 -172h-794l-45 -426h702l-18 -172h-703l-51 -492h795l-19 -172h-1229zM315 635q0 -224 135 -343.5t373 -119.5h226l114 1090h-225q-287 0 -455 -169t-168 -458z" />
    <glyph glyph-name="oe" unicode="&#x153;" horiz-adv-x="2160" 
d="M600 139q172 0 289 125t117 303q0 147 -89.5 240.5t-234.5 93.5q-172 0 -289 -124t-117 -300q0 -151 89 -244.5t235 -93.5zM90 467q0 122 47 233t127 191t191 127t233 47q144 0 257.5 -62.5t180.5 -173.5q85 111 208.5 173.5t269.5 62.5q208 0 337.5 -122t129.5 -320
q0 -74 -19 -144h-870v-20q0 -153 90 -238.5t244 -85.5q214 0 362 176l127 -98q-87 -114 -217 -176t-285 -62q-151 0 -267 61t-179 167q-82 -107 -201 -167.5t-264 -60.5q-223 0 -362.5 137t-139.5 355zM1210 635h682q-6 133 -84 203.5t-213 70.5q-142 0 -242 -74.5
t-143 -199.5z" />
    <glyph glyph-name="Racute" unicode="&#x154;" horiz-adv-x="1419" 
d="M139 0l152 1434h565q206 0 329.5 -102t123.5 -279q0 -200 -113.5 -322t-312.5 -149l379 -582h-226l-366 573h-281l-61 -573h-189zM406 745h358q352 0 352 299q0 218 -299 218h-356zM688 1577l178 303h242l-248 -303h-172z" />
    <glyph glyph-name="racute" unicode="&#x155;" horiz-adv-x="804" 
d="M109 0l110 1040h180l-14 -127q57 71 140.5 111.5t174.5 40.5q55 0 107 -14l-23 -166q-52 12 -100 12q-98 0 -180 -47t-139 -137l-76 -713h-180zM412 1202l168 287h229l-234 -287h-163z" />
    <glyph glyph-name="uni0156" unicode="&#x156;" horiz-adv-x="1419" 
d="M139 0l152 1434h565q206 0 329.5 -102t123.5 -279q0 -200 -113.5 -322t-312.5 -149l379 -582h-226l-366 573h-281l-61 -573h-189zM406 745h358q352 0 352 299q0 218 -299 218h-356zM492 -283q0 54 40 87.5t93 33.5q57 0 95 -39.5t38 -105.5q0 -50 -22.5 -110.5
t-55.5 -102.5h-115q58 73 64 137q-20 -4 -33 -4q-47 0 -75.5 29t-28.5 75z" />
    <glyph glyph-name="uni0157" unicode="&#x157;" horiz-adv-x="804" 
d="M109 0l110 1040h180l-14 -127q57 71 140.5 111.5t174.5 40.5q55 0 107 -14l-23 -166q-52 12 -100 12q-98 0 -180 -47t-139 -137l-76 -713h-180zM35 -283q0 54 40 87.5t93 33.5q57 0 95 -39.5t38 -105.5q0 -50 -22.5 -110.5t-55.5 -102.5h-114q57 72 63 137q-20 -4 -33 -4
q-47 0 -75.5 29t-28.5 75z" />
    <glyph glyph-name="Rcaron" unicode="&#x158;" horiz-adv-x="1419" 
d="M139 0l152 1434h565q206 0 329.5 -102t123.5 -279q0 -200 -113.5 -322t-312.5 -149l379 -582h-226l-366 573h-281l-61 -573h-189zM406 745h358q352 0 352 299q0 218 -299 218h-356zM506 1880h176l135 -188l176 188h189l-287 -303h-168z" />
    <glyph glyph-name="rcaron" unicode="&#x159;" horiz-adv-x="804" 
d="M109 0l110 1040h180l-14 -127q57 71 140.5 111.5t174.5 40.5q55 0 107 -14l-23 -166q-52 12 -100 12q-98 0 -180 -47t-139 -137l-76 -713h-180zM264 1489h160l108 -172l146 172h168l-250 -287h-143z" />
    <glyph glyph-name="Sacute" unicode="&#x15a;" horiz-adv-x="1226" 
d="M578 -25q-152 0 -290 48.5t-237 138.5l113 147q194 -164 424 -164q154 0 255 74.5t101 196.5q0 146 -203 198l-290 72q-140 34 -219.5 121t-79.5 207q0 133 73 235t195 155.5t272 53.5q146 0 275 -51.5t215 -144.5l-131 -134q-136 160 -367 160q-148 0 -244 -69t-96 -185
q0 -69 51 -116t162 -74l289 -72q139 -34 216 -120.5t77 -211.5q0 -216 -156.5 -340.5t-404.5 -124.5zM602 1577l178 303h242l-248 -303h-172z" />
    <glyph glyph-name="sacute" unicode="&#x15b;" horiz-adv-x="1038" 
d="M494 -25q-133 0 -252 44.5t-191 121.5l119 135q66 -68 154.5 -103.5t183.5 -35.5q108 0 174 46t66 116q0 94 -164 133l-178 41q-141 33 -205 95.5t-64 156.5q0 152 119.5 246t300.5 94q127 0 237 -43.5t177 -122.5l-125 -125q-117 129 -303 129q-100 0 -164 -40.5
t-64 -112.5q0 -43 37.5 -72t132.5 -51l177 -41q266 -62 266 -256q0 -167 -120 -261t-314 -94zM477 1198l168 287h229l-233 -287h-164z" />
    <glyph glyph-name="Scircumflex" unicode="&#x15c;" horiz-adv-x="1226" 
d="M578 -25q-152 0 -290 48.5t-237 138.5l113 147q194 -164 424 -164q154 0 255 74.5t101 196.5q0 146 -203 198l-290 72q-140 34 -219.5 121t-79.5 207q0 133 73 235t195 155.5t272 53.5q146 0 275 -51.5t215 -144.5l-131 -134q-136 160 -367 160q-148 0 -244 -69t-96 -185
q0 -69 51 -116t162 -74l289 -72q139 -34 216 -120.5t77 -211.5q0 -216 -156.5 -340.5t-404.5 -124.5zM387 1577l287 303h168l221 -303h-176l-135 188l-177 -188h-188z" />
    <glyph glyph-name="scircumflex" unicode="&#x15d;" horiz-adv-x="1038" 
d="M494 -25q-133 0 -252 44.5t-191 121.5l119 135q66 -68 154.5 -103.5t183.5 -35.5q108 0 174 46t66 116q0 94 -164 133l-178 41q-141 33 -205 95.5t-64 156.5q0 152 119.5 246t300.5 94q127 0 237 -43.5t177 -122.5l-125 -125q-117 129 -303 129q-100 0 -164 -40.5
t-64 -112.5q0 -43 37.5 -72t132.5 -51l177 -41q266 -62 266 -256q0 -167 -120 -261t-314 -94zM270 1198l271 287h159l209 -287h-166l-127 178l-167 -178h-179z" />
    <glyph glyph-name="Scedilla" unicode="&#x15e;" horiz-adv-x="1226" 
d="M264 -375l228 355q-264 25 -441 182l113 147q194 -164 424 -164q154 0 255 74.5t101 196.5q0 146 -203 198l-290 72q-140 34 -219.5 121t-79.5 207q0 133 73 235t195 155.5t272 53.5q146 0 275 -51.5t215 -144.5l-131 -134q-136 160 -367 160q-148 0 -244 -69t-96 -185
q0 -69 51 -116t162 -74l289 -72q139 -34 216 -120.5t77 -211.5q0 -199 -134.5 -320.5t-353.5 -139.5l-168 -355h-219z" />
    <glyph glyph-name="scedilla" unicode="&#x15f;" horiz-adv-x="1038" 
d="M199 -336l200 318q-224 29 -348 159l119 135q66 -68 154.5 -103.5t183.5 -35.5q108 0 174 46t66 116q0 94 -164 133l-178 41q-141 33 -205 95.5t-64 156.5q0 152 119.5 246t300.5 94q127 0 237 -43.5t177 -122.5l-125 -125q-117 129 -303 129q-100 0 -164 -40.5
t-64 -112.5q0 -43 37.5 -72t132.5 -51l177 -41q266 -62 266 -256q0 -153 -102.5 -246t-272.5 -107l-150 -313h-204z" />
    <glyph glyph-name="Scaron" unicode="&#x160;" horiz-adv-x="1226" 
d="M578 -25q-152 0 -290 48.5t-237 138.5l113 147q194 -164 424 -164q154 0 255 74.5t101 196.5q0 146 -203 198l-290 72q-140 34 -219.5 121t-79.5 207q0 133 73 235t195 155.5t272 53.5q146 0 275 -51.5t215 -144.5l-131 -134q-136 160 -367 160q-148 0 -244 -69t-96 -185
q0 -69 51 -116t162 -74l289 -72q139 -34 216 -120.5t77 -211.5q0 -216 -156.5 -340.5t-404.5 -124.5zM420 1880h176l135 -188l176 188h189l-287 -303h-168z" />
    <glyph glyph-name="scaron" unicode="&#x161;" horiz-adv-x="1038" 
d="M494 -25q-133 0 -252 44.5t-191 121.5l119 135q66 -68 154.5 -103.5t183.5 -35.5q108 0 174 46t66 116q0 94 -164 133l-178 41q-141 33 -205 95.5t-64 156.5q0 152 119.5 246t300.5 94q127 0 237 -43.5t177 -122.5l-125 -125q-117 129 -303 129q-100 0 -164 -40.5
t-64 -112.5q0 -43 37.5 -72t132.5 -51l177 -41q266 -62 266 -256q0 -167 -120 -261t-314 -94zM301 1485h166l127 -178l168 178h178l-270 -287h-160z" />
    <glyph glyph-name="uni0162" unicode="&#x162;" horiz-adv-x="1261" 
d="M481 0l133 1262h-487l18 172h1164l-19 -172h-487l-133 -1262h-189zM412 -283q0 54 40 87.5t93 33.5q57 0 95 -39.5t38 -105.5q0 -50 -22.5 -110.5t-55.5 -102.5h-115q58 73 64 137q-20 -4 -33 -4q-47 0 -75.5 29t-28.5 75z" />
    <glyph glyph-name="uni0163" unicode="&#x163;" horiz-adv-x="899" 
d="M565 -20q-173 0 -257.5 96t-63.5 289l55 520h-236l17 155h235l27 258h180l-26 -258h366l-16 -155h-367l-53 -502q-14 -126 25 -183t139 -57q88 0 176 33l37 -149q-111 -47 -238 -47zM291 -283q0 54 40 87.5t93 33.5q57 0 95 -39.5t38 -105.5q0 -50 -22.5 -110.5
t-55.5 -102.5h-114q57 72 63 137q-20 -4 -33 -4q-47 0 -75.5 29t-28.5 75z" />
    <glyph glyph-name="Tcaron" unicode="&#x164;" horiz-adv-x="1261" 
d="M481 0l133 1262h-487l18 172h1164l-19 -172h-487l-133 -1262h-189zM436 1880h176l136 -188l176 188h188l-287 -303h-168z" />
    <glyph glyph-name="tcaron" unicode="&#x165;" horiz-adv-x="899" 
d="M565 -20q-173 0 -257.5 96t-63.5 289l55 520h-236l17 155h235l27 258h180l-26 -258h366l-16 -155h-367l-53 -502q-14 -126 25 -183t139 -57q88 0 176 33l37 -149q-111 -47 -238 -47zM664 1489q0 50 36 79t84 29q51 0 86 -35.5t35 -95.5q0 -45 -20.5 -100t-50.5 -92h-105
q54 67 57 125q-16 -4 -28 -4q-42 0 -68 26t-26 68z" />
    <glyph glyph-name="Tbar" unicode="&#x166;" horiz-adv-x="1261" 
d="M481 0l68 651h-266l16 152h266l49 459h-487l18 172h1164l-19 -172h-487l-49 -459h270l-16 -152h-271l-67 -651h-189z" />
    <glyph glyph-name="tbar" unicode="&#x167;" horiz-adv-x="923" 
d="M41 479l14 131h228l28 275h-235l16 155h236l26 258h181l-27 -258h366l-16 -155h-366l-29 -275h334l-15 -131h-333l-11 -96q-14 -126 25 -183t139 -57q88 0 176 33l37 -149q-111 -47 -237 -47q-173 0 -258 96t-64 289l12 114h-227z" />
    <glyph glyph-name="Utilde" unicode="&#x168;" horiz-adv-x="1527" 
d="M711 -25q-275 0 -417.5 154t-113.5 432l92 873h189l-90 -852q-23 -217 68.5 -326t283.5 -109t307.5 109.5t138.5 325.5l91 852h188l-92 -873q-29 -279 -200 -432.5t-445 -153.5zM530 1665q21 99 83.5 152t146.5 53q36 0 71 -13.5t53.5 -26t47.5 -36.5q23 -19 34.5 -27.5
t30 -17t35.5 -8.5q63 0 92 100l127 -41q-21 -99 -84 -152t-147 -53q-36 0 -71 13.5t-53.5 26t-47.5 36.5q-23 19 -34.5 27.5t-30 17t-35.5 8.5q-64 0 -93 -100z" />
    <glyph glyph-name="utilde" unicode="&#x169;" horiz-adv-x="1243" 
d="M498 -25q-187 0 -283 114.5t-74 318.5l68 632h180l-63 -594q-15 -152 42.5 -229.5t182.5 -77.5q180 0 323 146l80 755h181l-111 -1040h-180l10 104q-150 -129 -356 -129zM365 1282q25 92 81.5 142.5t133.5 50.5t161 -72q60 -49 97 -49q52 0 84 94l118 -39
q-26 -92 -82 -142t-133 -50q-76 0 -163 71q-56 49 -95 49q-52 0 -84 -94z" />
    <glyph glyph-name="Umacron" unicode="&#x16a;" horiz-adv-x="1527" 
d="M711 -25q-275 0 -417.5 154t-113.5 432l92 873h189l-90 -852q-23 -217 68.5 -326t283.5 -109t307.5 109.5t138.5 325.5l91 852h188l-92 -873q-29 -279 -200 -432.5t-445 -153.5zM598 1645l14 147h570l-15 -147h-569z" />
    <glyph glyph-name="umacron" unicode="&#x16b;" horiz-adv-x="1243" 
d="M498 -25q-187 0 -283 114.5t-74 318.5l68 632h180l-63 -594q-15 -152 42.5 -229.5t182.5 -77.5q180 0 323 146l80 755h181l-111 -1040h-180l10 104q-150 -129 -356 -129zM426 1260l14 139h537l-14 -139h-537z" />
    <glyph glyph-name="Ubreve" unicode="&#x16c;" horiz-adv-x="1527" 
d="M711 -25q-275 0 -417.5 154t-113.5 432l92 873h189l-90 -852q-23 -217 68.5 -326t283.5 -109t307.5 109.5t138.5 325.5l91 852h188l-92 -873q-29 -279 -200 -432.5t-445 -153.5zM612 1872h156q-9 -84 23.5 -126t97.5 -42q63 0 103 42t50 126h156q-15 -145 -98.5 -220
t-222.5 -75t-208.5 76.5t-56.5 218.5z" />
    <glyph glyph-name="ubreve" unicode="&#x16d;" horiz-adv-x="1243" 
d="M498 -25q-187 0 -283 114.5t-74 318.5l68 632h180l-63 -594q-15 -152 42.5 -229.5t182.5 -77.5q180 0 323 146l80 755h181l-111 -1040h-180l10 104q-150 -129 -356 -129zM440 1481h148q-14 -158 112 -158q59 0 97.5 39.5t48.5 118.5h147q-15 -138 -95.5 -208.5
t-209.5 -70.5q-131 0 -196 72.5t-52 206.5z" />
    <glyph glyph-name="Uring" unicode="&#x16e;" horiz-adv-x="1527" 
d="M711 -25q-275 0 -417.5 154t-113.5 432l92 873h189l-90 -852q-23 -217 68.5 -326t283.5 -109t307.5 109.5t138.5 325.5l91 852h188l-92 -873q-29 -279 -200 -432.5t-445 -153.5zM629 1708q0 93 69 160t168 67q88 0 149.5 -56t61.5 -138q0 -94 -70 -161t-171 -67
q-88 0 -147.5 56.5t-59.5 138.5zM760 1712q0 -36 21.5 -58t60.5 -22q44 0 74 30.5t30 74.5q0 36 -22 58t-62 22q-43 0 -72.5 -30.5t-29.5 -74.5z" />
    <glyph glyph-name="uring" unicode="&#x16f;" horiz-adv-x="1243" 
d="M498 -25q-187 0 -283 114.5t-74 318.5l68 632h180l-63 -594q-15 -152 42.5 -229.5t182.5 -77.5q180 0 323 146l80 755h181l-111 -1040h-180l10 104q-150 -129 -356 -129zM489 1378q0 92 68.5 158t165.5 66q85 0 145 -56t60 -135q0 -92 -69 -157.5t-167 -65.5
q-86 0 -144.5 55t-58.5 135zM618 1382q0 -34 21 -55.5t59 -21.5q43 0 72 29t29 73q0 35 -21.5 56.5t-58.5 21.5q-43 0 -72 -29.5t-29 -73.5z" />
    <glyph glyph-name="Uhungarumlaut" unicode="&#x170;" horiz-adv-x="1527" 
d="M711 -25q-275 0 -417.5 154t-113.5 432l92 873h189l-90 -852q-23 -217 68.5 -326t283.5 -109t307.5 109.5t138.5 325.5l91 852h188l-92 -873q-29 -279 -200 -432.5t-445 -153.5zM582 1577l159 303h197l-213 -303h-143zM922 1577l161 303h195l-213 -303h-143z" />
    <glyph glyph-name="uhungarumlaut" unicode="&#x171;" horiz-adv-x="1243" 
d="M498 -25q-187 0 -283 114.5t-74 318.5l68 632h180l-63 -594q-15 -152 42.5 -229.5t182.5 -77.5q180 0 323 146l80 755h181l-111 -1040h-180l10 104q-150 -129 -356 -129zM414 1202l151 287h185l-201 -287h-135zM735 1202l152 287h184l-201 -287h-135z" />
    <glyph glyph-name="Uogonek" unicode="&#x172;" horiz-adv-x="1527" 
d="M711 -25q-275 0 -417.5 154t-113.5 432l92 873h189l-90 -852q-23 -217 68.5 -326t283.5 -109t307.5 109.5t138.5 325.5l91 852h188l-92 -873q-23 -219 -135 -362.5t-295 -194.5q-93 -67 -143 -123.5t-50 -118.5q0 -71 92 -71q36 0 70 10l-16 -152q-48 -10 -99 -10
q-103 0 -163 50.5t-60 134.5q0 147 160 251h-6z" />
    <glyph glyph-name="uogonek" unicode="&#x173;" horiz-adv-x="1243" 
d="M498 -25q-187 0 -283 114.5t-74 318.5l68 632h180l-63 -594q-15 -152 42.5 -229.5t182.5 -77.5q180 0 323 146l80 755h181l-111 -1040q-86 -62 -134 -116t-48 -109q0 -70 88 -70q32 0 65 8l-16 -141q-45 -10 -90 -10q-97 0 -154 47.5t-57 126.5q0 83 54.5 152t144.5 112
h-33l10 104q-150 -129 -356 -129z" />
    <glyph glyph-name="Wcircumflex" unicode="&#x174;" horiz-adv-x="2189" 
d="M457 0l-303 1434h188l246 -1164l512 1164h176l270 -1168l490 1168h192l-606 -1434h-190l-269 1176l-516 -1176h-190zM868 1577l287 303h168l221 -303h-176l-135 188l-176 -188h-189z" />
    <glyph glyph-name="wcircumflex" unicode="&#x175;" horiz-adv-x="1785" 
d="M352 0l-256 1040h189l190 -798l389 798h166l219 -798l361 798h190l-477 -1040h-180l-219 807l-392 -807h-180zM645 1202l270 287h160l209 -287h-166l-127 178l-168 -178h-178z" />
    <glyph glyph-name="Ycircumflex" unicode="&#x176;" horiz-adv-x="1318" 
d="M510 0l59 563l-460 871h208l361 -693l508 693h217l-645 -871l-60 -563h-188zM432 1577l287 303h168l221 -303h-176l-135 188l-176 -188h-189z" />
    <glyph glyph-name="ycircumflex" unicode="&#x177;" horiz-adv-x="1157" 
d="M182 -446l258 471l-358 1015h194l277 -804l436 804h197l-805 -1486h-199zM334 1202l270 287h160l209 -287h-166l-127 178l-168 -178h-178z" />
    <glyph glyph-name="Ydieresis" unicode="&#x178;" horiz-adv-x="1318" 
d="M510 0l59 563l-460 871h208l361 -693l508 693h217l-645 -871l-60 -563h-188zM438 1716q0 60 42 102t102 42q51 0 84.5 -33t33.5 -84q0 -64 -41 -105t-100 -41q-51 0 -86 34t-35 85zM872 1716q0 60 42 102t102 42q51 0 85 -33t34 -84q0 -64 -41.5 -105t-100.5 -41
q-51 0 -86 34t-35 85z" />
    <glyph glyph-name="Zacute" unicode="&#x179;" horiz-adv-x="1245" 
d="M51 0l15 139l897 1123h-766l18 172h1004l-15 -140l-897 -1122h795l-19 -172h-1032zM610 1577l178 303h242l-248 -303h-172z" />
    <glyph glyph-name="zacute" unicode="&#x17a;" horiz-adv-x="1028" 
d="M31 0l12 119l680 762h-592l19 159h839l-12 -118l-680 -762h608l-18 -160h-856zM473 1202l168 287h229l-233 -287h-164z" />
    <glyph glyph-name="Zdotaccent" unicode="&#x17b;" horiz-adv-x="1245" 
d="M51 0l15 139l897 1123h-766l18 172h1004l-15 -140l-897 -1122h795l-19 -172h-1032zM621 1716q0 60 40.5 101t100.5 41q52 0 84.5 -31.5t32.5 -83.5q0 -64 -40.5 -104t-99.5 -40q-51 0 -84.5 33t-33.5 84z" />
    <glyph glyph-name="zdotaccent" unicode="&#x17c;" horiz-adv-x="1028" 
d="M31 0l12 119l680 762h-592l19 159h839l-12 -118l-680 -762h608l-18 -160h-856zM477 1333q0 57 39 96t96 39q48 0 79.5 -30.5t31.5 -77.5q0 -61 -38.5 -99t-94.5 -38q-48 0 -80.5 31.5t-32.5 78.5z" />
    <glyph glyph-name="Zcaron" unicode="&#x17d;" horiz-adv-x="1245" 
d="M51 0l15 139l897 1123h-766l18 172h1004l-15 -140l-897 -1122h795l-19 -172h-1032zM428 1880h176l135 -188l176 188h189l-287 -303h-168z" />
    <glyph glyph-name="zcaron" unicode="&#x17e;" horiz-adv-x="1028" 
d="M31 0l12 119l680 762h-592l19 159h839l-12 -118l-680 -762h608l-18 -160h-856zM297 1489h166l127 -178l168 178h178l-270 -287h-160z" />
    <glyph glyph-name="florin" unicode="&#x192;" horiz-adv-x="966" 
d="M100 -25q-50 0 -94 13l17 157q41 -6 71 -6q79 0 127.5 42t79.5 153l119 397h-230l15 143h256l84 281q46 158 135.5 230.5t226.5 72.5q53 0 97 -12l-19 -158q-37 6 -72 6q-79 0 -126.5 -41.5t-79.5 -152.5l-66 -226h264l-14 -143h-293l-133 -452q-47 -160 -135 -232
t-230 -72z" />
    <glyph glyph-name="uni01CD" unicode="&#x1cd;" horiz-adv-x="1431" 
d="M-25 0l736 1434h202l433 -1434h-195l-111 379h-675l-191 -379h-199zM449 543h542l-200 680zM522 1880h176l136 -188l176 188h188l-287 -303h-168z" />
    <glyph glyph-name="uni01CE" unicode="&#x1ce;" horiz-adv-x="1292" 
d="M561 -25q-203 0 -338 135.5t-135 346.5q0 121 45.5 233t122.5 194.5t185 131.5t227 49q97 0 182.5 -32.5t142.5 -92.5l11 100h180l-111 -1040h-180l10 96q-65 -58 -155.5 -89.5t-186.5 -31.5zM274 471q0 -151 91.5 -241.5t232.5 -90.5q88 0 175.5 37.5t150.5 106.5
l49 471q-50 71 -129 109t-168 38q-175 0 -288.5 -124t-113.5 -306zM438 1489h166l127 -178l168 178h178l-270 -287h-160z" />
    <glyph glyph-name="uni01E2" unicode="&#x1e2;" horiz-adv-x="2256" 
d="M-43 0l1184 1434h1079l-18 -172h-795l-45 -426h702l-18 -172h-703l-51 -492h795l-19 -172h-983l41 395h-610l-323 -395h-236zM649 559h496l74 694zM1337 1645l15 147h569l-14 -147h-570z" />
    <glyph glyph-name="uni01E3" unicode="&#x1e3;" horiz-adv-x="2039" 
d="M446 -25q-177 0 -277.5 81.5t-100.5 217.5q0 155 127 248.5t323 93.5h375l4 35q14 122 -52 188t-202 66q-204 0 -364 -166l-121 113q184 213 493 213q147 0 247.5 -51t137.5 -144q83 92 198.5 143.5t248.5 51.5q207 0 337 -122t130 -322q0 -68 -19 -142h-870v-22
q0 -153 86.5 -237.5t238.5 -84.5q215 0 363 176l127 -98q-89 -114 -217.5 -176t-284.5 -62q-143 0 -251.5 53t-170.5 150q-96 -99 -226.5 -151t-279.5 -52zM254 289q0 -72 59.5 -115t163.5 -43q122 0 229 49t185 144q-12 56 -12 118v23h-369q-120 0 -188 -49.5t-68 -126.5z
M831 1260l15 139h536l-14 -139h-537zM1090 635h682q-6 133 -84 203.5t-213 70.5q-142 0 -242 -74.5t-143 -199.5z" />
    <glyph glyph-name="Gcaron" unicode="&#x1e6;" horiz-adv-x="1611" 
d="M803 -25q-307 0 -494.5 177t-187.5 464q0 175 63 331.5t171.5 268t259 177t319.5 65.5q172 0 319 -69.5t238 -198.5l-162 -109q-64 99 -170.5 152t-234.5 53q-176 0 -316 -86.5t-217.5 -235t-77.5 -329.5q0 -228 140 -358t374 -130q243 0 426 127l39 363h-383l19 170h563
l-68 -635q-276 -197 -620 -197zM633 1880h176l135 -188l176 188h189l-287 -303h-168z" />
    <glyph glyph-name="gcaron" unicode="&#x1e7;" horiz-adv-x="1292" 
d="M512 -471q-143 0 -267.5 51t-205.5 144l121 129q90 -85 177 -122.5t185 -37.5q160 0 259 85t114 234l10 101q-65 -58 -154.5 -89.5t-185.5 -31.5q-203 0 -339 136.5t-136 344.5q0 121 46.5 230.5t124.5 188.5t185 126t222 47q96 0 181.5 -33t143.5 -94l11 102h180
l-109 -1028q-25 -228 -172 -355.5t-391 -127.5zM274 483q0 -148 91.5 -237.5t232.5 -89.5q89 0 176.5 37.5t151.5 107.5l47 453q-48 71 -127 109t-168 38q-171 0 -287.5 -122t-116.5 -296zM416 1489h166l127 -178l168 178h178l-271 -287h-159z" />
    <glyph glyph-name="uni01E8" unicode="&#x1e8;" horiz-adv-x="1456" 
d="M139 0l152 1434h188l-82 -783l842 783h240l-703 -656l592 -778h-235l-496 649l-266 -248l-43 -401h-189zM541 1880h176l135 -188l176 188h189l-287 -303h-168z" />
    <glyph glyph-name="uni01E9" unicode="&#x1e9;" horiz-adv-x="1200" 
d="M109 0l159 1511h181l-105 -989l610 518h236l-526 -452l456 -588h-221l-369 473l-211 -182l-30 -291h-180zM86 1960h166l127 -178l168 178h178l-270 -287h-160z" />
    <glyph glyph-name="AEacute" unicode="&#x1fc;" horiz-adv-x="2256" 
d="M-43 0l1184 1434h1079l-18 -172h-795l-45 -426h702l-18 -172h-703l-51 -492h795l-19 -172h-983l41 395h-610l-323 -395h-236zM649 559h496l74 694zM1491 1577l178 303h242l-248 -303h-172z" />
    <glyph glyph-name="aeacute" unicode="&#x1fd;" horiz-adv-x="2039" 
d="M446 -25q-177 0 -277.5 81.5t-100.5 217.5q0 155 127 248.5t323 93.5h375l4 35q14 122 -52 188t-202 66q-204 0 -364 -166l-121 113q184 213 493 213q147 0 247.5 -51t137.5 -144q83 92 198.5 143.5t248.5 51.5q207 0 337 -122t130 -322q0 -68 -19 -142h-870v-22
q0 -153 86.5 -237.5t238.5 -84.5q215 0 363 176l127 -98q-89 -114 -217.5 -176t-284.5 -62q-143 0 -251.5 53t-170.5 150q-96 -99 -226.5 -151t-279.5 -52zM254 289q0 -72 59.5 -115t163.5 -43q122 0 229 49t185 144q-12 56 -12 118v23h-369q-120 0 -188 -49.5t-68 -126.5z
M981 1202l168 287h229l-233 -287h-164zM1090 635h682q-6 133 -84 203.5t-213 70.5q-142 0 -242 -74.5t-143 -199.5z" />
    <glyph glyph-name="Oslashacute" unicode="&#x1fe;" horiz-adv-x="1687" 
d="M788 -25q-210 0 -372 103l-148 -172l-116 96l147 172q-176 182 -176 457q0 169 63.5 322t172 264t259 176t318.5 65q215 0 377 -104l147 174l117 -96l-147 -172q176 -182 176 -459q0 -225 -109 -415t-297 -300.5t-412 -110.5zM315 641q0 -191 109 -326l770 902
q-117 69 -270 69q-173 0 -313.5 -86.5t-218 -233.5t-77.5 -325zM537 219q116 -72 268 -72q173 0 313 86.5t217.5 234t77.5 325.5q0 197 -106 325zM831 1577l179 303h241l-247 -303h-173z" />
    <glyph glyph-name="oslashacute" unicode="&#x1ff;" horiz-adv-x="1282" 
d="M590 -25q-152 0 -273 70l-104 -123l-98 82l102 121q-127 137 -127 336q0 164 78.5 302.5t217 220t306.5 81.5q153 0 271 -70l104 121l98 -82l-100 -121q127 -133 127 -333q0 -164 -78.5 -303t-217 -220.5t-306.5 -81.5zM268 473q0 -126 68 -219l522 610q-76 45 -176 45
q-176 0 -295 -127.5t-119 -308.5zM424 176q76 -45 176 -45q176 0 295 127.5t119 308.5q0 126 -68 219zM600 1202l168 287h229l-233 -287h-164z" />
    <glyph glyph-name="uni0218" unicode="&#x218;" horiz-adv-x="1226" 
d="M578 -25q-152 0 -290 48.5t-237 138.5l113 147q194 -164 424 -164q154 0 255 74.5t101 196.5q0 146 -203 198l-290 72q-140 34 -219.5 121t-79.5 207q0 133 73 235t195 155.5t272 53.5q146 0 275 -51.5t215 -144.5l-131 -134q-136 160 -367 160q-148 0 -244 -69t-96 -185
q0 -69 51 -116t162 -74l289 -72q139 -34 216 -120.5t77 -211.5q0 -216 -156.5 -340.5t-404.5 -124.5zM412 -283q0 54 40 87.5t93 33.5q57 0 95 -39.5t38 -105.5q0 -50 -22.5 -110.5t-55.5 -102.5h-115q58 73 64 137q-20 -4 -33 -4q-47 0 -75.5 29t-28.5 75z" />
    <glyph glyph-name="uni0219" unicode="&#x219;" horiz-adv-x="1038" 
d="M494 -25q-133 0 -252 44.5t-191 121.5l119 135q66 -68 154.5 -103.5t183.5 -35.5q108 0 174 46t66 116q0 94 -164 133l-178 41q-141 33 -205 95.5t-64 156.5q0 152 119.5 246t300.5 94q127 0 237 -43.5t177 -122.5l-125 -125q-117 129 -303 129q-100 0 -164 -40.5
t-64 -112.5q0 -43 37.5 -72t132.5 -51l177 -41q266 -62 266 -256q0 -167 -120 -261t-314 -94zM317 -283q0 54 40.5 87.5t93.5 33.5q57 0 95 -39.5t38 -105.5q0 -50 -22.5 -110.5t-55.5 -102.5h-115q58 73 64 137q-20 -4 -33 -4q-47 0 -76 29t-29 75z" />
    <glyph glyph-name="uni021A" unicode="&#x21a;" horiz-adv-x="1261" 
d="M481 0l133 1262h-487l18 172h1164l-19 -172h-487l-133 -1262h-189zM412 -283q0 54 40 87.5t93 33.5q57 0 95 -39.5t38 -105.5q0 -50 -22.5 -110.5t-55.5 -102.5h-115q58 73 64 137q-20 -4 -33 -4q-47 0 -75.5 29t-28.5 75z" />
    <glyph glyph-name="uni021B" unicode="&#x21b;" horiz-adv-x="899" 
d="M565 -20q-173 0 -257.5 96t-63.5 289l55 520h-236l17 155h235l27 258h180l-26 -258h366l-16 -155h-367l-53 -502q-14 -126 25 -183t139 -57q88 0 176 33l37 -149q-111 -47 -238 -47zM291 -283q0 54 40 87.5t93 33.5q57 0 95 -39.5t38 -105.5q0 -50 -22.5 -110.5
t-55.5 -102.5h-114q57 72 63 137q-20 -4 -33 -4q-47 0 -75.5 29t-28.5 75z" />
    <glyph glyph-name="uni0237" unicode="&#x237;" horiz-adv-x="507" 
d="M-90 -471q-98 0 -174 33l45 157q64 -22 123 -22q174 0 196 215l119 1128h180l-120 -1153q-20 -181 -111.5 -269.5t-257.5 -88.5z" />
    <glyph glyph-name="circumflex" unicode="&#x2c6;" horiz-adv-x="1228" 
d="M367 1202l270 287h160l209 -287h-166l-127 178l-168 -178h-178z" />
    <glyph glyph-name="caron" unicode="&#x2c7;" horiz-adv-x="1228" 
d="M606 1202l-209 287h166l127 -178l168 178h178l-270 -287h-160z" />
    <glyph glyph-name="breve" unicode="&#x2d8;" horiz-adv-x="1228" 
d="M686 1202q-131 0 -196 72.5t-52 206.5h148q-14 -158 112 -158q59 0 97.5 39.5t48.5 118.5h147q-15 -138 -95.5 -208.5t-209.5 -70.5z" />
    <glyph glyph-name="dotaccent" unicode="&#x2d9;" horiz-adv-x="1228" 
d="M690 1223q-47 0 -79.5 31.5t-32.5 78.5q0 57 39 96t96 39q47 0 78.5 -30.5t31.5 -77.5q0 -61 -38.5 -99t-94.5 -38z" />
    <glyph glyph-name="ring" unicode="&#x2da;" horiz-adv-x="1228" 
d="M690 1188q-86 0 -144.5 55t-58.5 135q0 92 68.5 158t165.5 66q85 0 145 -56t60 -135q0 -92 -69 -157.5t-167 -65.5zM616 1382q0 -34 21 -55.5t59 -21.5q43 0 72 29t29 73q0 35 -21.5 56.5t-58.5 21.5q-43 0 -72 -29.5t-29 -73.5z" />
    <glyph glyph-name="ogonek" unicode="&#x2db;" horiz-adv-x="1228" 
d="M584 -438q-97 0 -154 47.5t-57 126.5q0 102 80 182t204 115l62 -33q-86 -62 -134 -116t-48 -109q0 -70 88 -70q32 0 65 8l-16 -141q-45 -10 -90 -10z" />
    <glyph glyph-name="tilde" unicode="&#x2dc;" horiz-adv-x="1228" 
d="M365 1282q25 92 81.5 142.5t133.5 50.5t161 -72q60 -49 97 -49q52 0 84 94l118 -39q-26 -92 -82 -142t-133 -50q-76 0 -163 71q-56 49 -95 49q-52 0 -84 -94z" />
    <glyph glyph-name="hungarumlaut" unicode="&#x2dd;" horiz-adv-x="1228" 
d="M741 1202l152 287h184l-200 -287h-136zM420 1202l151 287h185l-201 -287h-135z" />
    <glyph glyph-name="gravecomb" unicode="&#x300;" 
d="M672 1202l-172 287h217l106 -287h-151z" />
    <glyph glyph-name="acutecomb" unicode="&#x301;" 
d="M532 1202l168 287h230l-234 -287h-164z" />
    <glyph glyph-name="uni0302" unicode="&#x302;" 
d="M367 1202l270 287h160l209 -287h-166l-127 178l-168 -178h-178z" />
    <glyph glyph-name="tildecomb" unicode="&#x303;" 
d="M365 1282q25 92 81.5 142.5t133.5 50.5t161 -72q60 -49 97 -49q52 0 84 94l118 -39q-26 -92 -82 -142t-133 -50q-76 0 -163 71q-56 49 -95 49q-52 0 -84 -94z" />
    <glyph glyph-name="uni0304" unicode="&#x304;" 
d="M424 1260l14 139h537l-14 -139h-537z" />
    <glyph glyph-name="uni0306" unicode="&#x306;" 
d="M686 1202q-131 0 -196 72.5t-52 206.5h148q-14 -158 112 -158q59 0 97.5 39.5t48.5 118.5h147q-15 -138 -95.5 -208.5t-209.5 -70.5z" />
    <glyph glyph-name="uni0307" unicode="&#x307;" 
d="M690 1223q-47 0 -79.5 31.5t-32.5 78.5q0 57 39 96t96 39q47 0 78.5 -30.5t31.5 -77.5q0 -61 -38.5 -99t-94.5 -38z" />
    <glyph glyph-name="uni0308" unicode="&#x308;" 
d="M485 1223q-47 0 -79.5 31.5t-32.5 78.5q0 57 39 96t96 39q47 0 78.5 -30.5t31.5 -77.5q0 -61 -38.5 -99t-94.5 -38zM782 1333q0 57 39.5 96t96.5 39q47 0 78.5 -30.5t31.5 -77.5q0 -61 -38.5 -99t-94.5 -38q-48 0 -80.5 31.5t-32.5 78.5z" />
    <glyph glyph-name="uni030A" unicode="&#x30a;" 
d="M690 1188q-86 0 -144.5 55t-58.5 135q0 92 68.5 158t165.5 66q85 0 145 -56t60 -135q0 -92 -69 -157.5t-167 -65.5zM616 1382q0 -34 21 -55.5t59 -21.5q43 0 72 29t29 73q0 35 -21.5 56.5t-58.5 21.5q-43 0 -72 -29.5t-29 -73.5z" />
    <glyph glyph-name="uni030B" unicode="&#x30b;" 
d="M741 1202l152 287h184l-200 -287h-136zM420 1202l151 287h185l-201 -287h-135z" />
    <glyph glyph-name="uni030C" unicode="&#x30c;" 
d="M606 1202l-209 287h166l127 -178l168 178h178l-270 -287h-160z" />
    <glyph glyph-name="uni0315" unicode="&#x315;" 
d="M561 1026q72 58 105 105.5t36 95.5q-20 -4 -32 -4q-46 0 -75.5 31.5t-29.5 78.5q0 56 39.5 90.5t93.5 34.5q58 0 95.5 -43.5t37.5 -114.5q0 -97 -58.5 -185.5t-156.5 -156.5z" />
    <glyph glyph-name="uni0326" unicode="&#x326;" 
d="M469 -520q57 72 63 137q-20 -4 -32 -4q-47 0 -76 29t-29 75q0 54 40 87.5t93 33.5q57 0 95.5 -39.5t38.5 -105.5q0 -50 -22.5 -110.5t-55.5 -102.5h-115z" />
    <glyph glyph-name="uni0327" unicode="&#x327;" 
d="M279 -336l256 404h141l-193 -404h-204z" />
    <glyph glyph-name="uni0328" unicode="&#x328;" 
d="M584 -438q-97 0 -154 47.5t-57 126.5q0 102 80 182t204 115l62 -33q-86 -62 -134 -116t-48 -109q0 -70 88 -70q32 0 65 8l-16 -141q-45 -10 -90 -10z" />
    <glyph glyph-name="uni03BC" unicode="&#x3bc;" horiz-adv-x="1243" 
d="M631 -25q-98 0 -184 33.5t-146 95.5l-59 -550h-181l158 1486h180l-80 -753q112 -148 291 -148q126 0 201 78t90 229l64 594h180l-68 -632q-22 -205 -139.5 -319t-306.5 -114z" />
    <glyph glyph-name="pi" unicode="&#x3c0;" horiz-adv-x="1228" 
d="M109 0l110 1040h858l-80 -753q-14 -127 103 -127h51l-18 -160h-76q-270 0 -242 266l64 615h-498l-92 -881h-180z" />
    <glyph glyph-name="uni1E20" unicode="&#x1e20;" horiz-adv-x="1611" 
d="M803 -25q-307 0 -494.5 177t-187.5 464q0 175 63 331.5t171.5 268t259 177t319.5 65.5q172 0 319 -69.5t238 -198.5l-162 -109q-64 99 -170.5 152t-234.5 53q-176 0 -316 -86.5t-217.5 -235t-77.5 -329.5q0 -228 140 -358t374 -130q243 0 426 127l39 363h-383l19 170h563
l-68 -635q-276 -197 -620 -197zM662 1645l14 147h569l-14 -147h-569z" />
    <glyph glyph-name="uni1E21" unicode="&#x1e21;" horiz-adv-x="1292" 
d="M512 -471q-143 0 -267.5 51t-205.5 144l121 129q90 -85 177 -122.5t185 -37.5q160 0 259 85t114 234l10 101q-65 -58 -154.5 -89.5t-185.5 -31.5q-203 0 -339 136.5t-136 344.5q0 121 46.5 230.5t124.5 188.5t185 126t222 47q96 0 181.5 -33t143.5 -94l11 102h180
l-109 -1028q-25 -228 -172 -355.5t-391 -127.5zM274 483q0 -148 91.5 -237.5t232.5 -89.5q89 0 176.5 37.5t151.5 107.5l47 453q-48 71 -127 109t-168 38q-171 0 -287.5 -122t-116.5 -296zM442 1260l15 139h536l-14 -139h-537z" />
    <glyph glyph-name="uni1E30" unicode="&#x1e30;" horiz-adv-x="1456" 
d="M139 0l152 1434h188l-82 -783l842 783h240l-703 -656l592 -778h-235l-496 649l-266 -248l-43 -401h-189zM723 1577l178 303h242l-248 -303h-172z" />
    <glyph glyph-name="uni1E31" unicode="&#x1e31;" horiz-adv-x="1200" 
d="M109 0l159 1511h181l-105 -989l610 518h236l-526 -452l456 -588h-221l-369 473l-211 -182l-30 -291h-180zM262 1673l168 287h229l-233 -287h-164z" />
    <glyph glyph-name="uni1E3E" unicode="&#x1e3e;" horiz-adv-x="1972" 
d="M139 0l152 1434h215l450 -1153l695 1153h223l-152 -1434h-188l119 1110l-645 -1069h-146l-418 1067l-116 -1108h-189zM975 1577l178 303h242l-248 -303h-172z" />
    <glyph glyph-name="uni1E3F" unicode="&#x1e3f;" horiz-adv-x="1914" 
d="M1589 594q15 150 -41 228.5t-164 78.5q-77 0 -161 -40.5t-156 -119.5q3 -56 -2 -108l-68 -633h-180l64 594q15 150 -41 228.5t-164 78.5q-74 0 -155 -37.5t-152 -111.5l-80 -752h-180l110 1040h180l-10 -104q150 129 338 129q106 0 186 -47t119 -135q88 89 193 135.5
t211 46.5q170 0 264.5 -115t73.5 -317l-68 -633h-180zM918 1202l167 287h230l-234 -287h-163z" />
    <glyph glyph-name="uni1E40" unicode="&#x1e40;" horiz-adv-x="1972" 
d="M139 0l152 1434h215l450 -1153l695 1153h223l-152 -1434h-188l119 1110l-645 -1069h-146l-418 1067l-116 -1108h-189zM985 1716q0 60 40.5 101t100.5 41q52 0 84.5 -31.5t32.5 -83.5q0 -64 -40 -104t-99 -40q-51 0 -85 33t-34 84z" />
    <glyph glyph-name="uni1E41" unicode="&#x1e41;" horiz-adv-x="1914" 
d="M1589 594q15 150 -41 228.5t-164 78.5q-77 0 -161 -40.5t-156 -119.5q3 -56 -2 -108l-68 -633h-180l64 594q15 150 -41 228.5t-164 78.5q-74 0 -155 -37.5t-152 -111.5l-80 -752h-180l110 1040h180l-10 -104q150 129 338 129q106 0 186 -47t119 -135q88 89 193 135.5
t211 46.5q170 0 264.5 -115t73.5 -317l-68 -633h-180zM922 1333q0 57 39 96t96 39q47 0 78.5 -30.5t31.5 -77.5q0 -61 -38.5 -99t-94.5 -38q-47 0 -79.5 31.5t-32.5 78.5z" />
    <glyph glyph-name="uni1E44" unicode="&#x1e44;" horiz-adv-x="1589" 
d="M139 0l152 1434h190l701 -1145l121 1145h188l-152 -1434h-190l-700 1147l-121 -1147h-189zM793 1716q0 60 40.5 101t100.5 41q52 0 84.5 -31.5t32.5 -83.5q0 -64 -40.5 -104t-99.5 -40q-51 0 -84.5 33t-33.5 84z" />
    <glyph glyph-name="uni1E45" unicode="&#x1e45;" horiz-adv-x="1247" 
d="M920 582q17 156 -44.5 237.5t-187.5 81.5q-83 0 -167 -36.5t-152 -108.5l-80 -756h-180l110 1040h180l-10 -102q146 127 348 127q186 0 288 -118t79 -326l-66 -621h-180zM588 1333q0 57 39 96t96 39q48 0 79.5 -30.5t31.5 -77.5q0 -61 -39 -99t-95 -38q-47 0 -79.5 31.5
t-32.5 78.5z" />
    <glyph glyph-name="Wgrave" unicode="&#x1e80;" horiz-adv-x="2189" 
d="M457 0l-303 1434h188l246 -1164l512 1164h176l270 -1168l490 1168h192l-606 -1434h-190l-269 1176l-516 -1176h-190zM981 1880h225l113 -303h-156z" />
    <glyph glyph-name="wgrave" unicode="&#x1e81;" horiz-adv-x="1785" 
d="M352 0l-256 1040h189l190 -798l389 798h166l219 -798l361 798h190l-477 -1040h-180l-219 807l-392 -807h-180zM745 1489h218l106 -287h-151z" />
    <glyph glyph-name="Wacute" unicode="&#x1e82;" horiz-adv-x="2189" 
d="M457 0l-303 1434h188l246 -1164l512 1164h176l270 -1168l490 1168h192l-606 -1434h-190l-269 1176l-516 -1176h-190zM1083 1577l179 303h241l-248 -303h-172z" />
    <glyph glyph-name="wacute" unicode="&#x1e83;" horiz-adv-x="1785" 
d="M352 0l-256 1040h189l190 -798l389 798h166l219 -798l361 798h190l-477 -1040h-180l-219 807l-392 -807h-180zM852 1202l168 287h229l-233 -287h-164z" />
    <glyph glyph-name="Wdieresis" unicode="&#x1e84;" horiz-adv-x="2189" 
d="M457 0l-303 1434h188l246 -1164l512 1164h176l270 -1168l490 1168h192l-606 -1434h-190l-269 1176l-516 -1176h-190zM874 1716q0 60 42 102t102 42q51 0 85 -33t34 -84q0 -64 -41.5 -105t-100.5 -41q-51 0 -86 34t-35 85zM1309 1716q0 60 41.5 102t101.5 42q51 0 85 -33
t34 -84q0 -64 -41 -105t-100 -41q-51 0 -86 34t-35 85z" />
    <glyph glyph-name="wdieresis" unicode="&#x1e85;" horiz-adv-x="1785" 
d="M352 0l-256 1040h189l190 -798l389 798h166l219 -798l361 798h190l-477 -1040h-180l-219 807l-392 -807h-180zM651 1333q0 57 39 96t96 39q48 0 79.5 -30.5t31.5 -77.5q0 -61 -38.5 -99t-94.5 -38q-48 0 -80.5 31.5t-32.5 78.5zM1061 1333q0 57 39 96t96 39
q48 0 79.5 -30.5t31.5 -77.5q0 -61 -38.5 -99t-94.5 -38q-48 0 -80.5 31.5t-32.5 78.5z" />
    <glyph glyph-name="uni1E90" unicode="&#x1e90;" horiz-adv-x="1245" 
d="M51 0l15 139l897 1123h-766l18 172h1004l-15 -140l-897 -1122h795l-19 -172h-1032zM395 1577l287 303h168l221 -303h-176l-135 188l-176 -188h-189z" />
    <glyph glyph-name="uni1E91" unicode="&#x1e91;" horiz-adv-x="1028" 
d="M31 0l12 119l680 762h-592l19 159h839l-12 -118l-680 -762h608l-18 -160h-856zM266 1202l271 287h159l209 -287h-166l-127 178l-168 -178h-178z" />
    <glyph glyph-name="uni1E9E" unicode="&#x1e9e;" horiz-adv-x="1562" 
d="M891 -25q-122 0 -246 31l43 170q98 -29 205 -29q161 0 253.5 70.5t92.5 210.5q0 102 -82 151.5t-256 49.5h-90l16 159l367 396q-110 104 -317 104q-213 0 -334 -111.5t-148 -355.5l-86 -821h-188l90 842q30 301 203 458.5t460 157.5q179 0 324.5 -64.5t239.5 -187.5
l-394 -422q188 -20 288 -108.5t100 -237.5q0 -222 -147.5 -342.5t-393.5 -120.5z" />
    <glyph glyph-name="Ygrave" unicode="&#x1ef2;" horiz-adv-x="1318" 
d="M510 0l59 563l-460 871h208l361 -693l508 693h217l-645 -871l-60 -563h-188zM545 1880h225l113 -303h-156z" />
    <glyph glyph-name="ygrave" unicode="&#x1ef3;" horiz-adv-x="1157" 
d="M182 -446l258 471l-358 1015h194l277 -804l436 804h197l-805 -1486h-199zM434 1489h217l107 -287h-152z" />
    <glyph glyph-name="uni2000" unicode="&#x2000;" horiz-adv-x="1187" 
 />
    <glyph glyph-name="uni2001" unicode="&#x2001;" horiz-adv-x="1802" 
 />
    <glyph glyph-name="uni2002" unicode="&#x2002;" horiz-adv-x="1187" 
 />
    <glyph glyph-name="uni2003" unicode="&#x2003;" horiz-adv-x="1802" 
 />
    <glyph glyph-name="uni2009" unicode="&#x2009;" horiz-adv-x="307" 
 />
    <glyph glyph-name="uni200A" unicode="&#x200a;" horiz-adv-x="204" 
 />
    <glyph glyph-name="uni200B" unicode="&#x200b;" 
 />
    <glyph glyph-name="endash" unicode="&#x2013;" horiz-adv-x="1187" 
d="M84 549l18 160h1024l-18 -160h-1024z" />
    <glyph glyph-name="emdash" unicode="&#x2014;" horiz-adv-x="1802" 
d="M84 549l18 160h1639l-19 -160h-1638z" />
    <glyph glyph-name="quoteleft" unicode="&#x2018;" horiz-adv-x="454" 
d="M289 958q-58 0 -95.5 41.5t-37.5 114.5q0 94 60.5 187.5t152.5 156.5l57 -67q-128 -109 -137 -199q4 0 13.5 1t14.5 1q45 0 74 -32t29 -77q0 -59 -38 -93t-93 -34z" />
    <glyph glyph-name="quoteright" unicode="&#x2019;" horiz-adv-x="456" 
d="M311 1458q58 0 95.5 -41t37.5 -114q0 -95 -60.5 -188.5t-152.5 -156.5l-57 68q128 109 137 199q-4 0 -13.5 -1t-14.5 -1q-45 0 -74 31.5t-29 76.5q0 59 38 93t93 34z" />
    <glyph glyph-name="quotesinglbase" unicode="&#x201a;" horiz-adv-x="452" 
d="M180 236q58 0 95.5 -41.5t37.5 -114.5q0 -94 -60.5 -187.5t-152.5 -156.5l-57 67q128 109 137 199q-4 0 -13.5 -1t-14.5 -1q-45 0 -74 32t-29 77q0 59 38 93t93 34z" />
    <glyph glyph-name="quotedblleft" unicode="&#x201c;" horiz-adv-x="806" 
d="M289 958q-58 0 -95.5 41.5t-37.5 114.5q0 94 60.5 187.5t152.5 156.5l57 -67q-128 -109 -137 -199q4 0 13.5 1t14.5 1q45 0 74 -32t29 -77q0 -59 -38 -93t-93 -34zM508 1114q0 94 60.5 187.5t152.5 156.5l57 -67q-128 -109 -137 -199q4 0 14 1t15 1q45 0 73.5 -32
t28.5 -77q0 -59 -38 -93t-93 -34q-58 0 -95.5 41.5t-37.5 114.5z" />
    <glyph glyph-name="quotedblright" unicode="&#x201d;" horiz-adv-x="808" 
d="M664 1458q58 0 95.5 -41t37.5 -114q0 -95 -60.5 -188.5t-152.5 -156.5l-58 68q129 110 138 199q-4 0 -14 -1t-15 -1q-45 0 -74 31.5t-29 76.5q0 59 38.5 93t93.5 34zM174 1026q128 109 137 199q-4 0 -13.5 -1t-14.5 -1q-45 0 -74 31.5t-29 76.5q0 59 38 93t93 34
q58 0 95.5 -41t37.5 -114q0 -95 -60.5 -188.5t-152.5 -156.5z" />
    <glyph glyph-name="quotedblbase" unicode="&#x201e;" horiz-adv-x="804" 
d="M532 236q58 0 96 -41.5t38 -114.5q0 -94 -60.5 -187.5t-152.5 -156.5l-58 67q128 109 137 199q-4 0 -13.5 -1t-14.5 -1q-45 0 -74 32t-29 77q0 59 38 93t93 34zM43 -197q128 109 137 199q-4 0 -13.5 -1t-14.5 -1q-45 0 -74 32t-29 77q0 59 38 93t93 34q58 0 95.5 -41.5
t37.5 -114.5q0 -94 -60.5 -187.5t-152.5 -156.5z" />
    <glyph glyph-name="dagger" unicode="&#x2020;" horiz-adv-x="1060" 
d="M362 -262l119 1139h-352l18 163h353l49 480h172l-49 -480h352l-18 -163h-353l-118 -1139h-173z" />
    <glyph glyph-name="daggerdbl" unicode="&#x2021;" horiz-adv-x="1101" 
d="M383 -262l55 524h-311l16 164h312l47 451h-352l18 163h352l49 480h172l-49 -480h352l-18 -163h-352l-47 -451h311l-16 -164h-312l-55 -524h-172z" />
    <glyph glyph-name="bullet" unicode="&#x2022;" horiz-adv-x="1060" 
d="M551 412q-130 0 -217.5 88t-87.5 217t87.5 217t217.5 88t217.5 -88t87.5 -217t-87.5 -217t-217.5 -88z" />
    <glyph glyph-name="ellipsis" unicode="&#x2026;" horiz-adv-x="1384" 
d="M166 -14q-52 0 -84.5 31.5t-32.5 82.5q0 63 41.5 103.5t102.5 40.5q49 0 81.5 -34t32.5 -81q0 -65 -40 -104t-101 -39zM520 100q0 63 41.5 103.5t102.5 40.5q49 0 81.5 -34t32.5 -81q0 -65 -40 -104t-101 -39q-52 0 -84.5 31.5t-32.5 82.5zM991 100q0 63 41.5 103.5
t102.5 40.5q49 0 81.5 -34t32.5 -81q0 -65 -40 -104t-101 -39q-52 0 -84.5 31.5t-32.5 82.5z" />
    <glyph glyph-name="perthousand" unicode="&#x2030;" horiz-adv-x="2627" 
d="M2136 -25q-145 0 -240.5 94.5t-95.5 237.5q0 161 116 279.5t279 118.5q143 0 238.5 -94t95.5 -238q0 -159 -115 -278.5t-278 -119.5zM139 1061q0 161 116.5 279t279.5 118q143 0 238 -94t95 -238q0 -159 -115 -278t-278 -119q-145 0 -240.5 94.5t-95.5 237.5zM281 0
l1081 1434h182l-1081 -1434h-182zM293 1065q0 -87 50.5 -141t137.5 -54q104 0 169 73t65 177q0 90 -50 143.5t-137 53.5q-107 0 -171 -73.5t-64 -178.5zM956 307q0 161 116.5 279.5t279.5 118.5q143 0 238.5 -94t95.5 -238q0 -159 -115.5 -278.5t-278.5 -119.5
q-145 0 -240.5 94.5t-95.5 237.5zM1110 311q0 -87 50.5 -140.5t137.5 -53.5q104 0 169 73t65 177q0 90 -49.5 143t-136.5 53q-107 0 -171.5 -73.5t-64.5 -178.5zM1954 311q0 -87 50.5 -140.5t137.5 -53.5q104 0 169 73t65 177q0 90 -50 143t-137 53q-107 0 -171 -73.5
t-64 -178.5z" />
    <glyph glyph-name="guilsinglleft" unicode="&#x2039;" horiz-adv-x="706" 
d="M360 147l-262 439l355 438h204l-352 -438l260 -439h-205z" />
    <glyph glyph-name="guilsinglright" unicode="&#x203a;" horiz-adv-x="708" 
d="M360 1024l263 -438l-355 -439h-205l353 439l-260 438h204z" />
    <glyph glyph-name="fraction" unicode="&#x2044;" horiz-adv-x="360" 
d="M-465 0l1155 1434h176l-1155 -1434h-176z" />
    <glyph glyph-name="uni2070" unicode="&#x2070;" horiz-adv-x="794" 
d="M424 723q-134 0 -210.5 85.5t-76.5 244.5q0 132 39 236.5t122.5 170.5t201.5 66q131 0 207.5 -85.5t76.5 -244.5q0 -132 -38 -236.5t-121 -170.5t-201 -66zM291 1049q0 -189 141 -189q56 0 96.5 29t62 79.5t31 107.5t9.5 124q0 189 -142 189q-56 0 -96.5 -29t-61.5 -79.5
t-30.5 -107.5t-9.5 -124z" />
    <glyph glyph-name="uni2074" unicode="&#x2074;" horiz-adv-x="702" 
d="M459 737l16 158h-395l14 125l418 491h170l-51 -491h96l-14 -125h-97l-16 -158h-141zM242 1020h245l35 330z" />
    <glyph glyph-name="uni2075" unicode="&#x2075;" horiz-adv-x="679" 
d="M362 723q-171 0 -288 111l96 108q84 -84 190 -84q76 0 122 37t46 106q0 49 -34 78t-93 29q-77 0 -141 -49l-104 53l43 399h487l-14 -133h-346l-21 -182q63 35 141 35q104 0 170 -59t66 -158q0 -135 -88.5 -213t-231.5 -78z" />
    <glyph glyph-name="uni2076" unicode="&#x2076;" horiz-adv-x="690" 
d="M377 723q-121 0 -199 68t-78 180q0 157 144 319l190 221h176l-227 -256q30 9 66 9q110 0 181.5 -65t71.5 -171q0 -133 -93.5 -219t-231.5 -86zM250 977q0 -56 36 -88.5t99 -32.5q74 0 120 44.5t46 117.5q0 57 -35.5 90t-99.5 33q-79 0 -122.5 -46t-43.5 -118z" />
    <glyph glyph-name="uni2077" unicode="&#x2077;" horiz-adv-x="622" 
d="M121 737l381 635h-375l14 139h549l-12 -122l-383 -652h-174z" />
    <glyph glyph-name="uni2078" unicode="&#x2078;" horiz-adv-x="727" 
d="M391 723q-133 0 -210 57.5t-77 147.5q0 74 44 127.5t120 79.5q-102 47 -102 155q0 110 83.5 173t213.5 63q122 0 194 -57.5t72 -143.5q0 -65 -37.5 -114t-103.5 -76q125 -46 125 -170q0 -112 -91 -177t-231 -65zM262 946q0 -45 34.5 -70.5t102.5 -25.5q72 0 117 32t45 91
q0 46 -36 73t-103 27q-73 0 -116.5 -32.5t-43.5 -94.5zM311 1280q-2 -42 30 -66t93 -24q69 0 107.5 31.5t38.5 87.5q0 45 -31 70.5t-92 25.5q-68 0 -107 -32t-39 -93z" />
    <glyph glyph-name="uni2079" unicode="&#x2079;" horiz-adv-x="690" 
d="M442 1526q121 0 199 -68t78 -180q0 -158 -144 -320l-190 -221h-176l227 256q-27 -8 -65 -8q-110 0 -182 65t-72 171q0 133 93.5 219t231.5 86zM268 1231q0 -57 35.5 -90t99.5 -33q79 0 122.5 46t43.5 118q0 56 -36 88.5t-99 32.5q-74 0 -120 -44.5t-46 -117.5z" />
    <glyph glyph-name="Euro" unicode="&#x20ac;" horiz-adv-x="1314" 
d="M768 -25q-209 0 -341.5 139t-152.5 386h-184l12 127h168q3 84 19 180h-166l12 127h184q69 237 221.5 380.5t366.5 143.5q122 0 229 -56.5t169 -158.5l-140 -108q-45 81 -114.5 123t-153.5 42q-139 0 -238.5 -100t-152.5 -266h495l-53 -127h-475q-15 -88 -18 -180h514
l-54 -127h-456q20 -176 103 -271.5t212 -95.5q180 0 309 164l125 -102q-76 -105 -193 -162.5t-247 -57.5z" />
    <glyph glyph-name="uni20BF" unicode="&#x20bf;" horiz-adv-x="1423" 
d="M358 -180l21 180h-240l152 1434h237l19 180h164l-19 -180h168h17l18 180h164l-21 -207q108 -37 169 -118t61 -189q0 -114 -52 -199.5t-147 -128.5q117 -41 176.5 -120.5t59.5 -188.5q0 -184 -112 -301t-302 -150l-21 -192h-163l20 180h-184l-21 -180h-164zM346 168h414
q156 0 254 78t98 207q0 103 -77.5 165t-221.5 62h-414zM418 844h381q127 0 202.5 65.5t75.5 173.5q0 89 -59.5 136t-175.5 47h-381z" />
    <glyph glyph-name="uni2116" unicode="&#x2116;" horiz-adv-x="2572" 
d="M139 0l152 1434h190l701 -1145l121 1145h188l-152 -1434h-190l-700 1147l-121 -1147h-189zM1706 317l18 160h635l-18 -160h-635zM1706 1001q0 191 131.5 324t321.5 133q164 0 271 -103t107 -263q0 -190 -131.5 -322.5t-320.5 -132.5q-165 0 -272 102.5t-107 261.5z
M1872 1014q0 -100 62.5 -163t160.5 -63q117 0 196 85t79 208q0 101 -61.5 163.5t-160.5 62.5q-117 0 -196.5 -86t-79.5 -207z" />
    <glyph glyph-name="trademark" unicode="&#x2122;" horiz-adv-x="1576" 
d="M723 807l65 627h148l188 -435l279 435h158l-66 -627h-139l43 414l-244 -381h-90l-162 379l-43 -412h-137zM154 1300l14 134h508l-14 -134h-183l-51 -493h-143l51 493h-182z" />
    <glyph glyph-name="uni2126" unicode="&#x2126;" horiz-adv-x="1654" 
d="M88 0l18 164h300q-118 86 -181 213t-63 285q0 162 60 309.5t162 254t242.5 169.5t295.5 63q129 0 242.5 -46t196 -127.5t130 -199.5t47.5 -256q0 -208 -92.5 -382.5t-261.5 -282.5h291l-19 -164h-571l18 164q220 92 337.5 258t117.5 395q0 219 -123 350t-326 131
q-165 0 -295.5 -86.5t-201 -231t-70.5 -318.5q0 -348 336 -498l-19 -164h-571z" />
    <glyph glyph-name="estimated" unicode="&#x212e;" horiz-adv-x="1722" 
d="M883 0q-145 0 -275.5 52t-228.5 147q-97 94 -152 228.5t-55 289.5t55 291.5t152 230.5q98 92 229 143.5t275 51.5t274 -51.5t227 -143.5q98 -93 153.5 -230t55.5 -292v-25h-1196v-309q0 -72 20.5 -119t71.5 -84q171 -127 394 -127q172 0 315.5 75t231.5 210l43 -33
q-97 -145 -252 -225t-338 -80zM397 741h981v299q0 71 -20 120.5t-68 86.5q-177 133 -407 133q-223 0 -394 -127q-51 -37 -71.5 -84t-20.5 -120v-308z" />
    <glyph glyph-name="arrowleft" unicode="&#x2190;" horiz-adv-x="1454" 
d="M727 1133l-336 -330h1004v-172h-1004l336 -330l-113 -117l-528 533l528 532z" />
    <glyph glyph-name="arrowup" unicode="&#x2191;" horiz-adv-x="1454" 
d="M346 737l-117 113l533 528l532 -528l-116 -113l-330 336v-1003h-172v1003z" />
    <glyph glyph-name="arrowright" unicode="&#x2192;" horiz-adv-x="1454" 
d="M766 1133l113 116l528 -532l-528 -533l-113 117l336 330h-1004v172h1004z" />
    <glyph glyph-name="arrowdown" unicode="&#x2193;" horiz-adv-x="1454" 
d="M317 696l330 -336v1004h172v-1004l330 336l117 -112l-533 -529l-532 529z" />
    <glyph glyph-name="uni2196" unicode="&#x2196;" horiz-adv-x="1454" 
d="M449 461l-162 -2l2 749l749 2l-2 -161l-471 6l711 -711l-123 -123l-711 711z" />
    <glyph glyph-name="uni2197" unicode="&#x2197;" horiz-adv-x="1454" 
d="M459 1049l-2 161l749 -2l2 -749l-161 2l6 471l-711 -711l-123 123l711 711z" />
    <glyph glyph-name="uni2198" unicode="&#x2198;" horiz-adv-x="1454" 
d="M1059 973l162 2l-2 -750l-750 -2l2 162l471 -6l-711 711l123 122l711 -710z" />
    <glyph glyph-name="uni2199" unicode="&#x2199;" horiz-adv-x="1454" 
d="M1038 385l2 -162l-749 2l-2 750l162 -2l-7 -471l711 710l123 -122l-711 -711z" />
    <glyph glyph-name="partialdiff" unicode="&#x2202;" horiz-adv-x="1302" 
d="M578 -25q-214 0 -349 125t-135 322q0 147 73 269.5t199 192.5t275 70q132 0 235.5 -53.5t155.5 -152.5h2q4 49 4 96q0 242 -90 349t-280 107q-152 0 -310 -81l-32 149q169 90 366 90q257 0 391 -159t134 -457q0 -138 -22.5 -267.5t-78 -253t-137.5 -196.5
q-170 -150 -401 -150zM276 430q0 -135 86 -214t232 -79q171 0 281 107.5t110 269.5q0 128 -87 204.5t-234 76.5q-171 0 -279.5 -100.5t-108.5 -264.5z" />
    <glyph glyph-name="uni2206" unicode="&#x2206;" horiz-adv-x="1394" 
d="M57 0l-51 100l739 1334h97l456 -1334l-71 -100h-1170zM233 164h867l-332 966z" />
    <glyph glyph-name="product" unicode="&#x220f;" horiz-adv-x="1388" 
d="M113 -262l186 1782h999l-186 -1782h-180l170 1614h-639l-170 -1614h-180z" />
    <glyph glyph-name="summation" unicode="&#x2211;" horiz-adv-x="1105" 
d="M31 -262l16 164l600 739l-446 715l16 164h932l-16 -164h-744l455 -727l-590 -727h725l-16 -164h-932z" />
    <glyph glyph-name="minus" unicode="&#x2212;" horiz-adv-x="1331" 
d="M221 569l17 160h901l-17 -160h-901z" />
    <glyph glyph-name="radical" unicode="&#x221a;" horiz-adv-x="1290" 
d="M465 -262l-197 764h-219l17 164h337l170 -691l603 1545h178l-699 -1782h-190z" />
    <glyph glyph-name="infinity" unicode="&#x221e;" horiz-adv-x="1564" 
d="M1102 319q-117 0 -190 57.5t-126 160.5q-72 -103 -156.5 -160.5t-201.5 -57.5q-146 0 -232.5 88.5t-86.5 233.5q0 182 109 303t282 121q117 0 189.5 -57t125.5 -160q72 102 156.5 159.5t202.5 57.5q146 0 232.5 -88.5t86.5 -235.5q0 -181 -110 -301.5t-281 -120.5z
M272 655q0 -85 44.5 -134.5t119.5 -49.5q44 0 83.5 16.5t74 50.5t61 68.5t60.5 87.5q-23 52 -42 85.5t-47 67.5t-63.5 50t-79.5 16q-95 0 -153 -75t-58 -183zM887 690q22 -52 40.5 -85.5t46 -67t63 -50t79.5 -16.5q95 0 154 75t59 181q0 86 -45.5 136t-120.5 50
q-58 0 -110.5 -33t-86.5 -76t-79 -114z" />
    <glyph glyph-name="integral" unicode="&#x222b;" horiz-adv-x="806" 
d="M-31 -262l17 160h143q120 0 131 116l131 1246q13 137 86 198.5t215 61.5h168l-16 -160h-144q-120 0 -131 -117l-131 -1245q-13 -137 -86 -198.5t-215 -61.5h-168z" />
    <glyph glyph-name="approxequal" unicode="&#x2248;" horiz-adv-x="1331" 
d="M903 731q-75 0 -210 44t-210 44q-112 0 -245 -84l16 160q121 82 250 82q72 0 209 -44t205 -44q64 0 130 24t115 62l-16 -160q-127 -84 -244 -84zM195 324l16 161q122 82 250 82q72 0 208.5 -44t204.5 -44q65 0 132.5 24.5t113.5 61.5l-16 -162q-127 -81 -244 -81
q-75 0 -210 44t-210 44q-61 0 -117.5 -20.5t-127.5 -65.5z" />
    <glyph glyph-name="notequal" unicode="&#x2260;" horiz-adv-x="1331" 
d="M283 96l155 266h-239l16 162h317l146 250h-436l16 162h514l156 266h145l-155 -266h241l-16 -162h-320l-145 -250h438l-16 -162h-516l-156 -266h-145z" />
    <glyph glyph-name="lessequal" unicode="&#x2264;" horiz-adv-x="1331" 
d="M1092 279l-865 350l17 172l938 352l-17 -172l-733 -266l676 -264zM160 0l18 160h901l-18 -160h-901z" />
    <glyph glyph-name="greaterequal" unicode="&#x2265;" horiz-adv-x="1331" 
d="M190 279l17 172l733 264l-676 266l17 172l864 -352l-17 -172zM160 0l18 160h901l-18 -160h-901z" />
    <glyph glyph-name="filledbox" unicode="&#x25a0;" horiz-adv-x="1843" 
d="M225 0v1434h1434v-1434h-1434z" />
    <glyph glyph-name="triagup" unicode="&#x25b2;" horiz-adv-x="1843" 
d="M158 0l716 1434l717 -1434h-1433z" />
    <glyph glyph-name="triagdn" unicode="&#x25bc;" horiz-adv-x="1843" 
d="M1010 0l-717 1434h1433z" />
    <glyph glyph-name="uni25C6" unicode="&#x25c6;" horiz-adv-x="1843" 
d="M940 0l-715 715l715 719l719 -719z" />
    <glyph glyph-name="lmlenge" unicode="&#x25ca;" horiz-adv-x="1290" 
d="M520 0l-438 717l590 717h139l438 -717l-590 -717h-139zM295 715l319 -525l435 529l-320 524z" />
    <glyph glyph-name="uni25CF" unicode="&#x25cf;" horiz-adv-x="1843" 
d="M942 0q-145 0 -278 57t-229 153t-153 229t-57 278t57 278t153 229t229 153t278 57t278 -57t229 -153t153 -229t57 -278t-57 -278t-153 -229t-229 -153t-278 -57z" />
    <glyph glyph-name="uni2610" unicode="&#x2610;" horiz-adv-x="1843" 
d="M225 0v1434h1434v-1434h-1434zM379 143h1126v1147h-1126v-1147z" />
    <glyph glyph-name="uni2611" unicode="&#x2611;" horiz-adv-x="1843" 
d="M225 0v1434h1434v-1434h-1434zM379 143h1126v1147h-1126v-1147zM559 471l80 139l184 -108l371 643l133 -76l-450 -780z" />
    <glyph glyph-name="uni2612" unicode="&#x2612;" horiz-adv-x="1843" 
d="M225 0v1434h1434v-1434h-1434zM379 143h1126v1147h-1126v-1147zM530 412l306 305l-306 305l107 106l305 -305l305 305l107 -106l-305 -305l305 -305l-107 -107l-305 305l-305 -305z" />
    <glyph glyph-name="heart" unicode="&#x2665;" horiz-adv-x="1843" 
d="M287 838q0 97 32 176t84 127.5t115.5 74t130.5 25.5q109 0 193.5 -63.5t111.5 -180.5q27 117 112 180.5t194 63.5q67 0 130.5 -25.5t115.5 -74t84 -127.5t32 -176q0 -92 -30 -169t-77 -130t-118 -108.5t-139 -98.5t-153.5 -107t-150.5 -127q-65 63 -150.5 127t-153.5 107
t-138.5 98.5t-117.5 108.5t-77 130t-30 169z" />
    <glyph glyph-name="uni2B51" unicode="&#x2b51;" horiz-adv-x="1843" 
d="M485 -6l183 557l-469 340h581l178 553l179 -555h585l-473 -342l181 -553l-472 344z" />
    <glyph glyph-name="uni004A0301" horiz-adv-x="1173" 
d="M453 -25q-231 0 -428 146l102 149q176 -123 340 -123q138 0 229.5 86t108.5 248l100 953h189l-103 -965q-25 -242 -162 -368t-376 -126zM891 1577l178 303h242l-248 -303h-172z" />
    <glyph glyph-name="i.loclTRK" horiz-adv-x="507" 
d="M109 0l110 1040h180l-110 -1040h-180zM217 1333q0 57 39 96t96 39q48 0 79.5 -30.5t31.5 -77.5q0 -61 -38.5 -99t-94.5 -38q-48 0 -80.5 31.5t-32.5 78.5z" />
    <glyph glyph-name="uni006A0301" horiz-adv-x="507" 
d="M-90 -471q-98 0 -174 33l45 157q64 -22 123 -22q174 0 196 215l119 1128h180l-120 -1153q-20 -181 -111.5 -269.5t-257.5 -88.5zM211 1202l127 287h227l-192 -287h-162z" />
    <glyph glyph-name="a.ss01" horiz-adv-x="1189" 
d="M870 651q12 126 -48.5 189t-186.5 63q-198 0 -356 -164l-121 113q90 102 217.5 157.5t275.5 55.5q202 0 311.5 -108t88.5 -306l-70 -651h-180l10 92q-160 -117 -375 -117q-170 0 -269 80.5t-99 210.5q0 109 61.5 189.5t162 120.5t226.5 40h348zM254 279q0 -68 57.5 -108
t165.5 -40q205 0 352 135l21 199h-340q-117 0 -186.5 -48.5t-69.5 -137.5z" />
    <glyph glyph-name="aacute.ss01" horiz-adv-x="1189" 
d="M870 651q12 126 -48.5 189t-186.5 63q-198 0 -356 -164l-121 113q90 102 217.5 157.5t275.5 55.5q202 0 311.5 -108t88.5 -306l-70 -651h-180l10 92q-160 -117 -375 -117q-170 0 -269 80.5t-99 210.5q0 109 61.5 189.5t162 120.5t226.5 40h348zM254 279q0 -68 57.5 -108
t165.5 -40q205 0 352 135l21 199h-340q-117 0 -186.5 -48.5t-69.5 -137.5zM532 1202l168 287h230l-234 -287h-164z" />
    <glyph glyph-name="abreve.ss01" horiz-adv-x="1189" 
d="M870 651q12 126 -48.5 189t-186.5 63q-198 0 -356 -164l-121 113q90 102 217.5 157.5t275.5 55.5q202 0 311.5 -108t88.5 -306l-70 -651h-180l10 92q-160 -117 -375 -117q-170 0 -269 80.5t-99 210.5q0 109 61.5 189.5t162 120.5t226.5 40h348zM254 279q0 -68 57.5 -108
t165.5 -40q205 0 352 135l21 199h-340q-117 0 -186.5 -48.5t-69.5 -137.5zM397 1481h148q-14 -158 112 -158q59 0 97.5 39.5t48.5 118.5h147q-15 -138 -95.5 -208.5t-209.5 -70.5q-131 0 -196 72.5t-52 206.5z" />
    <glyph glyph-name="uni01CE.ss01" horiz-adv-x="1189" 
d="M870 651q12 126 -48.5 189t-186.5 63q-198 0 -356 -164l-121 113q90 102 217.5 157.5t275.5 55.5q202 0 311.5 -108t88.5 -306l-70 -651h-180l10 92q-160 -117 -375 -117q-170 0 -269 80.5t-99 210.5q0 109 61.5 189.5t162 120.5t226.5 40h348zM254 279q0 -68 57.5 -108
t165.5 -40q205 0 352 135l21 199h-340q-117 0 -186.5 -48.5t-69.5 -137.5zM356 1489h166l127 -178l168 178h178l-270 -287h-160z" />
    <glyph glyph-name="acircumflex.ss01" horiz-adv-x="1189" 
d="M870 651q12 126 -48.5 189t-186.5 63q-198 0 -356 -164l-121 113q90 102 217.5 157.5t275.5 55.5q202 0 311.5 -108t88.5 -306l-70 -651h-180l10 92q-160 -117 -375 -117q-170 0 -269 80.5t-99 210.5q0 109 61.5 189.5t162 120.5t226.5 40h348zM254 279q0 -68 57.5 -108
t165.5 -40q205 0 352 135l21 199h-340q-117 0 -186.5 -48.5t-69.5 -137.5zM326 1202l270 287h160l209 -287h-166l-127 178l-168 -178h-178z" />
    <glyph glyph-name="adieresis.ss01" horiz-adv-x="1189" 
d="M870 651q12 126 -48.5 189t-186.5 63q-198 0 -356 -164l-121 113q90 102 217.5 157.5t275.5 55.5q202 0 311.5 -108t88.5 -306l-70 -651h-180l10 92q-160 -117 -375 -117q-170 0 -269 80.5t-99 210.5q0 109 61.5 189.5t162 120.5t226.5 40h348zM254 279q0 -68 57.5 -108
t165.5 -40q205 0 352 135l21 199h-340q-117 0 -186.5 -48.5t-69.5 -137.5zM332 1333q0 57 39 96t96 39q48 0 79.5 -30.5t31.5 -77.5q0 -61 -39 -99t-95 -38q-47 0 -79.5 31.5t-32.5 78.5zM741 1333q0 57 39.5 96t96.5 39q47 0 78.5 -30.5t31.5 -77.5q0 -61 -38.5 -99
t-94.5 -38q-48 0 -80.5 31.5t-32.5 78.5z" />
    <glyph glyph-name="agrave.ss01" horiz-adv-x="1189" 
d="M870 651q12 126 -48.5 189t-186.5 63q-198 0 -356 -164l-121 113q90 102 217.5 157.5t275.5 55.5q202 0 311.5 -108t88.5 -306l-70 -651h-180l10 92q-160 -117 -375 -117q-170 0 -269 80.5t-99 210.5q0 109 61.5 189.5t162 120.5t226.5 40h348zM254 279q0 -68 57.5 -108
t165.5 -40q205 0 352 135l21 199h-340q-117 0 -186.5 -48.5t-69.5 -137.5zM426 1489h217l107 -287h-152z" />
    <glyph glyph-name="amacron.ss01" horiz-adv-x="1189" 
d="M870 651q12 126 -48.5 189t-186.5 63q-198 0 -356 -164l-121 113q90 102 217.5 157.5t275.5 55.5q202 0 311.5 -108t88.5 -306l-70 -651h-180l10 92q-160 -117 -375 -117q-170 0 -269 80.5t-99 210.5q0 109 61.5 189.5t162 120.5t226.5 40h348zM254 279q0 -68 57.5 -108
t165.5 -40q205 0 352 135l21 199h-340q-117 0 -186.5 -48.5t-69.5 -137.5zM383 1260l14 139h537l-14 -139h-537z" />
    <glyph glyph-name="aogonek.ss01" horiz-adv-x="1189" 
d="M870 651q12 126 -48.5 189t-186.5 63q-198 0 -356 -164l-121 113q90 102 217.5 157.5t275.5 55.5q202 0 311.5 -108t88.5 -306l-70 -651q-86 -62 -134 -116t-48 -109q0 -70 88 -70q32 0 65 8l-16 -141q-45 -10 -90 -10q-97 0 -154 47.5t-57 126.5q0 83 54.5 152
t144.5 112h-33l10 92q-160 -117 -375 -117q-170 0 -269 80.5t-99 210.5q0 109 61.5 189.5t162 120.5t226.5 40h348zM254 279q0 -68 57.5 -108t165.5 -40q205 0 352 135l21 199h-340q-117 0 -186.5 -48.5t-69.5 -137.5z" />
    <glyph glyph-name="aring.ss01" horiz-adv-x="1189" 
d="M870 651q12 126 -48.5 189t-186.5 63q-198 0 -356 -164l-121 113q90 102 217.5 157.5t275.5 55.5q202 0 311.5 -108t88.5 -306l-70 -651h-180l10 92q-160 -117 -375 -117q-170 0 -269 80.5t-99 210.5q0 109 61.5 189.5t162 120.5t226.5 40h348zM254 279q0 -68 57.5 -108
t165.5 -40q205 0 352 135l21 199h-340q-117 0 -186.5 -48.5t-69.5 -137.5zM446 1378q0 92 68.5 158t165.5 66q85 0 145 -56t60 -135q0 -92 -69 -157.5t-167 -65.5q-86 0 -144.5 55t-58.5 135zM575 1382q0 -34 21.5 -55.5t58.5 -21.5q43 0 72 29t29 73q0 35 -21.5 56.5
t-58.5 21.5q-43 0 -72 -29.5t-29 -73.5z" />
    <glyph glyph-name="atilde.ss01" horiz-adv-x="1189" 
d="M870 651q12 126 -48.5 189t-186.5 63q-198 0 -356 -164l-121 113q90 102 217.5 157.5t275.5 55.5q202 0 311.5 -108t88.5 -306l-70 -651h-180l10 92q-160 -117 -375 -117q-170 0 -269 80.5t-99 210.5q0 109 61.5 189.5t162 120.5t226.5 40h348zM254 279q0 -68 57.5 -108
t165.5 -40q205 0 352 135l21 199h-340q-117 0 -186.5 -48.5t-69.5 -137.5zM322 1282q25 92 81.5 142.5t133.5 50.5t161 -72q60 -49 97 -49q52 0 84 94l118 -39q-26 -92 -82 -142t-133 -50t-164 71q-56 49 -94 49q-52 0 -84 -94z" />
    <glyph glyph-name="y.ss02" horiz-adv-x="1243" 
d="M467 -471q-260 0 -438 164l116 133q88 -75 165 -104t167 -29q159 0 256.5 84.5t112.5 234.5l12 109q-151 -129 -358 -129q-186 0 -282.5 114t-74.5 318l66 616h180l-61 -577q-15 -152 42.5 -229.5t182.5 -77.5q183 0 324 147l77 737h181l-109 -1028q-25 -228 -170 -355.5
t-389 -127.5z" />
    <glyph glyph-name="yacute.ss02" horiz-adv-x="1243" 
d="M467 -471q-260 0 -438 164l116 133q88 -75 165 -104t167 -29q159 0 256.5 84.5t112.5 234.5l12 109q-151 -129 -358 -129q-186 0 -282.5 114t-74.5 318l66 616h180l-61 -577q-15 -152 42.5 -229.5t182.5 -77.5q183 0 324 147l77 737h181l-109 -1028q-25 -228 -170 -355.5
t-389 -127.5zM582 1202l168 287h229l-234 -287h-163z" />
    <glyph glyph-name="ycircumflex.ss02" horiz-adv-x="1243" 
d="M467 -471q-260 0 -438 164l116 133q88 -75 165 -104t167 -29q159 0 256.5 84.5t112.5 234.5l12 109q-151 -129 -358 -129q-186 0 -282.5 114t-74.5 318l66 616h180l-61 -577q-15 -152 42.5 -229.5t182.5 -77.5q183 0 324 147l77 737h181l-109 -1028q-25 -228 -170 -355.5
t-389 -127.5zM375 1202l270 287h160l209 -287h-166l-127 178l-168 -178h-178z" />
    <glyph glyph-name="ydieresis.ss02" horiz-adv-x="1243" 
d="M467 -471q-260 0 -438 164l116 133q88 -75 165 -104t167 -29q159 0 256.5 84.5t112.5 234.5l12 109q-151 -129 -358 -129q-186 0 -282.5 114t-74.5 318l66 616h180l-61 -577q-15 -152 42.5 -229.5t182.5 -77.5q183 0 324 147l77 737h181l-109 -1028q-25 -228 -170 -355.5
t-389 -127.5zM381 1333q0 57 39 96t96 39q48 0 79.5 -30.5t31.5 -77.5q0 -61 -38.5 -99t-94.5 -38q-48 0 -80.5 31.5t-32.5 78.5zM791 1333q0 57 39 96t96 39q47 0 78.5 -30.5t31.5 -77.5q0 -61 -38.5 -99t-94.5 -38q-47 0 -79.5 31.5t-32.5 78.5z" />
    <glyph glyph-name="ygrave.ss02" horiz-adv-x="1243" 
d="M467 -471q-260 0 -438 164l116 133q88 -75 165 -104t167 -29q159 0 256.5 84.5t112.5 234.5l12 109q-151 -129 -358 -129q-186 0 -282.5 114t-74.5 318l66 616h180l-61 -577q-15 -152 42.5 -229.5t182.5 -77.5q183 0 324 147l77 737h181l-109 -1028q-25 -228 -170 -355.5
t-389 -127.5zM475 1489h217l107 -287h-152z" />
    <glyph glyph-name="zero.zero" horiz-adv-x="1400" 
d="M649 -25q-239 0 -375.5 160t-136.5 447q0 141 26.5 270t81 239.5t131.5 192t184 128t233 46.5q238 0 375 -159.5t137 -446.5q0 -141 -26.5 -270t-80.5 -239.5t-131 -192.5t-184.5 -128.5t-233.5 -46.5zM324 580q0 -192 67 -299l549 974q-63 35 -158 35q-97 0 -175 -39.5
t-130 -106.5t-87 -159t-50.5 -193t-15.5 -212zM498 178q72 -35 164 -35q97 0 175 39.5t129.5 107t86.5 159.5t50 193.5t15 213.5q0 191 -69 301z" />
    <glyph glyph-name="zero.lf" horiz-adv-x="1400" 
d="M649 -25q-239 0 -375.5 160t-136.5 447q0 141 26.5 270t81 239.5t131.5 192t184 128t233 46.5q238 0 375 -159.5t137 -446.5q0 -141 -26.5 -270t-80.5 -239.5t-131 -192.5t-184.5 -128.5t-233.5 -46.5zM324 580q0 -217 86.5 -327t251.5 -110q97 0 175 39.5t129.5 107
t86.5 159.5t50 193.5t15 213.5q0 216 -86.5 325t-249.5 109q-97 0 -175 -39.5t-130 -106.5t-87 -159t-50.5 -193t-15.5 -212z" />
    <glyph glyph-name="one.lf" horiz-adv-x="866" 
d="M412 0l131 1229l-400 -193l21 187l434 211h150l-152 -1434h-184z" />
    <glyph glyph-name="two.lf" horiz-adv-x="1191" 
d="M33 0l16 152l576 489q76 65 124.5 112t94 103.5t67 113t21.5 115.5q0 97 -63 151t-177 54q-239 0 -418 -262l-137 105q218 325 563 325q183 0 299.5 -98.5t116.5 -257.5q0 -145 -82.5 -271.5t-236.5 -257.5l-478 -405h730l-19 -168h-997z" />
    <glyph glyph-name="three.lf" horiz-adv-x="1155" 
d="M506 -25q-146 0 -268.5 53.5t-206.5 155.5l127 125q155 -166 360 -166q148 0 244 78t96 201q0 223 -350 223h-125l18 166h164q153 0 247.5 72.5t94.5 193.5q0 98 -67.5 155.5t-196.5 57.5q-210 0 -375 -188l-121 119q212 237 506 237q200 0 319.5 -101t119.5 -265
q0 -129 -73 -227t-196 -136q107 -33 162 -113.5t55 -195.5q0 -199 -152 -322t-382 -123z" />
    <glyph glyph-name="four.lf" horiz-adv-x="1269" 
d="M795 0l32 307h-768l17 158l817 969h225l-102 -965h211l-17 -162h-211l-32 -307h-172zM279 469h565l82 766z" />
    <glyph glyph-name="five.lf" horiz-adv-x="1185" 
d="M524 -25q-294 0 -471 195l125 131q143 -158 357 -158q171 0 274.5 93.5t103.5 248.5q0 116 -72.5 181t-203.5 65q-175 0 -320 -98l-137 86l101 715h837l-18 -168h-670l-59 -437q131 70 293 70q190 0 313 -107.5t123 -293.5q0 -155 -74.5 -274.5t-205.5 -184t-296 -64.5z
" />
    <glyph glyph-name="six.lf" horiz-adv-x="1241" 
d="M578 -25q-214 0 -349 122t-135 325q0 290 281 614l344 398h223l-426 -482l-24 -28q107 43 219 43q194 0 321 -121t127 -311q0 -155 -76.5 -283.5t-210 -202.5t-294.5 -74zM281 434q0 -136 82 -214.5t229 -78.5q170 0 275.5 106t105.5 269q0 132 -82.5 209.5t-228.5 77.5
q-165 0 -324 -125q-57 -126 -57 -244z" />
    <glyph glyph-name="seven.lf" horiz-adv-x="1081" 
d="M147 0l748 1266h-760l19 168h966l-16 -154l-752 -1280h-205z" />
    <glyph glyph-name="eight.lf" horiz-adv-x="1251" 
d="M578 -25q-231 0 -360.5 106t-129.5 271q0 134 78.5 241t208.5 157q-160 91 -160 276q0 126 67.5 225.5t182 153t254.5 53.5q196 0 315 -99.5t119 -252.5q0 -117 -60.5 -213t-164.5 -148q101 -44 155 -125t54 -182q0 -140 -74 -246.5t-200.5 -161.5t-284.5 -55zM274 371
q0 -102 81.5 -166t232.5 -64q162 0 264 78.5t102 208.5q0 106 -80 170t-233 64q-163 0 -265 -78.5t-102 -212.5zM399 1024q0 -94 67 -149.5t191 -55.5q140 0 226 73t86 193q0 96 -67.5 152.5t-192.5 56.5q-140 0 -225 -73t-85 -197z" />
    <glyph glyph-name="nine.lf" horiz-adv-x="1239" 
d="M705 1458q214 0 348.5 -121.5t134.5 -324.5q0 -291 -281 -615l-344 -397h-223l426 481l25 29q-107 -43 -220 -43q-194 0 -321 121t-127 311q0 155 76.5 283.5t210 202t295.5 73.5zM309 918q0 -132 83 -209.5t229 -77.5q164 0 323 125q57 126 57 243q0 136 -82 214.5
t-229 78.5q-170 0 -275.5 -105.5t-105.5 -268.5z" />
    <glyph glyph-name="zero.tf" horiz-adv-x="1331" 
d="M614 -25q-239 0 -375.5 160t-136.5 447q0 141 26.5 270t81 239.5t131.5 192t184 128t233 46.5q238 0 375 -159.5t137 -446.5q0 -141 -26.5 -270t-80.5 -239.5t-131 -192.5t-184.5 -128.5t-233.5 -46.5zM289 580q0 -217 86.5 -327t251.5 -110q97 0 175 39.5t129.5 107
t86.5 159.5t50 193.5t15 213.5q0 216 -86 325t-249 109q-120 0 -211 -59.5t-143.5 -161.5t-78.5 -225t-26 -264z" />
    <glyph glyph-name="one.tf" horiz-adv-x="1331" 
d="M184 0l19 168h397l113 1057l-400 -193l21 191l434 211h150l-134 -1266h369l-18 -168h-951z" />
    <glyph glyph-name="two.tf" horiz-adv-x="1331" 
d="M113 0l16 152l576 489q76 65 124.5 112t94 103.5t67 113t21.5 115.5q0 97 -63 151t-177 54q-239 0 -418 -262l-137 105q218 325 563 325q183 0 299.5 -98.5t116.5 -257.5q0 -145 -82.5 -271.5t-236.5 -257.5l-478 -405h729l-18 -168h-997z" />
    <glyph glyph-name="three.tf" horiz-adv-x="1331" 
d="M594 -25q-146 0 -268.5 53.5t-206.5 155.5l127 125q155 -166 360 -166q148 0 244 78t96 201q0 223 -350 223h-125l18 166h164q153 0 247.5 72.5t94.5 193.5q0 98 -67.5 155.5t-196.5 57.5q-210 0 -375 -188l-120 119q212 237 505 237q200 0 319.5 -101t119.5 -265
q0 -129 -73 -227t-196 -136q107 -33 162 -113.5t55 -195.5q0 -199 -152 -322t-382 -123z" />
    <glyph glyph-name="four.tf" horiz-adv-x="1331" 
d="M842 0l32 307h-768l17 158l817 969h225l-102 -965h211l-17 -162h-210l-33 -307h-172zM326 469h565l82 766z" />
    <glyph glyph-name="five.tf" horiz-adv-x="1331" 
d="M604 -25q-294 0 -471 195l125 131q143 -158 356 -158q171 0 275 93.5t104 248.5q0 116 -72.5 181t-203.5 65q-175 0 -320 -98l-137 86l100 715h838l-18 -168h-670l-59 -437q131 70 292 70q190 0 313.5 -107.5t123.5 -293.5q0 -155 -74.5 -274.5t-205.5 -184t-296 -64.5z
" />
    <glyph glyph-name="six.tf" horiz-adv-x="1331" 
d="M618 -25q-213 0 -348 122t-135 325q0 290 281 614l344 398h223l-426 -482l-25 -28q107 43 220 43q194 0 321 -121t127 -311q0 -155 -76.5 -283.5t-210 -202.5t-295.5 -74zM322 434q0 -136 82 -214.5t229 -78.5q170 0 275.5 106t105.5 269q0 132 -83 209.5t-229 77.5
q-164 0 -323 -125q-57 -126 -57 -244z" />
    <glyph glyph-name="seven.tf" horiz-adv-x="1331" 
d="M279 0l747 1266h-760l19 168h966l-16 -154l-752 -1280h-204z" />
    <glyph glyph-name="eight.tf" horiz-adv-x="1331" 
d="M618 -25q-231 0 -360 106t-129 271q0 134 78.5 241t208.5 157q-160 91 -160 276q0 126 67.5 225.5t182 153t254.5 53.5q196 0 315 -99.5t119 -252.5q0 -117 -60.5 -213t-164.5 -148q101 -44 155 -125t54 -182q0 -140 -74.5 -246.5t-201 -161.5t-284.5 -55zM315 371
q0 -102 81.5 -166t232.5 -64q162 0 264 78.5t102 208.5q0 106 -80 170t-233 64q-163 0 -265 -78.5t-102 -212.5zM440 1024q0 -94 67 -149.5t191 -55.5q140 0 226 73t86 193q0 96 -67.5 152.5t-192.5 56.5q-140 0 -225 -73t-85 -197z" />
    <glyph glyph-name="nine.tf" horiz-adv-x="1331" 
d="M754 1458q214 0 348.5 -121.5t134.5 -324.5q0 -291 -281 -615l-344 -397h-223l426 481l25 29q-107 -43 -219 -43q-194 0 -321.5 121t-127.5 311q0 155 76.5 283.5t210 202t295.5 73.5zM358 918q0 -132 83 -209.5t229 -77.5q164 0 323 125q58 129 58 243
q0 136 -82.5 214.5t-229.5 78.5q-170 0 -275.5 -105.5t-105.5 -268.5z" />
    <glyph glyph-name="zero.tf.zero" horiz-adv-x="1331" 
d="M614 -25q-239 0 -375.5 160t-136.5 447q0 141 26.5 270t81 239.5t131.5 192t184 128t233 46.5q238 0 375 -159.5t137 -446.5q0 -141 -26.5 -270t-80.5 -239.5t-131 -192.5t-184.5 -128.5t-233.5 -46.5zM289 580q0 -192 67 -299l549 974q-63 35 -157 35q-120 0 -211 -59.5
t-143.5 -161.5t-78.5 -225t-26 -264zM463 178q72 -35 164 -35q97 0 175 39.5t129.5 107t86.5 159.5t50 193.5t15 213.5q0 191 -69 301z" />
    <glyph glyph-name="colon.case" horiz-adv-x="440" 
d="M190 225q-52 0 -84 32t-32 83q0 63 41 103t102 40q49 0 82 -33.5t33 -80.5q0 -65 -40.5 -104.5t-101.5 -39.5zM150 1059q0 63 41 103t102 40q49 0 82 -34t33 -81q0 -65 -40.5 -104t-101.5 -39q-52 0 -84 32t-32 83z" />
    <glyph glyph-name="exclamdown.case" horiz-adv-x="522" 
d="M240 999h147l-80 -991h-196zM217 1313q0 63 41 103t102 40q49 0 82 -34t33 -81q0 -65 -40 -104t-101 -39q-52 0 -84.5 32t-32.5 83z" />
    <glyph glyph-name="questiondown.case" horiz-adv-x="989" 
d="M682 907q-11 -104 -50 -169.5t-143 -145.5l-108 -84q-67 -52 -98 -96.5t-31 -106.5q0 -73 49.5 -116.5t138.5 -43.5q104 0 187.5 66.5t136.5 196.5l164 -64q-65 -168 -195 -263t-299 -95q-157 0 -260.5 86t-103.5 221q0 182 221 352l108 84q60 46 78.5 78t24.5 100l10 94
h180zM508 1315q0 65 40 104t101 39q52 0 84.5 -32t32.5 -83q0 -63 -41 -103t-102 -40q-49 0 -82 34t-33 81z" />
    <glyph glyph-name="hyphen.case" horiz-adv-x="800" 
d="M94 637l19 160h635l-19 -160h-635z" />
    <glyph glyph-name="endash.case" horiz-adv-x="1189" 
d="M94 637l19 160h1024l-19 -160h-1024z" />
    <glyph glyph-name="emdash.case" horiz-adv-x="1804" 
d="M94 637l19 160h1638l-18 -160h-1639z" />
    <glyph glyph-name="parenleft.case" horiz-adv-x="665" 
d="M393 -182q-116 160 -176.5 355.5t-60.5 406.5q0 281 114.5 556t313.5 480l125 -98q-161 -172 -264 -430t-103 -492q0 -191 54.5 -373.5t142.5 -306.5z" />
    <glyph glyph-name="parenright.case" horiz-adv-x="663" 
d="M313 1616q116 -160 177 -356t61 -406q0 -281 -114.5 -556t-313.5 -480l-125 98q161 172 264 430t103 492q0 191 -54.5 373.5t-142.5 306.5z" />
    <glyph glyph-name="braceleft.case" horiz-adv-x="761" 
d="M449 -160q-143 0 -208.5 63.5t-50.5 196.5l43 418q6 62 -21 90.5t-97 28.5h-25l16 160h25q70 0 103.5 28t41.5 90l43 418q14 136 87.5 198t226.5 62h168l-17 -159h-155q-120 0 -131 -117l-41 -387q-15 -161 -158 -209l-2 -8q133 -47 115 -209l-39 -387q-14 -117 106 -117
h156l-19 -160h-167z" />
    <glyph glyph-name="braceright.case" horiz-adv-x="761" 
d="M354 1593q143 0 208 -63.5t50 -196.5l-43 -418q-6 -62 21.5 -90t97.5 -28h25l-17 -160h-24q-70 0 -104 -28.5t-42 -90.5l-43 -418q-14 -136 -87 -198t-226 -62h-168l16 160h156q120 0 131 117l41 387q15 161 158 209l2 8q-133 47 -115 209l39 387q14 117 -106 117h-156
l18 159h168z" />
    <glyph glyph-name="bracketleft.case" horiz-adv-x="733" 
d="M113 -160l184 1753h475l-16 -159h-295l-152 -1434h297l-18 -160h-475z" />
    <glyph glyph-name="bracketright.case" horiz-adv-x="733" 
d="M662 1593l-185 -1753h-475l16 160h295l152 1434h-297l18 159h476z" />
    <glyph glyph-name="guillemotleft.case" horiz-adv-x="1187" 
d="M395 279l-262 438l354 438h205l-352 -438l260 -438h-205zM573 717l355 438h205l-353 -438l260 -438h-204z" />
    <glyph glyph-name="guillemotright.case" horiz-adv-x="1189" 
d="M836 1155l262 -438l-355 -438h-204l352 438l-260 438h205zM98 279l353 438l-261 438h205l262 -438l-354 -438h-205z" />
    <glyph glyph-name="guilsinglleft.case" horiz-adv-x="747" 
d="M395 279l-262 438l354 438h205l-352 -438l260 -438h-205z" />
    <glyph glyph-name="guilsinglright.case" horiz-adv-x="749" 
d="M395 1155l262 -438l-354 -438h-205l353 438l-261 438h205z" />
    <glyph glyph-name="florin.tf" horiz-adv-x="1331" 
d="M283 -25q-51 0 -95 13l17 157q41 -6 71 -6q79 0 127.5 42t79.5 153l119 397h-229l14 143h256l84 281q46 158 136 230.5t227 72.5q52 0 96 -12l-19 -158q-37 6 -71 6q-79 0 -127 -41.5t-80 -152.5l-66 -226h264l-14 -143h-293l-133 -452q-47 -160 -134.5 -232t-229.5 -72z
" />
    <glyph glyph-name="at.case" horiz-adv-x="1953" 
d="M961 -156q-241 0 -427.5 95.5t-289.5 268.5t-103 396q0 199 76.5 380t206 313t310.5 210t382 78q159 0 301 -52t246 -143.5t164.5 -225.5t60.5 -290q0 -155 -50 -288t-148 -217t-224 -84q-78 0 -138.5 32t-90.5 93q-126 -111 -285 -111q-151 0 -253.5 103.5t-102.5 259.5
q0 122 57.5 227t158 168t218.5 63q143 0 232 -92l8 74h164l-58 -531q-15 -151 105 -151q80 0 138 67.5t84 163.5t26 203q0 179 -80 312t-218.5 200.5t-316.5 67.5q-170 0 -319.5 -63.5t-255.5 -172t-167 -259.5t-61 -321q0 -284 177.5 -454t480.5 -170q239 0 411 94l62 -127
q-204 -117 -481 -117zM762 674q0 -103 62.5 -165.5t160.5 -62.5q63 0 122 26t103 75q0 4 1 12t1 12l33 299q-35 52 -89.5 77.5t-115.5 25.5q-119 0 -198.5 -87.5t-79.5 -211.5z" />
    <glyph glyph-name="uni20BF.tf" horiz-adv-x="1331" 
d="M307 -180l21 180h-240l152 1434h237l19 180h163l-18 -180h168h16l19 180h164l-21 -207q108 -37 169 -118t61 -189q0 -114 -52 -199.5t-147 -128.5q117 -41 176 -120.5t59 -188.5q0 -184 -111.5 -301t-301.5 -150l-21 -192h-164l21 180h-184l-21 -180h-164zM295 168h414
q156 0 254 78t98 207q0 103 -77.5 165t-221.5 62h-414zM367 844h381q127 0 202.5 65.5t75.5 173.5q0 89 -59.5 136t-175.5 47h-381z" />
    <glyph glyph-name="cent.tf" horiz-adv-x="1331" 
d="M584 0l20 199q-179 23 -287 147t-108 305q0 224 144 389t362 191l20 203h119l-20 -201q111 -9 204 -62.5t152 -144.5l-146 -106q-88 137 -229 155l-76 -721q154 21 273 162l133 -96q-76 -101 -186 -159t-236 -66l-21 -195h-118zM389 664q0 -121 64 -204t168 -104l75 713
q-135 -28 -221 -141t-86 -264z" />
    <glyph glyph-name="currency.tf" horiz-adv-x="1331" 
d="M651 319q-131 0 -225 72l-170 -153l-88 98l172 156q-47 80 -47 184q0 152 90 272l-135 150l110 98l134 -149q103 67 231 67q131 0 225 -72l170 154l88 -98l-172 -156q47 -80 47 -184q0 -153 -90 -273l135 -149l-110 -98l-133 147q-106 -66 -232 -66zM453 684
q0 -96 56.5 -153.5t152.5 -57.5q117 0 188.5 80.5t71.5 198.5q0 95 -57 152t-152 57q-115 0 -187.5 -81.5t-72.5 -195.5z" />
    <glyph glyph-name="dollar.tf" horiz-adv-x="1331" 
d="M545 -86l14 133q-236 22 -405 168l110 139q142 -123 311 -147l50 459l-95 22q-135 33 -206.5 111.5t-71.5 187.5q0 115 61.5 205.5t164.5 141t231 57.5l12 129h115l-15 -131q108 -12 205 -57.5t166 -119.5l-123 -125q-106 121 -264 142l-43 -428l110 -29
q133 -34 203 -111.5t70 -191.5q0 -191 -131 -303t-340 -123l-15 -129h-114zM426 1008q0 -63 48.5 -105.5t152.5 -68.5l22 -7l41 404q-115 -11 -189.5 -71t-74.5 -152zM690 205q125 9 203 74t78 165q0 68 -47 112.5t-148 70.5l-41 10z" />
    <glyph glyph-name="Euro.tf" horiz-adv-x="1331" 
d="M768 -25q-209 0 -341.5 139t-152.5 386h-184l12 127h168q3 84 19 180h-166l12 127h184q69 237 221.5 380.5t366.5 143.5q122 0 229 -56.5t169 -158.5l-140 -108q-45 81 -114.5 123t-153.5 42q-139 0 -238.5 -100t-152.5 -266h495l-53 -127h-475q-15 -88 -18 -180h514
l-54 -127h-456q20 -176 103 -271.5t212 -95.5q180 0 309 164l125 -102q-76 -105 -193 -162.5t-247 -57.5z" />
    <glyph glyph-name="sterling.tf" horiz-adv-x="1331" 
d="M160 121q150 97 226.5 196.5t76.5 229.5q0 37 -6 71h-240l14 144h179q-6 13 -24.5 51.5t-26 57t-19.5 51t-16.5 63t-4.5 62.5q0 174 138 292.5t340 118.5q133 0 242 -56.5t173 -160.5l-143 -111q-107 164 -281 164q-127 0 -207.5 -69.5t-80.5 -175.5q0 -34 10 -73
t21 -66.5t32 -75.5t31 -72h407l-14 -144h-352q4 -40 4 -63q0 -95 -37.5 -182.5t-103.5 -153.5q30 6 61 6q57 0 111.5 -20t102 -40t89.5 -20q48 0 87.5 26.5t84.5 90.5l127 -82q-55 -98 -135 -151.5t-178 -53.5q-50 0 -97 15t-79.5 33.5t-84.5 33.5t-110 15q-107 0 -235 -97z
" />
    <glyph glyph-name="yen.tf" horiz-adv-x="1331" 
d="M518 0l29 272h-365l15 127h364l19 181h-365l14 127h303l-313 727h193l276 -670l416 670h201l-467 -727h305l-15 -127h-364l-19 -181h365l-14 -127h-365l-29 -272h-184z" />
    <glyph glyph-name="uni0308.case" 
d="M473 1204q-51 0 -86 34t-35 85q0 60 42 101.5t102 41.5q51 0 84.5 -32.5t33.5 -83.5q0 -64 -41 -105t-100 -41zM786 1323q0 60 42 101.5t102 41.5q51 0 85 -32.5t34 -83.5q0 -64 -41.5 -105t-100.5 -41q-51 0 -86 34t-35 85z" />
    <glyph glyph-name="uni0307.case" 
d="M690 1206q-51 0 -85 33t-34 84q0 60 41 100.5t101 40.5q52 0 84 -31t32 -83q0 -64 -40 -104t-99 -40z" />
    <glyph glyph-name="gravecomb.case" 
d="M674 1184l-182 303h225l112 -303h-155z" />
    <glyph glyph-name="acutecomb.case" 
d="M520 1184l178 303h242l-248 -303h-172z" />
    <glyph glyph-name="uni030B.case" 
d="M739 1184l162 303h195l-213 -303h-144zM399 1184l160 303h197l-213 -303h-144z" />
    <glyph glyph-name="uni0302.case" 
d="M346 1184l287 303h168l221 -303h-176l-135 188l-176 -188h-189z" />
    <glyph glyph-name="uni030C.case" 
d="M600 1184l-221 303h176l135 -189l176 189h189l-287 -303h-168z" />
    <glyph glyph-name="uni0306.case" 
d="M686 1184q-139 0 -208 76.5t-56 218.5h156q-9 -84 23 -126t97 -42q63 0 103.5 42t50.5 126h156q-15 -145 -99 -220t-223 -75z" />
    <glyph glyph-name="uni030A.case" 
d="M686 1161q-88 0 -147.5 56.5t-59.5 138.5q0 93 69.5 160t168.5 67q88 0 149.5 -56t61.5 -138q0 -94 -70.5 -161t-171.5 -67zM610 1360q0 -36 21.5 -58t60.5 -22q44 0 74.5 30t30.5 74q0 36 -22 58t-62 22q-43 0 -73 -30t-30 -74z" />
    <glyph glyph-name="tildecomb.case" 
d="M342 1272q21 99 83 152t146 53q36 0 71 -13.5t53.5 -26t47.5 -36.5q23 -19 35 -27.5t30.5 -17t35.5 -8.5q63 0 92 100l127 -41q-21 -98 -84 -151.5t-148 -53.5q-36 0 -71 13.5t-53.5 26t-47.5 36.5q-23 19 -34.5 27.5t-30 17t-35.5 8.5q-63 0 -92 -100z" />
    <glyph glyph-name="uni0304.case" 
d="M408 1251l14 148h569l-14 -148h-569z" />
    <glyph glyph-name="uni0315.case" 
d="M561 1026q72 58 105 105.5t36 95.5q-20 -4 -32 -4q-46 0 -75.5 31.5t-29.5 78.5q0 56 39.5 90.5t93.5 34.5q58 0 95.5 -43.5t37.5 -114.5q0 -97 -58.5 -185.5t-156.5 -156.5z" />
    <glyph glyph-name="uni0326.case" 
d="M469 -520q57 72 63 137q-20 -4 -32 -4q-47 0 -76 29t-29 75q0 54 40 87.5t93 33.5q57 0 95.5 -39.5t38.5 -105.5q0 -50 -22.5 -110.5t-55.5 -102.5h-115z" />
    <glyph glyph-name="uni0327.case" 
d="M242 -375l282 443h148l-211 -443h-219z" />
    <glyph glyph-name="uni0328.case" 
d="M573 -465q-103 0 -163 50t-60 134q0 108 85.5 193t217.5 123l66 -35q-93 -67 -143 -123.5t-50 -118.5q0 -71 92 -71q36 0 70 10l-16 -152q-48 -10 -99 -10z" />
    <glyph glyph-name="uni0308.narrow" 
d="M512 1223q-48 0 -80.5 31.5t-32.5 78.5q0 57 39.5 96t96.5 39q47 0 78.5 -30.5t31.5 -77.5q0 -61 -38.5 -99t-94.5 -38zM756 1333q0 57 39 96t96 39q47 0 78.5 -30.5t31.5 -77.5q0 -61 -38.5 -99t-94.5 -38q-47 0 -79.5 31.5t-32.5 78.5z" />
    <glyph glyph-name="gravecomb.narrow" 
d="M694 1202l-131 287h217l66 -287h-152z" />
    <glyph glyph-name="acutecomb.narrow" 
d="M526 1202l127 287h228l-193 -287h-162z" />
    <glyph glyph-name="uni0302.narrow" 
d="M395 1202l250 287h143l189 -287h-160l-108 172l-146 -172h-168z" />
    <glyph glyph-name="uni030C.narrow" 
d="M614 1202l-188 287h160l108 -172l146 172h168l-250 -287h-144z" />
    <glyph glyph-name="uni0306.narrow" 
d="M692 1202q-123 0 -185 72t-52 207h137q-14 -158 106 -158q58 0 95.5 39.5t44.5 118.5h137q-15 -139 -88 -209t-195 -70z" />
    <glyph glyph-name="tildecomb.narrow" 
d="M379 1276q21 90 77.5 141t127.5 51q76 0 147 -71q53 -49 88 -49q60 0 88 94l115 -37q-21 -90 -76.5 -141.5t-126.5 -51.5q-77 0 -149 72q-49 49 -88 49q-60 0 -88 -94z" />
    <glyph glyph-name="uni0304.narrow" 
d="M442 1262l15 139h499l-14 -139h-500z" />
    <glyph glyph-name="uni0328.narrow" 
d="M580 -438q-87 0 -139 47t-52 123q0 92 75 176t179 119l62 -27q-76 -69 -115 -121.5t-39 -105.5q0 -68 72 -68q22 0 53 8l-17 -141q-42 -10 -79 -10z" />
    </font>
</defs>
</svg>
