<?xml version="1.0" standalone="no"?>
<!DOCTYPE svg PUBLIC "-//W3C//DTD SVG 1.1//EN" "http://www.w3.org/Graphics/SVG/1.1/DTD/svg11.dtd" >
<svg xmlns="http://www.w3.org/2000/svg" xmlns:xlink="http://www.w3.org/1999/xlink" version="1.1">
<metadata>
Created by FontForge 20201107 at Mon Nov  4 15:40:52 2024
 By 
Copyright (c) Andrew Lethbridge
</metadata>
<defs>
<font id="BRCandor-Regular" horiz-adv-x="0" >
  <font-face 
    font-family="BR Candor"
    font-weight="400"
    font-stretch="normal"
    units-per-em="2048"
    panose-1="0 0 0 0 0 0 0 0 0 0"
    ascent="1577"
    descent="-471"
    x-height="1040"
    cap-height="1434"
    bbox="-410 -520 2546 1976"
    underline-thickness="143"
    underline-position="-357"
    unicode-range="U+000D-2B51"
  />
<missing-glyph horiz-adv-x="1568" 
d="M195 0v1434h1179v-1434h-1179zM487 1018l119 -80q72 127 195 127q54 0 85.5 -25t31.5 -75q0 -55 -62 -105l-65 -53q-66 -54 -86.5 -93t-20.5 -108v-63h156v57q0 41 10.5 61t46.5 50l59 49q66 55 93.5 104.5t27.5 106.5q0 106 -76 171.5t-198 65.5q-107 0 -191.5 -52
t-124.5 -138zM657 322q0 -47 29.5 -77t75.5 -30t75 30t29 77t-29 76.5t-75 29.5t-75.5 -29.5t-29.5 -76.5z" />
    <glyph glyph-name=".notdef" horiz-adv-x="1568" 
d="M195 0v1434h1179v-1434h-1179zM487 1018l119 -80q72 127 195 127q54 0 85.5 -25t31.5 -75q0 -55 -62 -105l-65 -53q-66 -54 -86.5 -93t-20.5 -108v-63h156v57q0 41 10.5 61t46.5 50l59 49q66 55 93.5 104.5t27.5 106.5q0 106 -76 171.5t-198 65.5q-107 0 -191.5 -52
t-124.5 -138zM657 322q0 -47 29.5 -77t75.5 -30t75 30t29 77t-29 76.5t-75 29.5t-75.5 -29.5t-29.5 -76.5z" />
    <glyph glyph-name=".null" 
 />
    <glyph glyph-name="nonmarkingreturn" horiz-adv-x="682" 
 />
    <glyph glyph-name="CR" unicode="&#xd;" horiz-adv-x="522" 
 />
    <glyph glyph-name="space" unicode=" " horiz-adv-x="522" 
 />
    <glyph glyph-name="exclam" unicode="!" horiz-adv-x="524" 
d="M188 442l-24 992h196l-24 -992h-148zM133 115q0 55 36.5 92t92.5 37t92.5 -37t36.5 -92t-36.5 -92t-92.5 -37t-92.5 37t-36.5 92z" />
    <glyph glyph-name="quotedbl" unicode="&#x22;" horiz-adv-x="733" 
d="M135 905l-33 553h189l-33 -553h-123zM442 1458h189l-33 -553h-123z" />
    <glyph glyph-name="numbersign" unicode="#" horiz-adv-x="1441" 
d="M762 31l76 385h-353l-75 -385h-164l76 385h-220v143h248l62 315h-224v144h252l76 385h164l-76 -385h352l76 385h164l-76 -385h219v-144h-247l-62 -315h223v-143h-252l-75 -385h-164zM514 559h352l62 315h-353z" />
    <glyph glyph-name="dollar" unicode="$" horiz-adv-x="1150" 
d="M520 -86v131q-248 22 -428 170l103 141q149 -125 325 -149v455l-98 24q-151 36 -230 122t-79 210q0 153 114.5 257t300.5 116v129h115v-131q111 -9 213 -55t180 -122l-114 -125q-118 121 -279 142v-428l117 -29q305 -74 305 -340q0 -165 -116 -271t-314 -116v-131h-115z
M287 1028q0 -72 53 -119t168 -75l20 -5v402q-113 -9 -177 -65t-64 -138zM635 205q117 9 186.5 68.5t69.5 148.5q0 76 -52 126t-163 77l-41 10v-430z" />
    <glyph glyph-name="percent" unicode="%" horiz-adv-x="1783" 
d="M336 0l930 1434h182l-930 -1434h-182zM82 1094q0 153 104.5 258.5t257.5 105.5t258 -105.5t105 -258.5t-105 -259t-258 -106t-257.5 106t-104.5 259zM236 1094q0 -98 57 -161t151 -63t151.5 63t57.5 161t-57.5 160.5t-151.5 62.5t-151 -62.5t-57 -160.5zM977 340
q0 153 104.5 259t257.5 106t258 -106t105 -259t-105 -259t-258 -106t-257.5 106t-104.5 259zM1130 340q0 -99 57 -161t152 -62t152 62t57 161t-57 161t-152 62t-152 -62t-57 -161z" />
    <glyph glyph-name="ampersand" unicode="&#x26;" horiz-adv-x="1325" 
d="M1087 0l-122 141q-172 -166 -408 -166q-203 0 -334 110.5t-131 279.5q0 116 70.5 215t224.5 188l14 8l-2 2q-97 111 -138.5 191t-41.5 159q0 140 106.5 235t270.5 95q161 0 267 -90.5t106 -232.5q0 -101 -60.5 -192.5t-183.5 -162.5l-76 -43l305 -348q66 104 129 254
l150 -70q-77 -185 -168 -311l229 -262h-207zM272 371q0 -109 76.5 -172.5t206.5 -63.5q173 0 297 127l-350 400l-15 -9q-117 -68 -166 -135.5t-49 -146.5zM391 1130q0 -99 119 -235l39 -43l100 57q152 87 152 211q0 86 -58 136.5t-147 50.5q-90 0 -147.5 -50.5t-57.5 -126.5
z" />
    <glyph glyph-name="quotesingle" unicode="'" horiz-adv-x="393" 
d="M135 905l-33 553h189l-33 -553h-123z" />
    <glyph glyph-name="parenleft" unicode="(" horiz-adv-x="663" 
d="M467 -254q-156 182 -240 417t-84 482t84 482t240 417l135 -98q-118 -143 -196 -362.5t-78 -438.5t78 -438.5t196 -362.5z" />
    <glyph glyph-name="parenright" unicode=")" horiz-adv-x="663" 
d="M61 -156q119 144 197 363.5t78 437.5t-78 437.5t-197 363.5l136 98q156 -182 239.5 -416.5t83.5 -482.5t-83.5 -482.5t-239.5 -416.5z" />
    <glyph glyph-name="asterisk" unicode="*" horiz-adv-x="995" 
d="M201 772l192 252l-301 88l45 137l299 -106l-10 315h143l-10 -315l299 106l45 -137l-301 -88l193 -252l-119 -84l-178 262l-179 -262z" />
    <glyph glyph-name="plus" unicode="+" horiz-adv-x="1331" 
d="M582 178v391h-367v160h367v391h168v-391h366v-160h-366v-391h-168z" />
    <glyph glyph-name="comma" unicode="," horiz-adv-x="471" 
d="M104 -281q142 142 142 277q-10 -2 -29 -2q-55 0 -90 36t-35 89t37.5 89t95.5 36q68 0 111 -52.5t43 -144.5q0 -104 -52.5 -208.5t-154.5 -190.5z" />
    <glyph glyph-name="hyphen" unicode="-" horiz-adv-x="798" 
d="M82 549v160h635v-160h-635z" />
    <glyph glyph-name="period" unicode="." horiz-adv-x="442" 
d="M221 -14q-55 0 -92 37t-37 92t37 92t92 37t92 -37t37 -92t-37 -92t-92 -37z" />
    <glyph glyph-name="slash" unicode="/" horiz-adv-x="999" 
d="M31 -188l757 1708h181l-758 -1708h-180z" />
    <glyph glyph-name="zero" unicode="0" horiz-adv-x="1396" 
d="M698 -25q-266 0 -420.5 197t-154.5 545t154.5 544.5t420.5 196.5t421 -196.5t155 -544.5t-155 -545t-421 -197zM309 717q0 -285 100.5 -429.5t288.5 -144.5t288.5 144.5t100.5 429.5t-100 429t-289 144t-289 -144t-100 -429z" />
    <glyph glyph-name="one" unicode="1" horiz-adv-x="866" 
d="M467 0v1225l-377 -193v191l412 211h149v-1434h-184z" />
    <glyph glyph-name="two" unicode="2" horiz-adv-x="1191" 
d="M88 0v152l524 489q149 140 205.5 231t56.5 179q0 112 -70.5 175.5t-193.5 63.5q-238 0 -389 -262l-143 105q91 162 226.5 243.5t303.5 81.5q203 0 327 -112t124 -291q0 -113 -60 -226t-208 -251l-439 -410h733v-168h-997z" />
    <glyph glyph-name="three" unicode="3" horiz-adv-x="1155" 
d="M555 -25q-152 0 -280.5 53.5t-213.5 155.5l121 125q161 -166 375 -166q146 0 228.5 70t82.5 186q0 118 -92 182t-280 64h-125v166h164q153 0 234 67.5t81 176.5q0 105 -76 170t-213 65q-208 0 -354 -188l-127 117q188 239 487 239q217 0 341 -109t124 -286
q0 -123 -59.5 -210.5t-171.5 -123.5q121 -35 186.5 -126t65.5 -216q0 -184 -135 -298t-363 -114z" />
    <glyph glyph-name="four" unicode="4" horiz-adv-x="1269" 
d="M850 0v307h-768v158l715 969h225v-965h211v-162h-211v-307h-172zM285 469h565v766z" />
    <glyph glyph-name="five" unicode="5" horiz-adv-x="1185" 
d="M578 -25q-293 0 -492 199l117 127q161 -158 370 -158q161 0 254 82.5t93 218.5q0 134 -82 210.5t-224 76.5q-174 0 -309 -98l-145 86l24 715h838v-168h-670l-14 -437q122 70 287 70q211 0 345 -121t134 -334q0 -210 -144.5 -339.5t-381.5 -129.5z" />
    <glyph glyph-name="six" unicode="6" horiz-adv-x="1241" 
d="M627 -25q-229 0 -377 140t-148 370q0 262 220 551l301 398h223l-375 -482q-2 -2 -9.5 -12.5t-12.5 -15.5q104 43 215 43q214 0 354.5 -137.5t140.5 -352.5q0 -219 -151 -360.5t-381 -141.5zM287 483q0 -157 92.5 -249.5t251.5 -92.5t251.5 91t92.5 241t-92.5 240
t-251.5 90q-80 0 -153.5 -28t-155.5 -97q-35 -103 -35 -195z" />
    <glyph glyph-name="seven" unicode="7" horiz-adv-x="1081" 
d="M211 0l614 1266h-768v168h967v-154l-616 -1280h-197z" />
    <glyph glyph-name="eight" unicode="8" horiz-adv-x="1249" 
d="M625 -25q-246 0 -384.5 118.5t-138.5 297.5q0 120 64 213.5t186 143.5q-94 50 -144 132t-50 187q0 170 126.5 280.5t340.5 110.5t340.5 -110.5t126.5 -280.5q0 -105 -50.5 -187t-144.5 -132q122 -50 186 -143.5t64 -213.5q0 -116 -58.5 -209t-178.5 -150t-285 -57z
M287 401q0 -115 87.5 -187.5t250.5 -72.5t250.5 72.5t87.5 187.5t-87.5 188t-250.5 73t-250.5 -73t-87.5 -188zM342 1057q0 -108 74.5 -173t208.5 -65t208 65t74 173t-74 172.5t-208 64.5t-208.5 -64.5t-74.5 -172.5z" />
    <glyph glyph-name="nine" unicode="9" horiz-adv-x="1241" 
d="M614 1458q229 0 377 -140t148 -370q0 -263 -219 -551l-302 -397h-223l375 481q3 3 7.5 9.5t8 11t7.5 8.5q-104 -43 -215 -43q-214 0 -355 137t-141 352q0 219 151 360.5t381 141.5zM266 961q0 -150 92.5 -240t251.5 -90q163 0 310 125q34 101 34 194q0 157 -92.5 249.5
t-251.5 92.5t-251.5 -90.5t-92.5 -240.5z" />
    <glyph glyph-name="colon" unicode=":" horiz-adv-x="442" 
d="M221 -14q-55 0 -92 37t-37 92t37 92t92 37t92 -37t37 -92t-37 -92t-92 -37zM92 834q0 56 37 92.5t92 36.5t92 -36.5t37 -92.5t-37 -92.5t-92 -36.5t-92 36.5t-37 92.5z" />
    <glyph glyph-name="semicolon" unicode=";" horiz-adv-x="471" 
d="M227 705q-55 0 -92 36.5t-37 92.5t37 92.5t92 36.5t92 -36.5t37 -92.5t-37 -92.5t-92 -36.5zM92 119q0 53 37.5 89t95.5 36q68 0 111 -52.5t43 -144.5q0 -104 -52.5 -208.5t-154.5 -190.5l-68 71q142 142 142 277q-10 -2 -29 -2q-55 0 -90 36t-35 89z" />
    <glyph glyph-name="less" unicode="&#x3c;" horiz-adv-x="1331" 
d="M1116 207l-901 356v172l901 357v-177l-692 -266l692 -266v-176z" />
    <glyph glyph-name="equal" unicode="=" horiz-adv-x="1331" 
d="M215 774v162h901v-162h-901zM215 362v162h901v-162h-901z" />
    <glyph glyph-name="greater" unicode="&#x3e;" horiz-adv-x="1331" 
d="M215 207v176l692 266l-692 266v177l901 -357v-172z" />
    <glyph glyph-name="question" unicode="?" horiz-adv-x="968" 
d="M348 537q0 102 32 165t128 144l100 84q61 52 85 94t24 90q0 84 -55 134t-152 50q-107 0 -184 -66t-115 -196l-160 64q47 167 168.5 262.5t288.5 95.5q171 0 280 -94.5t109 -243.5q0 -83 -42.5 -159.5t-141.5 -159.5l-101 -84q-54 -45 -69 -78t-15 -102v-95h-180v95z
M309 115q0 55 36.5 92t92.5 37t92.5 -37t36.5 -92t-36.5 -92t-92.5 -37t-92.5 37t-36.5 92z" />
    <glyph glyph-name="at" unicode="@" horiz-adv-x="1927" 
d="M1010 -375q-194 0 -362 63.5t-287 176t-187 273t-68 347.5q0 251 119.5 454t321.5 315t444 112q136 0 263 -37t231.5 -107.5t182.5 -167t121.5 -221.5t43.5 -264q0 -228 -100.5 -365.5t-264.5 -137.5q-79 0 -143 33.5t-100 95.5q-115 -115 -277 -115q-163 0 -277 116.5
t-114 292.5q0 178 113.5 295t277.5 117q141 0 238 -88v70h164v-531q0 -75 32.5 -113t92.5 -38q92 0 146 92.5t54 257.5q0 204 -91 356t-244 229.5t-345 77.5q-156 0 -290.5 -54.5t-229 -149.5t-148 -230t-53.5 -291q0 -158 54.5 -291t151 -226t234.5 -145t300 -52
q115 0 220.5 25t180.5 69l64 -127q-191 -117 -469 -117zM723 489q0 -118 71 -190t177 -72q64 0 120.5 26.5t94.5 76.5v22v299q-39 51 -96.5 77t-118.5 26q-107 0 -177.5 -73t-70.5 -192z" />
    <glyph glyph-name="A" unicode="A" horiz-adv-x="1431" 
d="M31 0l583 1434h203l584 -1434h-197l-151 379h-674l-152 -379h-196zM444 543h543l-270 680z" />
    <glyph glyph-name="B" unicode="B" horiz-adv-x="1423" 
d="M195 0v1434h569q204 0 324 -100.5t120 -272.5q0 -201 -168 -287q134 -41 203.5 -132t69.5 -222q0 -192 -135.5 -306t-380.5 -114h-602zM383 168h414q155 0 239 69.5t84 184.5q0 116 -84.5 187t-238.5 71h-414v-512zM383 844h381q122 0 188 57.5t66 157.5q0 99 -65 153
t-189 54h-381v-422z" />
    <glyph glyph-name="C" unicode="C" horiz-adv-x="1558" 
d="M844 -25q-207 0 -375.5 94t-265.5 263.5t-97 380.5q0 161 58.5 300.5t158.5 236.5t235.5 152.5t287.5 55.5q193 0 359.5 -89t267.5 -249l-156 -98q-74 128 -197 196t-274 68q-154 0 -277 -69t-195.5 -199.5t-72.5 -300.5t72.5 -301t196 -200t276.5 -69t278.5 70.5
t198.5 194.5l154 -97q-100 -159 -266 -249.5t-367 -90.5z" />
    <glyph glyph-name="D" unicode="D" horiz-adv-x="1480" 
d="M195 0v1434h446q211 0 376.5 -86.5t261 -250.5t95.5 -380t-95.5 -380t-261 -250.5t-376.5 -86.5h-446zM383 172h238q260 0 410.5 141.5t150.5 403.5t-150.5 403.5t-410.5 141.5h-238v-1090z" />
    <glyph glyph-name="E" unicode="E" horiz-adv-x="1310" 
d="M195 0v1434h983v-172h-795v-426h702v-172h-702v-492h795v-172h-983z" />
    <glyph glyph-name="F" unicode="F" horiz-adv-x="1300" 
d="M195 0v1434h983v-172h-795v-467h733v-172h-733v-623h-188z" />
    <glyph glyph-name="G" unicode="G" horiz-adv-x="1613" 
d="M862 -25q-219 0 -391 92.5t-268.5 260t-96.5 381.5q0 163 58 303t158 237.5t236.5 153t291.5 55.5q173 0 323 -69t254 -199l-149 -107q-74 99 -187 151t-245 52q-116 0 -216 -40t-173.5 -113t-115.5 -181.5t-42 -238.5q0 -262 157.5 -414t411.5 -152q240 0 414 127v363
h-383v170h563v-623q-271 -209 -600 -209z" />
    <glyph glyph-name="H" unicode="H" horiz-adv-x="1564" 
d="M195 0v1434h188v-607h799v607h188v-1434h-188v655h-799v-655h-188z" />
    <glyph glyph-name="I" unicode="I" horiz-adv-x="577" 
d="M195 0v1434h188v-1434h-188z" />
    <glyph glyph-name="J" unicode="J" horiz-adv-x="1173" 
d="M510 -25q-237 0 -449 146l97 151q190 -125 350 -125q143 0 222 84.5t79 249.5v953h188v-965q0 -239 -128 -366.5t-359 -127.5z" />
    <glyph glyph-name="K" unicode="K" horiz-adv-x="1456" 
d="M195 0v1434h188v-789l768 789h231l-634 -656l675 -778h-241l-561 645l-238 -244v-401h-188z" />
    <glyph glyph-name="L" unicode="L" horiz-adv-x="1189" 
d="M195 0v1434h188v-1262h729v-172h-917z" />
    <glyph glyph-name="M" unicode="M" horiz-adv-x="1972" 
d="M195 0v1434h219l573 -1153l572 1153h219v-1434h-189v1110l-530 -1069h-146l-530 1069v-1110h-188z" />
    <glyph glyph-name="N" unicode="N" horiz-adv-x="1589" 
d="M195 0v1434h198l813 -1143v1143h189v-1434h-199l-813 1143v-1143h-188z" />
    <glyph glyph-name="O" unicode="O" horiz-adv-x="1687" 
d="M844 -25q-151 0 -286.5 55.5t-235 152t-158 236t-58.5 298.5t58.5 298t158 235.5t235 152t286.5 55.5t286.5 -55.5t234.5 -152t157.5 -235.5t58.5 -298q0 -212 -99.5 -383t-267.5 -265t-370 -94zM299 717q0 -170 72.5 -301t196 -200t276.5 -69t276.5 69t196 200t72.5 301
t-72.5 300.5t-195.5 199.5t-277 69t-277 -69t-195.5 -199.5t-72.5 -300.5z" />
    <glyph glyph-name="P" unicode="P" horiz-adv-x="1349" 
d="M195 0v1434h553q231 0 363 -115t132 -320t-132 -319.5t-363 -114.5h-365v-565h-188zM383 737h344q166 0 245 65t79 197t-79 197.5t-245 65.5h-344v-525z" />
    <glyph glyph-name="Q" unicode="Q" horiz-adv-x="1687" 
d="M1440 -287l-316 316q-133 -54 -280 -54q-151 0 -286.5 55.5t-235 152t-158 236t-58.5 298.5t58.5 298t158 235.5t235 152t286.5 55.5t286.5 -55.5t234.5 -152t157.5 -235.5t58.5 -298q0 -185 -76.5 -339t-208.5 -255l281 -281zM299 717q0 -170 72.5 -301t196 -200
t276.5 -69t276.5 69t196 200t72.5 301t-72.5 300.5t-195.5 199.5t-277 69t-277 -69t-195.5 -199.5t-72.5 -300.5z" />
    <glyph glyph-name="R" unicode="R" horiz-adv-x="1419" 
d="M195 0v1434h565q231 0 363 -114t132 -316q0 -174 -99.5 -284t-278.5 -138l440 -582h-236l-428 573h-270v-573h-188zM383 745h356q324 0 324 259q0 129 -79.5 193.5t-244.5 64.5h-356v-517z" />
    <glyph glyph-name="S" unicode="S" horiz-adv-x="1226" 
d="M623 -25q-152 0 -293.5 48.5t-251.5 138.5l110 149q205 -166 439 -166q151 0 240 68t89 176q0 166 -227 221l-297 72q-159 38 -246.5 133.5t-87.5 231.5q0 179 141.5 295t366.5 116q145 0 279 -51.5t229 -144.5l-127 -134q-154 160 -383 160q-147 0 -231 -64t-84 -165
q0 -158 235 -213l297 -72q159 -38 243.5 -133.5t84.5 -239.5q0 -192 -142.5 -309t-383.5 -117z" />
    <glyph glyph-name="T" unicode="T" horiz-adv-x="1261" 
d="M537 0v1262h-488v172h1163v-172h-487v-1262h-188z" />
    <glyph glyph-name="U" unicode="U" horiz-adv-x="1527" 
d="M764 -25q-274 0 -431 153.5t-157 432.5v873h189v-852q0 -216 103.5 -325.5t295.5 -109.5t295.5 109.5t103.5 325.5v852h189v-873q0 -279 -157 -432.5t-431 -153.5z" />
    <glyph glyph-name="V" unicode="V" horiz-adv-x="1398" 
d="M598 0l-567 1434h198l471 -1213l469 1213h199l-567 -1434h-203z" />
    <glyph glyph-name="W" unicode="W" horiz-adv-x="2189" 
d="M512 0l-455 1434h193l366 -1162l390 1162h178l389 -1162l366 1162h193l-455 -1434h-190l-391 1176l-394 -1176h-190z" />
    <glyph glyph-name="X" unicode="X" horiz-adv-x="1355" 
d="M53 0l502 745l-473 689h211l385 -562l385 562h211l-473 -689l502 -745h-213l-412 614l-412 -614h-213z" />
    <glyph glyph-name="Y" unicode="Y" horiz-adv-x="1318" 
d="M565 0v563l-553 871h213l434 -693l435 693h213l-553 -871v-563h-189z" />
    <glyph glyph-name="Z" unicode="Z" horiz-adv-x="1245" 
d="M106 0v139l783 1123h-770v172h1003v-140l-782 -1122h799v-172h-1033z" />
    <glyph glyph-name="bracketleft" unicode="[" horiz-adv-x="731" 
d="M184 -233v1753h475v-160h-294v-1434h294v-159h-475z" />
    <glyph glyph-name="backslash" unicode="\" horiz-adv-x="880" 
d="M670 -188l-639 1708h180l639 -1708h-180z" />
    <glyph glyph-name="bracketright" unicode="]" horiz-adv-x="731" 
d="M547 -233h-475v159h295v1434h-295v160h475v-1753z" />
    <glyph glyph-name="asciicircum" unicode="^" horiz-adv-x="1071" 
d="M82 887l369 547h170l368 -547h-205l-247 385l-250 -385h-205z" />
    <glyph glyph-name="underscore" unicode="_" horiz-adv-x="860" 
d="M31 -268v155h798v-155h-798z" />
    <glyph glyph-name="grave" unicode="`" horiz-adv-x="1228" 
d="M594 1202l-203 287h223l138 -287h-158z" />
    <glyph glyph-name="a" unicode="a" horiz-adv-x="1294" 
d="M621 -25q-219 0 -373 156t-154 389t154 389t373 156q97 0 183.5 -32t145.5 -91v98h180v-1040h-180v98q-59 -59 -145.5 -91t-183.5 -32zM279 520q0 -171 104.5 -276t257.5 -105q90 0 171.5 37.5t137.5 108.5v471q-56 70 -137.5 107.5t-171.5 37.5q-153 0 -257.5 -105
t-104.5 -276z" />
    <glyph glyph-name="b" unicode="b" horiz-adv-x="1294" 
d="M674 -25q-97 0 -184 32t-146 91v-98h-180v1511h180v-569q59 59 146 91t184 32q143 0 263.5 -70t191.5 -195.5t71 -279.5t-71 -279.5t-191.5 -195.5t-263.5 -70zM344 285q56 -71 137.5 -108.5t171.5 -37.5q153 0 258 105t105 276t-105 276t-258 105q-90 0 -171.5 -37.5
t-137.5 -107.5v-471z" />
    <glyph glyph-name="c" unicode="c" horiz-adv-x="1150" 
d="M637 -25q-235 0 -389 153t-154 386q0 154 72 280.5t197 198.5t276 72q135 0 252.5 -57.5t191.5 -163.5l-143 -109q-123 166 -303 166q-151 0 -253.5 -107.5t-102.5 -273.5q0 -167 103.5 -274t254.5 -107q95 0 178.5 45t143.5 129l137 -100q-75 -114 -195.5 -176
t-265.5 -62z" />
    <glyph glyph-name="d" unicode="d" horiz-adv-x="1294" 
d="M621 -25q-219 0 -373 156t-154 389t154 389t373 156q97 0 183.5 -32t145.5 -91v569h180v-1511h-180v98q-59 -59 -145.5 -91t-183.5 -32zM279 520q0 -171 104.5 -276t257.5 -105q90 0 171.5 37.5t137.5 108.5v471q-56 70 -137.5 107.5t-171.5 37.5q-153 0 -257.5 -105
t-104.5 -276z" />
    <glyph glyph-name="e" unicode="e" horiz-adv-x="1251" 
d="M643 -25q-244 0 -396.5 149.5t-152.5 387.5q0 242 156 397.5t395 155.5q224 0 366 -140.5t142 -367.5q0 -41 -6 -78h-868q10 -162 109.5 -253t258.5 -91q214 0 344 176l129 -98q-76 -114 -199 -176t-278 -62zM289 635h680q-20 134 -104.5 204t-219.5 70q-137 0 -231 -72
t-125 -202z" />
    <glyph glyph-name="f" unicode="f" horiz-adv-x="843" 
d="M260 1116q0 204 101.5 312t283.5 108q98 0 186 -35l-28 -155q-68 26 -139 26q-224 0 -224 -260v-72h379v-155h-379v-885h-180v885h-235v155h235v76z" />
    <glyph glyph-name="g" unicode="g" horiz-adv-x="1294" 
d="M614 -471q-146 0 -273 50t-218 142l113 132q99 -86 189.5 -123t188.5 -37q159 0 247.5 84.5t88.5 234.5v103q-59 -59 -145 -91t-182 -32q-107 0 -204.5 41t-169 111.5t-113.5 170.5t-42 213q0 150 71.5 274t193 193.5t264.5 69.5q96 0 182 -32t145 -91v98h180v-1028
q0 -225 -138 -354t-378 -129zM279 528q0 -165 104.5 -268.5t255.5 -103.5q89 0 171.5 37.5t139.5 107.5v455q-57 70 -139.5 107.5t-171.5 37.5q-151 0 -255.5 -104t-104.5 -269z" />
    <glyph glyph-name="h" unicode="h" horiz-adv-x="1247" 
d="M913 582q0 156 -70.5 237.5t-195.5 81.5q-83 0 -162.5 -36.5t-140.5 -108.5v-756h-180v1511h180v-573q64 61 153 94t187 33q185 0 297.5 -117.5t112.5 -326.5v-621h-181v582z" />
    <glyph glyph-name="i" unicode="i" horiz-adv-x="507" 
d="M164 0v1040h180v-1040h-180zM127 1331q0 53 37.5 90t89.5 37t89.5 -37t37.5 -90t-37.5 -90t-89.5 -37t-89.5 37t-37.5 90z" />
    <glyph glyph-name="j" unicode="j" horiz-adv-x="507" 
d="M14 -471q-99 0 -178 33l29 157q68 -22 125 -22q174 0 174 215v1128h180v-1153q0 -179 -85.5 -268.5t-244.5 -89.5zM127 1331q0 53 37.5 90t89.5 37t89.5 -37t37.5 -90t-37.5 -90t-89.5 -37t-89.5 37t-37.5 90z" />
    <glyph glyph-name="k" unicode="k" horiz-adv-x="1200" 
d="M164 0v1511h180v-995l561 524h230l-480 -452l521 -588h-230l-416 469l-186 -176v-293h-180z" />
    <glyph glyph-name="l" unicode="l" horiz-adv-x="507" 
d="M164 0v1511h180v-1511h-180z" />
    <glyph glyph-name="m" unicode="m" horiz-adv-x="1914" 
d="M1581 594q0 149 -65 228t-173 79q-78 0 -157 -40t-142 -120q9 -52 9 -108v-633h-181v594q0 149 -64.5 228t-172.5 79q-74 0 -150.5 -37.5t-140.5 -111.5v-752h-180v1040h180v-106q67 64 153 97.5t177 33.5q105 0 188.5 -46.5t132.5 -133.5q76 87 178 133.5t209 46.5
q170 0 274.5 -114.5t104.5 -317.5v-633h-180v594z" />
    <glyph glyph-name="n" unicode="n" horiz-adv-x="1247" 
d="M913 582q0 156 -70.5 237.5t-195.5 81.5q-83 0 -162.5 -36.5t-140.5 -108.5v-756h-180v1040h180v-102q64 61 153 94t187 33q185 0 297.5 -117.5t112.5 -326.5v-621h-181v582z" />
    <glyph glyph-name="o" unicode="o" horiz-adv-x="1282" 
d="M641 -25q-234 0 -390.5 155.5t-156.5 389.5t156.5 389.5t390.5 155.5t390.5 -155.5t156.5 -389.5t-156.5 -389.5t-390.5 -155.5zM279 520q0 -165 102 -273t260 -108t260.5 108t102.5 273t-102.5 273t-260.5 108t-260 -108t-102 -273z" />
    <glyph glyph-name="p" unicode="p" horiz-adv-x="1294" 
d="M674 -25q-97 0 -184 32t-146 91v-544h-180v1486h180v-98q59 59 146 91t184 32q143 0 263.5 -70t191.5 -195.5t71 -279.5t-71 -279.5t-191.5 -195.5t-263.5 -70zM344 285q56 -71 137.5 -108.5t171.5 -37.5q153 0 258 105t105 276t-105 276t-258 105q-90 0 -171.5 -37.5
t-137.5 -107.5v-471z" />
    <glyph glyph-name="q" unicode="q" horiz-adv-x="1294" 
d="M621 -25q-219 0 -373 156t-154 389t154 389t373 156q97 0 183.5 -32t145.5 -91v98h180v-1486h-180v544q-59 -59 -145.5 -91t-183.5 -32zM279 520q0 -171 104.5 -276t257.5 -105q90 0 171.5 37.5t137.5 108.5v471q-56 70 -137.5 107.5t-171.5 37.5q-153 0 -257.5 -105
t-104.5 -276z" />
    <glyph glyph-name="r" unicode="r" horiz-adv-x="804" 
d="M164 0v1040h180v-129q49 72 131 113t176 41q54 0 109 -14l-15 -166q-53 12 -100 12q-98 0 -176 -47.5t-125 -138.5v-711h-180z" />
    <glyph glyph-name="s" unicode="s" horiz-adv-x="1038" 
d="M543 -25q-133 0 -256 44.5t-201 121.5l115 135q72 -68 163.5 -103.5t184.5 -35.5q102 0 162.5 42t60.5 108q0 100 -178 141l-182 41q-155 35 -226 103.5t-71 175.5q0 142 108.5 229.5t290.5 87.5q127 0 238 -43.5t184 -122.5l-121 -125q-129 129 -313 129
q-101 0 -156 -38.5t-55 -102.5q0 -48 39.5 -78.5t142.5 -54.5l182 -41q154 -34 223.5 -105t69.5 -182q0 -148 -107.5 -237t-297.5 -89z" />
    <glyph glyph-name="t" unicode="t" horiz-adv-x="899" 
d="M616 -20q-356 0 -356 385v520h-235v155h235v258h180v-258h367v-155h-367v-502q0 -125 48 -182.5t149 -57.5q89 0 174 33l37 -149q-105 -47 -232 -47z" />
    <glyph glyph-name="u" unicode="u" horiz-adv-x="1243" 
d="M555 -25q-185 0 -293 114.5t-108 318.5v632h180v-594q0 -151 66.5 -229t191.5 -78q182 0 307 148v753h180v-1040h-180v104q-138 -129 -344 -129z" />
    <glyph glyph-name="v" unicode="v" horiz-adv-x="1134" 
d="M481 0l-454 1040h198l342 -811l342 811h199l-455 -1040h-172z" />
    <glyph glyph-name="w" unicode="w" horiz-adv-x="1785" 
d="M408 0l-367 1040h190l277 -798l303 798h164l303 -798l276 798h191l-367 -1040h-180l-305 807l-305 -807h-180z" />
    <glyph glyph-name="x" unicode="x" horiz-adv-x="1093" 
d="M33 0l403 537l-379 503h207l283 -376l282 376h207l-379 -503l404 -537h-211l-303 406l-303 -406h-211z" />
    <glyph glyph-name="y" unicode="y" horiz-adv-x="1157" 
d="M291 -446l205 466l-469 1020h202l363 -802l348 802h190l-647 -1486h-192z" />
    <glyph glyph-name="z" unicode="z" horiz-adv-x="1028" 
d="M86 0v119l604 762h-596v159h840v-118l-604 -762h612v-160h-856z" />
    <glyph glyph-name="braceleft" unicode="{" horiz-adv-x="759" 
d="M520 -233q-150 0 -218.5 62.5t-68.5 197.5v417q0 62 -30.5 90.5t-100.5 28.5h-24v160h24q70 0 100.5 28.5t30.5 90.5v418q0 135 68.5 197.5t218.5 62.5h168v-160h-156q-118 0 -118 -117v-387q0 -161 -138 -209v-8q138 -48 138 -209v-387q0 -117 118 -117h156v-159h-168z
" />
    <glyph glyph-name="bar" unicode="|" horiz-adv-x="643" 
d="M236 -205v1772h172v-1772h-172z" />
    <glyph glyph-name="braceright" unicode="}" horiz-adv-x="759" 
d="M240 -233h-168v159h155q119 0 119 117v387q0 162 137 209v8q-137 47 -137 209v387q0 117 -119 117h-155v160h168q150 0 218 -62t68 -198v-418q0 -62 30.5 -90.5t100.5 -28.5h25v-160h-25q-70 0 -100.5 -28.5t-30.5 -90.5v-417q0 -136 -68 -198t-218 -62z" />
    <glyph glyph-name="asciitilde" unicode="~" horiz-adv-x="1331" 
d="M881 526q-75 0 -214 43t-214 43q-114 0 -238 -84v160q112 82 242 82q72 0 213 -43t209 -43q63 0 127.5 23t109.5 61v-160q-116 -82 -235 -82z" />
    <glyph glyph-name="uni00A0" unicode="&#xa0;" horiz-adv-x="522" 
 />
    <glyph glyph-name="exclamdown" unicode="&#xa1;" horiz-adv-x="524" 
d="M188 608h148l24 -991h-196zM133 936q0 56 36.5 92.5t92.5 36.5t92.5 -36.5t36.5 -92.5t-36.5 -92.5t-92.5 -36.5t-92.5 36.5t-36.5 92.5z" />
    <glyph glyph-name="cent" unicode="&#xa2;" horiz-adv-x="1120" 
d="M559 0v197q-198 25 -322 165.5t-124 346.5q0 205 125.5 350.5t320.5 171.5v203h119v-201q115 -8 214 -61.5t165 -145.5l-133 -106q-104 137 -246 155v-723q159 18 264 164l127 -96q-64 -99 -166 -157.5t-225 -67.5v-195h-119zM291 713q0 -137 75 -233.5t193 -121.5v711
q-118 -25 -193 -122t-75 -234z" />
    <glyph glyph-name="sterling" unicode="&#xa3;" horiz-adv-x="1138" 
d="M94 121q143 100 202.5 190t59.5 193q0 58 -16 114h-240v144h176q-7 12 -27.5 48.5t-29 52t-23.5 48.5t-21.5 55.5t-12.5 54t-6 62.5q0 159 125.5 267t320.5 108q137 0 250.5 -56.5t185.5 -160.5l-139 -111q-125 164 -299 164q-116 0 -189 -62t-73 -159q0 -37 13 -79.5
t27.5 -72t43 -81t41.5 -78.5h407v-144h-352q14 -49 14 -108q0 -169 -110 -291q30 6 61 6q62 0 118.5 -20t104.5 -40t89 -20q48 0 84.5 26.5t74.5 90.5l136 -82q-43 -98 -118 -151.5t-173 -53.5q-50 0 -100.5 15t-86.5 33.5t-88.5 33.5t-105.5 15q-108 0 -225 -97z" />
    <glyph glyph-name="currency" unicode="&#xa4;" horiz-adv-x="1122" 
d="M561 319q-129 0 -229 68l-150 -149l-100 98l154 153q-66 97 -66 228q0 130 66 227l-154 154l100 98l150 -149q98 67 229 67q135 0 230 -67l151 149l98 -98l-151 -154q65 -100 65 -227q0 -128 -65 -228l151 -153l-98 -98l-151 149q-96 -68 -230 -68zM330 717
q0 -109 63.5 -176.5t167.5 -67.5t169 67.5t65 176.5t-65 176.5t-169 67.5t-167.5 -67.5t-63.5 -176.5z" />
    <glyph glyph-name="yen" unicode="&#xa5;" horiz-adv-x="1167" 
d="M492 0v272h-365v127h365v181h-365v127h303l-389 727h197l346 -670l346 670h196l-389 -727h303v-127h-364v-181h364v-127h-364v-272h-184z" />
    <glyph glyph-name="brokenbar" unicode="&#xa6;" horiz-adv-x="643" 
d="M236 834v733h172v-733h-172zM236 -205v717h172v-717h-172z" />
    <glyph glyph-name="section" unicode="&#xa7;" horiz-adv-x="1112" 
d="M571 -268q-119 0 -238.5 44.5t-197.5 121.5l115 135q72 -66 159 -101.5t169 -35.5q97 0 156 47t59 123q0 61 -49.5 98t-180.5 67l-110 25q-156 34 -238 107.5t-82 203.5q0 97 48 174.5t132 110.5q-180 85 -180 266q0 148 114.5 244t297.5 96q119 0 226.5 -44t182.5 -122
l-120 -125q-136 127 -293 127q-102 0 -162 -47t-60 -123q0 -61 49.5 -98.5t180.5 -67.5l110 -24q156 -34 238 -107.5t82 -203.5q0 -97 -48 -174.5t-132 -110.5q180 -85 180 -266q0 -147 -114.5 -243.5t-293.5 -96.5zM317 590q0 -72 44 -111t157 -65l123 -29q74 32 114 87.5
t40 127.5t-44 111t-157 65l-117 27q-74 -23 -117 -80t-43 -133z" />
    <glyph glyph-name="dieresis" unicode="&#xa8;" horiz-adv-x="1228" 
d="M819 1223q-51 0 -87 35.5t-36 87.5t36 87t87 35t87 -35t36 -87t-36 -87.5t-87 -35.5zM287 1346q0 52 36 87t87 35t86.5 -35t35.5 -87t-35.5 -87.5t-86.5 -35.5t-87 35.5t-36 87.5z" />
    <glyph glyph-name="copyright" unicode="&#xa9;" horiz-adv-x="1708" 
d="M854 -25q-154 0 -292.5 58t-238.5 157t-158.5 236.5t-58.5 290.5t58.5 290t158.5 236t238.5 157t292.5 58t292.5 -58t238.5 -157t158.5 -236t58.5 -290t-58.5 -290.5t-158.5 -236.5t-238.5 -157t-292.5 -58zM258 717q0 -165 77 -303t214 -218.5t305 -80.5t305 80.5
t214 218.5t77 303t-77 303t-214 218.5t-305 80.5t-305 -80.5t-214 -218.5t-77 -303zM487 713q0 169 111 278t276 109q95 0 179.5 -40.5t138.5 -117.5l-121 -98q-77 108 -197 108q-95 0 -160 -66.5t-65 -170.5q0 -105 66 -169.5t162 -64.5q128 0 208 115l117 -90
q-52 -82 -139 -127t-191 -45q-166 0 -275.5 106t-109.5 273z" />
    <glyph glyph-name="ordfeminine" unicode="&#xaa;" horiz-adv-x="997" 
d="M483 637q-163 0 -277 117t-114 293q0 178 113.5 294.5t277.5 116.5q141 0 238 -88v70h164v-785h-164v70q-94 -88 -238 -88zM258 1047q0 -115 71 -187t177 -72q63 0 119.5 26t95.5 75v315q-39 51 -96.5 77t-118.5 26q-106 0 -177 -72t-71 -188z" />
    <glyph glyph-name="guillemotleft" unicode="&#xab;" horiz-adv-x="1146" 
d="M399 147l-307 439l307 438h205l-305 -438l305 -439h-205zM532 586l308 438h204l-305 -438l305 -439h-204z" />
    <glyph glyph-name="logicalnot" unicode="&#xac;" horiz-adv-x="1331" 
d="M948 354v215h-733v160h901v-375h-168z" />
    <glyph glyph-name="registered" unicode="&#xae;" horiz-adv-x="1050" 
d="M526 635q-113 0 -208 55.5t-150 150t-55 206.5q0 172 120.5 291.5t292.5 119.5q113 0 207.5 -55t149.5 -149.5t55 -206.5q0 -171 -120.5 -291.5t-291.5 -120.5zM203 1047q0 -138 93 -234t230 -96q136 0 229 96.5t93 233.5t-93 233t-229 96q-137 0 -230 -96t-93 -233z
M362 836v436h197q69 0 109.5 -38.5t40.5 -107.5q0 -113 -101 -135l115 -155h-119l-100 149h-43v-149h-99zM461 1077h92q51 0 51 47t-51 47h-92v-94z" />
    <glyph glyph-name="macron" unicode="&#xaf;" horiz-adv-x="1228" 
d="M346 1260v139h537v-139h-537z" />
    <glyph glyph-name="degree" unicode="&#xb0;" horiz-adv-x="770" 
d="M385 860q-131 0 -217 86t-86 213t86 213t217 86t217 -86t86 -213t-86 -213t-217 -86zM229 1159q0 -70 42.5 -115t113.5 -45t113.5 45t42.5 115t-42.5 115t-113.5 45t-113.5 -45t-42.5 -115z" />
    <glyph glyph-name="plusminus" unicode="&#xb1;" horiz-adv-x="1331" 
d="M582 324v366h-367v160h367v369h170v-369h364v-160h-364v-366h-170zM215 0v160h901v-160h-901z" />
    <glyph glyph-name="uni00B2" unicode="&#xb2;" horiz-adv-x="671" 
d="M59 737v111l285 268q64 59 90.5 99.5t26.5 76.5q0 43 -31 70t-82 27q-112 0 -176 -136l-121 70q36 93 115 148t182 55q115 0 189.5 -65.5t74.5 -162.5q0 -113 -129 -233l-200 -188h338v-140h-562z" />
    <glyph glyph-name="uni00B3" unicode="&#xb3;" horiz-adv-x="651" 
d="M317 723q-176 0 -286 113l88 106q79 -82 192 -82q66 0 102 28.5t36 74.5q0 47 -38.5 72.5t-111.5 25.5h-80v135h82q139 0 139 94q0 45 -30.5 72t-87.5 27q-53 0 -102 -24.5t-83 -66.5l-98 95q47 63 121.5 98t163.5 35q126 0 197 -59t71 -158q0 -67 -33 -114t-98 -65
q68 -21 103.5 -68.5t35.5 -113.5q0 -102 -76.5 -163.5t-206.5 -61.5z" />
    <glyph glyph-name="acute" unicode="&#xb4;" horiz-adv-x="1228" 
d="M461 1202l137 287h223l-203 -287h-157z" />
    <glyph glyph-name="uni00B5" unicode="&#xb5;" horiz-adv-x="1243" 
d="M688 -25q-206 0 -344 129v-550h-180v1486h180v-753q125 -148 307 -148q125 0 191.5 78t66.5 229v594h181v-632q0 -203 -108.5 -318t-293.5 -115z" />
    <glyph glyph-name="paragraph" unicode="&#xb6;" horiz-adv-x="1353" 
d="M543 -262v1081h-31q-170 0 -269.5 86t-99.5 221q0 136 102.5 222t286.5 86h191v-1696h-180zM938 -262v1696h180v-1696h-180z" />
    <glyph glyph-name="periodcentered" unicode="&#xb7;" horiz-adv-x="442" 
d="M221 516q-55 0 -92 37t-37 92t37 92t92 37t92 -37t37 -92t-37 -92t-92 -37z" />
    <glyph glyph-name="cedilla" unicode="&#xb8;" horiz-adv-x="1228" 
d="M369 -336l213 404h141l-150 -404h-204z" />
    <glyph glyph-name="uni00B9" unicode="&#xb9;" horiz-adv-x="509" 
d="M250 737v619l-189 -94v143l209 106h127v-774h-147z" />
    <glyph glyph-name="ordmasculine" unicode="&#xba;" horiz-adv-x="1011" 
d="M506 637q-179 0 -296.5 116.5t-117.5 293.5q0 178 117.5 294.5t296.5 116.5t296.5 -116.5t117.5 -294.5q0 -177 -117.5 -293.5t-296.5 -116.5zM258 1047q0 -113 70.5 -186t177.5 -73q106 0 176 73t70 186q0 115 -69.5 187.5t-176.5 72.5t-177.5 -73t-70.5 -187z" />
    <glyph glyph-name="guillemotright" unicode="&#xbb;" horiz-adv-x="1146" 
d="M748 147h-205l305 439l-305 438h205l307 -438zM102 147l306 439l-306 438h205l307 -438l-307 -439h-205z" />
    <glyph glyph-name="onequarter" unicode="&#xbc;" horiz-adv-x="1566" 
d="M184 0l1004 1434h176l-1004 -1434h-176zM72 1184v143l209 107h127v-775h-148v619zM872 158v125l367 491h170v-491h96v-125h-96v-158h-141v158h-396zM1022 283h246v329z" />
    <glyph glyph-name="onehalf" unicode="&#xbd;" horiz-adv-x="1665" 
d="M1012 0v111l284 268q64 59 90.5 99.5t26.5 76.5q0 43 -31 69.5t-82 26.5q-53 0 -99 -34t-77 -101l-120 70q36 93 114.5 147.5t181.5 54.5q116 0 190.5 -65.5t74.5 -161.5q0 -113 -129 -233l-201 -189h338v-139h-561zM72 1184v143l209 107h127v-775h-148v619zM184 0
l1004 1434h176l-1004 -1434h-176z" />
    <glyph glyph-name="threequarters" unicode="&#xbe;" horiz-adv-x="1671" 
d="M338 655q-177 0 -287 113l88 106q78 -81 193 -81q66 0 101.5 28t35.5 74q0 47 -38.5 72.5t-111.5 25.5h-79v135h82q139 0 139 95q0 45 -31 71.5t-88 26.5q-110 0 -184 -90l-99 94q47 63 121.5 98t163.5 35q126 0 197 -59t71 -158q0 -67 -33 -113.5t-98 -64.5
q68 -21 104 -69t36 -113q0 -102 -76.5 -164t-206.5 -62zM289 0l1003 1434h176l-1003 -1434h-176zM977 158v125l366 491h170v-491h97v-125h-97v-158h-141v158h-395zM1126 283h246v329z" />
    <glyph glyph-name="questiondown" unicode="&#xbf;" horiz-adv-x="989" 
d="M641 514q0 -102 -32 -165t-128 -144l-100 -84q-61 -52 -85 -94t-24 -90q0 -84 55 -134.5t152 -50.5q107 0 184 66t115 196l160 -63q-47 -168 -168.5 -263.5t-288.5 -95.5q-171 0 -280 94.5t-109 243.5q0 83 42.5 160t141.5 160l101 84q54 45 69 78t15 102v94h180v-94z
M422 936q0 56 37 92.5t92 36.5t92 -36.5t37 -92.5t-37 -92.5t-92 -36.5t-92 36.5t-37 92.5z" />
    <glyph glyph-name="Agrave" unicode="&#xc0;" horiz-adv-x="1431" 
d="M31 0l583 1434h203l584 -1434h-197l-151 379h-674l-152 -379h-196zM444 543h543l-270 680zM453 1880h231l145 -303h-161z" />
    <glyph glyph-name="Aacute" unicode="&#xc1;" horiz-adv-x="1431" 
d="M31 0l583 1434h203l584 -1434h-197l-151 379h-674l-152 -379h-196zM444 543h543l-270 680zM594 1577l145 303h236l-215 -303h-166z" />
    <glyph glyph-name="Acircumflex" unicode="&#xc2;" horiz-adv-x="1431" 
d="M31 0l583 1434h203l584 -1434h-197l-151 379h-674l-152 -379h-196zM379 1577l254 303h168l254 -303h-183l-155 188l-156 -188h-182zM444 543h543l-270 680z" />
    <glyph glyph-name="Atilde" unicode="&#xc3;" horiz-adv-x="1431" 
d="M31 0l583 1434h203l584 -1434h-197l-151 379h-674l-152 -379h-196zM362 1665q17 98 74 151.5t135 53.5q36 0 72.5 -13t56.5 -26t52 -37q23 -18 36.5 -27.5t33 -17.5t36.5 -8q63 0 80 100l131 -41q-17 -98 -74 -151.5t-135 -53.5q-36 0 -72.5 13.5t-56 26t-51.5 36.5
q-68 53 -107 53q-62 0 -79 -100zM444 543h543l-270 680z" />
    <glyph glyph-name="Adieresis" unicode="&#xc4;" horiz-adv-x="1431" 
d="M31 0l583 1434h203l584 -1434h-197l-151 379h-674l-152 -379h-196zM369 1729q0 55 38.5 93t92.5 38t92.5 -38t38.5 -93t-38.5 -93.5t-92.5 -38.5t-92.5 38.5t-38.5 93.5zM444 543h543l-270 680zM803 1729q0 55 38.5 93t92.5 38t92.5 -38t38.5 -93t-38.5 -93.5
t-92.5 -38.5t-92.5 38.5t-38.5 93.5z" />
    <glyph glyph-name="Aring" unicode="&#xc5;" horiz-adv-x="1431" 
d="M31 0l583 1434h203l584 -1434h-197l-151 379h-674l-152 -379h-196zM444 543h543l-270 680zM496 1765q0 90 63 150.5t158 60.5t158 -60.5t63 -150.5t-63 -150.5t-158 -60.5t-158 60.5t-63 150.5zM621 1765q0 -41 26.5 -68.5t69.5 -27.5t69.5 27.5t26.5 68.5t-26.5 69
t-69.5 28t-69.5 -28t-26.5 -69z" />
    <glyph glyph-name="AE" unicode="&#xc6;" horiz-adv-x="2256" 
d="M12 0l1032 1434h1080v-172h-795v-426h703v-172h-703v-492h795v-172h-983v395h-617l-280 -395h-232zM641 559h500v701z" />
    <glyph glyph-name="Ccedilla" unicode="&#xc7;" horiz-adv-x="1558" 
d="M580 -375l188 355q-142 13 -264 73t-210 155t-138 225.5t-50 279.5q0 161 58.5 300.5t158.5 236.5t235.5 152.5t287.5 55.5q193 0 359.5 -89t267.5 -249l-156 -98q-74 128 -197 196t-274 68q-154 0 -277 -69t-195.5 -199.5t-72.5 -300.5t72.5 -301t196 -200t276.5 -69
t278.5 70.5t198.5 194.5l154 -97q-89 -141 -230.5 -228.5t-316.5 -106.5l-131 -355h-219z" />
    <glyph glyph-name="Egrave" unicode="&#xc8;" horiz-adv-x="1310" 
d="M195 0v1434h983v-172h-795v-426h702v-172h-702v-492h795v-172h-983zM422 1880h231l146 -303h-162z" />
    <glyph glyph-name="Eacute" unicode="&#xc9;" horiz-adv-x="1310" 
d="M195 0v1434h983v-172h-795v-426h702v-172h-702v-492h795v-172h-983zM563 1577l146 303h235l-215 -303h-166z" />
    <glyph glyph-name="Ecircumflex" unicode="&#xca;" horiz-adv-x="1310" 
d="M195 0v1434h983v-172h-795v-426h702v-172h-702v-492h795v-172h-983zM348 1577l254 303h168l254 -303h-182l-156 188l-156 -188h-182z" />
    <glyph glyph-name="Edieresis" unicode="&#xcb;" horiz-adv-x="1310" 
d="M195 0v1434h983v-172h-795v-426h702v-172h-702v-492h795v-172h-983zM338 1729q0 55 38.5 93t92.5 38t92.5 -38t38.5 -93t-38.5 -93.5t-92.5 -38.5t-92.5 38.5t-38.5 93.5zM772 1729q0 55 38.5 93t92.5 38t92.5 -38t38.5 -93t-38.5 -93.5t-92.5 -38.5t-92.5 38.5
t-38.5 93.5z" />
    <glyph glyph-name="Igrave" unicode="&#xcc;" horiz-adv-x="577" 
d="M195 0v1434h188v-1434h-188zM25 1880h231l145 -303h-161z" />
    <glyph glyph-name="Iacute" unicode="&#xcd;" horiz-adv-x="577" 
d="M195 0v1434h188v-1434h-188zM166 1577l145 303h236l-215 -303h-166z" />
    <glyph glyph-name="Icircumflex" unicode="&#xce;" horiz-adv-x="577" 
d="M195 0v1434h188v-1434h-188zM-49 1577l254 303h168l254 -303h-183l-155 188l-156 -188h-182z" />
    <glyph glyph-name="Idieresis" unicode="&#xcf;" horiz-adv-x="577" 
d="M195 0v1434h188v-1434h-188zM-59 1729q0 55 38.5 93t92.5 38t92.5 -38t38.5 -93t-38.5 -93.5t-92.5 -38.5t-92.5 38.5t-38.5 93.5zM375 1729q0 55 38.5 93t92.5 38t92.5 -38t38.5 -93t-38.5 -93.5t-92.5 -38.5t-92.5 38.5t-38.5 93.5z" />
    <glyph glyph-name="Eth" unicode="&#xd0;" horiz-adv-x="1511" 
d="M225 0v668h-213v151h213v615h447q211 0 376.5 -86.5t261 -250.5t95.5 -380t-95.5 -380t-261 -250.5t-376.5 -86.5h-447zM414 172h237q260 0 410.5 141.5t150.5 403.5t-150.5 403.5t-410.5 141.5h-237v-443h323v-151h-323v-496z" />
    <glyph glyph-name="Ntilde" unicode="&#xd1;" horiz-adv-x="1589" 
d="M195 0v1434h198l813 -1143v1143h189v-1434h-199l-813 1143v-1143h-188zM440 1665q17 98 74 151.5t135 53.5q36 0 72.5 -13.5t56 -26t51.5 -36.5q68 -53 107 -53q63 0 80 100l131 -41q-17 -98 -74 -151.5t-135 -53.5q-36 0 -72.5 13.5t-56 26t-51.5 36.5q-68 53 -107 53
q-63 0 -80 -100z" />
    <glyph glyph-name="Ograve" unicode="&#xd2;" horiz-adv-x="1687" 
d="M844 -25q-151 0 -286.5 55.5t-235 152t-158 236t-58.5 298.5t58.5 298t158 235.5t235 152t286.5 55.5t286.5 -55.5t234.5 -152t157.5 -235.5t58.5 -298q0 -212 -99.5 -383t-267.5 -265t-370 -94zM299 717q0 -170 72.5 -301t196 -200t276.5 -69t276.5 69t196 200t72.5 301
t-72.5 300.5t-195.5 199.5t-277 69t-277 -69t-195.5 -199.5t-72.5 -300.5zM580 1880h231l145 -303h-161z" />
    <glyph glyph-name="Oacute" unicode="&#xd3;" horiz-adv-x="1687" 
d="M844 -25q-151 0 -286.5 55.5t-235 152t-158 236t-58.5 298.5t58.5 298t158 235.5t235 152t286.5 55.5t286.5 -55.5t234.5 -152t157.5 -235.5t58.5 -298q0 -212 -99.5 -383t-267.5 -265t-370 -94zM299 717q0 -170 72.5 -301t196 -200t276.5 -69t276.5 69t196 200t72.5 301
t-72.5 300.5t-195.5 199.5t-277 69t-277 -69t-195.5 -199.5t-72.5 -300.5zM721 1577l145 303h236l-215 -303h-166z" />
    <glyph glyph-name="Ocircumflex" unicode="&#xd4;" horiz-adv-x="1687" 
d="M844 -25q-151 0 -286.5 55.5t-235 152t-158 236t-58.5 298.5t58.5 298t158 235.5t235 152t286.5 55.5t286.5 -55.5t234.5 -152t157.5 -235.5t58.5 -298q0 -212 -99.5 -383t-267.5 -265t-370 -94zM299 717q0 -170 72.5 -301t196 -200t276.5 -69t276.5 69t196 200t72.5 301
t-72.5 300.5t-195.5 199.5t-277 69t-277 -69t-195.5 -199.5t-72.5 -300.5zM506 1577l254 303h168l254 -303h-183l-155 188l-156 -188h-182z" />
    <glyph glyph-name="Otilde" unicode="&#xd5;" horiz-adv-x="1687" 
d="M844 -25q-151 0 -286.5 55.5t-235 152t-158 236t-58.5 298.5t58.5 298t158 235.5t235 152t286.5 55.5t286.5 -55.5t234.5 -152t157.5 -235.5t58.5 -298q0 -212 -99.5 -383t-267.5 -265t-370 -94zM299 717q0 -170 72.5 -301t196 -200t276.5 -69t276.5 69t196 200t72.5 301
t-72.5 300.5t-195.5 199.5t-277 69t-277 -69t-195.5 -199.5t-72.5 -300.5zM489 1665q17 98 74 151.5t135 53.5q36 0 72.5 -13t56.5 -26t52 -37q23 -18 36.5 -27.5t33 -17.5t36.5 -8q63 0 80 100l131 -41q-17 -98 -74 -151.5t-135 -53.5q-36 0 -72.5 13.5t-56 26t-51.5 36.5
q-68 53 -107 53q-62 0 -79 -100z" />
    <glyph glyph-name="Odieresis" unicode="&#xd6;" horiz-adv-x="1687" 
d="M844 -25q-151 0 -286.5 55.5t-235 152t-158 236t-58.5 298.5t58.5 298t158 235.5t235 152t286.5 55.5t286.5 -55.5t234.5 -152t157.5 -235.5t58.5 -298q0 -212 -99.5 -383t-267.5 -265t-370 -94zM299 717q0 -170 72.5 -301t196 -200t276.5 -69t276.5 69t196 200t72.5 301
t-72.5 300.5t-195.5 199.5t-277 69t-277 -69t-195.5 -199.5t-72.5 -300.5zM496 1729q0 55 38.5 93t92.5 38t92.5 -38t38.5 -93t-38.5 -93.5t-92.5 -38.5t-92.5 38.5t-38.5 93.5zM930 1729q0 55 38.5 93t92.5 38t92.5 -38t38.5 -93t-38.5 -93.5t-92.5 -38.5t-92.5 38.5
t-38.5 93.5z" />
    <glyph glyph-name="multiply" unicode="&#xd7;" horiz-adv-x="1331" 
d="M354 229l-108 109l311 311l-311 312l108 108l312 -311l311 311l108 -108l-311 -312l311 -311l-108 -109l-311 312z" />
    <glyph glyph-name="Oslash" unicode="&#xd8;" horiz-adv-x="1679" 
d="M840 -25q-207 0 -383 103l-127 -172l-127 96l127 170q-107 103 -167.5 242.5t-60.5 302.5q0 159 58.5 298t158 235.5t235 152t286.5 55.5q208 0 383 -102l127 172l127 -96l-127 -170q107 -103 167 -242.5t60 -302.5q0 -212 -99.5 -383t-267.5 -265t-370 -94zM295 717
q0 -247 145 -402l676 902q-123 69 -276 69q-154 0 -277 -69t-195.5 -199.5t-72.5 -300.5zM563 217q124 -70 277 -70q235 0 389.5 157t154.5 413q0 246 -145 401z" />
    <glyph glyph-name="Ugrave" unicode="&#xd9;" horiz-adv-x="1527" 
d="M764 -25q-274 0 -431 153.5t-157 432.5v873h189v-852q0 -216 103.5 -325.5t295.5 -109.5t295.5 109.5t103.5 325.5v852h189v-873q0 -279 -157 -432.5t-431 -153.5zM500 1880h231l146 -303h-162z" />
    <glyph glyph-name="Uacute" unicode="&#xda;" horiz-adv-x="1527" 
d="M764 -25q-274 0 -431 153.5t-157 432.5v873h189v-852q0 -216 103.5 -325.5t295.5 -109.5t295.5 109.5t103.5 325.5v852h189v-873q0 -279 -157 -432.5t-431 -153.5zM641 1577l145 303h236l-215 -303h-166z" />
    <glyph glyph-name="Ucircumflex" unicode="&#xdb;" horiz-adv-x="1527" 
d="M764 -25q-274 0 -431 153.5t-157 432.5v873h189v-852q0 -216 103.5 -325.5t295.5 -109.5t295.5 109.5t103.5 325.5v852h189v-873q0 -279 -157 -432.5t-431 -153.5zM426 1577l254 303h168l254 -303h-182l-156 188l-156 -188h-182z" />
    <glyph glyph-name="Udieresis" unicode="&#xdc;" horiz-adv-x="1527" 
d="M764 -25q-274 0 -431 153.5t-157 432.5v873h189v-852q0 -216 103.5 -325.5t295.5 -109.5t295.5 109.5t103.5 325.5v852h189v-873q0 -279 -157 -432.5t-431 -153.5zM416 1729q0 55 38.5 93t92.5 38t92.5 -38t38.5 -93t-38.5 -93.5t-92.5 -38.5t-92.5 38.5t-38.5 93.5z
M850 1729q0 55 38.5 93t92.5 38t92.5 -38t38.5 -93t-38.5 -93.5t-92.5 -38.5t-92.5 38.5t-38.5 93.5z" />
    <glyph glyph-name="Yacute" unicode="&#xdd;" horiz-adv-x="1318" 
d="M565 0v563l-553 871h213l434 -693l435 693h213l-553 -871v-563h-189zM537 1577l145 303h236l-216 -303h-165z" />
    <glyph glyph-name="Thorn" unicode="&#xde;" horiz-adv-x="1357" 
d="M195 0v1434h188v-283h365q231 0 363 -114.5t132 -319.5t-132 -319.5t-363 -114.5h-365v-283h-188zM383 455h344q166 0 245 65t79 197t-79 197t-245 65h-344v-524z" />
    <glyph glyph-name="germandbls" unicode="&#xdf;" horiz-adv-x="1271" 
d="M711 -25q-70 0 -162 15l24 160q64 -11 117 -11q155 0 235.5 67.5t80.5 190.5q0 125 -81.5 192.5t-234.5 67.5h-106v177h24q152 0 234 75.5t82 202.5q0 123 -75 193.5t-206 70.5q-141 0 -220 -85.5t-79 -250.5v-1040h-180v1053q0 225 132 354t345 129q205 0 334 -116
t129 -298q0 -123 -62 -219t-168 -137q149 -29 232.5 -128.5t83.5 -250.5q0 -187 -129 -299.5t-350 -112.5z" />
    <glyph glyph-name="agrave" unicode="&#xe0;" horiz-adv-x="1294" 
d="M621 -25q-219 0 -373 156t-154 389t154 389t373 156q97 0 183.5 -32t145.5 -91v98h180v-1040h-180v98q-59 -59 -145.5 -91t-183.5 -32zM279 520q0 -171 104.5 -276t257.5 -105q90 0 171.5 37.5t137.5 108.5v471q-56 70 -137.5 107.5t-171.5 37.5q-153 0 -257.5 -105
t-104.5 -276zM401 1489h224l137 -287h-158z" />
    <glyph glyph-name="aacute" unicode="&#xe1;" horiz-adv-x="1294" 
d="M621 -25q-219 0 -373 156t-154 389t154 389t373 156q97 0 183.5 -32t145.5 -91v98h180v-1040h-180v98q-59 -59 -145.5 -91t-183.5 -32zM279 520q0 -171 104.5 -276t257.5 -105q90 0 171.5 37.5t137.5 108.5v471q-56 70 -137.5 107.5t-171.5 37.5q-153 0 -257.5 -105
t-104.5 -276zM545 1202l137 287h223l-203 -287h-157z" />
    <glyph glyph-name="acircumflex" unicode="&#xe2;" horiz-adv-x="1294" 
d="M621 -25q-219 0 -373 156t-154 389t154 389t373 156q97 0 183.5 -32t145.5 -91v98h180v-1040h-180v98q-59 -59 -145.5 -91t-183.5 -32zM279 520q0 -171 104.5 -276t257.5 -105q90 0 171.5 37.5t137.5 108.5v471q-56 70 -137.5 107.5t-171.5 37.5q-153 0 -257.5 -105
t-104.5 -276zM338 1202l240 287h159l240 -287h-172l-148 178l-147 -178h-172z" />
    <glyph glyph-name="atilde" unicode="&#xe3;" horiz-adv-x="1294" 
d="M621 -25q-219 0 -373 156t-154 389t154 389t373 156q97 0 183.5 -32t145.5 -91v98h180v-1040h-180v98q-59 -59 -145.5 -91t-183.5 -32zM279 520q0 -171 104.5 -276t257.5 -105q90 0 171.5 37.5t137.5 108.5v471q-56 70 -137.5 107.5t-171.5 37.5q-153 0 -257.5 -105
t-104.5 -276zM326 1282q15 90 68.5 141.5t125.5 51.5q35 0 68 -12t53 -25t49 -35q64 -49 101 -49q59 0 73 94l123 -39q-15 -90 -68.5 -141t-125.5 -51q-50 0 -88.5 18.5t-81.5 52.5q-64 49 -101 49q-59 0 -73 -94z" />
    <glyph glyph-name="adieresis" unicode="&#xe4;" horiz-adv-x="1294" 
d="M621 -25q-219 0 -373 156t-154 389t154 389t373 156q97 0 183.5 -32t145.5 -91v98h180v-1040h-180v98q-59 -59 -145.5 -91t-183.5 -32zM279 520q0 -171 104.5 -276t257.5 -105q90 0 171.5 37.5t137.5 108.5v471q-56 70 -137.5 107.5t-171.5 37.5q-153 0 -257.5 -105
t-104.5 -276zM330 1346q0 52 36 87t87 35t86.5 -35t35.5 -87t-35.5 -87.5t-86.5 -35.5t-87 35.5t-36 87.5zM739 1346q0 52 36 87t87 35t87 -35t36 -87t-36 -87.5t-87 -35.5t-87 35.5t-36 87.5z" />
    <glyph glyph-name="aring" unicode="&#xe5;" horiz-adv-x="1294" 
d="M621 -25q-219 0 -373 156t-154 389t154 389t373 156q97 0 183.5 -32t145.5 -91v98h180v-1040h-180v98q-59 -59 -145.5 -91t-183.5 -32zM279 520q0 -171 104.5 -276t257.5 -105q90 0 171.5 37.5t137.5 108.5v471q-56 70 -137.5 107.5t-171.5 37.5q-153 0 -257.5 -105
t-104.5 -276zM440 1395q0 88 62.5 147.5t154.5 59.5t154.5 -59.5t62.5 -147.5t-62.5 -147.5t-154.5 -59.5t-154.5 59.5t-62.5 147.5zM567 1395q0 -39 24.5 -64.5t65.5 -25.5t66 25.5t25 64.5t-25 64.5t-66 25.5t-65.5 -25.5t-24.5 -64.5z" />
    <glyph glyph-name="ae" unicode="&#xe6;" horiz-adv-x="2041" 
d="M504 -25q-193 0 -301.5 87.5t-108.5 230.5q0 147 112 235t302 88h375v35q0 122 -72 188t-209 66q-205 0 -346 -166l-129 113q166 213 475 213q149 0 252.5 -52t146.5 -147q75 94 188 146.5t247 52.5q224 0 366 -140.5t142 -367.5q0 -34 -7 -78h-868q10 -162 110 -253
t259 -91q214 0 344 176l129 -98q-76 -114 -199 -176t-278 -62q-145 0 -260.5 54.5t-188.5 154.5q-85 -102 -208 -155.5t-273 -53.5zM279 299q0 -77 61.5 -122.5t177.5 -45.5q121 0 223 49.5t172 145.5q-20 60 -26 139h-371q-115 0 -176 -44.5t-61 -121.5zM1079 635h680
q-20 134 -104 204t-219 70q-137 0 -231.5 -72t-125.5 -202z" />
    <glyph glyph-name="ccedilla" unicode="&#xe7;" horiz-adv-x="1150" 
d="M379 -336l168 318q-201 29 -327 176t-126 356q0 154 72 280.5t197 198.5t276 72q135 0 252.5 -57.5t191.5 -163.5l-143 -109q-123 166 -303 166q-151 0 -253.5 -107.5t-102.5 -273.5q0 -167 103.5 -274t254.5 -107q95 0 178.5 45t143.5 129l137 -100q-67 -101 -170 -161
t-228 -72l-116 -316h-205z" />
    <glyph glyph-name="egrave" unicode="&#xe8;" horiz-adv-x="1251" 
d="M643 -25q-244 0 -396.5 149.5t-152.5 387.5q0 242 156 397.5t395 155.5q224 0 366 -140.5t142 -367.5q0 -41 -6 -78h-868q10 -162 109.5 -253t258.5 -91q214 0 344 176l129 -98q-76 -114 -199 -176t-278 -62zM289 635h680q-20 134 -104.5 204t-219.5 70q-137 0 -231 -72
t-125 -202zM383 1489h223l137 -287h-157z" />
    <glyph glyph-name="eacute" unicode="&#xe9;" horiz-adv-x="1251" 
d="M643 -25q-244 0 -396.5 149.5t-152.5 387.5q0 242 156 397.5t395 155.5q224 0 366 -140.5t142 -367.5q0 -41 -6 -78h-868q10 -162 109.5 -253t258.5 -91q214 0 344 176l129 -98q-76 -114 -199 -176t-278 -62zM289 635h680q-20 134 -104.5 204t-219.5 70q-137 0 -231 -72
t-125 -202zM526 1202l138 287h223l-203 -287h-158z" />
    <glyph glyph-name="ecircumflex" unicode="&#xea;" horiz-adv-x="1251" 
d="M643 -25q-244 0 -396.5 149.5t-152.5 387.5q0 242 156 397.5t395 155.5q224 0 366 -140.5t142 -367.5q0 -41 -6 -78h-868q10 -162 109.5 -253t258.5 -91q214 0 344 176l129 -98q-76 -114 -199 -176t-278 -62zM289 635h680q-20 134 -104.5 204t-219.5 70q-137 0 -231 -72
t-125 -202zM319 1202l240 287h160l239 -287h-172l-147 178l-147 -178h-173z" />
    <glyph glyph-name="edieresis" unicode="&#xeb;" horiz-adv-x="1251" 
d="M643 -25q-244 0 -396.5 149.5t-152.5 387.5q0 242 156 397.5t395 155.5q224 0 366 -140.5t142 -367.5q0 -41 -6 -78h-868q10 -162 109.5 -253t258.5 -91q214 0 344 176l129 -98q-76 -114 -199 -176t-278 -62zM289 635h680q-20 134 -104.5 204t-219.5 70q-137 0 -231 -72
t-125 -202zM311 1346q0 52 36 87t87 35t87 -35t36 -87t-36 -87.5t-87 -35.5t-87 35.5t-36 87.5zM721 1346q0 52 36 87t87 35t87 -35t36 -87t-36 -87.5t-87 -35.5t-87 35.5t-36 87.5z" />
    <glyph glyph-name="igrave" unicode="&#xec;" horiz-adv-x="507" 
d="M164 0v1040h180v-1040h-180zM39 1489h223l96 -287h-157z" />
    <glyph glyph-name="iacute" unicode="&#xed;" horiz-adv-x="507" 
d="M164 0v1040h180v-1040h-180zM141 1202l97 287h223l-162 -287h-158z" />
    <glyph glyph-name="icircumflex" unicode="&#xee;" horiz-adv-x="507" 
d="M164 0v1040h180v-1040h-180zM-37 1202l219 287h144l219 -287h-164l-127 172l-127 -172h-164z" />
    <glyph glyph-name="idieresis" unicode="&#xef;" horiz-adv-x="507" 
d="M164 0v1040h180v-1040h-180zM-47 1346q0 52 36 87t87 35t87 -35t36 -87t-36 -87.5t-87 -35.5t-87 35.5t-36 87.5zM309 1346q0 52 36 87t87 35t87 -35t36 -87t-36 -87.5t-87 -35.5t-87 35.5t-36 87.5z" />
    <glyph glyph-name="eth" unicode="&#xf0;" horiz-adv-x="1288" 
d="M645 -25q-154 0 -280 66.5t-198.5 186t-72.5 268.5q0 146 72.5 265.5t196.5 186t272 66.5q190 0 336 -107q-70 198 -238 332l-229 -164l-64 92l197 140q-128 77 -285 127l66 137q202 -58 356 -164l195 137l63 -92l-164 -117q157 -138 241.5 -323.5t84.5 -401.5
q0 -301 -156 -471q-73 -78 -174.5 -121t-218.5 -43zM279 502q0 -162 105.5 -263.5t262.5 -101.5q166 0 269.5 119.5t103.5 331.5q0 36 -4 106q-156 166 -367 166q-161 0 -265.5 -100.5t-104.5 -257.5z" />
    <glyph glyph-name="ntilde" unicode="&#xf1;" horiz-adv-x="1247" 
d="M913 582q0 156 -70.5 237.5t-195.5 81.5q-83 0 -162.5 -36.5t-140.5 -108.5v-756h-180v1040h180v-102q64 61 153 94t187 33q185 0 297.5 -117.5t112.5 -326.5v-621h-181v582zM293 1282q15 90 68.5 141.5t125.5 51.5q35 0 68 -12t53 -25t49 -35q64 -49 101 -49q59 0 73 94
l123 -39q-15 -90 -68.5 -141t-125.5 -51q-50 0 -88.5 18.5t-81.5 52.5q-64 49 -101 49q-59 0 -73 -94z" />
    <glyph glyph-name="ograve" unicode="&#xf2;" horiz-adv-x="1282" 
d="M641 -25q-234 0 -390.5 155.5t-156.5 389.5t156.5 389.5t390.5 155.5t390.5 -155.5t156.5 -389.5t-156.5 -389.5t-390.5 -155.5zM279 520q0 -165 102 -273t260 -108t260.5 108t102.5 273t-102.5 273t-260.5 108t-260 -108t-102 -273zM385 1489h223l137 -287h-157z" />
    <glyph glyph-name="oacute" unicode="&#xf3;" horiz-adv-x="1282" 
d="M641 -25q-234 0 -390.5 155.5t-156.5 389.5t156.5 389.5t390.5 155.5t390.5 -155.5t156.5 -389.5t-156.5 -389.5t-390.5 -155.5zM279 520q0 -165 102 -273t260 -108t260.5 108t102.5 273t-102.5 273t-260.5 108t-260 -108t-102 -273zM528 1202l138 287h223l-203 -287
h-158z" />
    <glyph glyph-name="ocircumflex" unicode="&#xf4;" horiz-adv-x="1282" 
d="M641 -25q-234 0 -390.5 155.5t-156.5 389.5t156.5 389.5t390.5 155.5t390.5 -155.5t156.5 -389.5t-156.5 -389.5t-390.5 -155.5zM279 520q0 -165 102 -273t260 -108t260.5 108t102.5 273t-102.5 273t-260.5 108t-260 -108t-102 -273zM322 1202l239 287h160l240 -287h-173
l-147 178l-147 -178h-172z" />
    <glyph glyph-name="otilde" unicode="&#xf5;" horiz-adv-x="1282" 
d="M641 -25q-234 0 -390.5 155.5t-156.5 389.5t156.5 389.5t390.5 155.5t390.5 -155.5t156.5 -389.5t-156.5 -389.5t-390.5 -155.5zM279 520q0 -165 102 -273t260 -108t260.5 108t102.5 273t-102.5 273t-260.5 108t-260 -108t-102 -273zM309 1282q15 90 69 141.5t126 51.5
q35 0 68 -12t53 -25t49 -35q64 -49 100 -49q60 0 74 94l123 -39q-15 -90 -68.5 -141t-126.5 -51q-50 0 -88.5 18.5t-81.5 52.5q-64 49 -100 49q-60 0 -74 -94z" />
    <glyph glyph-name="odieresis" unicode="&#xf6;" horiz-adv-x="1282" 
d="M641 -25q-234 0 -390.5 155.5t-156.5 389.5t156.5 389.5t390.5 155.5t390.5 -155.5t156.5 -389.5t-156.5 -389.5t-390.5 -155.5zM279 520q0 -165 102 -273t260 -108t260.5 108t102.5 273t-102.5 273t-260.5 108t-260 -108t-102 -273zM313 1346q0 52 36 87t87 35t87 -35
t36 -87t-36 -87.5t-87 -35.5t-87 35.5t-36 87.5zM723 1346q0 52 36 87t87 35t87 -35t36 -87t-36 -87.5t-87 -35.5t-87 35.5t-36 87.5z" />
    <glyph glyph-name="divide" unicode="&#xf7;" horiz-adv-x="1331" 
d="M213 569v160h903v-160h-903zM541 289q0 52 35 86.5t90 34.5q53 0 87.5 -34.5t34.5 -86.5q0 -53 -34 -88t-88 -35q-55 0 -90 35t-35 88zM541 1010q0 53 35 88t90 35q54 0 88 -35t34 -88q0 -52 -34.5 -86.5t-87.5 -34.5q-55 0 -90 34.5t-35 86.5z" />
    <glyph glyph-name="oslash" unicode="&#xf8;" horiz-adv-x="1282" 
d="M641 -25q-147 0 -274 68l-91 -121l-108 82l90 119q-78 75 -121 177t-43 220q0 234 156.5 389.5t390.5 155.5q147 0 274 -68l89 119l108 -82l-88 -116q78 -75 121 -177.5t43 -220.5q0 -234 -156.5 -389.5t-390.5 -155.5zM270 520q0 -153 95 -266l456 610q-79 45 -180 45
q-161 0 -266 -110.5t-105 -278.5zM461 176q79 -45 180 -45q161 0 266 110.5t105 278.5q0 154 -94 266z" />
    <glyph glyph-name="ugrave" unicode="&#xf9;" horiz-adv-x="1243" 
d="M555 -25q-185 0 -293 114.5t-108 318.5v632h180v-594q0 -151 66.5 -229t191.5 -78q182 0 307 148v753h180v-1040h-180v104q-138 -129 -344 -129zM360 1489h224l137 -287h-158z" />
    <glyph glyph-name="uacute" unicode="&#xfa;" horiz-adv-x="1243" 
d="M555 -25q-185 0 -293 114.5t-108 318.5v632h180v-594q0 -151 66.5 -229t191.5 -78q182 0 307 148v753h180v-1040h-180v104q-138 -129 -344 -129zM504 1202l137 287h223l-202 -287h-158z" />
    <glyph glyph-name="ucircumflex" unicode="&#xfb;" horiz-adv-x="1243" 
d="M555 -25q-185 0 -293 114.5t-108 318.5v632h180v-594q0 -151 66.5 -229t191.5 -78q182 0 307 148v753h180v-1040h-180v104q-138 -129 -344 -129zM297 1202l240 287h159l240 -287h-172l-148 178l-147 -178h-172z" />
    <glyph glyph-name="udieresis" unicode="&#xfc;" horiz-adv-x="1243" 
d="M555 -25q-185 0 -293 114.5t-108 318.5v632h180v-594q0 -151 66.5 -229t191.5 -78q182 0 307 148v753h180v-1040h-180v104q-138 -129 -344 -129zM289 1346q0 52 36 87t87 35t87 -35t36 -87t-36 -87.5t-87 -35.5t-87 35.5t-36 87.5zM698 1346q0 52 36 87t87 35t87 -35
t36 -87t-36 -87.5t-87 -35.5t-87 35.5t-36 87.5z" />
    <glyph glyph-name="yacute" unicode="&#xfd;" horiz-adv-x="1157" 
d="M291 -446l205 466l-469 1020h202l363 -802l348 802h190l-647 -1486h-192zM469 1202l137 287h223l-202 -287h-158z" />
    <glyph glyph-name="thorn" unicode="&#xfe;" horiz-adv-x="1294" 
d="M674 -25q-97 0 -184 32t-146 91v-544h-180v1957h180v-569q59 59 146 91t184 32q143 0 263.5 -70t191.5 -195.5t71 -279.5t-71 -279.5t-191.5 -195.5t-263.5 -70zM344 285q56 -71 137.5 -108.5t171.5 -37.5q153 0 258 105t105 276t-105 276t-258 105q-90 0 -171.5 -37.5
t-137.5 -107.5v-471z" />
    <glyph glyph-name="ydieresis" unicode="&#xff;" horiz-adv-x="1157" 
d="M291 -446l205 466l-469 1020h202l363 -802l348 802h190l-647 -1486h-192zM254 1346q0 52 36 87t87 35t87 -35t36 -87t-36 -87.5t-87 -35.5t-87 35.5t-36 87.5zM664 1346q0 52 35.5 87t86.5 35t87 -35t36 -87t-36 -87.5t-87 -35.5t-86.5 35.5t-35.5 87.5z" />
    <glyph glyph-name="Amacron" unicode="&#x100;" horiz-adv-x="1431" 
d="M31 0l583 1434h203l584 -1434h-197l-151 379h-674l-152 -379h-196zM432 1645v147h569v-147h-569zM444 543h543l-270 680z" />
    <glyph glyph-name="amacron" unicode="&#x101;" horiz-adv-x="1294" 
d="M621 -25q-219 0 -373 156t-154 389t154 389t373 156q97 0 183.5 -32t145.5 -91v98h180v-1040h-180v98q-59 -59 -145.5 -91t-183.5 -32zM279 520q0 -171 104.5 -276t257.5 -105q90 0 171.5 37.5t137.5 108.5v471q-56 70 -137.5 107.5t-171.5 37.5q-153 0 -257.5 -105
t-104.5 -276zM389 1260v139h537v-139h-537z" />
    <glyph glyph-name="Abreve" unicode="&#x102;" horiz-adv-x="1431" 
d="M31 0l583 1434h203l584 -1434h-197l-151 379h-674l-152 -379h-196zM424 1862v10h156q0 -84 36 -126t101 -42t101 42t36 126h156v-10q0 -133 -78 -209t-215 -76t-215 76t-78 209zM444 543h543l-270 680z" />
    <glyph glyph-name="abreve" unicode="&#x103;" horiz-adv-x="1294" 
d="M621 -25q-219 0 -373 156t-154 389t154 389t373 156q97 0 183.5 -32t145.5 -91v98h180v-1040h-180v98q-59 -59 -145.5 -91t-183.5 -32zM279 520q0 -171 104.5 -276t257.5 -105q90 0 171.5 37.5t137.5 108.5v471q-56 70 -137.5 107.5t-171.5 37.5q-153 0 -257.5 -105
t-104.5 -276zM381 1470v11h147q0 -158 129 -158t129 158h148v-11q0 -125 -73.5 -196.5t-203.5 -71.5t-203 71.5t-73 196.5z" />
    <glyph glyph-name="Aogonek" unicode="&#x104;" horiz-adv-x="1431" 
d="M31 0l583 1434h203l584 -1434q-170 -129 -170 -227q0 -86 102 -86q37 0 68 10v-152q-48 -10 -96 -10q-112 0 -178 55.5t-66 149.5q0 77 47.5 146t134.5 114h-39l-151 379h-674l-152 -379h-196zM444 543h543l-270 680z" />
    <glyph glyph-name="aogonek" unicode="&#x105;" horiz-adv-x="1294" 
d="M621 -25q-219 0 -373 156t-154 389t154 389t373 156q97 0 183.5 -32t145.5 -91v98h180v-1040q-87 -66 -123 -117t-36 -98q0 -80 96 -80q32 0 63 8v-141q-45 -10 -90 -10q-105 0 -167 52t-62 140q0 74 44.5 139t127.5 107h-33v98q-59 -59 -145.5 -91t-183.5 -32zM279 520
q0 -171 104.5 -276t257.5 -105q90 0 171.5 37.5t137.5 108.5v471q-56 70 -137.5 107.5t-171.5 37.5q-153 0 -257.5 -105t-104.5 -276z" />
    <glyph glyph-name="Cacute" unicode="&#x106;" horiz-adv-x="1558" 
d="M844 -25q-207 0 -375.5 94t-265.5 263.5t-97 380.5q0 161 58.5 300.5t158.5 236.5t235.5 152.5t287.5 55.5q193 0 359.5 -89t267.5 -249l-156 -98q-74 128 -197 196t-274 68q-154 0 -277 -69t-195.5 -199.5t-72.5 -300.5t72.5 -301t196 -200t276.5 -69t278.5 70.5
t198.5 194.5l154 -97q-100 -159 -266 -249.5t-367 -90.5zM715 1577l145 303h236l-215 -303h-166z" />
    <glyph glyph-name="cacute" unicode="&#x107;" horiz-adv-x="1150" 
d="M637 -25q-235 0 -389 153t-154 386q0 154 72 280.5t197 198.5t276 72q135 0 252.5 -57.5t191.5 -163.5l-143 -109q-123 166 -303 166q-151 0 -253.5 -107.5t-102.5 -273.5q0 -167 103.5 -274t254.5 -107q95 0 178.5 45t143.5 129l137 -100q-75 -114 -195.5 -176
t-265.5 -62zM526 1202l138 287h223l-203 -287h-158z" />
    <glyph glyph-name="Ccircumflex" unicode="&#x108;" horiz-adv-x="1558" 
d="M844 -25q-207 0 -375.5 94t-265.5 263.5t-97 380.5q0 161 58.5 300.5t158.5 236.5t235.5 152.5t287.5 55.5q193 0 359.5 -89t267.5 -249l-156 -98q-74 128 -197 196t-274 68q-154 0 -277 -69t-195.5 -199.5t-72.5 -300.5t72.5 -301t196 -200t276.5 -69t278.5 70.5
t198.5 194.5l154 -97q-100 -159 -266 -249.5t-367 -90.5zM500 1577l254 303h168l254 -303h-183l-155 188l-156 -188h-182z" />
    <glyph glyph-name="ccircumflex" unicode="&#x109;" horiz-adv-x="1150" 
d="M637 -25q-235 0 -389 153t-154 386q0 154 72 280.5t197 198.5t276 72q135 0 252.5 -57.5t191.5 -163.5l-143 -109q-123 166 -303 166q-151 0 -253.5 -107.5t-102.5 -273.5q0 -167 103.5 -274t254.5 -107q95 0 178.5 45t143.5 129l137 -100q-75 -114 -195.5 -176
t-265.5 -62zM319 1202l240 287h160l239 -287h-172l-147 178l-147 -178h-173z" />
    <glyph glyph-name="Cdotaccent" unicode="&#x10a;" horiz-adv-x="1558" 
d="M844 -25q-207 0 -375.5 94t-265.5 263.5t-97 380.5q0 161 58.5 300.5t158.5 236.5t235.5 152.5t287.5 55.5q193 0 359.5 -89t267.5 -249l-156 -98q-74 128 -197 196t-274 68q-154 0 -277 -69t-195.5 -199.5t-72.5 -300.5t72.5 -301t196 -200t276.5 -69t278.5 70.5
t198.5 194.5l154 -97q-100 -159 -266 -249.5t-367 -90.5zM707 1729q0 55 38.5 93t92.5 38t92.5 -38t38.5 -93t-38.5 -93.5t-92.5 -38.5t-92.5 38.5t-38.5 93.5z" />
    <glyph glyph-name="cdotaccent" unicode="&#x10b;" horiz-adv-x="1150" 
d="M637 -25q-235 0 -389 153t-154 386q0 154 72 280.5t197 198.5t276 72q135 0 252.5 -57.5t191.5 -163.5l-143 -109q-123 166 -303 166q-151 0 -253.5 -107.5t-102.5 -273.5q0 -167 103.5 -274t254.5 -107q95 0 178.5 45t143.5 129l137 -100q-75 -114 -195.5 -176
t-265.5 -62zM516 1346q0 52 36 87t87 35t87 -35t36 -87t-36 -87.5t-87 -35.5t-87 35.5t-36 87.5z" />
    <glyph glyph-name="Ccaron" unicode="&#x10c;" horiz-adv-x="1558" 
d="M844 -25q-207 0 -375.5 94t-265.5 263.5t-97 380.5q0 161 58.5 300.5t158.5 236.5t235.5 152.5t287.5 55.5q193 0 359.5 -89t267.5 -249l-156 -98q-74 128 -197 196t-274 68q-154 0 -277 -69t-195.5 -199.5t-72.5 -300.5t72.5 -301t196 -200t276.5 -69t278.5 70.5
t198.5 194.5l154 -97q-100 -159 -266 -249.5t-367 -90.5zM500 1880h182l156 -188l155 188h183l-254 -303h-168z" />
    <glyph glyph-name="ccaron" unicode="&#x10d;" horiz-adv-x="1150" 
d="M637 -25q-235 0 -389 153t-154 386q0 154 72 280.5t197 198.5t276 72q135 0 252.5 -57.5t191.5 -163.5l-143 -109q-123 166 -303 166q-151 0 -253.5 -107.5t-102.5 -273.5q0 -167 103.5 -274t254.5 -107q95 0 178.5 45t143.5 129l137 -100q-75 -114 -195.5 -176
t-265.5 -62zM319 1489h173l147 -178l147 178h172l-239 -287h-160z" />
    <glyph glyph-name="Dcaron" unicode="&#x10e;" horiz-adv-x="1480" 
d="M195 0v1434h446q211 0 376.5 -86.5t261 -250.5t95.5 -380t-95.5 -380t-261 -250.5t-376.5 -86.5h-446zM330 1866h182l156 -189l155 189h183l-254 -303h-168zM383 172h238q260 0 410.5 141.5t150.5 403.5t-150.5 403.5t-410.5 141.5h-238v-1090z" />
    <glyph glyph-name="dcaron" unicode="&#x10f;" horiz-adv-x="1533" 
d="M621 -25q-219 0 -373 156t-154 389t154 389t373 156q97 0 183.5 -32t145.5 -91v569h180v-1511h-180v98q-59 -59 -145.5 -91t-183.5 -32zM279 520q0 -171 104.5 -276t257.5 -105q90 0 171.5 37.5t137.5 108.5v471q-56 70 -137.5 107.5t-171.5 37.5q-153 0 -257.5 -105
t-104.5 -276zM1305 1395q0 48 36 82t89 34q63 0 104 -49.5t41 -136.5q0 -180 -178 -313l-64 67q124 110 121 201q-20 -4 -33 -4q-51 0 -83.5 34t-32.5 85z" />
    <glyph glyph-name="Dcroat" unicode="&#x110;" horiz-adv-x="1511" 
d="M225 0v668h-213v151h213v615h447q211 0 376.5 -86.5t261 -250.5t95.5 -380t-95.5 -380t-261 -250.5t-376.5 -86.5h-447zM414 172h237q260 0 410.5 141.5t150.5 403.5t-150.5 403.5t-410.5 141.5h-237v-443h323v-151h-323v-496z" />
    <glyph glyph-name="dcroat" unicode="&#x111;" horiz-adv-x="1294" 
d="M621 -25q-144 0 -264.5 68.5t-191.5 192t-71 274.5t71 274t191.5 191.5t264.5 68.5q97 0 183.5 -31.5t145.5 -90.5v274h-336v135h336v180h180v-180h189v-135h-189v-1196h-180v98q-59 -59 -145.5 -91t-183.5 -32zM279 510q0 -167 103 -269t259 -102q90 0 171.5 37.5
t137.5 108.5v450q-56 71 -137.5 108.5t-171.5 37.5q-156 0 -259 -102t-103 -269z" />
    <glyph glyph-name="Emacron" unicode="&#x112;" horiz-adv-x="1310" 
d="M195 0v1434h983v-172h-795v-426h702v-172h-702v-492h795v-172h-983zM401 1645v147h570v-147h-570z" />
    <glyph glyph-name="emacron" unicode="&#x113;" horiz-adv-x="1251" 
d="M643 -25q-244 0 -396.5 149.5t-152.5 387.5q0 242 156 397.5t395 155.5q224 0 366 -140.5t142 -367.5q0 -41 -6 -78h-868q10 -162 109.5 -253t258.5 -91q214 0 344 176l129 -98q-76 -114 -199 -176t-278 -62zM289 635h680q-20 134 -104.5 204t-219.5 70q-137 0 -231 -72
t-125 -202zM371 1260v139h536v-139h-536z" />
    <glyph glyph-name="Ebreve" unicode="&#x114;" horiz-adv-x="1310" 
d="M195 0v1434h983v-172h-795v-426h702v-172h-702v-492h795v-172h-983zM393 1862v10h156q0 -84 36 -126t101 -42t101 42t36 126h156v-10q0 -133 -78 -209t-215 -76t-215 76t-78 209z" />
    <glyph glyph-name="ebreve" unicode="&#x115;" horiz-adv-x="1251" 
d="M643 -25q-244 0 -396.5 149.5t-152.5 387.5q0 242 156 397.5t395 155.5q224 0 366 -140.5t142 -367.5q0 -41 -6 -78h-868q10 -162 109.5 -253t258.5 -91q214 0 344 176l129 -98q-76 -114 -199 -176t-278 -62zM289 635h680q-20 134 -104.5 204t-219.5 70q-137 0 -231 -72
t-125 -202zM362 1470v11h148q0 -158 129 -158t129 158h147v-11q0 -125 -73 -196.5t-203 -71.5t-203.5 71.5t-73.5 196.5z" />
    <glyph glyph-name="Edotaccent" unicode="&#x116;" horiz-adv-x="1310" 
d="M195 0v1434h983v-172h-795v-426h702v-172h-702v-492h795v-172h-983zM555 1729q0 55 38.5 93t92.5 38t92.5 -38t38.5 -93t-38.5 -93.5t-92.5 -38.5t-92.5 38.5t-38.5 93.5z" />
    <glyph glyph-name="edotaccent" unicode="&#x117;" horiz-adv-x="1251" 
d="M643 -25q-244 0 -396.5 149.5t-152.5 387.5q0 242 156 397.5t395 155.5q224 0 366 -140.5t142 -367.5q0 -41 -6 -78h-868q10 -162 109.5 -253t258.5 -91q214 0 344 176l129 -98q-76 -114 -199 -176t-278 -62zM289 635h680q-20 134 -104.5 204t-219.5 70q-137 0 -231 -72
t-125 -202zM516 1346q0 52 36 87t87 35t87 -35t36 -87t-36 -87.5t-87 -35.5t-87 35.5t-36 87.5z" />
    <glyph glyph-name="Eogonek" unicode="&#x118;" horiz-adv-x="1310" 
d="M195 0v1434h983v-172h-795v-426h702v-172h-702v-492h795v-172q-170 -129 -170 -227q0 -86 102 -86q37 0 68 10v-152q-48 -10 -97 -10q-112 0 -177.5 55.5t-65.5 149.5q0 77 47.5 146t134.5 114h-825z" />
    <glyph glyph-name="eogonek" unicode="&#x119;" horiz-adv-x="1251" 
d="M643 -25q-244 0 -396.5 149.5t-152.5 387.5q0 242 156 397.5t395 155.5q224 0 366 -140.5t142 -367.5q0 -41 -6 -78h-868q10 -162 109.5 -253t258.5 -91q214 0 344 176l129 -98q-103 -150 -270 -205q-87 -66 -123.5 -117t-36.5 -98q0 -80 96 -80q33 0 64 8v-141
q-45 -10 -90 -10q-106 0 -168 52t-62 140q0 126 119 213h-6zM289 635h680q-20 134 -104.5 204t-219.5 70q-137 0 -231 -72t-125 -202z" />
    <glyph glyph-name="Ecaron" unicode="&#x11a;" horiz-adv-x="1310" 
d="M195 0v1434h983v-172h-795v-426h702v-172h-702v-492h795v-172h-983zM348 1880h182l156 -188l156 188h182l-254 -303h-168z" />
    <glyph glyph-name="ecaron" unicode="&#x11b;" horiz-adv-x="1251" 
d="M643 -25q-244 0 -396.5 149.5t-152.5 387.5q0 242 156 397.5t395 155.5q224 0 366 -140.5t142 -367.5q0 -41 -6 -78h-868q10 -162 109.5 -253t258.5 -91q214 0 344 176l129 -98q-76 -114 -199 -176t-278 -62zM289 635h680q-20 134 -104.5 204t-219.5 70q-137 0 -231 -72
t-125 -202zM319 1489h173l147 -178l147 178h172l-239 -287h-160z" />
    <glyph glyph-name="Gcircumflex" unicode="&#x11c;" horiz-adv-x="1613" 
d="M862 -25q-219 0 -391 92.5t-268.5 260t-96.5 381.5q0 163 58 303t158 237.5t236.5 153t291.5 55.5q173 0 323 -69t254 -199l-149 -107q-74 99 -187 151t-245 52q-116 0 -216 -40t-173.5 -113t-115.5 -181.5t-42 -238.5q0 -262 157.5 -414t411.5 -152q240 0 414 127v363
h-383v170h563v-623q-271 -209 -600 -209zM492 1577l253 303h168l254 -303h-182l-156 188l-155 -188h-182z" />
    <glyph glyph-name="gcircumflex" unicode="&#x11d;" horiz-adv-x="1294" 
d="M614 -471q-146 0 -273 50t-218 142l113 132q99 -86 189.5 -123t188.5 -37q159 0 247.5 84.5t88.5 234.5v103q-59 -59 -145 -91t-182 -32q-107 0 -204.5 41t-169 111.5t-113.5 170.5t-42 213q0 150 71.5 274t193 193.5t264.5 69.5q96 0 182 -32t145 -91v98h180v-1028
q0 -225 -138 -354t-378 -129zM279 528q0 -165 104.5 -268.5t255.5 -103.5q89 0 171.5 37.5t139.5 107.5v455q-57 70 -139.5 107.5t-171.5 37.5q-151 0 -255.5 -104t-104.5 -269zM315 1202l240 287h160l239 -287h-172l-147 178l-148 -178h-172z" />
    <glyph glyph-name="Gbreve" unicode="&#x11e;" horiz-adv-x="1613" 
d="M862 -25q-219 0 -391 92.5t-268.5 260t-96.5 381.5q0 163 58 303t158 237.5t236.5 153t291.5 55.5q173 0 323 -69t254 -199l-149 -107q-74 99 -187 151t-245 52q-116 0 -216 -40t-173.5 -113t-115.5 -181.5t-42 -238.5q0 -262 157.5 -414t411.5 -152q240 0 414 127v363
h-383v170h563v-623q-271 -209 -600 -209zM537 1862v10h155q0 -84 36 -126t101 -42t101.5 42t36.5 126h155v-10q0 -133 -78 -209t-215 -76t-214.5 76t-77.5 209z" />
    <glyph glyph-name="gbreve" unicode="&#x11f;" horiz-adv-x="1294" 
d="M614 -471q-146 0 -273 50t-218 142l113 132q99 -86 189.5 -123t188.5 -37q159 0 247.5 84.5t88.5 234.5v103q-59 -59 -145 -91t-182 -32q-107 0 -204.5 41t-169 111.5t-113.5 170.5t-42 213q0 150 71.5 274t193 193.5t264.5 69.5q96 0 182 -32t145 -91v98h180v-1028
q0 -225 -138 -354t-378 -129zM279 528q0 -165 104.5 -268.5t255.5 -103.5q89 0 171.5 37.5t139.5 107.5v455q-57 70 -139.5 107.5t-171.5 37.5q-151 0 -255.5 -104t-104.5 -269zM358 1470v11h148q0 -158 129 -158t129 158h147v-11q0 -125 -73 -196.5t-203 -71.5t-203.5 71.5
t-73.5 196.5z" />
    <glyph glyph-name="Gdotaccent" unicode="&#x120;" horiz-adv-x="1613" 
d="M862 -25q-219 0 -391 92.5t-268.5 260t-96.5 381.5q0 163 58 303t158 237.5t236.5 153t291.5 55.5q173 0 323 -69t254 -199l-149 -107q-74 99 -187 151t-245 52q-116 0 -216 -40t-173.5 -113t-115.5 -181.5t-42 -238.5q0 -262 157.5 -414t411.5 -152q240 0 414 127v363
h-383v170h563v-623q-271 -209 -600 -209zM698 1729q0 55 38.5 93t92.5 38t93 -38t39 -93t-39 -93.5t-93 -38.5t-92.5 38.5t-38.5 93.5z" />
    <glyph glyph-name="gdotaccent" unicode="&#x121;" horiz-adv-x="1294" 
d="M614 -471q-146 0 -273 50t-218 142l113 132q99 -86 189.5 -123t188.5 -37q159 0 247.5 84.5t88.5 234.5v103q-59 -59 -145 -91t-182 -32q-107 0 -204.5 41t-169 111.5t-113.5 170.5t-42 213q0 150 71.5 274t193 193.5t264.5 69.5q96 0 182 -32t145 -91v98h180v-1028
q0 -225 -138 -354t-378 -129zM279 528q0 -165 104.5 -268.5t255.5 -103.5q89 0 171.5 37.5t139.5 107.5v455q-57 70 -139.5 107.5t-171.5 37.5q-151 0 -255.5 -104t-104.5 -269zM512 1346q0 52 36 87t87 35t87 -35t36 -87t-36 -87.5t-87 -35.5t-87 35.5t-36 87.5z" />
    <glyph glyph-name="uni0122" unicode="&#x122;" horiz-adv-x="1613" 
d="M862 -25q-219 0 -391 92.5t-268.5 260t-96.5 381.5q0 163 58 303t158 237.5t236.5 153t291.5 55.5q173 0 323 -69t254 -199l-149 -107q-74 99 -187 151t-245 52q-116 0 -216 -40t-173.5 -113t-115.5 -181.5t-42 -238.5q0 -262 157.5 -414t411.5 -152q240 0 414 127v363
h-383v170h563v-623q-271 -209 -600 -209zM694 -279q0 48 36 82.5t89 34.5q63 0 104.5 -47.5t41.5 -124.5q0 -104 -58 -186h-110q51 75 45 137q-16 -4 -31 -4q-52 0 -84.5 29t-32.5 79z" />
    <glyph glyph-name="uni0123" unicode="&#x123;" horiz-adv-x="1294" 
d="M614 -471q-146 0 -273 50t-218 142l113 132q99 -86 189.5 -123t188.5 -37q159 0 247.5 84.5t88.5 234.5v103q-59 -59 -145 -91t-182 -32q-107 0 -204.5 41t-169 111.5t-113.5 170.5t-42 213q0 150 71.5 274t193 193.5t264.5 69.5q96 0 182 -32t145 -91v98h180v-1028
q0 -225 -138 -354t-378 -129zM279 528q0 -165 104.5 -268.5t255.5 -103.5q89 0 171.5 37.5t139.5 107.5v455q-57 70 -139.5 107.5t-171.5 37.5q-151 0 -255.5 -104t-104.5 -269zM500 1374q0 107 57 187h111q-51 -75 -45 -138q16 4 30 4q52 0 84.5 -29t32.5 -79
q0 -48 -36 -82.5t-89 -34.5q-63 0 -104 47.5t-41 124.5z" />
    <glyph glyph-name="Hcircumflex" unicode="&#x124;" horiz-adv-x="1564" 
d="M195 0v1434h188v-607h799v607h188v-1434h-188v655h-799v-655h-188zM444 1577l254 303h168l254 -303h-182l-156 188l-155 -188h-183z" />
    <glyph glyph-name="hcircumflex" unicode="&#x125;" horiz-adv-x="1247" 
d="M913 582q0 156 -70.5 237.5t-195.5 81.5q-83 0 -162.5 -36.5t-140.5 -108.5v-756h-180v1511h180v-573q64 61 153 94t187 33q185 0 297.5 -117.5t112.5 -326.5v-621h-181v582zM-84 1655l254 303h168l254 -303h-182l-156 188l-156 -188h-182z" />
    <glyph glyph-name="Hbar" unicode="&#x126;" horiz-adv-x="1617" 
d="M221 0v1042h-129v144h129v248h189v-248h798v248h189v-248h129v-144h-129v-1042h-189v655h-798v-655h-189zM410 827h798v215h-798v-215z" />
    <glyph glyph-name="hbar" unicode="&#x127;" horiz-adv-x="1247" 
d="M913 561q0 156 -70.5 238t-195.5 82q-83 0 -162.5 -37t-140.5 -109v-735h-180v1196h-189v135h189v180h180v-180h336v-135h-336v-278q64 61 153 93.5t187 32.5q185 0 297.5 -117.5t112.5 -326.5v-600h-181v561z" />
    <glyph glyph-name="Itilde" unicode="&#x128;" horiz-adv-x="577" 
d="M195 0v1434h188v-1434h-188zM-66 1665q17 98 74 151.5t135 53.5q36 0 72.5 -13t56.5 -26t52 -37q23 -18 36.5 -27.5t33 -17.5t36.5 -8q63 0 80 100l131 -41q-17 -98 -74 -151.5t-135 -53.5q-36 0 -72.5 13.5t-56 26t-51.5 36.5q-68 53 -107 53q-62 0 -79 -100z" />
    <glyph glyph-name="itilde" unicode="&#x129;" horiz-adv-x="507" 
d="M164 0v1040h180v-1040h-180zM-61 1276q15 90 67.5 141t120.5 51q73 0 152 -71q56 -49 94 -49q59 0 78 94l118 -37q-15 -90 -67.5 -141.5t-120.5 -51.5q-72 0 -152 72q-56 49 -94 49q-59 0 -78 -94z" />
    <glyph glyph-name="Imacron" unicode="&#x12a;" horiz-adv-x="577" 
d="M195 0v1434h188v-1434h-188zM4 1645v147h569v-147h-569z" />
    <glyph glyph-name="imacron" unicode="&#x12b;" horiz-adv-x="507" 
d="M164 0v1040h180v-1040h-180zM4 1262v139h500v-139h-500z" />
    <glyph glyph-name="Ibreve" unicode="&#x12c;" horiz-adv-x="577" 
d="M195 0v1434h188v-1434h-188zM-4 1862v10h156q0 -84 36 -126t101 -42t101 42t36 126h156v-10q0 -133 -78 -209t-215 -76t-215 76t-78 209z" />
    <glyph glyph-name="ibreve" unicode="&#x12d;" horiz-adv-x="507" 
d="M164 0v1040h180v-1040h-180zM-6 1470v11h137q0 -79 32.5 -118.5t90.5 -39.5t90.5 39.5t32.5 118.5h137v-11q0 -126 -67.5 -197t-192.5 -71t-192.5 71t-67.5 197z" />
    <glyph glyph-name="Iogonek" unicode="&#x12e;" horiz-adv-x="577" 
d="M195 0v1434h188v-1434q-75 -75 -103 -123.5t-28 -89.5q0 -82 80 -82q24 0 51 8v-141q-42 -10 -80 -10q-94 0 -151.5 51t-57.5 133q0 72 44.5 141t121.5 113h-65z" />
    <glyph glyph-name="iogonek" unicode="&#x12f;" horiz-adv-x="507" 
d="M164 0v1040h180v-1040q-75 -75 -103 -123.5t-28 -89.5q0 -82 80 -82q24 0 51 8v-141q-42 -10 -80 -10q-94 0 -151.5 51t-57.5 133q0 72 44.5 141t121.5 113h-57zM131 1346q0 52 36 87t87 35t87 -35t36 -87t-36 -87.5t-87 -35.5t-87 35.5t-36 87.5z" />
    <glyph glyph-name="Idotaccent" unicode="&#x130;" horiz-adv-x="577" 
d="M195 0v1434h188v-1434h-188zM158 1729q0 55 38.5 93t92.5 38t92.5 -38t38.5 -93t-38.5 -93.5t-92.5 -38.5t-92.5 38.5t-38.5 93.5z" />
    <glyph glyph-name="dotlessi" unicode="&#x131;" horiz-adv-x="507" 
d="M164 0v1040h180v-1040h-180z" />
    <glyph glyph-name="Jcircumflex" unicode="&#x134;" horiz-adv-x="1173" 
d="M510 -25q-237 0 -449 146l97 151q190 -125 350 -125q143 0 222 84.5t79 249.5v953h188v-965q0 -239 -128 -366.5t-359 -127.5zM565 1577l254 303h168l254 -303h-182l-156 188l-155 -188h-183z" />
    <glyph glyph-name="jcircumflex" unicode="&#x135;" horiz-adv-x="507" 
d="M14 -471q-99 0 -178 33l29 157q68 -22 125 -22q174 0 174 215v1128h180v-1153q0 -179 -85.5 -268.5t-244.5 -89.5zM-39 1202l219 287h144l219 -287h-164l-127 172l-127 -172h-164z" />
    <glyph glyph-name="uni0136" unicode="&#x136;" horiz-adv-x="1456" 
d="M195 0v1434h188v-789l768 789h231l-634 -656l675 -778h-241l-561 645l-238 -244v-401h-188zM600 -279q0 48 36 82.5t89 34.5q63 0 104 -47.5t41 -124.5q0 -106 -57 -186h-111q51 76 46 137q-16 -4 -31 -4q-52 0 -84.5 29t-32.5 79z" />
    <glyph glyph-name="uni0137" unicode="&#x137;" horiz-adv-x="1200" 
d="M164 0v1511h180v-995l561 524h230l-480 -452l521 -588h-230l-416 469l-186 -176v-293h-180zM465 -279q0 48 36 82.5t89 34.5q63 0 104 -47.5t41 -124.5q0 -106 -57 -186h-111q51 75 45 137q-16 -4 -30 -4q-52 0 -84.5 29t-32.5 79z" />
    <glyph glyph-name="Lacute" unicode="&#x139;" horiz-adv-x="1189" 
d="M195 0v1434h188v-1262h729v-172h-917zM166 1577l145 303h236l-215 -303h-166z" />
    <glyph glyph-name="lacute" unicode="&#x13a;" horiz-adv-x="507" 
d="M164 0v1511h180v-1511h-180zM131 1655l145 303h236l-215 -303h-166z" />
    <glyph glyph-name="uni013B" unicode="&#x13b;" horiz-adv-x="1189" 
d="M195 0v1434h188v-1262h729v-172h-917zM518 -279q0 48 36 82.5t89 34.5q63 0 104 -47.5t41 -124.5q0 -106 -57 -186h-110q51 75 45 137q-16 -4 -31 -4q-52 0 -84.5 29t-32.5 79z" />
    <glyph glyph-name="uni013C" unicode="&#x13c;" horiz-adv-x="507" 
d="M164 0v1511h180v-1511h-180zM119 -279q0 48 36 82.5t89 34.5q63 0 104 -47.5t41 -124.5q0 -106 -57 -186h-111q51 75 45 137q-16 -4 -30 -4q-52 0 -84.5 29t-32.5 79z" />
    <glyph glyph-name="Lcaron" unicode="&#x13d;" horiz-adv-x="1189" 
d="M195 0v1434h188v-1262h729v-172h-917zM637 1341q0 48 36 82.5t89 34.5q63 0 104 -49.5t41 -136.5q0 -181 -178 -314l-63 68q123 109 120 201q-20 -4 -32 -4q-51 0 -84 33.5t-33 84.5z" />
    <glyph glyph-name="lcaron" unicode="&#x13e;" horiz-adv-x="751" 
d="M164 0v1511h180v-1511h-180zM522 1395q0 48 36 82t89 34q64 0 105 -49.5t41 -136.5q0 -179 -179 -313l-63 67q124 110 121 201q-20 -4 -33 -4q-51 0 -84 34t-33 85z" />
    <glyph glyph-name="Ldot" unicode="&#x13f;" horiz-adv-x="1210" 
d="M195 0v1434h188v-1262h729v-172h-917zM621 715q0 55 36.5 92t92.5 37t92.5 -37t36.5 -92t-36.5 -92t-92.5 -37t-92.5 37t-36.5 92z" />
    <glyph glyph-name="ldot" unicode="&#x140;" horiz-adv-x="815" 
d="M164 0v1511h180v-1511h-180zM526 543q0 55 37 92t92 37t92 -37t37 -92t-37 -92t-92 -37t-92 37t-37 92z" />
    <glyph glyph-name="Lslash" unicode="&#x141;" horiz-adv-x="1234" 
d="M240 0v514l-228 -166v182l228 166v738h188v-603l383 279v-182l-383 -279v-477h729v-172h-917z" />
    <glyph glyph-name="lslash" unicode="&#x142;" horiz-adv-x="679" 
d="M250 0v590l-221 -160v176l221 160v745h180v-614l221 160v-176l-221 -160v-721h-180z" />
    <glyph glyph-name="Nacute" unicode="&#x143;" horiz-adv-x="1589" 
d="M195 0v1434h198l813 -1143v1143h189v-1434h-199l-813 1143v-1143h-188zM672 1577l145 303h236l-215 -303h-166z" />
    <glyph glyph-name="nacute" unicode="&#x144;" horiz-adv-x="1247" 
d="M913 582q0 156 -70.5 237.5t-195.5 81.5q-83 0 -162.5 -36.5t-140.5 -108.5v-756h-180v1040h180v-102q64 61 153 94t187 33q185 0 297.5 -117.5t112.5 -326.5v-621h-181v582zM512 1202l137 287h223l-202 -287h-158z" />
    <glyph glyph-name="uni0145" unicode="&#x145;" horiz-adv-x="1589" 
d="M195 0v1434h198l813 -1143v1143h189v-1434h-199l-813 1143v-1143h-188zM659 -279q0 48 36 82.5t89 34.5q63 0 104.5 -47.5t41.5 -124.5q0 -104 -58 -186h-110q51 75 45 137q-16 -4 -31 -4q-52 0 -84.5 29t-32.5 79z" />
    <glyph glyph-name="uni0146" unicode="&#x146;" horiz-adv-x="1247" 
d="M913 582q0 156 -70.5 237.5t-195.5 81.5q-83 0 -162.5 -36.5t-140.5 -108.5v-756h-180v1040h180v-102q64 61 153 94t187 33q185 0 297.5 -117.5t112.5 -326.5v-621h-181v582zM494 -279q0 48 35.5 82.5t88.5 34.5q63 0 104.5 -47.5t41.5 -124.5q0 -106 -57 -186h-111
q51 75 45 137q-16 -4 -31 -4q-52 0 -84 29t-32 79z" />
    <glyph glyph-name="Ncaron" unicode="&#x147;" horiz-adv-x="1589" 
d="M195 0v1434h198l813 -1143v1143h189v-1434h-199l-813 1143v-1143h-188zM457 1880h182l156 -188l155 188h183l-254 -303h-168z" />
    <glyph glyph-name="ncaron" unicode="&#x148;" horiz-adv-x="1247" 
d="M913 582q0 156 -70.5 237.5t-195.5 81.5q-83 0 -162.5 -36.5t-140.5 -108.5v-756h-180v1040h180v-102q64 61 153 94t187 33q185 0 297.5 -117.5t112.5 -326.5v-621h-181v582zM305 1489h172l148 -178l147 178h172l-239 -287h-160z" />
    <glyph glyph-name="Eng" unicode="&#x14a;" horiz-adv-x="1589" 
d="M1065 -377q-99 0 -178 33l31 166q74 -23 124 -23q77 0 120.5 47.5t43.5 139.5v14l-823 1147v-1147h-188v1434h198l813 -1133v1133h189v-1432q0 -379 -330 -379z" />
    <glyph glyph-name="eng" unicode="&#x14b;" horiz-adv-x="1247" 
d="M764 -348q-99 0 -178 33l28 157q68 -22 125 -22q174 0 174 215v547q0 156 -70.5 237.5t-195.5 81.5q-83 0 -162.5 -36.5t-140.5 -108.5v-756h-180v1040h180v-102q64 61 153 94t187 33q185 0 297.5 -117.5t112.5 -326.5v-611q0 -179 -85.5 -268.5t-244.5 -89.5z" />
    <glyph glyph-name="Omacron" unicode="&#x14c;" horiz-adv-x="1687" 
d="M844 -25q-151 0 -286.5 55.5t-235 152t-158 236t-58.5 298.5t58.5 298t158 235.5t235 152t286.5 55.5t286.5 -55.5t234.5 -152t157.5 -235.5t58.5 -298q0 -212 -99.5 -383t-267.5 -265t-370 -94zM299 717q0 -170 72.5 -301t196 -200t276.5 -69t276.5 69t196 200t72.5 301
t-72.5 300.5t-195.5 199.5t-277 69t-277 -69t-195.5 -199.5t-72.5 -300.5zM559 1645v147h569v-147h-569z" />
    <glyph glyph-name="omacron" unicode="&#x14d;" horiz-adv-x="1282" 
d="M641 -25q-234 0 -390.5 155.5t-156.5 389.5t156.5 389.5t390.5 155.5t390.5 -155.5t156.5 -389.5t-156.5 -389.5t-390.5 -155.5zM279 520q0 -165 102 -273t260 -108t260.5 108t102.5 273t-102.5 273t-260.5 108t-260 -108t-102 -273zM373 1260v139h536v-139h-536z" />
    <glyph glyph-name="Obreve" unicode="&#x14e;" horiz-adv-x="1687" 
d="M844 -25q-151 0 -286.5 55.5t-235 152t-158 236t-58.5 298.5t58.5 298t158 235.5t235 152t286.5 55.5t286.5 -55.5t234.5 -152t157.5 -235.5t58.5 -298q0 -212 -99.5 -383t-267.5 -265t-370 -94zM299 717q0 -170 72.5 -301t196 -200t276.5 -69t276.5 69t196 200t72.5 301
t-72.5 300.5t-195.5 199.5t-277 69t-277 -69t-195.5 -199.5t-72.5 -300.5zM551 1862v10h156q0 -84 36 -126t101 -42t101 42t36 126h156v-10q0 -133 -78 -209t-215 -76t-215 76t-78 209z" />
    <glyph glyph-name="obreve" unicode="&#x14f;" horiz-adv-x="1282" 
d="M641 -25q-234 0 -390.5 155.5t-156.5 389.5t156.5 389.5t390.5 155.5t390.5 -155.5t156.5 -389.5t-156.5 -389.5t-390.5 -155.5zM279 520q0 -165 102 -273t260 -108t260.5 108t102.5 273t-102.5 273t-260.5 108t-260 -108t-102 -273zM365 1470v11h147q0 -158 129 -158
t129 158h148v-11q0 -125 -73.5 -196.5t-203.5 -71.5t-203 71.5t-73 196.5z" />
    <glyph glyph-name="Ohungarumlaut" unicode="&#x150;" horiz-adv-x="1687" 
d="M844 -25q-151 0 -286.5 55.5t-235 152t-158 236t-58.5 298.5t58.5 298t158 235.5t235 152t286.5 55.5t286.5 -55.5t234.5 -152t157.5 -235.5t58.5 -298q0 -212 -99.5 -383t-267.5 -265t-370 -94zM299 717q0 -170 72.5 -301t196 -200t276.5 -69t276.5 69t196 200t72.5 301
t-72.5 300.5t-195.5 199.5t-277 69t-277 -69t-195.5 -199.5t-72.5 -300.5zM551 1577l127 303h196l-180 -303h-143zM891 1577l129 303h194l-180 -303h-143z" />
    <glyph glyph-name="ohungarumlaut" unicode="&#x151;" horiz-adv-x="1282" 
d="M641 -25q-234 0 -390.5 155.5t-156.5 389.5t156.5 389.5t390.5 155.5t390.5 -155.5t156.5 -389.5t-156.5 -389.5t-390.5 -155.5zM279 520q0 -165 102 -273t260 -108t260.5 108t102.5 273t-102.5 273t-260.5 108t-260 -108t-102 -273zM367 1202l120 287h185l-170 -287
h-135zM688 1202l121 287h184l-170 -287h-135z" />
    <glyph glyph-name="OE" unicode="&#x152;" horiz-adv-x="2201" 
d="M840 0q-211 0 -377 86.5t-261.5 250.5t-95.5 380t95.5 380t261.5 250.5t377 86.5h1228v-172h-794v-426h702v-172h-702v-492h794v-172h-1228zM299 717q0 -262 150.5 -403.5t410.5 -141.5h225v1090h-225q-260 0 -410.5 -141.5t-150.5 -403.5z" />
    <glyph glyph-name="oe" unicode="&#x153;" horiz-adv-x="2160" 
d="M641 139q158 0 260.5 108t102.5 273t-102.5 273t-260.5 108t-260 -108t-102 -273t102 -273t260 -108zM94 520q0 234 156.5 389.5t390.5 155.5q144 0 263 -62.5t192 -171.5q73 110 192 172t266 62q224 0 366 -140.5t142 -367.5q0 -41 -6 -78h-868q10 -162 109.5 -253
t258.5 -91q215 0 345 176l129 -98q-76 -114 -199.5 -176t-278.5 -62q-151 0 -269.5 60t-190.5 168q-73 -106 -191 -167t-260 -61q-234 0 -390.5 155.5t-156.5 389.5zM1198 635h680q-20 134 -104.5 204t-219.5 70q-137 0 -231 -72t-125 -202z" />
    <glyph glyph-name="Racute" unicode="&#x154;" horiz-adv-x="1419" 
d="M195 0v1434h565q231 0 363 -114t132 -316q0 -174 -99.5 -284t-278.5 -138l440 -582h-236l-428 573h-270v-573h-188zM383 745h356q324 0 324 259q0 129 -79.5 193.5t-244.5 64.5h-356v-517zM578 1577l145 303h235l-215 -303h-165z" />
    <glyph glyph-name="racute" unicode="&#x155;" horiz-adv-x="804" 
d="M164 0v1040h180v-129q49 72 131 113t176 41q54 0 109 -14l-15 -166q-53 12 -100 12q-98 0 -176 -47.5t-125 -138.5v-711h-180zM340 1202l137 287h223l-202 -287h-158z" />
    <glyph glyph-name="uni0156" unicode="&#x156;" horiz-adv-x="1419" 
d="M195 0v1434h565q231 0 363 -114t132 -316q0 -174 -99.5 -284t-278.5 -138l440 -582h-236l-428 573h-270v-573h-188zM383 745h356q324 0 324 259q0 129 -79.5 193.5t-244.5 64.5h-356v-517zM575 -279q0 48 36 82.5t89 34.5q63 0 104.5 -47.5t41.5 -124.5q0 -104 -58 -186
h-110q51 75 45 137q-16 -4 -31 -4q-52 0 -84.5 29t-32.5 79z" />
    <glyph glyph-name="uni0157" unicode="&#x157;" horiz-adv-x="804" 
d="M164 0v1040h180v-129q49 72 131 113t176 41q54 0 109 -14l-15 -166q-53 12 -100 12q-98 0 -176 -47.5t-125 -138.5v-711h-180zM119 -279q0 48 36 82.5t89 34.5q63 0 104 -47.5t41 -124.5q0 -106 -57 -186h-111q51 75 45 137q-16 -4 -30 -4q-52 0 -84.5 29t-32.5 79z" />
    <glyph glyph-name="Rcaron" unicode="&#x158;" horiz-adv-x="1419" 
d="M195 0v1434h565q231 0 363 -114t132 -316q0 -174 -99.5 -284t-278.5 -138l440 -582h-236l-428 573h-270v-573h-188zM362 1880h183l155 -188l156 188h182l-254 -303h-168zM383 745h356q324 0 324 259q0 129 -79.5 193.5t-244.5 64.5h-356v-517z" />
    <glyph glyph-name="rcaron" unicode="&#x159;" horiz-adv-x="804" 
d="M164 0v1040h180v-129q49 72 131 113t176 41q54 0 109 -14l-15 -166q-53 12 -100 12q-98 0 -176 -47.5t-125 -138.5v-711h-180zM162 1489h164l127 -172l127 172h163l-219 -287h-143z" />
    <glyph glyph-name="Sacute" unicode="&#x15a;" horiz-adv-x="1226" 
d="M623 -25q-152 0 -293.5 48.5t-251.5 138.5l110 149q205 -166 439 -166q151 0 240 68t89 176q0 166 -227 221l-297 72q-159 38 -246.5 133.5t-87.5 231.5q0 179 141.5 295t366.5 116q145 0 279 -51.5t229 -144.5l-127 -134q-154 160 -383 160q-147 0 -231 -64t-84 -165
q0 -158 235 -213l297 -72q159 -38 243.5 -133.5t84.5 -239.5q0 -192 -142.5 -309t-383.5 -117zM492 1577l145 303h235l-215 -303h-165z" />
    <glyph glyph-name="sacute" unicode="&#x15b;" horiz-adv-x="1038" 
d="M543 -25q-133 0 -256 44.5t-201 121.5l115 135q72 -68 163.5 -103.5t184.5 -35.5q102 0 162.5 42t60.5 108q0 100 -178 141l-182 41q-155 35 -226 103.5t-71 175.5q0 142 108.5 229.5t290.5 87.5q127 0 238 -43.5t184 -122.5l-121 -125q-129 129 -313 129
q-101 0 -156 -38.5t-55 -102.5q0 -48 39.5 -78.5t142.5 -54.5l182 -41q154 -34 223.5 -105t69.5 -182q0 -148 -107.5 -237t-297.5 -89zM408 1198l137 287h223l-203 -287h-157z" />
    <glyph glyph-name="Scircumflex" unicode="&#x15c;" horiz-adv-x="1226" 
d="M623 -25q-152 0 -293.5 48.5t-251.5 138.5l110 149q205 -166 439 -166q151 0 240 68t89 176q0 166 -227 221l-297 72q-159 38 -246.5 133.5t-87.5 231.5q0 179 141.5 295t366.5 116q145 0 279 -51.5t229 -144.5l-127 -134q-154 160 -383 160q-147 0 -231 -64t-84 -165
q0 -158 235 -213l297 -72q159 -38 243.5 -133.5t84.5 -239.5q0 -192 -142.5 -309t-383.5 -117zM276 1577l254 303h168l254 -303h-182l-156 188l-155 -188h-183z" />
    <glyph glyph-name="scircumflex" unicode="&#x15d;" horiz-adv-x="1038" 
d="M543 -25q-133 0 -256 44.5t-201 121.5l115 135q72 -68 163.5 -103.5t184.5 -35.5q102 0 162.5 42t60.5 108q0 100 -178 141l-182 41q-155 35 -226 103.5t-71 175.5q0 142 108.5 229.5t290.5 87.5q127 0 238 -43.5t184 -122.5l-121 -125q-129 129 -313 129
q-101 0 -156 -38.5t-55 -102.5q0 -48 39.5 -78.5t142.5 -54.5l182 -41q154 -34 223.5 -105t69.5 -182q0 -148 -107.5 -237t-297.5 -89zM201 1198l239 287h160l240 -287h-172l-148 178l-147 -178h-172z" />
    <glyph glyph-name="Scedilla" unicode="&#x15e;" horiz-adv-x="1226" 
d="M358 -375l189 355q-274 22 -469 182l110 149q205 -166 439 -166q151 0 240 68t89 176q0 166 -227 221l-297 72q-159 38 -246.5 133.5t-87.5 231.5q0 179 141.5 295t366.5 116q145 0 279 -51.5t229 -144.5l-127 -134q-154 160 -383 160q-147 0 -231 -64t-84 -165
q0 -158 235 -213l297 -72q159 -38 243.5 -133.5t84.5 -239.5q0 -173 -118 -286t-322 -135l-131 -355h-220z" />
    <glyph glyph-name="scedilla" unicode="&#x15f;" horiz-adv-x="1038" 
d="M289 -336l168 316q-111 14 -208.5 55.5t-162.5 105.5l115 135q72 -68 163.5 -103.5t184.5 -35.5q102 0 162.5 42t60.5 108q0 100 -178 141l-182 41q-155 35 -226 103.5t-71 175.5q0 142 108.5 229.5t290.5 87.5q127 0 238 -43.5t184 -122.5l-121 -125q-129 129 -313 129
q-101 0 -156 -38.5t-55 -102.5q0 -48 39.5 -78.5t142.5 -54.5l182 -41q154 -34 223.5 -105t69.5 -182q0 -134 -89 -220t-249 -101l-116 -316h-205z" />
    <glyph glyph-name="Scaron" unicode="&#x160;" horiz-adv-x="1226" 
d="M623 -25q-152 0 -293.5 48.5t-251.5 138.5l110 149q205 -166 439 -166q151 0 240 68t89 176q0 166 -227 221l-297 72q-159 38 -246.5 133.5t-87.5 231.5q0 179 141.5 295t366.5 116q145 0 279 -51.5t229 -144.5l-127 -134q-154 160 -383 160q-147 0 -231 -64t-84 -165
q0 -158 235 -213l297 -72q159 -38 243.5 -133.5t84.5 -239.5q0 -192 -142.5 -309t-383.5 -117zM276 1880h183l155 -188l156 188h182l-254 -303h-168z" />
    <glyph glyph-name="scaron" unicode="&#x161;" horiz-adv-x="1038" 
d="M543 -25q-133 0 -256 44.5t-201 121.5l115 135q72 -68 163.5 -103.5t184.5 -35.5q102 0 162.5 42t60.5 108q0 100 -178 141l-182 41q-155 35 -226 103.5t-71 175.5q0 142 108.5 229.5t290.5 87.5q127 0 238 -43.5t184 -122.5l-121 -125q-129 129 -313 129
q-101 0 -156 -38.5t-55 -102.5q0 -48 39.5 -78.5t142.5 -54.5l182 -41q154 -34 223.5 -105t69.5 -182q0 -148 -107.5 -237t-297.5 -89zM201 1485h172l147 -178l148 178h172l-240 -287h-160z" />
    <glyph glyph-name="uni0162" unicode="&#x162;" horiz-adv-x="1261" 
d="M537 0v1262h-488v172h1163v-172h-487v-1262h-188zM496 -279q0 48 36 82.5t89 34.5q63 0 104 -47.5t41 -124.5q0 -106 -57 -186h-111q51 75 45 137q-16 -4 -31 -4q-52 0 -84 29t-32 79z" />
    <glyph glyph-name="uni0163" unicode="&#x163;" horiz-adv-x="899" 
d="M616 -20q-356 0 -356 385v520h-235v155h235v258h180v-258h367v-155h-367v-502q0 -125 48 -182.5t149 -57.5q89 0 174 33l37 -149q-105 -47 -232 -47zM375 -279q0 48 36 82.5t89 34.5q63 0 104 -47.5t41 -124.5q0 -106 -57 -186h-111q51 75 45 137q-16 -4 -30 -4
q-52 0 -84.5 29t-32.5 79z" />
    <glyph glyph-name="Tcaron" unicode="&#x164;" horiz-adv-x="1261" 
d="M537 0v1262h-488v172h1163v-172h-487v-1262h-188zM293 1880h182l156 -188l155 188h183l-254 -303h-168z" />
    <glyph glyph-name="tcaron" unicode="&#x165;" horiz-adv-x="899" 
d="M616 -20q-356 0 -356 385v520h-235v155h235v258h180v-258h367v-155h-367v-502q0 -125 48 -182.5t149 -57.5q89 0 174 33l37 -149q-105 -47 -232 -47zM559 1493q0 43 32 73.5t81 30.5q57 0 94 -42t37 -113q0 -97 -51 -168h-101q46 69 41 125q-16 -4 -26 -4q-47 0 -77 26.5
t-30 71.5z" />
    <glyph glyph-name="Tbar" unicode="&#x166;" horiz-adv-x="1261" 
d="M537 0v651h-269v152h269v459h-488v172h1163v-172h-487v-459h268v-152h-268v-651h-188z" />
    <glyph glyph-name="tbar" unicode="&#x167;" horiz-adv-x="923" 
d="M45 479v131h227v275h-235v155h235v258h181v-258h366v-155h-366v-275h333v-131h-333v-96q0 -125 47.5 -182.5t148.5 -57.5q89 0 174 33l37 -149q-105 -47 -231 -47q-357 0 -357 385v114h-227z" />
    <glyph glyph-name="Utilde" unicode="&#x168;" horiz-adv-x="1527" 
d="M764 -25q-274 0 -431 153.5t-157 432.5v873h189v-852q0 -216 103.5 -325.5t295.5 -109.5t295.5 109.5t103.5 325.5v852h189v-873q0 -279 -157 -432.5t-431 -153.5zM410 1665q17 98 73.5 151.5t134.5 53.5q36 0 72.5 -13t56.5 -26t52 -37q23 -18 36.5 -27.5t33 -17.5
t36.5 -8q63 0 80 100l131 -41q-17 -98 -74 -151.5t-135 -53.5q-36 0 -72.5 13.5t-56 26t-51.5 36.5q-23 18 -36.5 27.5t-33 17.5t-36.5 8q-63 0 -80 -100z" />
    <glyph glyph-name="utilde" unicode="&#x169;" horiz-adv-x="1243" 
d="M555 -25q-185 0 -293 114.5t-108 318.5v632h180v-594q0 -151 66.5 -229t191.5 -78q182 0 307 148v753h180v-1040h-180v104q-138 -129 -344 -129zM285 1282q15 90 68.5 141.5t125.5 51.5q35 0 68 -12t53 -25t49 -35q64 -49 101 -49q59 0 73 94l123 -39q-15 -90 -68.5 -141
t-125.5 -51q-50 0 -88.5 18.5t-81.5 52.5q-64 49 -101 49q-59 0 -73 -94z" />
    <glyph glyph-name="Umacron" unicode="&#x16a;" horiz-adv-x="1527" 
d="M764 -25q-274 0 -431 153.5t-157 432.5v873h189v-852q0 -216 103.5 -325.5t295.5 -109.5t295.5 109.5t103.5 325.5v852h189v-873q0 -279 -157 -432.5t-431 -153.5zM479 1645v147h570v-147h-570z" />
    <glyph glyph-name="umacron" unicode="&#x16b;" horiz-adv-x="1243" 
d="M555 -25q-185 0 -293 114.5t-108 318.5v632h180v-594q0 -151 66.5 -229t191.5 -78q182 0 307 148v753h180v-1040h-180v104q-138 -129 -344 -129zM348 1260v139h537v-139h-537z" />
    <glyph glyph-name="Ubreve" unicode="&#x16c;" horiz-adv-x="1527" 
d="M764 -25q-274 0 -431 153.5t-157 432.5v873h189v-852q0 -216 103.5 -325.5t295.5 -109.5t295.5 109.5t103.5 325.5v852h189v-873q0 -279 -157 -432.5t-431 -153.5zM471 1862v10h156q0 -84 36 -126t101 -42t101 42t36 126h156v-10q0 -133 -78 -209t-215 -76t-215 76
t-78 209z" />
    <glyph glyph-name="ubreve" unicode="&#x16d;" horiz-adv-x="1243" 
d="M555 -25q-185 0 -293 114.5t-108 318.5v632h180v-594q0 -151 66.5 -229t191.5 -78q182 0 307 148v753h180v-1040h-180v104q-138 -129 -344 -129zM340 1470v11h147q0 -158 129 -158t129 158h148v-11q0 -125 -73.5 -196.5t-203.5 -71.5t-203 71.5t-73 196.5z" />
    <glyph glyph-name="Uring" unicode="&#x16e;" horiz-adv-x="1527" 
d="M764 -25q-274 0 -431 153.5t-157 432.5v873h189v-852q0 -216 103.5 -325.5t295.5 -109.5t295.5 109.5t103.5 325.5v852h189v-873q0 -279 -157 -432.5t-431 -153.5zM543 1724q0 90 63 150.5t158 60.5t158 -60.5t63 -150.5t-63 -150.5t-158 -60.5t-158 60.5t-63 150.5z
M668 1724q0 -41 26.5 -68.5t69.5 -27.5t69.5 27.5t26.5 68.5t-26.5 69t-69.5 28t-69.5 -28t-26.5 -69z" />
    <glyph glyph-name="uring" unicode="&#x16f;" horiz-adv-x="1243" 
d="M555 -25q-185 0 -293 114.5t-108 318.5v632h180v-594q0 -151 66.5 -229t191.5 -78q182 0 307 148v753h180v-1040h-180v104q-138 -129 -344 -129zM399 1395q0 88 62.5 147.5t154.5 59.5t155 -59.5t63 -147.5t-63 -147.5t-155 -59.5t-154.5 59.5t-62.5 147.5zM526 1395
q0 -39 24.5 -64.5t65.5 -25.5t66 25.5t25 64.5t-25 64.5t-66 25.5t-65.5 -25.5t-24.5 -64.5z" />
    <glyph glyph-name="Uhungarumlaut" unicode="&#x170;" horiz-adv-x="1527" 
d="M764 -25q-274 0 -431 153.5t-157 432.5v873h189v-852q0 -216 103.5 -325.5t295.5 -109.5t295.5 109.5t103.5 325.5v852h189v-873q0 -279 -157 -432.5t-431 -153.5zM471 1577l127 303h197l-181 -303h-143zM811 1577l129 303h195l-181 -303h-143z" />
    <glyph glyph-name="uhungarumlaut" unicode="&#x171;" horiz-adv-x="1243" 
d="M555 -25q-185 0 -293 114.5t-108 318.5v632h180v-594q0 -151 66.5 -229t191.5 -78q182 0 307 148v753h180v-1040h-180v104q-138 -129 -344 -129zM342 1202l121 287h184l-170 -287h-135zM664 1202l120 287h185l-170 -287h-135z" />
    <glyph glyph-name="Uogonek" unicode="&#x172;" horiz-adv-x="1527" 
d="M764 -25q-274 0 -431 153.5t-157 432.5v873h189v-852q0 -216 103.5 -325.5t295.5 -109.5t295.5 109.5t103.5 325.5v852h189v-873q0 -219 -98 -361.5t-277 -195.5q-170 -129 -170 -227q0 -86 102 -86q37 0 68 10v-152q-48 -10 -96 -10q-112 0 -178 55.5t-66 149.5
q0 65 35 125.5t100 105.5h-8z" />
    <glyph glyph-name="uogonek" unicode="&#x173;" horiz-adv-x="1243" 
d="M555 -25q-185 0 -293 114.5t-108 318.5v632h180v-594q0 -151 66.5 -229t191.5 -78q182 0 307 148v753h180v-1040q-87 -66 -123 -117t-36 -98q0 -80 96 -80q32 0 63 8v-141q-45 -10 -90 -10q-105 0 -167 52t-62 140q0 74 44.5 139t127.5 107h-33v104q-138 -129 -344 -129z
" />
    <glyph glyph-name="Wcircumflex" unicode="&#x174;" horiz-adv-x="2189" 
d="M512 0l-455 1434h193l366 -1162l390 1162h178l389 -1162l366 1162h193l-455 -1434h-190l-391 1176l-394 -1176h-190zM758 1577l254 303h168l254 -303h-183l-155 188l-156 -188h-182z" />
    <glyph glyph-name="wcircumflex" unicode="&#x175;" horiz-adv-x="1785" 
d="M408 0l-367 1040h190l277 -798l303 798h164l303 -798l276 798h191l-367 -1040h-180l-305 807l-305 -807h-180zM573 1202l240 287h160l239 -287h-172l-147 178l-148 -178h-172z" />
    <glyph glyph-name="Ycircumflex" unicode="&#x176;" horiz-adv-x="1318" 
d="M565 0v563l-553 871h213l434 -693l435 693h213l-553 -871v-563h-189zM322 1577l253 303h168l254 -303h-182l-156 188l-155 -188h-182z" />
    <glyph glyph-name="ycircumflex" unicode="&#x177;" horiz-adv-x="1157" 
d="M291 -446l205 466l-469 1020h202l363 -802l348 802h190l-647 -1486h-192zM262 1202l240 287h160l239 -287h-172l-147 178l-148 -178h-172z" />
    <glyph glyph-name="Ydieresis" unicode="&#x178;" horiz-adv-x="1318" 
d="M565 0v563l-553 871h213l434 -693l435 693h213l-553 -871v-563h-189zM311 1729q0 55 38.5 93t92.5 38t92.5 -38t38.5 -93t-38.5 -93.5t-92.5 -38.5t-92.5 38.5t-38.5 93.5zM745 1729q0 55 39 93t93 38t92.5 -38t38.5 -93t-38.5 -93.5t-92.5 -38.5t-93 38.5t-39 93.5z" />
    <glyph glyph-name="Zacute" unicode="&#x179;" horiz-adv-x="1245" 
d="M106 0v139l783 1123h-770v172h1003v-140l-782 -1122h799v-172h-1033zM500 1577l145 303h236l-215 -303h-166z" />
    <glyph glyph-name="zacute" unicode="&#x17a;" horiz-adv-x="1028" 
d="M86 0v119l604 762h-596v159h840v-118l-604 -762h612v-160h-856zM401 1202l138 287h223l-203 -287h-158z" />
    <glyph glyph-name="Zdotaccent" unicode="&#x17b;" horiz-adv-x="1245" 
d="M106 0v139l783 1123h-770v172h1003v-140l-782 -1122h799v-172h-1033zM492 1729q0 55 38.5 93t92.5 38t92.5 -38t38.5 -93t-38.5 -93.5t-92.5 -38.5t-92.5 38.5t-38.5 93.5z" />
    <glyph glyph-name="zdotaccent" unicode="&#x17c;" horiz-adv-x="1028" 
d="M86 0v119l604 762h-596v159h840v-118l-604 -762h612v-160h-856zM391 1346q0 52 36 87t87 35t87 -35t36 -87t-36 -87.5t-87 -35.5t-87 35.5t-36 87.5z" />
    <glyph glyph-name="Zcaron" unicode="&#x17d;" horiz-adv-x="1245" 
d="M106 0v139l783 1123h-770v172h1003v-140l-782 -1122h799v-172h-1033zM285 1880h182l156 -188l155 188h183l-254 -303h-168z" />
    <glyph glyph-name="zcaron" unicode="&#x17e;" horiz-adv-x="1028" 
d="M86 0v119l604 762h-596v159h840v-118l-604 -762h612v-160h-856zM195 1489h172l147 -178l148 178h172l-240 -287h-160z" />
    <glyph glyph-name="florin" unicode="&#x192;" horiz-adv-x="966" 
d="M158 -25q-50 0 -97 13v157q41 -6 74 -6q79 0 122.5 42t64.5 153l75 397h-229v143h256l53 281q30 158 112.5 230.5t219.5 72.5q53 0 96 -12v-158q-40 6 -74 6q-79 0 -122 -41.5t-64 -152.5l-43 -226h266v-143h-293l-86 -452q-30 -158 -112.5 -231t-218.5 -73z" />
    <glyph glyph-name="uni01CD" unicode="&#x1cd;" horiz-adv-x="1431" 
d="M31 0l583 1434h203l584 -1434h-197l-151 379h-674l-152 -379h-196zM379 1880h182l156 -188l155 188h183l-254 -303h-168zM444 543h543l-270 680z" />
    <glyph glyph-name="uni01CE" unicode="&#x1ce;" horiz-adv-x="1294" 
d="M621 -25q-219 0 -373 156t-154 389t154 389t373 156q97 0 183.5 -32t145.5 -91v98h180v-1040h-180v98q-59 -59 -145.5 -91t-183.5 -32zM279 520q0 -171 104.5 -276t257.5 -105q90 0 171.5 37.5t137.5 108.5v471q-56 70 -137.5 107.5t-171.5 37.5q-153 0 -257.5 -105
t-104.5 -276zM338 1489h172l147 -178l148 178h172l-240 -287h-159z" />
    <glyph glyph-name="uni01E2" unicode="&#x1e2;" horiz-adv-x="2256" 
d="M12 0l1032 1434h1080v-172h-795v-426h703v-172h-703v-492h795v-172h-983v395h-617l-280 -395h-232zM641 559h500v701zM1219 1645v147h569v-147h-569z" />
    <glyph glyph-name="uni01E3" unicode="&#x1e3;" horiz-adv-x="2041" 
d="M504 -25q-193 0 -301.5 87.5t-108.5 230.5q0 147 112 235t302 88h375v35q0 122 -72 188t-209 66q-205 0 -346 -166l-129 113q166 213 475 213q149 0 252.5 -52t146.5 -147q75 94 188 146.5t247 52.5q224 0 366 -140.5t142 -367.5q0 -34 -7 -78h-868q10 -162 110 -253
t259 -91q214 0 344 176l129 -98q-76 -114 -199 -176t-278 -62q-145 0 -260.5 54.5t-188.5 154.5q-85 -102 -208 -155.5t-273 -53.5zM279 299q0 -77 61.5 -122.5t177.5 -45.5q121 0 223 49.5t172 145.5q-20 60 -26 139h-371q-115 0 -176 -44.5t-61 -121.5zM754 1260v139h536
v-139h-536zM1079 635h680q-20 134 -104 204t-219 70q-137 0 -231.5 -72t-125.5 -202z" />
    <glyph glyph-name="Gcaron" unicode="&#x1e6;" horiz-adv-x="1613" 
d="M862 -25q-219 0 -391 92.5t-268.5 260t-96.5 381.5q0 163 58 303t158 237.5t236.5 153t291.5 55.5q173 0 323 -69t254 -199l-149 -107q-74 99 -187 151t-245 52q-116 0 -216 -40t-173.5 -113t-115.5 -181.5t-42 -238.5q0 -262 157.5 -414t411.5 -152q240 0 414 127v363
h-383v170h563v-623q-271 -209 -600 -209zM492 1880h182l155 -188l156 188h182l-254 -303h-168z" />
    <glyph glyph-name="gcaron" unicode="&#x1e7;" horiz-adv-x="1294" 
d="M614 -471q-146 0 -273 50t-218 142l113 132q99 -86 189.5 -123t188.5 -37q159 0 247.5 84.5t88.5 234.5v103q-59 -59 -145 -91t-182 -32q-107 0 -204.5 41t-169 111.5t-113.5 170.5t-42 213q0 150 71.5 274t193 193.5t264.5 69.5q96 0 182 -32t145 -91v98h180v-1028
q0 -225 -138 -354t-378 -129zM279 528q0 -165 104.5 -268.5t255.5 -103.5q89 0 171.5 37.5t139.5 107.5v455q-57 70 -139.5 107.5t-171.5 37.5q-151 0 -255.5 -104t-104.5 -269zM315 1489h172l148 -178l147 178h172l-239 -287h-160z" />
    <glyph glyph-name="uni01E8" unicode="&#x1e8;" horiz-adv-x="1456" 
d="M195 0v1434h188v-789l768 789h231l-634 -656l675 -778h-241l-561 645l-238 -244v-401h-188zM397 1880h183l155 -188l156 188h182l-254 -303h-168z" />
    <glyph glyph-name="uni01E9" unicode="&#x1e9;" horiz-adv-x="1200" 
d="M164 0v1511h180v-995l561 524h230l-480 -452l521 -588h-230l-416 469l-186 -176v-293h-180zM-66 1960h172l148 -178l147 178h172l-239 -287h-160z" />
    <glyph glyph-name="AEacute" unicode="&#x1fc;" horiz-adv-x="2256" 
d="M12 0l1032 1434h1080v-172h-795v-426h703v-172h-703v-492h795v-172h-983v395h-617l-280 -395h-232zM641 559h500v701zM1380 1577l146 303h235l-215 -303h-166z" />
    <glyph glyph-name="aeacute" unicode="&#x1fd;" horiz-adv-x="2041" 
d="M504 -25q-193 0 -301.5 87.5t-108.5 230.5q0 147 112 235t302 88h375v35q0 122 -72 188t-209 66q-205 0 -346 -166l-129 113q166 213 475 213q149 0 252.5 -52t146.5 -147q75 94 188 146.5t247 52.5q224 0 366 -140.5t142 -367.5q0 -34 -7 -78h-868q10 -162 110 -253
t259 -91q214 0 344 176l129 -98q-76 -114 -199 -176t-278 -62q-145 0 -260.5 54.5t-188.5 154.5q-85 -102 -208 -155.5t-273 -53.5zM279 299q0 -77 61.5 -122.5t177.5 -45.5q121 0 223 49.5t172 145.5q-20 60 -26 139h-371q-115 0 -176 -44.5t-61 -121.5zM909 1202l138 287
h223l-203 -287h-158zM1079 635h680q-20 134 -104 204t-219 70q-137 0 -231.5 -72t-125.5 -202z" />
    <glyph glyph-name="Oslashacute" unicode="&#x1fe;" horiz-adv-x="1679" 
d="M840 -25q-207 0 -383 103l-127 -172l-127 96l127 170q-107 103 -167.5 242.5t-60.5 302.5q0 159 58.5 298t158 235.5t235 152t286.5 55.5q208 0 383 -102l127 172l127 -96l-127 -170q107 -103 167 -242.5t60 -302.5q0 -212 -99.5 -383t-267.5 -265t-370 -94zM295 717
q0 -247 145 -402l676 902q-123 69 -276 69q-154 0 -277 -69t-195.5 -199.5t-72.5 -300.5zM563 217q124 -70 277 -70q235 0 389.5 157t154.5 413q0 246 -145 401zM717 1577l145 303h236l-215 -303h-166z" />
    <glyph glyph-name="oslashacute" unicode="&#x1ff;" horiz-adv-x="1282" 
d="M641 -25q-147 0 -274 68l-91 -121l-108 82l90 119q-78 75 -121 177t-43 220q0 234 156.5 389.5t390.5 155.5q147 0 274 -68l89 119l108 -82l-88 -116q78 -75 121 -177.5t43 -220.5q0 -234 -156.5 -389.5t-390.5 -155.5zM270 520q0 -153 95 -266l456 610q-79 45 -180 45
q-161 0 -266 -110.5t-105 -278.5zM461 176q79 -45 180 -45q161 0 266 110.5t105 278.5q0 154 -94 266zM528 1202l138 287h223l-203 -287h-158z" />
    <glyph glyph-name="uni0218" unicode="&#x218;" horiz-adv-x="1226" 
d="M623 -25q-152 0 -293.5 48.5t-251.5 138.5l110 149q205 -166 439 -166q151 0 240 68t89 176q0 166 -227 221l-297 72q-159 38 -246.5 133.5t-87.5 231.5q0 179 141.5 295t366.5 116q145 0 279 -51.5t229 -144.5l-127 -134q-154 160 -383 160q-147 0 -231 -64t-84 -165
q0 -158 235 -213l297 -72q159 -38 243.5 -133.5t84.5 -239.5q0 -192 -142.5 -309t-383.5 -117zM496 -279q0 48 36 82.5t89 34.5q63 0 104 -47.5t41 -124.5q0 -106 -57 -186h-111q51 75 45 137q-16 -4 -31 -4q-52 0 -84 29t-32 79z" />
    <glyph glyph-name="uni0219" unicode="&#x219;" horiz-adv-x="1038" 
d="M543 -25q-133 0 -256 44.5t-201 121.5l115 135q72 -68 163.5 -103.5t184.5 -35.5q102 0 162.5 42t60.5 108q0 100 -178 141l-182 41q-155 35 -226 103.5t-71 175.5q0 142 108.5 229.5t290.5 87.5q127 0 238 -43.5t184 -122.5l-121 -125q-129 129 -313 129
q-101 0 -156 -38.5t-55 -102.5q0 -48 39.5 -78.5t142.5 -54.5l182 -41q154 -34 223.5 -105t69.5 -182q0 -148 -107.5 -237t-297.5 -89zM401 -279q0 48 36 82.5t89 34.5q63 0 104.5 -47.5t41.5 -124.5q0 -104 -58 -186h-110q51 75 45 137q-16 -4 -31 -4q-52 0 -84.5 29
t-32.5 79z" />
    <glyph glyph-name="uni021A" unicode="&#x21a;" horiz-adv-x="1261" 
d="M537 0v1262h-488v172h1163v-172h-487v-1262h-188zM496 -279q0 48 36 82.5t89 34.5q63 0 104 -47.5t41 -124.5q0 -106 -57 -186h-111q51 75 45 137q-16 -4 -31 -4q-52 0 -84 29t-32 79z" />
    <glyph glyph-name="uni021B" unicode="&#x21b;" horiz-adv-x="899" 
d="M616 -20q-356 0 -356 385v520h-235v155h235v258h180v-258h367v-155h-367v-502q0 -125 48 -182.5t149 -57.5q89 0 174 33l37 -149q-105 -47 -232 -47zM375 -279q0 48 36 82.5t89 34.5q63 0 104 -47.5t41 -124.5q0 -106 -57 -186h-111q51 75 45 137q-16 -4 -30 -4
q-52 0 -84.5 29t-32.5 79z" />
    <glyph glyph-name="uni0237" unicode="&#x237;" horiz-adv-x="507" 
d="M14 -471q-99 0 -178 33l29 157q68 -22 125 -22q174 0 174 215v1128h180v-1153q0 -179 -85.5 -268.5t-244.5 -89.5z" />
    <glyph glyph-name="circumflex" unicode="&#x2c6;" horiz-adv-x="1228" 
d="M295 1202l240 287h159l240 -287h-172l-148 178l-147 -178h-172z" />
    <glyph glyph-name="caron" unicode="&#x2c7;" horiz-adv-x="1228" 
d="M535 1202l-240 287h172l147 -178l148 178h172l-240 -287h-159z" />
    <glyph glyph-name="breve" unicode="&#x2d8;" horiz-adv-x="1228" 
d="M614 1202q-130 0 -203 71.5t-73 196.5v11h147q0 -158 129 -158t129 158h148v-11q0 -125 -73.5 -196.5t-203.5 -71.5z" />
    <glyph glyph-name="dotaccent" unicode="&#x2d9;" horiz-adv-x="1228" 
d="M614 1223q-51 0 -86.5 35.5t-35.5 87.5t35.5 87t86.5 35t87 -35t36 -87t-36 -87.5t-87 -35.5z" />
    <glyph glyph-name="ring" unicode="&#x2da;" horiz-adv-x="1228" 
d="M614 1188q-92 0 -154.5 59.5t-62.5 147.5t62.5 147.5t154.5 59.5t154.5 -59.5t62.5 -147.5t-62.5 -147.5t-154.5 -59.5zM524 1395q0 -39 24.5 -64.5t65.5 -25.5t66 25.5t25 64.5t-25 64.5t-66 25.5t-65.5 -25.5t-24.5 -64.5z" />
    <glyph glyph-name="ogonek" unicode="&#x2db;" horiz-adv-x="1228" 
d="M684 -438q-105 0 -167 52t-62 140q0 91 66.5 167t187.5 112l65 -33q-87 -66 -123.5 -117t-36.5 -98q0 -80 97 -80q32 0 63 8v-141q-45 -10 -90 -10z" />
    <glyph glyph-name="tilde" unicode="&#x2dc;" horiz-adv-x="1228" 
d="M752 1217q-50 0 -88.5 18.5t-81.5 52.5q-64 49 -101 49q-59 0 -73 -94l-123 39q15 90 68.5 141.5t125.5 51.5q35 0 68 -12t53 -25t49 -35q64 -49 101 -49q59 0 73 94l123 -39q-15 -90 -68.5 -141t-125.5 -51z" />
    <glyph glyph-name="hungarumlaut" unicode="&#x2dd;" horiz-adv-x="1228" 
d="M670 1202l121 287h184l-170 -287h-135zM348 1202l121 287h184l-170 -287h-135z" />
    <glyph glyph-name="gravecomb" unicode="&#x300;" 
d="M594 1202l-203 287h223l138 -287h-158z" />
    <glyph glyph-name="acutecomb" unicode="&#x301;" 
d="M461 1202l137 287h223l-203 -287h-157z" />
    <glyph glyph-name="uni0302" unicode="&#x302;" 
d="M295 1202l240 287h159l240 -287h-172l-148 178l-147 -178h-172z" />
    <glyph glyph-name="tildecomb" unicode="&#x303;" 
d="M752 1217q-50 0 -88.5 18.5t-81.5 52.5q-64 49 -101 49q-59 0 -73 -94l-123 39q15 90 68.5 141.5t125.5 51.5q35 0 68 -12t53 -25t49 -35q64 -49 101 -49q59 0 73 94l123 -39q-15 -90 -68.5 -141t-125.5 -51z" />
    <glyph glyph-name="uni0304" unicode="&#x304;" 
d="M346 1260v139h537v-139h-537z" />
    <glyph glyph-name="uni0306" unicode="&#x306;" 
d="M614 1202q-130 0 -203 71.5t-73 196.5v11h147q0 -158 129 -158t129 158h148v-11q0 -125 -73.5 -196.5t-203.5 -71.5z" />
    <glyph glyph-name="uni0307" unicode="&#x307;" 
d="M614 1223q-51 0 -86.5 35.5t-35.5 87.5t35.5 87t86.5 35t87 -35t36 -87t-36 -87.5t-87 -35.5z" />
    <glyph glyph-name="uni0308" unicode="&#x308;" 
d="M819 1223q-51 0 -87 35.5t-36 87.5t36 87t87 35t87 -35t36 -87t-36 -87.5t-87 -35.5zM287 1346q0 52 36 87t87 35t86.5 -35t35.5 -87t-35.5 -87.5t-86.5 -35.5t-87 35.5t-36 87.5z" />
    <glyph glyph-name="uni030A" unicode="&#x30a;" 
d="M614 1188q-92 0 -154.5 59.5t-62.5 147.5t62.5 147.5t154.5 59.5t154.5 -59.5t62.5 -147.5t-62.5 -147.5t-154.5 -59.5zM524 1395q0 -39 24.5 -64.5t65.5 -25.5t66 25.5t25 64.5t-25 64.5t-66 25.5t-65.5 -25.5t-24.5 -64.5z" />
    <glyph glyph-name="uni030B" unicode="&#x30b;" 
d="M670 1202l121 287h184l-170 -287h-135zM348 1202l121 287h184l-170 -287h-135z" />
    <glyph glyph-name="uni030C" unicode="&#x30c;" 
d="M535 1202l-240 287h172l147 -178l148 178h172l-240 -287h-159z" />
    <glyph glyph-name="uni0315" unicode="&#x315;" 
d="M508 1026q124 110 121 201q-20 -4 -33 -4q-51 0 -84 33.5t-33 84.5q0 48 36 82.5t89 34.5q64 0 105 -49.5t41 -136.5q0 -180 -179 -314z" />
    <glyph glyph-name="uni0326" unicode="&#x326;" 
d="M582 -520q51 75 45 137q-16 -4 -31 -4q-52 0 -84.5 29t-32.5 79q0 48 36 82.5t89 34.5q63 0 104.5 -47.5t41.5 -124.5q0 -104 -58 -186h-110z" />
    <glyph glyph-name="uni0327" unicode="&#x327;" 
d="M369 -336l213 404h141l-150 -404h-204z" />
    <glyph glyph-name="uni0328" unicode="&#x328;" 
d="M684 -438q-105 0 -167 52t-62 140q0 91 66.5 167t187.5 112l65 -33q-87 -66 -123.5 -117t-36.5 -98q0 -80 97 -80q32 0 63 8v-141q-45 -10 -90 -10z" />
    <glyph glyph-name="uni03BC" unicode="&#x3bc;" horiz-adv-x="1243" 
d="M688 -25q-206 0 -344 129v-550h-180v1486h180v-753q125 -148 307 -148q125 0 191.5 78t66.5 229v594h181v-632q0 -203 -108.5 -318t-293.5 -115z" />
    <glyph glyph-name="pi" unicode="&#x3c0;" horiz-adv-x="1228" 
d="M164 0v1040h858v-753q0 -66 28 -96.5t87 -30.5h51v-160h-76q-270 0 -270 266v615h-498v-881h-180z" />
    <glyph glyph-name="uni1E20" unicode="&#x1e20;" horiz-adv-x="1613" 
d="M862 -25q-219 0 -391 92.5t-268.5 260t-96.5 381.5q0 163 58 303t158 237.5t236.5 153t291.5 55.5q173 0 323 -69t254 -199l-149 -107q-74 99 -187 151t-245 52q-116 0 -216 -40t-173.5 -113t-115.5 -181.5t-42 -238.5q0 -262 157.5 -414t411.5 -152q240 0 414 127v363
h-383v170h563v-623q-271 -209 -600 -209zM545 1645v147h569v-147h-569z" />
    <glyph glyph-name="uni1E21" unicode="&#x1e21;" horiz-adv-x="1294" 
d="M614 -471q-146 0 -273 50t-218 142l113 132q99 -86 189.5 -123t188.5 -37q159 0 247.5 84.5t88.5 234.5v103q-59 -59 -145 -91t-182 -32q-107 0 -204.5 41t-169 111.5t-113.5 170.5t-42 213q0 150 71.5 274t193 193.5t264.5 69.5q96 0 182 -32t145 -91v98h180v-1028
q0 -225 -138 -354t-378 -129zM279 528q0 -165 104.5 -268.5t255.5 -103.5q89 0 171.5 37.5t139.5 107.5v455q-57 70 -139.5 107.5t-171.5 37.5q-151 0 -255.5 -104t-104.5 -269zM367 1260v139h536v-139h-536z" />
    <glyph glyph-name="uni1E30" unicode="&#x1e30;" horiz-adv-x="1456" 
d="M195 0v1434h188v-789l768 789h231l-634 -656l675 -778h-241l-561 645l-238 -244v-401h-188zM612 1577l146 303h235l-215 -303h-166z" />
    <glyph glyph-name="uni1E31" unicode="&#x1e31;" horiz-adv-x="1200" 
d="M164 0v1511h180v-995l561 524h230l-480 -452l521 -588h-230l-416 469l-186 -176v-293h-180zM141 1673l138 287h223l-203 -287h-158z" />
    <glyph glyph-name="uni1E3E" unicode="&#x1e3e;" horiz-adv-x="1972" 
d="M195 0v1434h219l573 -1153l572 1153h219v-1434h-189v1110l-530 -1069h-146l-530 1069v-1110h-188zM864 1577l146 303h235l-215 -303h-166z" />
    <glyph glyph-name="uni1E3F" unicode="&#x1e3f;" horiz-adv-x="1914" 
d="M1581 594q0 149 -65 228t-173 79q-78 0 -157 -40t-142 -120q9 -52 9 -108v-633h-181v594q0 149 -64.5 228t-172.5 79q-74 0 -150.5 -37.5t-140.5 -111.5v-752h-180v1040h180v-106q67 64 153 97.5t177 33.5q105 0 188.5 -46.5t132.5 -133.5q76 87 178 133.5t209 46.5
q170 0 274.5 -114.5t104.5 -317.5v-633h-180v594zM846 1202l137 287h223l-202 -287h-158z" />
    <glyph glyph-name="uni1E40" unicode="&#x1e40;" horiz-adv-x="1972" 
d="M195 0v1434h219l573 -1153l572 1153h219v-1434h-189v1110l-530 -1069h-146l-530 1069v-1110h-188zM856 1729q0 55 38.5 93t92.5 38t92.5 -38t38.5 -93t-38.5 -93.5t-92.5 -38.5t-92.5 38.5t-38.5 93.5z" />
    <glyph glyph-name="uni1E41" unicode="&#x1e41;" horiz-adv-x="1914" 
d="M1581 594q0 149 -65 228t-173 79q-78 0 -157 -40t-142 -120q9 -52 9 -108v-633h-181v594q0 149 -64.5 228t-172.5 79q-74 0 -150.5 -37.5t-140.5 -111.5v-752h-180v1040h180v-106q67 64 153 97.5t177 33.5q105 0 188.5 -46.5t132.5 -133.5q76 87 178 133.5t209 46.5
q170 0 274.5 -114.5t104.5 -317.5v-633h-180v594zM836 1346q0 52 35.5 87t86.5 35t87 -35t36 -87t-36 -87.5t-87 -35.5t-86.5 35.5t-35.5 87.5z" />
    <glyph glyph-name="uni1E44" unicode="&#x1e44;" horiz-adv-x="1589" 
d="M195 0v1434h198l813 -1143v1143h189v-1434h-199l-813 1143v-1143h-188zM664 1729q0 55 38.5 93t92.5 38t92.5 -38t38.5 -93t-38.5 -93.5t-92.5 -38.5t-92.5 38.5t-38.5 93.5z" />
    <glyph glyph-name="uni1E45" unicode="&#x1e45;" horiz-adv-x="1247" 
d="M913 582q0 156 -70.5 237.5t-195.5 81.5q-83 0 -162.5 -36.5t-140.5 -108.5v-756h-180v1040h180v-102q64 61 153 94t187 33q185 0 297.5 -117.5t112.5 -326.5v-621h-181v582zM502 1346q0 52 36 87t87 35t87 -35t36 -87t-36 -87.5t-87 -35.5t-87 35.5t-36 87.5z" />
    <glyph glyph-name="Wgrave" unicode="&#x1e80;" horiz-adv-x="2189" 
d="M512 0l-455 1434h193l366 -1162l390 1162h178l389 -1162l366 1162h193l-455 -1434h-190l-391 1176l-394 -1176h-190zM831 1880h232l145 -303h-161z" />
    <glyph glyph-name="wgrave" unicode="&#x1e81;" horiz-adv-x="1785" 
d="M408 0l-367 1040h190l277 -798l303 798h164l303 -798l276 798h191l-367 -1040h-180l-305 807l-305 -807h-180zM637 1489h223l137 -287h-157z" />
    <glyph glyph-name="Wacute" unicode="&#x1e82;" horiz-adv-x="2189" 
d="M512 0l-455 1434h193l366 -1162l390 1162h178l389 -1162l366 1162h193l-455 -1434h-190l-391 1176l-394 -1176h-190zM973 1577l145 303h236l-215 -303h-166z" />
    <glyph glyph-name="wacute" unicode="&#x1e83;" horiz-adv-x="1785" 
d="M408 0l-367 1040h190l277 -798l303 798h164l303 -798l276 798h191l-367 -1040h-180l-305 807l-305 -807h-180zM780 1202l138 287h223l-203 -287h-158z" />
    <glyph glyph-name="Wdieresis" unicode="&#x1e84;" horiz-adv-x="2189" 
d="M512 0l-455 1434h193l366 -1162l390 1162h178l389 -1162l366 1162h193l-455 -1434h-190l-391 1176l-394 -1176h-190zM748 1729q0 55 38.5 93t92.5 38t92.5 -38t38.5 -93t-38.5 -93.5t-92.5 -38.5t-92.5 38.5t-38.5 93.5zM1182 1729q0 55 38.5 93t92.5 38t92.5 -38
t38.5 -93t-38.5 -93.5t-92.5 -38.5t-92.5 38.5t-38.5 93.5z" />
    <glyph glyph-name="wdieresis" unicode="&#x1e85;" horiz-adv-x="1785" 
d="M408 0l-367 1040h190l277 -798l303 798h164l303 -798l276 798h191l-367 -1040h-180l-305 807l-305 -807h-180zM565 1346q0 52 36 87t87 35t87 -35t36 -87t-36 -87.5t-87 -35.5t-87 35.5t-36 87.5zM975 1346q0 52 36 87t87 35t87 -35t36 -87t-36 -87.5t-87 -35.5t-87 35.5
t-36 87.5z" />
    <glyph glyph-name="uni1E90" unicode="&#x1e90;" horiz-adv-x="1245" 
d="M106 0v139l783 1123h-770v172h1003v-140l-782 -1122h799v-172h-1033zM285 1577l254 303h168l254 -303h-183l-155 188l-156 -188h-182z" />
    <glyph glyph-name="uni1E91" unicode="&#x1e91;" horiz-adv-x="1028" 
d="M86 0v119l604 762h-596v159h840v-118l-604 -762h612v-160h-856zM195 1202l239 287h160l240 -287h-172l-148 178l-147 -178h-172z" />
    <glyph glyph-name="uni1E9E" unicode="&#x1e9e;" horiz-adv-x="1562" 
d="M942 -25q-123 0 -250 31l37 170q101 -29 207 -29q157 0 236 63.5t79 182.5q0 121 -86.5 178.5t-275.5 57.5h-90v159l327 394q-117 106 -329 106q-213 0 -322.5 -111.5t-109.5 -355.5v-821h-189v842q0 300 160 458t444 158q180 0 331.5 -64.5t254.5 -187.5l-350 -422
q207 -19 317.5 -119t110.5 -276q0 -194 -131.5 -304t-370.5 -110z" />
    <glyph glyph-name="Ygrave" unicode="&#x1ef2;" horiz-adv-x="1318" 
d="M565 0v563l-553 871h213l434 -693l435 693h213l-553 -871v-563h-189zM395 1880h232l145 -303h-162z" />
    <glyph glyph-name="ygrave" unicode="&#x1ef3;" horiz-adv-x="1157" 
d="M291 -446l205 466l-469 1020h202l363 -802l348 802h190l-647 -1486h-192zM326 1489h223l137 -287h-158z" />
    <glyph glyph-name="uni2000" unicode="&#x2000;" horiz-adv-x="1187" 
 />
    <glyph glyph-name="uni2001" unicode="&#x2001;" horiz-adv-x="1802" 
 />
    <glyph glyph-name="uni2002" unicode="&#x2002;" horiz-adv-x="1187" 
 />
    <glyph glyph-name="uni2003" unicode="&#x2003;" horiz-adv-x="1802" 
 />
    <glyph glyph-name="uni2009" unicode="&#x2009;" horiz-adv-x="307" 
 />
    <glyph glyph-name="uni200A" unicode="&#x200a;" horiz-adv-x="204" 
 />
    <glyph glyph-name="uni200B" unicode="&#x200b;" 
 />
    <glyph glyph-name="endash" unicode="&#x2013;" horiz-adv-x="1187" 
d="M82 549v160h1024v-160h-1024z" />
    <glyph glyph-name="emdash" unicode="&#x2014;" horiz-adv-x="1802" 
d="M82 549v160h1638v-160h-1638z" />
    <glyph glyph-name="quoteleft" unicode="&#x2018;" horiz-adv-x="454" 
d="M238 958q-64 0 -105 50t-41 137q0 180 178 313l64 -67q-120 -106 -117 -201q16 4 29 4q51 0 83.5 -34t32.5 -85q0 -48 -35.5 -82.5t-88.5 -34.5z" />
    <glyph glyph-name="quoteright" unicode="&#x2019;" horiz-adv-x="454" 
d="M217 1458q63 0 104 -49.5t41 -136.5q0 -181 -178 -314l-63 68q120 106 117 201q-16 -4 -29 -4q-51 0 -84 33.5t-33 84.5q0 48 36 82.5t89 34.5z" />
    <glyph glyph-name="quotesinglbase" unicode="&#x201a;" horiz-adv-x="454" 
d="M217 236q63 0 104 -50t41 -137q0 -180 -178 -313l-63 67q120 106 117 201q-16 -4 -29 -4q-51 0 -84 34t-33 85q0 48 36 82.5t89 34.5z" />
    <glyph glyph-name="quotedblleft" unicode="&#x201c;" horiz-adv-x="806" 
d="M238 958q-64 0 -105 50t-41 137q0 180 178 313l64 -67q-120 -106 -117 -201q16 4 29 4q51 0 83.5 -34t32.5 -85q0 -48 -35.5 -82.5t-88.5 -34.5zM444 1145q0 179 179 313l63 -67q-120 -106 -117 -201q16 4 29 4q51 0 84 -34t33 -85q0 -48 -36 -82.5t-89 -34.5
q-64 0 -105 50t-41 137z" />
    <glyph glyph-name="quotedblright" unicode="&#x201d;" horiz-adv-x="806" 
d="M569 1458q64 0 105 -49.5t41 -136.5q0 -181 -178 -314l-64 68q120 106 117 201q-16 -4 -29 -4q-51 0 -84 33.5t-33 84.5q0 48 36 82.5t89 34.5zM92 1341q0 48 36 82.5t89 34.5q63 0 104 -49.5t41 -136.5q0 -181 -178 -314l-63 68q120 106 117 201q-16 -4 -29 -4
q-51 0 -84 33.5t-33 84.5z" />
    <glyph glyph-name="quotedblbase" unicode="&#x201e;" horiz-adv-x="806" 
d="M569 236q63 0 104.5 -50t41.5 -137q0 -180 -178 -313l-64 67q120 106 117 201q-16 -4 -29 -4q-51 0 -84 34t-33 85q0 48 36 82.5t89 34.5zM92 119q0 48 36 82.5t89 34.5q63 0 104 -50t41 -137q0 -180 -178 -313l-63 67q120 106 117 201q-16 -4 -29 -4q-51 0 -84 34
t-33 85z" />
    <glyph glyph-name="dagger" unicode="&#x2020;" horiz-adv-x="1060" 
d="M444 -262v1139h-352v163h352v480h172v-480h353v-163h-353v-1139h-172z" />
    <glyph glyph-name="daggerdbl" unicode="&#x2021;" horiz-adv-x="1101" 
d="M465 -262v524h-311v164h311v451h-352v163h352v480h172v-480h352v-163h-352v-451h311v-164h-311v-524h-172z" />
    <glyph glyph-name="bullet" unicode="&#x2022;" horiz-adv-x="1060" 
d="M530 412q-130 0 -217.5 88t-87.5 217t87.5 217t217.5 88t218 -88t88 -217t-88 -217t-218 -88z" />
    <glyph glyph-name="ellipsis" unicode="&#x2026;" horiz-adv-x="1384" 
d="M221 -14q-55 0 -92 37t-37 92t37 92t92 37t92 -37t37 -92t-37 -92t-92 -37zM563 115q0 55 36.5 92t92.5 37t92.5 -37t36.5 -92t-36.5 -92t-92.5 -37t-92.5 37t-36.5 92zM1034 115q0 55 37 92t92 37t92 -37t37 -92t-37 -92t-92 -37t-92 37t-37 92z" />
    <glyph glyph-name="perthousand" unicode="&#x2030;" horiz-adv-x="2627" 
d="M2183 -25q-153 0 -257.5 106t-104.5 259t104.5 259t257.5 106t258 -106t105 -259t-105 -259t-258 -106zM82 1094q0 153 104.5 258.5t257.5 105.5t258 -105.5t105 -258.5t-105 -259t-258 -106t-257.5 106t-104.5 259zM236 1094q0 -98 57 -161t151 -63t151.5 63t57.5 161
t-57.5 160.5t-151.5 62.5t-151 -62.5t-57 -160.5zM336 0l930 1434h182l-930 -1434h-182zM977 340q0 153 104.5 259t257.5 106t258 -106t105 -259t-105 -259t-258 -106t-257.5 106t-104.5 259zM1130 340q0 -99 57 -161t152 -62t152 62t57 161t-57 161t-152 62t-152 -62
t-57 -161zM1974 340q0 -99 57 -161t152 -62t152 62t57 161t-57 161t-152 62t-152 -62t-57 -161z" />
    <glyph glyph-name="guilsinglleft" unicode="&#x2039;" horiz-adv-x="706" 
d="M399 147l-307 439l307 438h205l-305 -438l305 -439h-205z" />
    <glyph glyph-name="guilsinglright" unicode="&#x203a;" horiz-adv-x="706" 
d="M307 147h-205l306 439l-306 438h205l307 -438z" />
    <glyph glyph-name="fraction" unicode="&#x2044;" horiz-adv-x="360" 
d="M-410 0l1004 1434h176l-1003 -1434h-177z" />
    <glyph glyph-name="uni2070" unicode="&#x2070;" horiz-adv-x="794" 
d="M397 723q-149 0 -234 104t-85 297q0 194 85 298t234 104t234.5 -104.5t85.5 -297.5t-85.5 -297t-234.5 -104zM231 1124q0 -139 42 -201.5t124 -62.5t124 62.5t42 201.5t-42 202t-124 63t-124 -63t-42 -202z" />
    <glyph glyph-name="uni2074" unicode="&#x2074;" horiz-adv-x="702" 
d="M436 737v158h-395v125l367 491h170v-491h96v-125h-96v-158h-142zM190 1020h246v330z" />
    <glyph glyph-name="uni2075" unicode="&#x2075;" horiz-adv-x="679" 
d="M332 723q-177 0 -291 111l88 108q84 -84 197 -84q72 0 112.5 33.5t40.5 93.5q0 57 -38 90t-101 33q-76 0 -137 -49l-109 53v399h488v-133h-346v-180q59 33 137 33q118 0 188 -65t70 -181q0 -122 -79.5 -192t-219.5 -70z" />
    <glyph glyph-name="uni2076" unicode="&#x2076;" horiz-adv-x="690" 
d="M350 723q-132 0 -215.5 77.5t-83.5 205.5q0 138 111 284l168 221h176l-201 -256q30 9 66 9q121 0 199.5 -72.5t78.5 -192.5q0 -123 -83.5 -199.5t-215.5 -76.5zM201 999q0 -66 40 -104.5t109 -38.5t109.5 38.5t40.5 104.5t-40.5 104t-109.5 38t-109 -38t-40 -104z" />
    <glyph glyph-name="uni2077" unicode="&#x2077;" horiz-adv-x="622" 
d="M104 737l314 635h-381v139h549v-122l-314 -652h-168z" />
    <glyph glyph-name="uni2078" unicode="&#x2078;" horiz-adv-x="727" 
d="M365 723q-143 0 -223.5 61.5t-80.5 161.5q0 66 36.5 115t105.5 74q-58 24 -88.5 70.5t-30.5 105.5q0 93 74.5 154t206.5 61t205 -61t73 -154q0 -59 -30.5 -105.5t-88.5 -70.5q69 -25 105.5 -74t36.5 -115q0 -100 -79.5 -161.5t-221.5 -61.5zM215 961q0 -52 38 -81.5
t112 -29.5q72 0 110.5 29.5t38.5 81.5t-38.5 82t-110.5 30q-73 0 -111.5 -30t-38.5 -82zM229 1296q0 -50 34.5 -78t101.5 -28q66 0 99.5 27.5t33.5 78.5t-33.5 80t-99.5 29t-101 -29t-35 -80z" />
    <glyph glyph-name="uni2079" unicode="&#x2079;" horiz-adv-x="690" 
d="M340 1526q132 0 215.5 -77.5t83.5 -205.5q0 -139 -111 -285l-168 -221h-176l201 256q-27 -8 -66 -8q-121 0 -199.5 72.5t-78.5 191.5q0 123 83.5 200t215.5 77zM190 1249q0 -66 40.5 -103.5t109.5 -37.5t109 37.5t40 103.5t-40 105t-109 39t-109.5 -39t-40.5 -105z" />
    <glyph glyph-name="Euro" unicode="&#x20ac;" horiz-adv-x="1314" 
d="M817 -25q-208 0 -352.5 138.5t-190.5 386.5h-182v127h166q-2 29 -2 90q0 32 4 90h-168v127h182q46 245 190.5 384.5t352.5 139.5q127 0 239.5 -56.5t180.5 -158.5l-137 -108q-53 81 -127 123t-158 42q-129 0 -222.5 -95.5t-131.5 -270.5h497l-40 -127h-474q-4 -58 -4 -90
t4 -90h514l-40 -127h-457q38 -175 131.5 -271t222.5 -96q88 0 163 42.5t128 121.5l129 -102q-62 -104 -174.5 -162t-243.5 -58z" />
    <glyph glyph-name="uni20BF" unicode="&#x20bf;" horiz-adv-x="1423" 
d="M432 -180v180h-237v1434h237v180h164v-180h168h16v180h164v-205q126 -39 195 -129t69 -219q0 -201 -168 -287q134 -41 203.5 -132t69.5 -222q0 -160 -96 -268t-273 -140v-192h-164v180h-184v-180h-164zM383 168h414q155 0 239 69.5t84 184.5q0 116 -84.5 187t-238.5 71
h-414v-512zM383 844h381q122 0 188 57.5t66 157.5q0 99 -65 153t-189 54h-381v-422z" />
    <glyph glyph-name="uni2116" unicode="&#x2116;" horiz-adv-x="2572" 
d="M195 0v1434h198l813 -1143v1143h189v-1434h-199l-813 1143v-1143h-188zM1653 1047q0 178 117 294.5t296 116.5t296.5 -116.5t117.5 -294.5q0 -177 -117.5 -293.5t-296.5 -116.5q-178 0 -295.5 116.5t-117.5 293.5zM1729 317v160h634v-160h-634zM1819 1047
q0 -113 70.5 -186t176.5 -73t176 73t70 186q0 115 -69.5 187.5t-176.5 72.5t-177 -72.5t-70 -187.5z" />
    <glyph glyph-name="trademark" unicode="&#x2122;" horiz-adv-x="1576" 
d="M692 807v627h152l233 -435l234 435h153v-627h-139v414l-203 -381h-90l-203 381v-414h-137zM72 1300v134h508v-134h-183v-493h-143v493h-182z" />
    <glyph glyph-name="uni2126" unicode="&#x2126;" horiz-adv-x="1654" 
d="M143 0v164h301q-145 95 -223 242t-78 335q0 155 54.5 289.5t147 227.5t218 146.5t264.5 53.5t264.5 -53.5t218 -146.5t147 -227.5t54.5 -289.5q0 -188 -78 -335t-223 -242h301v-164h-571v164q188 81 289.5 224t101.5 349q0 252 -140.5 406.5t-363.5 154.5t-363 -154.5
t-140 -406.5q0 -206 101.5 -349t289.5 -224v-164h-572z" />
    <glyph glyph-name="estimated" unicode="&#x212e;" horiz-adv-x="1716" 
d="M858 0q-145 0 -275.5 52t-228.5 147q-97 94 -152 228.5t-55 289.5t55 291.5t152 230.5q98 92 229 143.5t275 51.5t274.5 -51.5t227.5 -143.5q98 -93 153.5 -230t55.5 -292v-25h-1196v-309q0 -72 20.5 -119t71.5 -84q171 -127 393 -127q172 0 315.5 75t231.5 210l43 -33
q-97 -145 -252 -225t-338 -80zM373 741h981v299q0 71 -20 120.5t-68 86.5q-177 133 -408 133q-222 0 -393 -127q-51 -37 -71.5 -84t-20.5 -120v-308z" />
    <glyph glyph-name="arrowleft" unicode="&#x2190;" horiz-adv-x="1454" 
d="M715 1133l-336 -330h1003v-172h-1003l336 -330l-113 -117l-528 533l528 532z" />
    <glyph glyph-name="arrowup" unicode="&#x2191;" horiz-adv-x="1454" 
d="M311 737l-116 113l532 528l533 -528l-117 -113l-330 336v-1003h-172v1003z" />
    <glyph glyph-name="arrowright" unicode="&#x2192;" horiz-adv-x="1454" 
d="M739 1133l113 116l528 -532l-528 -533l-113 117l336 330h-1003v172h1003z" />
    <glyph glyph-name="arrowdown" unicode="&#x2193;" horiz-adv-x="1454" 
d="M311 696l330 -336v1004h172v-1004l330 336l117 -112l-533 -529l-532 529z" />
    <glyph glyph-name="uni2196" unicode="&#x2196;" horiz-adv-x="1454" 
d="M395 461l-162 -2l3 749l749 2l-2 -161l-471 6l711 -711l-123 -123l-711 711z" />
    <glyph glyph-name="uni2197" unicode="&#x2197;" horiz-adv-x="1454" 
d="M471 1049l-2 161l750 -2l2 -749l-162 2l6 471l-711 -711l-123 123l711 711z" />
    <glyph glyph-name="uni2198" unicode="&#x2198;" horiz-adv-x="1454" 
d="M1059 973l162 2l-2 -750l-750 -2l2 162l471 -6l-711 711l123 122l711 -710z" />
    <glyph glyph-name="uni2199" unicode="&#x2199;" horiz-adv-x="1454" 
d="M983 385l2 -162l-749 2l-3 750l162 -2l-6 -471l711 710l123 -122l-711 -711z" />
    <glyph glyph-name="partialdiff" unicode="&#x2202;" horiz-adv-x="1302" 
d="M635 -25q-237 0 -385 140.5t-148 359.5q0 204 142.5 341.5t359.5 137.5q131 0 236.5 -53t167.5 -153h4q-12 292 -117.5 422t-308.5 130q-151 0 -301 -81l-49 149q162 90 358 90q295 0 445.5 -201t150.5 -579q0 -386 -170 -553q-153 -150 -385 -150zM283 475
q0 -153 96.5 -245.5t255.5 -92.5t255.5 92.5t96.5 245.5q0 145 -97 232.5t-255 87.5t-255 -87.5t-97 -232.5z" />
    <glyph glyph-name="uni2206" unicode="&#x2206;" horiz-adv-x="1394" 
d="M113 0l-62 100l598 1334h96l598 -1334l-61 -100h-1169zM264 164h866l-432 966z" />
    <glyph glyph-name="product" unicode="&#x220f;" horiz-adv-x="1388" 
d="M195 -262v1782h999v-1782h-180v1614h-639v-1614h-180z" />
    <glyph glyph-name="summation" unicode="&#x2211;" horiz-adv-x="1105" 
d="M113 -262v164l522 727l-522 727v164h931v-164h-735l522 -727l-522 -727h735v-164h-931z" />
    <glyph glyph-name="minus" unicode="&#x2212;" horiz-adv-x="1331" 
d="M215 569v160h901v-160h-901z" />
    <glyph glyph-name="radical" unicode="&#x221a;" horiz-adv-x="1290" 
d="M547 -262l-277 764h-219v164h346l238 -678l436 1532h178l-512 -1782h-190z" />
    <glyph glyph-name="infinity" unicode="&#x221e;" horiz-adv-x="1564" 
d="M1116 319q-80 0 -145.5 31t-107 74.5t-81.5 107.5q-30 -47 -60 -82.5t-70 -66.5t-91 -47.5t-112 -16.5q-158 0 -257.5 103.5t-99.5 269.5t99.5 269.5t257.5 103.5q61 0 112 -16.5t91 -47.5t70 -66.5t60 -82.5q40 64 81.5 107.5t107 74.5t145.5 31q158 0 257.5 -103.5
t99.5 -269.5t-99.5 -269.5t-257.5 -103.5zM256 692q0 -101 51 -161t135 -60q44 0 81.5 16.5t68 50.5t52.5 68t50 86q-28 52 -50 86t-52.5 68t-68 50.5t-81.5 16.5q-84 0 -135 -60t-51 -161zM870 692q28 -52 50 -86t52.5 -68t68 -50.5t81.5 -16.5q84 0 135.5 60t51.5 161
t-51.5 161t-135.5 60q-44 0 -81.5 -16.5t-68 -50.5t-52.5 -68t-50 -86z" />
    <glyph glyph-name="integral" unicode="&#x222b;" horiz-adv-x="806" 
d="M51 -262v160h144q60 0 89 27.5t29 88.5v1246q0 137 66.5 198.5t208.5 61.5h168v-160h-144q-118 0 -118 -117v-1245q0 -137 -66.5 -198.5t-208.5 -61.5h-168z" />
    <glyph glyph-name="approxequal" unicode="&#x2248;" horiz-adv-x="1331" 
d="M881 731q-75 0 -214 44t-214 44q-113 0 -238 -84v160q112 82 242 82q72 0 213 -44t209 -44q64 0 127.5 24t109.5 62v-160q-117 -84 -235 -84zM215 324v161q114 82 242 82q72 0 213 -44t209 -44q65 0 129.5 24.5t107.5 61.5v-162q-118 -81 -235 -81q-75 0 -214 44t-214 44
q-113 0 -238 -86z" />
    <glyph glyph-name="notequal" unicode="&#x2260;" horiz-adv-x="1331" 
d="M328 96l127 266h-240v162h317l119 250h-436v162h514l127 266h145l-127 -266h242v-162h-319l-119 -250h438v-162h-516l-127 -266h-145z" />
    <glyph glyph-name="lessequal" unicode="&#x2264;" horiz-adv-x="1331" 
d="M1116 279l-901 350v172l901 352v-172l-704 -266l704 -264v-172zM215 0v160h901v-160h-901z" />
    <glyph glyph-name="greaterequal" unicode="&#x2265;" horiz-adv-x="1331" 
d="M215 279v172l705 264l-705 266v172l901 -352v-172zM215 0v160h901v-160h-901z" />
    <glyph glyph-name="filledbox" unicode="&#x25a0;" horiz-adv-x="1843" 
d="M205 0v1434h1433v-1434h-1433z" />
    <glyph glyph-name="triagup" unicode="&#x25b2;" horiz-adv-x="1843" 
d="M205 0l717 1434l716 -1434h-1433z" />
    <glyph glyph-name="triagdn" unicode="&#x25bc;" horiz-adv-x="1843" 
d="M922 0l-717 1434h1433z" />
    <glyph glyph-name="uni25C6" unicode="&#x25c6;" horiz-adv-x="1843" 
d="M920 0l-715 715l715 719l718 -719z" />
    <glyph glyph-name="lmlenge" unicode="&#x25ca;" horiz-adv-x="1290" 
d="M575 0l-514 717l514 717h140l514 -717l-514 -717h-140zM268 715l375 -525l379 529l-375 524z" />
    <glyph glyph-name="uni25CF" unicode="&#x25cf;" horiz-adv-x="1843" 
d="M922 0q-145 0 -278 57t-229 153t-153 229t-57 278t57 278t153 229t229 153t278 57t278 -57t228.5 -153t152.5 -228.5t57 -278.5t-57 -278.5t-152.5 -228.5t-228.5 -153t-278 -57z" />
    <glyph glyph-name="uni2610" unicode="&#x2610;" horiz-adv-x="1843" 
d="M205 0v1434h1433v-1434h-1433zM358 143h1127v1147h-1127v-1147z" />
    <glyph glyph-name="uni2611" unicode="&#x2611;" horiz-adv-x="1843" 
d="M205 0v1434h1433v-1434h-1433zM358 143h1127v1147h-1127v-1147zM539 471l79 139l185 -108l371 643l133 -76l-451 -780z" />
    <glyph glyph-name="uni2612" unicode="&#x2612;" horiz-adv-x="1843" 
d="M205 0v1434h1433v-1434h-1433zM358 143h1127v1147h-1127v-1147zM510 412l305 305l-305 305l106 106l306 -305l305 305l106 -106l-305 -305l305 -305l-106 -107l-305 305l-306 -305z" />
    <glyph glyph-name="heart" unicode="&#x2665;" horiz-adv-x="1843" 
d="M254 838q0 97 32 176t84 127.5t115.5 74t130.5 25.5q109 0 194 -63.5t112 -180.5q27 117 111.5 180.5t193.5 63.5q67 0 130.5 -25.5t115.5 -74t84 -127.5t32 -176q0 -92 -30 -169t-77 -130t-117.5 -108.5t-138.5 -98.5t-153.5 -107t-150.5 -127q-65 63 -150.5 127
t-153.5 107t-139 98.5t-118 108.5t-77 130t-30 169z" />
    <glyph glyph-name="uni2B51" unicode="&#x2b51;" horiz-adv-x="1843" 
d="M446 -6l183 557l-469 340h581l179 553l178 -555h585l-473 -342l181 -553l-471 344z" />
    <glyph glyph-name="uni004A0301" horiz-adv-x="1173" 
d="M510 -25q-237 0 -449 146l97 151q190 -125 350 -125q143 0 222 84.5t79 249.5v953h188v-965q0 -239 -128 -366.5t-359 -127.5zM780 1577l146 303h235l-215 -303h-166z" />
    <glyph glyph-name="i.loclTRK" horiz-adv-x="507" 
d="M164 0v1040h180v-1040h-180zM131 1346q0 52 36 87t87 35t87 -35t36 -87t-36 -87.5t-87 -35.5t-87 35.5t-36 87.5z" />
    <glyph glyph-name="uni006A0301" horiz-adv-x="507" 
d="M14 -471q-99 0 -178 33l29 157q68 -22 125 -22q174 0 174 215v1128h180v-1153q0 -179 -85.5 -268.5t-244.5 -89.5zM139 1202l97 287h223l-162 -287h-158z" />
    <glyph glyph-name="a.ss01" horiz-adv-x="1189" 
d="M856 651q0 126 -67.5 189t-194.5 63q-199 0 -338 -164l-129 113q78 102 200.5 157.5t270.5 55.5q205 0 321.5 -107t116.5 -307v-651h-180v92q-148 -117 -362 -117q-187 0 -293.5 88.5t-106.5 231.5q0 147 112 234t302 87h348v35zM279 299q0 -77 61.5 -122.5t177.5 -45.5
q203 0 338 135v199h-340q-115 0 -176 -44.5t-61 -121.5z" />
    <glyph glyph-name="aacute.ss01" horiz-adv-x="1189" 
d="M856 651q0 126 -67.5 189t-194.5 63q-199 0 -338 -164l-129 113q78 102 200.5 157.5t270.5 55.5q205 0 321.5 -107t116.5 -307v-651h-180v92q-148 -117 -362 -117q-187 0 -293.5 88.5t-106.5 231.5q0 147 112 234t302 87h348v35zM279 299q0 -77 61.5 -122.5t177.5 -45.5
q203 0 338 135v199h-340q-115 0 -176 -44.5t-61 -121.5zM461 1202l137 287h223l-203 -287h-157z" />
    <glyph glyph-name="abreve.ss01" horiz-adv-x="1189" 
d="M856 651q0 126 -67.5 189t-194.5 63q-199 0 -338 -164l-129 113q78 102 200.5 157.5t270.5 55.5q205 0 321.5 -107t116.5 -307v-651h-180v92q-148 -117 -362 -117q-187 0 -293.5 88.5t-106.5 231.5q0 147 112 234t302 87h348v35zM279 299q0 -77 61.5 -122.5t177.5 -45.5
q203 0 338 135v199h-340q-115 0 -176 -44.5t-61 -121.5zM297 1470v11h147q0 -158 129 -158t129 158h148v-11q0 -125 -73.5 -196.5t-203.5 -71.5t-203 71.5t-73 196.5z" />
    <glyph glyph-name="uni01CE.ss01" horiz-adv-x="1189" 
d="M856 651q0 126 -67.5 189t-194.5 63q-199 0 -338 -164l-129 113q78 102 200.5 157.5t270.5 55.5q205 0 321.5 -107t116.5 -307v-651h-180v92q-148 -117 -362 -117q-187 0 -293.5 88.5t-106.5 231.5q0 147 112 234t302 87h348v35zM254 1489h172l147 -178l148 178h172
l-240 -287h-159zM279 299q0 -77 61.5 -122.5t177.5 -45.5q203 0 338 135v199h-340q-115 0 -176 -44.5t-61 -121.5z" />
    <glyph glyph-name="acircumflex.ss01" horiz-adv-x="1189" 
d="M856 651q0 126 -67.5 189t-194.5 63q-199 0 -338 -164l-129 113q78 102 200.5 157.5t270.5 55.5q205 0 321.5 -107t116.5 -307v-651h-180v92q-148 -117 -362 -117q-187 0 -293.5 88.5t-106.5 231.5q0 147 112 234t302 87h348v35zM254 1202l240 287h159l240 -287h-172
l-148 178l-147 -178h-172zM279 299q0 -77 61.5 -122.5t177.5 -45.5q203 0 338 135v199h-340q-115 0 -176 -44.5t-61 -121.5z" />
    <glyph glyph-name="adieresis.ss01" horiz-adv-x="1189" 
d="M856 651q0 126 -67.5 189t-194.5 63q-199 0 -338 -164l-129 113q78 102 200.5 157.5t270.5 55.5q205 0 321.5 -107t116.5 -307v-651h-180v92q-148 -117 -362 -117q-187 0 -293.5 88.5t-106.5 231.5q0 147 112 234t302 87h348v35zM246 1346q0 52 36 87t87 35t87 -35
t36 -87t-36 -87.5t-87 -35.5t-87 35.5t-36 87.5zM279 299q0 -77 61.5 -122.5t177.5 -45.5q203 0 338 135v199h-340q-115 0 -176 -44.5t-61 -121.5zM655 1346q0 52 36 87t87 35t87 -35t36 -87t-36 -87.5t-87 -35.5t-87 35.5t-36 87.5z" />
    <glyph glyph-name="agrave.ss01" horiz-adv-x="1189" 
d="M856 651q0 126 -67.5 189t-194.5 63q-199 0 -338 -164l-129 113q78 102 200.5 157.5t270.5 55.5q205 0 321.5 -107t116.5 -307v-651h-180v92q-148 -117 -362 -117q-187 0 -293.5 88.5t-106.5 231.5q0 147 112 234t302 87h348v35zM279 299q0 -77 61.5 -122.5t177.5 -45.5
q203 0 338 135v199h-340q-115 0 -176 -44.5t-61 -121.5zM317 1489h224l137 -287h-158z" />
    <glyph glyph-name="amacron.ss01" horiz-adv-x="1189" 
d="M856 651q0 126 -67.5 189t-194.5 63q-199 0 -338 -164l-129 113q78 102 200.5 157.5t270.5 55.5q205 0 321.5 -107t116.5 -307v-651h-180v92q-148 -117 -362 -117q-187 0 -293.5 88.5t-106.5 231.5q0 147 112 234t302 87h348v35zM279 299q0 -77 61.5 -122.5t177.5 -45.5
q203 0 338 135v199h-340q-115 0 -176 -44.5t-61 -121.5zM305 1260v139h537v-139h-537z" />
    <glyph glyph-name="aogonek.ss01" horiz-adv-x="1189" 
d="M856 651q0 126 -67.5 189t-194.5 63q-199 0 -338 -164l-129 113q78 102 200.5 157.5t270.5 55.5q205 0 321.5 -107t116.5 -307v-651q-87 -66 -123 -117t-36 -98q0 -80 96 -80q32 0 63 8v-141q-45 -10 -90 -10q-105 0 -167 52t-62 140q0 74 44.5 139t127.5 107h-33v92
q-148 -117 -362 -117q-187 0 -293.5 88.5t-106.5 231.5q0 147 112 234t302 87h348v35zM279 299q0 -77 61.5 -122.5t177.5 -45.5q203 0 338 135v199h-340q-115 0 -176 -44.5t-61 -121.5z" />
    <glyph glyph-name="aring.ss01" horiz-adv-x="1189" 
d="M856 651q0 126 -67.5 189t-194.5 63q-199 0 -338 -164l-129 113q78 102 200.5 157.5t270.5 55.5q205 0 321.5 -107t116.5 -307v-651h-180v92q-148 -117 -362 -117q-187 0 -293.5 88.5t-106.5 231.5q0 147 112 234t302 87h348v35zM279 299q0 -77 61.5 -122.5t177.5 -45.5
q203 0 338 135v199h-340q-115 0 -176 -44.5t-61 -121.5zM356 1395q0 88 62.5 147.5t154.5 59.5t155 -59.5t63 -147.5t-63 -147.5t-155 -59.5t-154.5 59.5t-62.5 147.5zM483 1395q0 -39 24.5 -64.5t65.5 -25.5t66 25.5t25 64.5t-25 64.5t-66 25.5t-65.5 -25.5t-24.5 -64.5z
" />
    <glyph glyph-name="atilde.ss01" horiz-adv-x="1189" 
d="M856 651q0 126 -67.5 189t-194.5 63q-199 0 -338 -164l-129 113q78 102 200.5 157.5t270.5 55.5q205 0 321.5 -107t116.5 -307v-651h-180v92q-148 -117 -362 -117q-187 0 -293.5 88.5t-106.5 231.5q0 147 112 234t302 87h348v35zM242 1282q15 90 68.5 141.5t125.5 51.5
q35 0 68 -12t53 -25t49 -35q64 -49 101 -49q59 0 73 94l123 -39q-15 -90 -68.5 -141t-125.5 -51q-50 0 -88.5 18.5t-81.5 52.5q-64 49 -101 49q-59 0 -73 -94zM279 299q0 -77 61.5 -122.5t177.5 -45.5q203 0 338 135v199h-340q-115 0 -176 -44.5t-61 -121.5z" />
    <glyph glyph-name="y.ss02" horiz-adv-x="1243" 
d="M563 -471q-255 0 -450 164l112 133q95 -74 174 -103.5t164 -29.5q159 0 247.5 84.5t88.5 234.5v109q-138 -129 -344 -129q-185 0 -293 114.5t-108 317.5v616h180v-577q0 -151 66.5 -229t191.5 -78q183 0 307 147v737h180v-1028q0 -225 -138 -354t-378 -129z" />
    <glyph glyph-name="yacute.ss02" horiz-adv-x="1243" 
d="M563 -471q-255 0 -450 164l112 133q95 -74 174 -103.5t164 -29.5q159 0 247.5 84.5t88.5 234.5v109q-138 -129 -344 -129q-185 0 -293 114.5t-108 317.5v616h180v-577q0 -151 66.5 -229t191.5 -78q183 0 307 147v737h180v-1028q0 -225 -138 -354t-378 -129zM510 1202
l137 287h223l-202 -287h-158z" />
    <glyph glyph-name="ycircumflex.ss02" horiz-adv-x="1243" 
d="M563 -471q-255 0 -450 164l112 133q95 -74 174 -103.5t164 -29.5q159 0 247.5 84.5t88.5 234.5v109q-138 -129 -344 -129q-185 0 -293 114.5t-108 317.5v616h180v-577q0 -151 66.5 -229t191.5 -78q183 0 307 147v737h180v-1028q0 -225 -138 -354t-378 -129zM303 1202
l240 287h159l240 -287h-172l-147 178l-148 -178h-172z" />
    <glyph glyph-name="ydieresis.ss02" horiz-adv-x="1243" 
d="M563 -471q-255 0 -450 164l112 133q95 -74 174 -103.5t164 -29.5q159 0 247.5 84.5t88.5 234.5v109q-138 -129 -344 -129q-185 0 -293 114.5t-108 317.5v616h180v-577q0 -151 66.5 -229t191.5 -78q183 0 307 147v737h180v-1028q0 -225 -138 -354t-378 -129zM295 1346
q0 52 36 87t87 35t87 -35t36 -87t-36 -87.5t-87 -35.5t-87 35.5t-36 87.5zM705 1346q0 52 35.5 87t86.5 35t87 -35t36 -87t-36 -87.5t-87 -35.5t-86.5 35.5t-35.5 87.5z" />
    <glyph glyph-name="ygrave.ss02" horiz-adv-x="1243" 
d="M563 -471q-255 0 -450 164l112 133q95 -74 174 -103.5t164 -29.5q159 0 247.5 84.5t88.5 234.5v109q-138 -129 -344 -129q-185 0 -293 114.5t-108 317.5v616h180v-577q0 -151 66.5 -229t191.5 -78q183 0 307 147v737h180v-1028q0 -225 -138 -354t-378 -129zM367 1489h223
l137 -287h-158z" />
    <glyph glyph-name="zero.zero" horiz-adv-x="1396" 
d="M698 -25q-266 0 -420.5 197t-154.5 545t154.5 544.5t420.5 196.5t421 -196.5t155 -544.5t-155 -545t-421 -197zM309 717q0 -291 107 -438l446 976q-75 35 -164 35q-189 0 -289 -144t-100 -429zM532 178q75 -35 166 -35q188 0 288.5 144.5t100.5 429.5q0 293 -106 438z
" />
    <glyph glyph-name="zero.lf" horiz-adv-x="1396" 
d="M698 -25q-266 0 -420.5 197t-154.5 545t154.5 544.5t420.5 196.5t421 -196.5t155 -544.5t-155 -545t-421 -197zM309 717q0 -285 100.5 -429.5t288.5 -144.5t288.5 144.5t100.5 429.5t-100 429t-289 144t-289 -144t-100 -429z" />
    <glyph glyph-name="one.lf" horiz-adv-x="866" 
d="M467 0v1225l-377 -193v191l412 211h149v-1434h-184z" />
    <glyph glyph-name="two.lf" horiz-adv-x="1191" 
d="M88 0v152l524 489q149 140 205.5 231t56.5 179q0 112 -70.5 175.5t-193.5 63.5q-238 0 -389 -262l-143 105q91 162 226.5 243.5t303.5 81.5q203 0 327 -112t124 -291q0 -113 -60 -226t-208 -251l-439 -410h733v-168h-997z" />
    <glyph glyph-name="three.lf" horiz-adv-x="1155" 
d="M555 -25q-152 0 -280.5 53.5t-213.5 155.5l121 125q161 -166 375 -166q146 0 228.5 70t82.5 186q0 118 -92 182t-280 64h-125v166h164q153 0 234 67.5t81 176.5q0 105 -76 170t-213 65q-208 0 -354 -188l-127 117q188 239 487 239q217 0 341 -109t124 -286
q0 -123 -59.5 -210.5t-171.5 -123.5q121 -35 186.5 -126t65.5 -216q0 -184 -135 -298t-363 -114z" />
    <glyph glyph-name="four.lf" horiz-adv-x="1269" 
d="M850 0v307h-768v158l715 969h225v-965h211v-162h-211v-307h-172zM285 469h565v766z" />
    <glyph glyph-name="five.lf" horiz-adv-x="1185" 
d="M578 -25q-293 0 -492 199l117 127q161 -158 370 -158q161 0 254 82.5t93 218.5q0 134 -82 210.5t-224 76.5q-174 0 -309 -98l-145 86l24 715h838v-168h-670l-14 -437q122 70 287 70q211 0 345 -121t134 -334q0 -210 -144.5 -339.5t-381.5 -129.5z" />
    <glyph glyph-name="six.lf" horiz-adv-x="1241" 
d="M627 -25q-229 0 -377 140t-148 370q0 262 220 551l301 398h223l-375 -482q-2 -2 -9.5 -12.5t-12.5 -15.5q104 43 215 43q214 0 354.5 -137.5t140.5 -352.5q0 -219 -151 -360.5t-381 -141.5zM287 483q0 -157 92.5 -249.5t251.5 -92.5t251.5 91t92.5 241t-92.5 240
t-251.5 90q-80 0 -153.5 -28t-155.5 -97q-35 -103 -35 -195z" />
    <glyph glyph-name="seven.lf" horiz-adv-x="1081" 
d="M211 0l614 1266h-768v168h967v-154l-616 -1280h-197z" />
    <glyph glyph-name="eight.lf" horiz-adv-x="1249" 
d="M625 -25q-246 0 -384.5 118.5t-138.5 297.5q0 120 64 213.5t186 143.5q-94 50 -144 132t-50 187q0 170 126.5 280.5t340.5 110.5t340.5 -110.5t126.5 -280.5q0 -105 -50.5 -187t-144.5 -132q122 -50 186 -143.5t64 -213.5q0 -116 -58.5 -209t-178.5 -150t-285 -57z
M287 401q0 -115 87.5 -187.5t250.5 -72.5t250.5 72.5t87.5 187.5t-87.5 188t-250.5 73t-250.5 -73t-87.5 -188zM342 1057q0 -108 74.5 -173t208.5 -65t208 65t74 173t-74 172.5t-208 64.5t-208.5 -64.5t-74.5 -172.5z" />
    <glyph glyph-name="nine.lf" horiz-adv-x="1241" 
d="M614 1458q229 0 377 -140t148 -370q0 -263 -219 -551l-302 -397h-223l375 481q3 3 7.5 9.5t8 11t7.5 8.5q-104 -43 -215 -43q-214 0 -355 137t-141 352q0 219 151 360.5t381 141.5zM266 961q0 -150 92.5 -240t251.5 -90q163 0 310 125q34 101 34 194q0 157 -92.5 249.5
t-251.5 92.5t-251.5 -90.5t-92.5 -240.5z" />
    <glyph glyph-name="zero.tf" horiz-adv-x="1331" 
d="M666 -25q-266 0 -421 197t-155 545t155 544.5t421 196.5t420.5 -196.5t154.5 -544.5t-154.5 -545t-420.5 -197zM276 717q0 -285 100.5 -429.5t289.5 -144.5q188 0 288.5 144.5t100.5 429.5t-100 429t-289 144t-289.5 -144t-100.5 -429z" />
    <glyph glyph-name="one.tf" horiz-adv-x="1331" 
d="M240 0v168h397v1057l-377 -193v191l412 211h149v-1266h369v-168h-950z" />
    <glyph glyph-name="two.tf" horiz-adv-x="1331" 
d="M168 0v152l524 489q149 140 205.5 231t56.5 179q0 112 -70.5 175.5t-193.5 63.5q-238 0 -389 -262l-143 105q91 162 226.5 243.5t303.5 81.5q203 0 327 -112t124 -291q0 -112 -60.5 -225.5t-208.5 -251.5l-438 -410h733v-168h-997z" />
    <glyph glyph-name="three.tf" horiz-adv-x="1331" 
d="M643 -25q-152 0 -279.5 53.5t-213.5 155.5l120 125q161 -166 375 -166q146 0 228.5 70t82.5 186q0 118 -92 182t-280 64h-125v166h164q153 0 234 67.5t81 176.5q0 105 -76 170t-213 65q-208 0 -354 -188l-127 117q188 239 487 239q217 0 341 -109t124 -286
q0 -123 -59.5 -210.5t-171.5 -123.5q121 -35 186.5 -126t65.5 -216q0 -184 -135 -298t-363 -114z" />
    <glyph glyph-name="four.tf" horiz-adv-x="1331" 
d="M897 0v307h-768v158l715 969h225v-965h211v-162h-211v-307h-172zM332 469h565v766z" />
    <glyph glyph-name="five.tf" horiz-adv-x="1331" 
d="M657 -25q-292 0 -491 199l117 127q161 -158 370 -158q161 0 253.5 82t92.5 219q0 134 -81.5 210.5t-223.5 76.5q-174 0 -309 -98l-145 86l24 715h838v-168h-670l-14 -437q122 70 287 70q211 0 345 -121t134 -334q0 -210 -145 -339.5t-382 -129.5z" />
    <glyph glyph-name="six.tf" horiz-adv-x="1331" 
d="M668 -25q-229 0 -377 140t-148 370q0 263 219 551l302 398h223l-375 -482q-20 -25 -23 -28q104 43 216 43q214 0 354.5 -137.5t140.5 -352.5q0 -219 -151 -360.5t-381 -141.5zM328 483q0 -157 92.5 -249.5t251.5 -92.5t251.5 91t92.5 241t-92.5 240t-251.5 90
q-163 0 -310 -125q-34 -101 -34 -195z" />
    <glyph glyph-name="seven.tf" horiz-adv-x="1331" 
d="M342 0l614 1266h-768v168h967v-154l-616 -1280h-197z" />
    <glyph glyph-name="eight.tf" horiz-adv-x="1331" 
d="M666 -25q-246 0 -384.5 118.5t-138.5 297.5q0 120 64 213.5t186 143.5q-94 50 -144 132t-50 187q0 170 126.5 280.5t340.5 110.5t340.5 -110.5t126.5 -280.5q0 -105 -50.5 -187t-144.5 -132q122 -50 186 -143.5t64 -213.5q0 -116 -58.5 -209t-178.5 -150t-285 -57z
M328 401q0 -115 87.5 -187.5t250.5 -72.5t250.5 72.5t87.5 187.5t-87.5 188t-250.5 73t-250.5 -73t-87.5 -188zM383 1057q0 -108 74.5 -173t208.5 -65t208 65t74 173t-74 172.5t-208 64.5t-208.5 -64.5t-74.5 -172.5z" />
    <glyph glyph-name="nine.tf" horiz-adv-x="1331" 
d="M664 1458q229 0 376.5 -140t147.5 -370q0 -263 -219 -551l-301 -397h-224l375 481q3 3 7.5 9.5t8 11t7.5 8.5q-104 -43 -215 -43q-214 0 -355 137t-141 352q0 144 69.5 259t191 179t272.5 64zM315 961q0 -150 92.5 -240t251.5 -90q163 0 310 125q35 103 35 194
q0 157 -93 249.5t-252 92.5t-251.5 -90.5t-92.5 -240.5z" />
    <glyph glyph-name="zero.tf.zero" horiz-adv-x="1331" 
d="M666 -25q-266 0 -421 197t-155 545t155 544.5t421 196.5t420.5 -196.5t154.5 -544.5t-154.5 -545t-420.5 -197zM276 717q0 -291 107 -438l446 976q-75 35 -163 35q-189 0 -289.5 -144t-100.5 -429zM500 178q75 -35 166 -35q188 0 288.5 144.5t100.5 429.5q0 291 -107 438
z" />
    <glyph glyph-name="colon.case" horiz-adv-x="442" 
d="M221 225q-55 0 -92 36.5t-37 92.5t37 92.5t92 36.5t92 -36.5t37 -92.5t-37 -92.5t-92 -36.5zM92 1073q0 55 37 92t92 37t92 -37t37 -92t-37 -92t-92 -37t-92 37t-37 92z" />
    <glyph glyph-name="exclamdown.case" horiz-adv-x="524" 
d="M188 999h148l24 -991h-196zM133 1327q0 55 36.5 92t92.5 37t92.5 -37t36.5 -92t-36.5 -92t-92.5 -37t-92.5 37t-36.5 92z" />
    <glyph glyph-name="questiondown.case" horiz-adv-x="989" 
d="M641 907q0 -102 -32 -165t-128 -144l-100 -84q-61 -52 -85 -94t-24 -90q0 -84 55 -134.5t152 -50.5q107 0 184 66.5t115 196.5l160 -64q-47 -167 -168.5 -262.5t-288.5 -95.5q-171 0 -280 94.5t-109 243.5q0 83 42.5 159.5t141.5 159.5l101 84q54 45 69 78t15 102v94h180
v-94zM422 1329q0 55 37 92t92 37t92 -37t37 -92t-37 -92t-92 -37t-92 37t-37 92z" />
    <glyph glyph-name="hyphen.case" horiz-adv-x="798" 
d="M82 637v160h635v-160h-635z" />
    <glyph glyph-name="endash.case" horiz-adv-x="1187" 
d="M82 637v160h1024v-160h-1024z" />
    <glyph glyph-name="emdash.case" horiz-adv-x="1802" 
d="M82 637v160h1638v-160h-1638z" />
    <glyph glyph-name="parenleft.case" horiz-adv-x="663" 
d="M467 -182q-156 182 -240 417t-84 482t84 482t240 417l135 -98q-118 -143 -196 -362.5t-78 -438.5t78 -438.5t196 -362.5z" />
    <glyph glyph-name="parenright.case" horiz-adv-x="663" 
d="M61 -84q119 144 197 363.5t78 437.5t-78 437.5t-197 363.5l136 98q156 -182 239.5 -416.5t83.5 -482.5t-83.5 -482.5t-239.5 -416.5z" />
    <glyph glyph-name="braceleft.case" horiz-adv-x="759" 
d="M520 -160q-150 0 -218.5 62.5t-68.5 197.5v418q0 62 -30.5 90.5t-100.5 28.5h-24v160h24q70 0 100.5 28t30.5 90v418q0 135 68.5 197.5t218.5 62.5h168v-159h-156q-118 0 -118 -117v-387q0 -161 -138 -209v-8q138 -48 138 -209v-387q0 -117 118 -117h156v-160h-168z" />
    <glyph glyph-name="braceright.case" horiz-adv-x="759" 
d="M240 -160h-168v160h155q119 0 119 117v387q0 162 137 209v8q-137 47 -137 209v387q0 117 -119 117h-155v159h168q150 0 218 -62t68 -198v-418q0 -62 30.5 -90t100.5 -28h25v-160h-25q-70 0 -100.5 -28.5t-30.5 -90.5v-418q0 -136 -68 -198t-218 -62z" />
    <glyph glyph-name="bracketleft.case" horiz-adv-x="731" 
d="M184 -160v1753h475v-159h-294v-1434h294v-160h-475z" />
    <glyph glyph-name="bracketright.case" horiz-adv-x="731" 
d="M547 -160h-475v160h295v1434h-295v159h475v-1753z" />
    <glyph glyph-name="guillemotleft.case" horiz-adv-x="1187" 
d="M420 279l-307 438l307 438h205l-306 -438l306 -438h-205zM553 717l307 438h205l-305 -438l305 -438h-205z" />
    <glyph glyph-name="guillemotright.case" horiz-adv-x="1187" 
d="M768 279h-205l305 438l-305 438h205l307 -438zM123 279l305 438l-305 438h205l307 -438l-307 -438h-205z" />
    <glyph glyph-name="guilsinglleft.case" horiz-adv-x="747" 
d="M420 279l-307 438l307 438h205l-306 -438l306 -438h-205z" />
    <glyph glyph-name="guilsinglright.case" horiz-adv-x="747" 
d="M328 279h-205l305 438l-305 438h205l307 -438z" />
    <glyph glyph-name="florin.tf" horiz-adv-x="1331" 
d="M340 -25q-49 0 -96 13v157q41 -6 73 -6q79 0 122.5 42t64.5 153l76 397h-230v143h256l53 281q30 158 112.5 230.5t219.5 72.5q53 0 96 -12v-158q-41 6 -73 6q-79 0 -122.5 -41.5t-64.5 -152.5l-43 -226h267v-143h-293l-86 -452q-30 -158 -112.5 -231t-219.5 -73z" />
    <glyph glyph-name="at.case" horiz-adv-x="1951" 
d="M1030 -156q-259 0 -465 109t-322 306t-116 446q0 189 70 354t189.5 279.5t282 180.5t343.5 66q170 0 324 -58.5t268 -161.5t181.5 -253.5t67.5 -323.5q0 -228 -100.5 -365.5t-263.5 -137.5q-79 0 -143.5 33.5t-100.5 95.5q-115 -115 -276 -115q-163 0 -277 117t-114 293
q0 178 113.5 294.5t277.5 116.5q140 0 237 -88v70h164v-531q0 -75 32.5 -113t92.5 -38q92 0 146.5 92.5t54.5 257.5q0 153 -52.5 279.5t-144.5 210t-216 129t-267 45.5q-156 0 -290.5 -54.5t-229 -149.5t-148 -230t-53.5 -291q0 -211 93 -373.5t261 -252t385 -89.5
q115 0 221 25.5t181 68.5l63 -127q-191 -117 -469 -117zM743 709q0 -118 71 -190.5t177 -72.5q64 0 120.5 26.5t94.5 76.5v22v299q-39 51 -96.5 77t-118.5 26q-107 0 -177.5 -72.5t-70.5 -191.5z" />
    <glyph glyph-name="uni20BF.tf" horiz-adv-x="1331" 
d="M381 -180v180h-238v1434h238v180h164v-180h168h16v180h164v-205q126 -39 195 -129t69 -219q0 -201 -168 -287q134 -41 203.5 -132t69.5 -222q0 -160 -96 -268t-273 -140v-192h-164v180h-184v-180h-164zM332 168h413q155 0 239.5 69.5t84.5 184.5q0 116 -85 187t-239 71
h-413v-512zM332 844h381q122 0 188 57.5t66 157.5q0 99 -65 153t-189 54h-381v-422z" />
    <glyph glyph-name="cent.tf" horiz-adv-x="1331" 
d="M639 0v197q-198 25 -322 165.5t-124 346.5q0 205 125.5 350.5t320.5 171.5v203h119v-201q115 -8 214 -61.5t165 -145.5l-133 -106q-104 137 -246 155v-723q159 18 264 164l127 -96q-64 -99 -166 -157.5t-225 -67.5v-195h-119zM371 713q0 -137 75 -233.5t193 -121.5v711
q-118 -25 -193 -122t-75 -234z" />
    <glyph glyph-name="currency.tf" horiz-adv-x="1331" 
d="M666 319q-130 0 -230 68l-149 -149l-101 98l154 153q-66 97 -66 228q0 130 66 227l-154 154l101 98l149 -149q98 67 230 67q134 0 229 -67l152 149l98 -98l-152 -154q66 -101 66 -227q0 -127 -66 -228l152 -153l-98 -98l-152 149q-96 -68 -229 -68zM434 717
q0 -109 64 -176.5t168 -67.5t168.5 67.5t64.5 176.5t-64.5 176.5t-168.5 67.5t-168 -67.5t-64 -176.5z" />
    <glyph glyph-name="dollar.tf" horiz-adv-x="1331" 
d="M608 -86v131q-248 22 -428 170l103 141q149 -125 325 -149v455l-98 24q-151 36 -230 122t-79 210q0 153 114.5 257t300.5 116v129h115v-131q111 -9 213 -55t180 -122l-114 -125q-118 121 -279 142v-428l117 -29q305 -74 305 -340q0 -165 -116 -271t-314 -116v-131h-115z
M375 1028q0 -72 53 -119t168 -75l20 -5v402q-113 -9 -177 -65t-64 -138zM723 205q117 9 186.5 68.5t69.5 148.5q0 76 -52 126t-163 77l-41 10v-430z" />
    <glyph glyph-name="Euro.tf" horiz-adv-x="1331" 
d="M817 -25q-208 0 -352.5 138.5t-190.5 386.5h-182v127h166q-2 29 -2 90q0 32 4 90h-168v127h182q46 245 190.5 384.5t352.5 139.5q127 0 239.5 -56.5t180.5 -158.5l-137 -108q-53 81 -127 123t-158 42q-129 0 -222.5 -95.5t-131.5 -270.5h497l-40 -127h-474q-4 -58 -4 -90
t4 -90h514l-40 -127h-457q38 -175 131.5 -271t222.5 -96q88 0 163 42.5t128 121.5l129 -102q-62 -104 -174.5 -162t-243.5 -58z" />
    <glyph glyph-name="sterling.tf" horiz-adv-x="1331" 
d="M207 121q143 100 202.5 190t59.5 193q0 58 -16 114h-240v144h176q-4 8 -32 56.5t-36 66t-25 56.5t-22.5 72.5t-5.5 69.5q0 159 126 267t321 108q137 0 250.5 -56.5t185.5 -160.5l-139 -111q-125 164 -299 164q-116 0 -189 -62t-73 -159q0 -37 13 -80t27 -71.5t42.5 -81
t41.5 -78.5h408v-144h-352q14 -49 14 -108q0 -169 -110 -291q30 6 61 6q62 0 118 -20t104 -40t89 -20q48 0 85 26.5t75 90.5l135 -82q-43 -98 -118 -151.5t-173 -53.5q-50 0 -100.5 15t-86.5 33.5t-88.5 33.5t-105.5 15q-108 0 -225 -97z" />
    <glyph glyph-name="yen.tf" horiz-adv-x="1331" 
d="M573 0v272h-364v127h364v181h-364v127h303l-389 727h196l347 -670l346 670h196l-389 -727h303v-127h-364v-181h364v-127h-364v-272h-185z" />
    <glyph glyph-name="uni0308.case" 
d="M831 1204q-54 0 -92.5 38t-38.5 93t38.5 93t92.5 38t93 -38t39 -93t-39 -93t-93 -38zM266 1335q0 55 38.5 93t92.5 38t92.5 -38t38.5 -93t-38.5 -93t-92.5 -38t-92.5 38t-38.5 93z" />
    <glyph glyph-name="uni0307.case" 
d="M614 1204q-54 0 -92.5 38t-38.5 93t38.5 93t92.5 38t92.5 -38t38.5 -93t-38.5 -93t-92.5 -38z" />
    <glyph glyph-name="gravecomb.case" 
d="M598 1184l-215 303h231l146 -303h-162z" />
    <glyph glyph-name="acutecomb.case" 
d="M451 1184l145 303h235l-215 -303h-165z" />
    <glyph glyph-name="uni030B.case" 
d="M670 1184l129 303h194l-180 -303h-143zM330 1184l127 303h196l-180 -303h-143z" />
    <glyph glyph-name="uni0302.case" 
d="M276 1184l254 303h168l254 -303h-182l-156 188l-155 -188h-183z" />
    <glyph glyph-name="uni030C.case" 
d="M530 1184l-254 303h183l155 -189l156 189h182l-254 -303h-168z" />
    <glyph glyph-name="uni0306.case" 
d="M614 1184q-137 0 -214.5 75.5t-77.5 208.5v11h155q0 -84 36 -126t101 -42t101.5 42t36.5 126h155v-11q0 -132 -77.5 -208t-215.5 -76z" />
    <glyph glyph-name="uni030A.case" 
d="M614 1161q-95 0 -158 60.5t-63 150.5t63 150.5t158 60.5t158.5 -60.5t63.5 -150.5t-63.5 -150.5t-158.5 -60.5zM518 1372q0 -41 26.5 -68.5t69.5 -27.5t70 27.5t27 68.5t-27 68.5t-70 27.5t-69.5 -27.5t-26.5 -68.5z" />
    <glyph glyph-name="tildecomb.case" 
d="M760 1202q-36 0 -72.5 13.5t-56 26t-51.5 36.5q-68 53 -107 53q-63 0 -80 -100l-131 41q17 98 74 151.5t135 53.5q36 0 72.5 -13.5t56 -26t51.5 -36.5q68 -53 107 -53q63 0 80 100l131 -41q-17 -98 -74 -151.5t-135 -53.5z" />
    <glyph glyph-name="uni0304.case" 
d="M330 1251v148h569v-148h-569z" />
    <glyph glyph-name="uni0315.case" 
d="M508 1026q124 110 121 201q-20 -4 -33 -4q-51 0 -84 33.5t-33 84.5q0 48 36 82.5t89 34.5q64 0 105 -49.5t41 -136.5q0 -180 -179 -314z" />
    <glyph glyph-name="uni0326.case" 
d="M582 -520q51 75 45 137q-16 -4 -31 -4q-52 0 -84.5 29t-32.5 79q0 48 36 82.5t89 34.5q63 0 104.5 -47.5t41.5 -124.5q0 -104 -58 -186h-110z" />
    <glyph glyph-name="uni0327.case" 
d="M336 -375l235 443h148l-164 -443h-219z" />
    <glyph glyph-name="uni0328.case" 
d="M678 -465q-112 0 -178 55.5t-66 149.5q0 95 71 175.5t200 119.5l69 -35q-170 -129 -170 -227q0 -86 103 -86q36 0 67 10v-152q-48 -10 -96 -10z" />
    <glyph glyph-name="uni0308.narrow" 
d="M793 1223q-51 0 -87 35.5t-36 87.5t36 87t87 35t86.5 -35t35.5 -87t-35.5 -87.5t-86.5 -35.5zM313 1346q0 52 36 87t87 35t87 -35t36 -87t-36 -87.5t-87 -35.5t-87 35.5t-36 87.5z" />
    <glyph glyph-name="gravecomb.narrow" 
d="M616 1202l-161 287h223l96 -287h-158z" />
    <glyph glyph-name="acutecomb.narrow" 
d="M455 1202l96 287h223l-162 -287h-157z" />
    <glyph glyph-name="uni0302.narrow" 
d="M324 1202l219 287h143l219 -287h-164l-127 172l-127 -172h-163z" />
    <glyph glyph-name="uni030C.narrow" 
d="M543 1202l-219 287h163l127 -172l127 172h164l-219 -287h-143z" />
    <glyph glyph-name="uni0306.narrow" 
d="M614 1202q-125 0 -192.5 71t-67.5 197v11h138q0 -79 32.5 -118.5t89.5 -39.5q58 0 90.5 39.5t32.5 118.5h137v-11q0 -126 -67.5 -197t-192.5 -71z" />
    <glyph glyph-name="tildecomb.narrow" 
d="M299 1276q15 90 67.5 141t120.5 51q73 0 152 -71q56 -49 94 -49q59 0 78 94l119 -37q-15 -90 -68 -141.5t-121 -51.5q-71 0 -151 72q-56 49 -94 49q-59 0 -78 -94z" />
    <glyph glyph-name="uni0304.narrow" 
d="M365 1262v139h499v-139h-499z" />
    <glyph glyph-name="uni0328.narrow" 
d="M680 -438q-94 0 -151.5 51t-57.5 133q0 86 61.5 165.5t161.5 115.5l66 -27q-75 -75 -103 -123.5t-28 -89.5q0 -82 80 -82q24 0 51 8v-141q-42 -10 -80 -10z" />
    </font>
</defs>
</svg>
