<?xml version="1.0" standalone="no"?>
<!DOCTYPE svg PUBLIC "-//W3C//DTD SVG 1.1//EN" "http://www.w3.org/Graphics/SVG/1.1/DTD/svg11.dtd" >
<svg xmlns="http://www.w3.org/2000/svg" xmlns:xlink="http://www.w3.org/1999/xlink" version="1.1">
<metadata>
Created by FontForge 20201107 at Mon Nov  4 15:40:53 2024
 By 
Copyright (c) Andrew Lethbridge
</metadata>
<defs>
<font id="BRCandor-SemiBold" horiz-adv-x="0" >
  <font-face 
    font-family="BR Candor SemiBold"
    font-weight="600"
    font-stretch="normal"
    units-per-em="2048"
    panose-1="0 0 0 0 0 0 0 0 0 0"
    ascent="1577"
    descent="-471"
    x-height="1049"
    cap-height="1434"
    bbox="-410 -543 2615 1982"
    underline-thickness="184"
    underline-position="-378"
    unicode-range="U+000D-2B51"
  />
<missing-glyph horiz-adv-x="1521" 
d="M172 0v1434h1180v-1434h-1180zM465 1018l119 -80q72 127 194 127q54 0 85.5 -25t31.5 -75q0 -55 -61 -105l-66 -53q-65 -54 -85.5 -92.5t-20.5 -108.5v-63h155v57q0 41 10.5 61t46.5 50l60 49q66 55 93.5 104.5t27.5 106.5q0 106 -76.5 171.5t-198.5 65.5
q-107 0 -190.5 -52t-124.5 -138zM635 322q0 -47 29 -77t75 -30t75.5 30t29.5 77t-29.5 76.5t-75.5 29.5t-75 -29.5t-29 -76.5z" />
    <glyph glyph-name=".notdef" horiz-adv-x="1521" 
d="M172 0v1434h1180v-1434h-1180zM465 1018l119 -80q72 127 194 127q54 0 85.5 -25t31.5 -75q0 -55 -61 -105l-66 -53q-65 -54 -85.5 -92.5t-20.5 -108.5v-63h155v57q0 41 10.5 61t46.5 50l60 49q66 55 93.5 104.5t27.5 106.5q0 106 -76.5 171.5t-198.5 65.5
q-107 0 -190.5 -52t-124.5 -138zM635 322q0 -47 29 -77t75 -30t75.5 30t29.5 77t-29.5 76.5t-75.5 29.5t-75 -29.5t-29 -76.5z" />
    <glyph glyph-name=".null" 
 />
    <glyph glyph-name="nonmarkingreturn" horiz-adv-x="682" 
 />
    <glyph glyph-name="CR" unicode="&#xd;" horiz-adv-x="501" 
 />
    <glyph glyph-name="space" unicode=" " horiz-adv-x="501" 
 />
    <glyph glyph-name="exclam" unicode="!" horiz-adv-x="561" 
d="M174 477l-24 957h262l-25 -957h-213zM113 152q0 72 48 119.5t120 47.5t120 -47.5t48 -119.5q0 -73 -48 -120.5t-120 -47.5t-120 47.5t-48 120.5z" />
    <glyph glyph-name="quotedbl" unicode="&#x22;" horiz-adv-x="817" 
d="M125 889l-39 569h258l-39 -569h-180zM473 1458h258l-39 -569h-180z" />
    <glyph glyph-name="numbersign" unicode="#" horiz-adv-x="1466" 
d="M750 31l71 362h-303l-72 -362h-213l72 362h-207v189h244l53 270h-211v188h248l72 363h213l-72 -363h303l72 363h213l-72 -363h207v-188h-244l-53 -270h211v-189h-248l-71 -362h-213zM555 582h303l53 270h-303z" />
    <glyph glyph-name="dollar" unicode="$" horiz-adv-x="1159" 
d="M526 -86v131q-265 19 -446 172l137 184q156 -116 309 -137v373l-98 25q-159 38 -241.5 124.5t-82.5 214.5q0 161 119 269.5t314 120.5v129h116v-131q239 -22 406 -181l-152 -164q-111 103 -254 125v-346l111 -26q321 -77 321 -348q0 -172 -117.5 -281.5t-322.5 -122.5
v-131h-119zM338 1016q0 -59 46 -98t153 -66v322q-94 -7 -146.5 -51.5t-52.5 -106.5zM645 260q96 9 151.5 57t55.5 117q0 64 -49 105.5t-152 66.5l-6 2v-348z" />
    <glyph glyph-name="percent" unicode="%" horiz-adv-x="1832" 
d="M342 0l913 1434h236l-913 -1434h-236zM70 1085q0 159 107 266t267 107t267.5 -107.5t107.5 -265.5t-107.5 -265t-267.5 -107t-267 107t-107 265zM266 1085q0 -84 48.5 -137t129.5 -53t130 53t49 137q0 85 -49 138t-130 53t-129.5 -53t-48.5 -138zM1014 348
q0 158 107.5 265.5t267.5 107.5q159 0 266.5 -107.5t107.5 -265.5t-107.5 -265.5t-266.5 -107.5q-160 0 -267.5 107.5t-107.5 265.5zM1210 348q0 -85 49 -137.5t130 -52.5q79 0 128.5 52.5t49.5 137.5t-49.5 138t-128.5 53q-81 0 -130 -53t-49 -138z" />
    <glyph glyph-name="ampersand" unicode="&#x26;" horiz-adv-x="1357" 
d="M1071 0l-104 121q-170 -146 -406 -146q-218 0 -351.5 111.5t-133.5 284.5q0 117 70 218t223 189l2 2q-89 100 -127.5 179.5t-38.5 158.5q0 145 110.5 242.5t286.5 97.5q171 0 280 -92t109 -238q0 -220 -258 -368l-41 -25l260 -295q58 91 117 230l197 -92
q-74 -179 -164 -308l235 -270h-266zM324 385q0 -90 64.5 -142.5t178.5 -52.5q139 0 246 86l-311 353l-4 -2q-174 -103 -174 -242zM434 1114q0 -86 103 -201l28 -32l58 32q145 83 145 193q0 69 -47 111.5t-119 42.5q-73 0 -120.5 -42t-47.5 -104z" />
    <glyph glyph-name="quotesingle" unicode="'" horiz-adv-x="430" 
d="M125 889l-39 569h258l-39 -569h-180z" />
    <glyph glyph-name="parenleft" unicode="(" horiz-adv-x="692" 
d="M457 -254q-160 180 -247 418t-87 481t87 481t247 418l186 -121q-118 -146 -192 -357.5t-74 -420.5t74 -420.5t192 -357.5z" />
    <glyph glyph-name="parenright" unicode=")" horiz-adv-x="692" 
d="M49 -133q118 146 192 357.5t74 420.5t-74 420.5t-192 357.5l187 121q160 -180 246.5 -418t86.5 -481t-86.5 -481t-246.5 -418z" />
    <glyph glyph-name="asterisk" unicode="*" horiz-adv-x="1021" 
d="M184 750l191 243l-295 84l59 180l289 -108l-10 309h186l-12 -309l291 106l59 -178l-297 -84l191 -243l-154 -109l-172 258l-172 -258z" />
    <glyph glyph-name="plus" unicode="+" horiz-adv-x="1331" 
d="M549 170v367h-342v225h342v366h233v-366h342v-225h-342v-367h-233z" />
    <glyph glyph-name="comma" unicode="," horiz-adv-x="512" 
d="M109 -266q132 126 151 262h-18q-70 0 -116 45t-46 113q0 69 47.5 115t120.5 46q82 0 132.5 -60.5t49.5 -166.5q0 -118 -61.5 -235.5t-175.5 -208.5z" />
    <glyph glyph-name="hyphen" unicode="-" horiz-adv-x="790" 
d="M74 522v217h643v-217h-643z" />
    <glyph glyph-name="period" unicode="." horiz-adv-x="495" 
d="M248 -16q-72 0 -120 47.5t-48 120.5q0 72 48 119.5t120 47.5t120 -47.5t48 -119.5q0 -73 -48 -120.5t-120 -47.5z" />
    <glyph glyph-name="slash" unicode="/" horiz-adv-x="1048" 
d="M23 -188l757 1708h246l-758 -1708h-245z" />
    <glyph glyph-name="zero" unicode="0" horiz-adv-x="1392" 
d="M696 -25q-274 0 -432 196t-158 546t158 545.5t432 195.5t432 -195.5t158 -545.5t-158 -546t-432 -196zM367 717q0 -508 329 -508q161 0 246.5 125.5t85.5 382.5t-85.5 382.5t-246.5 125.5q-329 0 -329 -508z" />
    <glyph glyph-name="one" unicode="1" horiz-adv-x="880" 
d="M438 0v1151l-356 -178v258l397 203h215v-1434h-256z" />
    <glyph glyph-name="two" unicode="2" horiz-adv-x="1185" 
d="M82 0v203l506 471q130 123 180.5 203.5t50.5 152.5q0 90 -58.5 142.5t-156.5 52.5q-99 0 -188 -60.5t-158 -181.5l-199 135q88 166 231.5 253t319.5 87q209 0 337 -116t128 -302q0 -112 -55.5 -219t-192.5 -235l-376 -353h647v-233h-1016z" />
    <glyph glyph-name="three" unicode="3" horiz-adv-x="1157" 
d="M555 -25q-156 0 -288 53t-224 152l152 178q159 -153 354 -153q125 0 196.5 58t71.5 151q0 95 -80 148.5t-239 53.5h-129v228h157q130 0 200.5 53.5t70.5 142.5q0 83 -63 136t-177 53q-188 0 -332 -172l-166 157q190 244 510 244q223 0 352.5 -109t129.5 -290
q0 -119 -60 -205t-172 -121q121 -38 186.5 -128.5t65.5 -215.5q0 -183 -139.5 -298.5t-376.5 -115.5z" />
    <glyph glyph-name="four" unicode="4" horiz-adv-x="1269" 
d="M807 0v291h-735v211l676 932h299v-930h188v-213h-188v-291h-240zM332 504h475v651z" />
    <glyph glyph-name="five" unicode="5" horiz-adv-x="1191" 
d="M575 -25q-302 0 -507 199l149 180q160 -147 354 -147q138 0 217.5 67.5t79.5 180.5q0 109 -71 174t-193 65q-152 0 -270 -88l-187 103l27 725h862v-234h-635l-10 -340q110 55 252 55q214 0 346.5 -122t132.5 -338q0 -221 -148.5 -350.5t-398.5 -129.5z" />
    <glyph glyph-name="six" unicode="6" horiz-adv-x="1249" 
d="M631 -25q-155 0 -278 63t-194 182.5t-71 277.5q0 266 219 551l291 385h305l-366 -469q72 16 139 16q216 0 360 -140t144 -356q0 -222 -155.5 -366t-393.5 -144zM342 500q0 -138 79 -218.5t214 -80.5q134 0 213.5 77t79.5 203t-79.5 203.5t-213.5 77.5q-143 0 -264 -92
q-29 -95 -29 -170z" />
    <glyph glyph-name="seven" unicode="7" horiz-adv-x="1095" 
d="M182 0l578 1200h-709v234h993v-205l-581 -1229h-281z" />
    <glyph glyph-name="eight" unicode="8" horiz-adv-x="1259" 
d="M629 -25q-256 0 -399.5 118.5t-143.5 303.5q0 118 59 210.5t172 144.5q-178 106 -178 311q0 170 132 282.5t358 112.5q227 0 359 -112.5t132 -282.5q0 -205 -180 -311q113 -52 172 -144.5t59 -210.5q0 -185 -143 -303.5t-399 -118.5zM342 418q0 -100 75 -162.5t212 -62.5
t211.5 62.5t74.5 162.5q0 99 -74.5 161t-211.5 62t-212 -62t-75 -161zM393 1044q0 -90 63.5 -145t172.5 -55q111 0 173 54.5t62 145.5q0 90 -62.5 144.5t-172.5 54.5q-109 0 -172.5 -55t-63.5 -144z" />
    <glyph glyph-name="nine" unicode="9" horiz-adv-x="1249" 
d="M618 1458q238 0 390.5 -142.5t152.5 -379.5q0 -266 -219 -551l-291 -385h-305l367 469q-72 -16 -140 -16q-216 0 -359.5 139.5t-143.5 355.5q0 222 155 366t393 144zM322 952q0 -126 79 -203t213 -77q144 0 265 92q28 92 28 170q0 138 -79 218.5t-214 80.5
q-134 0 -213 -77.5t-79 -203.5z" />
    <glyph glyph-name="colon" unicode=":" horiz-adv-x="495" 
d="M248 -18q-72 0 -120 47.5t-48 120.5q0 72 48 119.5t120 47.5t120 -47.5t48 -119.5q0 -73 -48 -120.5t-120 -47.5zM80 823q0 72 48 120t120 48t120 -48t48 -120q0 -73 -48 -120.5t-120 -47.5t-120 47.5t-48 120.5z" />
    <glyph glyph-name="semicolon" unicode=";" horiz-adv-x="512" 
d="M252 655q-72 0 -120 47.5t-48 120.5q0 72 48 120t120 48t120 -48t48 -120q0 -73 -48 -120.5t-120 -47.5zM80 152q0 69 47.5 115t120.5 46q82 0 132.5 -60.5t49.5 -166.5q0 -118 -61.5 -235.5t-175.5 -208.5l-84 90q132 126 151 262h-18q-70 0 -116 45t-46 113z" />
    <glyph glyph-name="less" unicode="&#x3c;" horiz-adv-x="1331" 
d="M1124 184l-917 353v225l917 352v-240l-606 -225l606 -225v-240z" />
    <glyph glyph-name="equal" unicode="=" horiz-adv-x="1331" 
d="M207 752v223h917v-223h-917zM207 324v223h917v-223h-917z" />
    <glyph glyph-name="greater" unicode="&#x3e;" horiz-adv-x="1331" 
d="M207 184v240l606 225l-606 225v240l917 -352v-225z" />
    <glyph glyph-name="question" unicode="?" horiz-adv-x="983" 
d="M328 563q0 102 31.5 161t134.5 146l96 80q48 42 67 75t19 71q0 64 -42 101.5t-118 37.5q-184 0 -258 -225l-215 84q43 169 169 266.5t304 97.5q180 0 293 -96.5t113 -253.5q0 -84 -41 -158t-140 -157l-90 -76q-51 -42 -64.5 -70.5t-13.5 -91.5v-78h-245v86zM283 152
q0 72 48 119.5t120 47.5t119.5 -47.5t47.5 -119.5q0 -73 -47.5 -120.5t-119.5 -47.5t-120 47.5t-48 120.5z" />
    <glyph glyph-name="at" unicode="@" horiz-adv-x="1961" 
d="M1020 -391q-200 0 -371.5 65t-293 179.5t-190.5 278t-69 355.5q0 193 72 361.5t195 286t291 184.5t356 67q177 0 335.5 -59.5t275.5 -164t186 -256t69 -326.5q0 -236 -108.5 -378.5t-288.5 -142.5q-170 0 -258 121q-113 -104 -271 -104q-163 0 -278 119t-115 297
q0 180 114.5 298.5t278.5 118.5q126 0 215 -71v53h215v-518q0 -65 28.5 -99t80.5 -34q79 0 128.5 82.5t49.5 234.5q0 193 -86.5 337t-234.5 218t-334 74q-152 0 -282 -51.5t-221 -143t-142.5 -220.5t-51.5 -279q0 -307 195.5 -496t513.5 -189q111 0 213 24.5t174 66.5
l86 -174q-196 -115 -477 -115zM774 492q0 -99 58.5 -159.5t150.5 -60.5q112 0 182 82v19v258q-70 82 -182 82q-92 0 -150.5 -60.5t-58.5 -160.5z" />
    <glyph glyph-name="A" unicode="A" horiz-adv-x="1460" 
d="M23 0l559 1434h297l559 -1434h-275l-127 332h-614l-127 -332h-272zM506 555h446l-223 584z" />
    <glyph glyph-name="B" unicode="B" horiz-adv-x="1421" 
d="M172 0v1434h573q228 0 355 -101t127 -282q0 -196 -152 -279q126 -44 189 -133t63 -215q0 -197 -139 -310.5t-393 -113.5h-623zM428 223h360q132 0 202.5 56.5t70.5 154.5t-70.5 155.5t-202.5 57.5h-360v-424zM428 864h324q104 0 159.5 46.5t55.5 129.5q0 82 -55 126
t-160 44h-324v-346z" />
    <glyph glyph-name="C" unicode="C" horiz-adv-x="1542" 
d="M834 -25q-156 0 -293 55.5t-235.5 152t-155 235t-56.5 297.5q0 213 98.5 383.5t268 265t375.5 94.5q201 0 371 -93.5t268 -264.5l-224 -133q-64 120 -172.5 183.5t-242.5 63.5q-204 0 -339 -137.5t-135 -359.5t135 -360t339 -138q135 0 245.5 65.5t171.5 182.5l224 -131
q-98 -170 -268 -265.5t-375 -95.5z" />
    <glyph glyph-name="D" unicode="D" horiz-adv-x="1466" 
d="M172 0v1434h463q161 0 296.5 -50t233 -141.5t152.5 -226.5t55 -299t-55 -299t-152.5 -226.5t-233 -141.5t-296.5 -50h-463zM430 242h193q226 0 354.5 123t128.5 352t-128.5 352t-354.5 123h-193v-950z" />
    <glyph glyph-name="E" unicode="E" horiz-adv-x="1298" 
d="M172 0v1434h1006v-240h-748v-332h651v-237h-651v-385h748v-240h-1006z" />
    <glyph glyph-name="F" unicode="F" horiz-adv-x="1286" 
d="M172 0v1434h1006v-240h-748v-377h686v-239h-686v-578h-258z" />
    <glyph glyph-name="G" unicode="G" horiz-adv-x="1591" 
d="M852 -25q-219 0 -392 93.5t-269.5 261.5t-96.5 381q0 215 98.5 386.5t268.5 266t377 94.5q176 0 328.5 -72t256.5 -206l-217 -144q-64 87 -160 132.5t-210 45.5q-206 0 -341 -137.5t-135 -363.5t136.5 -360t363.5 -134q202 0 357 96v293h-336v226h579v-650
q-126 -101 -283 -155t-325 -54z" />
    <glyph glyph-name="H" unicode="H" horiz-adv-x="1558" 
d="M172 0v1434h258v-574h698v574h258v-1434h-258v618h-698v-618h-258z" />
    <glyph glyph-name="I" unicode="I" horiz-adv-x="602" 
d="M172 0v1434h258v-1434h-258z" />
    <glyph glyph-name="J" unicode="J" horiz-adv-x="1187" 
d="M518 -25q-253 0 -465 146l127 217q187 -117 332 -117q125 0 193.5 72.5t68.5 216.5v924h258v-945q0 -251 -135 -382.5t-379 -131.5z" />
    <glyph glyph-name="K" unicode="K" horiz-adv-x="1478" 
d="M172 0v1434h258v-705l674 705h321l-616 -650l647 -784h-328l-497 598l-201 -213v-385h-258z" />
    <glyph glyph-name="L" unicode="L" horiz-adv-x="1189" 
d="M172 0v1434h258v-1192h688v-242h-946z" />
    <glyph glyph-name="M" unicode="M" horiz-adv-x="1976" 
d="M172 0v1434h320l497 -1061l496 1061h319v-1434h-256v1016l-456 -975h-207l-459 979v-1020h-254z" />
    <glyph glyph-name="N" unicode="N" horiz-adv-x="1581" 
d="M172 0v1434h264l715 -1010v1010h258v-1434h-264l-715 1012v-1012h-258z" />
    <glyph glyph-name="O" unicode="O" horiz-adv-x="1665" 
d="M834 -25q-205 0 -374 94.5t-267.5 265t-98.5 382.5q0 159 57.5 297.5t157 235.5t236 152.5t289.5 55.5t289 -55.5t234.5 -152.5t156 -235.5t57.5 -297.5q0 -212 -98 -382.5t-266.5 -265t-372.5 -94.5zM360 717q0 -222 135 -360t339 -138q203 0 337 138t134 360
t-134 359.5t-337 137.5q-204 0 -339 -137.5t-135 -359.5z" />
    <glyph glyph-name="P" unicode="P" horiz-adv-x="1345" 
d="M172 0v1434h571q240 0 377 -121.5t137 -335.5q0 -215 -137 -337t-377 -122h-313v-518h-258zM430 760h293q270 0 270 217q0 215 -270 215h-293v-432z" />
    <glyph glyph-name="Q" unicode="Q" horiz-adv-x="1665" 
d="M1384 -297l-309 309q-112 -37 -241 -37q-205 0 -374 94.5t-267.5 265t-98.5 382.5q0 159 57.5 297.5t157 235.5t236 152.5t289.5 55.5t289 -55.5t234.5 -152.5t156 -235.5t57.5 -297.5q0 -173 -66 -319t-184 -248l260 -261zM360 717q0 -222 135 -360t339 -138
q203 0 337 138t134 360t-134 359.5t-337 137.5q-204 0 -339 -137.5t-135 -359.5z" />
    <glyph glyph-name="R" unicode="R" horiz-adv-x="1415" 
d="M172 0v1434h596q232 0 368 -122t136 -331q0 -169 -92.5 -283t-257.5 -151l413 -547h-313l-391 530h-201v-530h-258zM430 770h313q132 0 197.5 54t65.5 157q0 211 -263 211h-313v-422z" />
    <glyph glyph-name="S" unicode="S" horiz-adv-x="1236" 
d="M629 -25q-159 0 -305.5 49.5t-260.5 141.5l150 203q210 -158 424 -158q128 0 200 54t72 141q0 68 -50.5 113.5t-164.5 72.5l-252 59q-171 41 -261.5 138t-90.5 239q0 189 144.5 309.5t381.5 120.5q151 0 288 -52t237 -149l-168 -180q-161 148 -361 148q-124 0 -193 -51
t-69 -130q0 -64 50 -106t169 -70l252 -59q350 -86 350 -385q0 -203 -145 -326t-397 -123z" />
    <glyph glyph-name="T" unicode="T" horiz-adv-x="1259" 
d="M500 0v1192h-455v242h1169v-242h-454v-1192h-260z" />
    <glyph glyph-name="U" unicode="U" horiz-adv-x="1509" 
d="M756 -25q-282 0 -441 156t-159 442v861h258v-834q0 -190 89 -285.5t253 -95.5t252 95.5t88 285.5v834h260v-861q0 -286 -159.5 -442t-440.5 -156z" />
    <glyph glyph-name="V" unicode="V" horiz-adv-x="1427" 
d="M567 0l-544 1434h274l416 -1127l417 1127h275l-545 -1434h-293z" />
    <glyph glyph-name="W" unicode="W" horiz-adv-x="2177" 
d="M481 0l-434 1434h268l312 -1031l344 1031h235l344 -1031l312 1031h270l-436 -1434h-258l-348 1061l-351 -1061h-258z" />
    <glyph glyph-name="X" unicode="X" horiz-adv-x="1380" 
d="M43 0l477 748l-450 686h290l330 -506l330 506h291l-451 -686l477 -748h-293l-354 553l-354 -553h-293z" />
    <glyph glyph-name="Y" unicode="Y" horiz-adv-x="1333" 
d="M537 0v563l-529 871h291l369 -613l366 613h291l-528 -871v-563h-260z" />
    <glyph glyph-name="Z" unicode="Z" horiz-adv-x="1257" 
d="M100 0v199l713 993h-700v242h1030v-199l-713 -993h727v-242h-1057z" />
    <glyph glyph-name="bracketleft" unicode="[" horiz-adv-x="749" 
d="M160 -233v1753h524v-222h-278v-1310h278v-221h-524z" />
    <glyph glyph-name="backslash" unicode="\" horiz-adv-x="929" 
d="M662 -188l-639 1708h245l639 -1708h-245z" />
    <glyph glyph-name="bracketright" unicode="]" horiz-adv-x="749" 
d="M590 -233h-524v221h278v1310h-278v222h524v-1753z" />
    <glyph glyph-name="asciicircum" unicode="^" horiz-adv-x="1116" 
d="M66 870l374 564h236l375 -564h-277l-215 349l-217 -349h-276z" />
    <glyph glyph-name="underscore" unicode="_" horiz-adv-x="892" 
d="M27 -303v203h839v-203h-839z" />
    <glyph glyph-name="grave" unicode="`" horiz-adv-x="1228" 
d="M565 1200l-215 301h287l147 -301h-219z" />
    <glyph glyph-name="a" unicode="a" horiz-adv-x="1302" 
d="M606 -25q-142 0 -261.5 70t-190 196.5t-70.5 282.5t70.5 282.5t190 196.5t261.5 70q179 0 301 -104v80h246v-1049h-246v80q-124 -105 -301 -105zM334 524q0 -145 88 -234t221 -89q75 0 144.5 31.5t119.5 91.5v401q-50 60 -119 90.5t-145 30.5q-133 0 -221 -88.5
t-88 -233.5z" />
    <glyph glyph-name="b" unicode="b" horiz-adv-x="1302" 
d="M696 -25q-177 0 -301 105v-80h-245v1511h245v-542q122 104 301 104q106 0 202.5 -41.5t167 -113t112 -174.5t41.5 -220t-41.5 -220t-112 -174.5t-167 -113t-202.5 -41.5zM395 324q50 -60 119.5 -91.5t144.5 -31.5q133 0 221.5 89t88.5 234t-88.5 233.5t-221.5 88.5
q-76 0 -145 -30.5t-119 -90.5v-401z" />
    <glyph glyph-name="c" unicode="c" horiz-adv-x="1155" 
d="M637 -25q-157 0 -283 69t-198 193.5t-72 280.5q0 159 73.5 286.5t201 198t282.5 70.5q141 0 261.5 -58.5t197.5 -166.5l-193 -152q-110 150 -268 150q-130 0 -216.5 -90.5t-86.5 -231.5q0 -144 88 -233.5t217 -89.5q84 0 158.5 41t130.5 116l182 -137
q-76 -117 -201 -181.5t-274 -64.5z" />
    <glyph glyph-name="d" unicode="d" horiz-adv-x="1302" 
d="M606 -25q-142 0 -261.5 70t-190 196.5t-70.5 282.5t70.5 282.5t190 196.5t261.5 70q179 0 301 -104v542h246v-1511h-246v80q-124 -105 -301 -105zM334 524q0 -145 88 -234t221 -89q75 0 144.5 31.5t119.5 91.5v401q-50 60 -119 90.5t-145 30.5q-133 0 -221 -88.5
t-88 -233.5z" />
    <glyph glyph-name="e" unicode="e" horiz-adv-x="1253" 
d="M647 -25q-254 0 -408.5 150t-154.5 391q0 243 157.5 400t403.5 157q231 0 375.5 -141.5t144.5 -376.5q0 -45 -6 -92h-829q15 -132 100 -204.5t221 -72.5q186 0 310 150l172 -131q-83 -112 -207.5 -171t-278.5 -59zM342 647h576q-20 108 -91.5 163.5t-183.5 55.5
q-116 0 -194 -56.5t-107 -162.5z" />
    <glyph glyph-name="f" unicode="f" horiz-adv-x="866" 
d="M240 1102q0 211 106.5 322.5t298.5 111.5q108 0 215 -39l-39 -211q-70 25 -135 25q-201 0 -201 -213v-49h351v-215h-351v-834h-245v834h-215v215h215v53z" />
    <glyph glyph-name="g" unicode="g" horiz-adv-x="1300" 
d="M614 -471q-151 0 -283.5 51t-226.5 144l148 180q180 -150 358 -150q140 0 218.5 73t78.5 200v88q-120 -105 -303 -105q-142 0 -261 68.5t-189 190t-70 270.5q0 150 70 273t189 192t261 69q182 0 303 -106v82h246v-1022q0 -232 -144.5 -365t-394.5 -133zM334 539
q0 -135 87.5 -221.5t217.5 -86.5q75 0 146 31.5t122 91.5v371q-51 60 -122 91.5t-146 31.5q-131 0 -218 -86.5t-87 -222.5z" />
    <glyph glyph-name="h" unicode="h" horiz-adv-x="1257" 
d="M874 575q0 133 -59 202t-164 69q-152 0 -258 -123v-723h-246v1511h246v-550q134 112 320 112q185 0 296 -117.5t111 -326.5v-629h-246v575z" />
    <glyph glyph-name="i" unicode="i" horiz-adv-x="540" 
d="M147 0v1049h246v-1049h-246zM113 1346q0 63 46.5 109t112.5 46q64 0 110 -46t46 -109q0 -66 -45.5 -112t-110.5 -46q-66 0 -112.5 46t-46.5 112z" />
    <glyph glyph-name="j" unicode="j" horiz-adv-x="540" 
d="M37 -471q-111 0 -199 35l35 219q67 -21 121 -21q76 0 114.5 45.5t38.5 145.5v1096h246v-1123q0 -397 -356 -397zM113 1346q0 63 46.5 109t112.5 46q64 0 110 -46t46 -109q0 -66 -45.5 -112t-110.5 -46q-66 0 -112.5 46t-46.5 112z" />
    <glyph glyph-name="k" unicode="k" horiz-adv-x="1232" 
d="M147 0v1511h246v-925l484 463h313l-463 -453l492 -596h-310l-354 428l-162 -156v-272h-246z" />
    <glyph glyph-name="l" unicode="l" horiz-adv-x="540" 
d="M147 0v1511h246v-1511h-246z" />
    <glyph glyph-name="m" unicode="m" horiz-adv-x="1906" 
d="M1524 586q0 128 -53 194t-144 66q-139 0 -250 -131q4 -50 4 -76v-639h-245v586q0 128 -53 194t-144 66q-133 0 -246 -125v-721h-246v1049h246v-91q136 115 309 115q103 0 184 -43t130 -125q78 82 176 125t199 43q170 0 274 -115.5t104 -318.5v-639h-245v586z" />
    <glyph glyph-name="n" unicode="n" horiz-adv-x="1257" 
d="M874 575q0 133 -59 202t-164 69q-152 0 -258 -123v-723h-246v1049h246v-88q134 112 320 112q185 0 296 -117.5t111 -326.5v-629h-246v575z" />
    <glyph glyph-name="o" unicode="o" horiz-adv-x="1280" 
d="M641 -25q-239 0 -398 156.5t-159 392.5q0 237 158.5 393t398.5 156t397.5 -156t157.5 -393q0 -236 -158 -392.5t-397 -156.5zM334 524q0 -142 86.5 -232.5t220.5 -90.5q133 0 219 90.5t86 232.5t-86 232t-219 90q-134 0 -220.5 -90t-86.5 -232z" />
    <glyph glyph-name="p" unicode="p" horiz-adv-x="1302" 
d="M696 -25q-184 0 -303 107v-528h-246v1495h246v-82q118 106 303 106q106 0 201.5 -41.5t166 -113t112 -174.5t41.5 -220t-41.5 -220t-112 -174.5t-166 -113t-201.5 -41.5zM393 324q50 -60 119.5 -91.5t146.5 -31.5q133 0 220.5 89t87.5 234t-87.5 233.5t-220.5 88.5
q-77 0 -146.5 -30.5t-119.5 -90.5v-401z" />
    <glyph glyph-name="q" unicode="q" horiz-adv-x="1302" 
d="M606 -25q-142 0 -260.5 70t-189 196.5t-70.5 282.5t70.5 282.5t189 196.5t260.5 70q185 0 303 -106v82h246v-1495h-246v528q-119 -107 -303 -107zM336 524q0 -145 87 -234t220 -89q77 0 146.5 31.5t119.5 91.5v401q-50 60 -119.5 90.5t-146.5 30.5q-133 0 -220 -88.5
t-87 -233.5z" />
    <glyph glyph-name="r" unicode="r" horiz-adv-x="829" 
d="M147 0v1049h246v-113q50 65 127.5 101t163.5 36q54 0 109 -14l-15 -228q-64 11 -96 11q-90 0 -165 -40.5t-124 -119.5v-682h-246z" />
    <glyph glyph-name="s" unicode="s" horiz-adv-x="1048" 
d="M541 -25q-134 0 -257.5 41.5t-207.5 112.5l127 184q165 -127 346 -127q85 0 132.5 31t47.5 82q0 39 -33 66t-112 45l-183 43q-156 36 -226.5 105.5t-70.5 180.5q0 151 113.5 242.5t306.5 91.5q128 0 242 -40.5t192 -112.5l-133 -175q-147 117 -311 117
q-81 0 -124.5 -28.5t-43.5 -77.5q0 -36 32 -59.5t114 -43.5l182 -43q157 -36 228 -108t71 -187q0 -156 -114.5 -248t-317.5 -92z" />
    <glyph glyph-name="t" unicode="t" horiz-adv-x="907" 
d="M618 -20q-190 0 -284 99t-94 308v447h-215v215h215v249h245v-249h334v-215h-334v-418q0 -109 44 -160t135 -51q70 0 159 28l35 -206q-103 -47 -240 -47z" />
    <glyph glyph-name="u" unicode="u" horiz-adv-x="1251" 
d="M537 -25q-184 0 -292 115t-108 320v639h246v-586q0 -129 56 -195.5t161 -66.5q151 0 258 127v721h246v-1049h-246v88q-131 -113 -321 -113z" />
    <glyph glyph-name="v" unicode="v" horiz-adv-x="1167" 
d="M453 0l-435 1049h273l293 -748l293 748h270l-432 -1049h-262z" />
    <glyph glyph-name="w" unicode="w" horiz-adv-x="1806" 
d="M385 0l-352 1049h260l233 -721l260 721h232l260 -717l233 717h263l-355 -1049h-252l-264 733l-264 -733h-254z" />
    <glyph glyph-name="x" unicode="x" horiz-adv-x="1130" 
d="M27 0l391 541l-373 508h277l243 -338l246 338h276l-372 -508l389 -541h-281l-258 358l-258 -358h-280z" />
    <glyph glyph-name="y" unicode="y" horiz-adv-x="1185" 
d="M287 -446l192 466l-461 1029h281l307 -719l295 719h266l-616 -1495h-264z" />
    <glyph glyph-name="z" unicode="z" horiz-adv-x="1042" 
d="M82 0v174l534 657h-526v218h862v-175l-534 -657h543v-217h-879z" />
    <glyph glyph-name="braceleft" unicode="{" horiz-adv-x="784" 
d="M530 -233q-153 0 -232 72.5t-79 211.5v359q0 64 -31 93t-100 29h-20v222h20q69 0 100 29t31 94v358q0 139 79 212t232 73h187v-222h-135q-62 0 -90.5 -27t-28.5 -89v-301q0 -186 -160 -234v-8q160 -48 160 -233v-302q0 -62 28.5 -89t90.5 -27h135v-221h-187z" />
    <glyph glyph-name="bar" unicode="|" horiz-adv-x="649" 
d="M213 -205v1772h223v-1772h-223z" />
    <glyph glyph-name="braceright" unicode="}" horiz-adv-x="784" 
d="M254 -233h-186v221h135q62 0 90.5 27t28.5 89v302q0 186 159 233v8q-159 47 -159 234v301q0 62 -28.5 89t-90.5 27h-135v222h186q153 0 232 -73t79 -212v-358q0 -65 31 -94t100 -29h21v-222h-21q-69 0 -100 -29t-31 -93v-359q0 -139 -79 -211.5t-232 -72.5z" />
    <glyph glyph-name="asciitilde" unicode="~" horiz-adv-x="1331" 
d="M881 492q-75 0 -214 46t-214 46q-65 0 -121 -20.5t-125 -67.5v225q116 84 250 84q72 0 213 -46t209 -46q69 0 133.5 24.5t111.5 63.5v-226q-118 -83 -243 -83z" />
    <glyph glyph-name="uni00A0" unicode="&#xa0;" horiz-adv-x="501" 
 />
    <glyph glyph-name="exclamdown" unicode="&#xa1;" horiz-adv-x="561" 
d="M174 580h213l25 -957h-262zM113 905q0 73 48 120.5t120 47.5t120 -47.5t48 -120.5q0 -72 -48 -120t-120 -48t-120 48t-48 120z" />
    <glyph glyph-name="cent" unicode="&#xa2;" horiz-adv-x="1105" 
d="M555 0v195q-203 22 -331 163t-128 351q0 212 129 356.5t330 169.5v199h121v-197q117 -9 217.5 -63.5t165.5 -147.5l-174 -143q-89 119 -209 141v-618q136 19 229 147l166 -129q-64 -101 -167 -160.5t-228 -70.5v-193h-121zM330 713q0 -117 62.5 -198t162.5 -105v610
q-100 -24 -162.5 -106.5t-62.5 -200.5z" />
    <glyph glyph-name="sterling" unicode="&#xa3;" horiz-adv-x="1142" 
d="M76 166q141 92 198.5 172t57.5 176q0 46 -13 96h-235v170h160q-1 2 -14.5 26.5t-15.5 28t-13.5 26.5t-14 29.5t-12 27t-12 30.5t-8.5 29t-7.5 32.5t-3.5 31t-2 34.5q0 163 127.5 273t329.5 110q140 0 255.5 -57t188.5 -162l-182 -152q-114 146 -258 146q-91 0 -148 -48
t-57 -122q0 -32 11.5 -71t22 -63t38 -77.5t35.5 -71.5h379v-170h-320q6 -38 6 -78q0 -146 -94 -256h14q69 0 153 -36.5t128 -36.5q45 0 80 26.5t74 94.5l180 -111q-102 -238 -316 -238q-51 0 -100.5 14t-83.5 31.5t-81.5 31.5t-94.5 14q-103 0 -227 -91z" />
    <glyph glyph-name="currency" unicode="&#xa4;" horiz-adv-x="1126" 
d="M563 311q-126 0 -225 60l-143 -144l-121 119l143 143q-63 101 -63 228q0 126 63 227l-143 143l121 119l143 -143q97 59 225 59t225 -59l146 143l119 -119l-142 -143q64 -103 64 -227q0 -125 -64 -228l142 -143l-119 -119l-146 144q-99 -60 -225 -60zM371 717
q0 -91 52.5 -146t139.5 -55q88 0 141.5 55t53.5 146t-53.5 146t-141.5 55q-87 0 -139.5 -55t-52.5 -146z" />
    <glyph glyph-name="yen" unicode="&#xa5;" horiz-adv-x="1179" 
d="M463 0v260h-352v156h352v164h-352v155h290l-366 699h264l291 -584l291 584h264l-367 -699h293v-155h-354v-164h354v-156h-354v-260h-254z" />
    <glyph glyph-name="brokenbar" unicode="&#xa6;" horiz-adv-x="649" 
d="M213 829v738h223v-738h-223zM213 -205v721h223v-721h-223z" />
    <glyph glyph-name="section" unicode="&#xa7;" horiz-adv-x="1101" 
d="M561 -272q-119 0 -238 40t-212 113l129 185q166 -125 331 -125q83 0 131 36.5t48 96.5q0 49 -42 80t-151 55l-119 24q-319 67 -319 316q0 98 47.5 172.5t132.5 107.5q-182 89 -182 275q0 156 118 255t312 99q116 0 224.5 -39.5t193.5 -111.5l-136 -177q-146 115 -288 115
q-85 0 -133 -36.5t-48 -96.5q0 -49 42 -80t151 -55l117 -25q321 -67 321 -315q0 -96 -47.5 -171.5t-132.5 -111.5q180 -85 180 -272q0 -156 -118 -255t-312 -99zM358 586q0 -62 36.5 -96t127.5 -56l94 -20q136 57 136 186q0 62 -37.5 97t-130.5 55l-92 20
q-63 -25 -98.5 -73.5t-35.5 -112.5z" />
    <glyph glyph-name="dieresis" unicode="&#xa8;" horiz-adv-x="1228" 
d="M825 1208q-61 0 -103 42t-42 106q0 62 42 103.5t103 41.5t103.5 -41.5t42.5 -103.5q0 -64 -42.5 -106t-103.5 -42zM258 1356q0 62 42 103.5t103 41.5t103.5 -41.5t42.5 -103.5q0 -64 -42.5 -106t-103.5 -42t-103 42t-42 106z" />
    <glyph glyph-name="copyright" unicode="&#xa9;" horiz-adv-x="1683" 
d="M842 -25q-154 0 -292.5 58t-238.5 157t-158.5 236.5t-58.5 290.5t58.5 290t158.5 236t238.5 157t292.5 58t292.5 -58t238 -157t158 -236t58.5 -290q0 -204 -99 -374.5t-270.5 -269t-377.5 -98.5zM254 717q0 -163 76 -299t211 -215.5t301 -79.5q165 0 299.5 79.5
t210 215.5t75.5 299t-75.5 299t-210 215.5t-299.5 79.5q-166 0 -301 -79.5t-211 -215.5t-76 -299zM469 713q0 171 113 281t282 110q98 0 184 -42t142 -120l-158 -129q-69 96 -170 96q-78 0 -130 -54t-52 -140t53 -138.5t133 -52.5q108 0 183 101l151 -117q-52 -84 -142 -130
t-198 -46q-169 0 -280 106t-111 275z" />
    <glyph glyph-name="ordfeminine" unicode="&#xaa;" horiz-adv-x="1005" 
d="M473 631q-162 0 -275.5 117.5t-113.5 295.5t113.5 296t275.5 118q126 0 215 -74v56h211v-791h-211v56q-89 -74 -215 -74zM299 1044q0 -97 58.5 -157t148.5 -60q112 0 182 82v269q-70 84 -182 84q-90 0 -148.5 -60.5t-58.5 -157.5z" />
    <glyph glyph-name="guillemotleft" unicode="&#xab;" horiz-adv-x="1234" 
d="M389 137l-313 445l313 446h270l-309 -446l309 -445h-270zM563 582l314 446h270l-309 -446l309 -445h-270z" />
    <glyph glyph-name="logicalnot" unicode="&#xac;" horiz-adv-x="1331" 
d="M893 330v207h-686v225h917v-432h-231z" />
    <glyph glyph-name="registered" unicode="&#xae;" horiz-adv-x="1040" 
d="M520 614q-175 0 -299.5 123.5t-124.5 298.5q0 176 124.5 299t299.5 123q177 0 300.5 -123.5t123.5 -298.5t-123.5 -298.5t-300.5 -123.5zM199 1036q0 -136 93 -232.5t228 -96.5t228.5 96.5t93.5 232.5t-93.5 233t-228.5 97t-228 -97t-93 -233zM354 825v437h197
q74 0 115 -38.5t41 -107.5q0 -113 -103 -135l115 -156h-123l-100 150h-35v-150h-107zM461 1067h84q51 0 51 47q0 45 -51 45h-84v-92z" />
    <glyph glyph-name="macron" unicode="&#xaf;" horiz-adv-x="1228" 
d="M332 1243v184h565v-184h-565z" />
    <glyph glyph-name="degree" unicode="&#xb0;" horiz-adv-x="780" 
d="M391 823q-141 0 -233 91t-92 227t91.5 226.5t233.5 90.5q140 0 232 -90.5t92 -226.5t-92 -227t-232 -91zM252 1141q0 -64 37.5 -104t101.5 -40t101.5 40t37.5 104t-37.5 103.5t-101.5 39.5t-101.5 -39.5t-37.5 -103.5z" />
    <glyph glyph-name="plusminus" unicode="&#xb1;" horiz-adv-x="1331" 
d="M549 365v325h-342v223h342v330h235v-330h340v-223h-340v-325h-235zM207 0v223h917v-223h-917z" />
    <glyph glyph-name="uni00B2" unicode="&#xb2;" horiz-adv-x="671" 
d="M51 737v140l264 247q67 62 92 97t25 63q0 34 -24 54t-64 20q-96 0 -162 -115l-143 90q42 91 122 143t183 52q121 0 196.5 -67t75.5 -167q0 -60 -30.5 -115t-96.5 -116l-170 -158h304v-168h-572z" />
    <glyph glyph-name="uni00B3" unicode="&#xb3;" horiz-adv-x="655" 
d="M322 723q-178 0 -295 108l106 134q80 -74 178 -74q55 0 84 21.5t29 58.5q0 76 -125 76h-82v161h78q121 0 121 76q0 35 -25.5 55.5t-73.5 20.5q-89 0 -163 -80l-121 117q109 131 291 131q127 0 200.5 -60.5t73.5 -160.5q0 -137 -125 -177q65 -22 100 -69.5t35 -112.5
q0 -100 -76.5 -162.5t-209.5 -62.5z" />
    <glyph glyph-name="acute" unicode="&#xb4;" horiz-adv-x="1228" 
d="M426 1200l149 301h287l-215 -301h-221z" />
    <glyph glyph-name="uni00B5" unicode="&#xb5;" horiz-adv-x="1251" 
d="M715 -25q-191 0 -322 113v-534h-246v1495h246v-723q110 -125 258 -125q105 0 161 66.5t56 195.5v586h246v-639q0 -205 -107.5 -320t-291.5 -115z" />
    <glyph glyph-name="paragraph" unicode="&#xb6;" horiz-adv-x="1392" 
d="M518 -262v1065h-24q-168 0 -267.5 87.5t-99.5 227.5q0 142 104 229t291 87h234v-1696h-238zM942 -262v1696h238v-1696h-238z" />
    <glyph glyph-name="periodcentered" unicode="&#xb7;" horiz-adv-x="495" 
d="M248 481q-72 0 -120 47.5t-48 120.5q0 72 48 120t120 48t120 -48t48 -120q0 -73 -48 -120.5t-120 -47.5z" />
    <glyph glyph-name="cedilla" unicode="&#xb8;" horiz-adv-x="1228" 
d="M340 -336l223 412h189l-154 -412h-258z" />
    <glyph glyph-name="uni00B9" unicode="&#xb9;" horiz-adv-x="514" 
d="M231 737v582l-174 -86v176l203 102h154v-774h-183z" />
    <glyph glyph-name="ordmasculine" unicode="&#xba;" horiz-adv-x="1009" 
d="M506 631q-183 0 -302.5 117t-119.5 296q0 180 119.5 297t302.5 117q182 0 301 -117t119 -297q0 -178 -119 -295.5t-301 -117.5zM299 1044q0 -96 58.5 -156.5t148.5 -60.5q88 0 145.5 60.5t57.5 156.5q0 97 -57 157.5t-146 60.5q-90 0 -148.5 -60.5t-58.5 -157.5z" />
    <glyph glyph-name="guillemotright" unicode="&#xbb;" horiz-adv-x="1234" 
d="M846 137h-271l310 445l-310 446h271l313 -446zM88 137l309 445l-309 446h270l314 -446l-314 -445h-270z" />
    <glyph glyph-name="onequarter" unicode="&#xbc;" horiz-adv-x="1572" 
d="M166 0l1003 1434h209l-1003 -1434h-209zM68 1155v176l202 103h154v-775h-182v582zM866 147v150l346 477h211v-475h93v-152h-93v-147h-170v147h-387zM1047 299h206v287z" />
    <glyph glyph-name="onehalf" unicode="&#xbd;" horiz-adv-x="1662" 
d="M1008 0v139l264 248q67 62 92 97t25 63q0 34 -24.5 54t-64.5 20q-95 0 -161 -115l-144 90q42 91 122 143t183 52q121 0 197 -67t76 -167q0 -60 -30.5 -115t-96.5 -116l-170 -158h303v-168h-571zM68 1155v176l202 103h154v-775h-182v582zM166 0l1003 1434h209l-1003 -1434
h-209z" />
    <glyph glyph-name="threequarters" unicode="&#xbe;" horiz-adv-x="1681" 
d="M342 653q-177 0 -295 109l107 133q80 -74 178 -74q55 0 83.5 21.5t28.5 58.5q0 76 -125 76h-81v162h77q121 0 121 75q0 35 -25 55.5t-73 20.5q-90 0 -164 -80l-121 117q109 131 291 131q127 0 200.5 -60.5t73.5 -160.5q0 -136 -124 -176q65 -22 100 -69.5t35 -112.5
q0 -100 -77 -163t-210 -63zM274 0l1004 1434h209l-1004 -1434h-209zM975 147v150l346 477h211v-475h92v-152h-92v-147h-170v147h-387zM1155 299h207v287z" />
    <glyph glyph-name="questiondown" unicode="&#xbf;" horiz-adv-x="1003" 
d="M676 494q0 -103 -31.5 -162t-134.5 -146l-96 -80q-48 -42 -67 -74.5t-19 -70.5q0 -64 42 -101.5t117 -37.5q184 0 258 225l216 -84q-43 -169 -169.5 -266.5t-304.5 -97.5q-180 0 -292.5 96.5t-112.5 253.5q0 85 41 159t139 156l90 76q51 42 64.5 70.5t13.5 91.5v78h246
v-86zM385 905q0 73 48 120.5t120 47.5t120 -47.5t48 -120.5q0 -72 -48 -120t-120 -48t-120 48t-48 120z" />
    <glyph glyph-name="Agrave" unicode="&#xc0;" horiz-adv-x="1460" 
d="M23 0l559 1434h297l559 -1434h-275l-127 332h-614l-127 -332h-272zM420 1890h299l158 -319h-230zM506 555h446l-223 584z" />
    <glyph glyph-name="Aacute" unicode="&#xc1;" horiz-adv-x="1460" 
d="M23 0l559 1434h297l559 -1434h-275l-127 332h-614l-127 -332h-272zM506 555h446l-223 584zM571 1571l158 319h303l-227 -319h-234z" />
    <glyph glyph-name="Acircumflex" unicode="&#xc2;" horiz-adv-x="1460" 
d="M23 0l559 1434h297l559 -1434h-275l-127 332h-614l-127 -332h-272zM362 1571l246 319h246l246 -319h-230l-139 170l-139 -170h-230zM506 555h446l-223 584z" />
    <glyph glyph-name="Atilde" unicode="&#xc3;" horiz-adv-x="1460" 
d="M23 0l559 1434h297l559 -1434h-275l-127 332h-614l-127 -332h-272zM360 1655q15 109 76 168t146 59q33 0 68 -11.5t52.5 -21t51.5 -30.5q60 -43 100 -43q53 0 70 86l174 -52q-14 -109 -75 -168t-144 -59q-76 0 -172 66q-65 43 -101 43q-28 0 -45 -20.5t-26 -65.5z
M506 555h446l-223 584z" />
    <glyph glyph-name="Adieresis" unicode="&#xc4;" horiz-adv-x="1460" 
d="M23 0l559 1434h297l559 -1434h-275l-127 332h-614l-127 -332h-272zM350 1735q0 67 45.5 111t110.5 44q64 0 108.5 -44t44.5 -111t-44.5 -111.5t-108.5 -44.5q-65 0 -110.5 44.5t-45.5 111.5zM506 555h446l-223 584zM803 1735q0 67 44.5 111t108.5 44q65 0 110.5 -44
t45.5 -111t-45.5 -111.5t-110.5 -44.5q-64 0 -108.5 44.5t-44.5 111.5z" />
    <glyph glyph-name="Aring" unicode="&#xc5;" horiz-adv-x="1460" 
d="M23 0l559 1434h297l559 -1434h-275l-127 332h-614l-127 -332h-272zM496 1761q0 94 67 157.5t168 63.5t168.5 -63.5t67.5 -157.5t-67.5 -156.5t-168.5 -62.5t-168 62.5t-67 156.5zM506 555h446l-223 584zM643 1761q0 -37 24.5 -61.5t63.5 -24.5t63.5 24.5t24.5 61.5
t-24.5 62.5t-63.5 25.5t-63.5 -25.5t-24.5 -62.5z" />
    <glyph glyph-name="AE" unicode="&#xc6;" horiz-adv-x="2265" 
d="M6 0l987 1434h1151v-240h-747v-332h651v-237h-651v-385h747v-240h-1005v356h-570l-243 -356h-320zM723 580h416v606z" />
    <glyph glyph-name="Ccedilla" unicode="&#xc7;" horiz-adv-x="1542" 
d="M530 -375l195 357q-278 37 -454.5 238.5t-176.5 494.5q0 213 98.5 383.5t268 265t375.5 94.5q201 0 371 -93.5t268 -264.5l-224 -133q-64 120 -172.5 183.5t-242.5 63.5q-204 0 -339 -137.5t-135 -359.5t135 -360t339 -138q135 0 245.5 65.5t171.5 182.5l224 -131
q-84 -147 -223 -238t-310 -114l-133 -359h-281z" />
    <glyph glyph-name="Egrave" unicode="&#xc8;" horiz-adv-x="1298" 
d="M172 0v1434h1006v-240h-748v-332h651v-237h-651v-385h748v-240h-1006zM365 1890h299l157 -319h-229z" />
    <glyph glyph-name="Eacute" unicode="&#xc9;" horiz-adv-x="1298" 
d="M172 0v1434h1006v-240h-748v-332h651v-237h-651v-385h748v-240h-1006zM516 1571l158 319h303l-227 -319h-234z" />
    <glyph glyph-name="Ecircumflex" unicode="&#xca;" horiz-adv-x="1298" 
d="M172 0v1434h1006v-240h-748v-332h651v-237h-651v-385h748v-240h-1006zM307 1571l246 319h246l245 -319h-229l-139 170l-139 -170h-230z" />
    <glyph glyph-name="Edieresis" unicode="&#xcb;" horiz-adv-x="1298" 
d="M172 0v1434h1006v-240h-748v-332h651v-237h-651v-385h748v-240h-1006zM295 1735q0 67 45.5 111t110.5 44q64 0 108.5 -44t44.5 -111t-44.5 -111.5t-108.5 -44.5q-65 0 -110.5 44.5t-45.5 111.5zM748 1735q0 67 44.5 111t108.5 44q65 0 110.5 -44t45.5 -111t-45.5 -111.5
t-110.5 -44.5q-64 0 -108.5 44.5t-44.5 111.5z" />
    <glyph glyph-name="Igrave" unicode="&#xcc;" horiz-adv-x="602" 
d="M172 0v1434h258v-1434h-258zM-10 1890h299l157 -319h-229z" />
    <glyph glyph-name="Iacute" unicode="&#xcd;" horiz-adv-x="602" 
d="M172 0v1434h258v-1434h-258zM141 1571l158 319h303l-227 -319h-234z" />
    <glyph glyph-name="Icircumflex" unicode="&#xce;" horiz-adv-x="602" 
d="M172 0v1434h258v-1434h-258zM-68 1571l246 319h246l246 -319h-230l-139 170l-139 -170h-230z" />
    <glyph glyph-name="Idieresis" unicode="&#xcf;" horiz-adv-x="602" 
d="M172 0v1434h258v-1434h-258zM-80 1735q0 67 45.5 111t110.5 44q64 0 108.5 -44t44.5 -111t-44.5 -111.5t-108.5 -44.5q-65 0 -110.5 44.5t-45.5 111.5zM373 1735q0 67 44.5 111t108.5 44q65 0 110.5 -44t45.5 -111t-45.5 -111.5t-110.5 -44.5q-64 0 -108.5 44.5
t-44.5 111.5z" />
    <glyph glyph-name="Eth" unicode="&#xd0;" horiz-adv-x="1497" 
d="M203 0v635h-197v201h197v598h463q161 0 296.5 -50t233 -141.5t152.5 -226.5t55 -299t-55 -299t-152.5 -226.5t-233 -141.5t-296.5 -50h-463zM461 242h192q226 0 355 123t129 352t-129 352t-355 123h-192v-356h291v-201h-291v-393z" />
    <glyph glyph-name="Ntilde" unicode="&#xd1;" horiz-adv-x="1581" 
d="M172 0v1434h264l715 -1010v1010h258v-1434h-264l-715 1012v-1012h-258zM420 1655q15 109 75.5 168t145.5 59q33 0 68 -11.5t52.5 -21t51.5 -30.5q60 -43 100 -43q53 0 70 86l174 -52q-14 -109 -75 -168t-144 -59q-76 0 -172 66q-65 43 -100 43q-55 0 -72 -86z" />
    <glyph glyph-name="Ograve" unicode="&#xd2;" horiz-adv-x="1665" 
d="M834 -25q-205 0 -374 94.5t-267.5 265t-98.5 382.5q0 159 57.5 297.5t157 235.5t236 152.5t289.5 55.5t289 -55.5t234.5 -152.5t156 -235.5t57.5 -297.5q0 -212 -98 -382.5t-266.5 -265t-372.5 -94.5zM360 717q0 -222 135 -360t339 -138q203 0 337 138t134 360
t-134 359.5t-337 137.5q-204 0 -339 -137.5t-135 -359.5zM522 1890h299l158 -319h-229z" />
    <glyph glyph-name="Oacute" unicode="&#xd3;" horiz-adv-x="1665" 
d="M834 -25q-205 0 -374 94.5t-267.5 265t-98.5 382.5q0 159 57.5 297.5t157 235.5t236 152.5t289.5 55.5t289 -55.5t234.5 -152.5t156 -235.5t57.5 -297.5q0 -212 -98 -382.5t-266.5 -265t-372.5 -94.5zM360 717q0 -222 135 -360t339 -138q203 0 337 138t134 360
t-134 359.5t-337 137.5q-204 0 -339 -137.5t-135 -359.5zM674 1571l157 319h304l-228 -319h-233z" />
    <glyph glyph-name="Ocircumflex" unicode="&#xd4;" horiz-adv-x="1665" 
d="M834 -25q-205 0 -374 94.5t-267.5 265t-98.5 382.5q0 159 57.5 297.5t157 235.5t236 152.5t289.5 55.5t289 -55.5t234.5 -152.5t156 -235.5t57.5 -297.5q0 -212 -98 -382.5t-266.5 -265t-372.5 -94.5zM360 717q0 -222 135 -360t339 -138q203 0 337 138t134 360
t-134 359.5t-337 137.5q-204 0 -339 -137.5t-135 -359.5zM465 1571l246 319h245l246 -319h-229l-139 170l-140 -170h-229z" />
    <glyph glyph-name="Otilde" unicode="&#xd5;" horiz-adv-x="1665" 
d="M834 -25q-205 0 -374 94.5t-267.5 265t-98.5 382.5q0 159 57.5 297.5t157 235.5t236 152.5t289.5 55.5t289 -55.5t234.5 -152.5t156 -235.5t57.5 -297.5q0 -212 -98 -382.5t-266.5 -265t-372.5 -94.5zM360 717q0 -222 135 -360t339 -138q203 0 337 138t134 360
t-134 359.5t-337 137.5q-204 0 -339 -137.5t-135 -359.5zM463 1655q15 109 75.5 168t145.5 59q33 0 68 -11.5t52.5 -21t51.5 -30.5q60 -43 100 -43q53 0 70 86l174 -52q-14 -109 -75 -168t-144 -59q-76 0 -172 66q-65 43 -100 43q-55 0 -72 -86z" />
    <glyph glyph-name="Odieresis" unicode="&#xd6;" horiz-adv-x="1665" 
d="M834 -25q-205 0 -374 94.5t-267.5 265t-98.5 382.5q0 159 57.5 297.5t157 235.5t236 152.5t289.5 55.5t289 -55.5t234.5 -152.5t156 -235.5t57.5 -297.5q0 -212 -98 -382.5t-266.5 -265t-372.5 -94.5zM360 717q0 -222 135 -360t339 -138q203 0 337 138t134 360
t-134 359.5t-337 137.5q-204 0 -339 -137.5t-135 -359.5zM453 1735q0 67 45 111t110 44q64 0 109 -44t45 -111t-45 -111.5t-109 -44.5q-65 0 -110 44.5t-45 111.5zM905 1735q0 67 45 111t109 44q65 0 110 -44t45 -111t-45 -111.5t-110 -44.5q-64 0 -109 44.5t-45 111.5z" />
    <glyph glyph-name="multiply" unicode="&#xd7;" horiz-adv-x="1331" 
d="M373 205l-152 151l293 293l-293 293l152 152l293 -293l292 293l152 -152l-293 -293l293 -293l-152 -151l-292 293z" />
    <glyph glyph-name="Oslash" unicode="&#xd8;" horiz-adv-x="1656" 
d="M829 -25q-195 0 -364 91l-129 -175l-164 125l129 172q-100 100 -155.5 236t-55.5 293q0 159 57.5 297.5t156.5 235.5t235.5 152.5t289.5 55.5q197 0 361 -88l129 172l164 -125l-127 -170q100 -100 155.5 -236t55.5 -294q0 -159 -57.5 -297.5t-156.5 -236t-235 -153
t-289 -55.5zM346 717q0 -196 109 -334l596 793q-104 49 -222 49q-208 0 -345.5 -141t-137.5 -367zM608 258q104 -49 221 -49q207 0 344.5 141t137.5 367q0 196 -109 334z" />
    <glyph glyph-name="Ugrave" unicode="&#xd9;" horiz-adv-x="1509" 
d="M756 -25q-282 0 -441 156t-159 442v861h258v-834q0 -190 89 -285.5t253 -95.5t252 95.5t88 285.5v834h260v-861q0 -286 -159.5 -442t-440.5 -156zM444 1890h299l158 -319h-229z" />
    <glyph glyph-name="Uacute" unicode="&#xda;" horiz-adv-x="1509" 
d="M756 -25q-282 0 -441 156t-159 442v861h258v-834q0 -190 89 -285.5t253 -95.5t252 95.5t88 285.5v834h260v-861q0 -286 -159.5 -442t-440.5 -156zM596 1571l158 319h303l-228 -319h-233z" />
    <glyph glyph-name="Ucircumflex" unicode="&#xdb;" horiz-adv-x="1509" 
d="M756 -25q-282 0 -441 156t-159 442v861h258v-834q0 -190 89 -285.5t253 -95.5t252 95.5t88 285.5v834h260v-861q0 -286 -159.5 -442t-440.5 -156zM387 1571l246 319h246l245 -319h-229l-139 170l-140 -170h-229z" />
    <glyph glyph-name="Udieresis" unicode="&#xdc;" horiz-adv-x="1509" 
d="M756 -25q-282 0 -441 156t-159 442v861h258v-834q0 -190 89 -285.5t253 -95.5t252 95.5t88 285.5v834h260v-861q0 -286 -159.5 -442t-440.5 -156zM375 1735q0 67 45 111t110 44q64 0 109 -44t45 -111t-45 -111.5t-109 -44.5q-65 0 -110 44.5t-45 111.5zM827 1735
q0 67 45 111t109 44q65 0 110.5 -44t45.5 -111t-45.5 -111.5t-110.5 -44.5q-64 0 -109 44.5t-45 111.5z" />
    <glyph glyph-name="Yacute" unicode="&#xdd;" horiz-adv-x="1333" 
d="M537 0v563l-529 871h291l369 -613l366 613h291l-528 -871v-563h-260zM508 1571l158 319h303l-228 -319h-233z" />
    <glyph glyph-name="Thorn" unicode="&#xde;" horiz-adv-x="1353" 
d="M172 0v1434h258v-260h313q240 0 377 -121.5t137 -335.5t-137 -335.5t-377 -121.5h-313v-260h-258zM430 500h293q270 0 270 217t-270 217h-293v-434z" />
    <glyph glyph-name="germandbls" unicode="&#xdf;" horiz-adv-x="1288" 
d="M743 -25q-86 0 -176 17l29 219q58 -10 104 -10q129 0 199 58t70 159q0 102 -70 157.5t-203 55.5h-94v233h25q125 0 192.5 62t67.5 166q0 101 -64.5 161t-173.5 60q-121 0 -188.5 -73.5t-67.5 -215.5v-1024h-246v1036q0 231 137.5 365.5t362.5 134.5q216 0 351 -119.5
t135 -306.5q0 -117 -55 -208t-152 -134q137 -31 215 -129.5t78 -245.5q0 -190 -129 -304t-347 -114z" />
    <glyph glyph-name="agrave" unicode="&#xe0;" horiz-adv-x="1302" 
d="M606 -25q-142 0 -261.5 70t-190 196.5t-70.5 282.5t70.5 282.5t190 196.5t261.5 70q179 0 301 -104v80h246v-1049h-246v80q-124 -105 -301 -105zM334 524q0 -145 88 -234t221 -89q75 0 144.5 31.5t119.5 91.5v401q-50 60 -119 90.5t-145 30.5q-133 0 -221 -88.5
t-88 -233.5zM369 1501h286l148 -301h-219z" />
    <glyph glyph-name="aacute" unicode="&#xe1;" horiz-adv-x="1302" 
d="M606 -25q-142 0 -261.5 70t-190 196.5t-70.5 282.5t70.5 282.5t190 196.5t261.5 70q179 0 301 -104v80h246v-1049h-246v80q-124 -105 -301 -105zM334 524q0 -145 88 -234t221 -89q75 0 144.5 31.5t119.5 91.5v401q-50 60 -119 90.5t-145 30.5q-133 0 -221 -88.5
t-88 -233.5zM520 1200l150 301h286l-215 -301h-221z" />
    <glyph glyph-name="acircumflex" unicode="&#xe2;" horiz-adv-x="1302" 
d="M606 -25q-142 0 -261.5 70t-190 196.5t-70.5 282.5t70.5 282.5t190 196.5t261.5 70q179 0 301 -104v80h246v-1049h-246v80q-124 -105 -301 -105zM311 1200l240 301h233l240 -301h-225l-131 160l-131 -160h-226zM334 524q0 -145 88 -234t221 -89q75 0 144.5 31.5
t119.5 91.5v401q-50 60 -119 90.5t-145 30.5q-133 0 -221 -88.5t-88 -233.5z" />
    <glyph glyph-name="atilde" unicode="&#xe3;" horiz-adv-x="1302" 
d="M606 -25q-142 0 -261.5 70t-190 196.5t-70.5 282.5t70.5 282.5t190 196.5t261.5 70q179 0 301 -104v80h246v-1049h-246v80q-124 -105 -301 -105zM322 1280q13 99 70 156t134 57q75 0 162 -59q59 -41 94 -41q49 0 66 82l164 -48q-15 -100 -71.5 -157.5t-133.5 -57.5
q-32 0 -65.5 11t-50 20.5t-48.5 30.5q-64 39 -92 39q-52 0 -66 -80zM334 524q0 -145 88 -234t221 -89q75 0 144.5 31.5t119.5 91.5v401q-50 60 -119 90.5t-145 30.5q-133 0 -221 -88.5t-88 -233.5z" />
    <glyph glyph-name="adieresis" unicode="&#xe4;" horiz-adv-x="1302" 
d="M606 -25q-142 0 -261.5 70t-190 196.5t-70.5 282.5t70.5 282.5t190 196.5t261.5 70q179 0 301 -104v80h246v-1049h-246v80q-124 -105 -301 -105zM311 1356q0 62 42.5 103.5t103.5 41.5t103 -41.5t42 -103.5q0 -64 -42 -106t-103 -42t-103.5 42t-42.5 106zM334 524
q0 -145 88 -234t221 -89q75 0 144.5 31.5t119.5 91.5v401q-50 60 -119 90.5t-145 30.5q-133 0 -221 -88.5t-88 -233.5zM733 1356q0 62 42.5 103.5t103.5 41.5t103 -41.5t42 -103.5q0 -64 -42 -106t-103 -42t-103.5 42t-42.5 106z" />
    <glyph glyph-name="aring" unicode="&#xe5;" horiz-adv-x="1302" 
d="M606 -25q-142 0 -261.5 70t-190 196.5t-70.5 282.5t70.5 282.5t190 196.5t261.5 70q179 0 301 -104v80h246v-1049h-246v80q-124 -105 -301 -105zM334 524q0 -145 88 -234t221 -89q75 0 144.5 31.5t119.5 91.5v401q-50 60 -119 90.5t-145 30.5q-133 0 -221 -88.5
t-88 -233.5zM434 1397q0 92 67 154.5t167 62.5t166.5 -62.5t66.5 -154.5q0 -94 -66.5 -156.5t-166.5 -62.5t-167 62.5t-67 156.5zM584 1397q0 -37 23 -60.5t61 -23.5t61 23.5t23 60.5t-23 60.5t-61 23.5t-61 -23.5t-23 -60.5z" />
    <glyph glyph-name="ae" unicode="&#xe6;" horiz-adv-x="2007" 
d="M504 -25q-200 0 -313 90t-113 238q0 150 115.5 239t318.5 89h328v24q0 101 -62 154t-184 53q-181 0 -344 -145l-135 168q188 188 483 188q280 0 391 -164q75 78 180.5 121t229.5 43q231 0 375.5 -141.5t144.5 -376.5q0 -45 -6 -92h-830q15 -132 100.5 -204.5t221.5 -72.5
q185 0 309 150l172 -131q-83 -112 -207 -171t-278 -59q-138 0 -248.5 46.5t-185.5 132.5q-182 -179 -463 -179zM326 313q0 -63 52 -100t150 -37q205 0 340 150q-20 55 -26 125h-318q-97 0 -147.5 -37t-50.5 -101zM1096 647h575q-20 109 -91 164t-183 55q-116 0 -194 -56.5
t-107 -162.5z" />
    <glyph glyph-name="ccedilla" unicode="&#xe7;" horiz-adv-x="1155" 
d="M356 -336l174 320q-199 34 -322.5 179.5t-123.5 354.5q0 159 73.5 286.5t201 198t282.5 70.5q141 0 261.5 -58.5t197.5 -166.5l-193 -152q-110 150 -268 150q-130 0 -216.5 -90.5t-86.5 -231.5q0 -144 88 -233.5t217 -89.5q84 0 158.5 41t130.5 116l182 -137
q-65 -97 -163 -158.5t-216 -78.5l-119 -320h-258z" />
    <glyph glyph-name="egrave" unicode="&#xe8;" horiz-adv-x="1253" 
d="M647 -25q-254 0 -408.5 150t-154.5 391q0 243 157.5 400t403.5 157q231 0 375.5 -141.5t144.5 -376.5q0 -45 -6 -92h-829q15 -132 100 -204.5t221 -72.5q186 0 310 150l172 -131q-83 -112 -207.5 -171t-278.5 -59zM342 647h576q-20 108 -91.5 163.5t-183.5 55.5
q-116 0 -194 -56.5t-107 -162.5zM342 1501h287l147 -301h-219z" />
    <glyph glyph-name="eacute" unicode="&#xe9;" horiz-adv-x="1253" 
d="M647 -25q-254 0 -408.5 150t-154.5 391q0 243 157.5 400t403.5 157q231 0 375.5 -141.5t144.5 -376.5q0 -45 -6 -92h-829q15 -132 100 -204.5t221 -72.5q186 0 310 150l172 -131q-83 -112 -207.5 -171t-278.5 -59zM342 647h576q-20 108 -91.5 163.5t-183.5 55.5
q-116 0 -194 -56.5t-107 -162.5zM494 1200l149 301h287l-215 -301h-221z" />
    <glyph glyph-name="ecircumflex" unicode="&#xea;" horiz-adv-x="1253" 
d="M647 -25q-254 0 -408.5 150t-154.5 391q0 243 157.5 400t403.5 157q231 0 375.5 -141.5t144.5 -376.5q0 -45 -6 -92h-829q15 -132 100 -204.5t221 -72.5q186 0 310 150l172 -131q-83 -112 -207.5 -171t-278.5 -59zM285 1200l239 301h234l239 -301h-225l-131 160
l-131 -160h-225zM342 647h576q-20 108 -91.5 163.5t-183.5 55.5q-116 0 -194 -56.5t-107 -162.5z" />
    <glyph glyph-name="edieresis" unicode="&#xeb;" horiz-adv-x="1253" 
d="M647 -25q-254 0 -408.5 150t-154.5 391q0 243 157.5 400t403.5 157q231 0 375.5 -141.5t144.5 -376.5q0 -45 -6 -92h-829q15 -132 100 -204.5t221 -72.5q186 0 310 150l172 -131q-83 -112 -207.5 -171t-278.5 -59zM285 1356q0 62 42 103.5t103 41.5t103 -41.5t42 -103.5
q0 -64 -42 -106t-103 -42t-103 42t-42 106zM342 647h576q-20 108 -91.5 163.5t-183.5 55.5q-116 0 -194 -56.5t-107 -162.5zM707 1356q0 62 42 103.5t103 41.5t103 -41.5t42 -103.5q0 -64 -42 -106t-103 -42t-103 42t-42 106z" />
    <glyph glyph-name="igrave" unicode="&#xec;" horiz-adv-x="540" 
d="M147 0v1049h246v-1049h-246zM12 1501h285l109 -301h-222z" />
    <glyph glyph-name="iacute" unicode="&#xed;" horiz-adv-x="540" 
d="M147 0v1049h246v-1049h-246zM125 1200l106 301h287l-174 -301h-219z" />
    <glyph glyph-name="icircumflex" unicode="&#xee;" horiz-adv-x="540" 
d="M147 0v1049h246v-1049h-246zM-49 1200l219 301h201l219 -301h-211l-109 150l-108 -150h-211z" />
    <glyph glyph-name="idieresis" unicode="&#xef;" horiz-adv-x="540" 
d="M147 0v1049h246v-1049h-246zM-53 1356q0 64 39.5 104.5t99.5 40.5t99.5 -40.5t39.5 -104.5q0 -66 -39.5 -107t-99.5 -41t-99.5 41t-39.5 107zM315 1356q0 64 39.5 104.5t100.5 40.5q60 0 99.5 -40.5t39.5 -104.5q0 -66 -39.5 -107t-99.5 -41q-61 0 -100.5 41.5
t-39.5 106.5z" />
    <glyph glyph-name="eth" unicode="&#xf0;" horiz-adv-x="1275" 
d="M635 -25q-157 0 -282.5 64.5t-197 182t-71.5 265.5q0 145 70 261.5t190.5 181.5t265.5 65q162 0 289 -77q-58 161 -197 276l-208 -150l-76 113l168 119q-101 58 -254 108l86 185q203 -57 354 -160l189 135l77 -110l-155 -113q149 -134 228 -316t79 -395q0 -296 -148 -463
q-152 -172 -407 -172zM334 492q0 -130 87 -211.5t216 -81.5q141 0 227 103t86 292q0 35 -2 53q-131 137 -307 137q-135 0 -221 -82t-86 -210z" />
    <glyph glyph-name="ntilde" unicode="&#xf1;" horiz-adv-x="1257" 
d="M874 575q0 133 -59 202t-164 69q-152 0 -258 -123v-723h-246v1049h246v-88q134 112 320 112q185 0 296 -117.5t111 -326.5v-629h-246v575zM283 1280q13 99 70 156t134 57q75 0 162 -59q59 -41 94 -41q49 0 66 82l164 -48q-15 -100 -71.5 -157.5t-133.5 -57.5
q-32 0 -65.5 11t-50 20.5t-48.5 30.5q-64 39 -92 39q-52 0 -66 -80z" />
    <glyph glyph-name="ograve" unicode="&#xf2;" horiz-adv-x="1280" 
d="M641 -25q-239 0 -398 156.5t-159 392.5q0 237 158.5 393t398.5 156t397.5 -156t157.5 -393q0 -236 -158 -392.5t-397 -156.5zM334 524q0 -142 86.5 -232.5t220.5 -90.5q133 0 219 90.5t86 232.5t-86 232t-219 90q-134 0 -220.5 -90t-86.5 -232zM340 1501h287l147 -301
h-219z" />
    <glyph glyph-name="oacute" unicode="&#xf3;" horiz-adv-x="1280" 
d="M641 -25q-239 0 -398 156.5t-159 392.5q0 237 158.5 393t398.5 156t397.5 -156t157.5 -393q0 -236 -158 -392.5t-397 -156.5zM334 524q0 -142 86.5 -232.5t220.5 -90.5q133 0 219 90.5t86 232.5t-86 232t-219 90q-134 0 -220.5 -90t-86.5 -232zM494 1200l149 301h287
l-215 -301h-221z" />
    <glyph glyph-name="ocircumflex" unicode="&#xf4;" horiz-adv-x="1280" 
d="M641 -25q-239 0 -398 156.5t-159 392.5q0 237 158.5 393t398.5 156t397.5 -156t157.5 -393q0 -236 -158 -392.5t-397 -156.5zM285 1200l239 301h234l239 -301h-225l-131 160l-131 -160h-225zM334 524q0 -142 86.5 -232.5t220.5 -90.5q133 0 219 90.5t86 232.5t-86 232
t-219 90q-134 0 -220.5 -90t-86.5 -232z" />
    <glyph glyph-name="otilde" unicode="&#xf5;" horiz-adv-x="1280" 
d="M641 -25q-239 0 -398 156.5t-159 392.5q0 237 158.5 393t398.5 156t397.5 -156t157.5 -393q0 -236 -158 -392.5t-397 -156.5zM295 1280q13 99 70.5 156t134.5 57q75 0 162 -59q59 -41 94 -41q48 0 65 82l164 -48q-15 -100 -71.5 -157.5t-133.5 -57.5q-32 0 -65.5 11
t-50 20.5t-48.5 30.5q-64 39 -92 39q-51 0 -65 -80zM334 524q0 -142 86.5 -232.5t220.5 -90.5q133 0 219 90.5t86 232.5t-86 232t-219 90q-134 0 -220.5 -90t-86.5 -232z" />
    <glyph glyph-name="odieresis" unicode="&#xf6;" horiz-adv-x="1280" 
d="M641 -25q-239 0 -398 156.5t-159 392.5q0 237 158.5 393t398.5 156t397.5 -156t157.5 -393q0 -236 -158 -392.5t-397 -156.5zM285 1356q0 62 42 103.5t103 41.5t103 -41.5t42 -103.5q0 -64 -42 -106t-103 -42t-103 42t-42 106zM334 524q0 -142 86.5 -232.5t220.5 -90.5
q133 0 219 90.5t86 232.5t-86 232t-219 90q-134 0 -220.5 -90t-86.5 -232zM707 1356q0 62 42 103.5t103 41.5t103 -41.5t42 -103.5q0 -64 -42 -106t-103 -42t-103 42t-42 106z" />
    <glyph glyph-name="divide" unicode="&#xf7;" horiz-adv-x="1331" 
d="M205 537v225h919v-225h-919zM508 266q0 65 44 106.5t114 41.5t112.5 -41.5t42.5 -106.5q0 -66 -42.5 -106.5t-112.5 -40.5q-71 0 -114.5 40.5t-43.5 106.5zM508 1032q0 66 44 107t114 41t112.5 -41t42.5 -107q0 -65 -42.5 -106t-112.5 -41t-114 41t-44 106z" />
    <glyph glyph-name="oslash" unicode="&#xf8;" horiz-adv-x="1282" 
d="M641 -25q-145 0 -262 60l-96 -127l-133 102l92 123q-75 73 -116.5 174t-41.5 217q0 237 158.5 393t398.5 156q146 0 264 -59l92 123l136 -101l-93 -121q75 -73 116.5 -174t41.5 -217q0 -236 -159 -392.5t-398 -156.5zM319 524q0 -128 68 -215l395 522q-67 31 -141 31
q-140 0 -231 -94.5t-91 -243.5zM502 215q66 -29 139 -29q140 0 231 94.5t91 243.5q0 125 -68 215z" />
    <glyph glyph-name="ugrave" unicode="&#xf9;" horiz-adv-x="1251" 
d="M537 -25q-184 0 -292 115t-108 320v639h246v-586q0 -129 56 -195.5t161 -66.5q151 0 258 127v721h246v-1049h-246v88q-131 -113 -321 -113zM319 1501h287l148 -301h-219z" />
    <glyph glyph-name="uacute" unicode="&#xfa;" horiz-adv-x="1251" 
d="M537 -25q-184 0 -292 115t-108 320v639h246v-586q0 -129 56 -195.5t161 -66.5q151 0 258 127v721h246v-1049h-246v88q-131 -113 -321 -113zM473 1200l150 301h286l-215 -301h-221z" />
    <glyph glyph-name="ucircumflex" unicode="&#xfb;" horiz-adv-x="1251" 
d="M537 -25q-184 0 -292 115t-108 320v639h246v-586q0 -129 56 -195.5t161 -66.5q151 0 258 127v721h246v-1049h-246v88q-131 -113 -321 -113zM264 1200l240 301h233l240 -301h-225l-131 160l-132 -160h-225z" />
    <glyph glyph-name="udieresis" unicode="&#xfc;" horiz-adv-x="1251" 
d="M537 -25q-184 0 -292 115t-108 320v639h246v-586q0 -129 56 -195.5t161 -66.5q151 0 258 127v721h246v-1049h-246v88q-131 -113 -321 -113zM264 1356q0 62 42.5 103.5t103.5 41.5t103 -41.5t42 -103.5q0 -64 -42 -106t-103 -42t-103.5 42t-42.5 106zM686 1356
q0 62 42 103.5t103 41.5t103.5 -41.5t42.5 -103.5q0 -64 -42.5 -106t-103.5 -42t-103 42t-42 106z" />
    <glyph glyph-name="yacute" unicode="&#xfd;" horiz-adv-x="1185" 
d="M287 -446l192 466l-461 1029h281l307 -719l295 719h266l-616 -1495h-264zM451 1200l149 301h287l-215 -301h-221z" />
    <glyph glyph-name="thorn" unicode="&#xfe;" horiz-adv-x="1302" 
d="M696 -25q-184 0 -303 107v-528h-246v1957h246v-544q118 106 303 106q106 0 201.5 -41.5t166 -113t112 -174.5t41.5 -220t-41.5 -220t-112 -174.5t-166 -113t-201.5 -41.5zM393 324q50 -60 119.5 -91.5t146.5 -31.5q133 0 220.5 89t87.5 234t-87.5 233.5t-220.5 88.5
q-77 0 -146.5 -30.5t-119.5 -90.5v-401z" />
    <glyph glyph-name="ydieresis" unicode="&#xff;" horiz-adv-x="1185" 
d="M287 -446l192 466l-461 1029h281l307 -719l295 719h266l-616 -1495h-264zM242 1356q0 62 42 103.5t103 41.5t103 -41.5t42 -103.5q0 -64 -42 -106t-103 -42t-103 42t-42 106zM664 1356q0 62 42 103.5t103 41.5t103 -41.5t42 -103.5q0 -64 -42 -106t-103 -42t-103 42
t-42 106z" />
    <glyph glyph-name="Amacron" unicode="&#x100;" horiz-adv-x="1460" 
d="M23 0l559 1434h297l559 -1434h-275l-127 332h-614l-127 -332h-272zM430 1618v197h602v-197h-602zM506 555h446l-223 584z" />
    <glyph glyph-name="amacron" unicode="&#x101;" horiz-adv-x="1302" 
d="M606 -25q-142 0 -261.5 70t-190 196.5t-70.5 282.5t70.5 282.5t190 196.5t261.5 70q179 0 301 -104v80h246v-1049h-246v80q-124 -105 -301 -105zM334 524q0 -145 88 -234t221 -89q75 0 144.5 31.5t119.5 91.5v401q-50 60 -119 90.5t-145 30.5q-133 0 -221 -88.5
t-88 -233.5zM385 1243v184h565v-184h-565z" />
    <glyph glyph-name="Abreve" unicode="&#x102;" horiz-adv-x="1460" 
d="M23 0l559 1434h297l559 -1434h-275l-127 332h-614l-127 -332h-272zM414 1868v16h198q0 -155 119 -155t119 155h199v-16q0 -139 -84.5 -219t-233.5 -80t-233 80t-84 219zM506 555h446l-223 584z" />
    <glyph glyph-name="abreve" unicode="&#x103;" horiz-adv-x="1302" 
d="M606 -25q-142 0 -261.5 70t-190 196.5t-70.5 282.5t70.5 282.5t190 196.5t261.5 70q179 0 301 -104v80h246v-1049h-246v80q-124 -105 -301 -105zM334 524q0 -145 88 -234t221 -89q75 0 144.5 31.5t119.5 91.5v401q-50 60 -119 90.5t-145 30.5q-133 0 -221 -88.5
t-88 -233.5zM369 1479v16h188q0 -145 111 -145q110 0 110 145h189v-16q0 -130 -79.5 -205.5t-219.5 -75.5t-219.5 75.5t-79.5 205.5z" />
    <glyph glyph-name="Aogonek" unicode="&#x104;" horiz-adv-x="1460" 
d="M23 0l559 1434h297l559 -1434q-87 -63 -122.5 -110.5t-35.5 -90.5q0 -73 92 -73q35 0 66 10v-197q-50 -12 -113 -12q-120 0 -191 59t-71 160q0 76 43 142.5t125 111.5h-68l-127 332h-614l-127 -332h-272zM506 555h446l-223 584z" />
    <glyph glyph-name="aogonek" unicode="&#x105;" horiz-adv-x="1302" 
d="M606 -25q-142 0 -261.5 70t-190 196.5t-70.5 282.5t70.5 282.5t190 196.5t261.5 70q179 0 301 -104v80h246v-1049q-82 -59 -115.5 -103t-33.5 -85q0 -70 88 -70q30 0 61 8v-184q-47 -12 -106 -12q-114 0 -181 55.5t-67 150.5q0 72 40 135t117 105h-49v80
q-124 -105 -301 -105zM334 524q0 -145 88 -234t221 -89q75 0 144.5 31.5t119.5 91.5v401q-50 60 -119 90.5t-145 30.5q-133 0 -221 -88.5t-88 -233.5z" />
    <glyph glyph-name="Cacute" unicode="&#x106;" horiz-adv-x="1542" 
d="M834 -25q-156 0 -293 55.5t-235.5 152t-155 235t-56.5 297.5q0 213 98.5 383.5t268 265t375.5 94.5q201 0 371 -93.5t268 -264.5l-224 -133q-64 120 -172.5 183.5t-242.5 63.5q-204 0 -339 -137.5t-135 -359.5t135 -360t339 -138q135 0 245.5 65.5t171.5 182.5l224 -131
q-98 -170 -268 -265.5t-375 -95.5zM672 1571l157 319h304l-228 -319h-233z" />
    <glyph glyph-name="cacute" unicode="&#x107;" horiz-adv-x="1155" 
d="M637 -25q-157 0 -283 69t-198 193.5t-72 280.5q0 159 73.5 286.5t201 198t282.5 70.5q141 0 261.5 -58.5t197.5 -166.5l-193 -152q-110 150 -268 150q-130 0 -216.5 -90.5t-86.5 -231.5q0 -144 88 -233.5t217 -89.5q84 0 158.5 41t130.5 116l182 -137
q-76 -117 -201 -181.5t-274 -64.5zM485 1200l150 301h287l-215 -301h-222z" />
    <glyph glyph-name="Ccircumflex" unicode="&#x108;" horiz-adv-x="1542" 
d="M834 -25q-156 0 -293 55.5t-235.5 152t-155 235t-56.5 297.5q0 213 98.5 383.5t268 265t375.5 94.5q201 0 371 -93.5t268 -264.5l-224 -133q-64 120 -172.5 183.5t-242.5 63.5q-204 0 -339 -137.5t-135 -359.5t135 -360t339 -138q135 0 245.5 65.5t171.5 182.5l224 -131
q-98 -170 -268 -265.5t-375 -95.5zM463 1571l246 319h245l246 -319h-229l-140 170l-139 -170h-229z" />
    <glyph glyph-name="ccircumflex" unicode="&#x109;" horiz-adv-x="1155" 
d="M637 -25q-157 0 -283 69t-198 193.5t-72 280.5q0 159 73.5 286.5t201 198t282.5 70.5q141 0 261.5 -58.5t197.5 -166.5l-193 -152q-110 150 -268 150q-130 0 -216.5 -90.5t-86.5 -231.5q0 -144 88 -233.5t217 -89.5q84 0 158.5 41t130.5 116l182 -137
q-76 -117 -201 -181.5t-274 -64.5zM276 1200l240 301h234l239 -301h-225l-131 160l-131 -160h-226z" />
    <glyph glyph-name="Cdotaccent" unicode="&#x10a;" horiz-adv-x="1542" 
d="M834 -25q-156 0 -293 55.5t-235.5 152t-155 235t-56.5 297.5q0 213 98.5 383.5t268 265t375.5 94.5q201 0 371 -93.5t268 -264.5l-224 -133q-64 120 -172.5 183.5t-242.5 63.5q-204 0 -339 -137.5t-135 -359.5t135 -360t339 -138q135 0 245.5 65.5t171.5 182.5l224 -131
q-98 -170 -268 -265.5t-375 -95.5zM670 1735q0 67 47 112t114 45t114.5 -45t47.5 -112q0 -68 -47.5 -114t-114.5 -46t-114 46t-47 114z" />
    <glyph glyph-name="cdotaccent" unicode="&#x10b;" horiz-adv-x="1155" 
d="M637 -25q-157 0 -283 69t-198 193.5t-72 280.5q0 159 73.5 286.5t201 198t282.5 70.5q141 0 261.5 -58.5t197.5 -166.5l-193 -152q-110 150 -268 150q-130 0 -216.5 -90.5t-86.5 -231.5q0 -144 88 -233.5t217 -89.5q84 0 158.5 41t130.5 116l182 -137
q-76 -117 -201 -181.5t-274 -64.5zM479 1356q0 64 44.5 106.5t109.5 42.5t109 -42.5t44 -106.5q0 -66 -44 -109t-109 -43t-109.5 43.5t-44.5 108.5z" />
    <glyph glyph-name="Ccaron" unicode="&#x10c;" horiz-adv-x="1542" 
d="M834 -25q-156 0 -293 55.5t-235.5 152t-155 235t-56.5 297.5q0 213 98.5 383.5t268 265t375.5 94.5q201 0 371 -93.5t268 -264.5l-224 -133q-64 120 -172.5 183.5t-242.5 63.5q-204 0 -339 -137.5t-135 -359.5t135 -360t339 -138q135 0 245.5 65.5t171.5 182.5l224 -131
q-98 -170 -268 -265.5t-375 -95.5zM463 1890h229l139 -172l140 172h229l-246 -319h-245z" />
    <glyph glyph-name="ccaron" unicode="&#x10d;" horiz-adv-x="1155" 
d="M637 -25q-157 0 -283 69t-198 193.5t-72 280.5q0 159 73.5 286.5t201 198t282.5 70.5q141 0 261.5 -58.5t197.5 -166.5l-193 -152q-110 150 -268 150q-130 0 -216.5 -90.5t-86.5 -231.5q0 -144 88 -233.5t217 -89.5q84 0 158.5 41t130.5 116l182 -137
q-76 -117 -201 -181.5t-274 -64.5zM276 1501h226l131 -160l131 160h225l-239 -301h-234z" />
    <glyph glyph-name="Dcaron" unicode="&#x10e;" horiz-adv-x="1466" 
d="M172 0v1434h463q161 0 296.5 -50t233 -141.5t152.5 -226.5t55 -299t-55 -299t-152.5 -226.5t-233 -141.5t-296.5 -50h-463zM285 1882h229l139 -172l140 172h229l-246 -319h-246zM430 242h193q226 0 354.5 123t128.5 352t-128.5 352t-354.5 123h-193v-950z" />
    <glyph glyph-name="dcaron" unicode="&#x10f;" horiz-adv-x="1583" 
d="M606 -25q-142 0 -261.5 70t-190 196.5t-70.5 282.5t70.5 282.5t190 196.5t261.5 70q179 0 301 -104v542h246v-1511h-246v80q-124 -105 -301 -105zM334 524q0 -145 88 -234t221 -89q75 0 144.5 31.5t119.5 91.5v401q-50 60 -119 90.5t-145 30.5q-133 0 -221 -88.5
t-88 -233.5zM1311 1366q0 62 42.5 103.5t106.5 41.5q73 0 118.5 -56.5t45.5 -149.5q-3 -190 -209 -349l-72 80q116 101 136 193q-8 -2 -25 -2q-63 0 -103 39.5t-40 99.5z" />
    <glyph glyph-name="Dcroat" unicode="&#x110;" horiz-adv-x="1497" 
d="M203 0v635h-197v201h197v598h463q161 0 296.5 -50t233 -141.5t152.5 -226.5t55 -299t-55 -299t-152.5 -226.5t-233 -141.5t-296.5 -50h-463zM461 242h192q226 0 355 123t129 352t-129 352t-355 123h-192v-356h291v-201h-291v-393z" />
    <glyph glyph-name="dcroat" unicode="&#x111;" horiz-adv-x="1302" 
d="M606 -25q-145 0 -264.5 69t-188.5 192t-69 276t69 276t188.5 192t264.5 69q181 0 301 -105v242h-315v166h315v159h246v-159h174v-166h-174v-1186h-246v80q-124 -105 -301 -105zM334 512q0 -139 87.5 -225t221.5 -86q75 0 144.5 31.5t119.5 91.5v378q-50 59 -119.5 90
t-144.5 31q-134 0 -221.5 -86t-87.5 -225z" />
    <glyph glyph-name="Emacron" unicode="&#x112;" horiz-adv-x="1298" 
d="M172 0v1434h1006v-240h-748v-332h651v-237h-651v-385h748v-240h-1006zM375 1618v197h602v-197h-602z" />
    <glyph glyph-name="emacron" unicode="&#x113;" horiz-adv-x="1253" 
d="M647 -25q-254 0 -408.5 150t-154.5 391q0 243 157.5 400t403.5 157q231 0 375.5 -141.5t144.5 -376.5q0 -45 -6 -92h-829q15 -132 100 -204.5t221 -72.5q186 0 310 150l172 -131q-83 -112 -207.5 -171t-278.5 -59zM342 647h576q-20 108 -91.5 163.5t-183.5 55.5
q-116 0 -194 -56.5t-107 -162.5zM358 1243v184h566v-184h-566z" />
    <glyph glyph-name="Ebreve" unicode="&#x114;" horiz-adv-x="1298" 
d="M172 0v1434h1006v-240h-748v-332h651v-237h-651v-385h748v-240h-1006zM358 1868v16h199q0 -155 119 -155t119 155h198v-16q0 -139 -84 -219t-233 -80t-233.5 80t-84.5 219z" />
    <glyph glyph-name="ebreve" unicode="&#x115;" horiz-adv-x="1253" 
d="M647 -25q-254 0 -408.5 150t-154.5 391q0 243 157.5 400t403.5 157q231 0 375.5 -141.5t144.5 -376.5q0 -45 -6 -92h-829q15 -132 100 -204.5t221 -72.5q186 0 310 150l172 -131q-83 -112 -207.5 -171t-278.5 -59zM342 647h576q-20 108 -91.5 163.5t-183.5 55.5
q-116 0 -194 -56.5t-107 -162.5zM342 1479v16h188q0 -145 111 -145t111 145h188v-16q0 -130 -79.5 -205.5t-219.5 -75.5t-219.5 75.5t-79.5 205.5z" />
    <glyph glyph-name="Edotaccent" unicode="&#x116;" horiz-adv-x="1298" 
d="M172 0v1434h1006v-240h-748v-332h651v-237h-651v-385h748v-240h-1006zM514 1735q0 67 47.5 112t114.5 45t114.5 -45t47.5 -112q0 -68 -47.5 -114t-114.5 -46t-114.5 46t-47.5 114z" />
    <glyph glyph-name="edotaccent" unicode="&#x117;" horiz-adv-x="1253" 
d="M647 -25q-254 0 -408.5 150t-154.5 391q0 243 157.5 400t403.5 157q231 0 375.5 -141.5t144.5 -376.5q0 -45 -6 -92h-829q15 -132 100 -204.5t221 -72.5q186 0 310 150l172 -131q-83 -112 -207.5 -171t-278.5 -59zM342 647h576q-20 108 -91.5 163.5t-183.5 55.5
q-116 0 -194 -56.5t-107 -162.5zM487 1356q0 64 44.5 106.5t109.5 42.5t109.5 -42.5t44.5 -106.5q0 -65 -44.5 -108.5t-109.5 -43.5t-109.5 43.5t-44.5 108.5z" />
    <glyph glyph-name="Eogonek" unicode="&#x118;" horiz-adv-x="1298" 
d="M172 0v1434h1006v-240h-748v-332h651v-237h-651v-385h748v-240q-87 -63 -122.5 -110.5t-35.5 -90.5q0 -73 92 -73q35 0 66 10v-197q-50 -12 -113 -12q-120 0 -191 59t-71 160q0 76 43 142.5t125 111.5h-799z" />
    <glyph glyph-name="eogonek" unicode="&#x119;" horiz-adv-x="1253" 
d="M748 -440q-114 0 -181 56t-67 151q0 125 112 208q-241 12 -384.5 160t-143.5 381q0 243 157.5 400t403.5 157q231 0 375.5 -141.5t144.5 -376.5q0 -45 -6 -92h-829q15 -132 100 -204.5t221 -72.5q186 0 310 150l172 -131q-107 -143 -279 -199q-82 -59 -115.5 -103
t-33.5 -85q0 -70 88 -70q30 0 61 8v-184q-46 -12 -106 -12zM342 647h576q-20 108 -91.5 163.5t-183.5 55.5q-116 0 -194 -56.5t-107 -162.5z" />
    <glyph glyph-name="Ecaron" unicode="&#x11a;" horiz-adv-x="1298" 
d="M172 0v1434h1006v-240h-748v-332h651v-237h-651v-385h748v-240h-1006zM307 1890h230l139 -172l139 172h229l-245 -319h-246z" />
    <glyph glyph-name="ecaron" unicode="&#x11b;" horiz-adv-x="1253" 
d="M647 -25q-254 0 -408.5 150t-154.5 391q0 243 157.5 400t403.5 157q231 0 375.5 -141.5t144.5 -376.5q0 -45 -6 -92h-829q15 -132 100 -204.5t221 -72.5q186 0 310 150l172 -131q-83 -112 -207.5 -171t-278.5 -59zM285 1501h225l131 -160l131 160h225l-239 -301h-234z
M342 647h576q-20 108 -91.5 163.5t-183.5 55.5q-116 0 -194 -56.5t-107 -162.5z" />
    <glyph glyph-name="Gcircumflex" unicode="&#x11c;" horiz-adv-x="1591" 
d="M852 -25q-219 0 -392 93.5t-269.5 261.5t-96.5 381q0 215 98.5 386.5t268.5 266t377 94.5q176 0 328.5 -72t256.5 -206l-217 -144q-64 87 -160 132.5t-210 45.5q-206 0 -341 -137.5t-135 -363.5t136.5 -360t363.5 -134q202 0 357 96v293h-336v226h579v-650
q-126 -101 -283 -155t-325 -54zM457 1571l245 319h246l246 -319h-229l-140 170l-139 -170h-229z" />
    <glyph glyph-name="gcircumflex" unicode="&#x11d;" horiz-adv-x="1300" 
d="M614 -471q-151 0 -283.5 51t-226.5 144l148 180q180 -150 358 -150q140 0 218.5 73t78.5 200v88q-120 -105 -303 -105q-142 0 -261 68.5t-189 190t-70 270.5q0 150 70 273t189 192t261 69q182 0 303 -106v82h246v-1022q0 -232 -144.5 -365t-394.5 -133zM281 1200l239 301
h234l239 -301h-225l-131 160l-131 -160h-225zM334 539q0 -135 87.5 -221.5t217.5 -86.5q75 0 146 31.5t122 91.5v371q-51 60 -122 91.5t-146 31.5q-131 0 -218 -86.5t-87 -222.5z" />
    <glyph glyph-name="Gbreve" unicode="&#x11e;" horiz-adv-x="1591" 
d="M852 -25q-219 0 -392 93.5t-269.5 261.5t-96.5 381q0 215 98.5 386.5t268.5 266t377 94.5q176 0 328.5 -72t256.5 -206l-217 -144q-64 87 -160 132.5t-210 45.5q-206 0 -341 -137.5t-135 -363.5t136.5 -360t363.5 -134q202 0 357 96v293h-336v226h579v-650
q-126 -101 -283 -155t-325 -54zM508 1868v16h199q0 -155 118 -155q119 0 119 155h199v-16q0 -139 -84.5 -219t-233.5 -80t-233 80t-84 219z" />
    <glyph glyph-name="gbreve" unicode="&#x11f;" horiz-adv-x="1300" 
d="M614 -471q-151 0 -283.5 51t-226.5 144l148 180q180 -150 358 -150q140 0 218.5 73t78.5 200v88q-120 -105 -303 -105q-142 0 -261 68.5t-189 190t-70 270.5q0 150 70 273t189 192t261 69q182 0 303 -106v82h246v-1022q0 -232 -144.5 -365t-394.5 -133zM334 539
q0 -135 87.5 -221.5t217.5 -86.5q75 0 146 31.5t122 91.5v371q-51 60 -122 91.5t-146 31.5q-131 0 -218 -86.5t-87 -222.5zM338 1479v16h188q0 -145 111 -145t111 145h188v-16q0 -130 -79.5 -205.5t-219.5 -75.5t-219.5 75.5t-79.5 205.5z" />
    <glyph glyph-name="Gdotaccent" unicode="&#x120;" horiz-adv-x="1591" 
d="M852 -25q-219 0 -392 93.5t-269.5 261.5t-96.5 381q0 215 98.5 386.5t268.5 266t377 94.5q176 0 328.5 -72t256.5 -206l-217 -144q-64 87 -160 132.5t-210 45.5q-206 0 -341 -137.5t-135 -363.5t136.5 -360t363.5 -134q202 0 357 96v293h-336v226h579v-650
q-126 -101 -283 -155t-325 -54zM664 1735q0 67 47 112t114 45t114.5 -45t47.5 -112q0 -68 -47.5 -114t-114.5 -46t-114 46t-47 114z" />
    <glyph glyph-name="gdotaccent" unicode="&#x121;" horiz-adv-x="1300" 
d="M614 -471q-151 0 -283.5 51t-226.5 144l148 180q180 -150 358 -150q140 0 218.5 73t78.5 200v88q-120 -105 -303 -105q-142 0 -261 68.5t-189 190t-70 270.5q0 150 70 273t189 192t261 69q182 0 303 -106v82h246v-1022q0 -232 -144.5 -365t-394.5 -133zM334 539
q0 -135 87.5 -221.5t217.5 -86.5q75 0 146 31.5t122 91.5v371q-51 60 -122 91.5t-146 31.5q-131 0 -218 -86.5t-87 -222.5zM483 1356q0 64 44.5 106.5t109.5 42.5t109.5 -42.5t44.5 -106.5q0 -65 -44.5 -108.5t-109.5 -43.5t-109.5 43.5t-44.5 108.5z" />
    <glyph glyph-name="uni0122" unicode="&#x122;" horiz-adv-x="1591" 
d="M852 -25q-219 0 -392 93.5t-269.5 261.5t-96.5 381q0 215 98.5 386.5t268.5 266t377 94.5q176 0 328.5 -72t256.5 -206l-217 -144q-64 87 -160 132.5t-210 45.5q-206 0 -341 -137.5t-135 -363.5t136.5 -360t363.5 -134q202 0 357 96v293h-336v226h579v-650
q-126 -101 -283 -155t-325 -54zM668 -279q0 56 41.5 96t105.5 40q74 0 120 -52.5t46 -136.5q0 -112 -74 -211h-139q54 72 63 144q-8 -2 -22 -2q-64 0 -102.5 34t-38.5 88z" />
    <glyph glyph-name="uni0123" unicode="&#x123;" horiz-adv-x="1300" 
d="M614 -471q-151 0 -283.5 51t-226.5 144l148 180q180 -150 358 -150q140 0 218.5 73t78.5 200v88q-120 -105 -303 -105q-142 0 -261 68.5t-189 190t-70 270.5q0 150 70 273t189 192t261 69q182 0 303 -106v82h246v-1022q0 -232 -144.5 -365t-394.5 -133zM334 539
q0 -135 87.5 -221.5t217.5 -86.5q75 0 146 31.5t122 91.5v371q-51 60 -122 91.5t-146 31.5q-131 0 -218 -86.5t-87 -222.5zM477 1380q0 112 74 211h139q-54 -72 -63 -143q8 2 22 2q64 0 103 -34.5t39 -88.5q0 -55 -42 -95t-106 -40q-74 0 -120 52t-46 136z" />
    <glyph glyph-name="Hcircumflex" unicode="&#x124;" horiz-adv-x="1558" 
d="M172 0v1434h258v-574h698v574h258v-1434h-258v618h-698v-618h-258zM410 1571l245 319h246l246 -319h-229l-140 170l-139 -170h-229z" />
    <glyph glyph-name="hcircumflex" unicode="&#x125;" horiz-adv-x="1257" 
d="M874 575q0 133 -59 202t-164 69q-152 0 -258 -123v-723h-246v1511h246v-550q134 112 320 112q185 0 296 -117.5t111 -326.5v-629h-246v575zM-98 1649l245 319h246l246 -319h-229l-140 170l-139 -170h-229z" />
    <glyph glyph-name="Hbar" unicode="&#x126;" horiz-adv-x="1605" 
d="M195 0v1042h-123v185h123v207h258v-207h698v207h258v-207h125v-185h-125v-1042h-258v618h-698v-618h-258zM453 860h698v182h-698v-182z" />
    <glyph glyph-name="hbar" unicode="&#x127;" horiz-adv-x="1257" 
d="M874 551q0 134 -59 203t-164 69q-150 0 -258 -125v-698h-246v1186h-174v166h174v159h246v-159h316v-166h-316v-250q131 113 320 113q185 0 296 -117.5t111 -327.5v-604h-246v551z" />
    <glyph glyph-name="Itilde" unicode="&#x128;" horiz-adv-x="602" 
d="M172 0v1434h258v-1434h-258zM-70 1655q15 109 76 168t146 59q33 0 68 -11.5t52.5 -21t51.5 -30.5q60 -43 100 -43q53 0 70 86l174 -52q-14 -109 -75 -168t-144 -59q-77 0 -173 66q-65 43 -100 43q-55 0 -72 -86z" />
    <glyph glyph-name="itilde" unicode="&#x129;" horiz-adv-x="540" 
d="M147 0v1049h246v-1049h-246zM-55 1270q13 101 65.5 158t124.5 57q60 0 154 -60q49 -39 86 -39q50 0 67 82l154 -45q-13 -100 -65.5 -157.5t-124.5 -57.5q-67 0 -154 62q-56 37 -86 37q-51 0 -68 -82z" />
    <glyph glyph-name="Imacron" unicode="&#x12a;" horiz-adv-x="602" 
d="M172 0v1434h258v-1434h-258zM0 1618v197h602v-197h-602z" />
    <glyph glyph-name="imacron" unicode="&#x12b;" horiz-adv-x="540" 
d="M147 0v1049h246v-1049h-246zM6 1245v185h529v-185h-529z" />
    <glyph glyph-name="Ibreve" unicode="&#x12c;" horiz-adv-x="602" 
d="M172 0v1434h258v-1434h-258zM-16 1868v16h198q0 -155 119 -155t119 155h198v-16q0 -139 -84 -219t-233 -80t-233 80t-84 219z" />
    <glyph glyph-name="ibreve" unicode="&#x12d;" horiz-adv-x="540" 
d="M147 0v1049h246v-1049h-246zM-8 1479v16h174q0 -73 27.5 -109t76.5 -36t77 36t28 109h174v-16q0 -131 -72.5 -206t-206.5 -75t-206 75t-72 206z" />
    <glyph glyph-name="Iogonek" unicode="&#x12e;" horiz-adv-x="602" 
d="M172 0v1434h258v-1434q-72 -64 -99.5 -107t-27.5 -83q0 -72 72 -72q22 0 55 10v-184q-50 -13 -98 -13q-106 0 -169 54.5t-63 146.5q0 73 41 139.5t115 108.5h-84z" />
    <glyph glyph-name="iogonek" unicode="&#x12f;" horiz-adv-x="540" 
d="M147 0v1049h246v-1049q-72 -64 -99.5 -107t-27.5 -83q0 -72 72 -72q22 0 55 10v-184q-50 -13 -98 -13q-106 0 -169 54.5t-63 146.5q0 73 41 139.5t115 108.5h-72zM117 1356q0 64 44 106.5t109 42.5t109.5 -42.5t44.5 -106.5q0 -65 -44.5 -108.5t-109.5 -43.5t-109 43
t-44 109z" />
    <glyph glyph-name="Idotaccent" unicode="&#x130;" horiz-adv-x="602" 
d="M172 0v1434h258v-1434h-258zM139 1735q0 67 47.5 112t114.5 45t114.5 -45t47.5 -112q0 -68 -47.5 -114t-114.5 -46t-114.5 46t-47.5 114z" />
    <glyph glyph-name="dotlessi" unicode="&#x131;" horiz-adv-x="540" 
d="M147 0v1049h246v-1049h-246z" />
    <glyph glyph-name="Jcircumflex" unicode="&#x134;" horiz-adv-x="1187" 
d="M518 -25q-253 0 -465 146l127 217q187 -117 332 -117q125 0 193.5 72.5t68.5 216.5v924h258v-945q0 -251 -135 -382.5t-379 -131.5zM535 1571l245 319h246l246 -319h-230l-139 170l-139 -170h-229z" />
    <glyph glyph-name="jcircumflex" unicode="&#x135;" horiz-adv-x="540" 
d="M37 -471q-111 0 -199 35l35 219q67 -21 121 -21q76 0 114.5 45.5t38.5 145.5v1096h246v-1123q0 -397 -356 -397zM-49 1200l219 301h201l219 -301h-211l-109 150l-108 -150h-211z" />
    <glyph glyph-name="uni0136" unicode="&#x136;" horiz-adv-x="1478" 
d="M172 0v1434h258v-705l674 705h321l-616 -650l647 -784h-328l-497 598l-201 -213v-385h-258zM590 -279q0 56 41.5 96t105.5 40q74 0 120 -52.5t46 -136.5q0 -112 -74 -211h-139q55 73 64 144q-8 -2 -23 -2q-64 0 -102.5 34t-38.5 88z" />
    <glyph glyph-name="uni0137" unicode="&#x137;" horiz-adv-x="1232" 
d="M147 0v1511h246v-925l484 463h313l-463 -453l492 -596h-310l-354 428l-162 -156v-272h-246zM463 -279q0 56 41.5 96t105.5 40q74 0 120 -52.5t46 -136.5q0 -112 -74 -211h-139q55 73 64 144q-8 -2 -23 -2q-64 0 -102.5 34t-38.5 88z" />
    <glyph glyph-name="Lacute" unicode="&#x139;" horiz-adv-x="1189" 
d="M172 0v1434h258v-1192h688v-242h-946zM141 1571l158 319h303l-227 -319h-234z" />
    <glyph glyph-name="lacute" unicode="&#x13a;" horiz-adv-x="540" 
d="M147 0v1511h246v-1511h-246zM111 1649l157 319h303l-227 -319h-233z" />
    <glyph glyph-name="uni013B" unicode="&#x13b;" horiz-adv-x="1189" 
d="M172 0v1434h258v-1192h688v-242h-946zM489 -279q0 56 42 96t106 40q74 0 120 -52.5t46 -136.5q0 -112 -74 -211h-139q54 72 63 144q-8 -2 -22 -2q-64 0 -103 34t-39 88z" />
    <glyph glyph-name="uni013C" unicode="&#x13c;" horiz-adv-x="540" 
d="M147 0v1511h246v-1511h-246zM117 -279q0 56 41.5 96t105.5 40q74 0 120 -52.5t46 -136.5q0 -112 -74 -211h-139q55 73 64 144q-8 -2 -23 -2q-64 0 -102.5 34t-38.5 88z" />
    <glyph glyph-name="Lcaron" unicode="&#x13d;" horiz-adv-x="1189" 
d="M172 0v1434h258v-1192h688v-242h-946zM637 1313q0 62 42.5 103.5t106.5 41.5q73 0 118.5 -57t45.5 -150q-3 -189 -209 -348l-71 80q114 100 135 193q-8 -2 -25 -2q-63 0 -103 39.5t-40 99.5z" />
    <glyph glyph-name="lcaron" unicode="&#x13e;" horiz-adv-x="827" 
d="M147 0v1511h246v-1511h-246zM555 1366q0 62 43 103.5t107 41.5q73 0 118 -56.5t45 -149.5q-3 -190 -209 -349l-71 80q114 100 135 193q-8 -2 -25 -2q-63 0 -103 39.5t-40 99.5z" />
    <glyph glyph-name="Ldot" unicode="&#x13f;" horiz-adv-x="1210" 
d="M172 0v1434h258v-1192h688v-242h-946zM625 727q0 69 45.5 114.5t113.5 45.5q69 0 115.5 -45.5t46.5 -114.5q0 -70 -46.5 -116t-115.5 -46q-68 0 -113.5 46t-45.5 116z" />
    <glyph glyph-name="ldot" unicode="&#x140;" horiz-adv-x="905" 
d="M147 0v1511h246v-1511h-246zM551 563q0 72 48 120t120 48t120 -48t48 -120q0 -73 -48 -120.5t-120 -47.5t-120 47.5t-48 120.5z" />
    <glyph glyph-name="Lslash" unicode="&#x141;" horiz-adv-x="1241" 
d="M223 0v469l-211 -154v250l211 154v715h258v-529l363 264v-249l-363 -265v-413h688v-242h-946z" />
    <glyph glyph-name="lslash" unicode="&#x142;" horiz-adv-x="704" 
d="M229 0v532l-204 -149v231l204 148v749h246v-571l205 147v-229l-205 -147v-711h-246z" />
    <glyph glyph-name="Nacute" unicode="&#x143;" horiz-adv-x="1581" 
d="M172 0v1434h264l715 -1010v1010h258v-1434h-264l-715 1012v-1012h-258zM631 1571l157 319h304l-228 -319h-233z" />
    <glyph glyph-name="nacute" unicode="&#x144;" horiz-adv-x="1257" 
d="M874 575q0 133 -59 202t-164 69q-152 0 -258 -123v-723h-246v1049h246v-88q134 112 320 112q185 0 296 -117.5t111 -326.5v-629h-246v575zM479 1200l150 301h286l-215 -301h-221z" />
    <glyph glyph-name="uni0145" unicode="&#x145;" horiz-adv-x="1581" 
d="M172 0v1434h264l715 -1010v1010h258v-1434h-264l-715 1012v-1012h-258zM637 -279q0 56 41.5 96t105.5 40q74 0 120 -52.5t46 -136.5q0 -114 -73 -211h-140q55 73 64 144q-8 -2 -23 -2q-64 0 -102.5 34t-38.5 88z" />
    <glyph glyph-name="uni0146" unicode="&#x146;" horiz-adv-x="1257" 
d="M874 575q0 133 -59 202t-164 69q-152 0 -258 -123v-723h-246v1049h246v-88q134 112 320 112q185 0 296 -117.5t111 -326.5v-629h-246v575zM479 -279q0 56 42 96t106 40q74 0 120 -52.5t46 -136.5q0 -112 -74 -211h-139q54 72 63 144q-8 -2 -22 -2q-64 0 -103 34t-39 88z
" />
    <glyph glyph-name="Ncaron" unicode="&#x147;" horiz-adv-x="1581" 
d="M172 0v1434h264l715 -1010v1010h258v-1434h-264l-715 1012v-1012h-258zM422 1890h229l140 -172l139 172h229l-246 -319h-245z" />
    <glyph glyph-name="ncaron" unicode="&#x148;" horiz-adv-x="1257" 
d="M874 575q0 133 -59 202t-164 69q-152 0 -258 -123v-723h-246v1049h246v-88q134 112 320 112q185 0 296 -117.5t111 -326.5v-629h-246v575zM270 1501h226l131 -160l131 160h225l-240 -301h-233z" />
    <glyph glyph-name="Eng" unicode="&#x14a;" horiz-adv-x="1579" 
d="M1051 -387q-109 0 -197 35l35 225q75 -20 121 -20q66 0 103 36t40 105l-723 1020v-1014h-258v1434h264l713 -1004v1004h260v-1411q0 -211 -90.5 -310.5t-267.5 -99.5z" />
    <glyph glyph-name="eng" unicode="&#x14b;" horiz-adv-x="1257" 
d="M764 -369q-111 0 -199 35l35 219q71 -22 121 -22q76 0 114.5 46t38.5 146v520q0 133 -59 202t-164 69q-152 0 -258 -123v-723h-246v1049h246v-88q134 112 320 112q185 0 296 -117.5t111 -326.5v-600q0 -398 -356 -398z" />
    <glyph glyph-name="Omacron" unicode="&#x14c;" horiz-adv-x="1665" 
d="M834 -25q-205 0 -374 94.5t-267.5 265t-98.5 382.5q0 159 57.5 297.5t157 235.5t236 152.5t289.5 55.5t289 -55.5t234.5 -152.5t156 -235.5t57.5 -297.5q0 -212 -98 -382.5t-266.5 -265t-372.5 -94.5zM360 717q0 -222 135 -360t339 -138q203 0 337 138t134 360
t-134 359.5t-337 137.5q-204 0 -339 -137.5t-135 -359.5zM532 1618v197h603v-197h-603z" />
    <glyph glyph-name="omacron" unicode="&#x14d;" horiz-adv-x="1280" 
d="M641 -25q-239 0 -398 156.5t-159 392.5q0 237 158.5 393t398.5 156t397.5 -156t157.5 -393q0 -236 -158 -392.5t-397 -156.5zM334 524q0 -142 86.5 -232.5t220.5 -90.5q133 0 219 90.5t86 232.5t-86 232t-219 90q-134 0 -220.5 -90t-86.5 -232zM358 1243v184h566v-184
h-566z" />
    <glyph glyph-name="Obreve" unicode="&#x14e;" horiz-adv-x="1665" 
d="M834 -25q-205 0 -374 94.5t-267.5 265t-98.5 382.5q0 159 57.5 297.5t157 235.5t236 152.5t289.5 55.5t289 -55.5t234.5 -152.5t156 -235.5t57.5 -297.5q0 -212 -98 -382.5t-266.5 -265t-372.5 -94.5zM360 717q0 -222 135 -360t339 -138q203 0 337 138t134 360
t-134 359.5t-337 137.5q-204 0 -339 -137.5t-135 -359.5zM516 1868v16h199q0 -155 119 -155q118 0 118 155h199v-16q0 -139 -84 -219t-233 -80t-233.5 80t-84.5 219z" />
    <glyph glyph-name="obreve" unicode="&#x14f;" horiz-adv-x="1280" 
d="M641 -25q-239 0 -398 156.5t-159 392.5q0 237 158.5 393t398.5 156t397.5 -156t157.5 -393q0 -236 -158 -392.5t-397 -156.5zM334 524q0 -142 86.5 -232.5t220.5 -90.5q133 0 219 90.5t86 232.5t-86 232t-219 90q-134 0 -220.5 -90t-86.5 -232zM342 1479v16h188
q0 -145 111 -145t111 145h188v-16q0 -130 -79.5 -205.5t-219.5 -75.5t-219.5 75.5t-79.5 205.5z" />
    <glyph glyph-name="Ohungarumlaut" unicode="&#x150;" horiz-adv-x="1665" 
d="M834 -25q-205 0 -374 94.5t-267.5 265t-98.5 382.5q0 159 57.5 297.5t157 235.5t236 152.5t289.5 55.5t289 -55.5t234.5 -152.5t156 -235.5t57.5 -297.5q0 -212 -98 -382.5t-266.5 -265t-372.5 -94.5zM360 717q0 -222 135 -360t339 -138q203 0 337 138t134 360
t-134 359.5t-337 137.5q-204 0 -339 -137.5t-135 -359.5zM485 1571l138 319h256l-191 -319h-203zM868 1571l140 319h254l-189 -319h-205z" />
    <glyph glyph-name="ohungarumlaut" unicode="&#x151;" horiz-adv-x="1280" 
d="M641 -25q-239 0 -398 156.5t-159 392.5q0 237 158.5 393t398.5 156t397.5 -156t157.5 -393q0 -236 -158 -392.5t-397 -156.5zM315 1200l129 301h240l-178 -301h-191zM334 524q0 -142 86.5 -232.5t220.5 -90.5q133 0 219 90.5t86 232.5t-86 232t-219 90q-134 0 -220.5 -90
t-86.5 -232zM676 1200l131 301h240l-179 -301h-192z" />
    <glyph glyph-name="OE" unicode="&#x152;" horiz-adv-x="2152" 
d="M829 0q-160 0 -295.5 50t-232.5 141.5t-152 226.5t-55 299q0 218 94 381.5t260 249.5t381 86h1205v-240h-750v-332h653v-237h-653v-385h750v-240h-1205zM360 717q0 -229 128 -352t354 -123h184v950h-184q-226 0 -354 -123t-128 -352z" />
    <glyph glyph-name="oe" unicode="&#x153;" horiz-adv-x="2113" 
d="M641 201q133 0 219 90.5t86 232.5t-86 232t-219 90q-134 0 -220.5 -90t-86.5 -232t86.5 -232.5t220.5 -90.5zM84 524q0 237 158.5 393t398.5 156q132 0 243.5 -51t184.5 -143q76 93 188.5 143.5t249.5 50.5q230 0 375.5 -141.5t145.5 -376.5q0 -45 -9 -92h-827
q15 -132 99.5 -204.5t219.5 -72.5q189 0 310 150l172 -131q-83 -113 -206.5 -171.5t-277.5 -58.5q-142 0 -256.5 50t-189.5 141q-73 -90 -182.5 -140.5t-239.5 -50.5q-239 0 -398 156.5t-159 392.5zM1204 647h576q-20 108 -91.5 163.5t-183.5 55.5q-116 0 -194.5 -57
t-106.5 -162z" />
    <glyph glyph-name="Racute" unicode="&#x154;" horiz-adv-x="1415" 
d="M172 0v1434h596q232 0 368 -122t136 -331q0 -169 -92.5 -283t-257.5 -151l413 -547h-313l-391 530h-201v-530h-258zM430 770h313q132 0 197.5 54t65.5 157q0 211 -263 211h-313v-422zM532 1571l158 319h303l-227 -319h-234z" />
    <glyph glyph-name="racute" unicode="&#x155;" horiz-adv-x="829" 
d="M147 0v1049h246v-113q50 65 127.5 101t163.5 36q54 0 109 -14l-15 -228q-64 11 -96 11q-90 0 -165 -40.5t-124 -119.5v-682h-246zM313 1200l150 301h287l-215 -301h-222z" />
    <glyph glyph-name="uni0156" unicode="&#x156;" horiz-adv-x="1415" 
d="M172 0v1434h596q232 0 368 -122t136 -331q0 -169 -92.5 -283t-257.5 -151l413 -547h-313l-391 530h-201v-530h-258zM430 770h313q132 0 197.5 54t65.5 157q0 211 -263 211h-313v-422zM551 -279q0 56 41.5 96t105.5 40q74 0 120 -52.5t46 -136.5q0 -114 -73 -211h-140
q55 73 64 144q-8 -2 -23 -2q-64 0 -102.5 34t-38.5 88z" />
    <glyph glyph-name="uni0157" unicode="&#x157;" horiz-adv-x="829" 
d="M147 0v1049h246v-113q50 65 127.5 101t163.5 36q54 0 109 -14l-15 -228q-64 11 -96 11q-90 0 -165 -40.5t-124 -119.5v-682h-246zM117 -279q0 56 41.5 96t105.5 40q74 0 120 -52.5t46 -136.5q0 -112 -74 -211h-139q55 73 64 144q-8 -2 -23 -2q-64 0 -102.5 34t-38.5 88z
" />
    <glyph glyph-name="Rcaron" unicode="&#x158;" horiz-adv-x="1415" 
d="M172 0v1434h596q232 0 368 -122t136 -331q0 -169 -92.5 -283t-257.5 -151l413 -547h-313l-391 530h-201v-530h-258zM324 1890h229l139 -172l139 172h230l-246 -319h-246zM430 770h313q132 0 197.5 54t65.5 157q0 211 -263 211h-313v-422z" />
    <glyph glyph-name="rcaron" unicode="&#x159;" horiz-adv-x="829" 
d="M147 0v1049h246v-113q50 65 127.5 101t163.5 36q54 0 109 -14l-15 -228q-64 11 -96 11q-90 0 -165 -40.5t-124 -119.5v-682h-246zM141 1501h211l109 -149l108 149h211l-219 -301h-201z" />
    <glyph glyph-name="Sacute" unicode="&#x15a;" horiz-adv-x="1236" 
d="M629 -25q-159 0 -305.5 49.5t-260.5 141.5l150 203q210 -158 424 -158q128 0 200 54t72 141q0 68 -50.5 113.5t-164.5 72.5l-252 59q-171 41 -261.5 138t-90.5 239q0 189 144.5 309.5t381.5 120.5q151 0 288 -52t237 -149l-168 -180q-161 148 -361 148q-124 0 -193 -51
t-69 -130q0 -64 50 -106t169 -70l252 -59q350 -86 350 -385q0 -203 -145 -326t-397 -123zM463 1571l158 319h303l-228 -319h-233z" />
    <glyph glyph-name="sacute" unicode="&#x15b;" horiz-adv-x="1048" 
d="M541 -25q-134 0 -257.5 41.5t-207.5 112.5l127 184q165 -127 346 -127q85 0 132.5 31t47.5 82q0 39 -33 66t-112 45l-183 43q-156 36 -226.5 105.5t-70.5 180.5q0 151 113.5 242.5t306.5 91.5q128 0 242 -40.5t192 -112.5l-133 -175q-147 117 -311 117
q-81 0 -124.5 -28.5t-43.5 -77.5q0 -36 32 -59.5t114 -43.5l182 -43q157 -36 228 -108t71 -187q0 -156 -114.5 -248t-317.5 -92zM377 1198l149 301h287l-215 -301h-221z" />
    <glyph glyph-name="Scircumflex" unicode="&#x15c;" horiz-adv-x="1236" 
d="M629 -25q-159 0 -305.5 49.5t-260.5 141.5l150 203q210 -158 424 -158q128 0 200 54t72 141q0 68 -50.5 113.5t-164.5 72.5l-252 59q-171 41 -261.5 138t-90.5 239q0 189 144.5 309.5t381.5 120.5q151 0 288 -52t237 -149l-168 -180q-161 148 -361 148q-124 0 -193 -51
t-69 -130q0 -64 50 -106t169 -70l252 -59q350 -86 350 -385q0 -203 -145 -326t-397 -123zM254 1571l246 319h245l246 -319h-229l-139 170l-140 -170h-229z" />
    <glyph glyph-name="scircumflex" unicode="&#x15d;" horiz-adv-x="1048" 
d="M541 -25q-134 0 -257.5 41.5t-207.5 112.5l127 184q165 -127 346 -127q85 0 132.5 31t47.5 82q0 39 -33 66t-112 45l-183 43q-156 36 -226.5 105.5t-70.5 180.5q0 151 113.5 242.5t306.5 91.5q128 0 242 -40.5t192 -112.5l-133 -175q-147 117 -311 117
q-81 0 -124.5 -28.5t-43.5 -77.5q0 -36 32 -59.5t114 -43.5l182 -43q157 -36 228 -108t71 -187q0 -156 -114.5 -248t-317.5 -92zM168 1198l240 301h233l240 -301h-226l-131 160l-131 -160h-225z" />
    <glyph glyph-name="Scedilla" unicode="&#x15e;" horiz-adv-x="1236" 
d="M332 -375l194 357q-268 28 -463 184l150 203q210 -158 424 -158q128 0 200 54t72 141q0 68 -50.5 113.5t-164.5 72.5l-252 59q-171 41 -261.5 138t-90.5 239q0 189 144.5 309.5t381.5 120.5q151 0 288 -52t237 -149l-168 -180q-161 148 -361 148q-124 0 -193 -51
t-69 -130q0 -64 50 -106t169 -70l252 -59q350 -86 350 -385q0 -178 -113 -295t-313 -145l-133 -359h-280z" />
    <glyph glyph-name="scedilla" unicode="&#x15f;" horiz-adv-x="1048" 
d="M266 -336l172 318q-221 28 -362 147l127 184q165 -127 346 -127q85 0 132.5 31t47.5 82q0 39 -33 66t-112 45l-183 43q-156 36 -226.5 105.5t-70.5 180.5q0 151 113.5 242.5t306.5 91.5q128 0 242 -40.5t192 -112.5l-133 -175q-147 117 -311 117q-81 0 -124.5 -28.5
t-43.5 -77.5q0 -36 32 -59.5t114 -43.5l182 -43q157 -36 228 -108t71 -187q0 -134 -86.5 -222t-243.5 -111l-119 -318h-258z" />
    <glyph glyph-name="Scaron" unicode="&#x160;" horiz-adv-x="1236" 
d="M629 -25q-159 0 -305.5 49.5t-260.5 141.5l150 203q210 -158 424 -158q128 0 200 54t72 141q0 68 -50.5 113.5t-164.5 72.5l-252 59q-171 41 -261.5 138t-90.5 239q0 189 144.5 309.5t381.5 120.5q151 0 288 -52t237 -149l-168 -180q-161 148 -361 148q-124 0 -193 -51
t-69 -130q0 -64 50 -106t169 -70l252 -59q350 -86 350 -385q0 -203 -145 -326t-397 -123zM254 1890h229l140 -172l139 172h229l-246 -319h-245z" />
    <glyph glyph-name="scaron" unicode="&#x161;" horiz-adv-x="1048" 
d="M541 -25q-134 0 -257.5 41.5t-207.5 112.5l127 184q165 -127 346 -127q85 0 132.5 31t47.5 82q0 39 -33 66t-112 45l-183 43q-156 36 -226.5 105.5t-70.5 180.5q0 151 113.5 242.5t306.5 91.5q128 0 242 -40.5t192 -112.5l-133 -175q-147 117 -311 117
q-81 0 -124.5 -28.5t-43.5 -77.5q0 -36 32 -59.5t114 -43.5l182 -43q157 -36 228 -108t71 -187q0 -156 -114.5 -248t-317.5 -92zM168 1499h225l131 -160l131 160h226l-240 -301h-233z" />
    <glyph glyph-name="uni0162" unicode="&#x162;" horiz-adv-x="1259" 
d="M500 0v1192h-455v242h1169v-242h-454v-1192h-260zM475 -279q0 56 42 96t106 40q74 0 119.5 -52t45.5 -137q0 -114 -73 -211h-140q55 73 64 144q-8 -2 -23 -2q-64 0 -102.5 34t-38.5 88z" />
    <glyph glyph-name="uni0163" unicode="&#x163;" horiz-adv-x="907" 
d="M618 -20q-190 0 -284 99t-94 308v447h-215v215h215v249h245v-249h334v-215h-334v-418q0 -109 44 -160t135 -51q70 0 159 28l35 -206q-103 -47 -240 -47zM365 -279q0 56 41.5 96t105.5 40q74 0 120 -52.5t46 -136.5q0 -112 -74 -211h-139q54 72 63 144q-8 -2 -22 -2
q-64 0 -102.5 34t-38.5 88z" />
    <glyph glyph-name="Tcaron" unicode="&#x164;" horiz-adv-x="1259" 
d="M500 0v1192h-455v242h1169v-242h-454v-1192h-260zM262 1890h230l139 -172l139 172h229l-245 -319h-246z" />
    <glyph glyph-name="tcaron" unicode="&#x165;" horiz-adv-x="907" 
d="M618 -20q-190 0 -284 99t-94 308v447h-215v215h215v249h245v-249h334v-215h-334v-418q0 -109 44 -160t135 -51q70 0 159 28l35 -206q-103 -47 -240 -47zM573 1507q0 51 38.5 87t97.5 36q66 0 107.5 -47t41.5 -123q0 -105 -67 -192h-125q48 66 57 131q-6 -2 -21 -2
q-58 0 -93.5 31t-35.5 79z" />
    <glyph glyph-name="Tbar" unicode="&#x166;" horiz-adv-x="1259" 
d="M500 0v612h-242v201h242v379h-455v242h1169v-242h-454v-379h244v-201h-244v-612h-260z" />
    <glyph glyph-name="tbar" unicode="&#x167;" horiz-adv-x="931" 
d="M47 469v158h205v207h-215v215h215v249h246v-249h333v-215h-333v-207h303v-158h-303v-53q0 -110 43.5 -160.5t134.5 -50.5q71 0 160 28l34 -206q-103 -47 -239 -47q-190 0 -284.5 99.5t-94.5 307.5v82h-205z" />
    <glyph glyph-name="Utilde" unicode="&#x168;" horiz-adv-x="1509" 
d="M756 -25q-282 0 -441 156t-159 442v861h258v-834q0 -190 89 -285.5t253 -95.5t252 95.5t88 285.5v834h260v-861q0 -286 -159.5 -442t-440.5 -156zM385 1655q15 109 75.5 168t145.5 59q33 0 68 -11.5t52.5 -21t51.5 -30.5q60 -43 101 -43q52 0 69 86l174 -52
q-14 -109 -75 -168t-144 -59q-76 0 -172 66q-65 43 -100 43q-55 0 -72 -86z" />
    <glyph glyph-name="utilde" unicode="&#x169;" horiz-adv-x="1251" 
d="M537 -25q-184 0 -292 115t-108 320v639h246v-586q0 -129 56 -195.5t161 -66.5q151 0 258 127v721h246v-1049h-246v88q-131 -113 -321 -113zM274 1280q13 99 70.5 156t134.5 57q75 0 162 -59q59 -41 94 -41q49 0 66 82l164 -48q-15 -100 -71.5 -157.5t-133.5 -57.5
q-32 0 -65.5 11t-50 20.5t-48.5 30.5q-64 39 -92 39q-52 0 -66 -80z" />
    <glyph glyph-name="Umacron" unicode="&#x16a;" horiz-adv-x="1509" 
d="M756 -25q-282 0 -441 156t-159 442v861h258v-834q0 -190 89 -285.5t253 -95.5t252 95.5t88 285.5v834h260v-861q0 -286 -159.5 -442t-440.5 -156zM455 1618v197h602v-197h-602z" />
    <glyph glyph-name="umacron" unicode="&#x16b;" horiz-adv-x="1251" 
d="M537 -25q-184 0 -292 115t-108 320v639h246v-586q0 -129 56 -195.5t161 -66.5q151 0 258 127v721h246v-1049h-246v88q-131 -113 -321 -113zM338 1243v184h565v-184h-565z" />
    <glyph glyph-name="Ubreve" unicode="&#x16c;" horiz-adv-x="1509" 
d="M756 -25q-282 0 -441 156t-159 442v861h258v-834q0 -190 89 -285.5t253 -95.5t252 95.5t88 285.5v834h260v-861q0 -286 -159.5 -442t-440.5 -156zM438 1868v16h199q0 -155 119 -155q118 0 118 155h199v-16q0 -139 -84 -219t-233 -80t-233.5 80t-84.5 219z" />
    <glyph glyph-name="ubreve" unicode="&#x16d;" horiz-adv-x="1251" 
d="M537 -25q-184 0 -292 115t-108 320v639h246v-586q0 -129 56 -195.5t161 -66.5q151 0 258 127v721h246v-1049h-246v88q-131 -113 -321 -113zM322 1479v16h188q0 -145 111 -145q110 0 110 145h189v-16q0 -130 -79.5 -205.5t-219.5 -75.5t-219.5 75.5t-79.5 205.5z" />
    <glyph glyph-name="Uring" unicode="&#x16e;" horiz-adv-x="1509" 
d="M756 -25q-282 0 -441 156t-159 442v861h258v-834q0 -190 89 -285.5t253 -95.5t252 95.5t88 285.5v834h260v-861q0 -286 -159.5 -442t-440.5 -156zM520 1720q0 94 67.5 158t168.5 64t168 -64t67 -158t-67 -156.5t-168 -62.5t-168.5 62.5t-67.5 156.5zM668 1720
q0 -37 24.5 -61.5t63.5 -24.5t63.5 24.5t24.5 61.5t-24.5 62.5t-63.5 25.5t-63.5 -25.5t-24.5 -62.5z" />
    <glyph glyph-name="uring" unicode="&#x16f;" horiz-adv-x="1251" 
d="M537 -25q-184 0 -292 115t-108 320v639h246v-586q0 -129 56 -195.5t161 -66.5q151 0 258 127v721h246v-1049h-246v88q-131 -113 -321 -113zM387 1397q0 92 67 154.5t167 62.5t166.5 -62.5t66.5 -154.5q0 -94 -66.5 -156.5t-166.5 -62.5t-167 62.5t-67 156.5zM537 1397
q0 -37 23 -60.5t61 -23.5t61 23.5t23 60.5t-23 60.5t-61 23.5t-61 -23.5t-23 -60.5z" />
    <glyph glyph-name="Uhungarumlaut" unicode="&#x170;" horiz-adv-x="1509" 
d="M756 -25q-282 0 -441 156t-159 442v861h258v-834q0 -190 89 -285.5t253 -95.5t252 95.5t88 285.5v834h260v-861q0 -286 -159.5 -442t-440.5 -156zM408 1571l137 319h256l-191 -319h-202zM791 1571l139 319h254l-189 -319h-204z" />
    <glyph glyph-name="uhungarumlaut" unicode="&#x171;" horiz-adv-x="1251" 
d="M537 -25q-184 0 -292 115t-108 320v639h246v-586q0 -129 56 -195.5t161 -66.5q151 0 258 127v721h246v-1049h-246v88q-131 -113 -321 -113zM295 1200l129 301h240l-179 -301h-190zM655 1200l131 301h240l-178 -301h-193z" />
    <glyph glyph-name="Uogonek" unicode="&#x172;" horiz-adv-x="1509" 
d="M856 -469q-120 0 -191 59t-71 160q0 134 123 225q-265 11 -413 166.5t-148 431.5v861h258v-834q0 -190 89 -285.5t253 -95.5t252 95.5t88 285.5v834h260v-861q0 -226 -102 -372.5t-287 -198.5q-86 -62 -121 -109t-35 -90q0 -73 92 -73q35 0 66 10v-197q-50 -12 -113 -12z
" />
    <glyph glyph-name="uogonek" unicode="&#x173;" horiz-adv-x="1251" 
d="M537 -25q-184 0 -292 115t-108 320v639h246v-586q0 -129 56 -195.5t161 -66.5q151 0 258 127v721h246v-1049q-82 -59 -116 -103t-34 -85q0 -70 88 -70q31 0 62 8v-184q-46 -12 -107 -12q-114 0 -180.5 55.5t-66.5 150.5q0 72 40 135t117 105h-49v88q-131 -113 -321 -113z
" />
    <glyph glyph-name="Wcircumflex" unicode="&#x174;" horiz-adv-x="2177" 
d="M481 0l-434 1434h268l312 -1031l344 1031h235l344 -1031l312 1031h270l-436 -1434h-258l-348 1061l-351 -1061h-258zM721 1571l246 319h245l246 -319h-229l-139 170l-140 -170h-229z" />
    <glyph glyph-name="wcircumflex" unicode="&#x175;" horiz-adv-x="1806" 
d="M385 0l-352 1049h260l233 -721l260 721h232l260 -717l233 717h263l-355 -1049h-252l-264 733l-264 -733h-254zM547 1200l239 301h234l240 -301h-226l-131 160l-131 -160h-225z" />
    <glyph glyph-name="Ycircumflex" unicode="&#x176;" horiz-adv-x="1333" 
d="M537 0v563l-529 871h291l369 -613l366 613h291l-528 -871v-563h-260zM299 1571l246 319h246l245 -319h-229l-139 170l-140 -170h-229z" />
    <glyph glyph-name="ycircumflex" unicode="&#x177;" horiz-adv-x="1185" 
d="M287 -446l192 466l-461 1029h281l307 -719l295 719h266l-616 -1495h-264zM242 1200l239 301h234l239 -301h-225l-131 160l-131 -160h-225z" />
    <glyph glyph-name="Ydieresis" unicode="&#x178;" horiz-adv-x="1333" 
d="M537 0v563l-529 871h291l369 -613l366 613h291l-528 -871v-563h-260zM287 1735q0 67 45 111t110 44q64 0 109 -44t45 -111t-45 -111.5t-109 -44.5q-65 0 -110 44.5t-45 111.5zM739 1735q0 67 45 111t109 44q65 0 110.5 -44t45.5 -111t-45.5 -111.5t-110.5 -44.5
q-64 0 -109 44.5t-45 111.5z" />
    <glyph glyph-name="Zacute" unicode="&#x179;" horiz-adv-x="1257" 
d="M100 0v199l713 993h-700v242h1030v-199l-713 -993h727v-242h-1057zM469 1571l158 319h303l-228 -319h-233z" />
    <glyph glyph-name="zacute" unicode="&#x17a;" horiz-adv-x="1042" 
d="M82 0v174l534 657h-526v218h862v-175l-534 -657h543v-217h-879zM375 1200l149 301h287l-215 -301h-221z" />
    <glyph glyph-name="Zdotaccent" unicode="&#x17b;" horiz-adv-x="1257" 
d="M100 0v199l713 993h-700v242h1030v-199l-713 -993h727v-242h-1057zM467 1735q0 67 47.5 112t114.5 45t114.5 -45t47.5 -112q0 -68 -47.5 -114t-114.5 -46t-114.5 46t-47.5 114z" />
    <glyph glyph-name="zdotaccent" unicode="&#x17c;" horiz-adv-x="1042" 
d="M82 0v174l534 657h-526v218h862v-175l-534 -657h543v-217h-879zM369 1356q0 64 44 106.5t109 42.5t109.5 -42.5t44.5 -106.5q0 -65 -44.5 -108.5t-109.5 -43.5t-109 43t-44 109z" />
    <glyph glyph-name="Zcaron" unicode="&#x17d;" horiz-adv-x="1257" 
d="M100 0v199l713 993h-700v242h1030v-199l-713 -993h727v-242h-1057zM260 1890h229l140 -172l139 172h229l-245 -319h-246z" />
    <glyph glyph-name="zcaron" unicode="&#x17e;" horiz-adv-x="1042" 
d="M82 0v174l534 657h-526v218h862v-175l-534 -657h543v-217h-879zM166 1501h225l131 -160l131 160h226l-240 -301h-233z" />
    <glyph glyph-name="florin" unicode="&#x192;" horiz-adv-x="980" 
d="M180 -25q-68 0 -123 17v213q37 -6 72 -6q74 0 113 35t57 128l66 349h-213v170h245l52 266q59 311 352 311q71 0 123 -16v-213q-40 6 -74 6q-73 0 -112 -36t-56 -128l-37 -190h252v-170h-285l-80 -424q-59 -312 -352 -312z" />
    <glyph glyph-name="uni01CD" unicode="&#x1cd;" horiz-adv-x="1460" 
d="M23 0l559 1434h297l559 -1434h-275l-127 332h-614l-127 -332h-272zM362 1890h230l139 -172l139 172h230l-246 -319h-246zM506 555h446l-223 584z" />
    <glyph glyph-name="uni01CE" unicode="&#x1ce;" horiz-adv-x="1302" 
d="M606 -25q-142 0 -261.5 70t-190 196.5t-70.5 282.5t70.5 282.5t190 196.5t261.5 70q179 0 301 -104v80h246v-1049h-246v80q-124 -105 -301 -105zM311 1501h226l131 -160l131 160h225l-240 -301h-233zM334 524q0 -145 88 -234t221 -89q75 0 144.5 31.5t119.5 91.5v401
q-50 60 -119 90.5t-145 30.5q-133 0 -221 -88.5t-88 -233.5z" />
    <glyph glyph-name="uni01E2" unicode="&#x1e2;" horiz-adv-x="2265" 
d="M6 0l987 1434h1151v-240h-747v-332h651v-237h-651v-385h747v-240h-1005v356h-570l-243 -356h-320zM723 580h416v606zM1206 1618v197h602v-197h-602z" />
    <glyph glyph-name="uni01E3" unicode="&#x1e3;" horiz-adv-x="2007" 
d="M504 -25q-200 0 -313 90t-113 238q0 150 115.5 239t318.5 89h328v24q0 101 -62 154t-184 53q-181 0 -344 -145l-135 168q188 188 483 188q280 0 391 -164q75 78 180.5 121t229.5 43q231 0 375.5 -141.5t144.5 -376.5q0 -45 -6 -92h-830q15 -132 100.5 -204.5t221.5 -72.5
q185 0 309 150l172 -131q-83 -112 -207 -171t-278 -59q-138 0 -248.5 46.5t-185.5 132.5q-182 -179 -463 -179zM326 313q0 -63 52 -100t150 -37q205 0 340 150q-20 55 -26 125h-318q-97 0 -147.5 -37t-50.5 -101zM717 1243v184h565v-184h-565zM1096 647h575q-20 109 -91 164
t-183 55q-116 0 -194 -56.5t-107 -162.5z" />
    <glyph glyph-name="Gcaron" unicode="&#x1e6;" horiz-adv-x="1591" 
d="M852 -25q-219 0 -392 93.5t-269.5 261.5t-96.5 381q0 215 98.5 386.5t268.5 266t377 94.5q176 0 328.5 -72t256.5 -206l-217 -144q-64 87 -160 132.5t-210 45.5q-206 0 -341 -137.5t-135 -363.5t136.5 -360t363.5 -134q202 0 357 96v293h-336v226h579v-650
q-126 -101 -283 -155t-325 -54zM457 1890h229l139 -172l140 172h229l-246 -319h-246z" />
    <glyph glyph-name="gcaron" unicode="&#x1e7;" horiz-adv-x="1300" 
d="M614 -471q-151 0 -283.5 51t-226.5 144l148 180q180 -150 358 -150q140 0 218.5 73t78.5 200v88q-120 -105 -303 -105q-142 0 -261 68.5t-189 190t-70 270.5q0 150 70 273t189 192t261 69q182 0 303 -106v82h246v-1022q0 -232 -144.5 -365t-394.5 -133zM281 1501h225
l131 -160l131 160h225l-239 -301h-234zM334 539q0 -135 87.5 -221.5t217.5 -86.5q75 0 146 31.5t122 91.5v371q-51 60 -122 91.5t-146 31.5q-131 0 -218 -86.5t-87 -222.5z" />
    <glyph glyph-name="uni01E8" unicode="&#x1e8;" horiz-adv-x="1478" 
d="M172 0v1434h258v-705l674 705h321l-616 -650l647 -784h-328l-497 598l-201 -213v-385h-258zM377 1890h229l139 -172l140 172h229l-246 -319h-245z" />
    <glyph glyph-name="uni01E9" unicode="&#x1e9;" horiz-adv-x="1232" 
d="M147 0v1511h246v-925l484 463h313l-463 -453l492 -596h-310l-354 428l-162 -156v-272h-246zM-86 1964h225l131 -160l131 160h226l-240 -301h-233z" />
    <glyph glyph-name="AEacute" unicode="&#x1fc;" horiz-adv-x="2265" 
d="M6 0l987 1434h1151v-240h-747v-332h651v-237h-651v-385h747v-240h-1005v356h-570l-243 -356h-320zM723 580h416v606zM1348 1571l157 319h303l-227 -319h-233z" />
    <glyph glyph-name="aeacute" unicode="&#x1fd;" horiz-adv-x="2007" 
d="M504 -25q-200 0 -313 90t-113 238q0 150 115.5 239t318.5 89h328v24q0 101 -62 154t-184 53q-181 0 -344 -145l-135 168q188 188 483 188q280 0 391 -164q75 78 180.5 121t229.5 43q231 0 375.5 -141.5t144.5 -376.5q0 -45 -6 -92h-830q15 -132 100.5 -204.5t221.5 -72.5
q185 0 309 150l172 -131q-83 -112 -207 -171t-278 -59q-138 0 -248.5 46.5t-185.5 132.5q-182 -179 -463 -179zM326 313q0 -63 52 -100t150 -37q205 0 340 150q-20 55 -26 125h-318q-97 0 -147.5 -37t-50.5 -101zM852 1200l149 301h287l-215 -301h-221zM1096 647h575
q-20 109 -91 164t-183 55q-116 0 -194 -56.5t-107 -162.5z" />
    <glyph glyph-name="Oslashacute" unicode="&#x1fe;" horiz-adv-x="1656" 
d="M829 -25q-195 0 -364 91l-129 -175l-164 125l129 172q-100 100 -155.5 236t-55.5 293q0 159 57.5 297.5t156.5 235.5t235.5 152.5t289.5 55.5q197 0 361 -88l129 172l164 -125l-127 -170q100 -100 155.5 -236t55.5 -294q0 -159 -57.5 -297.5t-156.5 -236t-235 -153
t-289 -55.5zM346 717q0 -196 109 -334l596 793q-104 49 -222 49q-208 0 -345.5 -141t-137.5 -367zM608 258q104 -49 221 -49q207 0 344.5 141t137.5 367q0 196 -109 334zM670 1571l157 319h303l-227 -319h-233z" />
    <glyph glyph-name="oslashacute" unicode="&#x1ff;" horiz-adv-x="1282" 
d="M641 -25q-145 0 -262 60l-96 -127l-133 102l92 123q-75 73 -116.5 174t-41.5 217q0 237 158.5 393t398.5 156q146 0 264 -59l92 123l136 -101l-93 -121q75 -73 116.5 -174t41.5 -217q0 -236 -159 -392.5t-398 -156.5zM319 524q0 -128 68 -215l395 522q-67 31 -141 31
q-140 0 -231 -94.5t-91 -243.5zM494 1200l149 301h287l-215 -301h-221zM502 215q66 -29 139 -29q140 0 231 94.5t91 243.5q0 125 -68 215z" />
    <glyph glyph-name="uni0218" unicode="&#x218;" horiz-adv-x="1236" 
d="M629 -25q-159 0 -305.5 49.5t-260.5 141.5l150 203q210 -158 424 -158q128 0 200 54t72 141q0 68 -50.5 113.5t-164.5 72.5l-252 59q-171 41 -261.5 138t-90.5 239q0 189 144.5 309.5t381.5 120.5q151 0 288 -52t237 -149l-168 -180q-161 148 -361 148q-124 0 -193 -51
t-69 -130q0 -64 50 -106t169 -70l252 -59q350 -86 350 -385q0 -203 -145 -326t-397 -123zM483 -279q0 56 42 96t106 40q74 0 120 -52.5t46 -136.5q0 -112 -74 -211h-139q54 72 63 144q-8 -2 -22 -2q-64 0 -103 34t-39 88z" />
    <glyph glyph-name="uni0219" unicode="&#x219;" horiz-adv-x="1048" 
d="M541 -25q-134 0 -257.5 41.5t-207.5 112.5l127 184q165 -127 346 -127q85 0 132.5 31t47.5 82q0 39 -33 66t-112 45l-183 43q-156 36 -226.5 105.5t-70.5 180.5q0 151 113.5 242.5t306.5 91.5q128 0 242 -40.5t192 -112.5l-133 -175q-147 117 -311 117
q-81 0 -124.5 -28.5t-43.5 -77.5q0 -36 32 -59.5t114 -43.5l182 -43q157 -36 228 -108t71 -187q0 -156 -114.5 -248t-317.5 -92zM385 -279q0 56 41.5 96t105.5 40q74 0 120 -52.5t46 -136.5q0 -114 -73 -211h-140q55 73 64 144q-8 -2 -23 -2q-64 0 -102.5 34t-38.5 88z" />
    <glyph glyph-name="uni021A" unicode="&#x21a;" horiz-adv-x="1259" 
d="M500 0v1192h-455v242h1169v-242h-454v-1192h-260zM475 -279q0 56 42 96t106 40q74 0 119.5 -52t45.5 -137q0 -114 -73 -211h-140q55 73 64 144q-8 -2 -23 -2q-64 0 -102.5 34t-38.5 88z" />
    <glyph glyph-name="uni021B" unicode="&#x21b;" horiz-adv-x="907" 
d="M618 -20q-190 0 -284 99t-94 308v447h-215v215h215v249h245v-249h334v-215h-334v-418q0 -109 44 -160t135 -51q70 0 159 28l35 -206q-103 -47 -240 -47zM365 -279q0 56 41.5 96t105.5 40q74 0 120 -52.5t46 -136.5q0 -112 -74 -211h-139q54 72 63 144q-8 -2 -22 -2
q-64 0 -102.5 34t-38.5 88z" />
    <glyph glyph-name="uni0237" unicode="&#x237;" horiz-adv-x="540" 
d="M37 -471q-111 0 -199 35l35 219q67 -21 121 -21q76 0 114.5 45.5t38.5 145.5v1096h246v-1123q0 -397 -356 -397z" />
    <glyph glyph-name="circumflex" unicode="&#x2c6;" horiz-adv-x="1228" 
d="M258 1200l240 301h233l240 -301h-226l-131 160l-131 -160h-225z" />
    <glyph glyph-name="caron" unicode="&#x2c7;" horiz-adv-x="1228" 
d="M498 1200l-240 301h225l131 -160l131 160h226l-240 -301h-233z" />
    <glyph glyph-name="breve" unicode="&#x2d8;" horiz-adv-x="1228" 
d="M614 1198q-140 0 -219.5 75.5t-79.5 205.5v16h189q0 -145 110 -145q111 0 111 145h188v-16q0 -130 -79.5 -205.5t-219.5 -75.5z" />
    <glyph glyph-name="dotaccent" unicode="&#x2d9;" horiz-adv-x="1228" 
d="M614 1204q-65 0 -109 43t-44 109q0 64 44 106.5t109 42.5t109.5 -42.5t44.5 -106.5q0 -65 -44.5 -108.5t-109.5 -43.5z" />
    <glyph glyph-name="ring" unicode="&#x2da;" horiz-adv-x="1228" 
d="M614 1178q-100 0 -166.5 62.5t-66.5 156.5q0 92 66.5 154.5t166.5 62.5t167 -62.5t67 -154.5q0 -94 -67 -156.5t-167 -62.5zM530 1397q0 -37 23 -60.5t61 -23.5t61 23.5t23 60.5t-23 60.5t-61 23.5t-61 -23.5t-23 -60.5z" />
    <glyph glyph-name="ogonek" unicode="&#x2db;" horiz-adv-x="1228" 
d="M684 -446q-114 0 -181 55.5t-67 150.5t70.5 172t200.5 113l84 -45q-82 -59 -116 -103t-34 -85q0 -70 88 -70q31 0 62 8v-184q-47 -12 -107 -12z" />
    <glyph glyph-name="tilde" unicode="&#x2dc;" horiz-adv-x="1228" 
d="M756 1212q-32 0 -65.5 11t-50 20.5t-48.5 30.5q-64 39 -92 39q-52 0 -66 -80l-164 47q13 99 70.5 156t134.5 57q75 0 162 -59q59 -41 94 -41q49 0 66 82l164 -48q-15 -100 -71.5 -157.5t-133.5 -57.5z" />
    <glyph glyph-name="hungarumlaut" unicode="&#x2dd;" horiz-adv-x="1228" 
d="M666 1200l131 301h239l-178 -301h-192zM305 1200l129 301h240l-178 -301h-191z" />
    <glyph glyph-name="gravecomb" unicode="&#x300;" 
d="M565 1200l-215 301h287l147 -301h-219z" />
    <glyph glyph-name="acutecomb" unicode="&#x301;" 
d="M426 1200l149 301h287l-215 -301h-221z" />
    <glyph glyph-name="uni0302" unicode="&#x302;" 
d="M258 1200l240 301h233l240 -301h-226l-131 160l-131 -160h-225z" />
    <glyph glyph-name="tildecomb" unicode="&#x303;" 
d="M756 1212q-32 0 -65.5 11t-50 20.5t-48.5 30.5q-64 39 -92 39q-52 0 -66 -80l-164 47q13 99 70.5 156t134.5 57q75 0 162 -59q59 -41 94 -41q49 0 66 82l164 -48q-15 -100 -71.5 -157.5t-133.5 -57.5z" />
    <glyph glyph-name="uni0304" unicode="&#x304;" 
d="M332 1243v184h565v-184h-565z" />
    <glyph glyph-name="uni0306" unicode="&#x306;" 
d="M614 1198q-140 0 -219.5 75.5t-79.5 205.5v16h189q0 -145 110 -145q111 0 111 145h188v-16q0 -130 -79.5 -205.5t-219.5 -75.5z" />
    <glyph glyph-name="uni0307" unicode="&#x307;" 
d="M614 1204q-65 0 -109 43t-44 109q0 64 44 106.5t109 42.5t109.5 -42.5t44.5 -106.5q0 -65 -44.5 -108.5t-109.5 -43.5z" />
    <glyph glyph-name="uni0308" unicode="&#x308;" 
d="M825 1208q-61 0 -103 42t-42 106q0 62 42 103.5t103 41.5t103.5 -41.5t42.5 -103.5q0 -64 -42.5 -106t-103.5 -42zM258 1356q0 62 42 103.5t103 41.5t103.5 -41.5t42.5 -103.5q0 -64 -42.5 -106t-103.5 -42t-103 42t-42 106z" />
    <glyph glyph-name="uni030A" unicode="&#x30a;" 
d="M614 1178q-100 0 -166.5 62.5t-66.5 156.5q0 92 66.5 154.5t166.5 62.5t167 -62.5t67 -154.5q0 -94 -67 -156.5t-167 -62.5zM530 1397q0 -37 23 -60.5t61 -23.5t61 23.5t23 60.5t-23 60.5t-61 23.5t-61 -23.5t-23 -60.5z" />
    <glyph glyph-name="uni030B" unicode="&#x30b;" 
d="M666 1200l131 301h239l-178 -301h-192zM305 1200l129 301h240l-178 -301h-191z" />
    <glyph glyph-name="uni030C" unicode="&#x30c;" 
d="M498 1200l-240 301h225l131 -160l131 160h226l-240 -301h-233z" />
    <glyph glyph-name="uni0315" unicode="&#x315;" 
d="M492 983q114 100 135 193q-8 -2 -25 -2q-63 0 -103 39.5t-40 99.5q0 62 42.5 103.5t106.5 41.5q73 0 118.5 -57t45.5 -150q-3 -189 -209 -348z" />
    <glyph glyph-name="uni0326" unicode="&#x326;" 
d="M561 -543q55 73 64 144q-8 -2 -23 -2q-64 0 -102.5 34t-38.5 88q0 56 41.5 96t105.5 40q74 0 120 -52.5t46 -136.5q0 -112 -74 -211h-139z" />
    <glyph glyph-name="uni0327" unicode="&#x327;" 
d="M340 -336l223 412h189l-154 -412h-258z" />
    <glyph glyph-name="uni0328" unicode="&#x328;" 
d="M684 -446q-114 0 -181 55.5t-67 150.5t70.5 172t200.5 113l84 -45q-82 -59 -116 -103t-34 -85q0 -70 88 -70q31 0 62 8v-184q-47 -12 -107 -12z" />
    <glyph glyph-name="uni03BC" unicode="&#x3bc;" horiz-adv-x="1251" 
d="M715 -25q-191 0 -322 113v-534h-246v1495h246v-723q110 -125 258 -125q105 0 161 66.5t56 195.5v586h246v-639q0 -205 -107.5 -320t-291.5 -115z" />
    <glyph glyph-name="pi" unicode="&#x3c0;" horiz-adv-x="1261" 
d="M147 0v1049h916v-717q0 -61 25.5 -88t82.5 -27h48v-217h-107q-152 0 -223.5 71t-71.5 222v532h-424v-825h-246z" />
    <glyph glyph-name="uni1E20" unicode="&#x1e20;" horiz-adv-x="1591" 
d="M852 -25q-219 0 -392 93.5t-269.5 261.5t-96.5 381q0 215 98.5 386.5t268.5 266t377 94.5q176 0 328.5 -72t256.5 -206l-217 -144q-64 87 -160 132.5t-210 45.5q-206 0 -341 -137.5t-135 -363.5t136.5 -360t363.5 -134q202 0 357 96v293h-336v226h579v-650
q-126 -101 -283 -155t-325 -54zM524 1618v197h602v-197h-602z" />
    <glyph glyph-name="uni1E21" unicode="&#x1e21;" horiz-adv-x="1300" 
d="M614 -471q-151 0 -283.5 51t-226.5 144l148 180q180 -150 358 -150q140 0 218.5 73t78.5 200v88q-120 -105 -303 -105q-142 0 -261 68.5t-189 190t-70 270.5q0 150 70 273t189 192t261 69q182 0 303 -106v82h246v-1022q0 -232 -144.5 -365t-394.5 -133zM334 539
q0 -135 87.5 -221.5t217.5 -86.5q75 0 146 31.5t122 91.5v371q-51 60 -122 91.5t-146 31.5q-131 0 -218 -86.5t-87 -222.5zM354 1243v184h566v-184h-566z" />
    <glyph glyph-name="uni1E30" unicode="&#x1e30;" horiz-adv-x="1478" 
d="M172 0v1434h258v-705l674 705h321l-616 -650l647 -784h-328l-497 598l-201 -213v-385h-258zM586 1571l157 319h304l-228 -319h-233z" />
    <glyph glyph-name="uni1E31" unicode="&#x1e31;" horiz-adv-x="1232" 
d="M147 0v1511h246v-925l484 463h313l-463 -453l492 -596h-310l-354 428l-162 -156v-272h-246zM123 1663l149 301h287l-215 -301h-221z" />
    <glyph glyph-name="uni1E3E" unicode="&#x1e3e;" horiz-adv-x="1976" 
d="M172 0v1434h320l497 -1061l496 1061h319v-1434h-256v1016l-456 -975h-207l-459 979v-1020h-254zM829 1571l158 319h303l-227 -319h-234z" />
    <glyph glyph-name="uni1E3F" unicode="&#x1e3f;" horiz-adv-x="1906" 
d="M1524 586q0 128 -53 194t-144 66q-139 0 -250 -131q4 -50 4 -76v-639h-245v586q0 128 -53 194t-144 66q-133 0 -246 -125v-721h-246v1049h246v-91q136 115 309 115q103 0 184 -43t130 -125q78 82 176 125t199 43q170 0 274 -115.5t104 -318.5v-639h-245v586zM807 1200
l149 301h287l-215 -301h-221z" />
    <glyph glyph-name="uni1E40" unicode="&#x1e40;" horiz-adv-x="1976" 
d="M172 0v1434h320l497 -1061l496 1061h319v-1434h-256v1016l-456 -975h-207l-459 979v-1020h-254zM827 1735q0 67 47.5 112t114.5 45t114.5 -45t47.5 -112q0 -68 -47.5 -114t-114.5 -46t-114.5 46t-47.5 114z" />
    <glyph glyph-name="uni1E41" unicode="&#x1e41;" horiz-adv-x="1906" 
d="M1524 586q0 128 -53 194t-144 66q-139 0 -250 -131q4 -50 4 -76v-639h-245v586q0 128 -53 194t-144 66q-133 0 -246 -125v-721h-246v1049h246v-91q136 115 309 115q103 0 184 -43t130 -125q78 82 176 125t199 43q170 0 274 -115.5t104 -318.5v-639h-245v586zM801 1356
q0 64 44 106.5t109 42.5t109.5 -42.5t44.5 -106.5q0 -65 -44.5 -108.5t-109.5 -43.5t-109 43t-44 109z" />
    <glyph glyph-name="uni1E44" unicode="&#x1e44;" horiz-adv-x="1581" 
d="M172 0v1434h264l715 -1010v1010h258v-1434h-264l-715 1012v-1012h-258zM629 1735q0 67 47.5 112t114.5 45t114 -45t47 -112q0 -68 -47 -114t-114 -46t-114.5 46t-47.5 114z" />
    <glyph glyph-name="uni1E45" unicode="&#x1e45;" horiz-adv-x="1257" 
d="M874 575q0 133 -59 202t-164 69q-152 0 -258 -123v-723h-246v1049h246v-88q134 112 320 112q185 0 296 -117.5t111 -326.5v-629h-246v575zM473 1356q0 64 44.5 106.5t109.5 42.5t109 -42.5t44 -106.5q0 -66 -44 -109t-109 -43t-109.5 43.5t-44.5 108.5z" />
    <glyph glyph-name="Wgrave" unicode="&#x1e80;" horiz-adv-x="2177" 
d="M481 0l-434 1434h268l312 -1031l344 1031h235l344 -1031l312 1031h270l-436 -1434h-258l-348 1061l-351 -1061h-258zM778 1890h299l158 -319h-229z" />
    <glyph glyph-name="wgrave" unicode="&#x1e81;" horiz-adv-x="1806" 
d="M385 0l-352 1049h260l233 -721l260 721h232l260 -717l233 717h263l-355 -1049h-252l-264 733l-264 -733h-254zM604 1501h287l147 -301h-219z" />
    <glyph glyph-name="Wacute" unicode="&#x1e82;" horiz-adv-x="2177" 
d="M481 0l-434 1434h268l312 -1031l344 1031h235l344 -1031l312 1031h270l-436 -1434h-258l-348 1061l-351 -1061h-258zM930 1571l157 319h304l-228 -319h-233z" />
    <glyph glyph-name="wacute" unicode="&#x1e83;" horiz-adv-x="1806" 
d="M385 0l-352 1049h260l233 -721l260 721h232l260 -717l233 717h263l-355 -1049h-252l-264 733l-264 -733h-254zM756 1200l149 301h287l-215 -301h-221z" />
    <glyph glyph-name="Wdieresis" unicode="&#x1e84;" horiz-adv-x="2177" 
d="M481 0l-434 1434h268l312 -1031l344 1031h235l344 -1031l312 1031h270l-436 -1434h-258l-348 1061l-351 -1061h-258zM709 1735q0 67 45 111t110 44q64 0 109 -44t45 -111t-45 -111.5t-109 -44.5q-65 0 -110 44.5t-45 111.5zM1161 1735q0 67 45 111t109 44q65 0 110 -44
t45 -111t-45 -111.5t-110 -44.5q-64 0 -109 44.5t-45 111.5z" />
    <glyph glyph-name="wdieresis" unicode="&#x1e85;" horiz-adv-x="1806" 
d="M385 0l-352 1049h260l233 -721l260 721h232l260 -717l233 717h263l-355 -1049h-252l-264 733l-264 -733h-254zM547 1356q0 62 42 103.5t103 41.5t103.5 -41.5t42.5 -103.5q0 -64 -42.5 -106t-103.5 -42t-103 42t-42 106zM969 1356q0 62 42 103.5t103 41.5t103.5 -41.5
t42.5 -103.5q0 -64 -42.5 -106t-103.5 -42t-103 42t-42 106z" />
    <glyph glyph-name="uni1E90" unicode="&#x1e90;" horiz-adv-x="1257" 
d="M100 0v199l713 993h-700v242h1030v-199l-713 -993h727v-242h-1057zM260 1571l246 319h246l245 -319h-229l-139 170l-140 -170h-229z" />
    <glyph glyph-name="uni1E91" unicode="&#x1e91;" horiz-adv-x="1042" 
d="M82 0v174l534 657h-526v218h862v-175l-534 -657h543v-217h-879zM166 1200l240 301h233l240 -301h-226l-131 160l-131 -160h-225z" />
    <glyph glyph-name="uni1E9E" unicode="&#x1e9e;" horiz-adv-x="1556" 
d="M961 -25q-139 0 -273 35l51 234q105 -27 205 -27q129 0 192.5 48t63.5 136q0 93 -78 138t-248 45h-86v209l273 352q-100 72 -262 72q-192 0 -288.5 -98.5t-96.5 -309.5v-809h-258v842q0 301 163 458.5t461 157.5q195 0 349.5 -67.5t256.5 -194.5l-309 -412
q189 -27 289 -127t100 -270q0 -194 -130 -303t-375 -109z" />
    <glyph glyph-name="Ygrave" unicode="&#x1ef2;" horiz-adv-x="1333" 
d="M537 0v563l-529 871h291l369 -613l366 613h291l-528 -871v-563h-260zM356 1890h299l158 -319h-229z" />
    <glyph glyph-name="ygrave" unicode="&#x1ef3;" horiz-adv-x="1185" 
d="M287 -446l192 466l-461 1029h281l307 -719l295 719h266l-616 -1495h-264zM299 1501h287l147 -301h-219z" />
    <glyph glyph-name="uni2000" unicode="&#x2000;" horiz-adv-x="1171" 
 />
    <glyph glyph-name="uni2001" unicode="&#x2001;" horiz-adv-x="1785" 
 />
    <glyph glyph-name="uni2002" unicode="&#x2002;" horiz-adv-x="1171" 
 />
    <glyph glyph-name="uni2003" unicode="&#x2003;" horiz-adv-x="1785" 
 />
    <glyph glyph-name="uni2009" unicode="&#x2009;" horiz-adv-x="307" 
 />
    <glyph glyph-name="uni200A" unicode="&#x200a;" horiz-adv-x="172" 
 />
    <glyph glyph-name="uni200B" unicode="&#x200b;" 
 />
    <glyph glyph-name="endash" unicode="&#x2013;" horiz-adv-x="1171" 
d="M74 522v217h1024v-217h-1024z" />
    <glyph glyph-name="emdash" unicode="&#x2014;" horiz-adv-x="1785" 
d="M74 522v217h1638v-217h-1638z" />
    <glyph glyph-name="quoteleft" unicode="&#x2018;" horiz-adv-x="473" 
d="M244 903q-73 0 -119 57.5t-45 151.5q3 193 209 346l71 -78q-111 -102 -131 -192q6 2 21 2q62 0 102.5 -39.5t40.5 -99.5q0 -62 -43 -105t-106 -43z" />
    <glyph glyph-name="quoteright" unicode="&#x2019;" horiz-adv-x="473" 
d="M229 1458q73 0 119 -57.5t45 -151.5q-3 -193 -209 -346l-71 78q111 102 131 193q-9 -3 -21 -3q-61 0 -102 40t-41 100q0 62 43 104.5t106 42.5z" />
    <glyph glyph-name="quotesinglbase" unicode="&#x201a;" horiz-adv-x="473" 
d="M229 287q73 0 119 -57.5t45 -151.5q-3 -193 -209 -346l-71 78q111 102 131 192q-6 -2 -21 -2q-62 0 -102.5 39.5t-40.5 99.5q0 62 43 105t106 43z" />
    <glyph glyph-name="quotedblleft" unicode="&#x201c;" horiz-adv-x="868" 
d="M244 903q-73 0 -119 57.5t-45 151.5q3 193 209 346l71 -78q-111 -102 -131 -192q6 2 21 2q62 0 102.5 -39.5t40.5 -99.5q0 -62 -43 -105t-106 -43zM475 1112q3 193 209 346l72 -78q-111 -102 -131 -192q6 2 20 2q62 0 102.5 -39.5t40.5 -99.5q0 -62 -43 -105t-106 -43
q-73 0 -119 57.5t-45 151.5z" />
    <glyph glyph-name="quotedblright" unicode="&#x201d;" horiz-adv-x="868" 
d="M625 1458q73 0 118.5 -57.5t44.5 -151.5q-3 -193 -208 -346l-72 78q111 102 131 193q-9 -3 -21 -3q-61 0 -102 40t-41 100q0 62 43.5 104.5t106.5 42.5zM80 1311q0 62 43 104.5t106 42.5q73 0 119 -57.5t45 -151.5q-3 -193 -209 -346l-71 78q111 102 131 193
q-9 -3 -21 -3q-61 0 -102 40t-41 100z" />
    <glyph glyph-name="quotedblbase" unicode="&#x201e;" horiz-adv-x="868" 
d="M625 287q73 0 118.5 -57.5t44.5 -151.5q-3 -193 -208 -346l-72 78q111 102 131 192q-6 -2 -21 -2q-62 0 -102.5 39.5t-40.5 99.5q0 62 43.5 105t106.5 43zM80 139q0 62 43 105t106 43q73 0 119 -57.5t45 -151.5q-3 -193 -209 -346l-71 78q111 102 131 192q-6 -2 -21 -2
q-62 0 -102.5 39.5t-40.5 99.5z" />
    <glyph glyph-name="dagger" unicode="&#x2020;" horiz-adv-x="1060" 
d="M414 -262v1093h-330v226h330v463h233v-463h330v-226h-330v-1093h-233z" />
    <glyph glyph-name="daggerdbl" unicode="&#x2021;" horiz-adv-x="1101" 
d="M434 -262v479h-289v225h289v389h-330v226h330v463h234v-463h329v-226h-329v-389h288v-225h-288v-479h-234z" />
    <glyph glyph-name="bullet" unicode="&#x2022;" horiz-adv-x="1054" 
d="M526 385q-138 0 -231.5 94.5t-93.5 231.5q0 138 93.5 231.5t231.5 93.5q139 0 233.5 -93.5t94.5 -231.5q0 -137 -94.5 -231.5t-233.5 -94.5z" />
    <glyph glyph-name="ellipsis" unicode="&#x2026;" horiz-adv-x="1517" 
d="M248 -16q-72 0 -120 47.5t-48 120.5q0 72 48 119.5t120 47.5t120 -47.5t48 -119.5q0 -73 -48 -120.5t-120 -47.5zM592 152q0 72 48 119.5t120 47.5t120 -47.5t48 -119.5q0 -73 -48 -120.5t-120 -47.5t-120 47.5t-48 120.5zM1102 152q0 72 48 119.5t120 47.5t120 -47.5
t48 -119.5q0 -73 -48 -120.5t-120 -47.5t-120 47.5t-48 120.5z" />
    <glyph glyph-name="perthousand" unicode="&#x2030;" horiz-adv-x="2684" 
d="M2241 -25q-161 0 -269 107t-108 266t108 266t269 107q159 0 266.5 -107.5t107.5 -265.5t-107.5 -265.5t-266.5 -107.5zM70 1085q0 159 107 266t267 107t267.5 -107.5t107.5 -265.5t-107.5 -265t-267.5 -107t-267 107t-107 265zM266 1085q0 -84 48.5 -137t129.5 -53
t130 53t49 137q0 85 -49 138t-130 53t-129.5 -53t-48.5 -138zM342 0l913 1434h236l-913 -1434h-236zM1014 348q0 158 107.5 265.5t267.5 107.5q159 0 266.5 -107.5t107.5 -265.5t-107.5 -265.5t-266.5 -107.5q-160 0 -267.5 107.5t-107.5 265.5zM1210 348q0 -85 49 -137.5
t130 -52.5q79 0 128.5 52.5t49.5 137.5t-49.5 138t-128.5 53q-81 0 -130 -53t-49 -138zM2062 348q0 -85 49 -137.5t130 -52.5q79 0 128.5 52.5t49.5 137.5t-49.5 138t-128.5 53q-81 0 -130 -53t-49 -138z" />
    <glyph glyph-name="guilsinglleft" unicode="&#x2039;" horiz-adv-x="747" 
d="M389 137l-313 445l313 446h270l-309 -446l309 -445h-270z" />
    <glyph glyph-name="guilsinglright" unicode="&#x203a;" horiz-adv-x="747" 
d="M358 137h-270l309 445l-309 446h270l314 -446z" />
    <glyph glyph-name="fraction" unicode="&#x2044;" horiz-adv-x="393" 
d="M-410 0l1004 1434h209l-1004 -1434h-209z" />
    <glyph glyph-name="uni2070" unicode="&#x2070;" horiz-adv-x="798" 
d="M399 721q-152 0 -239.5 106t-87.5 297t87.5 297.5t239.5 106.5q153 0 240.5 -106.5t87.5 -297.5t-87.5 -297t-240.5 -106zM260 1124q0 -127 33.5 -181t105.5 -54t107 54.5t35 180.5t-35 181t-107 55t-105.5 -54.5t-33.5 -181.5z" />
    <glyph glyph-name="uni2074" unicode="&#x2074;" horiz-adv-x="714" 
d="M426 737v148h-387v149l346 477h211v-475h92v-151h-92v-148h-170zM219 1036h207v287z" />
    <glyph glyph-name="uni2075" unicode="&#x2075;" horiz-adv-x="686" 
d="M334 721q-174 0 -297 108l104 134q90 -76 187 -76q62 0 95.5 27t33.5 75q0 43 -30.5 69.5t-82.5 26.5q-64 0 -117 -41l-133 66v401h494v-161h-324v-140q57 23 117 23q119 0 189.5 -65.5t70.5 -182.5q0 -123 -81 -193.5t-226 -70.5z" />
    <glyph glyph-name="uni2076" unicode="&#x2076;" horiz-adv-x="700" 
d="M354 721q-135 0 -221 79t-86 210q0 149 125 311l147 190h216l-199 -251q24 6 53 6q117 0 196 -75.5t79 -191.5q0 -120 -86 -199t-224 -79zM229 999q0 -54 34.5 -86t92.5 -32t91.5 32t33.5 86q0 56 -33.5 87.5t-91.5 31.5q-59 0 -93 -32t-34 -87z" />
    <glyph glyph-name="uni2077" unicode="&#x2077;" horiz-adv-x="626" 
d="M92 737l295 602h-352v172h557v-151l-295 -623h-205z" />
    <glyph glyph-name="uni2078" unicode="&#x2078;" horiz-adv-x="729" 
d="M365 721q-146 0 -228 63.5t-82 163.5q0 64 34 112.5t99 74.5q-110 52 -110 172q0 96 76 158.5t211 62.5q136 0 211 -62.5t75 -158.5q0 -120 -110 -172q65 -26 99 -74.5t34 -112.5q0 -100 -81.5 -163.5t-227.5 -63.5zM244 967q0 -41 30.5 -65.5t90.5 -24.5q61 0 91.5 24.5
t30.5 65.5q0 42 -30.5 67t-91.5 25q-59 0 -90 -25t-31 -67zM254 1288q0 -39 28.5 -62.5t82.5 -23.5q55 0 82.5 23t27.5 63q0 41 -27.5 64.5t-82.5 23.5q-54 0 -82.5 -23.5t-28.5 -64.5z" />
    <glyph glyph-name="uni2079" unicode="&#x2079;" horiz-adv-x="700" 
d="M346 1528q135 0 221 -79t86 -210q0 -149 -125 -311l-147 -191h-215l199 252q-24 -6 -54 -6q-117 0 -195.5 75t-78.5 191q0 120 85.5 199.5t223.5 79.5zM219 1249q0 -56 33.5 -87.5t91.5 -31.5q59 0 93 32t34 87q0 54 -34.5 86.5t-92.5 32.5t-91.5 -32.5t-33.5 -86.5z" />
    <glyph glyph-name="Euro" unicode="&#x20ac;" horiz-adv-x="1292" 
d="M799 -25q-214 0 -360 136t-193 381h-170v149h151q-2 25 -2 76t2 76h-151v149h170q47 244 193 380t360 136q131 0 246.5 -56.5t187.5 -160.5l-180 -147q-105 149 -254 149q-108 0 -186 -77t-111 -224h432l-41 -149h-412q-2 -25 -2 -76t2 -76h453l-41 -149h-391
q33 -147 111 -224.5t186 -77.5q150 0 256 148l176 -143q-70 -105 -184.5 -162.5t-247.5 -57.5z" />
    <glyph glyph-name="uni20BF" unicode="&#x20bf;" horiz-adv-x="1421" 
d="M408 -180v180h-236v1434h236v180h190v-180h147h19v180h190v-207q132 -40 202.5 -131t70.5 -225q0 -196 -152 -279q126 -44 189 -133t63 -215q0 -164 -96.5 -271t-276.5 -139v-194h-190v180h-166v-180h-190zM428 223h360q132 0 202.5 56.5t70.5 154.5t-70.5 155.5
t-202.5 57.5h-360v-424zM428 864h324q104 0 159.5 46.5t55.5 129.5q0 82 -55 126t-160 44h-324v-346z" />
    <glyph glyph-name="uni2116" unicode="&#x2116;" horiz-adv-x="2560" 
d="M172 0v1434h264l715 -1010v1010h258v-1434h-264l-715 1012v-1012h-258zM1638 1044q0 180 119.5 297t302.5 117q182 0 301 -117t119 -297q0 -178 -119 -295.5t-301 -117.5q-183 0 -302.5 117t-119.5 296zM1718 276v218h643v-218h-643zM1853 1044q0 -96 58.5 -156.5
t148.5 -60.5q88 0 145.5 60.5t57.5 156.5q0 97 -57 157.5t-146 60.5q-90 0 -148.5 -60.5t-58.5 -157.5z" />
    <glyph glyph-name="trademark" unicode="&#x2122;" horiz-adv-x="1595" 
d="M688 807v627h203l201 -396l200 396h207v-627h-174v379l-174 -350h-119l-172 348v-377h-172zM63 1260v174h525v-174h-170v-453h-185v453h-170z" />
    <glyph glyph-name="uni2126" unicode="&#x2126;" horiz-adv-x="1630" 
d="M125 0v219h283q-135 78 -209 220t-74 321q0 200 92.5 360.5t250 249t347.5 88.5t347.5 -88.5t250 -249t92.5 -360.5q0 -179 -73.5 -321t-208.5 -220h282v-219h-590v238q163 79 251.5 208t88.5 306q0 214 -123 347.5t-317 133.5t-317 -133.5t-123 -347.5q0 -177 89.5 -306
t252.5 -208v-238h-592z" />
    <glyph glyph-name="estimated" unicode="&#x212e;" horiz-adv-x="1691" 
d="M846 0q-145 0 -275.5 52t-228.5 147q-97 94 -152 228.5t-55 289.5t55 291.5t152 230.5q98 92 229 143.5t275 51.5t274.5 -51.5t227.5 -143.5q98 -93 153 -230t55 -292v-25h-1196v-309q0 -72 21 -118.5t72 -84.5q171 -127 393 -127q172 0 315.5 75t231.5 210l43 -33
q-97 -145 -252 -225t-338 -80zM360 741h981v299q0 71 -20 120.5t-68 86.5q-177 133 -407 133q-222 0 -393 -127q-51 -37 -72 -84.5t-21 -119.5v-308z" />
    <glyph glyph-name="arrowleft" unicode="&#x2190;" horiz-adv-x="1454" 
d="M762 1114l-283 -280h903v-234h-903l283 -281l-154 -155l-536 553l536 553z" />
    <glyph glyph-name="arrowup" unicode="&#x2191;" horiz-adv-x="1454" 
d="M330 688l-156 154l553 536l553 -536l-156 -154l-280 283v-903h-234v903z" />
    <glyph glyph-name="arrowright" unicode="&#x2192;" horiz-adv-x="1454" 
d="M692 1114l154 156l536 -553l-536 -553l-154 155l283 281h-903v234h903z" />
    <glyph glyph-name="arrowdown" unicode="&#x2193;" horiz-adv-x="1454" 
d="M330 745l280 -282v903h234v-903l280 282l156 -153l-553 -537l-553 537z" />
    <glyph glyph-name="uni2196" unicode="&#x2196;" horiz-adv-x="1454" 
d="M434 446h-217l10 771l770 10v-217h-397l637 -637l-166 -166l-637 637v-398z" />
    <glyph glyph-name="uni2197" unicode="&#x2197;" horiz-adv-x="1454" 
d="M457 1010v217l770 -10l10 -771h-217v398l-637 -637l-166 166l637 637h-397z" />
    <glyph glyph-name="uni2198" unicode="&#x2198;" horiz-adv-x="1454" 
d="M1020 987h217l-10 -770l-770 -10v217h397l-637 637l166 166l637 -637v397z" />
    <glyph glyph-name="uni2199" unicode="&#x2199;" horiz-adv-x="1454" 
d="M997 424v-217l-770 10l-10 770h217v-397l637 637l166 -166l-637 -637h397z" />
    <glyph glyph-name="partialdiff" unicode="&#x2202;" horiz-adv-x="1292" 
d="M627 -25q-244 0 -392.5 138.5t-148.5 355.5q0 206 141.5 342.5t358.5 136.5q109 0 200 -41t152 -119h4q-13 241 -102 345t-273 104q-140 0 -280 -70l-56 209q164 82 355 82q305 0 456.5 -197t151.5 -579q0 -392 -178 -561q-152 -146 -389 -146zM338 471q0 -127 80 -202.5
t211 -75.5t210 75.5t79 202.5q0 119 -79.5 191.5t-209.5 72.5q-131 0 -211 -73t-80 -191z" />
    <glyph glyph-name="uni2206" unicode="&#x2206;" horiz-adv-x="1419" 
d="M121 0l-78 125l588 1309h160l585 -1309l-76 -125h-1179zM352 229h715l-356 811z" />
    <glyph glyph-name="product" unicode="&#x220f;" horiz-adv-x="1368" 
d="M172 -262v1782h1024v-1782h-248v1552h-528v-1552h-248z" />
    <glyph glyph-name="summation" unicode="&#x2211;" horiz-adv-x="1101" 
d="M96 -262v227l477 664l-477 663v228h953v-228h-668l479 -663l-479 -664h668v-227h-953z" />
    <glyph glyph-name="minus" unicode="&#x2212;" horiz-adv-x="1331" 
d="M207 537v225h917v-225h-917z" />
    <glyph glyph-name="radical" unicode="&#x221a;" horiz-adv-x="1318" 
d="M518 -262l-262 731h-209v229h385l203 -585l399 1407h252l-512 -1782h-256z" />
    <glyph glyph-name="infinity" unicode="&#x221e;" horiz-adv-x="1554" 
d="M1106 301q-113 0 -191 50t-137 138q-61 -88 -138.5 -138t-190.5 -50q-167 0 -270 108t-103 277t103 276t270 107q112 0 189.5 -49.5t137.5 -136.5q61 87 139.5 136.5t190.5 49.5q167 0 270 -107t103 -276t-103 -277t-270 -108zM281 686q0 -87 46 -139.5t119 -52.5
q71 0 120 49t100 143q-51 95 -100 144t-120 49q-73 0 -119 -53t-46 -140zM889 686q51 -95 99.5 -143.5t119.5 -48.5q73 0 118.5 52.5t45.5 139.5t-45.5 140t-118.5 53q-71 0 -119.5 -49t-99.5 -144z" />
    <glyph glyph-name="integral" unicode="&#x222b;" horiz-adv-x="823" 
d="M47 -262v217h121q62 0 90.5 27.5t28.5 89.5v1165q0 145 73.5 214t225.5 69h190v-217h-121q-62 0 -90 -27.5t-28 -89.5v-1166q0 -144 -73 -213t-226 -69h-191z" />
    <glyph glyph-name="approxequal" unicode="&#x2248;" horiz-adv-x="1331" 
d="M881 707q-75 0 -214 46t-214 46q-64 0 -120 -20t-126 -66v223q115 84 250 84q72 0 213 -47t209 -47t132.5 25.5t112.5 64.5v-223q-116 -86 -243 -86zM207 285v223q117 86 250 86q72 0 213 -47t209 -47q70 0 135.5 25t109.5 63v-223q-120 -86 -243 -86q-75 0 -214 47
t-214 47q-65 0 -122 -21t-124 -67z" />
    <glyph glyph-name="notequal" unicode="&#x2260;" horiz-adv-x="1331" 
d="M324 88l104 236h-221v223h319l90 205h-409v223h508l104 235h187l-105 -235h223v-223h-321l-90 -205h411v-223h-510l-104 -236h-186z" />
    <glyph glyph-name="lessequal" unicode="&#x2264;" horiz-adv-x="1331" 
d="M1124 322l-917 331v226l917 331v-233l-635 -211l635 -209v-235zM207 0v223h917v-223h-917z" />
    <glyph glyph-name="greaterequal" unicode="&#x2265;" horiz-adv-x="1331" 
d="M207 322v235l637 209l-637 211v233l917 -331v-226zM207 0v223h917v-223h-917z" />
    <glyph glyph-name="filledbox" unicode="&#x25a0;" horiz-adv-x="1843" 
d="M205 0v1434h1433v-1434h-1433z" />
    <glyph glyph-name="triagup" unicode="&#x25b2;" horiz-adv-x="1843" 
d="M205 0l717 1434l716 -1434h-1433z" />
    <glyph glyph-name="triagdn" unicode="&#x25bc;" horiz-adv-x="1843" 
d="M922 0l-717 1434h1433z" />
    <glyph glyph-name="uni25C6" unicode="&#x25c6;" horiz-adv-x="1843" 
d="M920 0l-715 715l715 719l718 -719z" />
    <glyph glyph-name="lmlenge" unicode="&#x25ca;" horiz-adv-x="1316" 
d="M561 0l-514 717l514 717h195l514 -717l-514 -717h-195zM330 715l327 -457l330 461l-328 457z" />
    <glyph glyph-name="uni25CF" unicode="&#x25cf;" horiz-adv-x="1843" 
d="M922 0q-145 0 -278 57t-229 153t-153 229t-57 278t57 278t153 229t229 153t278 57t278 -57t228.5 -153t152.5 -228.5t57 -278.5t-57 -278.5t-152.5 -228.5t-228.5 -153t-278 -57z" />
    <glyph glyph-name="uni2610" unicode="&#x2610;" horiz-adv-x="1843" 
d="M205 0v1434h1433v-1434h-1433zM367 152h1110v1130h-1110v-1130z" />
    <glyph glyph-name="uni2611" unicode="&#x2611;" horiz-adv-x="1843" 
d="M205 0v1434h1433v-1434h-1433zM367 152h1110v1130h-1110v-1130zM510 477l113 193l178 -105l348 602l184 -106l-459 -795z" />
    <glyph glyph-name="uni2612" unicode="&#x2612;" horiz-adv-x="1843" 
d="M205 0v1434h1433v-1434h-1433zM367 152h1110v1130h-1110v-1130zM485 430l287 287l-287 287l150 147l287 -285l286 285l148 -147l-285 -287l285 -287l-148 -149l-286 286l-287 -286z" />
    <glyph glyph-name="heart" unicode="&#x2665;" horiz-adv-x="1843" 
d="M254 838q0 97 32 176t84 127.5t115.5 74t130.5 25.5q109 0 194 -63.5t112 -180.5q27 117 111.5 180.5t193.5 63.5q67 0 130.5 -25.5t115.5 -74t84 -127.5t32 -176q0 -92 -30 -169t-77 -130t-117.5 -108.5t-138.5 -98.5t-153.5 -107t-150.5 -127q-65 63 -150.5 127
t-153.5 107t-139 98.5t-118 108.5t-77 130t-30 169z" />
    <glyph glyph-name="uni2B51" unicode="&#x2b51;" horiz-adv-x="1843" 
d="M446 -6l183 557l-469 340h581l179 553l178 -555h585l-473 -342l181 -553l-471 344z" />
    <glyph glyph-name="uni004A0301" horiz-adv-x="1187" 
d="M518 -25q-253 0 -465 146l127 217q187 -117 332 -117q125 0 193.5 72.5t68.5 216.5v924h258v-945q0 -251 -135 -382.5t-379 -131.5zM743 1571l158 319h303l-227 -319h-234z" />
    <glyph glyph-name="i.loclTRK" horiz-adv-x="540" 
d="M147 0v1049h246v-1049h-246zM117 1356q0 64 44 106.5t109 42.5t109.5 -42.5t44.5 -106.5q0 -65 -44.5 -108.5t-109.5 -43.5t-109 43t-44 109z" />
    <glyph glyph-name="uni006A0301" horiz-adv-x="540" 
d="M37 -471q-111 0 -199 35l35 219q67 -21 121 -21q76 0 114.5 45.5t38.5 145.5v1096h246v-1123q0 -397 -356 -397zM123 1200l106 301h287l-174 -301h-219z" />
    <glyph glyph-name="a.ss01" horiz-adv-x="1193" 
d="M819 639q0 108 -59 162.5t-170 54.5q-179 0 -338 -143l-137 172q188 188 485 188q218 0 337.5 -110t119.5 -322v-641h-238v76q-144 -101 -338 -101q-186 0 -294.5 90.5t-108.5 235.5q0 149 115 236.5t315 87.5h311v14zM326 311q0 -62 50.5 -98.5t147.5 -36.5
q174 0 295 109v157h-297q-96 0 -146 -35t-50 -96z" />
    <glyph glyph-name="aacute.ss01" horiz-adv-x="1193" 
d="M819 639q0 108 -59 162.5t-170 54.5q-179 0 -338 -143l-137 172q188 188 485 188q218 0 337.5 -110t119.5 -322v-641h-238v76q-144 -101 -338 -101q-186 0 -294.5 90.5t-108.5 235.5q0 149 115 236.5t315 87.5h311v14zM326 311q0 -62 50.5 -98.5t147.5 -36.5
q174 0 295 109v157h-297q-96 0 -146 -35t-50 -96zM428 1200l150 301h286l-215 -301h-221z" />
    <glyph glyph-name="abreve.ss01" horiz-adv-x="1193" 
d="M819 639q0 108 -59 162.5t-170 54.5q-179 0 -338 -143l-137 172q188 188 485 188q218 0 337.5 -110t119.5 -322v-641h-238v76q-144 -101 -338 -101q-186 0 -294.5 90.5t-108.5 235.5q0 149 115 236.5t315 87.5h311v14zM276 1479v16h189q0 -145 110 -145q111 0 111 145
h188v-16q0 -130 -79.5 -205.5t-219.5 -75.5t-219.5 75.5t-79.5 205.5zM326 311q0 -62 50.5 -98.5t147.5 -36.5q174 0 295 109v157h-297q-96 0 -146 -35t-50 -96z" />
    <glyph glyph-name="uni01CE.ss01" horiz-adv-x="1193" 
d="M819 639q0 108 -59 162.5t-170 54.5q-179 0 -338 -143l-137 172q188 188 485 188q218 0 337.5 -110t119.5 -322v-641h-238v76q-144 -101 -338 -101q-186 0 -294.5 90.5t-108.5 235.5q0 149 115 236.5t315 87.5h311v14zM219 1501h225l131 -160l132 160h225l-240 -301h-233
zM326 311q0 -62 50.5 -98.5t147.5 -36.5q174 0 295 109v157h-297q-96 0 -146 -35t-50 -96z" />
    <glyph glyph-name="acircumflex.ss01" horiz-adv-x="1193" 
d="M819 639q0 108 -59 162.5t-170 54.5q-179 0 -338 -143l-137 172q188 188 485 188q218 0 337.5 -110t119.5 -322v-641h-238v76q-144 -101 -338 -101q-186 0 -294.5 90.5t-108.5 235.5q0 149 115 236.5t315 87.5h311v14zM219 1200l240 301h233l240 -301h-225l-132 160
l-131 -160h-225zM326 311q0 -62 50.5 -98.5t147.5 -36.5q174 0 295 109v157h-297q-96 0 -146 -35t-50 -96z" />
    <glyph glyph-name="adieresis.ss01" horiz-adv-x="1193" 
d="M819 639q0 108 -59 162.5t-170 54.5q-179 0 -338 -143l-137 172q188 188 485 188q218 0 337.5 -110t119.5 -322v-641h-238v76q-144 -101 -338 -101q-186 0 -294.5 90.5t-108.5 235.5q0 149 115 236.5t315 87.5h311v14zM219 1356q0 62 42.5 103.5t103.5 41.5t103 -41.5
t42 -103.5q0 -64 -42 -106t-103 -42t-103.5 42t-42.5 106zM326 311q0 -62 50.5 -98.5t147.5 -36.5q174 0 295 109v157h-297q-96 0 -146 -35t-50 -96zM641 1356q0 62 42 103.5t103 41.5t103.5 -41.5t42.5 -103.5q0 -64 -42.5 -106t-103.5 -42t-103 42t-42 106z" />
    <glyph glyph-name="agrave.ss01" horiz-adv-x="1193" 
d="M819 639q0 108 -59 162.5t-170 54.5q-179 0 -338 -143l-137 172q188 188 485 188q218 0 337.5 -110t119.5 -322v-641h-238v76q-144 -101 -338 -101q-186 0 -294.5 90.5t-108.5 235.5q0 149 115 236.5t315 87.5h311v14zM274 1501h287l148 -301h-220zM326 311
q0 -62 50.5 -98.5t147.5 -36.5q174 0 295 109v157h-297q-96 0 -146 -35t-50 -96z" />
    <glyph glyph-name="amacron.ss01" horiz-adv-x="1193" 
d="M819 639q0 108 -59 162.5t-170 54.5q-179 0 -338 -143l-137 172q188 188 485 188q218 0 337.5 -110t119.5 -322v-641h-238v76q-144 -101 -338 -101q-186 0 -294.5 90.5t-108.5 235.5q0 149 115 236.5t315 87.5h311v14zM293 1243v184h565v-184h-565zM326 311
q0 -62 50.5 -98.5t147.5 -36.5q174 0 295 109v157h-297q-96 0 -146 -35t-50 -96z" />
    <glyph glyph-name="aogonek.ss01" horiz-adv-x="1193" 
d="M819 639q0 108 -59 162.5t-170 54.5q-179 0 -338 -143l-137 172q188 188 485 188q218 0 337.5 -110t119.5 -322v-641q-82 -59 -116 -103t-34 -85q0 -70 88 -70q31 0 62 8v-184q-47 -12 -107 -12q-114 0 -181 55.5t-67 150.5q0 72 40.5 135t117.5 105h-41v76
q-144 -101 -338 -101q-186 0 -294.5 90.5t-108.5 235.5q0 149 115 236.5t315 87.5h311v14zM326 311q0 -62 50.5 -98.5t147.5 -36.5q174 0 295 109v157h-297q-96 0 -146 -35t-50 -96z" />
    <glyph glyph-name="aring.ss01" horiz-adv-x="1193" 
d="M819 639q0 108 -59 162.5t-170 54.5q-179 0 -338 -143l-137 172q188 188 485 188q218 0 337.5 -110t119.5 -322v-641h-238v76q-144 -101 -338 -101q-186 0 -294.5 90.5t-108.5 235.5q0 149 115 236.5t315 87.5h311v14zM326 311q0 -62 50.5 -98.5t147.5 -36.5
q174 0 295 109v157h-297q-96 0 -146 -35t-50 -96zM342 1397q0 92 66.5 154.5t166.5 62.5t167 -62.5t67 -154.5q0 -94 -67 -156.5t-167 -62.5t-166.5 62.5t-66.5 156.5zM492 1397q0 -37 22.5 -60.5t60.5 -23.5t61 23.5t23 60.5t-23 60.5t-61 23.5t-60.5 -23.5t-22.5 -60.5z
" />
    <glyph glyph-name="atilde.ss01" horiz-adv-x="1193" 
d="M819 639q0 108 -59 162.5t-170 54.5q-179 0 -338 -143l-137 172q188 188 485 188q218 0 337.5 -110t119.5 -322v-641h-238v76q-144 -101 -338 -101q-186 0 -294.5 90.5t-108.5 235.5q0 149 115 236.5t315 87.5h311v14zM229 1280q13 99 70.5 156t134.5 57q75 0 162 -59
q59 -41 94 -41q49 0 66 82l164 -48q-15 -100 -71.5 -157.5t-133.5 -57.5q-32 0 -65.5 11t-50 20.5t-48.5 30.5q-64 39 -92 39q-52 0 -66 -80zM326 311q0 -62 50.5 -98.5t147.5 -36.5q174 0 295 109v157h-297q-96 0 -146 -35t-50 -96z" />
    <glyph glyph-name="y.ss02" horiz-adv-x="1251" 
d="M565 -471q-266 0 -469 164l152 184q89 -69 163 -96t152 -27q138 0 216.5 73.5t78.5 199.5v96q-131 -113 -321 -113q-184 0 -292 114.5t-108 319.5v605h246v-553q0 -129 56 -194.5t161 -65.5q152 0 258 126v687h246v-1022q0 -232 -144.5 -365t-394.5 -133z" />
    <glyph glyph-name="yacute.ss02" horiz-adv-x="1251" 
d="M565 -471q-266 0 -469 164l152 184q89 -69 163 -96t152 -27q138 0 216.5 73.5t78.5 199.5v96q-131 -113 -321 -113q-184 0 -292 114.5t-108 319.5v605h246v-553q0 -129 56 -194.5t161 -65.5q152 0 258 126v687h246v-1022q0 -232 -144.5 -365t-394.5 -133zM479 1200
l150 301h286l-215 -301h-221z" />
    <glyph glyph-name="ycircumflex.ss02" horiz-adv-x="1251" 
d="M565 -471q-266 0 -469 164l152 184q89 -69 163 -96t152 -27q138 0 216.5 73.5t78.5 199.5v96q-131 -113 -321 -113q-184 0 -292 114.5t-108 319.5v605h246v-553q0 -129 56 -194.5t161 -65.5q152 0 258 126v687h246v-1022q0 -232 -144.5 -365t-394.5 -133zM270 1200
l240 301h233l240 -301h-225l-131 160l-131 -160h-226z" />
    <glyph glyph-name="ydieresis.ss02" horiz-adv-x="1251" 
d="M565 -471q-266 0 -469 164l152 184q89 -69 163 -96t152 -27q138 0 216.5 73.5t78.5 199.5v96q-131 -113 -321 -113q-184 0 -292 114.5t-108 319.5v605h246v-553q0 -129 56 -194.5t161 -65.5q152 0 258 126v687h246v-1022q0 -232 -144.5 -365t-394.5 -133zM270 1356
q0 62 42.5 103.5t103.5 41.5t103 -41.5t42 -103.5q0 -64 -42 -106t-103 -42t-103.5 42t-42.5 106zM692 1356q0 62 42.5 103.5t103.5 41.5t103 -41.5t42 -103.5q0 -64 -42 -106t-103 -42t-103.5 42t-42.5 106z" />
    <glyph glyph-name="ygrave.ss02" horiz-adv-x="1251" 
d="M565 -471q-266 0 -469 164l152 184q89 -69 163 -96t152 -27q138 0 216.5 73.5t78.5 199.5v96q-131 -113 -321 -113q-184 0 -292 114.5t-108 319.5v605h246v-553q0 -129 56 -194.5t161 -65.5q152 0 258 126v687h246v-1022q0 -232 -144.5 -365t-394.5 -133zM326 1501h286
l148 -301h-219z" />
    <glyph glyph-name="zero.zero" horiz-adv-x="1392" 
d="M696 -25q-274 0 -432 196t-158 546t158 545.5t432 195.5t432 -195.5t158 -545.5t-158 -546t-432 -196zM367 717q0 -240 75 -369l387 850q-58 27 -133 27q-329 0 -329 -508zM563 236q59 -27 133 -27q161 0 246.5 125.5t85.5 382.5q0 238 -76 368z" />
    <glyph glyph-name="zero.lf" horiz-adv-x="1392" 
d="M696 -25q-274 0 -432 196t-158 546t158 545.5t432 195.5t432 -195.5t158 -545.5t-158 -546t-432 -196zM367 717q0 -508 329 -508q161 0 246.5 125.5t85.5 382.5t-85.5 382.5t-246.5 125.5q-329 0 -329 -508z" />
    <glyph glyph-name="one.lf" horiz-adv-x="880" 
d="M438 0v1151l-356 -178v258l397 203h215v-1434h-256z" />
    <glyph glyph-name="two.lf" horiz-adv-x="1185" 
d="M82 0v203l506 471q130 123 180.5 203.5t50.5 152.5q0 90 -58.5 142.5t-156.5 52.5q-99 0 -188 -60.5t-158 -181.5l-199 135q88 166 231.5 253t319.5 87q209 0 337 -116t128 -302q0 -112 -55.5 -219t-192.5 -235l-376 -353h647v-233h-1016z" />
    <glyph glyph-name="three.lf" horiz-adv-x="1157" 
d="M555 -25q-156 0 -288 53t-224 152l152 178q159 -153 354 -153q125 0 196.5 58t71.5 151q0 95 -80 148.5t-239 53.5h-129v228h157q130 0 200.5 53.5t70.5 142.5q0 83 -63 136t-177 53q-188 0 -332 -172l-166 157q190 244 510 244q223 0 352.5 -109t129.5 -290
q0 -119 -60 -205t-172 -121q121 -38 186.5 -128.5t65.5 -215.5q0 -183 -139.5 -298.5t-376.5 -115.5z" />
    <glyph glyph-name="four.lf" horiz-adv-x="1269" 
d="M807 0v291h-735v211l676 932h299v-930h188v-213h-188v-291h-240zM332 504h475v651z" />
    <glyph glyph-name="five.lf" horiz-adv-x="1191" 
d="M575 -25q-302 0 -507 199l149 180q160 -147 354 -147q138 0 217.5 67.5t79.5 180.5q0 109 -71 174t-193 65q-152 0 -270 -88l-187 103l27 725h862v-234h-635l-10 -340q110 55 252 55q214 0 346.5 -122t132.5 -338q0 -221 -148.5 -350.5t-398.5 -129.5z" />
    <glyph glyph-name="six.lf" horiz-adv-x="1249" 
d="M631 -25q-155 0 -278 63t-194 182.5t-71 277.5q0 266 219 551l291 385h305l-366 -469q72 16 139 16q216 0 360 -140t144 -356q0 -222 -155.5 -366t-393.5 -144zM342 500q0 -138 79 -218.5t214 -80.5q134 0 213.5 77t79.5 203t-79.5 203.5t-213.5 77.5q-143 0 -264 -92
q-29 -95 -29 -170z" />
    <glyph glyph-name="seven.lf" horiz-adv-x="1095" 
d="M182 0l578 1200h-709v234h993v-205l-581 -1229h-281z" />
    <glyph glyph-name="eight.lf" horiz-adv-x="1259" 
d="M629 -25q-256 0 -399.5 118.5t-143.5 303.5q0 118 59 210.5t172 144.5q-178 106 -178 311q0 170 132 282.5t358 112.5q227 0 359 -112.5t132 -282.5q0 -205 -180 -311q113 -52 172 -144.5t59 -210.5q0 -185 -143 -303.5t-399 -118.5zM342 418q0 -100 75 -162.5t212 -62.5
t211.5 62.5t74.5 162.5q0 99 -74.5 161t-211.5 62t-212 -62t-75 -161zM393 1044q0 -90 63.5 -145t172.5 -55q111 0 173 54.5t62 145.5q0 90 -62.5 144.5t-172.5 54.5q-109 0 -172.5 -55t-63.5 -144z" />
    <glyph glyph-name="nine.lf" horiz-adv-x="1249" 
d="M618 1458q238 0 390.5 -142.5t152.5 -379.5q0 -266 -219 -551l-291 -385h-305l367 469q-72 -16 -140 -16q-216 0 -359.5 139.5t-143.5 355.5q0 222 155 366t393 144zM322 952q0 -126 79 -203t213 -77q144 0 265 92q28 92 28 170q0 138 -79 218.5t-214 80.5
q-134 0 -213 -77.5t-79 -203.5z" />
    <glyph glyph-name="zero.tf" horiz-adv-x="1331" 
d="M666 -25q-274 0 -432 196t-158 546t158 545.5t432 195.5t431.5 -195.5t157.5 -545.5q0 -351 -157.5 -546.5t-431.5 -195.5zM336 717q0 -257 85 -382.5t245 -125.5t245.5 125.5t85.5 382.5t-85.5 382.5t-245.5 125.5t-245 -125.5t-85 -382.5z" />
    <glyph glyph-name="one.tf" horiz-adv-x="1331" 
d="M225 0v233h379v918l-356 -178v258l397 203h215v-1201h338v-233h-973z" />
    <glyph glyph-name="two.tf" horiz-adv-x="1331" 
d="M158 0v203l506 471q130 123 180.5 203.5t50.5 152.5q0 90 -58.5 142.5t-156.5 52.5q-99 0 -188 -60.5t-158 -181.5l-199 135q88 166 231.5 253t319.5 87q209 0 337 -116t128 -302q0 -112 -55.5 -219t-192.5 -235l-377 -353h648v-233h-1016z" />
    <glyph glyph-name="three.tf" horiz-adv-x="1331" 
d="M641 -25q-156 0 -288 53t-224 152l152 178q159 -153 354 -153q125 0 196.5 58t71.5 151q0 95 -80 148.5t-239 53.5h-129v228h157q130 0 200.5 53.5t70.5 142.5q0 83 -63 136t-177 53q-188 0 -332 -172l-166 157q190 244 510 244q223 0 352.5 -109t129.5 -290
q0 -119 -60 -205t-172 -121q121 -38 186.5 -128.5t65.5 -215.5q0 -183 -139.5 -298.5t-376.5 -115.5z" />
    <glyph glyph-name="four.tf" horiz-adv-x="1331" 
d="M852 0v291h-735v211l676 932h299v-930h188v-213h-188v-291h-240zM377 504h475v651z" />
    <glyph glyph-name="five.tf" horiz-adv-x="1331" 
d="M651 -25q-303 0 -508 199l150 180q160 -147 354 -147q138 0 217.5 67.5t79.5 180.5q0 109 -71 174t-193 65q-152 0 -270 -88l-187 103l27 725h862v-234h-635l-10 -340q110 55 252 55q214 0 346.5 -122t132.5 -338q0 -221 -148.5 -350.5t-398.5 -129.5z" />
    <glyph glyph-name="six.tf" horiz-adv-x="1331" 
d="M670 -25q-155 0 -278 63t-194 182.5t-71 277.5q0 266 219 551l291 385h305l-367 -469q72 16 140 16q216 0 360 -140t144 -356q0 -222 -155.5 -366t-393.5 -144zM381 500q0 -138 79 -218.5t214 -80.5q134 0 213.5 77t79.5 203t-79.5 203.5t-213.5 77.5q-143 0 -264 -92
q-29 -95 -29 -170z" />
    <glyph glyph-name="seven.tf" horiz-adv-x="1331" 
d="M307 0l578 1200h-709v234h993v-205l-581 -1229h-281z" />
    <glyph glyph-name="eight.tf" horiz-adv-x="1331" 
d="M666 -25q-256 0 -399.5 118.5t-143.5 303.5q0 118 59 210.5t172 144.5q-178 106 -178 311q0 170 132 282.5t358 112.5q227 0 359 -112.5t132 -282.5q0 -205 -180 -311q113 -52 172 -144.5t59 -210.5q0 -185 -143 -303.5t-399 -118.5zM379 418q0 -100 75 -162.5t212 -62.5
t211.5 62.5t74.5 162.5q0 99 -74.5 161t-211.5 62t-212 -62t-75 -161zM430 1044q0 -90 63.5 -145t172.5 -55q111 0 173 54.5t62 145.5q0 90 -62.5 144.5t-172.5 54.5q-109 0 -172.5 -55t-63.5 -144z" />
    <glyph glyph-name="nine.tf" horiz-adv-x="1331" 
d="M662 1458q237 0 389.5 -142t152.5 -380q0 -266 -219 -551l-291 -385h-305l367 469q-72 -16 -140 -16q-216 0 -359.5 139.5t-143.5 355.5q0 222 155.5 366t393.5 144zM365 952q0 -126 79 -203t213 -77q144 0 265 92q28 92 28 170q0 138 -79 218.5t-214 80.5
q-134 0 -213 -77.5t-79 -203.5z" />
    <glyph glyph-name="zero.tf.zero" horiz-adv-x="1331" 
d="M666 -25q-274 0 -432 196t-158 546t158 545.5t432 195.5t431.5 -195.5t157.5 -545.5q0 -351 -157.5 -546.5t-431.5 -195.5zM336 717q0 -239 76 -369l387 850q-59 27 -133 27q-160 0 -245 -125.5t-85 -382.5zM532 236q58 -27 134 -27q160 0 245.5 125.5t85.5 382.5
q0 239 -75 368z" />
    <glyph glyph-name="colon.case" horiz-adv-x="495" 
d="M248 211q-72 0 -120 47.5t-48 120.5q0 72 48 120t120 48t120 -48t48 -120q0 -73 -48 -120.5t-120 -47.5zM80 1051q0 72 48 120t120 48t120 -48t48 -120q0 -73 -48 -120.5t-120 -47.5t-120 47.5t-48 120.5z" />
    <glyph glyph-name="exclamdown.case" horiz-adv-x="561" 
d="M174 963h213l25 -957h-262zM113 1288q0 73 48 120.5t120 47.5t120 -47.5t48 -120.5q0 -72 -48 -120t-120 -48t-120 48t-48 120z" />
    <glyph glyph-name="questiondown.case" horiz-adv-x="1003" 
d="M676 879q0 -103 -31.5 -162t-134.5 -146l-96 -79q-48 -42 -67 -75t-19 -71q0 -64 42 -101.5t117 -37.5q184 0 258 225l216 -84q-43 -169 -169.5 -266.5t-304.5 -97.5q-180 0 -292.5 96.5t-112.5 253.5q0 85 41 159t139 156l90 76q51 42 64.5 70.5t13.5 91.5v78h246v-86z
M385 1290q0 73 48 120.5t120 47.5t120 -47.5t48 -120.5q0 -72 -48 -120t-120 -48t-120 48t-48 120z" />
    <glyph glyph-name="hyphen.case" horiz-adv-x="790" 
d="M74 616v218h643v-218h-643z" />
    <glyph glyph-name="endash.case" horiz-adv-x="1171" 
d="M74 614v217h1024v-217h-1024z" />
    <glyph glyph-name="emdash.case" horiz-adv-x="1785" 
d="M74 614v217h1638v-217h-1638z" />
    <glyph glyph-name="parenleft.case" horiz-adv-x="692" 
d="M457 -182q-160 180 -247 418t-87 481t87 481t247 418l186 -121q-118 -146 -192 -357.5t-74 -420.5t74 -420.5t192 -357.5z" />
    <glyph glyph-name="parenright.case" horiz-adv-x="692" 
d="M49 -61q118 146 192 357.5t74 420.5t-74 420.5t-192 357.5l187 121q160 -180 246.5 -418t86.5 -481t-86.5 -481t-246.5 -418z" />
    <glyph glyph-name="braceleft.case" horiz-adv-x="784" 
d="M530 -160q-153 0 -232 73t-79 212v358q0 65 -31 94t-100 29h-20v221h20q69 0 100 29t31 94v359q0 139 79 211.5t232 72.5h187v-221h-135q-62 0 -90.5 -27.5t-28.5 -89.5v-301q0 -185 -160 -233v-8q160 -48 160 -234v-301q0 -62 28.5 -89.5t90.5 -27.5h135v-221h-187z" />
    <glyph glyph-name="braceright.case" horiz-adv-x="784" 
d="M254 -160h-186v221h135q62 0 90.5 27.5t28.5 89.5v301q0 187 159 234v8q-159 47 -159 233v301q0 62 -28.5 89.5t-90.5 27.5h-135v221h186q153 0 232 -72.5t79 -211.5v-359q0 -65 31 -94t100 -29h21v-221h-21q-69 0 -100 -29t-31 -94v-358q0 -139 -79 -212t-232 -73z" />
    <glyph glyph-name="bracketleft.case" horiz-adv-x="749" 
d="M160 -160v1753h524v-221h-278v-1311h278v-221h-524z" />
    <glyph glyph-name="bracketright.case" horiz-adv-x="749" 
d="M590 -160h-524v221h278v1311h-278v221h524v-1753z" />
    <glyph glyph-name="guillemotleft.case" horiz-adv-x="1275" 
d="M410 272l-314 445l314 446h270l-309 -446l309 -445h-270zM584 717l313 446h270l-309 -446l309 -445h-270z" />
    <glyph glyph-name="guillemotright.case" horiz-adv-x="1275" 
d="M866 272h-270l309 445l-309 446h270l314 -446zM109 272l309 445l-309 446h270l313 -446l-313 -445h-270z" />
    <glyph glyph-name="guilsinglleft.case" horiz-adv-x="788" 
d="M410 272l-314 445l314 446h270l-309 -446l309 -445h-270z" />
    <glyph glyph-name="guilsinglright.case" horiz-adv-x="788" 
d="M379 272h-270l309 445l-309 446h270l313 -446z" />
    <glyph glyph-name="florin.tf" horiz-adv-x="1331" 
d="M356 -25q-68 0 -123 17v213q37 -6 72 -6q74 0 113 35t57 128l66 349h-213v170h245l52 266q59 311 352 311q71 0 123 -16v-213q-40 6 -74 6q-73 0 -112 -36t-56 -128l-37 -190h252v-170h-285l-79 -424q-59 -312 -353 -312z" />
    <glyph glyph-name="at.case" horiz-adv-x="1980" 
d="M1036 -174q-200 0 -371.5 65t-292.5 180t-190 278.5t-69 355.5q0 257 122.5 464t331 321t459.5 114q177 0 335.5 -59.5t275.5 -164.5t186 -256.5t69 -326.5q0 -236 -108.5 -378.5t-288.5 -142.5q-170 0 -258 121q-113 -104 -270 -104q-163 0 -278.5 119t-115.5 297
q0 180 115 298.5t279 118.5q126 0 215 -71v53h215v-518q0 -65 28 -99t80 -34q79 0 128.5 82.5t49.5 234.5q0 193 -86.5 337t-234.5 218t-334 74q-203 0 -362 -88.5t-246.5 -246.5t-87.5 -359q0 -307 195 -495.5t513 -188.5q111 0 213.5 24t173.5 66l86 -174
q-91 -54 -215 -84.5t-262 -30.5zM791 709q0 -99 58 -159.5t150 -60.5q113 0 183 82v19v258q-70 82 -183 82q-92 0 -150 -60.5t-58 -160.5z" />
    <glyph glyph-name="uni20BF.tf" horiz-adv-x="1331" 
d="M362 -180v180h-235v1434h235v180h191v-180h147h19v180h190v-207q132 -40 202.5 -131t70.5 -225q0 -196 -152 -279q126 -44 189 -133t63 -215q0 -164 -96.5 -271t-276.5 -139v-194h-190v180h-166v-180h-191zM383 223h360q132 0 202.5 56.5t70.5 154.5t-70.5 155.5
t-202.5 57.5h-360v-424zM383 864h324q104 0 159.5 46.5t55.5 129.5q0 82 -55 126t-160 44h-324v-346z" />
    <glyph glyph-name="cent.tf" horiz-adv-x="1331" 
d="M639 0v195q-203 22 -331 163t-128 351q0 212 129 356.5t330 169.5v199h121v-197q117 -9 217.5 -63.5t165.5 -147.5l-174 -143q-89 119 -209 141v-618q136 19 229 147l166 -129q-64 -101 -167 -160.5t-228 -70.5v-193h-121zM414 713q0 -117 62.5 -198t162.5 -105v610
q-100 -24 -162.5 -106.5t-62.5 -200.5z" />
    <glyph glyph-name="currency.tf" horiz-adv-x="1331" 
d="M666 311q-127 0 -226 60l-143 -144l-121 119l143 143q-63 101 -63 228q0 126 63 227l-143 143l121 119l143 -143q97 59 226 59q128 0 225 -59l145 143l119 -119l-141 -143q63 -101 63 -227q0 -127 -63 -228l141 -143l-119 -119l-145 144q-99 -60 -225 -60zM473 717
q0 -91 52.5 -146t140.5 -55t141 55t53 146t-53 146t-141 55t-140.5 -55t-52.5 -146z" />
    <glyph glyph-name="dollar.tf" horiz-adv-x="1331" 
d="M610 -86v131q-265 19 -446 172l137 184q156 -116 309 -137v373l-98 25q-159 38 -241.5 124.5t-82.5 214.5q0 161 119 269.5t314 120.5v129h116v-131q239 -22 406 -181l-152 -164q-111 103 -254 125v-346l111 -26q321 -77 321 -348q0 -172 -117.5 -281.5t-322.5 -122.5
v-131h-119zM422 1016q0 -59 46 -98t153 -66v322q-94 -7 -146.5 -51.5t-52.5 -106.5zM729 260q96 9 151.5 57t55.5 117q0 64 -49 105.5t-152 66.5l-6 2v-348z" />
    <glyph glyph-name="Euro.tf" horiz-adv-x="1331" 
d="M817 -25q-214 0 -360 136t-193 381h-170v149h152q-2 25 -2 76t2 76h-152v149h170q47 244 193 380t360 136q131 0 246.5 -56.5t187.5 -160.5l-180 -147q-105 149 -254 149q-108 0 -186 -77t-111 -224h432l-41 -149h-411q-2 -25 -2 -76t2 -76h452l-41 -149h-391
q33 -147 111 -224.5t186 -77.5q150 0 256 148l176 -143q-70 -105 -184.5 -162.5t-247.5 -57.5z" />
    <glyph glyph-name="sterling.tf" horiz-adv-x="1331" 
d="M188 166q141 92 198.5 172t57.5 176q0 50 -12 96h-235v170h159q-64 117 -82 171q-20 63 -20 124q0 163 127.5 273t329.5 110q140 0 255.5 -57t188.5 -162l-182 -152q-114 146 -258 146q-91 0 -148 -48t-57 -122q0 -32 11.5 -71.5t21 -62t38 -78.5t35.5 -71h379v-170h-319
q6 -38 6 -78q0 -146 -94 -256h14q69 0 153 -36.5t128 -36.5q45 0 79.5 26.5t73.5 94.5l181 -111q-102 -238 -316 -238q-51 0 -100.5 14t-83.5 31.5t-81.5 31.5t-94.5 14q-104 0 -228 -91z" />
    <glyph glyph-name="yen.tf" horiz-adv-x="1331" 
d="M539 0v260h-353v156h353v164h-353v155h291l-366 699h264l291 -584l290 584h265l-367 -699h293v-155h-354v-164h354v-156h-354v-260h-254z" />
    <glyph glyph-name="uni0308.case" 
d="M840 1194q-64 0 -109 44.5t-45 111.5t45 111t109 44q65 0 110 -44t45 -111t-45 -111.5t-110 -44.5zM233 1350q0 67 45.5 111t110.5 44q64 0 109 -44t45 -111t-45 -111.5t-109 -44.5q-65 0 -110.5 44.5t-45.5 111.5z" />
    <glyph glyph-name="uni0307.case" 
d="M614 1190q-67 0 -114 46t-47 114q0 67 47 112t114 45t114.5 -45t47.5 -112q0 -68 -47.5 -114t-114.5 -46z" />
    <glyph glyph-name="gravecomb.case" 
d="M567 1186l-227 319h299l158 -319h-230z" />
    <glyph glyph-name="acutecomb.case" 
d="M414 1186l157 319h303l-227 -319h-233z" />
    <glyph glyph-name="uni030B.case" 
d="M666 1186l139 319h254l-189 -319h-204zM283 1186l137 319h256l-191 -319h-202z" />
    <glyph glyph-name="uni0302.case" 
d="M246 1186l246 319h245l246 -319h-229l-140 170l-139 -170h-229z" />
    <glyph glyph-name="uni030C.case" 
d="M492 1186l-246 319h229l139 -172l140 172h229l-246 -319h-245z" />
    <glyph glyph-name="uni0306.case" 
d="M614 1184q-149 0 -233 80t-84 219v16h199q0 -156 118 -156q57 0 88 39t31 117h199v-16q0 -139 -84.5 -219t-233.5 -80z" />
    <glyph glyph-name="uni030A.case" 
d="M614 1157q-101 0 -168 62.5t-67 156.5t67 157.5t168 63.5t168.5 -63.5t67.5 -157.5t-67.5 -156.5t-168.5 -62.5zM526 1376q0 -37 24.5 -61.5t63.5 -24.5t63.5 24.5t24.5 61.5t-24.5 62.5t-63.5 25.5t-63.5 -25.5t-24.5 -62.5z" />
    <glyph glyph-name="tildecomb.case" 
d="M764 1198q-76 0 -172 66q-65 43 -100 43q-55 0 -72 -86l-174 49q15 109 75.5 168t145.5 59q33 0 68 -11.5t52.5 -21t51.5 -30.5q60 -43 100 -43q53 0 70 86l174 -52q-14 -109 -75 -168t-144 -59z" />
    <glyph glyph-name="uni0304.case" 
d="M313 1233v197h602v-197h-602z" />
    <glyph glyph-name="uni0315.case" 
d="M492 983q114 100 135 193q-8 -2 -25 -2q-63 0 -103 39.5t-40 99.5q0 62 42.5 103.5t106.5 41.5q73 0 118.5 -57t45.5 -150q-3 -189 -209 -348z" />
    <glyph glyph-name="uni0326.case" 
d="M561 -543q55 73 64 144q-8 -2 -23 -2q-64 0 -102.5 34t-38.5 88q0 56 41.5 96t105.5 40q74 0 120 -52.5t46 -136.5q0 -112 -74 -211h-139z" />
    <glyph glyph-name="uni0327.case" 
d="M309 -375l246 451h203l-168 -451h-281z" />
    <glyph glyph-name="uni0328.case" 
d="M678 -473q-120 0 -191 59t-71 160t74 182.5t210 118.5l91 -47q-87 -63 -122.5 -110.5t-35.5 -90.5q0 -73 92 -73q35 0 66 10v-197q-49 -12 -113 -12z" />
    <glyph glyph-name="uni0308.narrow" 
d="M799 1208q-61 0 -100.5 41.5t-39.5 106.5q0 64 39.5 104.5t100.5 40.5q60 0 99.5 -40.5t39.5 -104.5q0 -66 -39.5 -107t-99.5 -41zM291 1356q0 64 39.5 104.5t99.5 40.5t99.5 -40.5t39.5 -104.5q0 -66 -39.5 -107t-99.5 -41t-99.5 41t-39.5 107z" />
    <glyph glyph-name="gravecomb.narrow" 
d="M590 1200l-172 301h284l109 -301h-221z" />
    <glyph glyph-name="acutecomb.narrow" 
d="M418 1200l106 301h287l-174 -301h-219z" />
    <glyph glyph-name="uni0302.narrow" 
d="M295 1200l219 301h201l219 -301h-211l-109 150l-108 -150h-211z" />
    <glyph glyph-name="uni030C.narrow" 
d="M514 1200l-219 301h211l108 -149l109 149h211l-219 -301h-201z" />
    <glyph glyph-name="uni0306.narrow" 
d="M614 1198q-134 0 -206 75t-72 206v16h174q0 -73 27.5 -109t76.5 -36t77 36t28 109h174v-16q0 -131 -72.5 -206t-206.5 -75z" />
    <glyph glyph-name="tildecomb.narrow" 
d="M289 1270q13 101 65.5 158t124.5 57q60 0 154 -60q49 -39 86 -39q50 0 67 82l154 -45q-13 -100 -65.5 -157.5t-124.5 -57.5q-67 0 -154 62q-56 37 -86 37q-51 0 -68 -82z" />
    <glyph glyph-name="uni0304.narrow" 
d="M350 1245v185h529v-185h-529z" />
    <glyph glyph-name="uni0328.narrow" 
d="M682 -449q-106 0 -168.5 54.5t-62.5 146.5q0 96 66.5 175t182.5 114l80 -41q-72 -64 -99.5 -107t-27.5 -83q0 -72 72 -72q22 0 55 10v-184q-50 -13 -98 -13z" />
    </font>
</defs>
</svg>
